<?xml version="1.0" encoding="utf-8"?>
<!-- Generator: Adobe Illustrator 18.0.0, SVG Export Plug-In . SVG Version: 6.00 Build 0)  -->
<!DOCTYPE svg PUBLIC "-//W3C//DTD SVG 1.1//EN" "http://www.w3.org/Graphics/SVG/1.1/DTD/svg11.dtd">
<svg version="1.1" id="Layer_1" xmlns="http://www.w3.org/2000/svg" xmlns:xlink="http://www.w3.org/1999/xlink" x="0px" y="0px"
	 viewBox="0 0 512 512" enable-background="new 0 0 512 512" xml:space="preserve">
<g>
	<g>
		<g>
			<path fill="#DBDFE0" d="M430.6,2H81.4c-5.5,0-10.7,3.2-11.6,7.2L2.4,297c-1.8,7.5,3,13.6,10.6,13.6h486c7.6,0,12.4-6.2,10.6-13.6
				L442.2,9.2C441.3,5.2,436.1,2,430.6,2z"/>
		</g>
		<g>
			<path fill="#EFF3F5" d="M430.6,2H81.4c-5.5,0-10.7,3.2-11.6,7.2L68.7,14c0.9-4,6.2-7.3,11.7-7.3h351.3c5.5,0,10.7,3.2,11.7,7.3
				l-1.1-4.8C441.3,5.2,436.1,2,430.6,2z"/>
		</g>
		<g>
			<polygon fill="#2E89AC" points="178.8,122.3 68.5,122.3 89.9,18.5 187.6,18.5 			"/>
		</g>
		<g>
			<polygon fill="#2E89AC" points="165.4,280.3 35.9,280.3 64.9,139.9 177.3,139.9 			"/>
		</g>
		<g>
			<polygon fill="#2E89AC" points="311.1,122.3 200.9,122.3 207.2,18.5 304.8,18.5 			"/>
		</g>
		<g>
			<polygon fill="#2E89AC" points="320.7,280.3 191.3,280.3 199.8,139.9 312.2,139.9 			"/>
		</g>
		<g>
			<polygon fill="#2E89AC" points="443.5,122.3 333.2,122.3 324.4,18.5 422.1,18.5 			"/>
		</g>
		<g>
			<polygon fill="#2E89AC" points="476.1,280.3 346.6,280.3 334.7,139.9 447.1,139.9 			"/>
		</g>
		<g>
			<g>
				<polygon fill="#379FC8" points="178.8,122.3 68.5,122.3 70.9,110.7 179.8,110.7 				"/>
			</g>
			<g>
				<polygon fill="#379FC8" points="311.1,122.3 200.9,122.3 201.6,110.7 310.4,110.7 				"/>
			</g>
			<g>
				<polygon fill="#379FC8" points="443.5,122.3 333.2,122.3 332.2,110.7 441.1,110.7 				"/>
			</g>
		</g>
		<g>
			<g>
				<polygon fill="#379FC8" points="165.4,280.3 35.9,280.3 39.2,264.3 166.7,264.3 				"/>
			</g>
			<g>
				<polygon fill="#379FC8" points="320.7,280.3 191.3,280.3 192.2,264.3 319.8,264.3 				"/>
			</g>
			<g>
				<polygon fill="#379FC8" points="476.1,280.3 346.6,280.3 345.3,264.3 472.8,264.3 				"/>
			</g>
		</g>
	</g>
	<g>
		<rect x="218.8" y="310.7" fill="#445C6C" width="74.3" height="150.5"/>
	</g>
	<g>
		<rect x="218.8" y="310.7" fill="#304754" width="74.3" height="34.4"/>
	</g>
	<g>
		<path fill="#DBDFE0" d="M337.5,461.1h-163c-27,0-48.9,21.9-48.9,48.9h260.7C386.4,483,364.5,461.1,337.5,461.1z"/>
	</g>
</g>
</svg>
