<?xml version="1.0" encoding="utf-8"?>
<!-- Generator: Adobe Illustrator 18.0.0, SVG Export Plug-In . SVG Version: 6.00 Build 0)  -->
<!DOCTYPE svg PUBLIC "-//W3C//DTD SVG 1.1//EN" "http://www.w3.org/Graphics/SVG/1.1/DTD/svg11.dtd">
<svg version="1.1" id="Layer_1" xmlns="http://www.w3.org/2000/svg" xmlns:xlink="http://www.w3.org/1999/xlink" x="0px" y="0px"
	 viewBox="0 0 512 512" enable-background="new 0 0 512 512" xml:space="preserve">
<g>
	<g>
		<g>
			<circle fill="#FBD984" cx="218.4" cy="256" r="100.4"/>
		</g>
		<g>
			<polygon fill="#41B3E2" points="230.7,137.3 218.4,40.2 206.1,137.3 			"/>
		</g>
		<g>
			<polygon fill="#41B3E2" points="169.7,147.1 110.5,69.2 148.4,159.3 			"/>
		</g>
		<g>
			<polygon fill="#41B3E2" points="121.7,186 31.5,148.1 109.5,207.3 			"/>
		</g>
		<g>
			<polygon fill="#41B3E2" points="99.7,243.7 2.6,256 99.7,268.3 			"/>
		</g>
		<g>
			<polygon fill="#41B3E2" points="109.5,304.7 31.5,363.9 121.7,326 			"/>
		</g>
		<g>
			<polygon fill="#41B3E2" points="148.4,352.7 110.5,442.8 169.7,364.9 			"/>
		</g>
		<g>
			<polygon fill="#41B3E2" points="206.1,374.7 218.4,471.8 230.7,374.7 			"/>
		</g>
		<g>
			<polygon fill="#41B3E2" points="267.1,364.9 326.3,442.8 288.4,352.7 			"/>
		</g>
		<g>
			<polygon fill="#41B3E2" points="315,326 405.2,363.9 327.3,304.7 			"/>
		</g>
		<g>
			<polygon fill="#41B3E2" points="337.1,268.3 434.1,256 337.1,243.7 			"/>
		</g>
		<g>
			<polygon fill="#41B3E2" points="327.3,207.3 405.2,148.1 315,186 			"/>
		</g>
		<g>
			<polygon fill="#41B3E2" points="288.4,159.3 326.3,69.2 267.1,147.1 			"/>
		</g>
		<g>
			
				<ellipse transform="matrix(0.7071 -0.7071 0.7071 0.7071 -106.4847 202.8798)" fill="#FFE3A4" cx="191.7" cy="230" rx="59" ry="42.9"/>
		</g>
	</g>
	<g>
		<g>
			<path fill="#F1786B" d="M487.2,52.5H270.3c-12.2,0-22.2,9.9-22.2,22.2v413.1c0,12.2,9.9,22.2,22.2,22.2h216.9
				c12.2,0,22.2-9.9,22.2-22.2V74.7C509.4,62.5,499.4,52.5,487.2,52.5z"/>
		</g>
		<g>
			<path fill="#FC8E86" d="M487.2,52.5H270.3c-12.2,0-22.2,9.9-22.2,22.2v11.4c0-12.2,9.9-22.2,22.2-22.2h216.9
				c12.2,0,22.2,9.9,22.2,22.2V74.7C509.4,62.5,499.4,52.5,487.2,52.5z"/>
		</g>
		<g>
			<path fill="#788D9A" d="M431.9,2H325.5C319.1,2,314,7.2,314,13.5v39h129.5v-39C443.5,7.2,438.3,2,431.9,2z"/>
		</g>
		<g>
			<polygon fill="#EFF3F5" points="393.5,181.3 296.2,278.6 380.8,278.6 278.2,381.2 460.1,257.5 378.7,257.5 479.2,181.3 			"/>
		</g>
	</g>
</g>
</svg>
