<?xml version="1.0" encoding="utf-8"?>
<!-- Generator: Adobe Illustrator 18.0.0, SVG Export Plug-In . SVG Version: 6.00 Build 0)  -->
<!DOCTYPE svg PUBLIC "-//W3C//DTD SVG 1.1//EN" "http://www.w3.org/Graphics/SVG/1.1/DTD/svg11.dtd">
<svg version="1.1" id="Layer_1" xmlns="http://www.w3.org/2000/svg" xmlns:xlink="http://www.w3.org/1999/xlink" x="0px" y="0px"
	 viewBox="0 0 512 512" enable-background="new 0 0 512 512" xml:space="preserve">
<g>
	<g>
		<g>
			<path fill="#FBD984" d="M140.5,478.5l-24.8,24.8c-8.9,8.9-23.4,8.9-32.3,0L8.7,428.6c-8.9-8.9-8.9-23.4,0-32.3l24.8-24.8
				c30.9-30.9,68.5-54.2,109.9-68.1h0l37.1-37.1c16.4-16.4,27.5-37.4,31.8-60.2l0,0l93.6,93.6l0,0c-22.8,4.3-43.8,15.4-60.2,31.8
				l-37.1,37.1l0,0C194.7,410.1,171.4,447.7,140.5,478.5z"/>
		</g>
		<g>
			<path fill="#FDC77C" d="M286.7,305.2c6.2-2.3,12.6-4.2,19.2-5.5l-93.6-93.6c-1.2,6.6-3.1,13-5.5,19.2L286.7,305.2z"/>
		</g>
		<g>
			
				<rect x="353.1" y="4" transform="matrix(0.7071 0.7071 -0.7071 0.7071 212.0113 -212.2427)" fill="#EFF3F5" width="18.2" height="291.6"/>
		</g>
		<g>
			<g>
				<polygon fill="#EFF3F5" points="496.9,2 458.5,22.4 458.9,40.3 471.7,53.1 489.6,53.5 510,15.1 				"/>
			</g>
		</g>
	</g>
	<g>
		<g>
			<g>
				<path fill="#F0B972" d="M41.3,426.5l-8.8-8.8c-0.3-0.3-0.3-0.8,0-1l70.5-70.5c0.3-0.3,0.8-0.3,1,0l8.8,8.8c0.3,0.3,0.3,0.8,0,1
					l-70.5,70.5C42.1,426.8,41.6,426.8,41.3,426.5z"/>
			</g>
		</g>
		<g>
			<g>
				<path fill="#F0B972" d="M59,444.1l-8.8-8.8c-0.3-0.3-0.3-0.8,0-1L218.4,266c0.3-0.3,0.8-0.3,1,0l8.8,8.8c0.3,0.3,0.3,0.8,0,1
					L60.1,444.1C59.8,444.4,59.3,444.4,59,444.1z"/>
			</g>
		</g>
		<g>
			<g>
				<path fill="#F0B972" d="M76.7,461.8l-8.8-8.8c-0.3-0.3-0.3-0.8,0-1l168.2-168.2c0.3-0.3,0.8-0.3,1,0l8.8,8.8
					c0.3,0.3,0.3,0.8,0,1L77.7,461.8C77.4,462.1,77,462.1,76.7,461.8z"/>
			</g>
		</g>
		<g>
			<g>
				<path fill="#F0B972" d="M94.4,479.5l-8.8-8.8c-0.3-0.3-0.3-0.8,0-1l70.5-70.5c0.3-0.3,0.8-0.3,1,0l8.8,8.8c0.3,0.3,0.3,0.8,0,1
					l-70.5,70.5C95.1,479.8,94.7,479.8,94.4,479.5z"/>
			</g>
		</g>
	</g>
</g>
</svg>
