<?xml version="1.0" encoding="utf-8"?>
<!-- Generator: Adobe Illustrator 18.0.0, SVG Export Plug-In . SVG Version: 6.00 Build 0)  -->
<!DOCTYPE svg PUBLIC "-//W3C//DTD SVG 1.1//EN" "http://www.w3.org/Graphics/SVG/1.1/DTD/svg11.dtd">
<svg version="1.1" id="Layer_1" xmlns="http://www.w3.org/2000/svg" xmlns:xlink="http://www.w3.org/1999/xlink" x="0px" y="0px"
	 viewBox="0 0 512 512" enable-background="new 0 0 512 512" xml:space="preserve">
<g>
	<g>
		<ellipse fill="#EFF3F5" cx="256" cy="256" rx="232.6" ry="232.6"/>
	</g>
	<g>
		<ellipse fill="#EFF3F5" cx="256" cy="256" rx="211.2" ry="211.2"/>
	</g>
	<g>
		<path fill="#FDFEFF" d="M467.2,256c0,3.5-0.1,7-0.3,10.5c-5.7-111.5-98-200.3-210.9-200.3c-113,0-205.3,88.8-210.9,200.3
			c-0.2-3.5-0.3-7-0.3-10.5c0-116.7,94.5-211.2,211.2-211.2C372.6,44.8,467.2,139.3,467.2,256z"/>
	</g>
	<g>
		<path fill="#F1786B" d="M256,510C115.9,510,2,396.1,2,256S115.9,2,256,2S510,116,510,256S396,510,256,510z M256,44.8
			C139.5,44.8,44.8,139.5,44.8,256S139.5,467.2,256,467.2S467.2,372.5,467.2,256S372.4,44.8,256,44.8z"/>
	</g>
	<g>
		<g>
			<polygon fill="#41B3E2" points="249.7,365.2 272.6,377 211.2,400.5 195.5,337.2 220.7,350.3 262.5,269.2 184.6,293.8 224.5,98.1 
				316.8,137.5 245.7,240.4 327.3,214.6 			"/>
		</g>
	</g>
	<g>
		<path fill="#F7857C" d="M256,2C115.9,2,2,116,2,256c0,3.6,0.1,7.2,0.2,10.7C7.9,131.6,119.6,23.4,256,23.4
			c136.3,0,248.1,108.2,253.8,243.3c0.1-3.5,0.2-7.1,0.2-10.7C510,116,396,2,256,2z"/>
	</g>
</g>
</svg>
