<?xml version="1.0" encoding="utf-8"?>
<!-- Generator: Adobe Illustrator 18.0.0, SVG Export Plug-In . SVG Version: 6.00 Build 0)  -->
<!DOCTYPE svg PUBLIC "-//W3C//DTD SVG 1.1//EN" "http://www.w3.org/Graphics/SVG/1.1/DTD/svg11.dtd">
<svg version="1.1" id="Layer_1" xmlns="http://www.w3.org/2000/svg" xmlns:xlink="http://www.w3.org/1999/xlink" x="0px" y="0px"
	 viewBox="0 0 512 512" enable-background="new 0 0 512 512" xml:space="preserve">
<g>
	<g>
		<path fill="#788D9A" d="M405.2,2H106.8c-8.2,0-14.9,6.7-14.9,14.9v478.1c0,8.2,6.7,14.9,14.9,14.9h298.5c8.2,0,14.9-6.7,14.9-14.9
			V16.9C420.2,8.7,413.5,2,405.2,2z"/>
	</g>
	<g>
		<path fill="#90A4AD" d="M405.2,2H106.8c-8.2,0-14.9,6.7-14.9,14.9v13.6c0-8.2,6.7-14.9,14.9-14.9h298.5c8.2,0,14.9,6.7,14.9,14.9
			V16.9C420.2,8.7,413.5,2,405.2,2z"/>
	</g>
	<g>
		<path fill="#445C6C" d="M149.9,2v204.1c0,58.6,47.5,106.1,106.1,106.1l0,0c58.6,0,106.1-47.5,106.1-106.1V2H149.9z"/>
	</g>
	<g>
		<rect x="149.9" y="2" fill="#556E7C" width="212.2" height="13.6"/>
	</g>
	<g>
		<rect x="146.2" y="468.9" fill="#FBD984" width="219.6" height="41.1"/>
	</g>
	<g>
		<circle fill="#DBDFE0" cx="256" cy="213.2" r="42.8"/>
	</g>
	<g>
		<circle fill="#F1786B" cx="256" cy="128.6" r="17.3"/>
	</g>
	<g>
		<circle fill="#5AC8AE" cx="256" cy="73.1" r="17.3"/>
	</g>
	<g>
		<g>
			<path fill="#EFF3F5" d="M344.5,383.2c-7.8,0-14.1-6.3-14.1-14.1c0-7.8,6.3-14.1,14.1-14.1c3.9,0,7.6,1.6,10.3,4.4
				c3.6,3.8,9.5,4,13.3,0.4c3.8-3.6,4-9.5,0.4-13.3c-6.2-6.6-14.9-10.4-24-10.4c-18.1,0-32.9,14.8-32.9,32.9
				c0,18.1,14.8,32.9,32.9,32.9c7.8,0,14.1,6.3,14.1,14.1c0,7.8-6.3,14.1-14.1,14.1c-3.9,0-7.6-1.6-10.3-4.4
				c-3.6-3.8-9.5-4-13.3-0.4c-3.8,3.6-4,9.5-0.4,13.3c6.2,6.6,14.9,10.4,24,10.4c18.1,0,32.9-14.8,32.9-32.9
				C377.4,397.9,362.6,383.2,344.5,383.2z"/>
		</g>
		<g>
			<path fill="#EFF3F5" d="M203.7,336.2c-5.2,0-9.4,4.2-9.4,9.4v64.1c0,11.3-9.2,20.4-20.4,20.4c-11.3,0-20.4-9.2-20.4-20.4v-64.1
				c0-5.2-4.2-9.4-9.4-9.4c-5.2,0-9.4,4.2-9.4,9.4v64.1c0,21.6,17.6,39.3,39.3,39.3c21.6,0,39.3-17.6,39.3-39.3v-64.1
				C213.1,340.4,208.9,336.2,203.7,336.2z"/>
		</g>
		<g>
			<path fill="#EFF3F5" d="M263.9,336.9h-24.6c-5.2,0-9.4,4.2-9.4,9.4v46.9v45.8c0,5.2,4.2,9.4,9.4,9.4c5.2,0,9.4-4.2,9.4-9.4v-36.4
				h15.2c18.1,0,32.8-14.7,32.8-32.8C296.7,351.6,282,336.9,263.9,336.9z M263.9,383.7h-15.2v-28.1h15.2c7.7,0,14,6.3,14,14
				C277.9,377.4,271.6,383.7,263.9,383.7z"/>
		</g>
	</g>
</g>
</svg>
