<?xml version="1.0" encoding="utf-8"?>
<!-- Generator: Adobe Illustrator 18.0.0, SVG Export Plug-In . SVG Version: 6.00 Build 0)  -->
<!DOCTYPE svg PUBLIC "-//W3C//DTD SVG 1.1//EN" "http://www.w3.org/Graphics/SVG/1.1/DTD/svg11.dtd">
<svg version="1.1" id="Layer_1" xmlns="http://www.w3.org/2000/svg" xmlns:xlink="http://www.w3.org/1999/xlink" x="0px" y="0px"
	 viewBox="0 0 512 512" enable-background="new 0 0 512 512" xml:space="preserve">
<g>
	<g>
		
			<rect x="84.8" y="36.3" transform="matrix(0.7071 -0.7071 0.7071 0.7071 -43.025 98.3504)" fill="#EFF3F5" width="24.8" height="129.7"/>
	</g>
	<g>
		<path fill="#788D9A" d="M499.8,128.8H107.4c-5.6,0-10.2,4.6-10.2,10.2v299c0,5.6,4.6,10.2,10.2,10.2h392.4
			c5.6,0,10.2-4.6,10.2-10.2V139C510,133.3,505.4,128.8,499.8,128.8z"/>
	</g>
	<g>
		<path fill="#94A6AF" d="M499.8,128.8H107.4c-5.6,0-10.2,4.6-10.2,10.2v9.9c0-5.6,4.6-10.2,10.2-10.2h392.4
			c5.6,0,10.2,4.6,10.2,10.2V139C510,133.3,505.4,128.8,499.8,128.8z"/>
	</g>
	<g>
		<rect x="137.4" y="146.2" fill="#627984" width="332.4" height="253.4"/>
	</g>
	<g>
		<g>
			<rect x="137.4" y="146.2" fill="#445C6C" width="9.1" height="253.4"/>
		</g>
		<g>
			<rect x="166.8" y="146.2" fill="#445C6C" width="9.1" height="253.4"/>
		</g>
		<g>
			<rect x="196.2" y="146.2" fill="#445C6C" width="9.1" height="253.4"/>
		</g>
		<g>
			<rect x="225.6" y="146.2" fill="#445C6C" width="9.1" height="253.4"/>
		</g>
		<g>
			<rect x="255" y="146.2" fill="#445C6C" width="9.1" height="253.4"/>
		</g>
		<g>
			<rect x="284.3" y="146.2" fill="#445C6C" width="9.1" height="253.4"/>
		</g>
		<g>
			<rect x="313.7" y="146.2" fill="#445C6C" width="9.1" height="253.4"/>
		</g>
		<g>
			<rect x="343.1" y="146.2" fill="#445C6C" width="9.1" height="253.4"/>
		</g>
		<g>
			<rect x="372.5" y="146.2" fill="#445C6C" width="9.1" height="253.4"/>
		</g>
		<g>
			<rect x="401.9" y="146.2" fill="#445C6C" width="9.1" height="253.4"/>
		</g>
		<g>
			<rect x="431.3" y="146.2" fill="#445C6C" width="9.1" height="253.4"/>
		</g>
		<g>
			<rect x="460.7" y="146.2" fill="#445C6C" width="9.1" height="253.4"/>
		</g>
	</g>
	<g>
		<g>
			<g>
				<circle fill="#DBDFE0" cx="159" cy="487.2" r="22.8"/>
			</g>
			<g>
				<path fill="#445C6C" d="M146.5,448.1v39.3c0,7.2,5.6,13.1,12.6,13.1c6.9,0,12.6-5.9,12.6-13.1v-39.3H146.5z"/>
			</g>
			<g>
				<circle fill="#DBDFE0" cx="159" cy="487.2" r="6.2"/>
			</g>
		</g>
		<g>
			<g>
				<circle fill="#DBDFE0" cx="448.2" cy="487.2" r="22.8"/>
			</g>
			<g>
				<path fill="#445C6C" d="M435.6,448.1v39.3c0,7.2,5.6,13.1,12.6,13.1c6.9,0,12.6-5.9,12.6-13.1v-39.3H435.6z"/>
			</g>
			<g>
				<circle fill="#DBDFE0" cx="448.2" cy="487.2" r="6.2"/>
			</g>
		</g>
	</g>
	<g>
		<circle fill="#DBDFE0" cx="51.6" cy="51.6" r="49.6"/>
	</g>
	<g>
		<path fill="#F2F2F2" d="M51.6,6.7c26.6,0,48.2,20.9,49.4,47.2c0-0.8,0.1-1.6,0.1-2.4C101.1,24.2,78.9,2,51.6,2S2,24.2,2,51.6
			c0,0.8,0.1,1.6,0.1,2.4C3.4,27.6,25,6.7,51.6,6.7z"/>
	</g>
	<g>
		<circle fill="#EFF3F5" cx="51.6" cy="51.6" r="32.2"/>
	</g>
	<g>
		<g>
			<g>
				<rect x="191.9" y="57" fill="#BF7643" width="22.2" height="71.8"/>
			</g>
			<g>
				<path fill="#E39A61" d="M206.8,41.5h-7.7c-1.4,0-2.6,0.9-3.1,2.2c-3.4,9-16.8,10.1-16.8,10.1V57h47.5v-3.2
					c0,0-13.4-1.1-16.8-10.1C209.4,42.4,208.2,41.5,206.8,41.5z"/>
			</g>
			<g>
				<path fill="#E39A61" d="M211.8,68.2h-17.7c-1.4,0-2.6,0.9-3.1,2.2c-3.4,9-11.8,10.1-11.8,10.1v3.2h47.5v-3.2
					c0,0-8.4-1.1-11.8-10.1C214.4,69.1,213.2,68.2,211.8,68.2z"/>
			</g>
			<g>
				<path fill="#E39A61" d="M211.8,94.9h-17.7c-1.4,0-2.6,0.9-3.1,2.2c-3.4,9-11.8,10.1-11.8,10.1v3.2h47.5v-3.2
					c0,0-8.4-1.1-11.8-10.1C214.4,95.8,213.2,94.9,211.8,94.9z"/>
			</g>
			<g>
				<path fill="#DBDFE0" d="M206.8,34.7L203,19.3l-3.8,15.4c-4.4,5.1,0,6.7,0,6.7h7.7C206.8,41.5,211.2,39.8,206.8,34.7z"/>
			</g>
		</g>
		<g>
			<g>
				<rect x="292.5" y="57" fill="#BF7643" width="22.2" height="71.8"/>
			</g>
			<g>
				<path fill="#E39A61" d="M307.4,41.5h-7.7c-1.4,0-2.6,0.9-3.1,2.2c-3.4,9-16.8,10.1-16.8,10.1V57h47.5v-3.2
					c0,0-13.4-1.1-16.8-10.1C310,42.4,308.8,41.5,307.4,41.5z"/>
			</g>
			<g>
				<path fill="#E39A61" d="M312.4,68.2h-17.7c-1.4,0-2.6,0.9-3.1,2.2c-3.4,9-11.8,10.1-11.8,10.1v3.2h47.5v-3.2
					c0,0-8.4-1.1-11.8-10.1C315,69.1,313.8,68.2,312.4,68.2z"/>
			</g>
			<g>
				<path fill="#E39A61" d="M312.4,94.9h-17.7c-1.4,0-2.6,0.9-3.1,2.2c-3.4,9-11.8,10.1-11.8,10.1v3.2h47.5v-3.2
					c0,0-8.4-1.1-11.8-10.1C315,95.8,313.8,94.9,312.4,94.9z"/>
			</g>
			<g>
				<path fill="#DBDFE0" d="M307.4,34.7l-3.8-15.4l-3.8,15.4c-4.4,5.1,0,6.7,0,6.7h7.7C307.4,41.5,311.8,39.8,307.4,34.7z"/>
			</g>
		</g>
		<g>
			<g>
				<rect x="393.1" y="57" fill="#BF7643" width="22.2" height="71.8"/>
			</g>
			<g>
				<path fill="#E39A61" d="M408,41.5h-7.7c-1.4,0-2.6,0.9-3.1,2.2c-3.4,9-16.8,10.1-16.8,10.1V57H428v-3.2c0,0-13.4-1.1-16.8-10.1
					C410.7,42.4,409.4,41.5,408,41.5z"/>
			</g>
			<g>
				<path fill="#E39A61" d="M413,68.2h-17.7c-1.4,0-2.6,0.9-3.1,2.2c-3.4,9-11.8,10.1-11.8,10.1v3.2H428v-3.2c0,0-8.4-1.1-11.8-10.1
					C415.7,69.1,414.4,68.2,413,68.2z"/>
			</g>
			<g>
				<path fill="#E39A61" d="M413,94.9h-17.7c-1.4,0-2.6,0.9-3.1,2.2c-3.4,9-11.8,10.1-11.8,10.1v3.2H428v-3.2c0,0-8.4-1.1-11.8-10.1
					C415.7,95.8,414.4,94.9,413,94.9z"/>
			</g>
			<g>
				<path fill="#DBDFE0" d="M408,34.7l-3.8-15.4l-3.8,15.4c-4.4,5.1,0,6.7,0,6.7h7.7C408,41.5,412.4,39.8,408,34.7z"/>
			</g>
		</g>
	</g>
</g>
</svg>
