<?xml version="1.0" encoding="utf-8"?>
<!-- Generator: Adobe Illustrator 18.0.0, SVG Export Plug-In . SVG Version: 6.00 Build 0)  -->
<!DOCTYPE svg PUBLIC "-//W3C//DTD SVG 1.1//EN" "http://www.w3.org/Graphics/SVG/1.1/DTD/svg11.dtd">
<svg version="1.1" id="Layer_1" xmlns="http://www.w3.org/2000/svg" xmlns:xlink="http://www.w3.org/1999/xlink" x="0px" y="0px"
	 viewBox="0 0 512 512" enable-background="new 0 0 512 512" xml:space="preserve">
<g>
	<g>
		<path fill="#DBDFE0" d="M425.7,2H86.3C58.2,2,35.4,23.6,35.4,50.2v411.6c0,26.6,22.8,48.2,50.9,48.2h339.4
			c28.1,0,50.9-21.6,50.9-48.2V50.2C476.6,23.6,453.8,2,425.7,2z M359.5,399.1h-207V112.9h207V399.1z"/>
	</g>
	<g>
		<path fill="#EFF3F5" d="M425.7,2H86.3C58.2,2,35.4,23.6,35.4,50.2v10.5c0-26.6,22.8-48.2,50.9-48.2h339.4
			c28.1,0,50.9,21.6,50.9,48.2V50.2C476.6,23.6,453.8,2,425.7,2z"/>
	</g>
	<g>
		<g>
			<rect x="2" y="159.4" fill="#FBD984" width="186.9" height="12.9"/>
		</g>
		<g>
			<rect x="2" y="324.4" fill="#FBD984" width="186.9" height="12.9"/>
		</g>
		<g>
			<rect x="19.1" y="172.3" fill="#E39A61" width="152.8" height="152.1"/>
		</g>
	</g>
	<g>
		<g>
			<rect x="323.1" y="159.4" fill="#FBD984" width="186.9" height="12.9"/>
		</g>
		<g>
			<rect x="323.1" y="324.4" fill="#FBD984" width="186.9" height="12.9"/>
		</g>
		<g>
			<rect x="340.2" y="172.3" fill="#E39A61" width="152.8" height="152.1"/>
		</g>
	</g>
	<g>
		<g>
			<g>
				<circle fill="#EFF3F5" cx="99.6" cy="61.9" r="20.7"/>
			</g>
			<g>
				<circle fill="#EFF3F5" cx="412.4" cy="61.9" r="20.7"/>
			</g>
		</g>
		<g>
			<g>
				<circle fill="#EFF3F5" cx="99.6" cy="450.1" r="20.7"/>
			</g>
			<g>
				<circle fill="#EFF3F5" cx="412.4" cy="450.1" r="20.7"/>
			</g>
		</g>
	</g>
	<g>
		<g>
			<g>
				<rect x="19.1" y="179" fill="#C17540" width="152.8" height="3.7"/>
			</g>
		</g>
		<g>
			<g>
				<rect x="19.1" y="190.3" fill="#C17540" width="152.8" height="3.7"/>
			</g>
		</g>
		<g>
			<g>
				<rect x="19.1" y="201.5" fill="#C17540" width="152.8" height="3.7"/>
			</g>
		</g>
		<g>
			<g>
				<rect x="19.1" y="212.8" fill="#C17540" width="152.8" height="3.7"/>
			</g>
		</g>
		<g>
			<g>
				<rect x="19.1" y="224" fill="#C17540" width="152.8" height="3.7"/>
			</g>
		</g>
		<g>
			<g>
				<rect x="19.1" y="235.3" fill="#C17540" width="152.8" height="3.7"/>
			</g>
		</g>
		<g>
			<g>
				<rect x="19.1" y="246.5" fill="#C17540" width="152.8" height="3.7"/>
			</g>
		</g>
		<g>
			<g>
				<rect x="19.1" y="257.7" fill="#C17540" width="152.8" height="3.7"/>
			</g>
		</g>
		<g>
			<g>
				<rect x="19.1" y="269" fill="#C17540" width="152.8" height="3.7"/>
			</g>
		</g>
		<g>
			<g>
				<rect x="19.1" y="280.2" fill="#C17540" width="152.8" height="3.7"/>
			</g>
		</g>
		<g>
			<g>
				<rect x="19.1" y="291.5" fill="#C17540" width="152.8" height="3.7"/>
			</g>
		</g>
		<g>
			<g>
				<rect x="19.1" y="302.7" fill="#C17540" width="152.8" height="3.7"/>
			</g>
		</g>
		<g>
			<g>
				<rect x="19.1" y="314" fill="#C17540" width="152.8" height="3.7"/>
			</g>
		</g>
	</g>
	<g>
		<g>
			<g>
				<rect x="340.2" y="179" fill="#C17540" width="152.8" height="3.7"/>
			</g>
		</g>
		<g>
			<g>
				<rect x="340.2" y="190.3" fill="#C17540" width="152.8" height="3.7"/>
			</g>
		</g>
		<g>
			<g>
				<rect x="340.2" y="201.5" fill="#C17540" width="152.8" height="3.7"/>
			</g>
		</g>
		<g>
			<g>
				<rect x="340.2" y="212.8" fill="#C17540" width="152.8" height="3.7"/>
			</g>
		</g>
		<g>
			<g>
				<rect x="340.2" y="224" fill="#C17540" width="152.8" height="3.7"/>
			</g>
		</g>
		<g>
			<g>
				<rect x="340.2" y="235.3" fill="#C17540" width="152.8" height="3.7"/>
			</g>
		</g>
		<g>
			<g>
				<rect x="340.2" y="246.5" fill="#C17540" width="152.8" height="3.7"/>
			</g>
		</g>
		<g>
			<g>
				<rect x="340.2" y="257.7" fill="#C17540" width="152.8" height="3.7"/>
			</g>
		</g>
		<g>
			<g>
				<rect x="340.2" y="269" fill="#C17540" width="152.8" height="3.7"/>
			</g>
		</g>
		<g>
			<g>
				<rect x="340.2" y="280.2" fill="#C17540" width="152.8" height="3.7"/>
			</g>
		</g>
		<g>
			<g>
				<rect x="340.2" y="291.5" fill="#C17540" width="152.8" height="3.7"/>
			</g>
		</g>
		<g>
			<g>
				<rect x="340.2" y="302.7" fill="#C17540" width="152.8" height="3.7"/>
			</g>
		</g>
		<g>
			<g>
				<rect x="340.2" y="314" fill="#C17540" width="152.8" height="3.7"/>
			</g>
		</g>
	</g>
</g>
</svg>
