<?xml version="1.0" encoding="utf-8"?>
<!-- Generator: Adobe Illustrator 18.0.0, SVG Export Plug-In . SVG Version: 6.00 Build 0)  -->
<!DOCTYPE svg PUBLIC "-//W3C//DTD SVG 1.1//EN" "http://www.w3.org/Graphics/SVG/1.1/DTD/svg11.dtd">
<svg version="1.1" id="Layer_1" xmlns="http://www.w3.org/2000/svg" xmlns:xlink="http://www.w3.org/1999/xlink" x="0px" y="0px"
	 viewBox="0 0 512 512" enable-background="new 0 0 512 512" xml:space="preserve">
<g>
	<g>
		<path fill="#5ACEF2" d="M422.9,170.6c5.9-18.2,3.3-38.8-8.9-55.4c-15.8-21.5-42.9-29.5-66.9-21.9c-21.7-67-92-105.5-159.9-86.4
			C129,23.2,90.9,76.6,91.1,134.8C40.3,145,2,190.2,2,244.5c0,61.8,49.7,111.9,110.9,111.9h304.9c50.9,0,92.2-41.6,92.2-93
			C510,213.8,471.5,173.3,422.9,170.6z"/>
	</g>
	<g>
		<g>
			<path fill="#7CE4FC" d="M422.9,193.4c44.7,2.5,80.9,37.2,86.3,81.5c0.5-3.7,0.8-7.5,0.8-11.4c0-48.6-37-88.4-84.2-92.5
				C426.2,178.5,425.3,186.1,422.9,193.4z"/>
		</g>
		<g>
			<path fill="#7CE4FC" d="M91.1,157.5C90.9,99.4,129,46,187.2,29.7c68-19.1,138.3,19.4,159.9,86.4c24-7.6,51.1,0.4,66.9,21.9
				c5.6,7.7,9.1,16.3,10.8,25.1c3.1-16.2-0.3-33.6-10.8-47.9c-15.8-21.5-42.9-29.5-66.9-21.9c-21.7-67-92-105.5-159.9-86.4
				C129,23.2,90.9,76.6,91.1,134.8C40.3,145,2,190.2,2,244.5c0,3.9,0.2,7.8,0.6,11.6C7.4,206.9,43.8,167.1,91.1,157.5z"/>
		</g>
	</g>
	<g>
		<g>
			<polygon fill="#445C6C" points="123.2,213.9 123.2,278.5 152.3,308.9 211.6,308.9 240.6,278.5 240.6,213.9 			"/>
		</g>
		<g>
			<polygon fill="#566E7C" points="142.9,229.9 142.9,272.8 162.2,293 201.6,293 220.9,272.8 220.9,229.9 			"/>
		</g>
		<g>
			<rect x="143.4" y="169.2" fill="#EFF3F5" width="77" height="44.7"/>
		</g>
		<g>
			<rect x="143.4" y="169.2" fill="#DBDFE0" width="77" height="2.8"/>
		</g>
		<g>
			<g>
				<rect x="158.6" y="181.5" fill="#DBDFE0" width="9" height="20.1"/>
			</g>
			<g>
				<rect x="196.3" y="181.5" fill="#DBDFE0" width="9" height="20.1"/>
			</g>
		</g>
	</g>
	<g>
		<g>
			<polygon fill="#445C6C" points="360.5,487.7 360.5,450.2 349.9,419.5 328.2,419.5 317.5,450.2 317.5,487.7 			"/>
		</g>
		<g>
			<rect x="326.8" y="487.7" fill="#DBDFE0" width="24.4" height="22.3"/>
		</g>
		<g>
			<rect x="326.8" y="487.6" fill="#B9BABA" width="24.4" height="4.2"/>
		</g>
		<g>
			<rect x="325.3" y="468.1" fill="#788D9A" width="27.3" height="7"/>
		</g>
		<g>
			<rect x="325.3" y="454.9" fill="#788D9A" width="27.3" height="7"/>
		</g>
	</g>
	<g>
		<g>
			<path fill="#788D9A" d="M225.5,506.8c-28.4,0-51.5-23.1-51.5-51.5V308.9h15.9v146.3c0,19.6,16,35.6,35.6,35.6s35.6-16,35.6-35.6
				v-102c0-23.7,19.3-43,43-43s43,19.3,43,43v66.2h-15.9v-66.2c0-15-12.2-27.1-27.1-27.1c-15,0-27.1,12.2-27.1,27.1v102
				C277,483.7,253.9,506.8,225.5,506.8z"/>
		</g>
	</g>
</g>
</svg>
