<?xml version="1.0" encoding="utf-8"?>
<!-- Generator: Adobe Illustrator 18.0.0, SVG Export Plug-In . SVG Version: 6.00 Build 0)  -->
<!DOCTYPE svg PUBLIC "-//W3C//DTD SVG 1.1//EN" "http://www.w3.org/Graphics/SVG/1.1/DTD/svg11.dtd">
<svg version="1.1" id="Layer_1" xmlns="http://www.w3.org/2000/svg" xmlns:xlink="http://www.w3.org/1999/xlink" x="0px" y="0px"
	 viewBox="0 0 512 512" enable-background="new 0 0 512 512" xml:space="preserve">
<g>
	<g>
		<ellipse fill="#5AC8AE" cx="256" cy="256.4" rx="167.6" ry="149.3"/>
	</g>
	<g>
		<path fill="#6ED6BA" d="M256,122.6c89.6,0,162.9,62.7,167.4,141.5c0.1-2.6,0.2-5.2,0.2-7.8c0-82.4-75-149.3-167.6-149.3
			c-92.6,0-167.6,66.8-167.6,149.3c0,2.6,0.1,5.2,0.2,7.8C93.1,185.3,166.4,122.6,256,122.6z"/>
	</g>
	<g>
		<polygon fill="#FBD984" points="364.6,245.8 256,79.4 147.4,245.8 32.3,112.3 86.6,348.5 86.6,488 256,488 425.4,488 425.4,348.5 
			479.7,112.3 		"/>
	</g>
	<g>
		<circle fill="#F1786B" cx="256" cy="57.5" r="33.5"/>
	</g>
	<g>
		<circle fill="#F1786B" cx="26.8" cy="104.2" r="24.8"/>
	</g>
	<g>
		<circle fill="#F1786B" cx="485.2" cy="104.2" r="24.8"/>
	</g>
	<g>
		<path fill="#FC958D" d="M256,32.6c17,0,31.1,12.7,33.2,29.2c0.2-1.4,0.3-2.9,0.3-4.3c0-18.5-15-33.5-33.5-33.5s-33.5,15-33.5,33.5
			c0,1.5,0.1,2.9,0.3,4.3C224.9,45.4,239,32.6,256,32.6z"/>
	</g>
	<g>
		<path fill="#FC958D" d="M26.8,88c12.2,0,22.3,8.8,24.4,20.5c0.2-1.4,0.4-2.8,0.4-4.3c0-13.7-11.1-24.8-24.8-24.8
			C13.1,79.4,2,90.5,2,104.2c0,1.5,0.2,2.9,0.4,4.3C4.5,96.9,14.6,88,26.8,88z"/>
	</g>
	<g>
		<path fill="#FC958D" d="M485.2,88c12.2,0,22.3,8.8,24.4,20.5c0.2-1.4,0.4-2.8,0.4-4.3c0-13.7-11.1-24.8-24.8-24.8
			c-13.7,0-24.8,11.1-24.8,24.8c0,1.5,0.2,2.9,0.4,4.3C462.9,96.9,473,88,485.2,88z"/>
	</g>
	<g>
		<path fill="#F1786B" d="M430.8,457.1H81.2c-8.5,0-15.5,6.9-15.5,15.5c0,8.5,6.9,15.5,15.5,15.5h349.7c8.5,0,15.5-6.9,15.5-15.5
			C446.3,464,439.4,457.1,430.8,457.1z"/>
	</g>
	<g>
		<path fill="#F1786B" d="M430.8,340.1H81.2c-8.5,0-15.5,6.9-15.5,15.5c0,8.5,6.9,15.5,15.5,15.5h349.7c8.5,0,15.5-6.9,15.5-15.5
			C446.3,347,439.4,340.1,430.8,340.1z"/>
	</g>
	<g>
		<g>
			
				<rect x="113.3" y="396.5" transform="matrix(0.7071 -0.7071 0.7071 0.7071 -253.8371 212.335)" fill="#EFF3F5" width="32.2" height="32.2"/>
		</g>
		<g>
			
				<rect x="176.6" y="396.5" transform="matrix(0.7071 -0.7071 0.7071 0.7071 -235.2951 257.0989)" fill="#EFF3F5" width="32.2" height="32.2"/>
		</g>
		<g>
			
				<rect x="239.9" y="396.5" transform="matrix(0.7071 -0.7071 0.7071 0.7071 -216.7531 301.8628)" fill="#EFF3F5" width="32.2" height="32.2"/>
		</g>
		<g>
			
				<rect x="303.2" y="396.5" transform="matrix(0.7071 -0.7071 0.7071 0.7071 -198.211 346.6267)" fill="#EFF3F5" width="32.2" height="32.2"/>
		</g>
		<g>
			
				<rect x="366.5" y="396.5" transform="matrix(0.7071 -0.7071 0.7071 0.7071 -179.669 391.3906)" fill="#EFF3F5" width="32.2" height="32.2"/>
		</g>
	</g>
	<g>
		<ellipse fill="#DBDFE0" cx="256" cy="237.3" rx="63.3" ry="83.7"/>
	</g>
	<g>
		<ellipse fill="#41B3E2" cx="256" cy="237.3" rx="49.8" ry="69.5"/>
	</g>
	<g>
		<g>
			<circle fill="#41B3E2" cx="127.2" cy="302.5" r="27.2"/>
		</g>
		<g>
			<circle fill="#41B3E2" cx="97.8" cy="243.6" r="18.2"/>
		</g>
		<g>
			<circle fill="#41B3E2" cx="74.9" cy="198.2" r="11.5"/>
		</g>
		<g>
			<circle fill="#41B3E2" cx="384.8" cy="302.5" r="27.2"/>
		</g>
		<g>
			<circle fill="#41B3E2" cx="414.2" cy="243.6" r="18.2"/>
		</g>
		<g>
			<circle fill="#41B3E2" cx="437.1" cy="198.2" r="11.5"/>
		</g>
	</g>
</g>
</svg>
