<?xml version="1.0" encoding="utf-8"?>
<!-- Generator: Adobe Illustrator 18.0.0, SVG Export Plug-In . SVG Version: 6.00 Build 0)  -->
<!DOCTYPE svg PUBLIC "-//W3C//DTD SVG 1.1//EN" "http://www.w3.org/Graphics/SVG/1.1/DTD/svg11.dtd">
<svg version="1.1" id="Layer_1" xmlns="http://www.w3.org/2000/svg" xmlns:xlink="http://www.w3.org/1999/xlink" x="0px" y="0px"
	 viewBox="0 0 512 512" enable-background="new 0 0 512 512" xml:space="preserve">
<g>
	<g>
		<path fill="#FBD984" d="M487.8,453.9h-58.2V145.1c0-9-7.3-16.2-16.2-16.2H98.6c-9,0-16.2,7.3-16.2,16.2v308.8H24.2
			C11.9,453.9,2,463.8,2,476h508C510,463.8,500.1,453.9,487.8,453.9z"/>
	</g>
	<g>
		<rect x="127.3" y="294.9" fill="#445C6C" width="257.3" height="15.2"/>
	</g>
	<g>
		<rect x="127.3" y="416" fill="#445C6C" width="257.3" height="15.2"/>
	</g>
	<g>
		<rect x="127.3" y="173.8" fill="#445C6C" width="257.3" height="15.2"/>
	</g>
	<g>
		<rect x="239.5" y="294.9" fill="#283C47" width="33" height="15.2"/>
	</g>
	<g>
		<rect x="239.5" y="416" fill="#283C47" width="33" height="15.2"/>
	</g>
	<g>
		<rect x="239.5" y="173.8" fill="#283C47" width="33" height="15.2"/>
	</g>
	<g>
		<g>
			<g>
				<rect x="194.7" y="294.9" fill="#283C47" width="22.3" height="15.2"/>
			</g>
			<g>
				<rect x="194.7" y="416" fill="#283C47" width="22.3" height="15.2"/>
			</g>
			<g>
				<rect x="194.7" y="173.8" fill="#283C47" width="22.3" height="15.2"/>
			</g>
		</g>
		<g>
			<g>
				<rect x="295" y="294.9" fill="#283C47" width="22.3" height="15.2"/>
			</g>
			<g>
				<rect x="295" y="416" fill="#283C47" width="22.3" height="15.2"/>
			</g>
			<g>
				<rect x="295" y="173.8" fill="#283C47" width="22.3" height="15.2"/>
			</g>
		</g>
	</g>
	<g>
		<path fill="#41B3E2" d="M369,189H143c-8.6,0-15.6,7-15.6,15.6v74.6c0,8.6,7,15.6,15.6,15.6h226c8.6,0,15.6-7,15.6-15.6v-74.6
			C384.7,196,377.7,189,369,189z"/>
	</g>
	<g>
		<path fill="#F1786B" d="M369,310H143c-8.6,0-15.6,7-15.6,15.6v74.6c0,8.6,7,15.6,15.6,15.6h226c8.6,0,15.6-7,15.6-15.6v-74.6
			C384.7,317.1,377.7,310,369,310z"/>
	</g>
	<g>
		<g>
			<g>
				<path fill="#DBDFE0" d="M212.9,189h-14V83.8c0-18.7-15.2-33.9-33.9-33.9H2V36h163c26.4,0,47.9,21.5,47.9,47.9V189z"/>
			</g>
		</g>
		<g>
			<g>
				<path fill="#DBDFE0" d="M299.1,189h14V83.8c0-18.7,15.2-33.9,33.9-33.9h163V36H347c-26.4,0-47.9,21.5-47.9,47.9V189z"/>
			</g>
		</g>
	</g>
</g>
</svg>
