<?xml version="1.0" encoding="utf-8"?>
<!-- Generator: Adobe Illustrator 18.0.0, SVG Export Plug-In . SVG Version: 6.00 Build 0)  -->
<!DOCTYPE svg PUBLIC "-//W3C//DTD SVG 1.1//EN" "http://www.w3.org/Graphics/SVG/1.1/DTD/svg11.dtd">
<svg version="1.1" id="Layer_1" xmlns="http://www.w3.org/2000/svg" xmlns:xlink="http://www.w3.org/1999/xlink" x="0px" y="0px"
	 viewBox="0 0 512 512" enable-background="new 0 0 512 512" xml:space="preserve">
<g>
	<g>
		<path fill="#EFF3F5" d="M422.9,170.6c5.9-18.2,3.3-38.8-8.9-55.4c-15.8-21.5-42.9-29.5-66.9-21.9c-21.7-67-92-105.5-159.9-86.4
			C129,23.2,90.9,76.6,91.1,134.8C40.3,145,2,190.2,2,244.5c0,61.8,49.7,111.9,110.9,111.9h304.9c50.9,0,92.2-41.6,92.2-93
			C510,213.8,471.5,173.3,422.9,170.6z"/>
	</g>
	<g>
		<path fill="#52AFA8" d="M328.5,204.3H183.5c-7.4,0-13.3,6-13.3,13.5c0,7.4,6,13.5,13.3,13.5h145.1c7.4,0,13.3-6,13.3-13.5
			C341.9,210.3,335.9,204.3,328.5,204.3z"/>
	</g>
	<g>
		<path fill="#65C1B8" d="M183.5,211.3h145.1c6.2,0,11.3,4.2,12.8,10c0.3-1.1,0.5-2.3,0.5-3.5c0-7.4-6-13.5-13.3-13.5H183.5
			c-7.4,0-13.3,6-13.3,13.5c0,1.2,0.2,2.4,0.5,3.5C172.1,215.5,177.3,211.3,183.5,211.3z"/>
	</g>
	<g>
		<path fill="#5AC8AE" d="M189.1,231.2v69.9c0,16.5,13.3,29.9,29.7,29.9h74.5c16.4,0,29.7-13.4,29.7-29.9v-69.9H189.1z"/>
	</g>
	<g>
		<g>
			<path fill="#FFFFFF" d="M218.1,144.9c-5.1,0-9.2,4.2-9.2,9.3v50.1h18.4v-50.1C227.3,149.1,223.2,144.9,218.1,144.9z"/>
		</g>
		<g>
			<path fill="#FFFFFF" d="M293.9,144.9c-5.1,0-9.2,4.2-9.2,9.3v50.1h18.4v-50.1C303.1,149.1,299,144.9,293.9,144.9z"/>
		</g>
	</g>
	<g>
		<g>
			<rect x="208.9" y="185.5" fill="#788D9A" width="18.4" height="18.8"/>
		</g>
		<g>
			<rect x="284.7" y="185.5" fill="#788D9A" width="18.4" height="18.8"/>
		</g>
	</g>
	<g>
		<path fill="#52AFA8" d="M213.5,253.2v46.9c0,5,4,9,8.9,9h67.2c4.9,0,8.9-4,8.9-9v-46.9H213.5z"/>
	</g>
	<g>
		<rect x="247.4" y="331" fill="#5AC8AE" width="17.1" height="179"/>
	</g>
	<g>
		<rect x="247.4" y="331" fill="#3FAA8E" width="17.1" height="11.3"/>
	</g>
</g>
</svg>
