<?xml version="1.0" encoding="utf-8"?>
<!-- Generator: Adobe Illustrator 18.0.0, SVG Export Plug-In . SVG Version: 6.00 Build 0)  -->
<!DOCTYPE svg PUBLIC "-//W3C//DTD SVG 1.1//EN" "http://www.w3.org/Graphics/SVG/1.1/DTD/svg11.dtd">
<svg version="1.1" id="Layer_1" xmlns="http://www.w3.org/2000/svg" xmlns:xlink="http://www.w3.org/1999/xlink" x="0px" y="0px"
	 viewBox="0 0 512 512" enable-background="new 0 0 512 512" xml:space="preserve">
<g>
	<g>
		<polygon fill="#EFF3F5" points="510,316.1 510,510 2,510 2,278.9 215.2,310.7 215.2,278.9 		"/>
	</g>
	<g>
		<path fill="#445C6C" d="M31.4,281.7h52.7v9.5l6.7,1V120h-6.7v20.6H31.4V120h-6.7v162.3l6.7,1V281.7z M31.4,145.4h52.7V186H31.4
			V145.4z M31.4,190.9h52.7v40.5H31.4V190.9z M31.4,236.3h52.7v40.5H31.4V236.3z"/>
	</g>
	<g>
		<polygon fill="#DBDFE0" points="510,316.1 510,347.2 215.2,310 215.2,278.9 		"/>
	</g>
	<g>
		<g>
			<g>
				<rect x="33.1" y="388.7" fill="#41B3E2" width="80.4" height="75"/>
			</g>
			<g>
				<rect x="33.1" y="388.7" fill="#379FC8" width="80.4" height="21.4"/>
			</g>
		</g>
		<g>
			<g>
				<rect x="154.9" y="388.7" fill="#41B3E2" width="80.4" height="75"/>
			</g>
			<g>
				<rect x="154.9" y="388.7" fill="#379FC8" width="80.4" height="21.4"/>
			</g>
		</g>
		<g>
			<g>
				<rect x="276.7" y="388.7" fill="#41B3E2" width="80.4" height="75"/>
			</g>
			<g>
				<rect x="276.7" y="388.7" fill="#379FC8" width="80.4" height="21.4"/>
			</g>
		</g>
		<g>
			<g>
				<rect x="398.5" y="388.7" fill="#41B3E2" width="80.4" height="75"/>
			</g>
			<g>
				<rect x="398.5" y="388.7" fill="#379FC8" width="80.4" height="21.4"/>
			</g>
		</g>
	</g>
	<g>
		<path fill="#DBDFE0" d="M135.6,55.7c-7.4,2.4-15.1,0.7-20.8-3.8c-2.2,6.2-7.9,10.8-14.9,11.2c-5.3,0.3-10.1-1.9-13.3-5.6
			c-2.4,1-5.1,1.2-7.6,0.6c-0.6,3.7-3.9,6.5-7.8,6.2c-4-0.3-7.1-3.8-6.8-7.9c0.2-3.3,2.6-5.9,5.7-6.6c-1.3-4.1-0.4-8.7,2.6-12.1
			c3.4-3.7,8.4-4.9,12.9-3.5c-3.9-6.4-2.9-14.9,2.8-20.2c4.9-4.6,11.9-5.6,17.7-3.1c2.1-6.4,8.8-10.2,15.5-8.6
			c4.8,1.2,8.4,4.9,9.6,9.4c8.6,0.9,16.4,6.8,19.2,15.6C154.1,39.2,147.5,51.9,135.6,55.7z"/>
	</g>
	<g>
		<polygon fill="#DBDFE0" points="2,278.9 215.2,310.7 215.2,341.7 2,310 		"/>
	</g>
	<g>
		<g>
			<polygon fill="#788D9A" points="74.3,79.5 42,79.5 42,284.9 74.3,289.7 			"/>
		</g>
	</g>
</g>
</svg>
