<?xml version="1.0" encoding="utf-8"?>
<!-- Generator: Adobe Illustrator 18.0.0, SVG Export Plug-In . SVG Version: 6.00 Build 0)  -->
<!DOCTYPE svg PUBLIC "-//W3C//DTD SVG 1.1//EN" "http://www.w3.org/Graphics/SVG/1.1/DTD/svg11.dtd">
<svg version="1.1" id="Layer_1" xmlns="http://www.w3.org/2000/svg" xmlns:xlink="http://www.w3.org/1999/xlink" x="0px" y="0px"
	 viewBox="0 0 512 512" enable-background="new 0 0 512 512" xml:space="preserve">
<g>
	<g>
		<rect x="71.5" y="109.3" fill="#445C6C" width="59.8" height="284"/>
	</g>
	<g>
		<rect x="71.5" y="109.3" fill="#5E7784" width="59.8" height="10.9"/>
	</g>
	<g>
		<rect x="131.3" y="109.3" fill="#55BFA3" width="257.8" height="284"/>
	</g>
	<g>
		<rect x="131.3" y="109.3" fill="#60C6A8" width="257.8" height="10.9"/>
	</g>
	<g>
		<path fill="#5AC8AE" d="M419.2,126.4h-30.1v249.8h30.1c10.3,0,18.7-8.4,18.7-18.7V145.1C437.9,134.8,429.5,126.4,419.2,126.4z"/>
	</g>
	<g>
		<path fill="#75DBC0" d="M419.2,126.4h-30.1v10.8h30.1c10.3,0,18.7,8.4,18.7,18.7v-10.8C437.9,134.8,429.5,126.4,419.2,126.4z"/>
	</g>
	<g>
		<polygon fill="#788D9A" points="14.1,351.5 71.5,393.3 71.5,109.3 14.1,151.1 		"/>
	</g>
	<g>
		<polygon fill="#8FA1AA" points="71.5,120.2 71.5,109.3 14.1,151.1 14.1,162 		"/>
	</g>
	<g>
		<path fill="#445C6C" d="M8,145c-3.3,0-6,2.7-6,6v200.6c0,3.3,2.7,6,6,6s6-2.7,6-6V151C14.1,147.7,11.4,145,8,145z"/>
	</g>
	<g>
		<path fill="#5D7684" d="M8,145c-3.3,0-6,2.7-6,6v9.7c0-3.3,2.7-6,6-6s6,2.7,6,6V151C14.1,147.7,11.4,145,8,145z"/>
	</g>
	<g>
		<g>
			<rect x="131.3" y="137.8" fill="#40AD91" width="257.8" height="7.6"/>
		</g>
		<g>
			<rect x="131.3" y="157.7" fill="#40AD91" width="257.8" height="7.6"/>
		</g>
		<g>
			<rect x="131.3" y="177.7" fill="#40AD91" width="257.8" height="7.6"/>
		</g>
		<g>
			<rect x="131.3" y="197.6" fill="#40AD91" width="257.8" height="7.6"/>
		</g>
		<g>
			<rect x="131.3" y="217.6" fill="#40AD91" width="257.8" height="7.6"/>
		</g>
		<g>
			<rect x="131.3" y="237.5" fill="#40AD91" width="257.8" height="7.6"/>
		</g>
		<g>
			<rect x="131.3" y="257.5" fill="#40AD91" width="257.8" height="7.6"/>
		</g>
		<g>
			<rect x="131.3" y="277.4" fill="#40AD91" width="257.8" height="7.6"/>
		</g>
		<g>
			<rect x="131.3" y="297.4" fill="#40AD91" width="257.8" height="7.6"/>
		</g>
		<g>
			<rect x="131.3" y="317.3" fill="#40AD91" width="257.8" height="7.6"/>
		</g>
		<g>
			<rect x="131.3" y="337.3" fill="#40AD91" width="257.8" height="7.6"/>
		</g>
		<g>
			<rect x="131.3" y="357.2" fill="#40AD91" width="257.8" height="7.6"/>
		</g>
	</g>
	<g>
		<rect x="437.9" y="234.1" fill="#DBDFE0" width="72.1" height="34.4"/>
	</g>
	<g>
		<rect x="437.9" y="234.1" fill="#788D9A" width="13" height="34.4"/>
	</g>
	<g>
		<path fill="#6ACEB2" d="M323.3,63.7H197.1c-7.1,0-12.9,5.8-12.9,12.9v32.7h151.9V76.6C336.2,69.5,330.4,63.7,323.3,63.7z"/>
	</g>
	<g>
		<path fill="#85E0C4" d="M323.3,63.7H197.1c-7.1,0-12.9,5.8-12.9,12.9v6.6c0-7.1,5.8-12.9,12.9-12.9h126.1
			c7.1,0,12.9,5.8,12.9,12.9v-6.6C336.2,69.5,330.4,63.7,323.3,63.7z"/>
	</g>
	<g>
		<polygon fill="#354C59" points="378.5,429.1 141.9,429.1 166.5,393.3 353.9,393.3 		"/>
	</g>
	<g>
		<polygon fill="#243A44" points="362.9,406.4 353.9,393.3 166.5,393.3 157.5,406.4 		"/>
	</g>
	<g>
		<rect x="141.9" y="429.1" fill="#445C6C" width="236.7" height="19.2"/>
	</g>
</g>
</svg>
