<?xml version="1.0" encoding="utf-8"?>
<!-- Generator: Adobe Illustrator 18.0.0, SVG Export Plug-In . SVG Version: 6.00 Build 0)  -->
<!DOCTYPE svg PUBLIC "-//W3C//DTD SVG 1.1//EN" "http://www.w3.org/Graphics/SVG/1.1/DTD/svg11.dtd">
<svg version="1.1" id="Layer_1" xmlns="http://www.w3.org/2000/svg" xmlns:xlink="http://www.w3.org/1999/xlink" x="0px" y="0px"
	 viewBox="0 0 512 512" enable-background="new 0 0 512 512" xml:space="preserve">
<g>
	<g>
		<g>
			<rect x="2" y="285.7" fill="#41B3E2" width="253" height="224.3"/>
		</g>
		<g>
			<rect x="241.1" y="285.7" fill="#5FD0F2" width="13.9" height="224.3"/>
		</g>
		<g>
			<rect x="255" y="318.9" fill="#EFF3F5" width="147.5" height="35.6"/>
		</g>
		<g>
			<rect x="255" y="377" fill="#F1786B" width="147.5" height="35.6"/>
		</g>
		<g>
			<rect x="255" y="435" fill="#5AC8AE" width="147.5" height="35.6"/>
		</g>
		<g>
			<rect x="385.7" y="318.9" fill="#F5F6F7" width="16.7" height="35.6"/>
		</g>
		<g>
			<rect x="385.7" y="377" fill="#FC958D" width="16.7" height="35.6"/>
		</g>
		<g>
			<rect x="385.7" y="435" fill="#75D8BE" width="16.7" height="35.6"/>
		</g>
		<g>
			<g>
				<g>
					<rect x="402.4" y="324.5" fill="#FDC77C" width="32.7" height="4.5"/>
				</g>
			</g>
			<g>
				<g>
					<rect x="402.4" y="331.1" fill="#FDC77C" width="32.7" height="4.5"/>
				</g>
			</g>
			<g>
				<g>
					<rect x="402.4" y="337.8" fill="#FDC77C" width="32.7" height="4.5"/>
				</g>
			</g>
			<g>
				<g>
					<rect x="402.4" y="344.5" fill="#FDC77C" width="32.7" height="4.5"/>
				</g>
			</g>
		</g>
		<g>
			<g>
				<g>
					<rect x="402.4" y="382.5" fill="#FDC77C" width="32.7" height="4.5"/>
				</g>
			</g>
			<g>
				<g>
					<rect x="402.4" y="389.2" fill="#FDC77C" width="32.7" height="4.5"/>
				</g>
			</g>
			<g>
				<g>
					<rect x="402.4" y="395.9" fill="#FDC77C" width="32.7" height="4.5"/>
				</g>
			</g>
			<g>
				<g>
					<rect x="402.4" y="402.6" fill="#FDC77C" width="32.7" height="4.5"/>
				</g>
			</g>
		</g>
		<g>
			<g>
				<g>
					<rect x="402.4" y="440.6" fill="#FDC77C" width="32.7" height="4.5"/>
				</g>
			</g>
			<g>
				<g>
					<rect x="402.4" y="447.3" fill="#FDC77C" width="32.7" height="4.5"/>
				</g>
			</g>
			<g>
				<g>
					<rect x="402.4" y="453.9" fill="#FDC77C" width="32.7" height="4.5"/>
				</g>
			</g>
			<g>
				<g>
					<rect x="402.4" y="460.6" fill="#FDC77C" width="32.7" height="4.5"/>
				</g>
			</g>
		</g>
	</g>
	<g>
		<g>
			<polygon fill="#41B3E2" points="510,2 510,226.3 257,226.3 257,2 			"/>
		</g>
		<g>
			<rect x="257" y="2" fill="#5FD0F2" width="13.9" height="224.3"/>
		</g>
		<g>
			<rect x="109.6" y="157.5" fill="#EFF3F5" width="147.5" height="35.6"/>
		</g>
		<g>
			<rect x="109.6" y="99.4" fill="#F1786B" width="147.5" height="35.6"/>
		</g>
		<g>
			<rect x="109.6" y="41.3" fill="#5AC8AE" width="147.5" height="35.6"/>
		</g>
		<g>
			<rect x="109.6" y="157.5" fill="#F5F6F7" width="16.7" height="35.6"/>
		</g>
		<g>
			<rect x="109.6" y="99.4" fill="#FC958D" width="16.7" height="35.6"/>
		</g>
		<g>
			<rect x="109.6" y="41.3" fill="#75D8BE" width="16.7" height="35.6"/>
		</g>
		<g>
			<g>
				<g>
					<rect x="76.9" y="183" fill="#FDC77C" width="32.7" height="4.5"/>
				</g>
			</g>
			<g>
				<g>
					<rect x="76.9" y="176.4" fill="#FDC77C" width="32.7" height="4.5"/>
				</g>
			</g>
			<g>
				<g>
					<rect x="76.9" y="169.7" fill="#FDC77C" width="32.7" height="4.5"/>
				</g>
			</g>
			<g>
				<g>
					<rect x="76.9" y="163" fill="#FDC77C" width="32.7" height="4.5"/>
				</g>
			</g>
		</g>
		<g>
			<g>
				<g>
					<rect x="76.9" y="125" fill="#FDC77C" width="32.7" height="4.5"/>
				</g>
			</g>
			<g>
				<g>
					<rect x="76.9" y="118.3" fill="#FDC77C" width="32.7" height="4.5"/>
				</g>
			</g>
			<g>
				<g>
					<rect x="76.9" y="111.6" fill="#FDC77C" width="32.7" height="4.5"/>
				</g>
			</g>
			<g>
				<g>
					<rect x="76.9" y="104.9" fill="#FDC77C" width="32.7" height="4.5"/>
				</g>
			</g>
		</g>
		<g>
			<g>
				<g>
					<rect x="76.9" y="66.9" fill="#FDC77C" width="32.7" height="4.5"/>
				</g>
			</g>
			<g>
				<g>
					<rect x="76.9" y="60.2" fill="#FDC77C" width="32.7" height="4.5"/>
				</g>
			</g>
			<g>
				<g>
					<rect x="76.9" y="53.6" fill="#FDC77C" width="32.7" height="4.5"/>
				</g>
			</g>
			<g>
				<g>
					<rect x="76.9" y="46.9" fill="#FDC77C" width="32.7" height="4.5"/>
				</g>
			</g>
		</g>
	</g>
</g>
</svg>
