<?xml version="1.0" encoding="utf-8"?>
<!-- Generator: Adobe Illustrator 18.0.0, SVG Export Plug-In . SVG Version: 6.00 Build 0)  -->
<!DOCTYPE svg PUBLIC "-//W3C//DTD SVG 1.1//EN" "http://www.w3.org/Graphics/SVG/1.1/DTD/svg11.dtd">
<svg version="1.1" id="Layer_1" xmlns="http://www.w3.org/2000/svg" xmlns:xlink="http://www.w3.org/1999/xlink" x="0px" y="0px"
	 viewBox="0 0 512 512" enable-background="new 0 0 512 512" xml:space="preserve">
<g>
	<g>
		<path fill="#F1786B" d="M496.7,216.6H15.3c-8.4,0-13.8-6.7-12.7-13.1H2v293.4h0.6C1.5,503.3,6.9,510,15.3,510h481.3
			c8.4,0,13.8-6.7,12.7-13.1h0.6V203.5h-0.6C510.5,209.9,505.1,216.6,496.7,216.6z"/>
	</g>
	<g>
		<path fill="#5AC8AE" d="M2,92.1v111.4h0.6c-1.1,6.4,4.3,13.1,12.7,13.1h481.3c8.4,0,13.8-6.7,12.7-13.1h0.6V92.1H2z"/>
	</g>
	<g>
		<path fill="#5AC8AE" d="M429.8,19.7H82.2c-3.6,0-7,1.3-9.4,3.6L5.9,86.8c-7.7,7.3-1.8,19.1,9.4,19.1h481.3
			c11.2,0,17.1-11.8,9.4-19.1l-66.9-63.5C436.8,21,433.3,19.7,429.8,19.7z"/>
	</g>
	<g>
		<path fill="#445C6C" d="M15.3,100c-3.8,0-6-2.1-6.7-3.9C8.2,94.9,8,93,10,91.1l66.9-63.5c1.3-1.3,3.3-2,5.4-2h347.6
			c2.1,0,4,0.7,5.4,2L502,91.1c2,1.9,1.8,3.8,1.3,5c-0.7,1.8-2.9,3.9-6.7,3.9H15.3z"/>
	</g>
	<g>
		<path fill="#304754" d="M15.3,100h3.4l58.1-61.1c1.3-1.3,3.3-2,5.4-2h347.6c2.1,0,4,0.7,5.4,2l58.1,61.1h3.4c3.8,0,6-2.1,6.7-3.9
			c0.5-1.3,0.7-3.1-1.3-5l-66.9-63.5c-1.3-1.3-3.3-2-5.4-2H82.2c-2.1,0-4,0.7-5.4,2L10,91.1c-2,1.9-1.8,3.8-1.3,5
			C9.4,97.9,11.6,100,15.3,100z"/>
	</g>
	<g>
		<g>
			<path fill="#DBDFE0" d="M92,14.9v46.4c0,7.1,20.4,12.9,45.5,12.9S183,68.5,183,61.3V14.9H92z"/>
		</g>
		<g>
			<ellipse fill="#EFF3F5" cx="137.5" cy="14.9" rx="45.5" ry="12.9"/>
		</g>
	</g>
	<g>
		<g>
			<path fill="#DBDFE0" d="M329,14.9v46.4c0,7.1,20.4,12.9,45.5,12.9S420,68.5,420,61.3V14.9H329z"/>
		</g>
		<g>
			<ellipse fill="#EFF3F5" cx="374.5" cy="14.9" rx="45.5" ry="12.9"/>
		</g>
	</g>
	<g>
		<polygon fill="#FFFFFF" points="172.2,152.5 147.7,152.5 147.7,128 127.3,128 127.3,152.5 102.8,152.5 102.8,172.9 127.3,172.9 
			127.3,197.4 147.7,197.4 147.7,172.9 172.2,172.9 		"/>
	</g>
	<g>
		<rect x="339.8" y="152.5" fill="#FFFFFF" width="69.4" height="20.4"/>
	</g>
	<g>
		<g>
			<path fill="#D45947" d="M390.4,347c0-12.1-9.8-21.9-21.9-21.9h-15.3c-3.5,0-6.3,2.8-6.3,6.3V394c0,3.5,2.8,6.3,6.3,6.3
				c3.5,0,6.3-2.8,6.3-6.3v-25.1h5.4l13.8,27.2c1.1,2.2,4.4,4.7,8.4,2.8c3.1-1.5,4.3-5.3,2.8-8.4l-11.9-23.6
				C385.2,363.3,390.4,355.7,390.4,347z M368.4,356.4h-9v-18.8h9c5.2,0,9.4,4.2,9.4,9.4C377.8,352.2,373.6,356.4,368.4,356.4z"/>
		</g>
		<g>
			<path fill="#D45947" d="M330.9,337.6c3.5,0,6.3-2.8,6.3-6.3c0-3.5-2.8-6.3-6.3-6.3h-24.7c-3.5,0-6.3,2.8-6.3,6.3V394
				c0,3.5,2.8,6.3,6.3,6.3h24.7c3.5,0,6.3-2.8,6.3-6.3c0-3.5-2.8-6.3-6.3-6.3h-18.5v-18.8h18.5c3.5,0,6.3-2.8,6.3-6.3
				c0-3.5-2.8-6.3-6.3-6.3h-18.5v-18.8H330.9z"/>
		</g>
		<g>
			<path fill="#D45947" d="M118.7,347c0-12.1-9.8-21.9-21.9-21.9H80.3c-3.5,0-6.3,2.8-6.3,6.3v31.3c0,0,0,0,0,0c0,0,0,0,0,0V394
				c0,3.5,2.8,6.3,6.3,6.3h16.4c12.1,0,21.9-9.8,21.9-21.9c0-6.1-2.5-11.7-6.6-15.7C116.1,358.7,118.7,353.1,118.7,347z M86.6,337.6
				h10.1c5.2,0,9.4,4.2,9.4,9.4s-4.2,9.4-9.4,9.4H86.6V337.6z M96.8,387.7H86.6V369h10.1c5.2,0,9.4,4.2,9.4,9.4
				S101.9,387.7,96.8,387.7z"/>
		</g>
		<g>
			<path fill="#D45947" d="M160,329.5c-0.9-2.4-3.3-4-5.9-4s-4.9,1.6-5.9,4l-23.7,61.8c-1.2,3.2,0.4,6.9,3.6,8.1
				c4.1,1.5,7.1-1.1,8.1-3.6l5.6-14.6h24.6l5.6,14.6c1.2,3.2,4.9,4.9,8.1,3.6c3.2-1.2,4.9-4.9,3.6-8.1L160,329.5z M146.7,368.7
				l7.5-19.4l7.5,19.4H146.7z"/>
		</g>
		<g>
			<path fill="#D45947" d="M224.2,325h-41.7c-3.5,0-6.3,2.8-6.3,6.3c0,3.5,2.8,6.3,6.3,6.3h14.6V394c0,3.5,2.8,6.3,6.3,6.3
				s6.3-2.8,6.3-6.3v-56.4h14.6c3.5,0,6.3-2.8,6.3-6.3C230.5,327.8,227.7,325,224.2,325z"/>
		</g>
		<g>
			<path fill="#D45947" d="M285.8,325h-41.7c-3.5,0-6.3,2.8-6.3,6.3c0,3.5,2.8,6.3,6.3,6.3h14.6V394c0,3.5,2.8,6.3,6.3,6.3
				c3.5,0,6.3-2.8,6.3-6.3v-56.4h14.6c3.5,0,6.3-2.8,6.3-6.3C292.1,327.8,289.3,325,285.8,325z"/>
		</g>
		<g>
			<path fill="#D45947" d="M446.8,326c-2.9-1.8-6.8-0.9-8.6,2l-16.3,26.5L405.5,328c-1.8-2.9-5.7-3.9-8.6-2c-2.9,1.8-3.9,5.7-2,8.6
				l20.7,33.6V394c0,3.5,2.8,6.3,6.3,6.3s6.3-2.8,6.3-6.3v-25.8l20.7-33.6C450.6,331.6,449.7,327.8,446.8,326z"/>
		</g>
	</g>
	<g>
		<g>
			<path fill="#EFF3F5" d="M384.5,341.1c0-12.1-9.8-21.9-21.9-21.9h-15.3c-3.5,0-6.3,2.8-6.3,6.3v62.7c0,3.5,2.8,6.3,6.3,6.3
				c3.5,0,6.3-2.8,6.3-6.3V363h5.4l13.8,27.2c1.1,2.2,4.4,4.7,8.4,2.8c3.1-1.5,4.3-5.3,2.8-8.4l-11.9-23.6
				C379.3,357.4,384.5,349.8,384.5,341.1z M362.5,350.5h-9v-18.8h9c5.2,0,9.4,4.2,9.4,9.4C371.9,346.3,367.7,350.5,362.5,350.5z"/>
		</g>
		<g>
			<path fill="#EFF3F5" d="M325,331.7c3.5,0,6.3-2.8,6.3-6.3c0-3.5-2.8-6.3-6.3-6.3h-24.7c-3.5,0-6.3,2.8-6.3,6.3v62.7
				c0,3.5,2.8,6.3,6.3,6.3H325c3.5,0,6.3-2.8,6.3-6.3s-2.8-6.3-6.3-6.3h-18.5V363H325c3.5,0,6.3-2.8,6.3-6.3c0-3.5-2.8-6.3-6.3-6.3
				h-18.5v-18.8H325z"/>
		</g>
		<g>
			<path fill="#EFF3F5" d="M112.8,341.1c0-12.1-9.8-21.9-21.9-21.9H74.4c-3.5,0-6.3,2.8-6.3,6.3v31.3c0,0,0,0,0,0c0,0,0,0,0,0v31.3
				c0,3.5,2.8,6.3,6.3,6.3h16.4c12.1,0,21.9-9.8,21.9-21.9c0-6.1-2.5-11.7-6.6-15.7C110.2,352.8,112.8,347.2,112.8,341.1z
				 M80.7,331.7h10.1c5.2,0,9.4,4.2,9.4,9.4s-4.2,9.4-9.4,9.4H80.7V331.7z M90.9,381.8H80.7v-18.7h10.1c5.2,0,9.4,4.2,9.4,9.4
				C100.2,377.6,96,381.8,90.9,381.8z"/>
		</g>
		<g>
			<path fill="#EFF3F5" d="M154.1,323.6c-0.9-2.4-3.3-4-5.9-4c-2.6,0-4.9,1.6-5.9,4l-23.7,61.8c-1.2,3.2,0.4,6.9,3.6,8.1
				c4.1,1.5,7.1-1.1,8.1-3.6l5.6-14.6h24.6l5.6,14.6c1.2,3.2,4.9,4.9,8.1,3.6c3.2-1.2,4.9-4.9,3.6-8.1L154.1,323.6z M140.8,362.8
				l7.5-19.4l7.5,19.4H140.8z"/>
		</g>
		<g>
			<path fill="#EFF3F5" d="M218.3,319.1h-41.7c-3.5,0-6.3,2.8-6.3,6.3c0,3.5,2.8,6.3,6.3,6.3h14.6v56.4c0,3.5,2.8,6.3,6.3,6.3
				s6.3-2.8,6.3-6.3v-56.4h14.6c3.5,0,6.3-2.8,6.3-6.3C224.6,321.9,221.8,319.1,218.3,319.1z"/>
		</g>
		<g>
			<path fill="#EFF3F5" d="M279.9,319.1h-41.7c-3.5,0-6.3,2.8-6.3,6.3c0,3.5,2.8,6.3,6.3,6.3h14.6v56.4c0,3.5,2.8,6.3,6.3,6.3
				c3.5,0,6.3-2.8,6.3-6.3v-56.4h14.6c3.5,0,6.3-2.8,6.3-6.3C286.2,321.9,283.4,319.1,279.9,319.1z"/>
		</g>
		<g>
			<path fill="#EFF3F5" d="M440.9,320.1c-2.9-1.8-6.8-0.9-8.6,2l-16.3,26.5l-16.3-26.5c-1.8-2.9-5.7-3.9-8.6-2
				c-2.9,1.8-3.9,5.7-2,8.6l20.7,33.6v25.8c0,3.5,2.8,6.3,6.3,6.3c3.5,0,6.3-2.8,6.3-6.3v-25.8l20.7-33.6
				C444.7,325.8,443.8,321.9,440.9,320.1z"/>
		</g>
	</g>
</g>
</svg>
