<?xml version="1.0" encoding="utf-8"?>
<!-- Generator: Adobe Illustrator 18.0.0, SVG Export Plug-In . SVG Version: 6.00 Build 0)  -->
<!DOCTYPE svg PUBLIC "-//W3C//DTD SVG 1.1//EN" "http://www.w3.org/Graphics/SVG/1.1/DTD/svg11.dtd">
<svg version="1.1" id="Layer_1" xmlns="http://www.w3.org/2000/svg" xmlns:xlink="http://www.w3.org/1999/xlink" x="0px" y="0px"
	 viewBox="0 0 512 512" enable-background="new 0 0 512 512" xml:space="preserve">
<g>
	<g>
		<rect x="92.1" y="55.5" fill="#EFF3F5" width="327.7" height="423.6"/>
	</g>
	<g>
		<rect x="92.1" y="55.5" fill="#B9C4C6" width="327.7" height="10.7"/>
	</g>
	<g>
		<rect x="92.1" y="207" fill="#B9C4C6" width="327.7" height="10.7"/>
	</g>
	<g>
		<rect x="92.1" y="358.5" fill="#B9C4C6" width="327.7" height="10.7"/>
	</g>
	<g>
		<g>
			<path fill="#DBDFE0" d="M434.6,40.1L434.6,40.1c0-8.5-6.5-15.4-14.5-15.4H91.9c-8,0-14.5,6.9-14.5,15.4v0
				c0,8.5,6.5,15.4,14.5,15.4h328.3C428.1,55.5,434.6,48.6,434.6,40.1z"/>
		</g>
	</g>
	<g>
		<g>
			<path fill="#DBDFE0" d="M434.6,191.6L434.6,191.6c0-8.5-6.5-15.4-14.5-15.4H91.9c-8,0-14.5,6.9-14.5,15.4v0
				c0,8.5,6.5,15.4,14.5,15.4h328.3C428.1,207,434.6,200.1,434.6,191.6z"/>
		</g>
	</g>
	<g>
		<g>
			<path fill="#DBDFE0" d="M434.6,343.1L434.6,343.1c0-8.5-6.5-15.4-14.5-15.4H91.9c-8,0-14.5,6.9-14.5,15.4v0
				c0,8.5,6.5,15.4,14.5,15.4h328.3C428.1,358.5,434.6,351.6,434.6,343.1z"/>
		</g>
	</g>
	<g>
		<g>
			<path fill="#DBDFE0" d="M434.6,494.6L434.6,494.6c0-8.5-6.5-15.4-14.5-15.4H91.9c-8,0-14.5,6.9-14.5,15.4v0
				c0,8.5,6.5,15.4,14.5,15.4h328.3C428.1,510,434.6,503.1,434.6,494.6z"/>
		</g>
	</g>
	<g>
		<rect x="137.7" y="2" fill="#788D9A" width="61.1" height="22.7"/>
	</g>
</g>
</svg>
