<?xml version="1.0" encoding="utf-8"?>
<!-- Generator: Adobe Illustrator 18.0.0, SVG Export Plug-In . SVG Version: 6.00 Build 0)  -->
<!DOCTYPE svg PUBLIC "-//W3C//DTD SVG 1.1//EN" "http://www.w3.org/Graphics/SVG/1.1/DTD/svg11.dtd">
<svg version="1.1" id="Layer_1" xmlns="http://www.w3.org/2000/svg" xmlns:xlink="http://www.w3.org/1999/xlink" x="0px" y="0px"
	 viewBox="0 0 512 512" enable-background="new 0 0 512 512" xml:space="preserve">
<g>
	<g>
		<polygon fill="#52AFA8" points="414.6,20.1 490.1,93.7 468.1,116.2 392.6,42.5 		"/>
	</g>
	<g>
		<path fill="#5AC8AE" d="M374.7,111.4c-1.7,2-1.5,5.1,0.4,6.9l17.4,17c1.9,1.9,4.9,2,6.9,0.3c26-22.6,68.7-19.4,68.7-19.4
			l-75.5-73.6C392.6,42.5,396.7,85,374.7,111.4z"/>
	</g>
	<g>
		<g>
			<path fill="#DBDFE0" d="M475.7,79.6l29.7-30.3c2.5-2.5,2.4-6.5-0.1-9c-2.5-2.4-6.5-2.4-9,0.1l-29.7,30.3L475.7,79.6z"/>
		</g>
		<g>
			<path fill="#DBDFE0" d="M438.1,43l29.7-30.3c2.5-2.5,2.4-6.5-0.1-9c-2.5-2.4-6.5-2.4-9,0.1l-29.7,30.3L438.1,43z"/>
		</g>
	</g>
	<g>
		<path fill="#445C6C" d="M120.7,285.3l-69.1-82c-2.1-2.5-2.1-6.1,0.1-8.3L188.5,55.4c2.2-2.2,5.8-2.3,8.3-0.3l85.8,68.8l33.1-33
			l-90.2-72.4C203.1,0.6,172,1.6,153.1,20.9L16.4,160.5c-18.9,19.3-19.2,50.4-0.8,72.3l72,85.4L120.7,285.3z"/>
	</g>
	<g>
		<path fill="#F1786B" d="M445.7,144.7c84.4,82.2,85.9,217.1,3.4,301.2s-217.7,85.6-302.1,3.4s-85.9-217.1-3.4-301.2
			S361.4,62.4,445.7,144.7z"/>
	</g>
	<g>
		<path fill="#FC938B" d="M143.6,164.1c82.5-84.1,217.7-85.6,302.1-3.4c40.9,39.9,62.3,92.1,64.1,144.9
			c2.3-58.2-19.1-117-64.1-160.9c-84.4-82.2-219.6-80.7-302.1,3.4C101.1,191.4,81,248.3,82.9,304.4
			C85,253.6,105.1,203.4,143.6,164.1z"/>
	</g>
	<g>
		<path fill="#DBDFE0" d="M394.7,196.7c55.6,54.2,56.6,143,2.2,198.3s-143.4,56.4-198.9,2.2s-56.6-143-2.2-198.3
			S339.2,142.5,394.7,196.7z"/>
	</g>
	<g>
		<path fill="#EFF3F5" d="M205.6,287.4l82.2,32.6c20.1,7.9,39.8-12.2,31.4-32l-34.5-81.2c-5.4-12.8-22.2-16-32-6l-53.9,55
			C189.1,265.7,192.7,282.3,205.6,287.4z"/>
	</g>
	<g>
		<g>
			<path fill="#445C6C" d="M224.2,257.3c5.2,5.1,5.3,13.4,0.2,18.7s-13.5,5.3-18.7,0.2c-5.2-5.1-5.3-13.4-0.2-18.7
				C210.6,252.3,219,252.2,224.2,257.3z"/>
		</g>
		<g>
			<path fill="#445C6C" d="M273.4,207.1c5.2,5.1,5.3,13.4,0.2,18.7c-5.1,5.2-13.5,5.3-18.7,0.2c-5.2-5.1-5.3-13.4-0.2-18.7
				C259.8,202.1,268.2,202,273.4,207.1z"/>
		</g>
	</g>
	<g>
		<path fill="#445C6C" d="M305.5,282.2c6.7,6.6,6.8,17.3,0.3,24c-6.6,6.7-17.4,6.8-24.1,0.3c-6.7-6.6-6.8-17.3-0.3-24
			C288,275.7,298.8,275.6,305.5,282.2z"/>
	</g>
	<g>
		<g>
			<path fill="#EFF3F5" d="M264.6,393.3L264.6,393.3c-9.4,9.6-24.9,9.8-34.5,0.4l-43.9-42.8c-9.6-9.4-9.8-24.8-0.4-34.4l0,0
				c9.4-9.6,24.9-9.8,34.5-0.4l43.9,42.8C273.9,368.3,274.1,383.7,264.6,393.3z"/>
		</g>
		<g>
			<g>
				<path fill="#445C6C" d="M211.7,323.5c5.2,5,5.2,13.3,0.2,18.4c-5,5.1-13.3,5.2-18.5,0.2c-5.2-5-5.2-13.3-0.2-18.4
					C198.3,318.6,206.5,318.5,211.7,323.5z"/>
			</g>
			<g>
				<path fill="#445C6C" d="M257,367.7c5.2,5,5.2,13.3,0.2,18.4c-5,5.1-13.3,5.2-18.5,0.2s-5.2-13.3-0.2-18.4
					C243.6,362.7,251.9,362.7,257,367.7z"/>
			</g>
		</g>
		<g>
			<path fill="#EFF3F5" d="M392.2,263.2L392.2,263.2c-9.4,9.6-24.9,9.8-34.5,0.4l-43.9-42.8c-9.6-9.4-9.8-24.8-0.4-34.4l0,0
				c9.4-9.6,24.9-9.8,34.5-0.4l43.9,42.8C401.5,238.2,401.6,253.6,392.2,263.2z"/>
		</g>
		<g>
			<g>
				<path fill="#445C6C" d="M339.3,193.4c5.2,5,5.2,13.3,0.2,18.4c-5,5.1-13.3,5.2-18.5,0.2s-5.2-13.3-0.2-18.4
					C325.9,188.4,334.1,188.4,339.3,193.4z"/>
			</g>
			<g>
				<path fill="#445C6C" d="M384.6,237.6c5.2,5,5.2,13.3,0.2,18.4c-5,5.1-13.3,5.2-18.5,0.2s-5.2-13.3-0.2-18.4
					S379.5,232.5,384.6,237.6z"/>
			</g>
		</g>
	</g>
	<g>
		<g>
			<polygon fill="#B9BABA" points="414.4,317.3 319.4,414.2 279.4,375.2 374.4,278.3 			"/>
		</g>
		<g>
			<polygon fill="#EFF3F5" points="405.7,318.1 320,405.5 288.1,374.4 373.8,287 			"/>
		</g>
		<g>
			<polygon fill="#FFFFFF" points="405.7,318.1 391.1,333 359.3,301.9 373.8,287 			"/>
		</g>
	</g>
</g>
</svg>
