<?xml version="1.0" encoding="utf-8"?>
<!-- Generator: Adobe Illustrator 18.0.0, SVG Export Plug-In . SVG Version: 6.00 Build 0)  -->
<!DOCTYPE svg PUBLIC "-//W3C//DTD SVG 1.1//EN" "http://www.w3.org/Graphics/SVG/1.1/DTD/svg11.dtd">
<svg version="1.1" id="Layer_1" xmlns="http://www.w3.org/2000/svg" xmlns:xlink="http://www.w3.org/1999/xlink" x="0px" y="0px"
	 viewBox="0 0 512 512" enable-background="new 0 0 512 512" xml:space="preserve">
<g>
	<g>
		<path fill="#41B3E2" d="M382.2,372.4c-3.8-1.2-5.8-5.3-4.3-9c0,0,0-0.1,0.1-0.1c0.8-2,2.6-3.4,4.6-3.9
			c44.2-11.4,54.7-65.9,54.7-65.9c-13,13.9-27.2,18.1-38.6,18.7c-4,0.2-7.3-3-7.1-7c0,0,0-0.1,0-0.1c0.1-2.1,1.3-4,3-5.2
			c37.7-25.9,28.9-80.7,28.9-80.7c-7.5,17.4-19.3,26.3-29.8,30.8c-3.7,1.6-7.9-0.3-9.1-4.2c0,0,0-0.1,0-0.1c-0.6-2-0.2-4.2,1-5.9
			c26.5-37.2-0.5-85.7-0.5-85.7c-1.1,19-9.2,31.4-17.5,39.2c-2.9,2.7-7.5,2.4-9.9-0.8c0,0,0-0.1-0.1-0.1c-1.3-1.7-1.6-3.9-1.1-6
			c12.2-44-29.7-80.4-29.7-80.4c5.5,18.2,2.1,32.6-3.1,42.8c-1.8,3.6-6.3,4.8-9.6,2.6c0,0-0.1,0-0.1-0.1c-1.8-1.2-2.8-3.1-3-5.2
			c-3.6-45.6-55.4-65.4-55.4-65.4c11.4,15.2,13.1,29.9,11.8,41.3c-0.5,4-4.3,6.7-8.2,5.8c0,0-0.1,0-0.1,0c-2.1-0.5-3.7-1.9-4.6-3.9
			C235.5,82.1,180,81.2,180,81.2c15.9,10.4,22.6,23.6,25.2,34.8c0.9,3.9-1.7,7.7-5.7,8.2c0,0-0.1,0-0.1,0c-2.1,0.2-4.2-0.5-5.6-2.1
			c-32-32.6-84.5-14.5-84.5-14.5c18.5,4.4,29.3,14.5,35.5,24.1c2.2,3.4,1,7.9-2.6,9.7c0,0-0.1,0-0.1,0.1c-1.9,1-4.1,0.9-6,0
			c-41.2-19.7-84.3,15.3-84.3,15.3c18.9-2.2,32.5,3.6,41.6,10.5c3.2,2.4,3.7,7,0.9,10c-0.8,0.8-1.6,1.7-2.4,2.6
			c-47.4-7.2-77.4,42.8-77.4,42.8c17-8.5,31.7-7.7,42.7-4.4c3.8,1.2,5.8,5.3,4.3,9c0,0,0,0.1-0.1,0.1c-0.8,2-2.6,3.4-4.6,3.9
			C12.5,242.7,2,297.2,2,297.2c13-13.9,27.2-18.1,38.6-18.7c4-0.2,7.3,3,7.1,7c0,0,0,0.1,0,0.1c-0.1,2.1-1.3,4-3,5.2
			C7,316.7,15.8,371.5,15.8,371.5c7.5-17.5,19.3-26.3,29.8-30.8c3.7-1.6,7.9,0.3,9.1,4.2c0,0,0,0.1,0,0.1c0.6,2,0.2,4.2-1,5.9
			c-26.5,37.2,0.5,85.7,0.5,85.7c1.1-19,9.2-31.4,17.5-39.2c2.9-2.7,7.5-2.4,9.9,0.8c0,0,0,0.1,0.1,0.1c1.3,1.7,1.6,3.9,1.1,5.9
			c-12.2,44,29.7,80.4,29.7,80.4c-5.5-18.2-2.1-32.6,3.1-42.8c1.8-3.6,6.3-4.8,9.6-2.6c0,0,0.1,0,0.1,0.1c1.8,1.2,2.8,3.1,3,5.2
			c3.6,45.6,55.4,65.4,55.4,65.4c-11.4-15.2-13.1-29.9-11.8-41.3c0.5-4,4.3-6.7,8.2-5.8c0,0,0.1,0,0.1,0c2.1,0.5,3.7,1.9,4.6,3.9
			c18.9,41.6,74.4,42.5,74.4,42.5c-15.9-10.4-22.6-23.6-25.2-34.8c-0.9-3.9,1.7-7.7,5.7-8.2c0,0,0.1,0,0.1,0
			c2.1-0.2,4.2,0.5,5.6,2.1c32,32.6,84.5,14.5,84.5,14.5c-18.5-4.4-29.3-14.5-35.5-24.1c-2.2-3.4-1-7.9,2.6-9.7c0,0,0.1,0,0.1-0.1
			c1.9-1,4.1-0.9,6,0c41.2,19.7,84.3-15.3,84.3-15.3c-18.9,2.2-32.5-3.6-41.6-10.5c-3.2-2.4-3.7-7-0.9-10c0,0,0.1-0.1,0.1-0.1
			c1.5-1.5,3.5-2.3,5.6-2.1c45.5,4.4,74-43.2,74-43.2C407.9,376.5,393.2,375.7,382.2,372.4z M219.7,406.8
			c-61.6,0-111.5-49.9-111.5-111.5s49.9-111.5,111.5-111.5s111.5,49.9,111.5,111.5S281.3,406.8,219.7,406.8z"/>
	</g>
	<g>
		<path fill="#2E89AC" d="M219.7,180.9c-63.2,0-114.4,51.2-114.4,114.4s51.2,114.4,114.4,114.4S334,358.5,334,295.3
			S282.8,180.9,219.7,180.9z M219.7,344.9c-27.4,0-49.6-22.2-49.6-49.6s22.2-49.6,49.6-49.6c27.4,0,49.6,22.2,49.6,49.6
			S247.1,344.9,219.7,344.9z"/>
	</g>
	<g>
		<path fill="#EFF3F5" d="M219.7,214.2c-44.8,0-81.1,36.3-81.1,81.1s36.3,81.1,81.1,81.1c44.8,0,81.1-36.3,81.1-81.1
			S264.5,214.2,219.7,214.2z M219.7,340.5c-25,0-45.2-20.3-45.2-45.2s20.3-45.2,45.2-45.2s45.2,20.3,45.2,45.2
			S244.7,340.5,219.7,340.5z"/>
	</g>
	<g>
		<path fill="#FBD984" d="M349.7,20.1c-29.2-14-62.5-20.5-97.2-17.3c-60.1,5.6-110.8,39.3-140.4,86.8C141,63,178.5,45.3,220.6,41.4
			c38.4-3.6,75.1,4.8,106.5,22c9.8,5.4,21.9,3.4,29.5-4.8l0,0C367.7,46.7,364.4,27.2,349.7,20.1z"/>
	</g>
	<g>
		<path fill="#FBD984" d="M508.9,216.2c-9.7-30.9-27.7-59.7-53.7-82.8C410.1,93.3,351,79.2,296,90c39.1,3,77.7,18.3,109.3,46.3
			c28.8,25.6,47.7,58.1,56.6,92.9c2.7,10.8,12.5,18.3,23.6,18.3l0,0C501.7,247.5,513.8,231.8,508.9,216.2z"/>
	</g>
	<g>
		<path fill="#FBD984" d="M457.3,458.4c18.7-26.5,30.6-58.2,33.2-93c4.4-60.2-20.4-115.7-62.3-152.8c21.4,32.9,32.7,72.8,29.6,114.9
			c-2.8,38.4-17.2,73.2-39.4,101.4c-6.9,8.7-6.9,21-0.2,29.9l0,0C428.1,471.7,448,471.7,457.3,458.4z"/>
	</g>
</g>
</svg>
