<?xml version="1.0" encoding="utf-8"?>
<!-- Generator: Adobe Illustrator 18.0.0, SVG Export Plug-In . SVG Version: 6.00 Build 0)  -->
<!DOCTYPE svg PUBLIC "-//W3C//DTD SVG 1.1//EN" "http://www.w3.org/Graphics/SVG/1.1/DTD/svg11.dtd">
<svg version="1.1" id="Layer_1" xmlns="http://www.w3.org/2000/svg" xmlns:xlink="http://www.w3.org/1999/xlink" x="0px" y="0px"
	 viewBox="0 0 512 512" enable-background="new 0 0 512 512" xml:space="preserve">
<g>
	<g>
		<path fill="#445C6C" d="M489.2,300.6c27.8-21,27.8-68.2,0-89.1l-79.5-59.9v208.9L489.2,300.6z M469.1,240.4
			c8.6,0,15.6,7,15.6,15.6c0,8.6-7,15.6-15.6,15.6c-8.6,0-15.6-7-15.6-15.6C453.5,247.4,460.5,240.4,469.1,240.4z"/>
	</g>
	<g>
		<path fill="#2C404C" d="M469.1,283.5c15.2,0,27.5-12.3,27.5-27.5s-12.3-27.5-27.5-27.5s-27.5,12.3-27.5,27.5
			C441.6,271.2,453.9,283.5,469.1,283.5z M469.1,240.4c8.6,0,15.6,7,15.6,15.6c0,8.6-7,15.6-15.6,15.6c-8.6,0-15.6-7-15.6-15.6
			C453.5,247.4,460.5,240.4,469.1,240.4z"/>
	</g>
	<g>
		<path fill="#445C6C" d="M22.8,211.4c-27.8,21-27.8,68.2,0,89.1l79.5,59.9V151.5L22.8,211.4z M42.9,271.6c-8.6,0-15.6-7-15.6-15.6
			s7-15.6,15.6-15.6c8.6,0,15.6,7,15.6,15.6S51.5,271.6,42.9,271.6z"/>
	</g>
	<g>
		<path fill="#526A77" d="M409.7,162.3l79.5,59.9c12.4,9.4,19.3,24,20.6,39.2c1.6-18.8-5.2-38.4-20.6-50l-79.5-59.9v208.9l0,0V162.3
			z"/>
	</g>
	<g>
		<path fill="#526A77" d="M22.8,211.4C7.5,223,0.6,242.6,2.3,261.4c1.3-15.2,8.2-29.8,20.6-39.2l79.5-59.9v-10.8L22.8,211.4z"/>
	</g>
	<g>
		<path fill="#2C404C" d="M42.9,228.5c-15.2,0-27.5,12.3-27.5,27.5s12.3,27.5,27.5,27.5s27.5-12.3,27.5-27.5S58.1,228.5,42.9,228.5z
			 M42.9,271.6c-8.6,0-15.6-7-15.6-15.6s7-15.6,15.6-15.6c8.6,0,15.6,7,15.6,15.6S51.5,271.6,42.9,271.6z"/>
	</g>
	<g>
		<path fill="#788D9A" d="M385.5,139.2H126.5c-17.6,0-31.9,14.3-31.9,31.9v169.7c0,17.6,14.3,31.9,31.9,31.9h258.9
			c17.6,0,31.9-14.3,31.9-31.9V171.1C417.4,153.5,403.1,139.2,385.5,139.2z"/>
	</g>
	<g>
		<path fill="#91A1AA" d="M385.5,139.2H126.5c-17.6,0-31.9,14.3-31.9,31.9v12c0-17.6,14.3-31.9,31.9-31.9h258.9
			c17.6,0,31.9,14.3,31.9,31.9v-12C417.4,153.5,403.1,139.2,385.5,139.2z"/>
	</g>
	<g>
		<path fill="#445C6C" d="M392,289.7L392,289.7L392,289.7v-96.8c0-11.8-9.6-21.4-21.4-21.4H141.4c-11.8,0-21.4,9.6-21.4,21.4v96.8
			l0,0l0,0l0,0l0,0l59.5,50.8h153L392,289.7L392,289.7L392,289.7z"/>
	</g>
	<g>
		<g>
			<path fill="#EFF3F5" d="M256,253c-5.7,0-10.4,4.7-10.4,10.4v38.7c0,5.7,4.7,10.4,10.4,10.4c5.7,0,10.4-4.7,10.4-10.4v-38.7
				C266.4,257.7,261.7,253,256,253z"/>
		</g>
		<g>
			<path fill="#EFF3F5" d="M191.1,199.5c-5.7,0-10.4,4.7-10.4,10.4v38.7c0,5.7,4.7,10.4,10.4,10.4c5.7,0,10.4-4.7,10.4-10.4v-38.7
				C201.5,204.2,196.8,199.5,191.1,199.5z"/>
		</g>
		<g>
			<path fill="#EFF3F5" d="M320.9,199.5L320.9,199.5c-5.7,0-10.4,4.7-10.4,10.4v38.7c0,5.7,4.7,10.4,10.4,10.4l0,0
				c5.7,0,10.4-4.7,10.4-10.4v-38.7C331.3,204.2,326.7,199.5,320.9,199.5z"/>
		</g>
	</g>
</g>
</svg>
