<?xml version="1.0" encoding="utf-8"?>
<!-- Generator: Adobe Illustrator 18.0.0, SVG Export Plug-In . SVG Version: 6.00 Build 0)  -->
<!DOCTYPE svg PUBLIC "-//W3C//DTD SVG 1.1//EN" "http://www.w3.org/Graphics/SVG/1.1/DTD/svg11.dtd">
<svg version="1.1" id="Layer_1" xmlns="http://www.w3.org/2000/svg" xmlns:xlink="http://www.w3.org/1999/xlink" x="0px" y="0px"
	 viewBox="0 0 512 512" enable-background="new 0 0 512 512" xml:space="preserve">
<g>
	<g>
		<polygon fill="#EFF3F5" points="131.5,301.5 42,301.5 62,2 111.4,2 		"/>
	</g>
	<g>
		<polygon fill="#F1786B" points="58.5,54.8 114.9,54.8 112.8,22 60.7,22 		"/>
	</g>
	<g>
		<polygon fill="#EFF3F5" points="300.7,301.5 211.3,301.5 231.3,2 280.7,2 		"/>
	</g>
	<g>
		<polygon fill="#F1786B" points="227.8,54.8 284.2,54.8 282,22 230,22 		"/>
	</g>
	<g>
		<polygon fill="#EFF3F5" points="470,301.5 380.5,301.5 400.6,2 450,2 		"/>
	</g>
	<g>
		<polygon fill="#F1786B" points="397.1,54.8 453.5,54.8 451.3,22 399.2,22 		"/>
	</g>
	<g>
		<polygon fill="#DBDFE0" points="171.5,510 2,510 2,288.3 171.5,222 		"/>
	</g>
	<g>
		<polygon fill="#5AC8AE" points="2,288.3 2,321.8 171.5,255.5 171.5,222 		"/>
	</g>
	<g>
		<rect x="62" y="345.3" fill="#445C6C" width="49.4" height="49.4"/>
	</g>
	<g>
		<rect x="62" y="431.4" fill="#445C6C" width="49.4" height="49.4"/>
	</g>
	<g>
		<polygon fill="#DBDFE0" points="340.7,510 171.3,510 171.3,288.3 340.7,222 		"/>
	</g>
	<g>
		<polygon fill="#5AC8AE" points="171.3,288.3 171.3,321.8 340.7,255.5 340.7,222 		"/>
	</g>
	<g>
		<rect x="231.3" y="345.3" fill="#445C6C" width="49.4" height="49.4"/>
	</g>
	<g>
		<rect x="231.3" y="431.4" fill="#445C6C" width="49.4" height="49.4"/>
	</g>
	<g>
		<polygon fill="#DBDFE0" points="510,510 340.5,510 340.5,288.3 510,222 		"/>
	</g>
	<g>
		<polygon fill="#5AC8AE" points="340.5,288.3 340.5,321.8 510,255.5 510,222 		"/>
	</g>
	<g>
		<rect x="400.6" y="345.3" fill="#445C6C" width="49.4" height="49.4"/>
	</g>
	<g>
		<rect x="400.6" y="431.4" fill="#445C6C" width="49.4" height="49.4"/>
	</g>
</g>
</svg>
