<?xml version="1.0" encoding="utf-8"?>
<!-- Generator: Adobe Illustrator 18.0.0, SVG Export Plug-In . SVG Version: 6.00 Build 0)  -->
<!DOCTYPE svg PUBLIC "-//W3C//DTD SVG 1.1//EN" "http://www.w3.org/Graphics/SVG/1.1/DTD/svg11.dtd">
<svg version="1.1" id="Layer_1" xmlns="http://www.w3.org/2000/svg" xmlns:xlink="http://www.w3.org/1999/xlink" x="0px" y="0px"
	 viewBox="0 0 512 512" enable-background="new 0 0 512 512" xml:space="preserve">
<g>
	<g>
		<polygon fill="#EFF3F5" points="313.6,260.5 198.4,260.5 228.5,2 283.5,2 		"/>
	</g>
	<g>
		<polygon fill="#EFF3F5" points="144.2,260.5 29.1,260.5 59.1,2 114.2,2 		"/>
	</g>
	<g>
		<polygon fill="#EFF3F5" points="340.7,256 340.7,256 340.7,186.2 171.3,256 171.3,256 171.3,186.2 2,256 2,510 171.3,510 
			171.3,510 171.3,510 340.7,510 340.7,510 340.7,510 510,510 510,186.2 		"/>
	</g>
	<g>
		<polygon fill="#F1786B" points="226.6,17.9 223.8,41.8 288.2,41.8 285.4,17.9 		"/>
	</g>
	<g>
		<polygon fill="#DBDFE0" points="2,267.9 2,307.3 171.3,237.5 171.3,198.1 		"/>
	</g>
	<g>
		<polygon fill="#DBDFE0" points="171.3,267.9 171.3,307.3 340.7,237.5 340.7,198.1 		"/>
	</g>
	<g>
		<polygon fill="#DBDFE0" points="340.7,267.9 340.7,307.3 510,237.5 510,198.1 		"/>
	</g>
	<g>
		<polygon fill="#F1786B" points="2,256 2,295.4 171.3,225.6 171.3,186.2 		"/>
	</g>
	<g>
		<polygon fill="#F1786B" points="171.3,256 171.3,295.4 340.7,225.6 340.7,186.2 		"/>
	</g>
	<g>
		<polygon fill="#F1786B" points="340.7,256 340.7,295.4 510,225.6 510,186.2 		"/>
	</g>
	<g>
		<polygon fill="#F1786B" points="57.3,17.9 54.5,41.8 118.8,41.8 116,17.9 		"/>
	</g>
	<g>
		<rect x="340.7" y="393.6" fill="#445C6C" width="100.8" height="116.4"/>
	</g>
	<g>
		<g>
			<rect x="46.4" y="393.6" fill="#41B3E2" width="37.3" height="62.5"/>
		</g>
		<g>
			<rect x="118.4" y="393.6" fill="#41B3E2" width="37.3" height="62.5"/>
		</g>
		<g>
			<rect x="190.4" y="393.6" fill="#41B3E2" width="37.3" height="62.5"/>
		</g>
		<g>
			<rect x="262.4" y="393.6" fill="#41B3E2" width="37.3" height="62.5"/>
		</g>
	</g>
</g>
</svg>
