<?xml version="1.0" encoding="utf-8"?>
<!-- Generator: Adobe Illustrator 18.0.0, SVG Export Plug-In . SVG Version: 6.00 Build 0)  -->
<!DOCTYPE svg PUBLIC "-//W3C//DTD SVG 1.1//EN" "http://www.w3.org/Graphics/SVG/1.1/DTD/svg11.dtd">
<svg version="1.1" id="Layer_1" xmlns="http://www.w3.org/2000/svg" xmlns:xlink="http://www.w3.org/1999/xlink" x="0px" y="0px"
	 viewBox="0 0 512 512" enable-background="new 0 0 512 512" xml:space="preserve">
<g>
	<g>
		<path fill="#5AC8AE" d="M411,69.1H95.4c-17.7,0-32,14.3-32,32V478c0,17.7,14.3,32,32,32h321.1c17.7,0,32-14.3,32-32V106.8
			C448.6,86,431.8,69.1,411,69.1z M410.7,118.8v143.5c0,7.1-9.9,8.7-12.2,2l-50.2-146c-1.4-4.1,1.6-8.3,5.9-8.3h47.7
			C406.7,110,410.7,113.9,410.7,118.8z"/>
	</g>
	<g>
		<path fill="#6FD8BC" d="M411,69.1H95.4c-17.7,0-32,14.3-32,32v9.9c0-17.7,14.3-32,32-32H411c20.8,0,37.6,16.9,37.6,37.7v-9.9
			C448.6,86,431.8,69.1,411,69.1z"/>
	</g>
	<g>
		<rect x="119.3" y="52" fill="#445C6C" width="90.6" height="17.2"/>
	</g>
	<g>
		<rect x="119.3" y="52" fill="#2C424F" width="90.6" height="8.6"/>
	</g>
	<g>
		<path fill="#F1786B" d="M203.4,2h-77.7c-8.2,0-14.8,6.6-14.8,14.8V52h107.3V16.8C218.2,8.6,211.6,2,203.4,2z"/>
	</g>
	<g>
		<path fill="#FF8E85" d="M203.4,2h-77.7c-8.2,0-14.8,6.6-14.8,14.8v5.9c0-8.2,6.6-14.8,14.8-14.8h77.7c8.2,0,14.8,6.6,14.8,14.8
			v-5.9C218.2,8.6,211.6,2,203.4,2z"/>
	</g>
	<g>
		<g>
			<path fill="#D45947" d="M134.5,52V21.2c0-3.6-2.9-6.5-6.5-6.5s-6.5,2.9-6.5,6.5V52H134.5z"/>
		</g>
		<g>
			<path fill="#D45947" d="M158.9,52V21.2c0-3.6-2.9-6.5-6.5-6.5c-3.6,0-6.5,2.9-6.5,6.5V52H158.9z"/>
		</g>
		<g>
			<path fill="#D45947" d="M183.3,52V21.2c0-3.6-2.9-6.5-6.5-6.5c-3.6,0-6.5,2.9-6.5,6.5V52H183.3z"/>
		</g>
		<g>
			<path fill="#D45947" d="M207.7,52V21.2c0-3.6-2.9-6.5-6.5-6.5c-3.6,0-6.5,2.9-6.5,6.5V52H207.7z"/>
		</g>
	</g>
	<g>
		<polygon fill="#FBD984" points="295.8,116.4 105.7,116.4 105.7,460.7 406.3,460.7 406.3,406.1 		"/>
	</g>
	<g>
		<path fill="#EFF3F5" d="M315,340.2c0,44.9-36.4,81.3-81.3,81.3s-81.3-36.4-81.3-81.3s81.3-163,81.3-163S315,295.3,315,340.2z"/>
	</g>
</g>
</svg>
