<?xml version="1.0" encoding="utf-8"?>
<!-- Generator: Adobe Illustrator 18.0.0, SVG Export Plug-In . SVG Version: 6.00 Build 0)  -->
<!DOCTYPE svg PUBLIC "-//W3C//DTD SVG 1.1//EN" "http://www.w3.org/Graphics/SVG/1.1/DTD/svg11.dtd">
<svg version="1.1" id="Layer_1" xmlns="http://www.w3.org/2000/svg" xmlns:xlink="http://www.w3.org/1999/xlink" x="0px" y="0px"
	 viewBox="0 0 512 512" enable-background="new 0 0 512 512" xml:space="preserve">
<g>
	<g>
		<g>
			<path fill="#788D9A" d="M18,346.6c-34.1-94.3-13.2-200,57.7-270.9c91.6-91.7,262.6-109,370.7,11.8
				c85.1,95.2,84.5,240.2,0.1,335.9c-72.9,82.7-189.8,109.2-290.9,66c-8.3-3.6-12.2-13.1-8.6-21.4c3.5-8.3,13.1-12.2,21.4-8.6
				c88.1,37.6,190,14.5,253.6-57.5c73.6-83.4,74.7-210.3-0.1-292.7C324.7,2.1,178.3,19.3,98.8,98.9C37,160.7,17.3,253.3,48.5,335
				c6.4,16.7,20.7,29,38.2,32.7c17.6,3.8,35-1.4,47.8-14.1c6.4-6.4,16.7-6.4,23.1,0c6.4,6.4,6.4,16.7,0,23.1
				c-20.4,20.4-49.5,29-77.7,23C63.5,396.1,30,379.9,18,346.6z"/>
		</g>
	</g>
	<g>
		<polygon fill="#41B3E2" points="313.7,330 176,192.2 228.9,139.3 366.6,277 		"/>
	</g>
	<g>
		<polygon fill="#379FC8" points="306.2,322.6 183.4,199.7 136,306.8 199.1,369.9 		"/>
	</g>
	<g>
		<polygon fill="#41B3E2" points="167.6,386.7 119.3,338.3 143.4,314.2 191.7,362.5 		"/>
	</g>
	<g>
		<g>
			<path fill="#DBDFE0" d="M320.6,106.1c-5.5-5.5-14.4-5.5-19.9,0l-52.5,52.5l19.9,19.9l52.5-52.5
				C326.1,120.5,326.1,111.6,320.6,106.1z"/>
		</g>
		<g>
			<path fill="#DBDFE0" d="M399.8,185.3c-5.5-5.5-14.4-5.5-19.9,0l-52.5,52.5l19.9,19.9l52.5-52.5
				C405.3,199.7,405.3,190.8,399.8,185.3z"/>
		</g>
	</g>
</g>
</svg>
