<?xml version="1.0" encoding="utf-8"?>
<!-- Generator: Adobe Illustrator 18.0.0, SVG Export Plug-In . SVG Version: 6.00 Build 0)  -->
<!DOCTYPE svg PUBLIC "-//W3C//DTD SVG 1.1//EN" "http://www.w3.org/Graphics/SVG/1.1/DTD/svg11.dtd">
<svg version="1.1" id="Layer_1" xmlns="http://www.w3.org/2000/svg" xmlns:xlink="http://www.w3.org/1999/xlink" x="0px" y="0px"
	 viewBox="0 0 512 512" enable-background="new 0 0 512 512" xml:space="preserve">
<g>
	<g>
		<rect x="2" y="482.4" fill="#F1786B" width="508" height="27.6"/>
	</g>
	<g>
		<g>
			<g>
				<path fill="#C4C6C6" d="M391.4,160.6L391.4,160.6c-53.6,0-97.1,14.4-97.1,32.2v289.6h194.3V192.8
					C488.6,175,445.1,160.6,391.4,160.6z"/>
			</g>
		</g>
		<g>
			<path fill="#A5A5A5" d="M294.3,192.8v289.6H355l-30.5-312.9C305.9,175.4,294.3,183.6,294.3,192.8z"/>
		</g>
		<g>
			<path fill="#788D9A" d="M398.5,160.6V181h-35v-20.4h-5.6v321.8h5.6V462h35v20.4h5.6V160.6H398.5z M398.5,186.6v25h-35v-25H398.5z
				 M363.4,395.2v-25h35v25H363.4z M398.5,400.8v25h-35v-25H398.5z M363.4,364.6v-25h35v25H363.4z M363.4,334v-25h35v25H363.4z
				 M363.4,303.4v-25h35v25H363.4z M363.4,272.8v-25h35v25H363.4z M363.4,242.2v-25h35v25H363.4z M363.4,456.4v-25h35v25H363.4z"/>
		</g>
		<g>
			<g>
				<path fill="#DBDFE0" d="M168.5,2L168.5,2c-80.1,0-145,21.5-145,48.1v432.4h290V50.1C313.5,23.5,248.5,2,168.5,2z"/>
			</g>
		</g>
		<g>
			<path fill="#788D9A" d="M170.8,2v30.4h-52.3V2h-8.4v480.4h8.4V452h52.3v30.4h8.4V2H170.8z M170.8,40.8v37.3h-52.3V40.8H170.8z
				 M118.5,352.2v-37.3h52.3v37.3H118.5z M170.8,360.6v37.3h-52.3v-37.3H170.8z M118.5,306.5v-37.3h52.3v37.3H118.5z M118.5,260.9
				v-37.3h52.3v37.3H118.5z M118.5,215.2v-37.3h52.3v37.3H118.5z M118.5,169.5v-37.3h52.3v37.3H118.5z M118.5,123.8V86.5h52.3v37.3
				H118.5z M118.5,443.6v-37.3h52.3v37.3H118.5z"/>
		</g>
	</g>
</g>
</svg>
