<?xml version="1.0" encoding="utf-8"?>
<!-- Generator: Adobe Illustrator 18.0.0, SVG Export Plug-In . SVG Version: 6.00 Build 0)  -->
<!DOCTYPE svg PUBLIC "-//W3C//DTD SVG 1.1//EN" "http://www.w3.org/Graphics/SVG/1.1/DTD/svg11.dtd">
<svg version="1.1" id="Layer_1" xmlns="http://www.w3.org/2000/svg" xmlns:xlink="http://www.w3.org/1999/xlink" x="0px" y="0px"
	 viewBox="0 0 512 512" enable-background="new 0 0 512 512" xml:space="preserve">
<g>
	<g>
		<path fill="#788D9A" d="M445.8,105.1H24.8C12.2,105.1,2,115.3,2,127.9v256.3c0,12.6,10.2,22.8,22.8,22.8h420.9
			c12.6,0,22.8-10.2,22.8-22.8V127.9C468.6,115.3,458.4,105.1,445.8,105.1z"/>
	</g>
	<g>
		<path fill="#8FA1AA" d="M445.8,105.1H24.8C12.2,105.1,2,115.3,2,127.9v10.8c0-12.6,10.2-22.8,22.8-22.8h420.9
			c12.6,0,22.8,10.2,22.8,22.8v-10.8C468.6,115.3,458.4,105.1,445.8,105.1z"/>
	</g>
	<g>
		<rect x="34.4" y="137.4" fill="#EFF3F5" width="401.9" height="237.2"/>
	</g>
	<g>
		<rect x="468.6" y="199.7" fill="#445C6C" width="41.4" height="112.6"/>
	</g>
	<g>
		<rect x="468.6" y="199.7" fill="#2F4551" width="16.9" height="112.6"/>
	</g>
	<g>
		<rect x="50.2" y="153.2" fill="#5AC8AE" width="61.4" height="205.6"/>
	</g>
	<g>
		<rect x="126.7" y="153.2" fill="#5AC8AE" width="61.4" height="205.6"/>
	</g>
	<g>
		<rect x="203.1" y="153.2" fill="#5AC8AE" width="61.4" height="205.6"/>
	</g>
	<g>
		<rect x="280.6" y="153.2" fill="#5AC8AE" width="61.4" height="205.6"/>
	</g>
	<g>
		<rect x="50.2" y="153.2" fill="#6FD8BC" width="61.4" height="38.1"/>
	</g>
	<g>
		<rect x="126.7" y="153.2" fill="#6FD8BC" width="61.4" height="38.1"/>
	</g>
	<g>
		<rect x="203.1" y="153.2" fill="#6FD8BC" width="61.4" height="38.1"/>
	</g>
	<g>
		<rect x="280.6" y="153.2" fill="#6FD8BC" width="61.4" height="38.1"/>
	</g>
	<g>
		<rect x="50.2" y="312.3" fill="#52AFA8" width="61.4" height="46.5"/>
	</g>
	<g>
		<rect x="126.7" y="312.3" fill="#52AFA8" width="61.4" height="46.5"/>
	</g>
	<g>
		<rect x="203.1" y="312.3" fill="#52AFA8" width="61.4" height="46.5"/>
	</g>
	<g>
		<rect x="280.6" y="312.3" fill="#52AFA8" width="61.4" height="46.5"/>
	</g>
</g>
</svg>
