<?xml version="1.0" encoding="utf-8"?>
<!-- Generator: Adobe Illustrator 18.0.0, SVG Export Plug-In . SVG Version: 6.00 Build 0)  -->
<!DOCTYPE svg PUBLIC "-//W3C//DTD SVG 1.1//EN" "http://www.w3.org/Graphics/SVG/1.1/DTD/svg11.dtd">
<svg version="1.1" id="Layer_1" xmlns="http://www.w3.org/2000/svg" xmlns:xlink="http://www.w3.org/1999/xlink" x="0px" y="0px"
	 viewBox="0 0 512 512" enable-background="new 0 0 512 512" xml:space="preserve">
<g>
	<g>
		<rect x="81.8" y="53.2" fill="#379FC8" width="53.2" height="81.3"/>
	</g>
	<g>
		<rect x="81.8" y="53.2" fill="#2E89AC" width="53.2" height="16.6"/>
	</g>
	<g>
		<rect x="67.7" y="23.7" fill="#379FC8" width="81.3" height="29.5"/>
	</g>
	<g>
		<polygon fill="#EFF3F5" points="421.6,510 90.4,510 90.4,164.3 256,53.2 421.6,164.3 		"/>
	</g>
	<g>
		<polygon fill="#DBDFE0" points="90.4,164.3 90.4,225.1 256,106.4 421.6,225.1 421.6,164.3 256,53.2 		"/>
	</g>
	<g>
		<polygon fill="#41B3E2" points="256,74.7 459.3,220.4 510,184 256,2 2,184 52.7,220.4 		"/>
	</g>
	<g>
		<path fill="#445C6C" d="M256,268.3L256,268.3c-46.5,0-84.2,37.7-84.2,84.2V510h168.5V352.5C340.2,306,302.5,268.3,256,268.3z"/>
	</g>
	<g>
		<path fill="#5AC8AE" d="M198.7,444.9c0,0-41.8-90.1,119.5-96.7c0,0-12.5,43.2-19.8,77s-55,56.4-87.9,30.8c0,0,5.9-48.4,79.2-93.8
			C289.6,362.1,223.3,375.5,198.7,444.9z"/>
	</g>
</g>
</svg>
