<?xml version="1.0" encoding="utf-8"?>
<!-- Generator: Adobe Illustrator 18.0.0, SVG Export Plug-In . SVG Version: 6.00 Build 0)  -->
<!DOCTYPE svg PUBLIC "-//W3C//DTD SVG 1.1//EN" "http://www.w3.org/Graphics/SVG/1.1/DTD/svg11.dtd">
<svg version="1.1" id="Layer_1" xmlns="http://www.w3.org/2000/svg" xmlns:xlink="http://www.w3.org/1999/xlink" x="0px" y="0px"
	 viewBox="0 0 512 512" enable-background="new 0 0 512 512" xml:space="preserve">
<g>
	<g>
		<path fill="#EFF3F5" d="M25.5,161.8v241.1c0,18.4,14.9,33.2,33.2,33.2h394.6c18.4,0,33.2-14.9,33.2-33.2V161.8H25.5z"/>
	</g>
	<g>
		<rect x="25.5" y="161.8" fill="#DBDFE0" width="461.1" height="22"/>
	</g>
	<g>
		<rect x="2" y="118.9" fill="#788D9A" width="508" height="42.8"/>
	</g>
	<g>
		<rect x="2" y="118.9" fill="#889BA5" width="508" height="14.3"/>
	</g>
	<g>
		<g>
			<rect x="52.2" y="75.9" fill="#F1786B" width="38.6" height="43"/>
		</g>
		<g>
			<rect x="421.2" y="75.9" fill="#5AC8AE" width="38.6" height="43"/>
		</g>
	</g>
	<g>
		<polygon fill="#F1786B" points="174.5,289.4 136,289.4 136,250.9 116.9,250.9 116.9,289.4 78.4,289.4 78.4,308.4 116.9,308.4 
			116.9,347 136,347 136,308.4 174.5,308.4 		"/>
	</g>
	<g>
		<rect x="337.5" y="289.4" fill="#5AC8AE" width="96.1" height="19"/>
	</g>
</g>
</svg>
