<?xml version="1.0" encoding="utf-8"?>
<!-- Generator: Adobe Illustrator 18.0.0, SVG Export Plug-In . SVG Version: 6.00 Build 0)  -->
<!DOCTYPE svg PUBLIC "-//W3C//DTD SVG 1.1//EN" "http://www.w3.org/Graphics/SVG/1.1/DTD/svg11.dtd">
<svg version="1.1" id="Layer_1" xmlns="http://www.w3.org/2000/svg" xmlns:xlink="http://www.w3.org/1999/xlink" x="0px" y="0px"
	 viewBox="0 0 512 512" enable-background="new 0 0 512 512" xml:space="preserve">
<g>
	<g>
		<rect x="280.7" y="215.7" fill="#FBD984" width="25.9" height="30.7"/>
	</g>
	<g>
		<path fill="#FBD984" d="M193.7,119.1V88.4h-7.3c-2.9,9.6-5.4,19.9-7.6,30.7H193.7z"/>
	</g>
	<g>
		<rect x="280.7" y="130.9" fill="#FBD984" width="25.9" height="30.7"/>
	</g>
	<g>
		<rect x="280.7" y="258.2" fill="#FBD984" width="25.9" height="30.7"/>
	</g>
	<g>
		<rect x="280.7" y="300.6" fill="#FBD984" width="25.9" height="30.7"/>
	</g>
	<g>
		<rect x="205.4" y="46" fill="#FBD984" width="25.9" height="30.7"/>
	</g>
	<g>
		<rect x="280.7" y="88.4" fill="#FBD984" width="25.9" height="30.7"/>
	</g>
	<g>
		<rect x="205.4" y="300.6" fill="#FBD984" width="25.9" height="30.7"/>
	</g>
	<g>
		<path fill="#FBD984" d="M193.7,76.7v-9.4c-1.2,3.1-2.4,6.2-3.5,9.4H193.7z"/>
	</g>
	<g>
		<rect x="280.7" y="46" fill="#FBD984" width="25.9" height="30.7"/>
	</g>
	<g>
		<rect x="243.1" y="46" fill="#FBD984" width="25.9" height="30.7"/>
	</g>
	<g>
		<rect x="280.7" y="173.3" fill="#FBD984" width="25.9" height="30.7"/>
	</g>
	<g>
		<rect x="205.4" y="258.2" fill="#FBD984" width="25.9" height="30.7"/>
	</g>
	<g>
		<rect x="243.1" y="173.3" fill="#FBD984" width="25.9" height="30.7"/>
	</g>
	<g>
		<rect x="243.1" y="300.6" fill="#FBD984" width="25.9" height="30.7"/>
	</g>
	<g>
		<rect x="243.1" y="130.9" fill="#FBD984" width="25.9" height="30.7"/>
	</g>
	<g>
		<rect x="243.1" y="343.1" fill="#FBD984" width="25.9" height="30.7"/>
	</g>
	<g>
		<rect x="243.1" y="258.2" fill="#FBD984" width="25.9" height="30.7"/>
	</g>
	<g>
		<rect x="205.4" y="173.3" fill="#FBD984" width="25.9" height="30.7"/>
	</g>
	<g>
		<rect x="243.1" y="88.4" fill="#FBD984" width="25.9" height="30.7"/>
	</g>
	<g>
		<rect x="205.4" y="215.7" fill="#FBD984" width="25.9" height="30.7"/>
	</g>
	<g>
		<rect x="205.4" y="130.9" fill="#FBD984" width="25.9" height="30.7"/>
	</g>
	<g>
		<rect x="205.4" y="88.4" fill="#FBD984" width="25.9" height="30.7"/>
	</g>
	<g>
		<rect x="243.1" y="215.7" fill="#FBD984" width="25.9" height="30.7"/>
	</g>
	<g>
		<path fill="#FBD984" d="M318.3,173.3V204h23.6c-0.1-10.4-0.6-20.7-1.4-30.7H318.3z"/>
	</g>
	<g>
		<path fill="#FBD984" d="M318.3,130.9v30.7h21.2c-1.1-10.6-2.4-20.8-4.1-30.7H318.3z"/>
	</g>
	<g>
		<rect x="318.3" y="300.6" fill="#FBD984" width="23.7" height="30.7"/>
	</g>
	<g>
		<rect x="318.3" y="258.2" fill="#FBD984" width="23.7" height="30.7"/>
	</g>
	<g>
		<path fill="#FBD984" d="M318.3,76.7h3.5c-1.1-3.2-2.3-6.4-3.5-9.4V76.7z"/>
	</g>
	<g>
		<rect x="318.3" y="215.7" fill="#FBD984" width="23.7" height="30.7"/>
	</g>
	<g>
		<path fill="#FBD984" d="M318.3,88.4v30.7h14.9c-2.2-10.8-4.7-21-7.6-30.7H318.3z"/>
	</g>
	<g>
		<path fill="#FBD984" d="M280.7,34.2h21.1c-6.5-10-13.6-17.9-21.1-23.4V34.2z"/>
	</g>
	<g>
		<path fill="#FBD984" d="M243.1,34.2h25.9V4.4C264.7,2.8,260.4,2,256,2s-8.7,0.8-12.9,2.4V34.2z"/>
	</g>
	<g>
		<path fill="#FBD984" d="M231.3,34.2V10.8c-7.5,5.5-14.6,13.4-21.1,23.4H231.3z"/>
	</g>
	<g>
		<path fill="#FBD984" d="M193.7,204v-30.7h-22.2c-0.8,10-1.2,20.2-1.4,30.7H193.7z"/>
	</g>
	<g>
		<rect x="170" y="300.6" fill="#FBD984" width="23.7" height="30.7"/>
	</g>
	<g>
		<rect x="170" y="258.2" fill="#FBD984" width="23.7" height="30.7"/>
	</g>
	<g>
		<rect x="170" y="215.7" fill="#FBD984" width="23.7" height="30.7"/>
	</g>
	<g>
		<path fill="#FBD984" d="M193.7,161.5v-30.7h-17.1c-1.7,9.9-3.1,20.1-4.1,30.7H193.7z"/>
	</g>
	<g>
		<rect x="170" y="343.1" fill="#FBD984" width="23.7" height="30.7"/>
	</g>
	<g>
		<rect x="205.4" y="343.1" fill="#FBD984" width="25.9" height="30.7"/>
	</g>
	<g>
		<rect x="280.7" y="385.5" fill="#FBD984" width="25.9" height="86.9"/>
	</g>
	<g>
		<rect x="280.7" y="343.1" fill="#FBD984" width="25.9" height="30.7"/>
	</g>
	<g>
		<rect x="243.1" y="385.5" fill="#FBD984" width="25.9" height="86.9"/>
	</g>
	<g>
		<rect x="318.3" y="343.1" fill="#FBD984" width="23.7" height="30.7"/>
	</g>
	<g>
		<rect x="205.4" y="385.5" fill="#FBD984" width="25.9" height="86.9"/>
	</g>
	<g>
		<g>
			<path fill="#52AFA8" d="M435.3,99.1c0,0-185,86.6-185,216.9s0,194,0,194h8.3c50,0,90.5-40.5,90.5-90.5V304.5
				C349.1,304.5,336.9,187.8,435.3,99.1z"/>
		</g>
		<g>
			<path fill="#5AC8AE" d="M76.7,99.1c0,0,185,86.6,185,216.9s0,194,0,194h-8.3c-50,0-90.5-40.5-90.5-90.5V304.5
				C162.9,304.5,175.1,187.8,76.7,99.1z"/>
		</g>
	</g>
</g>
</svg>
