<?xml version="1.0" encoding="utf-8"?>
<!-- Generator: Adobe Illustrator 18.0.0, SVG Export Plug-In . SVG Version: 6.00 Build 0)  -->
<!DOCTYPE svg PUBLIC "-//W3C//DTD SVG 1.1//EN" "http://www.w3.org/Graphics/SVG/1.1/DTD/svg11.dtd">
<svg version="1.1" id="Layer_1" xmlns="http://www.w3.org/2000/svg" xmlns:xlink="http://www.w3.org/1999/xlink" x="0px" y="0px"
	 viewBox="0 0 512 512" enable-background="new 0 0 512 512" xml:space="preserve">
<g>
	<g>
		<path fill="#EFF3F5" d="M401.7,25.5H110.3c-8.7,0-15.7,7-15.7,15.7v453.1c0,8.7,7,15.7,15.7,15.7h291.4c8.7,0,15.7-7,15.7-15.7
			V41.2C417.4,32.6,410.4,25.5,401.7,25.5z"/>
	</g>
	<g>
		<path fill="#F7F7F7" d="M401.7,25.5H110.3c-8.7,0-15.7,7-15.7,15.7v7c0-8.7,7-15.7,15.7-15.7h291.4c8.7,0,15.7,7,15.7,15.7v-7
			C417.4,32.6,410.4,25.5,401.7,25.5z"/>
	</g>
	<g>
		<rect x="94.6" y="120.1" fill="#FBD984" width="322.8" height="326.8"/>
	</g>
	<g>
		<rect x="141.7" y="2" fill="#788D9A" width="61.8" height="23.5"/>
	</g>
	<g>
		<rect x="308.5" y="2" fill="#788D9A" width="61.8" height="23.5"/>
	</g>
	<g>
		<rect x="141.7" y="2" fill="#889BA5" width="61.8" height="6.8"/>
	</g>
	<g>
		<rect x="308.5" y="2" fill="#889BA5" width="61.8" height="6.8"/>
	</g>
	<g>
		<rect x="308.5" y="72.2" fill="#F1786B" width="61.8" height="12.5"/>
	</g>
	<g>
		<polygon fill="#F1786B" points="203.5,72.2 178.8,72.2 178.8,47.5 166.4,47.5 166.4,72.2 141.7,72.2 141.7,84.6 166.4,84.6 
			166.4,109.3 178.8,109.3 178.8,84.6 203.5,84.6 		"/>
	</g>
	<g>
		<path fill="#5AC8AE" d="M180.9,332.5c0,0-54.8-118.1,156.6-126.8c0,0-16.3,56.7-25.9,100.9s-72,74-115.3,40.3
			c0,0,7.7-63.4,103.7-123C300,224,236.6,241.3,180.9,332.5z"/>
	</g>
</g>
</svg>
