<?xml version="1.0" encoding="utf-8"?>
<!-- Generator: Adobe Illustrator 18.0.0, SVG Export Plug-In . SVG Version: 6.00 Build 0)  -->
<!DOCTYPE svg PUBLIC "-//W3C//DTD SVG 1.1//EN" "http://www.w3.org/Graphics/SVG/1.1/DTD/svg11.dtd">
<svg version="1.1" id="Layer_1" xmlns="http://www.w3.org/2000/svg" xmlns:xlink="http://www.w3.org/1999/xlink" x="0px" y="0px"
	 viewBox="0 0 512 512" enable-background="new 0 0 512 512" xml:space="preserve">
<g>
	<g>
		<path fill="#41B3E2" d="M256,324.1c-140.3,0-254,41.6-254,93c0,51.3,113.7,93,254,93s254-41.6,254-93
			C510,365.7,396.3,324.1,256,324.1z M256,489.1c-129.8,0-235.1-35.6-235.1-79.5c0-43.9,105.3-79.5,235.1-79.5
			s235.1,35.6,235.1,79.5C491.1,453.5,385.8,489.1,256,489.1z"/>
	</g>
	<g>
		<path fill="#41B3E2" d="M256,348.1c-79.3,0-143.5,23.5-143.5,52.5c0,29,64.3,52.5,143.5,52.5s143.5-23.5,143.5-52.5
			C399.5,371.6,335.3,348.1,256,348.1z M256,441.3c-73.4,0-132.9-20.1-132.9-44.9c0-24.8,59.5-44.9,132.9-44.9
			s132.9,20.1,132.9,44.9C388.9,421.2,329.4,441.3,256,441.3z"/>
	</g>
	<g>
		<path fill="#F1786B" d="M388.7,274.8c0,73.3-59.4,132.7-132.7,132.7s-132.7-59.4-132.7-132.7c0-69,47.5-109.3,81.7-169.5
			C237.1,48.7,256,2,256,2s16.4,44.1,47.5,98.5C338.5,161.8,388.7,204.7,388.7,274.8z"/>
	</g>
	<g>
		<path fill="#FC9088" d="M225.8,121.6c0,0-67.1,100-65.9,152.5s55.5,45.4,56.1,8.5C216.4,260.9,190.7,216.7,225.8,121.6z"/>
	</g>
</g>
</svg>
