<?xml version="1.0" encoding="utf-8"?>
<!-- Generator: Adobe Illustrator 18.0.0, SVG Export Plug-In . SVG Version: 6.00 Build 0)  -->
<!DOCTYPE svg PUBLIC "-//W3C//DTD SVG 1.1//EN" "http://www.w3.org/Graphics/SVG/1.1/DTD/svg11.dtd">
<svg version="1.1" id="Layer_1" xmlns="http://www.w3.org/2000/svg" xmlns:xlink="http://www.w3.org/1999/xlink" x="0px" y="0px"
	 viewBox="0 0 512 512" enable-background="new 0 0 512 512" xml:space="preserve">
<g>
	<g>
		<path fill="#788D9A" d="M460,104.6L414.5,150c49.7,74.1,41.8,175.4-23.7,240.9c-63.5,63.5-160.4,72.7-233.8,28l25.4-25.4l-97.4,0
			v97.4l26.2-26.2c99,68.9,236.1,59.3,324.4-29C525.9,345.4,534,204.1,460,104.6z"/>
	</g>
	<g>
		<path fill="#41B3E2" d="M427,118.6l0-97.4l-26.2,26.2c-99-68.9-236.1-59.3-324.4,29C-13.9,166.6-22,307.9,52,407.4L97.5,362
			c-49.7-74.1-41.8-175.4,23.7-240.9c63.5-63.5,160.4-72.7,233.8-28l-25.4,25.4H427z"/>
	</g>
	<g>
		<polygon fill="#F1786B" points="280.7,104.6 165.9,299 255.2,299 223.3,407.4 346.1,219.3 256,219.3 		"/>
	</g>
</g>
</svg>
