<?xml version="1.0" encoding="utf-8"?>
<!-- Generator: Adobe Illustrator 18.0.0, SVG Export Plug-In . SVG Version: 6.00 Build 0)  -->
<!DOCTYPE svg PUBLIC "-//W3C//DTD SVG 1.1//EN" "http://www.w3.org/Graphics/SVG/1.1/DTD/svg11.dtd">
<svg version="1.1" id="Layer_1" xmlns="http://www.w3.org/2000/svg" xmlns:xlink="http://www.w3.org/1999/xlink" x="0px" y="0px"
	 viewBox="0 0 512 512" enable-background="new 0 0 512 512" xml:space="preserve">
<g>
	<g>
		<polygon fill="#788D9A" points="429.9,407.1 245.6,277.8 274,78.7 241.6,74.1 212.9,275.8 50.2,381.7 68.1,409.1 227.7,305.2 
			411.1,433.9 		"/>
	</g>
	<g>
		<circle fill="#41B3E2" cx="59.2" cy="395.4" r="57.2"/>
	</g>
	<g>
		<circle fill="#FBD984" cx="420.5" cy="420.5" r="89.5"/>
	</g>
	<g>
		<circle fill="#5AC8AE" cx="257.8" cy="76.4" r="74.4"/>
	</g>
	<g>
		<circle fill="#F1786B" cx="228" cy="285.5" r="74.4"/>
	</g>
	<g>
		<path fill="#56CAED" d="M15.8,409.2c0-31.6,25.6-57.2,57.2-57.2c12.3,0,23.6,3.9,32.9,10.5c-10.3-14.6-27.4-24.2-46.7-24.2
			C27.6,338.2,2,363.8,2,395.4c0,19.3,9.6,36.3,24.2,46.7C19.7,432.8,15.8,421.4,15.8,409.2z"/>
	</g>
	<g>
		<path fill="#FFE19F" d="M344.7,434.3c0-49.4,40.1-89.5,89.5-89.5c21.2,0,40.7,7.4,56,19.7c-16.4-20.4-41.5-33.5-69.8-33.5
			C371,331,331,371,331,420.5c0,28.2,13.1,53.4,33.5,69.8C352.1,474.9,344.7,455.5,344.7,434.3z"/>
	</g>
	<g>
		<path fill="#73D8BE" d="M197.2,90.2c0-41.1,33.3-74.4,74.4-74.4c17,0,32.7,5.8,45.2,15.4C303.2,13.5,281.9,2,257.8,2
			c-41.1,0-74.4,33.3-74.4,74.4c0,24.1,11.5,45.4,29.2,59C203,122.8,197.2,107.2,197.2,90.2z"/>
	</g>
	<g>
		<path fill="#F98D85" d="M167.4,299.2c0-41.1,33.3-74.4,74.4-74.4c17,0,32.7,5.8,45.2,15.4c-13.6-17.7-34.9-29.2-59-29.2
			c-41.1,0-74.4,33.3-74.4,74.4c0,24.1,11.5,45.4,29.2,59C173.2,331.9,167.4,316.3,167.4,299.2z"/>
	</g>
</g>
</svg>
