<?xml version="1.0" encoding="utf-8"?>
<!-- Generator: Adobe Illustrator 18.0.0, SVG Export Plug-In . SVG Version: 6.00 Build 0)  -->
<!DOCTYPE svg PUBLIC "-//W3C//DTD SVG 1.1//EN" "http://www.w3.org/Graphics/SVG/1.1/DTD/svg11.dtd">
<svg version="1.1" id="Layer_1" xmlns="http://www.w3.org/2000/svg" xmlns:xlink="http://www.w3.org/1999/xlink" x="0px" y="0px"
	 viewBox="0 0 512 512" enable-background="new 0 0 512 512" xml:space="preserve">
<g>
	<g>
		<path fill="#DBDFE0" d="M226.1,182.1H76.7C76.7,401.8,2,510,2,510h298.8C300.8,510,226.1,401.8,226.1,182.1z"/>
	</g>
	<g>
		<path fill="#445C6C" d="M2,510h298.8c0,0-10.6-15.3-23.8-46.1H25.8C12.6,494.7,2,510,2,510z"/>
	</g>
	<g>
		<path fill="#52AFA8" d="M226.7,212.9c-0.3-10-0.5-20.3-0.5-30.8H76.7c0,10.6-0.2,20.8-0.5,30.8H226.7z"/>
	</g>
	<g>
		<g>
			<path fill="#EFF3F5" d="M416.4,99.3H229.3c0,275.2-93.6,410.7-93.6,410.7H510C510,510,416.4,374.5,416.4,99.3z"/>
		</g>
		<g>
			<path fill="#788D9A" d="M135.7,510H510c0,0-13.2-19.2-29.8-57.8H165.5C148.9,490.8,135.7,510,135.7,510z"/>
		</g>
		<g>
			<path fill="#5AC8AE" d="M417.1,137.8c-0.4-12.6-0.7-25.4-0.7-38.6H229.3c0,13.2-0.3,26-0.7,38.6H417.1z"/>
		</g>
	</g>
	<g>
		<path fill="#788D9A" d="M367.3,304.6c15.7-13.7,25.2-27.9,19.9-37.1c-5.3-9.2-22.4-8-42.1-1.3c-4.1-20.4-11.6-35.8-22.2-35.8
			c-10.6,0-18.1,15.4-22.2,35.8c-19.7-6.7-36.8-7.9-42.1,1.3c-5.3,9.2,4.3,23.4,19.9,37.1c-15.7,13.8-25.2,27.9-19.9,37.1
			c5.3,9.2,22.4,8,42.1,1.3c4.1,20.4,11.6,35.8,22.2,35.8s18.1-15.4,22.2-35.8c19.7,6.7,36.8,7.9,42.1-1.3
			C392.5,332.6,382.9,318.4,367.3,304.6z M383,269.9c3.3,5.6-4,17.9-19.5,31.5c-4.7-3.9-9.9-7.7-15.4-11.4c-0.4-6.5-1.2-12.9-2.2-19
			C365.4,264.4,379.7,264.3,383,269.9z M333.3,322.7c-3.6,2.1-7,3.9-10.5,5.6c-3.4-1.7-6.9-3.6-10.5-5.6c-3.6-2.1-6.9-4.1-10.1-6.2
			c-0.2-3.8-0.3-7.8-0.3-11.9c0-4.1,0.1-8,0.3-11.9c3.2-2.1,6.6-4.2,10.1-6.2c3.6-2.1,7-3.9,10.5-5.6c3.4,1.7,6.9,3.6,10.5,5.6
			c3.6,2.1,6.9,4.1,10.1,6.2c0.2,3.8,0.3,7.8,0.3,11.9c0,4.1-0.1,8-0.3,11.9C340.2,318.6,336.9,320.7,333.3,322.7z M343,322.6
			c-0.4,5-1,9.6-1.7,14c-4.1-1.6-8.5-3.4-13-5.5c2.5-1.3,5-2.7,7.4-4.1C338.2,325.6,340.6,324.1,343,322.6z M317.4,331
			c-4.5,2.1-8.8,3.9-13,5.5c-0.7-4.4-1.3-9-1.7-14c2.4,1.5,4.8,3,7.3,4.4C312.4,328.4,314.9,329.7,317.4,331z M297.2,313.1
			c-4.1-2.8-7.8-5.7-11.3-8.5c3.4-2.8,7.2-5.7,11.3-8.5c-0.1,2.8-0.2,5.7-0.2,8.5C297.1,307.5,297.1,310.3,297.2,313.1z
			 M302.7,286.7c0.4-4.9,1-9.6,1.7-14c4.1,1.6,8.5,3.4,13,5.5c-2.5,1.3-5,2.7-7.4,4.1C307.5,283.7,305.1,285.2,302.7,286.7z
			 M328.3,278.2c4.5-2.1,8.8-3.9,13-5.5c0.7,4.4,1.3,9,1.7,14c-2.4-1.5-4.8-3-7.3-4.4C333.3,280.9,330.8,279.5,328.3,278.2z
			 M348.5,296.1c4.1,2.8,7.8,5.7,11.3,8.5c-3.4,2.8-7.2,5.7-11.3,8.5c0.1-2.8,0.2-5.7,0.2-8.5C348.6,301.8,348.6,299,348.5,296.1z
			 M322.8,235.2c6.5,0,13.5,12.4,17.5,32.6c-5.8,2.2-11.7,4.7-17.5,7.6c-5.9-2.9-11.8-5.5-17.5-7.6
			C309.3,247.7,316.3,235.2,322.8,235.2z M262.7,269.9c3.3-5.7,17.5-5.5,37,1.1c-1,6.1-1.7,12.5-2.2,19c-5.4,3.6-10.6,7.5-15.4,11.4
			C266.8,287.9,259.5,275.6,262.7,269.9z M262.7,339.3c-3.3-5.6,4-17.9,19.5-31.5c4.7,3.9,9.9,7.7,15.4,11.4
			c0.4,6.5,1.2,12.9,2.2,19C280.3,344.8,266,345,262.7,339.3z M322.8,374c-6.5,0-13.5-12.4-17.5-32.6c5.8-2.2,11.7-4.7,17.5-7.6
			c5.9,2.9,11.8,5.5,17.5,7.6C336.4,361.6,329.4,374,322.8,374z M383,339.3c-3.3,5.6-17.5,5.5-37-1.1c1-6.1,1.7-12.5,2.2-19
			c5.4-3.6,10.6-7.5,15.4-11.4C378.9,321.4,386.2,333.7,383,339.3z"/>
	</g>
	<g>
		<circle fill="#F1786B" cx="266" cy="286.7" r="9.4"/>
	</g>
	<g>
		<circle fill="#52AFA8" cx="359.7" cy="264.8" r="9.4"/>
	</g>
	<g>
		<circle fill="#FBD984" cx="337.7" cy="360.6" r="9.4"/>
	</g>
	<g>
		<path fill="#EFF3F5" d="M258.8,5.6c-15.1-3.5-30.1,3.7-37.5,16.5c-11.8-6.1-26.1-7.3-39.4-2c-14.4,5.8-24.3,17.9-28,31.8
			c-14.1-4.1-30,0.4-39.7,12.6c-8.2,10.4-10,23.8-6,35.4c-14.5,3.1-25.4,16-25.4,31.4c0,17.8,14.4,32.1,32.1,32.1
			c13.8,0,25.5-8.8,30.1-21c11,9.8,27.9,9.4,38.3-1.4c8.3-8.7,9.8-21.3,4.7-31.5c9.4,2.4,19.5,1.9,29.1-1.9
			c15.5-6.2,25.8-19.7,28.7-35c17.5,2.6,34.3-8.5,38.4-26C288.6,28.3,277.2,9.9,258.8,5.6z"/>
	</g>
	<g>
		<path fill="#EFF3F5" d="M434.9,2c-13.3,0-24.7,7.6-30.4,18.6C398.1,9.6,386.3,2,372.6,2c-20.4,0-36.9,16.5-36.9,36.9
			s16.5,36.9,36.9,36.9c14.8,0,27.4-8.7,33.3-21.2c6.1,9.6,16.7,16,29,16c19,0,34.3-15.4,34.3-34.3C469.2,17.4,453.8,2,434.9,2z"/>
	</g>
</g>
</svg>
