<?xml version="1.0" encoding="utf-8"?>
<!-- Generator: Adobe Illustrator 18.0.0, SVG Export Plug-In . SVG Version: 6.00 Build 0)  -->
<!DOCTYPE svg PUBLIC "-//W3C//DTD SVG 1.1//EN" "http://www.w3.org/Graphics/SVG/1.1/DTD/svg11.dtd">
<svg version="1.1" id="Layer_1" xmlns="http://www.w3.org/2000/svg" xmlns:xlink="http://www.w3.org/1999/xlink" x="0px" y="0px"
	 viewBox="0 0 512 512" enable-background="new 0 0 512 512" xml:space="preserve">
<g>
	<g>
		<path fill="#5AC8AE" d="M384.3,52.5H127.7c-12.2,0-22.2,9.9-22.2,22.2v413.1c0,12.2,9.9,22.2,22.2,22.2h256.6
			c12.2,0,22.2-9.9,22.2-22.2V74.7C406.5,62.5,396.6,52.5,384.3,52.5z"/>
	</g>
	<g>
		<path fill="#72D6BC" d="M384.3,52.5H127.7c-12.2,0-22.2,9.9-22.2,22.2v11.4c0-12.2,9.9-22.2,22.2-22.2h256.6
			c12.2,0,22.2,9.9,22.2,22.2V74.7C406.5,62.5,396.6,52.5,384.3,52.5z"/>
	</g>
	<g>
		<path fill="#788D9A" d="M309.2,2H202.8c-6.4,0-11.5,5.2-11.5,11.5v39h129.5v-39C320.7,7.2,315.6,2,309.2,2z"/>
	</g>
	<g>
		<polygon fill="#EFF3F5" points="270.8,181.3 173.5,278.6 258.1,278.6 155.5,381.2 337.4,257.5 256,257.5 356.5,181.3 		"/>
	</g>
</g>
</svg>
