<?xml version="1.0" encoding="utf-8"?>
<!-- Generator: Adobe Illustrator 18.0.0, SVG Export Plug-In . SVG Version: 6.00 Build 0)  -->
<!DOCTYPE svg PUBLIC "-//W3C//DTD SVG 1.1//EN" "http://www.w3.org/Graphics/SVG/1.1/DTD/svg11.dtd">
<svg version="1.1" id="Layer_1" xmlns="http://www.w3.org/2000/svg" xmlns:xlink="http://www.w3.org/1999/xlink" x="0px" y="0px"
	 viewBox="0 0 512 512" enable-background="new 0 0 512 512" xml:space="preserve">
<g>
	<g>
		<rect x="242.6" y="201.7" fill="#52AFA8" width="19.7" height="49.7"/>
	</g>
	<g>
		<path fill="#5AC8AE" d="M291.8,506.7h-78.7l11.8-246.6c0.6-9.7,12.9-17.2,27.5-17.2h0c14.6,0,27,7.5,27.5,17.2L291.8,506.7z"/>
	</g>
	<g>
		<path fill="#DBDFE0" d="M265.8,5.3l-26.7,0c-1.1,0-2,0.9-2,2v148.3h30.6V7.3C267.8,6.2,266.9,5.3,265.8,5.3z"/>
	</g>
	<g>
		<g>
			<path fill="#DBDFE0" d="M101.4,275.4l15.9,21.4c0.6,0.9,1.9,1,2.7,0.4l119-88.5l-18.3-24.6l-119,88.5
				C101,273.3,100.8,274.5,101.4,275.4z"/>
		</g>
		<g>
			<path fill="#DBDFE0" d="M403.5,275.4l-15.9,21.4c-0.6,0.9-1.9,1-2.7,0.4l-119-88.5l18.3-24.6l119,88.5
				C403.9,273.3,404.1,274.5,403.5,275.4z"/>
		</g>
	</g>
	<g>
		<circle fill="#F1786B" cx="252.5" cy="181.2" r="39.3"/>
	</g>
	<g>
		<circle fill="#EFF3F5" cx="252.5" cy="181.2" r="17.4"/>
	</g>
	<g>
		<g>
			<rect x="87.1" y="321.1" fill="#52AFA8" width="12" height="30.3"/>
		</g>
		<g>
			<path fill="#5AC8AE" d="M117,506.7H69.2l7.2-150c0.4-5.9,7.8-10.5,16.8-10.5h0c8.9,0,16.4,4.6,16.8,10.5L117,506.7z"/>
		</g>
		<g>
			<path fill="#DBDFE0" d="M101.2,201.7H85c-0.7,0-1.2,0.5-1.2,1.2v90.2h18.6v-90.2C102.4,202.2,101.9,201.7,101.2,201.7z"/>
		</g>
		<g>
			<path fill="#DBDFE0" d="M179.5,372.3l8.6-13.8c0.3-0.6,0.2-1.3-0.4-1.6L111.3,309l-9.9,15.8l76.5,47.9
				C178.4,373,179.1,372.9,179.5,372.3z"/>
		</g>
		<g>
			<path fill="#DBDFE0" d="M2.4,366l9.7,13c0.4,0.5,1.1,0.6,1.7,0.2l72.4-53.8l-11.1-15L2.7,364.3C2.1,364.7,2,365.4,2.4,366z"/>
		</g>
		<g>
			<circle fill="#F1786B" cx="93.1" cy="308.7" r="23.9"/>
		</g>
		<g>
			<circle fill="#EFF3F5" cx="93.1" cy="308.7" r="10.6"/>
		</g>
	</g>
	<g>
		<g>
			<rect x="408.7" y="321.1" fill="#52AFA8" width="12" height="30.3"/>
		</g>
		<g>
			<path fill="#5AC8AE" d="M438.6,506.7h-47.9l7.2-150c0.4-5.9,7.8-10.5,16.8-10.5h0c8.9,0,16.4,4.6,16.8,10.5L438.6,506.7z"/>
		</g>
		<g>
			<path fill="#DBDFE0" d="M422.8,201.7h-16.3c-0.7,0-1.2,0.5-1.2,1.2v90.2H424v-90.2C424,202.2,423.4,201.7,422.8,201.7z"/>
		</g>
		<g>
			<path fill="#DBDFE0" d="M501,372.3l8.6-13.8c0.3-0.6,0.2-1.3-0.4-1.6L432.8,309l-9.9,15.8l76.5,47.9
				C499.9,373,500.7,372.9,501,372.3z"/>
		</g>
		<g>
			<path fill="#DBDFE0" d="M324,366l9.7,13c0.4,0.5,1.1,0.6,1.7,0.2l72.4-53.8l-11.1-15l-72.4,53.8C323.7,364.7,323.6,365.4,324,366
				z"/>
		</g>
		<g>
			<circle fill="#F1786B" cx="414.7" cy="308.7" r="23.9"/>
		</g>
		<g>
			<circle fill="#EFF3F5" cx="414.7" cy="308.7" r="10.6"/>
		</g>
	</g>
</g>
</svg>
