<?xml version="1.0" encoding="utf-8"?>
<!-- Generator: Adobe Illustrator 18.0.0, SVG Export Plug-In . SVG Version: 6.00 Build 0)  -->
<!DOCTYPE svg PUBLIC "-//W3C//DTD SVG 1.1//EN" "http://www.w3.org/Graphics/SVG/1.1/DTD/svg11.dtd">
<svg version="1.1" id="Layer_1" xmlns="http://www.w3.org/2000/svg" xmlns:xlink="http://www.w3.org/1999/xlink" x="0px" y="0px"
	 viewBox="0 0 512 512" enable-background="new 0 0 512 512" xml:space="preserve">
<g>
	<g>
		<g>
			<rect x="485.4" y="43.7" fill="#EFF3F5" width="10.4" height="396.1"/>
		</g>
	</g>
	<g>
		<rect x="213.6" y="155.1" fill="#788D9A" width="69.4" height="311.5"/>
	</g>
	<g>
		<path fill="#41B3E2" d="M295,466.6h-93.3c-24,0-43.4,19.4-43.4,43.4h180.1C338.4,486,319,466.6,295,466.6z"/>
	</g>
	<g>
		<path fill="#5CCFF2" d="M201.7,473H295c21.8,0,39.8,16.1,42.9,37h0.5c0-24-19.4-43.4-43.4-43.4h-93.3c-24,0-43.4,19.4-43.4,43.4
			h0.5C161.9,489.1,179.9,473,201.7,473z"/>
	</g>
	<g>
		<path fill="#445C6C" d="M458.6,19L92.5,158.8l19,49.7L477.6,68.7c13.7-5.2,20.6-20.6,15.4-34.3l0,0
			C487.7,20.7,472.3,13.8,458.6,19z"/>
	</g>
	<g>
		<path fill="#788D9A" d="M55.7,109l-43.1,16.4c-8.5,3.3-12.8,12.8-9.6,21.4l37.4,98c0.6,1.6,1.5,3.1,2.6,4.5l33.8,41.8
			c4.5,5.6,12.1,7.6,18.8,5.1l27.5-10.5c8.5-3.3,12.8-12.8,9.6-21.4L77.1,118.5C73.8,110,64.3,105.7,55.7,109z"/>
	</g>
	<g>
		<path fill="#8FA1AA" d="M16.5,134.5L62.4,117c4.9-1.9,10.1-1.3,14.4,0.9c-3.5-8.1-12.7-12.1-21.1-8.9l-43.1,16.4
			c-8.5,3.3-12.8,12.8-9.6,21.4l2.2,5.8C4.6,144.9,8.9,137.4,16.5,134.5z"/>
	</g>
	<g>
		<path fill="#445C6C" d="M213.6,200.4c10.5,5,22.3,7.9,34.7,7.9s24.2-2.9,34.7-7.9v-45.2h-69.4V200.4z"/>
	</g>
	<g>
		<circle fill="#F1786B" cx="248.4" cy="127.7" r="58.8"/>
	</g>
	<g>
		<circle fill="#FBD984" cx="248.4" cy="127.7" r="31.4"/>
	</g>
	<g>
		<circle fill="#DBDFE0" cx="468.3" cy="43.7" r="41.7"/>
	</g>
	<g>
		<circle fill="#41B3E2" cx="468.3" cy="43.7" r="22.3"/>
	</g>
</g>
</svg>
