<?xml version="1.0" encoding="utf-8"?>
<!-- Generator: Adobe Illustrator 18.0.0, SVG Export Plug-In . SVG Version: 6.00 Build 0)  -->
<!DOCTYPE svg PUBLIC "-//W3C//DTD SVG 1.1//EN" "http://www.w3.org/Graphics/SVG/1.1/DTD/svg11.dtd">
<svg version="1.1" id="Layer_1" xmlns="http://www.w3.org/2000/svg" xmlns:xlink="http://www.w3.org/1999/xlink" x="0px" y="0px"
	 viewBox="0 0 512 512" enable-background="new 0 0 512 512" xml:space="preserve">
<g>
	<g>
		<circle fill="#FBD984" cx="256" cy="256" r="118.2"/>
	</g>
	<g>
		<polygon fill="#41B3E2" points="270.4,116.3 256,2 241.6,116.3 		"/>
	</g>
	<g>
		<polygon fill="#41B3E2" points="198.6,127.8 129,36 173.6,142.2 		"/>
	</g>
	<g>
		<polygon fill="#41B3E2" points="142.2,173.6 36,129 127.8,198.6 		"/>
	</g>
	<g>
		<polygon fill="#41B3E2" points="116.3,241.6 2,256 116.3,270.4 		"/>
	</g>
	<g>
		<polygon fill="#41B3E2" points="127.8,313.4 36,383 142.2,338.4 		"/>
	</g>
	<g>
		<polygon fill="#41B3E2" points="173.6,369.8 129,476 198.6,384.2 		"/>
	</g>
	<g>
		<polygon fill="#41B3E2" points="241.6,395.7 256,510 270.4,395.7 		"/>
	</g>
	<g>
		<polygon fill="#41B3E2" points="313.4,384.2 383,476 338.4,369.8 		"/>
	</g>
	<g>
		<polygon fill="#41B3E2" points="369.8,338.4 476,383 384.2,313.4 		"/>
	</g>
	<g>
		<polygon fill="#41B3E2" points="395.7,270.4 510,256 395.7,241.6 		"/>
	</g>
	<g>
		<polygon fill="#41B3E2" points="384.2,198.6 476,129 369.8,173.6 		"/>
	</g>
	<g>
		<polygon fill="#41B3E2" points="338.4,142.2 383,36 313.4,127.8 		"/>
	</g>
	<g>
		
			<ellipse transform="matrix(0.7071 -0.7071 0.7071 0.7071 -93.597 224.7678)" fill="#FFE3A4" cx="224.5" cy="225.4" rx="69.4" ry="50.5"/>
	</g>
</g>
</svg>
