<?xml version="1.0" encoding="utf-8"?>
<!-- Generator: Adobe Illustrator 18.0.0, SVG Export Plug-In . SVG Version: 6.00 Build 0)  -->
<!DOCTYPE svg PUBLIC "-//W3C//DTD SVG 1.1//EN" "http://www.w3.org/Graphics/SVG/1.1/DTD/svg11.dtd">
<svg version="1.1" id="Layer_1" xmlns="http://www.w3.org/2000/svg" xmlns:xlink="http://www.w3.org/1999/xlink" x="0px" y="0px"
	 viewBox="0 0 512 512" enable-background="new 0 0 512 512" xml:space="preserve">
<g>
	<g>
		<path fill="#5AC8AE" d="M2,507.7l6-31.5c33.8,6.5,68.6-5.8,90.9-32.1l10.8-12.7l24.4,20.7l-10.8,12.7C93.6,500,47.1,516.4,2,507.7
			z"/>
	</g>
	<g>
		<g>
			<polygon fill="#F1786B" points="140.4,457.5 103.3,426 124.5,400.9 161.6,432.4 			"/>
		</g>
	</g>
	<g>
		<polygon fill="#F1786B" points="239.9,109 189.8,168.3 182.8,293.8 257.3,357.1 379.6,329.7 429.7,270.4 		"/>
	</g>
	<g>
		<polygon fill="#F1786B" points="180.3,448.3 257.3,357.1 182.8,293.8 105.8,385 		"/>
	</g>
	<g>
		<path fill="#D45947" d="M437.6,277L232.1,102.3c-3.4-2.9-3.8-8-0.9-11.4l22.5-26.6c2.9-3.4,8-3.8,11.4-0.9L470.6,238
			c3.4,2.9,3.8,8,0.9,11.4L449,276.1C446.1,279.5,441,279.9,437.6,277z"/>
	</g>
	<g>
		<g>
			<g>
				<path fill="#D45947" d="M244.9,378l-80.5-68.5c-1.7-1.4-1.9-4-0.5-5.6l1.7-2.1c1.4-1.7,3.9-1.9,5.6-0.5l80.5,68.5
					c1.7,1.4,1.9,4,0.5,5.6l-1.7,2.1C249.1,379.2,246.6,379.4,244.9,378z"/>
			</g>
		</g>
		<g>
			<g>
				<path fill="#D45947" d="M231.6,393.7l-80.5-68.5c-1.7-1.4-1.9-4-0.5-5.6l1.7-2.1c1.4-1.7,3.9-1.9,5.6-0.5l80.5,68.5
					c1.7,1.4,1.9,4,0.5,5.6l-1.7,2.1C235.8,394.9,233.3,395.1,231.6,393.7z"/>
			</g>
		</g>
		<g>
			<g>
				<path fill="#D45947" d="M218.4,409.4l-80.5-68.5c-1.7-1.4-1.9-4-0.5-5.6l1.7-2.1c1.4-1.7,3.9-1.9,5.6-0.5l80.5,68.5
					c1.7,1.4,1.9,4,0.5,5.6l-1.7,2.1C222.6,410.6,220,410.8,218.4,409.4z"/>
			</g>
		</g>
		<g>
			<g>
				<path fill="#D45947" d="M205.1,425.1l-80.5-68.5c-1.7-1.4-1.9-4-0.5-5.6l1.7-2.1c1.4-1.7,3.9-1.9,5.6-0.5l80.5,68.5
					c1.7,1.4,1.9,4,0.5,5.6l-1.7,2.1C209.3,426.3,206.8,426.5,205.1,425.1z"/>
			</g>
		</g>
		<g>
			<g>
				<path fill="#D45947" d="M191.8,440.8l-80.5-68.5c-1.7-1.4-1.9-4-0.5-5.6l1.7-2.1c1.4-1.7,3.9-1.9,5.6-0.5l80.5,68.5
					c1.7,1.4,1.9,4,0.5,5.6l-1.7,2.1C196,442,193.5,442.2,191.8,440.8z"/>
			</g>
		</g>
	</g>
	<g>
		<g>
			<path fill="#445C6C" d="M287.5,273.5c-14,1.2-26.2-9.3-27.4-23.3c-1.2-14,9.2-26.3,23.2-27.5s26.2,9.3,27.4,23.3
				C311.9,260.1,301.5,272.4,287.5,273.5z"/>
		</g>
		<g>
			<g>
				<path fill="#FFFFFF" d="M287.2,269.2c10.8-0.9,18.9-9.9,19.2-20.6l-41.5,3.4C266.9,262.5,276.4,270.1,287.2,269.2z"/>
			</g>
			<g>
				<path fill="#FFFFFF" d="M283.7,227.1c-10.8,0.9-18.9,9.9-19.2,20.6l41.5-3.4C304,233.8,294.5,226.2,283.7,227.1z"/>
			</g>
		</g>
	</g>
	<g>
		<g>
			<g>
				<g>
					<path fill="#EFF3F5" d="M399.1,12.4l-4.9-4.1c-4-3.4-9.8-3.1-13,0.7L306,98.1l19.3,16.4l75.3-89.1
						C403.7,21.6,403.1,15.8,399.1,12.4z"/>
				</g>
			</g>
			<g>
				<g>
					<path fill="#788D9A" d="M382.2,47l20.4-24.2c4.5-5.3,3.9-13.3-1.5-17.9s-13.3-3.9-17.8,1.5L363,30.7L382.2,47z"/>
				</g>
			</g>
		</g>
		<g>
			<g>
				<g>
					<path fill="#EFF3F5" d="M504.1,100.3l-4.9-4.1c-4-3.4-9.8-3-13,0.8l-75.9,89.9l19.3,16.4l75.9-89.9
						C508.7,109.5,508.1,103.7,504.1,100.3z"/>
				</g>
			</g>
			<g>
				<g>
					<path fill="#788D9A" d="M486.6,135.7l20.4-24.2c4.5-5.3,3.9-13.3-1.5-17.9c-5.3-4.5-13.3-3.9-17.8,1.5l-20.4,24.2L486.6,135.7z
						"/>
				</g>
			</g>
		</g>
	</g>
</g>
</svg>
