<?xml version="1.0" encoding="utf-8"?>
<!-- Generator: Adobe Illustrator 18.0.0, SVG Export Plug-In . SVG Version: 6.00 Build 0)  -->
<!DOCTYPE svg PUBLIC "-//W3C//DTD SVG 1.1//EN" "http://www.w3.org/Graphics/SVG/1.1/DTD/svg11.dtd">
<svg version="1.1" id="Layer_1" xmlns="http://www.w3.org/2000/svg" xmlns:xlink="http://www.w3.org/1999/xlink" x="0px" y="0px"
	 viewBox="0 0 512 512" enable-background="new 0 0 512 512" xml:space="preserve">
<g>
	<g>
		<rect x="2" y="2" fill="none" width="508" height="508"/>
	</g>
	<g>
		<rect x="2" y="487.5" fill="#788D9A" width="508" height="22.5"/>
	</g>
	<g>
		<path fill="#EFF3F5" d="M348.4,165.7c-8.7-36.6-41.3-62.4-79-62.4h-26.8c-37.6,0-70.3,25.8-79,62.4L82.1,510h347.8L348.4,165.7z"
			/>
	</g>
	<g>
		
			<rect x="248.3" y="-37.3" transform="matrix(0.8012 0.5984 -0.5984 0.8012 165.848 -114.9913)" fill="#788D9A" width="15.5" height="458.8"/>
	</g>
	<g>
		
			<rect x="248.3" y="-37.3" transform="matrix(-0.5984 0.8012 -0.8012 -0.5984 563.114 101.9723)" fill="#788D9A" width="15.5" height="458.8"/>
	</g>
	<g>
		<g>
			
				<rect x="347.1" y="14.9" transform="matrix(0.8012 0.5984 -0.5984 0.8012 130.2557 -206.7113)" fill="#FBD984" width="58.2" height="155.5"/>
		</g>
		<g>
			
				<rect x="106.6" y="213.8" transform="matrix(-0.8012 -0.5984 0.5984 -0.8012 70.0452 606.3785)" fill="#FBD984" width="58.2" height="155.5"/>
		</g>
		<g>
			
				<rect x="277.7" y="283.3" transform="matrix(-0.8012 -0.5984 0.5984 -0.8012 453.2815 775.3536)" fill="#FBD984" width="155.5" height="58.2"/>
		</g>
		<g>
			
				<rect x="78.8" y="42.7" transform="matrix(-0.8012 -0.5984 0.5984 -0.8012 239.0132 223.131)" fill="#FBD984" width="155.5" height="58.2"/>
		</g>
	</g>
	<g>
		<path fill="#445C6C" d="M256,419.1c-21.2,0-38.3,17.2-38.3,38.3V510h76.7v-52.6C294.3,436.3,277.2,419.1,256,419.1z"/>
	</g>
	<g>
		<path fill="#445C6C" d="M256,312.4c-8.7,0-15.8,7.1-15.8,15.8v37.8h31.5v-37.8C271.8,319.4,264.7,312.4,256,312.4z"/>
	</g>
	<g>
		<path fill="#2E4551" d="M256,419.1c-21.2,0-38.3,17.2-38.3,38.3v16.7c0-21.2,17.2-38.3,38.3-38.3s38.3,17.2,38.3,38.3v-16.7
			C294.3,436.3,277.2,419.1,256,419.1z"/>
	</g>
	<g>
		<path fill="#2E4551" d="M256,312.4c-8.7,0-15.7,7.1-15.7,15.8v16.7c0-8.7,7-15.8,15.7-15.8c8.7,0,15.8,7.1,15.8,15.8v-16.7
			C271.8,319.4,264.7,312.4,256,312.4z"/>
	</g>
	<g>
		<circle fill="#F1786B" cx="256" cy="192.1" r="34.5"/>
	</g>
	<g>
		<circle fill="#445C6C" cx="256" cy="192.1" r="19.2"/>
	</g>
</g>
</svg>
