<?xml version="1.0" encoding="utf-8"?>
<!-- Generator: Adobe Illustrator 18.0.0, SVG Export Plug-In . SVG Version: 6.00 Build 0)  -->
<!DOCTYPE svg PUBLIC "-//W3C//DTD SVG 1.1//EN" "http://www.w3.org/Graphics/SVG/1.1/DTD/svg11.dtd">
<svg version="1.1" id="Layer_1" xmlns="http://www.w3.org/2000/svg" xmlns:xlink="http://www.w3.org/1999/xlink" x="0px" y="0px"
	 viewBox="0 0 512 512" enable-background="new 0 0 512 512" xml:space="preserve">
<g>
	<g>
		<rect x="2" y="444.9" fill="#E39A61" width="508" height="65.1"/>
	</g>
	<g>
		<rect x="2" y="444.9" fill="#F0B972" width="508" height="16.2"/>
	</g>
	<g>
		<g>
			<path fill="#788D9A" d="M62.6,444.9V49.6c0-10,8.1-18.1,18.1-18.1h350.6c10,0,18.1,8.1,18.1,18.1v395.3h29.5V49.6
				c0-26.3-21.4-47.6-47.6-47.6H80.7C54.4,2,33.1,23.4,33.1,49.6v395.3H62.6z"/>
		</g>
	</g>
	<g>
		<path fill="#92A4AD" d="M431.3,2H80.7C54.4,2,33.1,23.4,33.1,49.6v5.9c0-26.3,21.4-47.6,47.6-47.6h350.6
			c26.3,0,47.6,21.4,47.6,47.6v-5.9C478.9,23.4,457.6,2,431.3,2z"/>
	</g>
	<g>
		<g>
			<rect x="112.1" y="31.5" fill="#445C6C" width="14.8" height="299"/>
		</g>
	</g>
	<g>
		<circle fill="#F1786B" cx="119.5" cy="363.9" r="42.3"/>
	</g>
	<g>
		<g>
			<rect x="202.1" y="31.5" fill="#445C6C" width="14.8" height="299"/>
		</g>
	</g>
	<g>
		<circle fill="#F1786B" cx="209.5" cy="363.9" r="42.3"/>
	</g>
	<g>
		<g>
			<rect x="292.1" y="31.5" fill="#445C6C" width="14.8" height="299"/>
		</g>
	</g>
	<g>
		<circle fill="#F1786B" cx="299.5" cy="363.9" r="42.3"/>
	</g>
	<g>
		<g>
			<polygon fill="#445C6C" points="397.7,31.5 382.5,31.5 452.8,323.8 467.1,320.3 			"/>
		</g>
	</g>
	<g>
		<circle fill="#F1786B" cx="467.7" cy="354.5" r="42.3"/>
	</g>
	<g>
		<path fill="#FC938B" d="M119.5,328.4c22.2,0,40.2,17.2,41.9,38.9c0.1-1.1,0.3-2.2,0.3-3.4c0-23.3-18.9-42.3-42.3-42.3
			c-23.3,0-42.3,18.9-42.3,42.3c0,1.2,0.2,2.2,0.3,3.4C79.3,345.6,97.3,328.4,119.5,328.4z"/>
	</g>
	<g>
		<path fill="#FC938B" d="M209.5,328.4c22.2,0,40.2,17.2,41.9,38.9c0.1-1.1,0.3-2.2,0.3-3.4c0-23.3-18.9-42.3-42.3-42.3
			s-42.3,18.9-42.3,42.3c0,1.2,0.2,2.2,0.3,3.4C169.3,345.6,187.3,328.4,209.5,328.4z"/>
	</g>
	<g>
		<path fill="#FC938B" d="M299.5,328.4c22.2,0,40.2,17.2,41.9,38.9c0.1-1.1,0.3-2.2,0.3-3.4c0-23.3-18.9-42.3-42.3-42.3
			c-23.3,0-42.3,18.9-42.3,42.3c0,1.2,0.2,2.2,0.3,3.4C259.3,345.6,277.3,328.4,299.5,328.4z"/>
	</g>
	<g>
		<path fill="#FC938B" d="M457.9,320.2c22.7-5.4,45.5,8.5,51,31.2c0.5,2.1,0.7,4.2,0.9,6.3c0.3-4.3,0.2-8.6-0.9-13
			c-5.5-22.7-28.3-36.7-51-31.2c-20.6,4.9-33.8,24.2-32.1,44.7C427.1,340.3,439.6,324.6,457.9,320.2z"/>
	</g>
</g>
</svg>
