<?xml version="1.0" encoding="utf-8"?>
<!-- Generator: Adobe Illustrator 18.0.0, SVG Export Plug-In . SVG Version: 6.00 Build 0)  -->
<!DOCTYPE svg PUBLIC "-//W3C//DTD SVG 1.1//EN" "http://www.w3.org/Graphics/SVG/1.1/DTD/svg11.dtd">
<svg version="1.1" id="Layer_1" xmlns="http://www.w3.org/2000/svg" xmlns:xlink="http://www.w3.org/1999/xlink" x="0px" y="0px"
	 viewBox="0 0 512 512" enable-background="new 0 0 512 512" xml:space="preserve">
<g>
	<g>
		<path fill="#41B3E2" d="M439.6,98.9H26.9C13.1,98.9,2,110.1,2,123.8v264.4c0,13.7,11.1,24.9,24.9,24.9h412.8
			c13.7,0,24.9-11.1,24.9-24.9V123.8C464.5,110.1,453.4,98.9,439.6,98.9z"/>
	</g>
	<g>
		<rect x="32.4" y="129.3" fill="#EFF3F5" width="401.7" height="253.4"/>
	</g>
	<g>
		<rect x="464.5" y="196.3" fill="#445C6C" width="45.5" height="119.4"/>
	</g>
	<g>
		<g>
			<path fill="#D45947" d="M174.7,232.3h-15.1c-4.5,0-8.1,3.6-8.1,8.1v31.2c0,4.5,3.6,8.1,8.1,8.1h15.1V232.3z"/>
		</g>
		<g>
			<path fill="#F1786B" d="M238.6,185.9c-38.7,0-70.1,31.4-70.1,70.1c0,38.7,31.4,70.1,70.1,70.1h43V185.9H238.6z"/>
		</g>
		<g>
			<path fill="#D45947" d="M291.8,176.2c-5.6,0-10.1,4.5-10.1,10.1v139.4c0,5.6,4.5,10.1,10.1,10.1c5.6,0,10.1-4.5,10.1-10.1V186.3
				C301.9,180.7,297.4,176.2,291.8,176.2z"/>
		</g>
		<g>
			<g>
				<path fill="#FFFFFF" d="M359.5,201.1h-57.6v29.4h57.6c8.1,0,14.7-6.6,14.7-14.7C374.2,207.7,367.7,201.1,359.5,201.1z"/>
			</g>
			<g>
				<path fill="#FFFFFF" d="M359.5,281.5h-57.6v29.4h57.6c8.1,0,14.7-6.6,14.7-14.7C374.2,288.1,367.7,281.5,359.5,281.5z"/>
			</g>
		</g>
		<g>
			<circle fill="#D45947" cx="228.4" cy="256" r="35.9"/>
		</g>
		<g>
			<rect x="92.3" y="244.9" fill="#788D9A" width="59.3" height="22.3"/>
		</g>
	</g>
</g>
</svg>
