<?xml version="1.0" encoding="utf-8"?>
<!-- Generator: Adobe Illustrator 18.0.0, SVG Export Plug-In . SVG Version: 6.00 Build 0)  -->
<!DOCTYPE svg PUBLIC "-//W3C//DTD SVG 1.1//EN" "http://www.w3.org/Graphics/SVG/1.1/DTD/svg11.dtd">
<svg version="1.1" id="Layer_1" xmlns="http://www.w3.org/2000/svg" xmlns:xlink="http://www.w3.org/1999/xlink" x="0px" y="0px"
	 viewBox="0 0 512 512" enable-background="new 0 0 512 512" xml:space="preserve">
<g>
	<g>
		<g>
			<rect x="235" y="260.5" fill="#5AC8AE" width="21.5" height="142.5"/>
		</g>
	</g>
	<g>
		<g>
			<g>
				<path fill="#F1786B" d="M245.8,116.8c21.8,0,39.5-53.5,39.5-75.3S267.6,2,245.8,2c-21.8,0-39.5,17.7-39.5,39.5
					S224,116.8,245.8,116.8z"/>
			</g>
		</g>
		<g>
			<g>
				<path fill="#F1786B" d="M245.8,157.5c-21.8,0-39.5,53.5-39.5,75.3s17.7,39.5,39.5,39.5c21.8,0,39.5-17.7,39.5-39.5
					S267.6,157.5,245.8,157.5z"/>
			</g>
		</g>
		<g>
			<g>
				<path fill="#F1786B" d="M143.2,123.5c18.9,10.9,74.1,22.4,85,3.5c10.9-18.9-26.6-61-45.5-71.9c-18.9-10.9-43.1-4.4-54,14.5
					C117.8,88.5,124.3,112.6,143.2,123.5z"/>
			</g>
		</g>
		<g>
			<g>
				<path fill="#F1786B" d="M348.4,150.8c-18.9-10.9-74.1-22.4-85-3.5c-10.9,18.9,26.6,61,45.5,71.9c18.9,10.9,43.1,4.4,54-14.5
					C373.8,185.9,367.3,161.7,348.4,150.8z"/>
			</g>
		</g>
		<g>
			<g>
				<path fill="#F1786B" d="M228.2,147.3c-10.9-18.9-66.1-7.4-85,3.5c-18.9,10.9-25.4,35.1-14.5,54c10.9,18.9,35.1,25.4,54,14.5
					C201.6,208.3,239.1,166.2,228.2,147.3z"/>
			</g>
		</g>
		<g>
			<g>
				<path fill="#F1786B" d="M263.4,127c10.9,18.9,66.1,7.4,85-3.5c18.9-10.9,25.4-35.1,14.5-54c-10.9-18.9-35.1-25.4-54-14.5
					C290,66,252.5,108.1,263.4,127z"/>
			</g>
		</g>
	</g>
	<g>
		<g>
			<circle fill="#FBD984" cx="245.8" cy="137.2" r="45.7"/>
		</g>
	</g>
	<g>
		<g>
			<path fill="#52AFA8" d="M261.3,403h-31c-3.4,0-6.1,2.7-6.1,6.1v11.8h43.1v-11.8C267.4,405.7,264.6,403,261.3,403z"/>
		</g>
	</g>
	<g>
		<g>
			<path fill="#5AC8AE" d="M271.5,420.9h-51.4c-6.1,0-11.1,5-11.1,11.1v35.4h73.7V432C282.6,425.9,277.7,420.9,271.5,420.9z"/>
		</g>
	</g>
	<g>
		<g>
			<rect x="202.4" y="467.4" fill="#52AFA8" width="86.8" height="6.3"/>
		</g>
	</g>
	<g>
		<g>
			<g>
				<path fill="#445C6C" d="M216.9,504c0,3.3,2.7,6,6,6c3.3,0,6-2.7,6-6v-30.3h-11.9V504z"/>
			</g>
		</g>
		<g>
			<g>
				<path fill="#445C6C" d="M262.7,473.8V504c0,3.3,2.7,6,6,6c3.3,0,6-2.7,6-6v-30.3H262.7z"/>
			</g>
		</g>
	</g>
	<g>
		<g>
			<path fill="#5AC8AE" d="M127.7,266.6L127.7,266.6L127.7,266.6c-13.7,66.3,27.1,109.4,91.9,99.3l-70.9-78.3l78.3,70.9
				C237.1,293.8,194,252.9,127.7,266.6z"/>
		</g>
	</g>
	<g>
		<g>
			<path fill="#5AC8AE" d="M385.4,252.6L385.4,252.6L385.4,252.6c16.7,80.7-33,133.2-111.8,120.8l86.3-95.3l-95.3,86.3
				C252.1,285.6,304.7,235.9,385.4,252.6z"/>
		</g>
	</g>
</g>
</svg>
