<?xml version="1.0" encoding="utf-8"?>
<!-- Generator: Adobe Illustrator 18.0.0, SVG Export Plug-In . SVG Version: 6.00 Build 0)  -->
<!DOCTYPE svg PUBLIC "-//W3C//DTD SVG 1.1//EN" "http://www.w3.org/Graphics/SVG/1.1/DTD/svg11.dtd">
<svg version="1.1" id="Layer_1" xmlns="http://www.w3.org/2000/svg" xmlns:xlink="http://www.w3.org/1999/xlink" x="0px" y="0px"
	 viewBox="0 0 512 512" enable-background="new 0 0 512 512" xml:space="preserve">
<g>
	<g>
		<g>
			<g>
				<path fill="#F1786B" d="M132.1,40.3L115.9,2L99.2,41.6c6.2-1.6,12.8-2.5,19.5-2.5C123.3,39.1,127.7,39.6,132.1,40.3z"/>
			</g>
			<g>
				<path fill="#F1786B" d="M72.7,53.8L34.2,38.2L50.4,78C56.1,68.4,63.7,60.2,72.7,53.8z"/>
			</g>
			<g>
				<path fill="#F1786B" d="M40.3,105.3L2,121.5l39.6,16.7c-1.6-6.2-2.5-12.8-2.5-19.5C39.1,114.1,39.6,109.7,40.3,105.3z"/>
			</g>
			<g>
				<path fill="#F1786B" d="M53.8,164.7l-15.6,38.5L78,187C68.4,181.3,60.2,173.7,53.8,164.7z"/>
			</g>
			<g>
				<path fill="#F1786B" d="M105.3,197.1l16.2,38.3l16.7-39.6c-6.2,1.6-12.8,2.5-19.5,2.5C114.1,198.3,109.7,197.8,105.3,197.1z"/>
			</g>
			<g>
				<path fill="#F1786B" d="M164.7,183.6l38.5,15.6L187,159.4C181.3,168.9,173.7,177.2,164.7,183.6z"/>
			</g>
			<g>
				<path fill="#F1786B" d="M197.1,132.1l38.3-16.2l-39.6-16.7c1.6,6.3,2.5,12.8,2.5,19.5C198.3,123.3,197.8,127.7,197.1,132.1z"/>
			</g>
			<g>
				<path fill="#F1786B" d="M183.6,72.7l15.6-38.5l-39.8,16.2C168.9,56.1,177.2,63.7,183.6,72.7z"/>
			</g>
		</g>
		<g>
			<path fill="#FBD984" d="M177.9,61.6c62.7,84.5-31.8,179-116.3,116.3c-0.8-0.6-1.6-1.4-2.2-2.2C-3.3,91.3,91.3-3.3,175.7,59.4
				C176.6,60.1,177.3,60.8,177.9,61.6z"/>
		</g>
	</g>
	<g>
		<g>
			<g>
				<g>
					<path fill="#445C6C" d="M361.3,510H205.8c12.6-12.1,38.4-20.9,69.1-22.2V361.3l17.4-1.3v127.7
						C322.9,489.1,348.7,497.9,361.3,510z"/>
				</g>
			</g>
			<g>
				<g>
					<polygon fill="#EFF3F5" points="447.3,349.1 13.4,379.8 254.6,98.9 510,80.8 					"/>
				</g>
				<g>
					<g>
						<polygon fill="#2E89AC" points="304,135.9 326.2,103 267.9,107.1 240.9,140.4 						"/>
					</g>
					<g>
						<polygon fill="#2E89AC" points="476.9,123.7 486.2,91.7 427.8,95.8 413.9,128.2 						"/>
					</g>
					<g>
						<polygon fill="#2E89AC" points="390.5,129.8 406.2,97.3 347.9,101.4 327.4,134.3 						"/>
					</g>
					<g>
						<polygon fill="#2E89AC" points="354.9,265 325.6,333 418.6,326.4 438,259.1 						"/>
					</g>
					<g>
						<polygon fill="#2E89AC" points="241,273 198.1,342 291.1,335.4 324.1,267.1 						"/>
					</g>
					<g>
						<polygon fill="#2E89AC" points="127.1,281.1 70.5,351 163.5,344.4 210.2,275.2 						"/>
					</g>
					<g>
						<polygon fill="#2E89AC" points="296,147.7 231.3,152.3 197.8,193.7 268.4,188.7 						"/>
					</g>
					<g>
						<polygon fill="#2E89AC" points="365.3,181.9 384.8,141.4 320.1,146 294.7,186.9 						"/>
					</g>
					<g>
						<polygon fill="#2E89AC" points="391.5,180 462.2,175 473.6,135.2 408.9,139.7 						"/>
					</g>
					<g>
						<polygon fill="#2E89AC" points="363.1,246.1 443.4,240.4 458,189.5 385.3,194.6 						"/>
					</g>
					<g>
						<polygon fill="#2E89AC" points="258.4,203.6 185.7,208.7 142.9,261.6 223.1,255.9 						"/>
					</g>
					<g>
						<polygon fill="#2E89AC" points="285.5,201.6 253,253.8 333.2,248.2 358.2,196.5 						"/>
					</g>
				</g>
			</g>
		</g>
	</g>
</g>
</svg>
