<?xml version="1.0" encoding="utf-8"?>
<!-- Generator: Adobe Illustrator 18.0.0, SVG Export Plug-In . SVG Version: 6.00 Build 0)  -->
<!DOCTYPE svg PUBLIC "-//W3C//DTD SVG 1.1//EN" "http://www.w3.org/Graphics/SVG/1.1/DTD/svg11.dtd">
<svg version="1.1" id="Layer_1" xmlns="http://www.w3.org/2000/svg" xmlns:xlink="http://www.w3.org/1999/xlink" x="0px" y="0px"
	 viewBox="0 0 512 512" enable-background="new 0 0 512 512" xml:space="preserve">
<g>
	<g>
		<g>
			<path fill="#DBDFE0" d="M53,422h-6.9C21.8,422,2,402.2,2,377.9V276.5c0-24.3,19.8-44.2,44.2-44.2h241.1
				c23.5,0,42.7-19.1,42.7-42.7S310.8,147,287.2,147H118.5C91.8,147,70,125.2,70,98.5c0-26.8,21.8-48.5,48.5-48.5h234.9v15.9H118.5
				c-18,0-32.7,14.7-32.7,32.7c0,18,14.7,32.7,32.7,32.7h168.7c32.3,0,58.6,26.3,58.6,58.6s-26.3,58.6-58.6,58.6H46.2
				c-15.6,0-28.3,12.7-28.3,28.3v101.3c0,15.6,12.7,28.3,28.3,28.3H53V422z"/>
		</g>
	</g>
	<g>
		<g>
			<path fill="#FDC77C" d="M82.7,507.4l0-185.7c0-1.4,1.1-2.5,2.5-2.5l422.2,0c1.4,0,2.5,1.1,2.5,2.5l0,185.7c0,1.4-1.1,2.5-2.5,2.5
				l-422.2,0C83.9,509.9,82.7,508.8,82.7,507.4z"/>
		</g>
	</g>
	<g>
		<path fill="#FBD984" d="M510,339.3v15.9c0-11.1-9-20.2-20.2-20.2h-387c-11.1,0-20.1,9-20.1,20.2v-15.9c0-11.1,9-20.2,20.1-20.2
			h387C501,319.1,510,328.2,510,339.3z"/>
	</g>
	<g>
		<rect x="421.5" y="366.5" fill="#445C6C" width="57.3" height="96"/>
	</g>
	<g>
		<rect x="427.9" y="372.9" fill="#DBDFE0" width="44.5" height="83.3"/>
	</g>
	<g>
		<rect x="427.9" y="372.9" fill="#EFF3F5" width="44.5" height="8"/>
	</g>
	<g>
		<rect x="427.9" y="411.6" fill="#B6C3C6" width="44.5" height="44.5"/>
	</g>
	<g>
		<path fill="#FFFFFF" d="M219.1,460.2c-65.1,48.3-137.9-24.5-89.6-89.6c0.5-0.7,1.1-1.2,1.7-1.7c65.1-48.3,137.9,24.5,89.6,89.6
			C220.4,459.1,219.8,459.7,219.1,460.2z"/>
	</g>
	<g>
		<path fill="#788D9A" d="M193.7,443.2c-7.7-10.5,4-22.2,14.5-14.5c0.1,0.1,0.3,0.2,0.4,0.4c7.7,10.5-4,22.2-14.5,14.5
			C194,443.5,193.8,443.4,193.7,443.2z"/>
	</g>
	<g>
		<path fill="#788D9A" d="M141.8,443.2c-7.7-10.5,4-22.2,14.5-14.5c0.1,0.1,0.3,0.2,0.4,0.4c7.7,10.5-4,22.2-14.5,14.5
			C142,443.5,141.9,443.4,141.8,443.2z"/>
	</g>
	<g>
		<rect x="169.7" y="377.7" fill="#788D9A" width="10.9" height="24.5"/>
	</g>
	<g>
		<path fill="#FFFFFF" d="M376.2,460.2c-65.1,48.3-137.9-24.5-89.6-89.6c0.5-0.7,1.1-1.2,1.7-1.7c65.1-48.3,137.9,24.5,89.6,89.6
			C377.4,459.1,376.8,459.7,376.2,460.2z"/>
	</g>
	<g>
		<path fill="#FFFFFF" d="M376.2,460.2c-65.1,48.3-137.9-24.5-89.6-89.6c0.5-0.7,1.1-1.2,1.7-1.7c65.1-48.3,137.9,24.5,89.6,89.6
			C377.4,459.1,376.8,459.7,376.2,460.2z"/>
	</g>
	<g>
		<path fill="#EFF3F5" d="M236.6,414.5c0,2-0.1,4-0.3,6c-2.9-31.1-29.1-55.4-61-55.4c-31.9,0-58.1,24.3-61,55.4c-0.2-2-0.3-4-0.3-6
			c0-33.9,27.5-61.4,61.4-61.4C209.1,353.2,236.6,380.7,236.6,414.5z"/>
	</g>
	<g>
		<path fill="#EFF3F5" d="M393.6,414.5c0,2-0.1,4-0.3,6c-2.9-31.1-29.1-55.4-61-55.4s-58.1,24.3-61,55.4c-0.2-2-0.3-4-0.3-6
			c0-33.9,27.5-61.4,61.4-61.4S393.6,380.7,393.6,414.5z"/>
	</g>
	<g>
		<path fill="#788D9A" d="M350.7,443.2c-7.7-10.5,4-22.2,14.5-14.5c0.1,0.1,0.3,0.2,0.4,0.4c7.7,10.5-4,22.2-14.5,14.5
			C351,443.5,350.9,443.4,350.7,443.2z"/>
	</g>
	<g>
		<path fill="#788D9A" d="M298.8,443.2c-7.7-10.5,4-22.2,14.5-14.5c0.1,0.1,0.3,0.2,0.4,0.4c7.7,10.5-4,22.2-14.5,14.5
			C299.1,443.5,298.9,443.4,298.8,443.2z"/>
	</g>
	<g>
		<rect x="326.8" y="377.7" fill="#788D9A" width="10.9" height="24.5"/>
	</g>
	<g>
		<rect x="65" y="392.9" fill="#445C6C" width="17.8" height="43.3"/>
	</g>
	<g>
		<rect x="75.6" y="392.9" fill="#354D5B" width="7.2" height="43.3"/>
	</g>
	<g>
		<rect x="50.7" y="399.9" fill="#788D9A" width="14.2" height="29.2"/>
	</g>
	<g>
		<g>
			<path fill="#EFF3F5" d="M509,36.8l-60.8,0V23.9l60.8,0c0.4,0,0.8,0.4,0.8,0.8V36C509.8,36.4,509.4,36.8,509,36.8z"/>
		</g>
		<g>
			<path fill="#EFF3F5" d="M509,91.8h-60.8V78.9l60.8,0c0.4,0,0.8,0.4,0.8,0.8V91C509.8,91.5,509.4,91.8,509,91.8z"/>
		</g>
		<g>
			<path fill="#788D9A" d="M509,36.8h-22.9V23.9H509c0.4,0,0.8,0.4,0.8,0.8V36C509.8,36.4,509.4,36.8,509,36.8z"/>
		</g>
		<g>
			<path fill="#788D9A" d="M509,91.8h-22.9V78.9H509c0.4,0,0.8,0.4,0.8,0.8V91C509.8,91.5,509.4,91.8,509,91.8z"/>
		</g>
		<g>
			<polygon fill="#F1786B" points="429.2,104 387.5,104 351.3,78.8 351.3,36.9 387.5,11.7 429.2,11.7 			"/>
		</g>
		<g>
			<rect x="420.6" y="11.7" fill="#BF453C" width="8.6" height="92.3"/>
		</g>
		<g>
			<rect x="429.2" y="2.1" fill="#D45947" width="19" height="111.5"/>
		</g>
		<g>
			<g>
				<path fill="#D45947" d="M412.8,83.2H402c-0.4,0-0.8-0.3-0.8-0.8l0-49.2c0-0.4,0.3-0.8,0.8-0.8h10.8c0.4,0,0.8,0.3,0.8,0.8v49.2
					C413.6,82.9,413.2,83.2,412.8,83.2z"/>
			</g>
			<g>
				<path fill="#D45947" d="M389.5,74.6h-10.8c-0.4,0-0.8-0.3-0.8-0.8V41.9c0-0.4,0.3-0.8,0.8-0.8h10.8c0.4,0,0.8,0.3,0.8,0.8v31.8
					C390.3,74.2,390,74.6,389.5,74.6z"/>
			</g>
		</g>
		<g>
			<g>
				<rect x="448.2" y="23.9" fill="#D0D4D6" width="9.7" height="12.9"/>
			</g>
			<g>
				<rect x="448.2" y="78.9" fill="#D0D4D6" width="9.7" height="12.9"/>
			</g>
		</g>
	</g>
	<g>
		<rect x="59.6" y="399.9" fill="#354D5B" width="5.3" height="29.2"/>
	</g>
</g>
</svg>
