<?xml version="1.0" encoding="utf-8"?>
<!-- Generator: Adobe Illustrator 18.0.0, SVG Export Plug-In . SVG Version: 6.00 Build 0)  -->
<!DOCTYPE svg PUBLIC "-//W3C//DTD SVG 1.1//EN" "http://www.w3.org/Graphics/SVG/1.1/DTD/svg11.dtd">
<svg version="1.1" id="Layer_1" xmlns="http://www.w3.org/2000/svg" xmlns:xlink="http://www.w3.org/1999/xlink" x="0px" y="0px"
	 viewBox="0 0 512 512" enable-background="new 0 0 512 512" xml:space="preserve">
<g>
	<g>
		<path fill="#41B3E2" d="M248.8,26c-17.7-18.6-43.4-1.7-43.4,28.7l28.9,222.4c23-22.5,37.6-73.9,46.3-148.2
			C286.4,79.8,268.7,46.9,248.8,26z"/>
	</g>
	<g>
		<path fill="#41B3E2" d="M2.9,455.6c-6.1,24.9,21.9,37.5,47.5,21.1l172-144c-31.4-7.3-82.5,8.1-149.9,40.7
			C28,395,9.8,427.6,2.9,455.6z"/>
	</g>
	<g>
		<path fill="#41B3E2" d="M493.5,439.4c24.5-7.5,21-38-6.2-51.6l-211.8-73.9c9.8,30.7,49.2,66.7,111.8,107.8
			C428.6,448.9,465.9,447.8,493.5,439.4z"/>
	</g>
	<g>
		<circle fill="#F1786B" cx="243.6" cy="308.2" r="55.1"/>
	</g>
	<g>
		<circle fill="#EFF3F5" cx="243.6" cy="308.2" r="26.4"/>
	</g>
	<g>
		<polygon fill="none" points="243.6,308.2 243.6,308.2 243.6,308.2 		"/>
	</g>
	<g>
		<polygon fill="none" points="243.6,308.2 243.6,308.2 243.6,308.2 		"/>
	</g>
	<g>
		<rect x="243.6" y="308.2" fill="none" width="0" height="0"/>
	</g>
	<g>
		<polygon fill="none" points="243.6,308.2 243.6,308.2 243.6,308.2 243.6,308.2 243.6,308.2 243.6,308.2 		"/>
	</g>
	<g>
		<polygon fill="none" points="243.6,308.2 243.6,308.2 243.6,308.2 		"/>
	</g>
	<g>
		<polygon fill="none" points="243.6,308.2 243.6,308.2 243.6,308.2 		"/>
	</g>
	<g>
		<rect x="243.6" y="308.2" fill="none" width="0" height="0"/>
	</g>
	<g>
		<polygon fill="none" points="243.6,308.2 243.6,308.2 243.6,308.2 		"/>
	</g>
	<g>
		<rect x="243.6" y="308.2" fill="none" width="0" height="0"/>
	</g>
	<g>
		<polygon fill="none" points="243.6,308.2 243.6,308.2 243.6,308.2 		"/>
	</g>
	<g>
		<path fill="#5AC8AE" d="M198.4,143.2l-56.6-19.7l11.1,23.1C96.4,178.4,58,238.9,58,308.2c0,11.1,1,22,2.9,32.6l30.7-5.5
			c-1.6-8.8-2.5-17.9-2.5-27.1c0-57.1,31.2-106.9,77.4-133.7l12.2,25.2L198.4,143.2z"/>
	</g>
	<g>
		<path fill="#FBD984" d="M428.9,302.2c-2.4-75.3-49.8-139.4-116.3-166.2L301,164.9c53.1,21.4,91.7,71.3,96.5,130.7l-23.8-5
			l32.7,50.2l50.2-32.7L428.9,302.2z"/>
	</g>
	<g>
		<path fill="#788D9A" d="M353.1,457.9l-18.4-25.2c-25.6,18.8-57,30-91.1,30c-26.8,0-51.9-7-73.9-19.1l17.1-21l-59.6,6.2l6.2,59.6
			l16.5-20.3c27.6,16.2,59.6,25.7,93.8,25.7C284.5,493.8,322.4,480.4,353.1,457.9z"/>
	</g>
</g>
</svg>
