<?xml version="1.0" encoding="utf-8"?>
<!-- Generator: Adobe Illustrator 18.0.0, SVG Export Plug-In . SVG Version: 6.00 Build 0)  -->
<!DOCTYPE svg PUBLIC "-//W3C//DTD SVG 1.1//EN" "http://www.w3.org/Graphics/SVG/1.1/DTD/svg11.dtd">
<svg version="1.1" id="Layer_1" xmlns="http://www.w3.org/2000/svg" xmlns:xlink="http://www.w3.org/1999/xlink" x="0px" y="0px"
	 viewBox="0 0 512 512" enable-background="new 0 0 512 512" xml:space="preserve">
<g>
	<g>
		<g>
			<rect x="455.7" y="261.8" fill="#41B3E2" width="9.2" height="181.4"/>
		</g>
	</g>
	<g>
		<g>
			<polygon fill="#41B3E2" points="51.8,480.4 51.8,326.2 92.8,326.2 92.8,480.4 102,480.4 102,317 42.6,317 42.6,480.4 			"/>
		</g>
	</g>
	<g>
		<path fill="#DBDFE0" d="M228.9,194.4c-27.4,0-49.6,23.2-49.6,51.8v244.4h99.2V246.1C278.5,217.6,256.3,194.4,228.9,194.4z"/>
	</g>
	<g>
		<rect x="2" y="476.8" fill="#FBD984" width="508" height="33.2"/>
	</g>
	<g>
		<g>
			<path fill="#788D9A" d="M58.3,309.9c-11.9,6.4-16.3,21.2-9.8,33.1s21.2,16.2,33.1,9.8L401,179.6l-23.3-42.9L58.3,309.9z"/>
		</g>
		<g>
			<path fill="#445C6C" d="M389.2,5.7c-4.5-4-11-4.8-16.3-1.9l-40.7,22.1c-5.3,2.9-8.2,8.8-7.2,14.7c4.8,30.4,15.2,62.8,38.4,105.6
				c29.5,54.4,69.6,106.9,98.3,127.4c4.3,3.1,10.1,3.3,14.7,0.7l26.2-14.2c4.7-2.5,7.7-7.4,7.4-12.7c-1.6-35.2-23.7-97.4-53.2-151.9
				C433.5,52.6,412,26.3,389.2,5.7z"/>
		</g>
	</g>
	<g>
		<circle fill="#F1786B" cx="72.3" cy="327.8" r="34.5"/>
	</g>
	<g>
		<circle fill="#F1786B" cx="373.5" cy="165.9" r="34.5"/>
	</g>
	<g>
		<circle fill="#F1786B" cx="228.9" cy="246.2" r="34.5"/>
	</g>
	<g>
		<circle fill="#EFF3F5" cx="72.3" cy="327.8" r="17.5"/>
	</g>
	<g>
		<rect x="422.4" y="443.3" fill="#5AC8AE" width="75.9" height="33.5"/>
	</g>
</g>
</svg>
