<?xml version="1.0" encoding="utf-8"?>
<!-- Generator: Adobe Illustrator 18.0.0, SVG Export Plug-In . SVG Version: 6.00 Build 0)  -->
<!DOCTYPE svg PUBLIC "-//W3C//DTD SVG 1.1//EN" "http://www.w3.org/Graphics/SVG/1.1/DTD/svg11.dtd">
<svg version="1.1" id="Layer_1" xmlns="http://www.w3.org/2000/svg" xmlns:xlink="http://www.w3.org/1999/xlink" x="0px" y="0px"
	 viewBox="0 0 512 512" enable-background="new 0 0 512 512" xml:space="preserve">
<g>
	<g>
		<rect x="1.7" y="159.5" fill="#41B3E2" width="473.6" height="193.1"/>
	</g>
	<g>
		<rect x="1.7" y="159.5" fill="#5BCCEF" width="473.6" height="10"/>
	</g>
	<g>
		<rect x="32.5" y="193.3" fill="#FFFFFF" width="412" height="125.3"/>
	</g>
	<g>
		<rect x="43.7" y="203.2" fill="#F1786B" width="45.8" height="105.7"/>
	</g>
	<g>
		<rect x="101" y="203.2" fill="#F1786B" width="45.8" height="105.7"/>
	</g>
	<g>
		<rect x="158.3" y="203.2" fill="#F1786B" width="45.8" height="105.7"/>
	</g>
	<g>
		<rect x="215.6" y="203.2" fill="#F1786B" width="45.8" height="105.7"/>
	</g>
	<g>
		<rect x="272.9" y="203.2" fill="#DBDFE0" width="45.8" height="105.7"/>
	</g>
	<g>
		<rect x="330.2" y="203.2" fill="#DBDFE0" width="45.8" height="105.7"/>
	</g>
	<g>
		<rect x="387.5" y="203.2" fill="#DBDFE0" width="45.8" height="105.7"/>
	</g>
	<g>
		<rect x="43.7" y="283.4" fill="#D45947" width="45.8" height="25.4"/>
	</g>
	<g>
		<rect x="101" y="283.4" fill="#D45947" width="45.8" height="25.4"/>
	</g>
	<g>
		<rect x="158.3" y="283.4" fill="#D45947" width="45.8" height="25.4"/>
	</g>
	<g>
		<rect x="215.6" y="283.4" fill="#D45947" width="45.8" height="25.4"/>
	</g>
	<g>
		<rect x="272.9" y="283.4" fill="#C2C4C4" width="45.8" height="25.4"/>
	</g>
	<g>
		<rect x="330.2" y="283.4" fill="#C2C4C4" width="45.8" height="25.4"/>
	</g>
	<g>
		<rect x="387.5" y="283.4" fill="#C2C4C4" width="45.8" height="25.4"/>
	</g>
	<g>
		<rect x="43.7" y="203.2" fill="#FF928A" width="45.8" height="25.4"/>
	</g>
	<g>
		<rect x="101" y="203.2" fill="#FF928A" width="45.8" height="25.4"/>
	</g>
	<g>
		<rect x="158.3" y="203.2" fill="#FF928A" width="45.8" height="25.4"/>
	</g>
	<g>
		<rect x="215.6" y="203.2" fill="#FF928A" width="45.8" height="25.4"/>
	</g>
	<g>
		<rect x="272.9" y="203.2" fill="#EFF3F5" width="45.8" height="25.4"/>
	</g>
	<g>
		<rect x="330.2" y="203.2" fill="#EFF3F5" width="45.8" height="25.4"/>
	</g>
	<g>
		<rect x="387.5" y="203.2" fill="#EFF3F5" width="45.8" height="25.4"/>
	</g>
	<g>
		<rect x="475.3" y="212.2" fill="#2E89AC" width="35" height="87.7"/>
	</g>
</g>
</svg>
