<?xml version="1.0" encoding="utf-8"?>
<!-- Generator: Adobe Illustrator 18.0.0, SVG Export Plug-In . SVG Version: 6.00 Build 0)  -->
<!DOCTYPE svg PUBLIC "-//W3C//DTD SVG 1.1//EN" "http://www.w3.org/Graphics/SVG/1.1/DTD/svg11.dtd">
<svg version="1.1" id="Layer_1" xmlns="http://www.w3.org/2000/svg" xmlns:xlink="http://www.w3.org/1999/xlink" x="0px" y="0px"
	 viewBox="0 0 512 512" enable-background="new 0 0 512 512" xml:space="preserve">
<g>
	<g>
		<path fill="#DBDFE0" d="M493,105.8H19c-9.4,0-17,7.6-17,17v169c0,9.4,7.6,17,17,17H493c9.4,0,17-7.6,17-17v-169
			C510,113.4,502.4,105.8,493,105.8z"/>
	</g>
	<g>
		<path fill="#EFEFEF" d="M493,105.8H19c-9.4,0-17,7.6-17,17v21c0-9.4,7.6-17,17-17H493c9.4,0,17,7.6,17,17v-21
			C510,113.4,502.4,105.8,493,105.8z"/>
	</g>
	<g>
		<rect x="32.5" y="248.3" fill="#445C6C" width="366.9" height="34.7"/>
	</g>
	<g>
		<circle fill="#5AC8AE" cx="446.5" cy="188.1" r="26.4"/>
	</g>
	<g>
		<g>
			<path fill="#DBDFE0" d="M61.2,335c-6.5,0-11.7,5.2-11.7,11.7v47.9c0,6.4,5.2,11.7,11.7,11.7c6.4,0,11.7-5.2,11.7-11.7v-47.9
				C72.9,340.2,67.6,335,61.2,335z"/>
		</g>
		<g>
			<path fill="#DBDFE0" d="M123.1,335c-6.5,0-11.7,5.2-11.7,11.7v47.9c0,6.4,5.2,11.7,11.7,11.7c6.4,0,11.7-5.2,11.7-11.7v-47.9
				C134.8,340.2,129.5,335,123.1,335z"/>
		</g>
		<g>
			<path fill="#DBDFE0" d="M185,335c-6.5,0-11.7,5.2-11.7,11.7v47.9c0,6.4,5.2,11.7,11.7,11.7c6.4,0,11.7-5.2,11.7-11.7v-47.9
				C196.7,340.2,191.4,335,185,335z"/>
		</g>
		<g>
			<path fill="#DBDFE0" d="M246.9,335c-6.5,0-11.7,5.2-11.7,11.7v47.9c0,6.4,5.2,11.7,11.7,11.7c6.4,0,11.7-5.2,11.7-11.7v-47.9
				C258.6,340.2,253.3,335,246.9,335z"/>
		</g>
		<g>
			<path fill="#DBDFE0" d="M308.8,335c-6.5,0-11.7,5.2-11.7,11.7v47.9c0,6.4,5.2,11.7,11.7,11.7c6.4,0,11.7-5.2,11.7-11.7v-47.9
				C320.5,340.2,315.2,335,308.8,335z"/>
		</g>
		<g>
			<path fill="#DBDFE0" d="M370.7,335c-6.5,0-11.7,5.2-11.7,11.7v47.9c0,6.4,5.2,11.7,11.7,11.7c6.4,0,11.7-5.2,11.7-11.7v-47.9
				C382.4,340.2,377.1,335,370.7,335z"/>
		</g>
	</g>
</g>
</svg>
