<?xml version="1.0" encoding="utf-8"?>
<!-- Generator: Adobe Illustrator 18.0.0, SVG Export Plug-In . SVG Version: 6.00 Build 0)  -->
<!DOCTYPE svg PUBLIC "-//W3C//DTD SVG 1.1//EN" "http://www.w3.org/Graphics/SVG/1.1/DTD/svg11.dtd">
<svg version="1.1" id="Layer_1" xmlns="http://www.w3.org/2000/svg" xmlns:xlink="http://www.w3.org/1999/xlink" x="0px" y="0px"
	 viewBox="0 0 512 512" enable-background="new 0 0 512 512" xml:space="preserve">
<g>
	<g>
		<path fill="#5AC8AE" d="M448.9,94.6h-427c-11,0-19.9,8.9-19.9,19.9v282.9c0,11,8.9,19.9,19.9,19.9h427c11,0,19.9-8.9,19.9-19.9
			V114.5C468.8,103.5,459.9,94.6,448.9,94.6z"/>
	</g>
	<g>
		<path fill="#445C6C" d="M497.2,186.9h-28.3v138.3h28.3c7.1,0,12.8-5.8,12.8-12.8V199.7C510,192.6,504.2,186.9,497.2,186.9z"/>
	</g>
	<g>
		<rect x="34.6" y="127.4" fill="#EFF3F5" width="401.5" height="257.1"/>
	</g>
	<g>
		<g>
			<rect x="55.9" y="145.1" fill="#F1786B" width="182.9" height="221.9"/>
		</g>
		<g>
			<rect x="238.8" y="145.1" fill="#FFFFFF" width="176.1" height="221.9"/>
		</g>
	</g>
</g>
</svg>
