<?xml version="1.0" encoding="utf-8"?>
<!-- Generator: Adobe Illustrator 18.0.0, SVG Export Plug-In . SVG Version: 6.00 Build 0)  -->
<!DOCTYPE svg PUBLIC "-//W3C//DTD SVG 1.1//EN" "http://www.w3.org/Graphics/SVG/1.1/DTD/svg11.dtd">
<svg version="1.1" id="Layer_1" xmlns="http://www.w3.org/2000/svg" xmlns:xlink="http://www.w3.org/1999/xlink" x="0px" y="0px"
	 viewBox="0 0 512 512" enable-background="new 0 0 512 512" xml:space="preserve">
<g>
	<g>
		<g>
			<path fill="#F1786B" d="M219.1,27.3H13c-6.1,0-11,4.9-11,11V499c0,6.1,4.9,11,11,11h206.2c6.1,0,11-4.9,11-11V38.3
				C230.1,32.2,225.2,27.3,219.1,27.3z"/>
		</g>
		<g>
			<path fill="#F1786B" d="M499,27.3H292.9c-6.1,0-11,4.9-11,11V499c0,6.1,4.9,11,11,11H499c6.1,0,11-4.9,11-11V38.3
				C510,32.2,505.1,27.3,499,27.3z"/>
		</g>
	</g>
	<g>
		<rect x="61.8" y="2" fill="#D45947" width="108.6" height="25.3"/>
	</g>
	<g>
		<rect x="28.3" y="53.6" fill="#EFF3F5" width="175.6" height="430"/>
	</g>
	<g>
		<rect x="41.4" y="425.1" fill="#788D9A" width="149.3" height="46.1"/>
	</g>
	<g>
		<rect x="41.4" y="368" fill="#788D9A" width="149.3" height="46.1"/>
	</g>
	<g>
		<rect x="41.4" y="310.9" fill="#788D9A" width="149.3" height="46.1"/>
	</g>
	<g>
		<rect x="41.4" y="253.8" fill="#788D9A" width="149.3" height="46.1"/>
	</g>
	<g>
		<rect x="341.7" y="2" fill="#D45947" width="108.6" height="25.3"/>
	</g>
	<g>
		<rect x="308.1" y="53.6" fill="#EFF3F5" width="175.6" height="430"/>
	</g>
	<g>
		<rect x="321.3" y="425.1" fill="#788D9A" width="149.3" height="46.1"/>
	</g>
	<g>
		<rect x="321.3" y="368" fill="#788D9A" width="149.3" height="46.1"/>
	</g>
	<g>
		<rect x="321.3" y="310.9" fill="#788D9A" width="149.3" height="46.1"/>
	</g>
	<g>
		<rect x="321.3" y="253.8" fill="#788D9A" width="149.3" height="46.1"/>
	</g>
</g>
</svg>
