<?xml version="1.0" encoding="utf-8"?>
<!-- Generator: Adobe Illustrator 18.0.0, SVG Export Plug-In . SVG Version: 6.00 Build 0)  -->
<!DOCTYPE svg PUBLIC "-//W3C//DTD SVG 1.1//EN" "http://www.w3.org/Graphics/SVG/1.1/DTD/svg11.dtd">
<svg version="1.1" id="Layer_1" xmlns="http://www.w3.org/2000/svg" xmlns:xlink="http://www.w3.org/1999/xlink" x="0px" y="0px"
	 viewBox="0 0 512 512" enable-background="new 0 0 512 512" xml:space="preserve">
<g>
	<g>
		<path fill="#354C59" d="M510,256c2.4,140.3-109.3,254-249.5,254S4.5,396.3,2,256S111.3,2,251.6,2S507.5,115.7,510,256z"/>
	</g>
	<g>
		<path fill="#EFF3F5" d="M473.1,256c2.1,119.9-93.4,217.1-213.3,217.1S41,375.9,38.9,256C36.8,136.1,132.3,38.9,252.2,38.9
			S471,136.1,473.1,256z"/>
	</g>
	<g>
		<polygon fill="none" points="256,256 256,256 256,256 		"/>
	</g>
	<g>
		<polygon fill="none" points="256,256 256,256 256,256 256,256 		"/>
	</g>
	<g>
		<polygon fill="none" points="256,256 256,256 256,256 		"/>
	</g>
	<g>
		<path fill="#41B3E2" d="M253.6,116.7l-0.9-51.8c-52.8,0-100.2,21.4-134.2,56l37.3,36.6C180.5,132.3,215.1,116.7,253.6,116.7z"/>
	</g>
	<g>
		<path fill="#F1786B" d="M363.3,346.6l37.4,36.7c29.7-33.8,47.3-78.4,46.4-127.4l-51.8,0C395.9,290.6,383.8,322.3,363.3,346.6z"/>
	</g>
	<g>
		<path fill="#5AC8AE" d="M115.7,383.4l36.1-36.7c-21.3-24.4-34.5-56-35.1-90.6l-51.8,0C65.7,304.9,84.9,349.6,115.7,383.4z"/>
	</g>
	<g>
		<path fill="#788D9A" d="M352.8,157.5l36-36.6c-35.2-34.6-83.4-56-136.1-56l0.9,51.8C292,116.7,327.1,132.3,352.8,157.5z"/>
	</g>
	<g>
		<path fill="#FBD984" d="M155.8,157.5l-37.3-36.6c-34,34.6-54.5,82.4-53.6,135.2l0,0l51.8,0l0,0C116,217.5,131,182.7,155.8,157.5z"
			/>
	</g>
	<g>
		<path fill="#2E89AC" d="M395.3,256L395.3,256l51.8,0l0,0c-0.9-52.8-23.1-100.6-58.3-135.2l-36,36.6
			C378.4,182.7,394.6,217.5,395.3,256z"/>
	</g>
	<g>
		<path fill="#445C6C" d="M311.3,252.5c0.5,30.6-23.8,55.3-54.4,55.3s-55.8-24.8-56.3-55.3c-0.5-30.6,52-192.3,52-192.3
			S310.7,221.9,311.3,252.5z"/>
	</g>
	<g>
		<path fill="#EFF3F5" d="M281,256c0.2,13.8-10.8,25-24.6,25c-13.8,0-25.2-11.2-25.4-25c-0.2-13.8,10.8-25,24.6-25
			C269.4,231,280.7,242.2,281,256z"/>
	</g>
</g>
</svg>
