<?xml version="1.0" encoding="utf-8"?>
<!-- Generator: Adobe Illustrator 18.0.0, SVG Export Plug-In . SVG Version: 6.00 Build 0)  -->
<!DOCTYPE svg PUBLIC "-//W3C//DTD SVG 1.1//EN" "http://www.w3.org/Graphics/SVG/1.1/DTD/svg11.dtd">
<svg version="1.1" id="Layer_1" xmlns="http://www.w3.org/2000/svg" xmlns:xlink="http://www.w3.org/1999/xlink" x="0px" y="0px"
	 viewBox="0 0 512 512" enable-background="new 0 0 512 512" xml:space="preserve">
<g>
	<g>
		<path fill="#8FA1AA" d="M483.3,2H128.9c-14.7,0-26.7,11.9-26.7,26.7v200.6c0,14.7,11.9,26.7,26.7,26.7h354.4
			c14.7,0,26.7-11.9,26.7-26.7V28.7C510,13.9,498.1,2,483.3,2z"/>
	</g>
	<g>
		<path fill="#A3B1B7" d="M483.3,2H128.9c-14.7,0-26.7,11.9-26.7,26.7v14.9c0-14.7,11.9-26.7,26.7-26.7h354.4
			c14.7,0,26.7,11.9,26.7,26.7V28.7C510,13.9,498.1,2,483.3,2z"/>
	</g>
	<g>
		<path fill="#445C6C" d="M230.1,256v74.5c0,17.9,14.5,32.5,32.5,32.5H445c17.9,0,32.5-14.5,32.5-32.5V256H230.1z"/>
	</g>
	<g>
		<rect x="230.1" y="256" fill="#304551" width="247.3" height="27"/>
	</g>
	<g>
		<g>
			<path fill="#DBDFE0" d="M300.7,510h-29.2c-1.2,0-2.1-0.9-2.1-2.1V362.9h33.4v144.9C302.8,509.1,301.8,510,300.7,510z"/>
		</g>
		<g>
			<path fill="#DBDFE0" d="M436,510h-29.2c-1.2,0-2.1-0.9-2.1-2.1V362.9h33.4v144.9C438.1,509.1,437.2,510,436,510z"/>
		</g>
		<g>
			<rect x="269.4" y="362.9" fill="#788D9A" width="33.4" height="30.2"/>
		</g>
		<g>
			<rect x="404.7" y="362.9" fill="#788D9A" width="33.4" height="30.2"/>
		</g>
	</g>
	<g>
		<path fill="#DBDFE0" d="M95.3,54.9c-25.9,0-46.9,21-46.9,46.9v54.6c0,25.9,21,46.9,46.9,46.9h6.9V54.9H95.3z"/>
	</g>
	<g>
		<rect x="2" y="105.4" fill="#41B3E2" width="46.5" height="47.2"/>
	</g>
	<g>
		<g>
			<path fill="#DBDFE0" d="M469.2,132.4c6.1-2.9,10.3-9,10.3-16.2c0-9.9-8.1-18-18-18h-12.5c-2.8,0-5.1,2.3-5.1,5.1v51.3
				c0,2.8,2.3,5.1,5.1,5.1c2.8,0,5.1-2.3,5.1-5.1v-20.5h4.4l11.3,22.2c0.9,1.8,3.8,3.9,6.9,2.3c2.5-1.3,3.5-4.4,2.3-6.9L469.2,132.4
				z M461.6,123.9h-7.4v-15.4h7.4c4.2,0,7.7,3.4,7.7,7.7C469.3,120.4,465.8,123.9,461.6,123.9z"/>
		</g>
		<g>
			<path fill="#DBDFE0" d="M336.6,116.2c0-9.9-8.1-18-18-18h-12.5c-2.8,0-5.1,2.3-5.1,5.1v51.3c0,2.8,2.3,5.1,5.1,5.1
				c2.8,0,5.1-2.3,5.1-5.1v-20.5h4.4l11.3,22.2c0.9,1.8,3.7,3.7,6.9,2.3c2.6-1.2,3.5-4.4,2.3-6.9l-9.8-19.3
				C332.4,129.5,336.6,123.3,336.6,116.2z M318.7,123.9h-7.4v-15.4h7.4c4.2,0,7.7,3.4,7.7,7.7C326.4,120.4,322.9,123.9,318.7,123.9z
				"/>
		</g>
		<g>
			<path fill="#DBDFE0" d="M231.9,98.2c-2.8,0-5.1,2.3-5.1,5.1v20.5h-22.1v-20.5c0-2.8-2.3-5.1-5.1-5.1s-5.1,2.3-5.1,5.1v51.3
				c0,2.8,2.3,5.1,5.1,5.1s5.1-2.3,5.1-5.1v-20.5h22.1v20.5c0,2.8,2.3,5.1,5.1,5.1c2.8,0,5.1-2.3,5.1-5.1v-51.3
				C237,100.5,234.7,98.2,231.9,98.2z"/>
		</g>
		<g>
			<path fill="#DBDFE0" d="M431.6,108.5c2.8,0,5.1-2.3,5.1-5.1c0-2.8-2.3-5.1-5.1-5.1h-20.2c-2.8,0-5.1,2.3-5.1,5.1v51.3
				c0,2.8,2.3,5.1,5.1,5.1h20.2c2.8,0,5.1-2.3,5.1-5.1s-2.3-5.1-5.1-5.1h-15.1v-15.4h15.1c2.8,0,5.1-2.3,5.1-5.1s-2.3-5.1-5.1-5.1
				h-15.1v-15.4H431.6z"/>
		</g>
		<g>
			<path fill="#DBDFE0" d="M162.8,109.1c6.4,0,12.2,2.9,16,8.1c1.7,2.3,4.9,2.8,7.2,1.1c2.3-1.7,2.8-4.9,1.1-7.2
				c-5.7-7.7-14.7-12.2-24.2-12.2c-16.6,0-30.1,13.5-30.1,30.1s13.5,30.1,30.1,30.1c8.4,0,16.5-3.5,22.2-9.7
				c1.9-2.1,1.8-5.3-0.3-7.3c-2.1-1.9-5.3-1.8-7.3,0.3c-3.8,4.1-9.1,6.4-14.6,6.4c-10.9,0-19.9-8.9-19.9-19.9
				S151.9,109.1,162.8,109.1z"/>
		</g>
		<g>
			<path fill="#DBDFE0" d="M272.9,101.9c-0.8-2-2.7-3.3-4.8-3.3c-2.1,0-4,1.3-4.8,3.3l-19.4,50.6c-1,2.6,0.2,5.8,3,6.6
				c3.2,1,5.8-0.9,6.6-3l4.6-11.9h20.1l4.6,11.9c1,2.6,4,4,6.6,3c2.6-1,4-4,3-6.6L272.9,101.9z M262,133.9l6.1-15.9l6.1,15.9H262z"
				/>
		</g>
		<g>
			<path fill="#DBDFE0" d="M394.1,130.6h-25.2c-2.8,0-5.1,2.3-5.1,5.1c0,2.8,2.3,5.1,5.1,5.1h17.2c-3.8,5.3-10,8.6-16.7,8.6
				c-11.3,0-20.5-9.2-20.5-20.5s9.2-20.5,20.5-20.5c7.3,0,14.1,3.9,17.8,10.2c1.4,2.5,4.6,3.3,7,1.9c2.5-1.4,3.3-4.6,1.9-7
				c-5.5-9.5-15.7-15.4-26.6-15.4c-17,0-30.8,13.8-30.8,30.8s13.8,30.8,30.8,30.8c13.9,0,26.1-9.3,29.7-22.7
				c0.4-1.5,0.1-3.2-0.9-4.5C397.2,131.4,395.7,130.6,394.1,130.6z"/>
		</g>
	</g>
</g>
</svg>
