<?xml version="1.0" encoding="utf-8"?>
<!-- Generator: Adobe Illustrator 18.0.0, SVG Export Plug-In . SVG Version: 6.00 Build 0)  -->
<!DOCTYPE svg PUBLIC "-//W3C//DTD SVG 1.1//EN" "http://www.w3.org/Graphics/SVG/1.1/DTD/svg11.dtd">
<svg version="1.1" id="Layer_1" xmlns="http://www.w3.org/2000/svg" xmlns:xlink="http://www.w3.org/1999/xlink" x="0px" y="0px"
	 viewBox="0 0 512 512" enable-background="new 0 0 512 512" xml:space="preserve">
<g>
	<g>
		<rect x="12.5" y="120.3" fill="#DBDFE0" width="487.1" height="305.4"/>
	</g>
	<g>
		<circle fill="#FFFFFF" cx="113.5" cy="273.1" r="80.6"/>
	</g>
	<g>
		<circle fill="#FFFFFF" cx="398.5" cy="273.1" r="80.6"/>
	</g>
	<g>
		<rect x="2" y="85.4" fill="#41B3E2" width="508" height="34.9"/>
	</g>
	<g>
		<rect x="2" y="85.4" fill="#60D2F4" width="508" height="10.3"/>
	</g>
	<g>
		<rect x="2" y="425.8" fill="#2E89AC" width="508" height="34.9"/>
	</g>
	<g>
		<g>
			<rect x="33" y="73.8" fill="#D45947" width="52" height="11.6"/>
		</g>
		<g>
			<rect x="40.2" y="51.3" fill="#F1786B" width="37.6" height="22.5"/>
		</g>
		<g>
			<rect x="131.5" y="73.8" fill="#445C6C" width="52" height="11.6"/>
		</g>
		<g>
			<rect x="138.7" y="51.3" fill="#788D9A" width="37.6" height="22.5"/>
		</g>
		<g>
			<rect x="230" y="73.8" fill="#445C6C" width="52" height="11.6"/>
		</g>
		<g>
			<rect x="237.2" y="51.3" fill="#788D9A" width="37.6" height="22.5"/>
		</g>
		<g>
			<rect x="328.5" y="73.8" fill="#445C6C" width="52" height="11.6"/>
		</g>
		<g>
			<rect x="335.7" y="51.3" fill="#788D9A" width="37.6" height="22.5"/>
		</g>
		<g>
			<rect x="427" y="73.8" fill="#52AFA8" width="52" height="11.6"/>
		</g>
		<g>
			<rect x="434.2" y="51.3" fill="#5AC8AE" width="37.6" height="22.5"/>
		</g>
	</g>
	<g>
		<polygon fill="#F1786B" points="179.5,260.3 126.2,260.3 126.2,207.1 100.7,207.1 100.7,260.3 47.5,260.3 47.5,285.8 100.7,285.8 
			100.7,339.1 126.2,339.1 126.2,285.8 179.5,285.8 		"/>
	</g>
	<g>
		<rect x="332.5" y="260.3" fill="#5AC8AE" width="132" height="25.5"/>
	</g>
	<g>
		<rect x="2" y="425.8" fill="#60D2F4" width="508" height="10.3"/>
	</g>
</g>
</svg>
