<?xml version="1.0" encoding="utf-8"?>
<!-- Generator: Adobe Illustrator 18.0.0, SVG Export Plug-In . SVG Version: 6.00 Build 0)  -->
<!DOCTYPE svg PUBLIC "-//W3C//DTD SVG 1.1//EN" "http://www.w3.org/Graphics/SVG/1.1/DTD/svg11.dtd">
<svg version="1.1" id="Layer_1" xmlns="http://www.w3.org/2000/svg" xmlns:xlink="http://www.w3.org/1999/xlink" x="0px" y="0px"
	 viewBox="0 0 512 512" enable-background="new 0 0 512 512" xml:space="preserve">
<g>
	<g>
		<path fill="#DBDFE0" d="M382.6,2H129.4c-9.2,0-16.7,7.5-16.7,16.7v371.7c0,9.2,7.5,16.7,16.7,16.7h253.3c9.2,0,16.7-7.5,16.7-16.7
			V18.7C399.3,9.5,391.9,2,382.6,2z"/>
	</g>
	<g>
		<rect x="143.5" y="36.6" fill="#41B3E2" width="225" height="167.9"/>
	</g>
	<g>
		<circle fill="#788D9A" cx="256" cy="302.4" r="68"/>
	</g>
	<g>
		<circle fill="#445C6C" cx="256" cy="302.4" r="36.8"/>
	</g>
	<g>
		<g>
			<g>
				<path fill="#788D9A" d="M171.8,510H67c-26.7,0-48.5-21.7-48.5-48.5v-166h16.2v166c0,17.8,14.5,32.3,32.3,32.3h104.8
					c17.8,0,32.3-14.5,32.3-32.3v-54.5h16.2v54.5C220.3,488.3,198.5,510,171.8,510z"/>
			</g>
		</g>
		<g>
			<g>
				<rect x="2" y="155.2" fill="#F1786B" width="49.2" height="90.9"/>
			</g>
			<g>
				<polygon fill="#D45947" points="51.2,246.1 2,246.1 12.4,295.5 40.8,295.5 				"/>
			</g>
		</g>
		<g>
			<path fill="#788D9A" d="M35.6,155.2v-34.1c0-5-4-9-9-9c-5,0-9,4-9,9v34.1H35.6z"/>
		</g>
		<g>
			<rect x="18.5" y="295.5" fill="#445C6C" width="16.2" height="15.1"/>
		</g>
		<g>
			<rect x="204.1" y="407.1" fill="#445C6C" width="16.2" height="18.6"/>
		</g>
	</g>
	<g>
		<path fill="#788D9A" d="M340.2,510H445c26.7,0,48.5-21.7,48.5-48.5v-166h-16.2v166c0,17.8-14.5,32.3-32.3,32.3H340.2
			c-17.8,0-32.3-14.5-32.3-32.3v-54.5h-16.2v54.5C291.7,488.3,313.5,510,340.2,510z"/>
	</g>
	<g>
		<rect x="460.8" y="155.2" fill="#FBD984" width="49.2" height="90.9"/>
	</g>
	<g>
		<polygon fill="#E39A61" points="460.8,246.1 510,246.1 499.6,295.5 471.2,295.5 		"/>
	</g>
	<g>
		<path fill="#788D9A" d="M476.4,155.2v-34.1c0-5,4-9,9-9c5,0,9,4,9,9v34.1H476.4z"/>
	</g>
	<g>
		<rect x="477.3" y="295.5" fill="#445C6C" width="16.2" height="15.1"/>
	</g>
	<g>
		<rect x="291.7" y="407.1" fill="#445C6C" width="16.2" height="18.6"/>
	</g>
</g>
</svg>
