<?xml version="1.0" encoding="utf-8"?>
<!-- Generator: Adobe Illustrator 18.0.0, SVG Export Plug-In . SVG Version: 6.00 Build 0)  -->
<!DOCTYPE svg PUBLIC "-//W3C//DTD SVG 1.1//EN" "http://www.w3.org/Graphics/SVG/1.1/DTD/svg11.dtd">
<svg version="1.1" id="Layer_1" xmlns="http://www.w3.org/2000/svg" xmlns:xlink="http://www.w3.org/1999/xlink" x="0px" y="0px"
	 viewBox="0 0 512 512" enable-background="new 0 0 512 512" xml:space="preserve">
<g>
	<g>
		<g>
			<path fill="#F1786B" d="M190.2,69.2L32.4,227c-23.8,23.8-23.8,62.4,0,86.2l166.4,166.4c23.8,23.8,62.4,23.8,86.2,0l157.8-157.8
				L190.2,69.2z"/>
		</g>
		<g>
			
				<rect x="294" y="26.2" transform="matrix(-0.7071 0.7071 -0.7071 -0.7071 669.2482 132.3667)" fill="#FF9088" width="26.4" height="357.2"/>
		</g>
		<g>
			<g>
				<path fill="#DBDFE0" d="M358.2,10.3c-11.1-11.1-29.1-11.1-40.2,0l-93.3,93.3l40.2,40.2l93.3-93.3
					C369.3,39.4,369.3,21.4,358.2,10.3z"/>
			</g>
			<g>
				<path fill="#DBDFE0" d="M501.7,153.8c-11.1-11.1-29.1-11.1-40.2,0l-93.3,93.3l40.2,40.2l93.3-93.3
					C512.8,182.9,512.8,164.9,501.7,153.8z"/>
			</g>
		</g>
		<g>
			<path fill="#D45947" d="M46.7,327.5c-15.9,15.9-15.9,41.6,0,57.4l80.4,80.4c15.9,15.9,41.6,15.9,57.4,0L46.7,327.5z"/>
		</g>
		<g>
			<path fill="#BC4235" d="M168.3,475.1c5.9-1.9,11.5-5.2,16.1-9.9L46.7,327.5c-4.7,4.7-8,10.2-9.9,16.1L168.3,475.1z"/>
		</g>
		<g>
			
				<rect x="28.7" y="411.1" transform="matrix(0.7071 0.7071 -0.7071 0.7071 340.0549 96.8857)" fill="#788D9A" width="48.8" height="95.7"/>
		</g>
		<g>
			
				<rect x="54.6" y="421.8" transform="matrix(0.7071 0.7071 -0.7071 0.7071 329.3331 71.0013)" fill="#445C6C" width="48.8" height="22.5"/>
		</g>
	</g>
	<g>
		
			<rect x="127.7" y="242.2" transform="matrix(0.7071 0.7071 -0.7071 0.7071 262.0032 -91.5464)" fill="#FF9088" width="227.7" height="56.7"/>
	</g>
	<g>
		
			<rect x="102.1" y="309.4" transform="matrix(0.7071 0.7071 -0.7071 0.7071 289.8713 -24.2674)" fill="#FF9088" width="144.2" height="56.7"/>
	</g>
</g>
</svg>
