<?xml version="1.0" encoding="utf-8"?>
<!-- Generator: Adobe Illustrator 18.0.0, SVG Export Plug-In . SVG Version: 6.00 Build 0)  -->
<!DOCTYPE svg PUBLIC "-//W3C//DTD SVG 1.1//EN" "http://www.w3.org/Graphics/SVG/1.1/DTD/svg11.dtd">
<svg version="1.1" id="Layer_1" xmlns="http://www.w3.org/2000/svg" xmlns:xlink="http://www.w3.org/1999/xlink" x="0px" y="0px"
	 viewBox="0 0 512 512" enable-background="new 0 0 512 512" xml:space="preserve">
<g>
	<g>
		<g>
			<path fill="#F1786B" d="M69.4,126.9V89.7c0-9.4,7.6-17,17-17h339.3c9.4,0,17,7.6,17,17v37.3h21.9V89.7
				c0-21.4-17.4-38.9-38.9-38.9H86.4c-21.4,0-38.9,17.4-38.9,38.9v37.3H69.4z"/>
		</g>
	</g>
	<g>
		<g>
			<rect x="47.5" y="111.2" fill="#D45947" width="21.9" height="15.7"/>
		</g>
		<g>
			<rect x="442.6" y="111.2" fill="#D45947" width="21.9" height="15.7"/>
		</g>
	</g>
	<g>
		<path fill="#FDC77C" d="M491.9,126.9H20.1C10.1,126.9,2,135,2,145v288.8c0,10,8.1,18.1,18.1,18.1h471.9c10,0,18.1-8.1,18.1-18.1
			V145C510,135,501.9,126.9,491.9,126.9z"/>
	</g>
	<g>
		<path fill="#FBD984" d="M491.9,126.9H20.1C10.1,126.9,2,135,2,145v7.3c0-10,8.1-18.1,18.1-18.1h471.9c10,0,18.1,8.1,18.1,18.1V145
			C510,135,501.9,126.9,491.9,126.9z"/>
	</g>
	<g>
		<rect x="39.5" y="160.6" fill="#445C6C" width="432.9" height="62.8"/>
	</g>
	<g>
		<rect x="39.5" y="216.4" fill="#556E7C" width="432.9" height="7"/>
	</g>
	<g>
		<g>
			<circle fill="#EFF3F5" cx="440.7" cy="383.8" r="31.8"/>
		</g>
		<g>
			<circle fill="#DBDFE0" cx="440.7" cy="383.8" r="20.1"/>
		</g>
		<g>
			
				<rect x="436.2" y="349.6" transform="matrix(0.7359 0.6771 -0.6771 0.7359 376.2826 -197.0092)" fill="#445C6C" width="8.9" height="68.3"/>
		</g>
		<g>
			<circle fill="#EFF3F5" cx="353.6" cy="383.8" r="31.8"/>
		</g>
		<g>
			<circle fill="#DBDFE0" cx="353.6" cy="383.8" r="20.1"/>
		</g>
		<g>
			
				<rect x="349.1" y="349.6" transform="matrix(0.9912 0.1325 -0.1325 0.9912 53.9521 -43.4491)" fill="#445C6C" width="8.9" height="68.3"/>
		</g>
	</g>
	<g>
		<path fill="#EFF3F5" d="M228.5,160.6v48.7c0,2.5,2,4.6,4.6,4.6c2.5,0,4.6-2,4.6-4.6v-48.7H228.5z"/>
	</g>
	<g>
		<g>
			<rect x="46.7" y="451.9" fill="#E39A61" width="57.6" height="9.3"/>
		</g>
		<g>
			<rect x="407.7" y="451.9" fill="#E39A61" width="57.6" height="9.3"/>
		</g>
	</g>
	<g>
		<path fill="#E39A61" d="M204.1,243.9h-78.7c-47.4,0-85.8,38.4-85.8,85.8s38.4,85.8,85.8,85.8h78.7c47.4,0,85.8-38.4,85.8-85.8
			S251.5,243.9,204.1,243.9z"/>
	</g>
</g>
</svg>
