<?xml version="1.0" encoding="utf-8"?>
<!-- Generator: Adobe Illustrator 18.0.0, SVG Export Plug-In . SVG Version: 6.00 Build 0)  -->
<!DOCTYPE svg PUBLIC "-//W3C//DTD SVG 1.1//EN" "http://www.w3.org/Graphics/SVG/1.1/DTD/svg11.dtd">
<svg version="1.1" id="Layer_1" xmlns="http://www.w3.org/2000/svg" xmlns:xlink="http://www.w3.org/1999/xlink" x="0px" y="0px"
	 viewBox="0 0 512 512" enable-background="new 0 0 512 512" xml:space="preserve">
<g>
	<g>
		<g>
			<rect x="77.9" y="2" fill="#DBDFE0" width="68.9" height="34.4"/>
		</g>
		<g>
			<rect x="77.9" y="22.7" fill="#C3C8C9" width="68.9" height="13.7"/>
		</g>
		<g>
			<path fill="#EFF3F5" d="M197.6,36.4H27.1C13.3,36.4,2,47.6,2,61.5v423.4C2,498.7,13.3,510,27.1,510h170.5
				c13.9,0,25.1-11.3,25.1-25.1V61.5C222.8,47.6,211.5,36.4,197.6,36.4z"/>
		</g>
		<g>
			<path fill="#FBD984" d="M222.8,198.9V61.5c0-13.9-11.3-25.1-25.1-25.1H27.1C13.3,36.4,2,47.6,2,61.5v137.3H222.8z"/>
		</g>
		<g>
			<g>
				<path fill="#F0B972" d="M142.7,88.4c32,43.2-16.3,91.6-59.5,59.5c-0.5-0.3-0.9-0.7-1.2-1.2c-32-43.2,16.3-91.6,59.5-59.5
					C142,87.6,142.4,88,142.7,88.4z"/>
			</g>
			<g>
				<g>
					<g>
						<g>
							<path fill="#D45947" d="M140.7,117.5c0,2.8-2.2,5-5,5h-18.4V141c0,2.8-2.2,5-5,5c-2.8,0-4.9-2.2-4.9-5v-18.4H88.9
								c-2.6,0-4.9-2.2-4.9-5c0-2.8,2.2-4.9,4.9-4.9h18.5V94.1c0-2.6,2.1-4.9,4.9-4.9c2.8,0,5,2.2,5,4.9v18.5h18.4
								C138.5,112.7,140.7,114.8,140.7,117.5z"/>
						</g>
					</g>
				</g>
			</g>
		</g>
		<g>
			<g>
				<path fill="#FBD984" d="M142.7,380.8c32,43.2-16.3,91.6-59.5,59.5c-0.5-0.3-0.9-0.7-1.2-1.2c-32-43.2,16.3-91.6,59.5-59.5
					C142,380,142.4,380.4,142.7,380.8z"/>
			</g>
			<g>
				<g>
					<g>
						<g>
							<path fill="#FFFFFF" d="M88.9,414.9c-2.6,0-4.9-2.2-4.9-5c0-2.8,2.2-4.9,4.9-4.9h46.8c2.8,0,5,2.1,5,4.9c0,2.8-2.2,5-5,5
								H88.9z"/>
						</g>
					</g>
				</g>
			</g>
		</g>
		<g>
			<rect x="2" y="198.9" fill="#DBDFE0" width="220.7" height="15.7"/>
		</g>
		<g>
			<path fill="#FFDF97" d="M222.7,61.5v11.8c0-13.8-11.3-25.1-25.1-25.1H27.1C13.3,48.2,2,59.4,2,73.3V61.5
				c0-13.8,11.3-25.1,25.1-25.1h170.5C211.5,36.4,222.7,47.6,222.7,61.5z"/>
		</g>
	</g>
	<g>
		<g>
			<rect x="365.2" y="2" fill="#DBDFE0" width="68.9" height="34.4"/>
		</g>
		<g>
			<rect x="365.2" y="22.7" fill="#C3C8C9" width="68.9" height="13.7"/>
		</g>
		<g>
			<path fill="#FBD984" d="M484.9,36.4H314.4c-13.9,0-25.1,11.3-25.1,25.1v423.4c0,13.9,11.3,25.1,25.1,25.1h170.5
				c13.9,0,25.1-11.3,25.1-25.1V61.5C510,47.6,498.7,36.4,484.9,36.4z"/>
		</g>
		<g>
			<rect x="289.2" y="198.9" fill="#FDC77C" width="220.7" height="15.7"/>
		</g>
		<g>
			<path fill="#F1786B" d="M510,198.9V61.5c0-13.9-11.3-25.1-25.1-25.1H314.4c-13.9,0-25.1,11.3-25.1,25.1v137.3H510z"/>
		</g>
		<g>
			<path fill="#FC877E" d="M510,61.5v11.8c0-13.8-11.3-25.1-25.2-25.1H314.4c-13.8,0-25.1,11.3-25.1,25.1V61.5
				c0-13.8,11.3-25.1,25.1-25.1h170.4C498.7,36.4,510,47.6,510,61.5z"/>
		</g>
		<g>
			<g>
				<path fill="#EFF3F5" d="M430,88.4c32,43.2-16.3,91.6-59.5,59.5c-0.5-0.3-0.9-0.7-1.2-1.2c-32-43.2,16.3-91.6,59.5-59.5
					C429.2,87.6,429.6,88,430,88.4z"/>
			</g>
			<g>
				<g>
					<g>
						<g>
							<path fill="#2E89AC" d="M427.9,117.5c0,2.8-2.2,5-5,5h-18.4V141c0,2.8-2.2,5-5,5c-2.8,0-4.9-2.2-4.9-5v-18.4h-18.5
								c-2.6,0-4.9-2.2-4.9-5c0-2.8,2.2-4.9,4.9-4.9h18.5V94.1c0-2.6,2.1-4.9,4.9-4.9c2.8,0,5,2.2,5,4.9v18.5H423
								C425.7,112.7,427.9,114.8,427.9,117.5z"/>
						</g>
					</g>
				</g>
			</g>
		</g>
		<g>
			<g>
				<path fill="#F1786B" d="M430,380.8c32,43.2-16.3,91.6-59.5,59.5c-0.5-0.3-0.9-0.7-1.2-1.2c-32-43.2,16.3-91.6,59.5-59.5
					C429.2,380,429.6,380.4,430,380.8z"/>
			</g>
			<g>
				<g>
					<g>
						<g>
							<path fill="#EFF3F5" d="M376.1,414.9c-2.6,0-4.9-2.2-4.9-5c0-2.8,2.2-4.9,4.9-4.9H423c2.8,0,5,2.1,5,4.9c0,2.8-2.2,5-5,5
								H376.1z"/>
						</g>
					</g>
				</g>
			</g>
		</g>
	</g>
</g>
</svg>
