<?xml version="1.0" encoding="utf-8"?>
<!-- Generator: Adobe Illustrator 18.0.0, SVG Export Plug-In . SVG Version: 6.00 Build 0)  -->
<!DOCTYPE svg PUBLIC "-//W3C//DTD SVG 1.1//EN" "http://www.w3.org/Graphics/SVG/1.1/DTD/svg11.dtd">
<svg version="1.1" id="Layer_1" xmlns="http://www.w3.org/2000/svg" xmlns:xlink="http://www.w3.org/1999/xlink" x="0px" y="0px"
	 viewBox="0 0 512 512" enable-background="new 0 0 512 512" xml:space="preserve">
<g>
	<g>
		<path fill="#FBD984" d="M248.3,92.4c-70.4,3.9-127.1,62.8-128.4,133.3c-0.7,38.8,14.8,73.9,40.2,99.1
			c22.6,22.4,36.3,52.1,36.3,83.9v7h118.9v-6.5c0-32,13.8-62,36.5-84.6c24.7-24.6,40.1-58.6,40.1-96.3
			C392.1,150.6,327,88.1,248.3,92.4z"/>
	</g>
	<g>
		<rect x="196.5" y="415.6" fill="#788D9A" width="118.9" height="71.3"/>
	</g>
	<g>
		<polygon fill="#445C6C" points="315.5,486.9 196.5,486.9 220.2,510 291.8,510 		"/>
	</g>
	<g>
		<g>
			<path fill="#445C6C" d="M188.8,445.1c-3.4,0-6.2,2.8-6.2,6.2c0,3.4,2.8,6.2,6.2,6.2h7.7v-12.4H188.8z"/>
		</g>
		<g>
			<path fill="#445C6C" d="M323.2,457.5c3.4,0,6.2-2.8,6.2-6.2c0-3.4-2.8-6.2-6.2-6.2l-7.7,0v12.4H323.2z"/>
		</g>
	</g>
	<g>
		<g>
			<g>
				<rect x="242" y="2" fill="#DBDFE0" width="27.9" height="64"/>
			</g>
		</g>
		<g>
			<g>
				<rect x="423.1" y="219.2" fill="#DBDFE0" width="64" height="27.9"/>
			</g>
			<g>
				<rect x="24.8" y="219.2" fill="#DBDFE0" width="64" height="27.9"/>
			</g>
		</g>
		<g>
			<g>
				
					<rect x="382.9" y="60.3" transform="matrix(0.7071 0.7071 -0.7071 0.7071 181.5222 -253.541)" fill="#DBDFE0" width="27.9" height="64"/>
			</g>
			<g>
				
					<rect x="101.2" y="342" transform="matrix(0.7071 0.7071 -0.7071 0.7071 298.1751 28.0838)" fill="#DBDFE0" width="27.9" height="64"/>
			</g>
		</g>
		<g>
			<g>
				
					<rect x="382.9" y="342" transform="matrix(-0.7071 0.7071 -0.7071 -0.7071 941.8394 357.8216)" fill="#DBDFE0" width="27.9" height="64"/>
			</g>
			<g>
				
					<rect x="101.2" y="60.3" transform="matrix(-0.7071 0.7071 -0.7071 -0.7071 261.9362 76.1968)" fill="#DBDFE0" width="27.9" height="64"/>
			</g>
		</g>
	</g>
</g>
</svg>
