<?xml version="1.0" encoding="utf-8"?>
<!-- Generator: Adobe Illustrator 18.0.0, SVG Export Plug-In . SVG Version: 6.00 Build 0)  -->
<!DOCTYPE svg PUBLIC "-//W3C//DTD SVG 1.1//EN" "http://www.w3.org/Graphics/SVG/1.1/DTD/svg11.dtd">
<svg version="1.1" id="Layer_1" xmlns="http://www.w3.org/2000/svg" xmlns:xlink="http://www.w3.org/1999/xlink" x="0px" y="0px"
	 viewBox="0 0 512 512" enable-background="new 0 0 512 512" xml:space="preserve">
<g>
	<g>
		<path fill="#445C6C" d="M497.3,96.6H14.7c-7,0-12.7,5.7-12.7,12.7v293.4c0,7,5.7,12.7,12.7,12.7h482.7c7,0,12.7-5.7,12.7-12.7
			V109.3C510,102.3,504.3,96.6,497.3,96.6z"/>
	</g>
	<g>
		<g>
			<g>
				<path fill="#DBDFE0" d="M135.5,249.9c2.7-18.7,17.5-33.5,36.1-36.1v-12.4c-25.4,2.8-45.7,23.1-48.5,48.5H135.5z"/>
			</g>
			<g>
				<path fill="#DBDFE0" d="M183.8,213.7c18.7,2.7,33.5,17.5,36.1,36.1h12.4c-2.8-25.4-23.1-45.7-48.5-48.5V213.7z"/>
			</g>
			<g>
				<path fill="#DBDFE0" d="M220,262.1c-2.7,18.7-17.5,33.5-36.1,36.1v12.4c25.4-2.8,45.7-23.1,48.5-48.5H220z"/>
			</g>
			<g>
				<path fill="#DBDFE0" d="M171.6,298.3c-18.7-2.7-33.5-17.5-36.1-36.1h-12.4c2.8,25.4,23.1,45.7,48.5,48.5V298.3z"/>
			</g>
		</g>
		<g>
			<g>
				<path fill="#DBDFE0" d="M183.8,181.3c36.5,3,65.7,32.1,68.6,68.6h12.2c-3-43.3-37.6-77.8-80.9-80.9V181.3z"/>
			</g>
			<g>
				<path fill="#DBDFE0" d="M103,249.9c3-36.5,32.1-65.7,68.6-68.6V169c-43.3,3-77.8,37.6-80.9,80.9H103z"/>
			</g>
			<g>
				<path fill="#DBDFE0" d="M171.6,330.8c-36.5-3-65.7-32.1-68.6-68.6H90.7c3,43.3,37.6,77.8,80.9,80.9V330.8z"/>
			</g>
			<g>
				<path fill="#DBDFE0" d="M252.5,262.1c-3,36.5-32.1,65.7-68.6,68.6V343c43.3-3,77.8-37.6,80.9-80.9H252.5z"/>
			</g>
		</g>
		<g>
			<g>
				<path fill="#DBDFE0" d="M183.8,145.7c56.1,3.1,101.1,48.1,104.2,104.2h12.2c-3.1-62.8-53.6-113.3-116.4-116.4V145.7z"/>
			</g>
			<g>
				<path fill="#DBDFE0" d="M67.4,249.9c3.1-56.1,48.1-101.1,104.2-104.2v-12.2C108.8,136.6,58.3,187,55.2,249.9H67.4z"/>
			</g>
			<g>
				<path fill="#DBDFE0" d="M171.6,366.3c-56.1-3.1-101.1-48.1-104.2-104.2H55.2c3.1,62.8,53.6,113.3,116.4,116.4V366.3z"/>
			</g>
			<g>
				<path fill="#DBDFE0" d="M288,262.1c-3.1,56.1-48.1,101.1-104.2,104.2v12.2c62.8-3.1,113.3-53.6,116.4-116.4H288z"/>
			</g>
		</g>
	</g>
	<g>
		<g>
			<g>
				<path fill="#DBDFE0" d="M440.5,185.3H393c-6.2,0-11.8-5.1-12.4-11.6l-3.9-38.8h80.1l-3.9,38.8
					C452.3,180.2,446.7,185.3,440.5,185.3z"/>
			</g>
			<g>
				<g>
					<g>
						<rect x="395.2" y="144.3" fill="#445C6C" width="4.6" height="14.9"/>
					</g>
					<g>
						<rect x="433.7" y="144.3" fill="#445C6C" width="4.6" height="14.9"/>
					</g>
				</g>
				<g>
					<rect x="409.1" y="166.9" fill="#445C6C" width="15.3" height="9"/>
				</g>
			</g>
		</g>
		<g>
			<g>
				<path fill="#DBDFE0" d="M440.5,262.8H393c-6.2,0-11.8-5.1-12.4-11.6l-3.9-38.8h80.1l-3.9,38.8
					C452.3,257.7,446.7,262.8,440.5,262.8z"/>
			</g>
			<g>
				<g>
					<g>
						<rect x="395.2" y="221.8" fill="#445C6C" width="4.6" height="14.9"/>
					</g>
					<g>
						<rect x="433.7" y="221.8" fill="#445C6C" width="4.6" height="14.9"/>
					</g>
				</g>
				<g>
					<rect x="409.1" y="244.4" fill="#445C6C" width="15.3" height="9"/>
				</g>
			</g>
		</g>
		<g>
			<path fill="#788D9A" d="M440,298.6h-46.6c-2.1,0-3.8,1.7-3.8,3.8v71c0,2.1,1.7,3.8,3.8,3.8H440c2.1,0,3.8-1.7,3.8-3.8v-71
				C443.8,300.3,442.1,298.6,440,298.6z"/>
		</g>
		<g>
			<rect x="404.9" y="315.2" fill="#445C6C" width="23.8" height="45.4"/>
		</g>
		<g>
			<rect x="404.9" y="315.2" fill="#516977" width="23.8" height="9.2"/>
		</g>
		<g>
			<rect x="404.9" y="324.4" fill="#2D434F" width="23.8" height="13.5"/>
		</g>
		<g>
			<circle fill="#F1786B" cx="337.6" cy="342.7" r="11.5"/>
		</g>
	</g>
</g>
</svg>
