<?xml version="1.0" encoding="utf-8"?>
<!-- Generator: Adobe Illustrator 18.0.0, SVG Export Plug-In . SVG Version: 6.00 Build 0)  -->
<!DOCTYPE svg PUBLIC "-//W3C//DTD SVG 1.1//EN" "http://www.w3.org/Graphics/SVG/1.1/DTD/svg11.dtd">
<svg version="1.1" id="Layer_1" xmlns="http://www.w3.org/2000/svg" xmlns:xlink="http://www.w3.org/1999/xlink" x="0px" y="0px"
	 viewBox="0 0 512 512" enable-background="new 0 0 512 512" xml:space="preserve">
<g>
	<g>
		<path fill="#E39A61" d="M326.2,463.4c-10.9-28.2-38.2-48.2-70.2-48.2s-59.3,20-70.2,48.2H326.2z"/>
	</g>
	<g>
		<path fill="#F0B972" d="M326.2,356.2c0,51.5-31.4,84-70.2,84s-70.2-32.5-70.2-84s31.4-102.5,70.2-102.5S326.2,304.7,326.2,356.2z"
			/>
	</g>
	<g>
		<path fill="#E39A61" d="M320.6,318.1c-10.7-35.9-35.6-64.3-64.6-64.3c-29,0-53.8,28.5-64.6,64.3H320.6z"/>
	</g>
	<g>
		<path fill="#FBD984" d="M381.6,461.8H130.4c-26.6,0-48.2,21.6-48.2,48.2h347.4C429.7,483.4,408.2,461.8,381.6,461.8z"/>
	</g>
	<g>
		<path fill="#FFE4A9" d="M130.4,472.8h251.1c22.8,0,41.8,15.9,46.8,37.2h1.4c0-26.6-21.6-48.2-48.2-48.2H130.4
			c-26.6,0-48.2,21.6-48.2,48.2h1.4C88.6,488.7,107.6,472.8,130.4,472.8z"/>
	</g>
	<g>
		<polygon fill="#F1786B" points="475.3,293.8 36.7,293.8 157.8,2 354.2,2 		"/>
	</g>
	<g>
		<g>
			<polygon fill="#D45947" points="84.1,293.8 169.9,6.8 58.2,293.8 			"/>
		</g>
		<g>
			<polygon fill="#D45947" points="136.9,293.8 194.5,6.8 111,293.8 			"/>
		</g>
		<g>
			<polygon fill="#D45947" points="189.7,293.8 219.1,6.8 163.8,293.8 			"/>
		</g>
		<g>
			<polygon fill="#D45947" points="242.6,293.8 243.7,6.8 216.6,293.8 			"/>
		</g>
		<g>
			<polygon fill="#D45947" points="295.4,293.8 268.3,6.8 269.4,293.8 			"/>
		</g>
		<g>
			<polygon fill="#D45947" points="348.2,293.8 292.9,6.8 322.3,293.8 			"/>
		</g>
		<g>
			<polygon fill="#D45947" points="401,293.8 317.5,6.8 375.1,293.8 			"/>
		</g>
		<g>
			<polygon fill="#D45947" points="453.8,293.8 342.1,6.8 427.9,293.8 			"/>
		</g>
	</g>
</g>
</svg>
