<?xml version="1.0" encoding="utf-8"?>
<!-- Generator: Adobe Illustrator 18.0.0, SVG Export Plug-In . SVG Version: 6.00 Build 0)  -->
<!DOCTYPE svg PUBLIC "-//W3C//DTD SVG 1.1//EN" "http://www.w3.org/Graphics/SVG/1.1/DTD/svg11.dtd">
<svg version="1.1" id="Layer_1" xmlns="http://www.w3.org/2000/svg" xmlns:xlink="http://www.w3.org/1999/xlink" x="0px" y="0px"
	 viewBox="0 0 512 512" enable-background="new 0 0 512 512" xml:space="preserve">
<g>
	<g>
		<g>
			<circle fill="#FBD984" cx="256" cy="182.5" r="180.5"/>
		</g>
	</g>
	<g>
		<path fill="#FFE4A9" d="M256,15.6c97.4,0,176.8,77.2,180.3,173.7c0.1-2.3,0.2-4.5,0.2-6.8C436.5,82.8,355.7,2,256,2
			C156.3,2,75.5,82.8,75.5,182.5c0,2.3,0.1,4.5,0.2,6.8C79.2,92.7,158.6,15.6,256,15.6z"/>
	</g>
	<g>
		<g>
			<path fill="#788D9A" d="M226.2,486.5v12.7c0,6,4.8,10.8,10.8,10.8H275c6,0,10.8-4.8,10.8-10.8v-12.7H226.2z"/>
		</g>
	</g>
	<g>
		<g>
			<rect x="174" y="342.7" fill="#DBDFE0" width="164" height="113.1"/>
		</g>
	</g>
	<g>
		<g>
			<path fill="#DBDFE0" d="M174,455.7v5.3c0,19,36.7,34.5,82,34.5s82-15.4,82-34.5v-5.3H174z"/>
		</g>
	</g>
	<g>
		<g>
			<g>
				<path fill="#788D9A" d="M341.9,353.9H170.1c-4.4,0-7.9,3.3-7.9,7.3c0,4,3.5,7.3,7.9,7.3h171.9c4.4,0,7.9-3.3,7.9-7.3
					C349.9,357.2,346.3,353.9,341.9,353.9z"/>
			</g>
		</g>
		<g>
			<g>
				<path fill="#788D9A" d="M341.9,379.2H170.1c-4.4,0-7.9,3.3-7.9,7.3c0,4,3.5,7.3,7.9,7.3h171.9c4.4,0,7.9-3.3,7.9-7.3
					C349.9,382.5,346.3,379.2,341.9,379.2z"/>
			</g>
		</g>
		<g>
			<g>
				<path fill="#788D9A" d="M341.9,404.6H170.1c-4.4,0-7.9,3.3-7.9,7.3c0,4,3.5,7.3,7.9,7.3h171.9c4.4,0,7.9-3.3,7.9-7.3
					C349.9,407.8,346.3,404.6,341.9,404.6z"/>
			</g>
		</g>
		<g>
			<g>
				<path fill="#788D9A" d="M341.9,429.9H170.1c-4.4,0-7.9,3.3-7.9,7.3c0,4,3.5,7.3,7.9,7.3h171.9c4.4,0,7.9-3.3,7.9-7.3
					C349.9,433.2,346.3,429.9,341.9,429.9z"/>
			</g>
		</g>
	</g>
	<g>
		<polygon fill="#FFFFFF" points="334.3,140.6 324.3,130.6 291.7,163.2 256,127.6 220.3,163.2 187.7,130.6 177.7,140.6 220.3,183.3 
			248.9,154.8 248.9,342.7 263.1,342.7 263.1,154.8 291.7,183.3 		"/>
	</g>
</g>
</svg>
