<?xml version="1.0" encoding="utf-8"?>
<!-- Generator: Adobe Illustrator 18.0.0, SVG Export Plug-In . SVG Version: 6.00 Build 0)  -->
<!DOCTYPE svg PUBLIC "-//W3C//DTD SVG 1.1//EN" "http://www.w3.org/Graphics/SVG/1.1/DTD/svg11.dtd">
<svg version="1.1" id="Layer_1" xmlns="http://www.w3.org/2000/svg" xmlns:xlink="http://www.w3.org/1999/xlink" x="0px" y="0px"
	 viewBox="0 0 512 512" enable-background="new 0 0 512 512" xml:space="preserve">
<g>
	<g>
		<path fill="#EFF3F5" d="M510,15.4C510,8,504,2,496.6,2H15.4C8,2,2,8,2,15.4v102.8h508V15.4z"/>
	</g>
	<g>
		<path fill="#DBDFE0" d="M2,118.2v378.5C2,504,8,510,15.4,510h481.3c7.4,0,13.4-6,13.4-13.4V118.2H2z"/>
	</g>
	<g>
		<circle fill="#C9C9C9" cx="256" cy="328.5" r="135.8"/>
	</g>
	<g>
		<circle fill="#445C6C" cx="256" cy="314.1" r="135.8"/>
	</g>
	<g>
		<circle fill="#41B3E2" cx="256" cy="314.1" r="91.2"/>
	</g>
	<g>
		<rect x="175.8" y="38.4" fill="#5AC8AE" width="160.3" height="43.5"/>
	</g>
	<g>
		<g>
			<circle fill="#788D9A" cx="67.8" cy="60.1" r="22.4"/>
		</g>
		<g>
			<circle fill="#788D9A" cx="444.2" cy="60.1" r="22.4"/>
		</g>
	</g>
	<g>
		<path fill="#54C9ED" d="M256,222.9c-1.1,0-2.2,0-3.2,0.1l-86.4,107.6c3.8,20.7,14.6,39,29.9,52.3l114.1-142
			C295.1,229.6,276.3,222.9,256,222.9z"/>
	</g>
	<g>
		<path fill="#54C9ED" d="M231.4,401.9l105-130.7c-3-5.6-6.6-10.9-10.6-15.7l-112,139.4C219.4,397.8,225.3,400.1,231.4,401.9z"/>
	</g>
</g>
</svg>
