<?xml version="1.0" encoding="utf-8"?>
<!-- Generator: Adobe Illustrator 18.0.0, SVG Export Plug-In . SVG Version: 6.00 Build 0)  -->
<!DOCTYPE svg PUBLIC "-//W3C//DTD SVG 1.1//EN" "http://www.w3.org/Graphics/SVG/1.1/DTD/svg11.dtd">
<svg version="1.1" id="Layer_1" xmlns="http://www.w3.org/2000/svg" xmlns:xlink="http://www.w3.org/1999/xlink" x="0px" y="0px"
	 viewBox="0 0 512 512" enable-background="new 0 0 512 512" xml:space="preserve">
<g>
	<g>
		<path fill="#41B3E2" d="M360.1,510H4.6c-1.4,0-2.6-1.2-2.6-2.6v-466c0-1.4,1.2-2.6,2.6-2.6h355.6c1.4,0,2.6,1.2,2.6,2.6v466
			C362.7,508.8,361.6,510,360.1,510z"/>
	</g>
	<g>
		<path fill="#50CAEF" d="M362.7,59.3v15.9c0-11.3-9.1-20.5-20.5-20.5H22.4C11.2,54.7,2,63.9,2,75.2V59.3c0-11.3,9.1-20.5,20.4-20.5
			h319.8C353.6,38.9,362.7,48.1,362.7,59.3z"/>
	</g>
	<g>
		<rect x="37.6" y="74.5" fill="#EFF3F5" width="289.5" height="146.6"/>
	</g>
	<g>
		<g>
			<circle fill="#445C6C" cx="182.4" cy="365.6" r="94.6"/>
		</g>
		<g>
			<g>
				<circle fill="#FBD984" cx="182.4" cy="365.6" r="80.4"/>
			</g>
			<g>
				<path fill="#FDC77C" d="M226.5,298.4c-32,42.1-69.1,79.2-111.3,111.3c6,9.1,13.9,17,23,23c32-42.1,69.1-79.2,111.3-111.3
					C243.5,312.3,235.6,304.4,226.5,298.4z"/>
			</g>
		</g>
	</g>
	<g>
		<circle fill="#D45947" cx="44.6" cy="477.4" r="16.9"/>
	</g>
	<g>
		<circle fill="#FBD984" cx="88.9" cy="477.4" r="16.9"/>
	</g>
	<g>
		<rect x="483.4" y="2" fill="#DBDFE0" width="7.9" height="137.8"/>
	</g>
	<g>
		<path fill="#F1786B" d="M468.5,147.7V168c5.5,7.2,8.5,16.1,8.5,25.2v46.5h20.6v-46.5c0-9.1,3-18,8.5-25.2v-20.3H468.5z"/>
	</g>
	<g>
		<path fill="#D45947" d="M510,143.8c0,2.1-1.7,3.9-3.8,3.9h-37.7c-2.1,0-3.8-1.8-3.8-3.9c0-2.1,1.7-3.9,3.8-3.9h37.7
			C508.3,139.9,510,141.6,510,143.8z"/>
	</g>
	<g>
		<g>
			<g>
				<path fill="#788D9A" d="M470.9,472.3h-92.5v-13.4h92.5c5.4,0,9.8-4.4,9.8-9.8V239.7H494v209.4
					C494,461.9,483.7,472.3,470.9,472.3z"/>
			</g>
		</g>
	</g>
	<g>
		<rect x="378.4" y="458.9" fill="#304954" width="5.4" height="13.4"/>
	</g>
	<g>
		<g>
			<rect x="411.7" y="2" fill="#DBDFE0" width="8.9" height="137.8"/>
		</g>
	</g>
	<g>
		<path fill="#5AC8AE" d="M397.4,147.7V168c5.5,7.2,8.5,16.1,8.5,25.2v46.5h20.6v-46.5c0-9.1,3-18,8.5-25.2v-20.3H397.4z"/>
	</g>
	<g>
		<rect x="468.5" y="147.7" fill="#BF4336" width="37.7" height="5.9"/>
	</g>
	<g>
		<rect x="397.4" y="147.7" fill="#388981" width="37.7" height="5.9"/>
	</g>
	<g>
		<g>
			<path fill="#52AFA8" d="M438.9,143.8c0,2.1-1.7,3.9-3.8,3.9h-37.7c-2.1,0-3.8-1.8-3.8-3.9c0-2.1,1.7-3.9,3.8-3.9H435
				C437.2,139.9,438.9,141.6,438.9,143.8z"/>
		</g>
	</g>
	<g>
		<g>
			<path fill="#788D9A" d="M399.8,411.7h-21.3v-13.4h21.3c5.4,0,9.8-4.4,9.8-9.8V239.7h13.4v148.8
				C422.9,401.3,412.5,411.7,399.8,411.7z"/>
		</g>
		<g>
			<rect x="362.7" y="390.1" fill="#445C6C" width="15.7" height="29.8"/>
		</g>
		<g>
			<rect x="378.4" y="398.3" fill="#304954" width="5.4" height="13.4"/>
		</g>
		<g>
			<rect x="362.7" y="450.7" fill="#445C6C" width="15.7" height="29.8"/>
		</g>
	</g>
	<g>
		<g>
			<polygon fill="#FFFFFF" points="146.6,74.5 37.6,183.5 37.6,205.9 169,74.5 			"/>
		</g>
		<g>
			<polygon fill="#FFFFFF" points="205.6,74.5 59,221.1 92.6,221.1 239.3,74.5 			"/>
		</g>
	</g>
</g>
</svg>
