<?xml version="1.0" encoding="utf-8"?>
<!-- Generator: Adobe Illustrator 18.0.0, SVG Export Plug-In . SVG Version: 6.00 Build 0)  -->
<!DOCTYPE svg PUBLIC "-//W3C//DTD SVG 1.1//EN" "http://www.w3.org/Graphics/SVG/1.1/DTD/svg11.dtd">
<svg version="1.1" id="Layer_1" xmlns="http://www.w3.org/2000/svg" xmlns:xlink="http://www.w3.org/1999/xlink" x="0px" y="0px"
	 viewBox="0 0 512 512" enable-background="new 0 0 512 512" xml:space="preserve">
<g>
	<g>
		<rect x="174.1" y="2" fill="#DBDFE0" width="163.8" height="142.8"/>
	</g>
	<g>
		<rect x="174.1" y="2" fill="#CECECE" width="163.8" height="9.6"/>
	</g>
	<g>
		<rect x="143.6" y="144.8" fill="#445C6C" width="224.8" height="236.8"/>
	</g>
	<g>
		<polygon fill="#304551" points="368.4,381.7 143.6,381.7 182.7,413 329.3,413 		"/>
	</g>
	<g>
		<rect x="143.6" y="144.8" fill="#546D7A" width="224.8" height="12.5"/>
	</g>
	<g>
		<g>
			<rect x="204" y="53.1" fill="#788D9A" width="27.9" height="40.7"/>
		</g>
		<g>
			<rect x="280.1" y="53.1" fill="#788D9A" width="27.9" height="40.7"/>
		</g>
	</g>
	<g>
		<path fill="#445C6C" d="M182.8,413v23.5c0,17,13.8,30.9,30.9,30.9h84.6c17,0,30.9-13.8,30.9-30.9V413H182.8z"/>
	</g>
	<g>
		<rect x="223.8" y="467.4" fill="#F1786B" width="64.4" height="42.6"/>
	</g>
	<g>
		<path fill="#DBDFE0" d="M303.9,208.3H278v25.8h9.1V251l-27,18.1v-67.9h11l-14.9-29.7l-14.9,29.7h11v90.9l-27-18.1v-31.2
			c5.5-1.7,9.5-6.7,9.5-12.7c0-7.4-6-13.4-13.4-13.4c-7.4,0-13.4,6-13.4,13.4c0,6,4,11.1,9.5,12.7v35.3l34.7,23.2v7.8
			c-10.9,1.8-19.3,11.3-19.3,22.8c0,12.8,10.3,23.1,23.1,23.1c12.8,0,23.1-10.3,23.1-23.1c0-11.5-8.3-20.9-19.3-22.8v-30.9
			l34.7-23.2v-21h9.1V208.3z"/>
	</g>
</g>
</svg>
