<?xml version="1.0" encoding="utf-8"?>
<!-- Generator: Adobe Illustrator 18.0.0, SVG Export Plug-In . SVG Version: 6.00 Build 0)  -->
<!DOCTYPE svg PUBLIC "-//W3C//DTD SVG 1.1//EN" "http://www.w3.org/Graphics/SVG/1.1/DTD/svg11.dtd">
<svg version="1.1" id="Layer_1" xmlns="http://www.w3.org/2000/svg" xmlns:xlink="http://www.w3.org/1999/xlink" x="0px" y="0px"
	 viewBox="0 0 512 512" enable-background="new 0 0 512 512" xml:space="preserve">
<g>
	<g>
		<g>
			<g>
				<path fill="#445C6C" d="M88.9,301.5c0-2.4-3.2-4.5-7.6-5.3v-1.8c4.4-0.8,7.6-2.8,7.6-5.3c0-3.1-5.1-5.6-11.4-5.6
					S66,286,66,289.1c0,2.4,3.2,4.5,7.6,5.3v1.8c-4.4,0.8-7.6,2.8-7.6,5.3c0,2.4,3.2,4.5,7.6,5.3v1.8c-4.4,0.8-7.6,2.8-7.6,5.3
					c0,3.1,5.1,5.6,11.4,5.6s11.4-2.5,11.4-5.6c0-2.4-3.2-4.5-7.6-5.3v-1.8C85.7,306,88.9,303.9,88.9,301.5z"/>
			</g>
		</g>
		<g>
			<g>
				<path fill="#445C6C" d="M446,301.5c0-2.4-3.2-4.5-7.6-5.3v-1.8c4.4-0.8,7.6-2.8,7.6-5.3c0-3.1-5.1-5.6-11.4-5.6
					s-11.4,2.5-11.4,5.6c0,2.4,3.2,4.5,7.6,5.3v1.8c-4.4,0.8-7.6,2.8-7.6,5.3c0,2.4,3.2,4.5,7.6,5.3v1.8c-4.4,0.8-7.6,2.8-7.6,5.3
					c0,3.1,5.1,5.6,11.4,5.6s11.4-2.5,11.4-5.6c0-2.4-3.2-4.5-7.6-5.3v-1.8C442.8,306,446,303.9,446,301.5z"/>
			</g>
		</g>
	</g>
	<g>
		<g>
			<g>
				<path fill="#445C6C" d="M123.6,153.5c0-2.4-3.2-4.5-7.6-5.3v-1.8c4.4-0.8,7.6-2.8,7.6-5.3c0-3.1-5.1-5.6-11.4-5.6
					s-11.4,2.5-11.4,5.6c0,2.4,3.2,4.5,7.6,5.3v1.8c-4.4,0.8-7.6,2.8-7.6,5.3c0,2.4,3.2,4.5,7.6,5.3v1.8c-4.4,0.8-7.6,2.8-7.6,5.3
					c0,3.1,5.1,5.6,11.4,5.6s11.4-2.5,11.4-5.6c0-2.4-3.2-4.5-7.6-5.3v-1.8C120.4,158,123.6,155.9,123.6,153.5z"/>
			</g>
		</g>
		<g>
			<g>
				<path fill="#445C6C" d="M411.3,153.5c0-2.4-3.2-4.5-7.6-5.3v-1.8c4.4-0.8,7.6-2.8,7.6-5.3c0-3.1-5.1-5.6-11.4-5.6
					s-11.4,2.5-11.4,5.6c0,2.4,3.2,4.5,7.6,5.3v1.8c-4.4,0.8-7.6,2.8-7.6,5.3c0,2.4,3.2,4.5,7.6,5.3v1.8c-4.4,0.8-7.6,2.8-7.6,5.3
					c0,3.1,5.1,5.6,11.4,5.6s11.4-2.5,11.4-5.6c0-2.4-3.2-4.5-7.6-5.3v-1.8C408.1,158,411.3,155.9,411.3,153.5z"/>
			</g>
		</g>
	</g>
	<g>
		<path fill="#788D9A" d="M88.5,459.7h16.1l2.1-8.9L256,352l149.2,98.8l2.1,8.9h16.1l-44.2-184.3h74.2v-57l-92-17l-17.8-74.2h74.8
			V70.6l-94.2-24.4L313.6,2H198.4l-10.6,44.2L93.5,70.6v56.6h74.8l-17.8,74.2l-92,17v57h74.2L88.5,459.7z M112.1,428.5l35.6-148.2
			l94.1,62.3L112.1,428.5z M168.7,275.4h174.6L256,333.2L168.7,275.4z M301,127.2l-43.5,22.1l-45.3-22.1H301z M216.5,111.5L256,69.1
			l39.5,42.5H216.5z M328.4,130.8l14.4,60.1l-67.7-33L328.4,130.8z M257.6,166.8l71,34.6H189.4L257.6,166.8z M300.6,231.8l27.9,27.9
			h-55.8L300.6,231.8z M256,254.4L218.7,217h74.6L256,254.4z M239.2,259.7h-55.8l27.9-27.9L239.2,259.7z M437.8,231.3v26.2
			L405.2,225L437.8,231.3z M417.8,259.7h-42.4l-2.6-10.8l17.1-17.1L417.8,259.7z M379.6,220l-11.1,11.1l-3.3-13.8L379.6,220z
			 M364.3,280.3l35.6,148.2l-129.7-85.9L364.3,280.3z M349.1,217l6.5,27l-10.3,10.3L308,217H349.1z M402.8,82.7v16l-28-23.3
			L402.8,82.7z M393.7,111.5h-76l38-31.6L393.7,111.5z M319,61l26.6,6.9l-39.1,32.5L269.9,61H319z M210.7,17.7h90.5l6.7,27.7H204.1
			L210.7,17.7z M193,61h49.1l-36.6,39.4l-39.1-32.5L193,61z M109.2,82.7l28-7.2l-28,23.3V82.7z M118.3,111.5l38-31.6l38,31.6H118.3z
			 M183.6,130.7l56.4,27.5l-71.7,36.4L183.6,130.7z M147.6,217H204l-37.3,37.3L132.4,220L147.6,217z M74.2,231.3l32.6-6.3
			l-32.6,32.6V231.3z M94.2,259.7l27.9-27.9l27.9,27.9H94.2z"/>
	</g>
	<g>
		<g>
			<g>
				<polygon fill="#DBDFE0" points="139.1,510 43.7,510 59.4,459.3 130,459.3 				"/>
			</g>
		</g>
		<g>
			<g>
				<polygon fill="#DBDFE0" points="372.9,510 468.3,510 452.6,459.3 382,459.3 				"/>
			</g>
		</g>
	</g>
</g>
</svg>
