<?xml version="1.0" encoding="utf-8"?>
<!-- Generator: Adobe Illustrator 18.0.0, SVG Export Plug-In . SVG Version: 6.00 Build 0)  -->
<!DOCTYPE svg PUBLIC "-//W3C//DTD SVG 1.1//EN" "http://www.w3.org/Graphics/SVG/1.1/DTD/svg11.dtd">
<svg version="1.1" id="Layer_1" xmlns="http://www.w3.org/2000/svg" xmlns:xlink="http://www.w3.org/1999/xlink" x="0px" y="0px"
	 viewBox="0 0 512 512" enable-background="new 0 0 512 512" xml:space="preserve">
<g>
	<g>
		<rect x="190.1" y="207.8" fill="#788D9A" width="131.7" height="227.5"/>
	</g>
	<g>
		<path fill="#F1786B" d="M190.1,435.3v52c0,12.6,10.2,22.7,22.7,22.7h86.3c12.5,0,22.7-10.2,22.7-22.7v-52H190.1z"/>
	</g>
	<g>
		<rect x="127.4" y="2" fill="#EFF3F5" width="257.2" height="47.2"/>
	</g>
	<g>
		<rect x="127.4" y="49.2" fill="#F1786B" width="257.2" height="64.3"/>
	</g>
	<g>
		<polygon fill="#D45947" points="321.7,207.8 190.3,207.8 127.4,113.5 384.6,113.5 		"/>
	</g>
	<g>
		<path fill="#EFF3F5" d="M256,269.8c-13.3,0-24.1,10.8-24.1,24.1v59.8c0,13.3,10.8,24.1,24.1,24.1c13.3,0,24.1-10.8,24.1-24.1V294
			C280.1,280.6,269.3,269.8,256,269.8z"/>
	</g>
	<g>
		<circle fill="#F1786B" cx="256" cy="334.5" r="24.3"/>
	</g>
	<g>
		<g>
			<rect x="190.1" y="441.8" fill="#D45947" width="131.7" height="8.6"/>
		</g>
		<g>
			<rect x="190.1" y="459.7" fill="#D45947" width="131.7" height="8.6"/>
		</g>
		<g>
			<rect x="190.1" y="477.7" fill="#D45947" width="131.7" height="8.6"/>
		</g>
	</g>
	<g>
		<g>
			<path fill="#FF928A" d="M146.5,53.8c-2.8,0-5,2.2-5,5v45.1c0,2.8,2.2,5,5,5c2.8,0,5-2.2,5-5V58.8C151.5,56,149.3,53.8,146.5,53.8
				z"/>
		</g>
		<g>
			<path fill="#FF928A" d="M170.9,53.8c-2.8,0-5,2.2-5,5v45.1c0,2.8,2.2,5,5,5c2.8,0,5-2.2,5-5V58.8C175.8,56,173.6,53.8,170.9,53.8
				z"/>
		</g>
		<g>
			<path fill="#FF928A" d="M195.2,53.8c-2.8,0-5,2.2-5,5v45.1c0,2.8,2.2,5,5,5c2.8,0,5-2.2,5-5V58.8C200.2,56,197.9,53.8,195.2,53.8
				z"/>
		</g>
		<g>
			<path fill="#FF928A" d="M219.5,53.8c-2.8,0-5,2.2-5,5v45.1c0,2.8,2.2,5,5,5c2.8,0,5-2.2,5-5V58.8C224.5,56,222.3,53.8,219.5,53.8
				z"/>
		</g>
		<g>
			<path fill="#FF928A" d="M243.8,53.8c-2.8,0-5,2.2-5,5v45.1c0,2.8,2.2,5,5,5c2.8,0,5-2.2,5-5V58.8C248.8,56,246.6,53.8,243.8,53.8
				z"/>
		</g>
		<g>
			<path fill="#FF928A" d="M268.2,53.8c-2.8,0-5,2.2-5,5v45.1c0,2.8,2.2,5,5,5c2.8,0,5-2.2,5-5V58.8C273.1,56,270.9,53.8,268.2,53.8
				z"/>
		</g>
		<g>
			<path fill="#FF928A" d="M292.5,53.8c-2.8,0-5,2.2-5,5v45.1c0,2.8,2.2,5,5,5c2.8,0,5-2.2,5-5V58.8C297.5,56,295.2,53.8,292.5,53.8
				z"/>
		</g>
		<g>
			<path fill="#FF928A" d="M316.8,53.8c-2.8,0-5,2.2-5,5v45.1c0,2.8,2.2,5,5,5c2.8,0,5-2.2,5-5V58.8C321.8,56,319.6,53.8,316.8,53.8
				z"/>
		</g>
		<g>
			<path fill="#FF928A" d="M341.1,53.8c-2.8,0-5,2.2-5,5v45.1c0,2.8,2.2,5,5,5c2.8,0,5-2.2,5-5V58.8C346.1,56,343.9,53.8,341.1,53.8
				z"/>
		</g>
		<g>
			<path fill="#FF928A" d="M365.5,53.8c-2.8,0-5,2.2-5,5v45.1c0,2.8,2.2,5,5,5c2.8,0,5-2.2,5-5V58.8C370.5,56,368.2,53.8,365.5,53.8
				z"/>
		</g>
	</g>
</g>
</svg>
