<?xml version="1.0" encoding="utf-8"?>
<!-- Generator: Adobe Illustrator 18.0.0, SVG Export Plug-In . SVG Version: 6.00 Build 0)  -->
<!DOCTYPE svg PUBLIC "-//W3C//DTD SVG 1.1//EN" "http://www.w3.org/Graphics/SVG/1.1/DTD/svg11.dtd">
<svg version="1.1" id="Layer_1" xmlns="http://www.w3.org/2000/svg" xmlns:xlink="http://www.w3.org/1999/xlink" x="0px" y="0px"
	 viewBox="0 0 512 512" enable-background="new 0 0 512 512" xml:space="preserve">
<g>
	<g>
		<g>
			<path fill="#5AC8AE" d="M76.3,253.5c0,0-124.7,70.7-51,183.7c72.9,111.9,237.6,29.9,237.6,29.9s-113-18.6-109.8-78.5
				C156.9,315.8,166.9,284.6,76.3,253.5z"/>
		</g>
		<g>
			<path fill="#FBD984" d="M92.2,222.2c0,0-79.7,175.4,40.2,237.3c0,0-128.5-27.4-54.4-237.3H92.2z"/>
		</g>
	</g>
	<g>
		<g>
			<path fill="#5AC8AE" d="M311.8,461c0,0,124,71.9,184.4-48.7c59.8-119.5-94.1-220.2-94.1-220.2s41,106.9-12.4,134.5
				C325,359.9,293,367.1,311.8,461z"/>
		</g>
		<g>
			<path fill="#FBD984" d="M276.9,463c0,0,191.7-19.7,184.5-154.5c0,0,41.2,124.7-177.4,166.8L276.9,463z"/>
		</g>
	</g>
	<g>
		<g>
			<path fill="#5AC8AE" d="M372,161.2c0,0,11.3-142.9-123.5-145.3c-133.6-2.4-157.9,180-157.9,180s78.7-83.1,126.6-46.9
				C275.1,193,295.4,218.8,372,161.2z"/>
		</g>
		<g>
			<path fill="#FBD984" d="M388.9,191.9c0,0-100.6-164.4-219-99.8c0,0,94.7-91,227,88L388.9,191.9z"/>
		</g>
	</g>
</g>
</svg>
