<?xml version="1.0" encoding="utf-8"?>
<!-- Generator: Adobe Illustrator 18.0.0, SVG Export Plug-In . SVG Version: 6.00 Build 0)  -->
<!DOCTYPE svg PUBLIC "-//W3C//DTD SVG 1.1//EN" "http://www.w3.org/Graphics/SVG/1.1/DTD/svg11.dtd">
<svg version="1.1" id="Layer_1" xmlns="http://www.w3.org/2000/svg" xmlns:xlink="http://www.w3.org/1999/xlink" x="0px" y="0px"
	 viewBox="0 0 512 512" enable-background="new 0 0 512 512" xml:space="preserve">
<g>
	<g>
		<path fill="#EFF3F5" d="M449.9,122.1H319.6l-41.8-41.8l50.4-50.4c8.2-8.1,21.3-8.1,29.5,0L449.9,122.1z"/>
	</g>
	<g>
		<path fill="#DBDFE0" d="M319.6,122.1l-114-114c-8.1-8.1-21.3-8.1-29.4,0l-114,114H319.6z"/>
	</g>
	<g>
		<polygon fill="#41B3E2" points="440.9,439.8 71.1,439.8 28.6,169.1 483.4,169.1 		"/>
	</g>
	<g>
		<polygon fill="#41B3E2" points="440.9,439.8 71.1,439.8 28.6,169.1 483.4,169.1 		"/>
	</g>
	<g>
		<path fill="#445C6C" d="M117.1,347.8c-21.7,0-41.6,7.6-57.3,20.2l11.3,71.9h138.1v0C209.2,389.2,167.9,347.8,117.1,347.8z"/>
	</g>
	<g>
		<path fill="#445C6C" d="M452.2,368c-15.7-12.6-35.7-20.2-57.4-20.2c-50.7,0-91.9,41.4-91.9,92.1v0h138L452.2,368z"/>
	</g>
	<g>
		<polygon fill="#379FC8" points="479.7,192.7 483.4,169.1 28.6,169.1 32.3,192.7 		"/>
	</g>
	<g>
		<rect x="22.5" y="420.2" fill="#445C6C" width="467.1" height="39.3"/>
	</g>
	<g>
		<g>
			<g>
				<path fill="#788D9A" d="M117.1,510C78.5,510,47,478.5,47,439.8s31.5-70.2,70.2-70.2c38.7,0,70.2,31.5,70.2,70.2
					S155.8,510,117.1,510z"/>
			</g>
		</g>
		<g>
			<g>
				<path fill="#DBDFE0" d="M117.1,470.7c-17,0-30.9-13.9-30.9-30.9s13.9-30.9,30.9-30.9c17,0,30.9,13.9,30.9,30.9
					S134.2,470.7,117.1,470.7z"/>
			</g>
		</g>
	</g>
	<g>
		<g>
			<g>
				<path fill="#788D9A" d="M394.9,510c-38.7,0-70.2-31.5-70.2-70.2s31.5-70.2,70.2-70.2c38.7,0,70.2,31.5,70.2,70.2
					S433.5,510,394.9,510z"/>
			</g>
		</g>
		<g>
			<g>
				<path fill="#DBDFE0" d="M394.9,470.7c-17,0-30.9-13.9-30.9-30.9s13.9-30.9,30.9-30.9c17,0,30.9,13.9,30.9,30.9
					S411.9,470.7,394.9,470.7z"/>
			</g>
		</g>
	</g>
	<g>
		<g>
			<path fill="#F1786B" d="M509.9,145.7v-0.1c0-12.9-10.5-23.4-23.4-23.4H25.5c-12.9,0-23.4,10.5-23.4,23.4v0.1
				c0,12.9,10.5,23.4,23.4,23.4h460.9C499.4,169.1,509.9,158.6,509.9,145.7z"/>
		</g>
	</g>
	<g>
		<g>
			<path fill="#FC877E" d="M509.9,145.6v0.1c0,2.2-0.3,4.5-1,6.5c-2.6-9.8-11.7-17-22.4-17H25.6c-10.7,0-19.8,7.2-22.4,17
				c-0.8-2.1-1-4.3-1-6.5v-0.1c0-13,10.5-23.4,23.4-23.4h460.8C499.4,122.1,509.9,132.6,509.9,145.6z"/>
		</g>
	</g>
</g>
</svg>
