<?xml version="1.0" encoding="utf-8"?>
<!-- Generator: Adobe Illustrator 18.0.0, SVG Export Plug-In . SVG Version: 6.00 Build 0)  -->
<!DOCTYPE svg PUBLIC "-//W3C//DTD SVG 1.1//EN" "http://www.w3.org/Graphics/SVG/1.1/DTD/svg11.dtd">
<svg version="1.1" id="Layer_1" xmlns="http://www.w3.org/2000/svg" xmlns:xlink="http://www.w3.org/1999/xlink" x="0px" y="0px"
	 viewBox="0 0 512 512" enable-background="new 0 0 512 512" xml:space="preserve">
<g>
	<g>
		<rect x="2" y="111.4" fill="#445C6C" width="508" height="289.2"/>
	</g>
	<g>
		<rect x="2" y="111.4" fill="#536C7A" width="508" height="9.2"/>
	</g>
	<g>
		<rect x="32.9" y="139.5" fill="#788D9A" width="171.4" height="111.2"/>
	</g>
	<g>
		<rect x="41.5" y="147.4" fill="#EFF3F5" width="154.1" height="95.4"/>
	</g>
	<g>
		<path fill="#41B3E2" d="M118.6,157.2c-23.9,0-46.1,8.9-60.7,24.5l11.3,10.6c11.6-12.3,30.1-19.7,49.5-19.7c7.6,0,15.1,1.1,22,3.3
			l4.9-14.7C137,158.6,127.9,157.2,118.6,157.2z"/>
	</g>
	<g>
		<path fill="#F1786B" d="M179.3,181.8c-8.9-9.5-20.6-16.5-33.8-20.5l-4.9,14.7c10.8,3.3,20.4,8.9,27.4,16.4L179.3,181.8z"/>
	</g>
	<g>
		<polygon fill="#445C6C" points="63.4,173.4 111.6,242.8 126.6,242.8 		"/>
	</g>
	<g>
		<rect x="40.1" y="305.7" fill="#788D9A" width="100.7" height="54.7"/>
	</g>
	<g>
		<rect x="48.6" y="312.8" fill="#445C6C" width="83.7" height="40.6"/>
	</g>
	<g>
		<rect x="53" y="316.6" fill="#D45947" width="74.9" height="33"/>
	</g>
	<g>
		<rect x="113.8" y="316.6" fill="#FF9A92" width="14.2" height="33"/>
	</g>
	<g>
		<rect x="53" y="316.6" fill="#F1786B" width="35" height="33"/>
	</g>
	<g>
		<g>
			<path fill="#788D9A" d="M337.8,375.1H247V136.9h90.8V375.1z M252.2,369.9h80.5V142.1h-80.5V369.9z"/>
		</g>
	</g>
	<g>
		<g>
			<path fill="#788D9A" d="M476.8,375.1H358.4V136.9h118.4V375.1z M363.6,369.9h108.1V142.1H363.6V369.9z"/>
		</g>
	</g>
	<g>
		<g>
			<g>
				<rect x="264.9" y="156.1" fill="#788D9A" width="54.9" height="54.9"/>
			</g>
			<g>
				<g>
					<g>
						<rect x="276.2" y="187.6" fill="#445C6C" width="5.6" height="14.9"/>
					</g>
					<g>
						<rect x="303" y="187.6" fill="#445C6C" width="5.6" height="14.9"/>
					</g>
				</g>
				<g>
					<rect x="286.1" y="164.7" fill="#445C6C" width="12.6" height="8.6"/>
				</g>
			</g>
		</g>
		<g>
			<g>
				<rect x="264.9" y="300.9" fill="#788D9A" width="54.9" height="54.9"/>
			</g>
			<g>
				<g>
					<g>
						<rect x="276.2" y="332.4" fill="#445C6C" width="5.6" height="14.9"/>
					</g>
					<g>
						<rect x="303" y="332.4" fill="#445C6C" width="5.6" height="14.9"/>
					</g>
				</g>
				<g>
					<rect x="286.1" y="309.5" fill="#445C6C" width="12.6" height="8.6"/>
				</g>
			</g>
		</g>
	</g>
	<g>
		<g>
			<rect x="264.9" y="228.5" fill="#788D9A" width="54.9" height="54.9"/>
		</g>
		<g>
			<g>
				<g>
					<rect x="276.2" y="260" fill="#445C6C" width="5.6" height="14.9"/>
				</g>
				<g>
					<rect x="303" y="260" fill="#445C6C" width="5.6" height="14.9"/>
				</g>
			</g>
			<g>
				<rect x="286.1" y="237.1" fill="#445C6C" width="12.6" height="8.6"/>
			</g>
		</g>
	</g>
	<g>
		<g>
			<g>
				<rect x="377.1" y="162" fill="#788D9A" width="80.9" height="80.9"/>
			</g>
			<g>
				<g>
					<g>
						<path fill="#445C6C" d="M399.6,215.8v4.5c-1.7-1-3.8-1.6-6.1-1.6c-5.4,0-9.8,3.2-9.8,7.1c0,3.9,4.4,7.1,9.8,7.1
							c2.3,0,4.4-0.6,6.1-1.6v4.5h9.6v-20.1H399.6z"/>
					</g>
					<g>
						<path fill="#445C6C" d="M435.6,235.9v-4.5c1.7,1,3.8,1.6,6.1,1.6c5.4,0,9.8-3.2,9.8-7.1c0-3.9-4.4-7.1-9.8-7.1
							c-2.3,0-4.4,0.6-6.1,1.6v-4.5l-9.6,0v20.1L435.6,235.9z"/>
					</g>
				</g>
				<g>
					<g>
						<path fill="#445C6C" d="M419.3,183.5c2.8-1.1,4.8-3.8,4.8-7c0-4.1-3.4-7.5-7.5-7.5c-4.1,0-7.5,3.4-7.5,7.5c0,3.2,2,5.9,4.8,7
							c-2.8,1.1-4.8,3.8-4.8,7c0,4.1,3.4,7.5,7.5,7.5c4.1,0,7.5-3.4,7.5-7.5C424.2,187.3,422.2,184.6,419.3,183.5z"/>
					</g>
				</g>
			</g>
		</g>
		<g>
			<g>
				<rect x="377.1" y="269.1" fill="#788D9A" width="80.9" height="80.9"/>
			</g>
			<g>
				<g>
					<g>
						<path fill="#445C6C" d="M399.6,322.9v4.5c-1.7-1-3.8-1.6-6.1-1.6c-5.4,0-9.8,3.2-9.8,7.1c0,3.9,4.4,7.1,9.8,7.1
							c2.3,0,4.4-0.6,6.1-1.6v4.5h9.6v-20.1H399.6z"/>
					</g>
					<g>
						<path fill="#445C6C" d="M435.6,343v-4.5c1.7,1,3.8,1.6,6.1,1.6c5.4,0,9.8-3.2,9.8-7.1c0-3.9-4.4-7.1-9.8-7.1
							c-2.3,0-4.4,0.6-6.1,1.6v-4.5l-9.6,0V343L435.6,343z"/>
					</g>
				</g>
				<g>
					<g>
						<path fill="#445C6C" d="M419.3,290.6c2.8-1.1,4.8-3.8,4.8-7c0-4.1-3.4-7.5-7.5-7.5c-4.1,0-7.5,3.4-7.5,7.5c0,3.2,2,5.9,4.8,7
							c-2.8,1.1-4.8,3.8-4.8,7c0,4.1,3.4,7.5,7.5,7.5c4.1,0,7.5-3.4,7.5-7.5C424.2,294.4,422.2,291.7,419.3,290.6z"/>
					</g>
				</g>
			</g>
		</g>
	</g>
	<g>
		<circle fill="#2E4551" cx="190.2" cy="333.1" r="20.2"/>
	</g>
</g>
</svg>
