<?xml version="1.0" encoding="utf-8"?>
<!-- Generator: Adobe Illustrator 18.0.0, SVG Export Plug-In . SVG Version: 6.00 Build 0)  -->
<!DOCTYPE svg PUBLIC "-//W3C//DTD SVG 1.1//EN" "http://www.w3.org/Graphics/SVG/1.1/DTD/svg11.dtd">
<svg version="1.1" id="Layer_1" xmlns="http://www.w3.org/2000/svg" xmlns:xlink="http://www.w3.org/1999/xlink" x="0px" y="0px"
	 viewBox="0 0 512 512" enable-background="new 0 0 512 512" xml:space="preserve">
<g>
	<g>
		<g>
			
				<rect x="428.1" y="331.4" transform="matrix(0.7714 -0.6364 0.6364 0.7714 -141.0637 377.6104)" fill="#788D9A" width="53.8" height="107.5"/>
		</g>
		<g>
			<line fill="#788D9A" x1="510" y1="409.5" x2="468.5" y2="443.7"/>
		</g>
	</g>
	<g>
		
			<rect x="401.8" y="340.9" transform="matrix(0.7714 -0.6364 0.6364 0.7714 -126.7592 353.5386)" fill="#445C6C" width="53.8" height="24.7"/>
	</g>
	<g>
		<line fill="#788D9A" x1="510" y1="409.5" x2="468.5" y2="443.7"/>
	</g>
	<g>
		<g>
			<path fill="#D45947" d="M273.8,241.1c-2.3,19-5.6,41.3-10.4,60c-0.7,2.8,3,4.4,4.6,2c8.3-12.9,20.3-34.9,27.7-62H273.8z"/>
		</g>
	</g>
	<g>
		<g>
			<path fill="#DBDFE0" d="M2,8.9v53.9c53.7-15.2,109.9-9.9,158.4,13L179.3,27C124.6,2.1,62.5-4.8,2,8.9z"/>
		</g>
	</g>
	<g>
		<g>
			<path fill="#41B3E2" d="M284.8,94.9l-55.4,45.7c-20.4-24-45.1-42.7-72.4-55.7l25.9-67.2C221.4,35.2,256.4,61.1,284.8,94.9z"/>
		</g>
	</g>
	<g>
		<path fill="#F1786B" d="M167.4,191.8c-13.9,11.4-15.8,32-4.4,45.8l55.1,66.8c31.4,38.1,83.4,49.4,126.7,31.1l20.3,24.6l82.5-68.1
			L284.9,94.8L167.4,191.8z M233.2,291.9l45-37.1l53.4,64.8C297.3,331.4,257.6,321.6,233.2,291.9z"/>
	</g>
	<g>
		<path fill="#FF8278" d="M284.9,94.9l-117.6,96.9c-11.7,9.8-14.9,26.1-8.5,39.3c1-8.7,5.2-17,12.5-22.9l123.2-101.6L284.9,94.9z"/>
	</g>
	<g>
		<g>
			<path fill="#F1786B" d="M284.8,94.9c0.8,0.8,1.5,1.7,2.2,2.5L284.8,94.9L284.8,94.9z"/>
		</g>
	</g>
	<g>
		
			<rect x="379.3" y="322.1" transform="matrix(0.7714 -0.6364 0.6364 0.7714 -120.7709 343.4599)" fill="#DBDFE0" width="76.7" height="35.5"/>
	</g>
	<g>
		
			<rect x="371.7" y="324.8" transform="matrix(0.7714 -0.6363 0.6363 0.7714 -116.6759 336.5638)" fill="#AFC1C6" width="76.7" height="11.8"/>
	</g>
	<g>
		<g>
			<path fill="#FBD984" d="M107.8,452.4c0,31.8-23.7,57.6-52.9,57.6S2,484.2,2,452.4S54.9,347,54.9,347S107.8,420.5,107.8,452.4z"/>
		</g>
	</g>
	<g>
		<path fill="#AFC1C6" d="M145.8,69.6c4.9,1.9,9.8,3.9,14.6,6.2L179.3,27c-4.8-2.2-9.7-4.2-14.6-6.1L145.8,69.6z"/>
	</g>
</g>
</svg>
