<?xml version="1.0" encoding="utf-8"?>
<!-- Generator: Adobe Illustrator 18.0.0, SVG Export Plug-In . SVG Version: 6.00 Build 0)  -->
<!DOCTYPE svg PUBLIC "-//W3C//DTD SVG 1.1//EN" "http://www.w3.org/Graphics/SVG/1.1/DTD/svg11.dtd">
<svg version="1.1" id="Layer_1" xmlns="http://www.w3.org/2000/svg" xmlns:xlink="http://www.w3.org/1999/xlink" x="0px" y="0px"
	 viewBox="0 0 512 512" enable-background="new 0 0 512 512" xml:space="preserve">
<g>
	<path d="M437.9,153.6l-39.8,39.8l13.3,13.3l-39.8,39.8L298,293.6l-26.4-26.4l-14.8,14.7L100.6,438c-7.5,7.3-19.3,7.3-26.6,0
		c-7.3-7.3-7.3-19.1,0-26.4l171-170.9l-26.4-26.6l47.1-73.6l39.8-39.9l13.3,13.3l39.8-39.8c7.5-7.5,19.3-7.3,26.6,0
		c7.1,7.3,7.3,19.1,0,26.4l-39.9,39.9l26.6,26.4l39.8-39.7c7.5-7.5,19.3-7.3,26.4,0C445.3,134.4,445.4,146.2,437.9,153.6z"/>
</g>
</svg>
