<?xml version="1.0" encoding="utf-8"?>
<!-- Generator: Adobe Illustrator 18.0.0, SVG Export Plug-In . SVG Version: 6.00 Build 0)  -->
<!DOCTYPE svg PUBLIC "-//W3C//DTD SVG 1.1//EN" "http://www.w3.org/Graphics/SVG/1.1/DTD/svg11.dtd">
<svg version="1.1" id="Layer_1" xmlns="http://www.w3.org/2000/svg" xmlns:xlink="http://www.w3.org/1999/xlink" x="0px" y="0px"
	 viewBox="0 0 512 512" enable-background="new 0 0 512 512" xml:space="preserve">
<g>
	<path d="M282.6,134.3c6.6-8.8,15.6-12.8,22.5-6.4c6.8,6.2,10.9,26.6,2.1,29.1c-14.4,3.9-32.4,24-32.4,24S273.4,146.9,282.6,134.3z"
		/>
	<path d="M206.9,127.9c6.8-6.4,15.9-2.4,22.3,6.4c9.4,12.6,7.9,46.7,7.9,46.7s-18-20.1-32.4-24C196,154.6,200.1,134.1,206.9,127.9z"
		/>
	<path d="M256,124.8c0,0-18.8-27.2-18.8-37.5s8.4-18.7,18.8-18.7c10.3,0,18.8,8.4,18.8,18.7S256,124.8,256,124.8z"/>
	<polygon points="443.5,331 443.5,443.5 406,443.5 406,424.7 312.2,424.7 312.2,443.5 199.8,443.5 199.8,424.7 106,424.7 106,443.5 
		68.5,443.5 68.5,331 106,331 106,349.7 199.8,349.7 199.8,331 218.5,331 218.5,218.5 293.5,218.5 293.5,331 312.2,331 312.2,349.7 
		406,349.7 406,331 	"/>
</g>
</svg>
