<?xml version="1.0" encoding="utf-8"?>
<!-- Generator: Adobe Illustrator 18.0.0, SVG Export Plug-In . SVG Version: 6.00 Build 0)  -->
<!DOCTYPE svg PUBLIC "-//W3C//DTD SVG 1.1//EN" "http://www.w3.org/Graphics/SVG/1.1/DTD/svg11.dtd">
<svg version="1.1" id="Layer_1" xmlns="http://www.w3.org/2000/svg" xmlns:xlink="http://www.w3.org/1999/xlink" x="0px" y="0px"
	 viewBox="0 0 512 512" enable-background="new 0 0 512 512" xml:space="preserve">
<g>
	<path d="M386.1,181.9c-7.7-58.5-56.1-105.8-114.7-112.5c-79.1-9.2-146.6,52.7-146.6,130.3c0,39.2,17.2,74.4,44.6,98.4
		c19.9,17.4,30,43.7,30.4,70.3h112.5v-1.1c0-26.1,10.1-51.6,29.8-68.6C373.9,271.2,392.1,228.4,386.1,181.9z M274.7,257.7V331h-37.5
		v-73.3L184.4,205l26.1-26.1l39.7,39.6h11.6l39.6-39.6l26.1,26.1L274.7,257.7z M218.5,443.5h75c10.4,0,18.7-8.4,18.7-18.8V406H199.7
		v18.8C199.7,435.1,208.1,443.5,218.5,443.5z"/>
</g>
</svg>
