<?xml version="1.0" encoding="utf-8"?>
<!-- Generator: Adobe Illustrator 18.0.0, SVG Export Plug-In . SVG Version: 6.00 Build 0)  -->
<!DOCTYPE svg PUBLIC "-//W3C//DTD SVG 1.1//EN" "http://www.w3.org/Graphics/SVG/1.1/DTD/svg11.dtd">
<svg version="1.1" id="Layer_1" xmlns="http://www.w3.org/2000/svg" xmlns:xlink="http://www.w3.org/1999/xlink" x="0px" y="0px"
	 viewBox="0 0 512 512" enable-background="new 0 0 512 512" xml:space="preserve">
<g>
	<polygon points="162.3,274.7 181,218.5 162.3,218.5 162.3,181 143.5,237.3 162.3,237.3 	"/>
	<path d="M424.7,181v-56.2c0-10.3-8.4-18.7-18.8-18.7c-10.3,0-18.7,8.4-18.7,18.7V181h-37.5v-56.2c0-10.3-8.4-18.7-18.7-18.7
		c-10.3,0-18.8,8.4-18.8,18.7V181h-18.7l18.7,93.7H331v37.5h18.7v56.2H256V106h-56.2V68.5h-75V106H68.5v337.5H256V406h131.2v-93.7
		H406v-37.5h18.8l18.7-93.7H424.7z M218.5,274.7L106,331V143.5h112.5V274.7z"/>
</g>
</svg>
