<?xml version="1.0" encoding="utf-8"?>
<!-- Generator: Adobe Illustrator 18.0.0, SVG Export Plug-In . SVG Version: 6.00 Build 0)  -->
<!DOCTYPE svg PUBLIC "-//W3C//DTD SVG 1.1//EN" "http://www.w3.org/Graphics/SVG/1.1/DTD/svg11.dtd">
<svg version="1.1" id="Layer_1" xmlns="http://www.w3.org/2000/svg" xmlns:xlink="http://www.w3.org/1999/xlink" x="0px" y="0px"
	 viewBox="0 0 512 512" enable-background="new 0 0 512 512" xml:space="preserve">
<g>
	<path d="M377.5,151.2l27.8-27.7l-41.4-41.3l-27.8,27.7l-41.4-41.3c-32.3,0-50.4,0-82.7,0L74.2,206.3c-7.6,7.6-7.6,19.9,0,27.6
		L184.5,344c7.6,7.6,20,7.6,27.6,0l179.2-179.1L377.5,151.2z M198.2,192.5l-27.7-27.6l55.3-55.1h55.3L198.2,192.5z"/>
	<path d="M387.2,274.6c0,0-56.3,81.5-56.3,112.6c0,31.1,25.2,56.3,56.3,56.3c31.1,0,56.3-25.2,56.3-56.3
		C443.5,356.1,387.2,274.6,387.2,274.6z"/>
	<path d="M406,256c10.3,0,18.7-8.4,18.7-18.8c0-10.4-18.7-37.5-18.7-37.5s-18.7,27.1-18.7,37.5C387.3,247.6,395.7,256,406,256z"/>
</g>
</svg>
