<?xml version="1.0" encoding="utf-8"?>
<!-- Generator: Adobe Illustrator 18.0.0, SVG Export Plug-In . SVG Version: 6.00 Build 0)  -->
<!DOCTYPE svg PUBLIC "-//W3C//DTD SVG 1.1//EN" "http://www.w3.org/Graphics/SVG/1.1/DTD/svg11.dtd">
<svg version="1.1" id="Layer_1" xmlns="http://www.w3.org/2000/svg" xmlns:xlink="http://www.w3.org/1999/xlink" x="0px" y="0px"
	 viewBox="0 0 512 512" enable-background="new 0 0 512 512" xml:space="preserve">
<g>
	<path d="M349.8,349.8c0,51.7-42,93.7-93.7,93.7s-93.7-42-93.7-93.7C162.3,298,256,181,256,181S349.8,298,349.8,349.8z"/>
	<path d="M181,181c0-31.1-56.2-112.5-56.2-112.5S68.5,149.9,68.5,181c0,31.1,25.2,56.2,56.2,56.2S181,212,181,181z"/>
	<path d="M387.2,68.5c0,0-56.2,81.4-56.2,112.5c0,31.1,25.2,56.2,56.2,56.2s56.2-25.2,56.2-56.2C443.5,149.9,387.2,68.5,387.2,68.5z
		"/>
</g>
</svg>
