<?xml version="1.0" encoding="utf-8"?>
<!-- Generator: Adobe Illustrator 18.0.0, SVG Export Plug-In . SVG Version: 6.00 Build 0)  -->
<!DOCTYPE svg PUBLIC "-//W3C//DTD SVG 1.1//EN" "http://www.w3.org/Graphics/SVG/1.1/DTD/svg11.dtd">
<svg version="1.1" id="Layer_1" xmlns="http://www.w3.org/2000/svg" xmlns:xlink="http://www.w3.org/1999/xlink" x="0px" y="0px"
	 viewBox="0 0 512 512" enable-background="new 0 0 512 512" xml:space="preserve">
<polygon points="387.2,368.5 443.5,368.5 403.6,293.5 424.7,293.5 368.1,199.5 312.2,293.5 333.2,293.5 293.5,368.5 349.7,368.5 
	349.7,406 181,406 181,368.5 256,368.5 200.6,256 237.3,256 187,181 218.5,181 162.3,68.5 106,181 137,181 87.3,256 124.5,256 
	68.5,368.5 143.5,368.5 143.5,406 68.5,406 68.5,443.5 443.5,443.5 443.5,406 387.2,406 "/>
</svg>
