<?xml version="1.0" encoding="utf-8"?>
<!-- Generator: Adobe Illustrator 18.0.0, SVG Export Plug-In . SVG Version: 6.00 Build 0)  -->
<!DOCTYPE svg PUBLIC "-//W3C//DTD SVG 1.1//EN" "http://www.w3.org/Graphics/SVG/1.1/DTD/svg11.dtd">
<svg version="1.1" id="Layer_1" xmlns="http://www.w3.org/2000/svg" xmlns:xlink="http://www.w3.org/1999/xlink" x="0px" y="0px"
	 viewBox="0 0 512 512" enable-background="new 0 0 512 512" xml:space="preserve">
<g>
	<path d="M207.3,163.2c-16.5-12.4-26.2-31.9-26.2-52.5V68.5h-37.5v42.2c0,20.6-9.7,40.1-26.2,52.5c-15.4,11.6-27.6,26.2-36,43.1
		C73,223,68.5,241.6,68.5,260.7v32.8H256v-32.8C256,222.4,238,186.3,207.3,163.2z"/>
	<path d="M68.5,424.7c0,10.5,8.4,18.7,18.7,18.7h150c10.3,0,18.7-8.3,18.7-18.7v-75H68.5V424.7z"/>
	<path d="M424.9,218.5L424.9,218.5c-12-12-18.7-28.3-18.7-45.2v-29.8h-37.7v29.7c0,17-6.7,33.3-18.7,45.3
		c-12,12-18.8,28.3-18.8,45.3v161c0,10.4,8.4,18.7,18.8,18.7h75c10.4,0,18.7-8.4,18.7-18.7V263.7
		C443.5,246.7,436.8,230.5,424.9,218.5z"/>
</g>
</svg>
