<?xml version="1.0" encoding="utf-8"?>
<!-- Generator: Adobe Illustrator 18.0.0, SVG Export Plug-In . SVG Version: 6.00 Build 0)  -->
<!DOCTYPE svg PUBLIC "-//W3C//DTD SVG 1.1//EN" "http://www.w3.org/Graphics/SVG/1.1/DTD/svg11.dtd">
<svg version="1.1" id="Layer_1" xmlns="http://www.w3.org/2000/svg" xmlns:xlink="http://www.w3.org/1999/xlink" x="0px" y="0px"
	 viewBox="0 0 512 512" enable-background="new 0 0 512 512" xml:space="preserve">
<path d="M329.4,226.3c-4.2-88.8-35.8-157.8-74.1-157.8c-38.3,0-69.8,68.8-74.1,157.4c-20.8-13.1-45.9-23.3-75.2-26.2
	c0,0,0.2,0.1,0.5,0.4c22.6,18.1,37.9,43.9,42.8,72.6c9.3,54.8,37.1,170.8,105.9,170.8c68.9,0,96.7-115.6,106-169.9
	c4.8-28,19.8-53.3,41.6-71.4c2-1.6,3.1-2.5,3.1-2.5C375.9,202.5,350.4,213,329.4,226.3z M218.1,246.6c0-84.2,25.3-132.2,37.1-140
	c11.8,7.9,37.1,55.8,37.1,140c0,3.7-0.3,6.9-0.4,10.4c-21.3,21.9-33.3,43-36,49c-2.9-6.4-15.6-27.9-37.5-50
	C218.4,252.9,218.1,250,218.1,246.6z"/>
</svg>
