<?xml version="1.0" encoding="utf-8"?>
<!-- Generator: Adobe Illustrator 18.0.0, SVG Export Plug-In . SVG Version: 6.00 Build 0)  -->
<!DOCTYPE svg PUBLIC "-//W3C//DTD SVG 1.1//EN" "http://www.w3.org/Graphics/SVG/1.1/DTD/svg11.dtd">
<svg version="1.1" id="Layer_1" xmlns="http://www.w3.org/2000/svg" xmlns:xlink="http://www.w3.org/1999/xlink" x="0px" y="0px"
	 viewBox="0 0 512 512" enable-background="new 0 0 512 512" xml:space="preserve">
<g>
	<path d="M68.5,368.5c0,41.4,33.6,75,75,75c41.4,0,75-33.6,75-75c0-41.4-75-168.7-75-168.7S68.5,327.1,68.5,368.5z"/>
	<path d="M406,68.5c0,0-37.5,54.3-37.5,75c0,20.7,16.8,37.5,37.5,37.5c20.7,0,37.5-16.8,37.5-37.5C443.5,122.8,406,68.5,406,68.5z"
		/>
	<path d="M312.2,368.5c0,20.7,16.8,37.5,37.5,37.5c20.7,0,37.5-16.8,37.5-37.5c0-20.7-37.5-75-37.5-75S312.2,347.8,312.2,368.5z"/>
	<path d="M218.5,218.5c0,20.7,16.8,37.5,37.5,37.5c20.7,0,37.5-16.8,37.5-37.5c0-20.7-37.5-75-37.5-75S218.5,197.8,218.5,218.5z"/>
</g>
</svg>
