<?xml version="1.0" encoding="utf-8"?>
<!-- Generator: Adobe Illustrator 18.0.0, SVG Export Plug-In . SVG Version: 6.00 Build 0)  -->
<!DOCTYPE svg PUBLIC "-//W3C//DTD SVG 1.1//EN" "http://www.w3.org/Graphics/SVG/1.1/DTD/svg11.dtd">
<svg version="1.1" id="Layer_1" xmlns="http://www.w3.org/2000/svg" xmlns:xlink="http://www.w3.org/1999/xlink" x="0px" y="0px"
	 viewBox="0 0 512 512" enable-background="new 0 0 512 512" xml:space="preserve">
<path d="M293.5,349.7h-18.7V206.7l59.6,30.2l-6.2,12c-9.4,18.4-10.9,54,7.5,63.4c18.4,9.4,50.1-11.3,59.2-29.8
	c19.1-38.6,48-97.1,48.6-98.8l-66.4-33.8l-20.8,43.9l-81.6-41.4v-27.6c0-10.3-8.4-18.8-18.8-18.8c-10.3,0-18.7,8.4-18.7,18.8v8.6
	L114.6,71.1c-11.8-6-26.4-1.3-32.4,10.7c-6.2,11.8-1.3,26.4,10.5,32.4L106,121v228.8H87.3V406H68.5v37.5h375V406H316L293.5,349.7z
	 M237.3,349.7h-18.7L196,406h-33.7v-56.3h-18.7V139.9l93.7,47.6V349.7z"/>
</svg>
