<?xml version="1.0" encoding="utf-8"?>
<!-- Generator: Adobe Illustrator 18.0.0, SVG Export Plug-In . SVG Version: 6.00 Build 0)  -->
<!DOCTYPE svg PUBLIC "-//W3C//DTD SVG 1.1//EN" "http://www.w3.org/Graphics/SVG/1.1/DTD/svg11.dtd">
<svg version="1.1" id="Layer_1" xmlns="http://www.w3.org/2000/svg" xmlns:xlink="http://www.w3.org/1999/xlink" x="0px" y="0px"
	 viewBox="0 0 512 512" enable-background="new 0 0 512 512" xml:space="preserve">
<g>
	<circle cx="256" cy="256" r="93.7"/>
	<path d="M256,124.7c10.3,0,18.7-8.4,18.7-18.7V87.3c0-10.3-8.4-18.7-18.7-18.7s-18.7,8.4-18.7,18.7V106
		C237.3,116.3,245.7,124.7,256,124.7z"/>
	<path d="M256,387.3c-10.3,0-18.7,8.4-18.7,18.7v18.7c0,10.3,8.4,18.7,18.7,18.7s18.7-8.4,18.7-18.7V406
		C274.7,395.7,266.3,387.3,256,387.3z"/>
	<path d="M424.7,237.3H406c-10.3,0-18.7,8.4-18.7,18.8c0,10.3,8.4,18.7,18.7,18.7h18.7c10.3,0,18.7-8.4,18.8-18.7
		C443.5,245.7,435.1,237.3,424.7,237.3z"/>
	<path d="M124.7,256c0-10.3-8.4-18.8-18.7-18.8H87.2c-10.3,0-18.7,8.4-18.7,18.8c0,10.3,8.4,18.7,18.7,18.7H106
		C116.3,274.8,124.7,266.3,124.7,256z"/>
	<path d="M375.3,348.8c-7.3-7.3-19.2-7.3-26.5,0c-7.3,7.3-7.3,19.2,0,26.5l13.3,13.3c7.3,7.3,19.2,7.3,26.5,0
		c7.3-7.3,7.3-19.2,0-26.5L375.3,348.8z"/>
	<path d="M136.7,163.2c7.3,7.3,19.2,7.3,26.5,0s7.3-19.2,0-26.5l-13.3-13.3c-7.3-7.3-19.2-7.3-26.5,0c-7.3,7.3-7.3,19.2,0,26.5
		L136.7,163.2z"/>
	<path d="M136.7,348.8l-13.3,13.3c-7.3,7.3-7.3,19.2,0,26.5c7.3,7.3,19.2,7.3,26.5,0l13.3-13.3c7.3-7.3,7.3-19.2,0-26.5
		S144,341.5,136.7,348.8z"/>
	<path d="M375.3,163.2l13.3-13.3c7.3-7.3,7.3-19.2,0-26.5c-7.3-7.3-19.2-7.3-26.5,0l-13.3,13.3c-7.3,7.3-7.3,19.2,0,26.5
		C356.1,170.5,368,170.5,375.3,163.2z"/>
</g>
</svg>
