<?xml version="1.0" encoding="utf-8"?>
<!-- Generator: Adobe Illustrator 18.0.0, SVG Export Plug-In . SVG Version: 6.00 Build 0)  -->
<!DOCTYPE svg PUBLIC "-//W3C//DTD SVG 1.1//EN" "http://www.w3.org/Graphics/SVG/1.1/DTD/svg11.dtd">
<svg version="1.1" id="Layer_1" xmlns="http://www.w3.org/2000/svg" xmlns:xlink="http://www.w3.org/1999/xlink" x="0px" y="0px"
	 viewBox="0 0 512 512" enable-background="new 0 0 512 512" xml:space="preserve">
<g>
	<path d="M344.2,406l-25.3-168.8h68.4v-37.5h-74.1l-8.4-56.2h120V106H299.1l-5.6-37.5h-75l-5.6,37.5H87.3v37.5h120l-8.4,56.2h-74.1
		v37.5h68.4L167.9,406H68.5v37.5h93.8h187.5h93.7V406H344.2z M227,264.2l27.5,27.4l-37.2,37.2L227,264.2z M295.2,332.2l11.1,73.8
		H205.8l2.2-14.8l73-73.1L295.2,332.2z M281,237.3l3.6,24.3l-3.6,3.6l-37.4-37.4l31.2-31.2l0.5,3.3L281,237.3z M250.8,106h10.5
		l5.6,37.5l1,7l-28,28l5.3-35L250.8,106z"/>
</g>
</svg>
