<?xml version="1.0" encoding="utf-8"?>
<!-- Generator: Adobe Illustrator 18.0.0, SVG Export Plug-In . SVG Version: 6.00 Build 0)  -->
<!DOCTYPE svg PUBLIC "-//W3C//DTD SVG 1.1//EN" "http://www.w3.org/Graphics/SVG/1.1/DTD/svg11.dtd">
<svg version="1.1" id="Layer_1" xmlns="http://www.w3.org/2000/svg" xmlns:xlink="http://www.w3.org/1999/xlink" x="0px" y="0px"
	 viewBox="0 0 512 512" enable-background="new 0 0 512 512" xml:space="preserve">
<g>
	<path d="M68.5,274.7c0,20.7,16.8,37.5,37.5,37.5c20.7,0,37.5-16.8,37.5-37.5c0-20.7-37.5-75-37.5-75S68.5,254,68.5,274.7z"/>
	<path d="M411.4,251.3c17.7-28.9,14.3-67.1-10.7-92.1l-53-53c-14.6-14.6-38.3-14.7-53,0l-1.7,1.7c-33.1-24.2-92.2-52.2-175.2-32.9
		l8.5,36.5c65.3-15.2,112.3,4.7,139.8,23.3l-24.5,24.5l16.5,16.5c-8.1,22.7,0.2,53.2,23.2,76.1c23.1,23.1,53.5,31.4,76.3,23.3
		l16.6,16.6l11.7-11.7c13,18.3,20.2,39.9,20.2,62.8v100.7h37.5V342.8C443.5,309.1,432.1,277.2,411.4,251.3z M347.5,238.6
		c-7.3,7.6-25.1,1.5-39.6-13.1c-14.6-14.6-20.7-32.3-13.3-39.8c7.3-7.3,25.1-1.5,39.6,13.1C348.9,213.4,354.8,231.3,347.5,238.6z"/>
</g>
</svg>
