<?xml version="1.0" encoding="utf-8"?>
<!-- Generator: Adobe Illustrator 18.0.0, SVG Export Plug-In . SVG Version: 6.00 Build 0)  -->
<!DOCTYPE svg PUBLIC "-//W3C//DTD SVG 1.1//EN" "http://www.w3.org/Graphics/SVG/1.1/DTD/svg11.dtd">
<svg version="1.1" id="Layer_1" xmlns="http://www.w3.org/2000/svg" xmlns:xlink="http://www.w3.org/1999/xlink" x="0px" y="0px"
	 viewBox="0 0 512 512" enable-background="new 0 0 512 512" xml:space="preserve">
<g>
	<g>
		<path d="M443.5,124.8v37.7c-8.3,0-16.7,3.9-23.1,11.6c-13.7,16.5-32.1,25.7-51.9,25.7s-38.2-9.2-51.9-25.7
			c-12.7-15.4-33.4-15.4-46.1,0c-13.7,16.5-32.1,25.7-51.9,25.7c-19.9,0-38.2-9.2-51.9-25.7c-12.7-15.4-33.4-15.4-46.1,0
			c-13.7,16.5-32.1,25.7-51.9,25.7v-38.1c8.2,0,16.7-3.8,23.1-11.4c13.7-16.5,32.1-25.5,51.9-25.5c19.9,0,38.2,9,51.9,25.5
			c12.7,15.4,33.4,15.4,46.1,0c13.7-16.5,32.1-25.5,51.9-25.5c19.9,0,38.2,9,51.9,25.5c12.8,15.4,33.4,15.4,46.1,0
			C405.3,133.8,423.6,124.8,443.5,124.8z"/>
	</g>
	<g>
		<path d="M443.5,312.2v37.7c-8.3,0-16.7,3.9-23.1,11.6c-13.7,16.5-32.1,25.7-51.9,25.7s-38.2-9.2-51.9-25.7
			c-12.7-15.4-33.4-15.4-46.1,0c-13.7,16.5-32.1,25.7-51.9,25.7c-19.9,0-38.2-9.2-51.9-25.7c-12.7-15.4-33.4-15.4-46.1,0
			c-13.7,16.5-32.1,25.7-51.9,25.7v-38.1c8.2,0,16.7-3.8,23.1-11.4c13.7-16.5,32.1-25.5,51.9-25.5c19.9,0,38.2,9,51.9,25.5
			c12.7,15.4,33.4,15.4,46.1,0c13.7-16.5,32.1-25.5,51.9-25.5c19.9,0,38.2,9,51.9,25.5c12.8,15.4,33.4,15.4,46.1,0
			C405.3,321.2,423.6,312.2,443.5,312.2z"/>
	</g>
	<g>
		<path d="M443.5,218.7v37.9c-1.1-0.4-2.3-0.4-3.6-0.4c-8.3,0-16.7,3.9-23.1,11.6c-13.7,16.5-32.1,25.7-51.9,25.7
			s-38.2-9.2-51.9-25.7c-12.7-15.4-33.4-15.4-46.1,0c-13.7,16.5-32.1,25.7-51.9,25.7s-38.2-9.2-51.9-25.7
			c-12.7-15.4-33.4-15.4-46.1,0c-12,14.4-27.6,23.3-44.8,25.3c-1.1,0.2-2.3,0.2-3.6,0.2v-38.3c4,0.6,15-5.6,19.5-11.1
			c13.7-16.5,32.1-25.5,51.9-25.5s38.2,9,51.9,25.5c12.7,15.4,33.4,15.4,46.1,0c13.7-16.5,32.1-25.5,51.9-25.5
			c19.9,0,38.2,9,51.9,25.5c12.8,15.4,33.4,15.4,46.1,0c13.7-16.5,32.1-25.5,51.9-25.5C441.2,218.6,442.3,218.6,443.5,218.7z"/>
	</g>
</g>
</svg>
