<?xml version="1.0" encoding="utf-8"?>
<!-- Generator: Adobe Illustrator 18.0.0, SVG Export Plug-In . SVG Version: 6.00 Build 0)  -->
<!DOCTYPE svg PUBLIC "-//W3C//DTD SVG 1.1//EN" "http://www.w3.org/Graphics/SVG/1.1/DTD/svg11.dtd">
<svg version="1.1" id="Layer_1" xmlns="http://www.w3.org/2000/svg" xmlns:xlink="http://www.w3.org/1999/xlink" x="0px" y="0px"
	 viewBox="0 0 512 512" enable-background="new 0 0 512 512" xml:space="preserve">
<g>
	<path d="M343.2,214.1c3.7,3.4,6.2,8.2,6.2,13.9v121.7c0,10.3-8.4,18.8-18.7,18.8c10.3,0,18.7,8.2,18.7,18.7v37.5
		c0,10.3-8.4,18.8-18.7,18.8H180.9c-10.3,0-18.7-8.4-18.7-18.8v-37.5c0-10.5,8.4-18.7,18.7-18.7c-10.3,0-18.7-8.4-18.7-18.8V228
		c0-5.6,2.4-10.7,6.4-14.1c-15.7-25.1,1.1-50.3,15.7-75.4c8.2-14.2,20.2-25.7,34.4-32.6V68.5h74.7v37.4
		c14.2,6.9,26.2,18.4,34.4,32.6C342.3,163.7,359.3,189,343.2,214.1z"/>
</g>
</svg>
