<?xml version="1.0" encoding="utf-8"?>
<!-- Generator: Adobe Illustrator 18.0.0, SVG Export Plug-In . SVG Version: 6.00 Build 0)  -->
<!DOCTYPE svg PUBLIC "-//W3C//DTD SVG 1.1//EN" "http://www.w3.org/Graphics/SVG/1.1/DTD/svg11.dtd">
<svg version="1.1" id="Layer_1" xmlns="http://www.w3.org/2000/svg" xmlns:xlink="http://www.w3.org/1999/xlink" x="0px" y="0px"
	 viewBox="0 0 512 512" enable-background="new 0 0 512 512" xml:space="preserve">
<g>
	<ellipse cx="162.3" cy="406" rx="37.5" ry="37.5"/>
	<ellipse cx="349.8" cy="406" rx="37.5" ry="37.5"/>
	<path d="M387.2,218.5v-18.8h37.5c10.4,0,18.8-8.4,18.8-18.8c0-10.4-8.4-18.8-18.8-18.8h-37.5v-37.5h37.5c10.4,0,18.8-8.4,18.8-18.8
		s-8.4-18.8-18.8-18.8h-37.5V68.5c0,0-59.1,18.6-93.7,18.8V106h-18.8v18.7H143.5v133.5c-14.6,15-25.7,33.5-31.8,54.1H68.5v75h40.9
		c7.7-21.9,28.5-37.5,52.9-37.5s45.2,15.6,52.9,37.5h81.7c7.7-21.9,28.5-37.5,52.9-37.5c24.4,0,45.2,15.6,52.9,37.5h40.9v-75h-80.7
		c-16.1-54.2-66-93.8-125.5-93.8c-20.2,0-39.2,4.9-56.2,13v-69.4h93.7V181h18.8v18.8C328.4,200,387.2,218.5,387.2,218.5z M256,258.1
		c30.2,6.2,54.8,26.7,66.9,54.2H256V258.1z M218.5,312.3h-66.9c12.1-27.5,36.7-48,66.9-54.2V312.3z"/>
</g>
</svg>
