<?xml version="1.0" encoding="utf-8"?>
<!-- Generator: Adobe Illustrator 18.0.0, SVG Export Plug-In . SVG Version: 6.00 Build 0)  -->
<!DOCTYPE svg PUBLIC "-//W3C//DTD SVG 1.1//EN" "http://www.w3.org/Graphics/SVG/1.1/DTD/svg11.dtd">
<svg version="1.1" id="Layer_1" xmlns="http://www.w3.org/2000/svg" xmlns:xlink="http://www.w3.org/1999/xlink" x="0px" y="0px"
	 viewBox="0 0 512 512" enable-background="new 0 0 512 512" xml:space="preserve">
<g>
	<path d="M333.9,203.1c10.4-32.1,35.8-57.3,67.9-67.3c-10-3.1-20.4-4.8-31.3-4.8c-19.6,0-38.1,5.4-53.8,15.2
		c-9.6-44-60.8-77.7-60.8-77.7s-51.3,33.7-60.8,77.7c-15.6-9.8-34.2-15.2-53.7-15.2c-10.8,0-21.3,1.7-31.3,4.8
		c32.1,10,57.5,35.2,67.9,67.3c6,18.7,22.5,34.2,42.1,34.2h17.1v206.2h37.5V237.3h17.1C311.4,237.3,327.9,221.8,333.9,203.1z"/>
	<path d="M312.2,387.2c72.5,0,131.2-58.8,131.2-131.2C371,256,312.2,314.8,312.2,387.2z"/>
	<path d="M68.5,293.5c0,72.5,58.8,131.3,131.2,131.3h0C199.8,352.3,141,293.5,68.5,293.5z"/>
</g>
</svg>
