<?xml version="1.0" encoding="utf-8"?>
<!-- Generator: Adobe Illustrator 18.0.0, SVG Export Plug-In . SVG Version: 6.00 Build 0)  -->
<!DOCTYPE svg PUBLIC "-//W3C//DTD SVG 1.1//EN" "http://www.w3.org/Graphics/SVG/1.1/DTD/svg11.dtd">
<svg version="1.1" id="Layer_1" xmlns="http://www.w3.org/2000/svg" xmlns:xlink="http://www.w3.org/1999/xlink" x="0px" y="0px"
	 viewBox="0 0 512 512" enable-background="new 0 0 512 512" xml:space="preserve">
<path d="M390.8,121.1c-9.4-9.4-22.3-15.2-36.6-15.2c-27.6,0-54.7,6.4-79.5,18.8h-75V106h18.7V77.9c0-5.2-4.2-9.4-9.4-9.4h-75
	c-5.2,0-9.4,4.2-9.4,9.4V106h18.7v18.7h-18.8c-10.3,0-18.7,8.4-18.7,18.7v281.3c0,10.5,8.4,18.8,18.7,18.8h243.7
	c10.3,0,18.8-8.3,18.8-18.8V237.2c12.4-24.8,18.7-51.9,18.7-79.5C406,143.5,400.2,130.5,390.8,121.1z M349.7,228.4l-66.2-66.2
	c0,0,42.6-19.9,70.7-18.8c7.9,0.4,14.3,6.4,14.3,14.3C368.5,188.3,349.7,228.4,349.7,228.4z"/>
</svg>
