<?xml version="1.0" encoding="utf-8"?>
<!-- Generator: Adobe Illustrator 18.0.0, SVG Export Plug-In . SVG Version: 6.00 Build 0)  -->
<!DOCTYPE svg PUBLIC "-//W3C//DTD SVG 1.1//EN" "http://www.w3.org/Graphics/SVG/1.1/DTD/svg11.dtd">
<svg version="1.1" id="Layer_1" xmlns="http://www.w3.org/2000/svg" xmlns:xlink="http://www.w3.org/1999/xlink" x="0px" y="0px"
	 viewBox="0 0 512 512" enable-background="new 0 0 512 512" xml:space="preserve">
<g>
	<polygon points="368.5,181 274.7,181 225.7,352.6 199.8,274.8 124.8,274.8 68.5,443.5 199.8,443.5 256,443.5 443.5,443.5 	"/>
	<path d="M312.3,143.5c4.9,0,9.2-1.9,12.6-4.9c4.5,3.2,9.8,4.9,15.6,4.9c9.2,0,17.4-4.3,22.3-11.3c6.8,6.9,16.3,11.3,26.8,11.3
		c20.8,0,37.5-16.7,37.5-37.5c0-20.6-16.7-37.5-37.5-37.5c-15.6,0-28.9,9.6-34.5,23.1c-4.1-2.8-9.2-4.3-14.6-4.3
		c-12.4,0-22.7,7.9-26.4,18.9c-0.6-0.2-1.1-0.2-1.7-0.2c-10.3,0-18.8,8.4-18.8,18.7C293.5,135.2,301.9,143.5,312.3,143.5z"/>
	<path d="M174.3,232.9L174.3,232.9c4.7-3.9,6.7-9.6,6.4-15.3c1.8,0.1,3.5,0.2,5.3-0.2h0c1.7-0.4,3.1-1.3,4.5-2.1
		c6.7,3.8,15.3,3.4,21.5-1.9c7.8-6.8,8.7-18.6,1.9-26.4c-5.9-6.8-15.4-8-23-3.9c-4-2.3-8.9-3.3-13.8-2.1l0,0
		c-8.8,2.1-14.3,10.2-14,19c-4.6-0.2-9.2,1.1-13,4.2v0c-7.9,6.6-9,18.5-2.3,26.4C154.5,238.5,166.3,239.6,174.3,232.9z"/>
</g>
</svg>
