<?xml version="1.0" encoding="utf-8"?>
<!-- Generator: Adobe Illustrator 18.0.0, SVG Export Plug-In . SVG Version: 6.00 Build 0)  -->
<!DOCTYPE svg PUBLIC "-//W3C//DTD SVG 1.1//EN" "http://www.w3.org/Graphics/SVG/1.1/DTD/svg11.dtd">
<svg version="1.1" id="Layer_1" xmlns="http://www.w3.org/2000/svg" xmlns:xlink="http://www.w3.org/1999/xlink" x="0px" y="0px"
	 viewBox="0 0 512 512" enable-background="new 0 0 512 512" xml:space="preserve">
<path d="M443.5,406v37.5H331V406h18.8v-37.5h-225c-20.6,0-37.5-16.9-37.5-37.5V106H68.5V68.5H181V106h-18.7v187.5H256v-18.7h18.8
	V256h18.7v-75H256c-10.3,0-18.7-8.3-18.7-18.7c0-10.3,8.4-18.7,18.7-18.7h112.5c10.3,0,18.8,8.4,18.8,18.7
	c0,10.5-8.4,18.7-18.8,18.7H331v75h18.8v18.8h18.7v18.7h18.8c20.6,0,37.5,16.9,37.5,37.5v75H443.5z"/>
</svg>
