<?xml version="1.0" encoding="utf-8"?>
<!-- Generator: Adobe Illustrator 18.0.0, SVG Export Plug-In . SVG Version: 6.00 Build 0)  -->
<!DOCTYPE svg PUBLIC "-//W3C//DTD SVG 1.1//EN" "http://www.w3.org/Graphics/SVG/1.1/DTD/svg11.dtd">
<svg version="1.1" id="Layer_1" xmlns="http://www.w3.org/2000/svg" xmlns:xlink="http://www.w3.org/1999/xlink" x="0px" y="0px"
	 viewBox="0 0 512 512" enable-background="new 0 0 512 512" xml:space="preserve">
<path d="M387.3,87.3H256c-20.6,0-37.5,16.9-37.5,37.5h-18.8v18.7H68.5V181h131.3v18.7h18.8c0,20.8,16.9,37.5,37.5,37.5h75v37.5
	h-18.8v37.5H331v56.3c0,31.1,25.2,56.2,56.3,56.2c31.1,0,56.3-25.2,56.3-56.2v-225C443.5,112.4,418.3,87.3,387.3,87.3z M368.5,181.1
	c-10.4,0-18.9-8.5-18.9-18.9c0-10.4,8.5-18.9,18.9-18.9c10.4,0,18.9,8.5,18.9,18.9C387.3,172.7,378.9,181.1,368.5,181.1z"/>
</svg>
