<?xml version="1.0" encoding="utf-8"?>
<!-- Generator: Adobe Illustrator 18.0.0, SVG Export Plug-In . SVG Version: 6.00 Build 0)  -->
<!DOCTYPE svg PUBLIC "-//W3C//DTD SVG 1.1//EN" "http://www.w3.org/Graphics/SVG/1.1/DTD/svg11.dtd">
<svg version="1.1" id="Layer_1" xmlns="http://www.w3.org/2000/svg" xmlns:xlink="http://www.w3.org/1999/xlink" x="0px" y="0px"
	 viewBox="0 0 512 512" enable-background="new 0 0 512 512" xml:space="preserve">
<g>
	<path d="M443.5,162.3v-37.5H406c-57,0-106.6,31.8-132,78.7c0.3-1.2,0.7-2.4,0.7-3.7c0-10.4-8.4-18.7-18.8-18.7
		c-10.4,0-18.7,8.4-18.7,18.7c0,1.3,0.5,2.5,0.7,3.7c-25.4-46.9-75-78.7-132-78.7H68.5v37.5c0,66.1,42.8,122,102.1,142
		C132.5,322.3,106,361,106,406v37.5h37.5c40.8,0,76.4-21.8,96.1-54.3c2.8,17.7,8,42.8,16.4,54.3c8.4-11.5,13.6-36.6,16.3-54.3
		c19.7,32.5,55.3,54.3,96.1,54.3H406V406c0-45-26.5-83.7-64.6-101.7C400.7,284.3,443.5,228.3,443.5,162.3z M265.8,221.7
		c-2.9-1.8-6.1-3.2-9.8-3.2c-3.7,0-6.9,1.3-9.8,3.2c-1.2-3.2-2.5-6.3-3.9-9.4c3.4,3.8,8.2,6.2,13.7,6.2c5.5,0,10.3-2.4,13.7-6.2
		C268.3,215.4,267,218.5,265.8,221.7z"/>
	<path d="M274.8,162.3l93.7-93.7C316.4,68.5,274.8,110.7,274.8,162.3z"/>
	<path d="M143.5,68.5l93.7,93.7C237.2,110.7,195.5,68.5,143.5,68.5z"/>
</g>
</svg>
