<?xml version="1.0" encoding="utf-8"?>
<!-- Generator: Adobe Illustrator 18.0.0, SVG Export Plug-In . SVG Version: 6.00 Build 0)  -->
<!DOCTYPE svg PUBLIC "-//W3C//DTD SVG 1.1//EN" "http://www.w3.org/Graphics/SVG/1.1/DTD/svg11.dtd">
<svg version="1.1" id="Layer_1" xmlns="http://www.w3.org/2000/svg" xmlns:xlink="http://www.w3.org/1999/xlink" x="0px" y="0px"
	 viewBox="0 0 512 512" enable-background="new 0 0 512 512" xml:space="preserve">
<g>
	<path d="M199.8,406v-70.8c6.9-6.2,12.1-14,15.3-22.9h22.2c10.3,0,18.7-8.4,18.7-18.7c0-10.3-8.4-18.7-18.7-18.7H215
		c-3.2-8.9-8.4-16.7-15.3-22.9v-52.1c0-31,25.2-56.2,56.2-56.2s56.2,25.2,56.2,56.2v18.7h-18.8V256h18.8h75H406v-37.5h-18.7v-18.7
		c0-72.4-58.9-131.2-131.2-131.2c-72.4,0-131.2,58.9-131.2,131.2v52.1c-6.9,6.2-12.2,14-15.4,23H87.2c-10.3,0-18.7,8.4-18.7,18.7
		c0,10.4,8.4,18.7,18.7,18.7h22.2c3.2,8.9,8.4,16.8,15.4,23V406H68.5v37.5h56.2h75h243.7V406H199.8z"/>
	<path d="M349.7,349.7c10.4,0,18.7-8.4,18.7-18.8c0-10.4-18.7-37.5-18.7-37.5S331,320.6,331,331C331,341.4,339.4,349.7,349.7,349.7z
		"/>
</g>
</svg>
