<?xml version="1.0" encoding="utf-8"?>
<!-- Generator: Adobe Illustrator 18.0.0, SVG Export Plug-In . SVG Version: 6.00 Build 0)  -->
<!DOCTYPE svg PUBLIC "-//W3C//DTD SVG 1.1//EN" "http://www.w3.org/Graphics/SVG/1.1/DTD/svg11.dtd">
<svg version="1.1" id="Layer_1" xmlns="http://www.w3.org/2000/svg" xmlns:xlink="http://www.w3.org/1999/xlink" x="0px" y="0px"
	 viewBox="0 0 512 512" enable-background="new 0 0 512 512" xml:space="preserve">
<path d="M424.7,373.7v-89.3c7.2,0,14.1-4.2,17.2-11.3c4.1-9.5-0.3-20.5-9.7-24.6l-132.6-57.4l-6.1-122.6H256L250.9,170L167,133.7
	l15.3-35.4l-68.7-29.8L68.5,172.7L88,222l49.3-19.5l14.9-34.5l96.8,41.9l-9.8,196h-20.6v37.5h18.7h75H331V406h-20.6l-8.7-173.1
	l85.5,37v103.8c-11.2,6.5-18.7,18.5-18.7,32.3c0,20.7,16.8,37.5,37.5,37.5s37.5-16.8,37.5-37.5C443.5,392.2,435.9,380.2,424.7,373.7
	z"/>
</svg>
