<?xml version="1.0" encoding="utf-8"?>
<!-- Generator: Adobe Illustrator 18.0.0, SVG Export Plug-In . SVG Version: 6.00 Build 0)  -->
<!DOCTYPE svg PUBLIC "-//W3C//DTD SVG 1.1//EN" "http://www.w3.org/Graphics/SVG/1.1/DTD/svg11.dtd">
<svg version="1.1" id="Layer_1" xmlns="http://www.w3.org/2000/svg" xmlns:xlink="http://www.w3.org/1999/xlink" x="0px" y="0px"
	 viewBox="0 0 512 512" enable-background="new 0 0 512 512" xml:space="preserve">
<g>
	<circle cx="256" cy="256" r="93.7"/>
	<g>
		<g>
			<path d="M106,274.8H87.3c-10.4,0-18.7-8.4-18.7-18.8l0,0c0-10.4,8.4-18.7,18.7-18.7H106c10.4,0,18.7,8.4,18.7,18.7l0,0
				C124.8,266.4,116.4,274.8,106,274.8z"/>
			<path d="M424.7,274.8H406c-10.4,0-18.8-8.4-18.8-18.8l0,0c0-10.4,8.4-18.7,18.8-18.7h18.7c10.4,0,18.8,8.4,18.8,18.7l0,0
				C443.5,266.4,435.1,274.8,424.7,274.8z"/>
		</g>
		<g>
			<path d="M237.3,106V87.3c0-10.4,8.4-18.7,18.7-18.7l0,0c10.4,0,18.7,8.4,18.7,18.7V106c0,10.4-8.4,18.7-18.7,18.7l0,0
				C245.6,124.8,237.3,116.4,237.3,106z"/>
			<path d="M237.3,424.7V406c0-10.4,8.4-18.7,18.7-18.7l0,0c10.4,0,18.7,8.4,18.7,18.7v18.8c0,10.4-8.4,18.7-18.7,18.7l0,0
				C245.6,443.5,237.3,435.1,237.3,424.7z"/>
		</g>
	</g>
	<g>
		<g>
			<path d="M163.2,375.3l-26.5,26.5c-7.3,7.3-19.2,7.3-26.5,0l0,0c-7.3-7.3-7.3-19.2,0-26.5l26.5-26.5c7.3-7.3,19.2-7.3,26.5,0l0,0
				C170.5,356.1,170.5,368,163.2,375.3z"/>
			<path d="M401.8,136.7l-26.5,26.5c-7.3,7.3-19.2,7.3-26.5,0l0,0c-7.3-7.3-7.3-19.2,0-26.5l26.5-26.5c7.3-7.3,19.2-7.3,26.5,0l0,0
				C409.2,117.5,409.2,129.4,401.8,136.7z"/>
		</g>
		<g>
			<path d="M136.7,163.2l-26.5-26.5c-7.3-7.3-7.3-19.2,0-26.5l0,0c7.3-7.3,19.2-7.3,26.5,0l26.5,26.5c7.3,7.3,7.3,19.2,0,26.5l0,0
				C155.9,170.5,144,170.5,136.7,163.2z"/>
			<path d="M375.3,401.8l-26.5-26.5c-7.3-7.3-7.3-19.2,0-26.5l0,0c7.3-7.3,19.2-7.3,26.5,0l26.5,26.5c7.3,7.3,7.3,19.2,0,26.5l0,0
				C394.5,409.2,382.6,409.2,375.3,401.8z"/>
		</g>
	</g>
</g>
</svg>
