<?xml version="1.0" encoding="utf-8"?>
<!-- Generator: Adobe Illustrator 18.0.0, SVG Export Plug-In . SVG Version: 6.00 Build 0)  -->
<!DOCTYPE svg PUBLIC "-//W3C//DTD SVG 1.1//EN" "http://www.w3.org/Graphics/SVG/1.1/DTD/svg11.dtd">
<svg version="1.1" id="Layer_1" xmlns="http://www.w3.org/2000/svg" xmlns:xlink="http://www.w3.org/1999/xlink" x="0px" y="0px"
	 viewBox="0 0 512 512" enable-background="new 0 0 512 512" xml:space="preserve">
<g>
	<path d="M181,286.8c20.6-23,43.6-20.5,72.8-38.5c0,0-7.1,43.8-67.6,49.6c45,33.1,158,19,117.5-116.2
		C178.4,205.5,197.3,234,181,286.8z"/>
	<path d="M331,87.3c-28.9,0-55.1,10.9-75,28.8c-19.9-18-46.1-28.8-75-28.8c-62.2,0-112.5,50.3-112.5,112.3
		C68.5,331.2,256,424.7,256,424.7s187.5-93.6,187.5-225.2C443.5,137.6,393.1,87.3,331,87.3z M256,382.2
		c-53.5-30.9-150-103-150-182.6c0-41.3,33.6-74.9,75-74.9c18.5,0,36.2,6.8,49.8,19.1l25.2,22.8l25.2-22.8
		c13.6-12.3,31.3-19.1,49.8-19.1c41.4,0,75,33.6,75,74.9C406,278.9,309.4,351.2,256,382.2z"/>
</g>
</svg>
