<?xml version="1.0" encoding="utf-8"?>
<!-- Generator: Adobe Illustrator 18.0.0, SVG Export Plug-In . SVG Version: 6.00 Build 0)  -->
<!DOCTYPE svg PUBLIC "-//W3C//DTD SVG 1.1//EN" "http://www.w3.org/Graphics/SVG/1.1/DTD/svg11.dtd">
<svg version="1.1" id="Layer_1" xmlns="http://www.w3.org/2000/svg" xmlns:xlink="http://www.w3.org/1999/xlink" x="0px" y="0px"
	 viewBox="0 0 512 512" enable-background="new 0 0 512 512" xml:space="preserve">
<g>
	<path d="M331,181V87.3c0-10.3-8.4-18.7-18.7-18.7c-10.3,0-18.8,8.4-18.8,18.7V181h-75V87.3c0-10.3-8.4-18.7-18.7-18.7
		c-10.3,0-18.7,8.4-18.7,18.7V181h-37.5v150l37.5,37.5h37.5v18.8h18.7v56.2h37.5v-56.2h18.7v-18.8H331
		c14.6-14.6,22.9-22.9,37.5-37.5V181H331z M293.5,331h-75v-37.5h75V331z M312.2,256H199.8v-37.5h112.5V256z"/>
</g>
</svg>
