<?xml version="1.0" encoding="utf-8"?>
<!-- Generator: Adobe Illustrator 18.0.0, SVG Export Plug-In . SVG Version: 6.00 Build 0)  -->
<!DOCTYPE svg PUBLIC "-//W3C//DTD SVG 1.1//EN" "http://www.w3.org/Graphics/SVG/1.1/DTD/svg11.dtd">
<svg version="1.1" id="Layer_1" xmlns="http://www.w3.org/2000/svg" xmlns:xlink="http://www.w3.org/1999/xlink" x="0px" y="0px"
	 viewBox="0 0 512 512" enable-background="new 0 0 512 512" xml:space="preserve">
<path d="M312.2,293.5v-18.7h-18.8V256h-18.7v-93.7H331c10.4,0,18.8-8.4,18.8-18.7s-8.4-18.7-18.8-18.7h-56.2
	c0-10.4-8.4-18.7-18.8-18.7s-18.7,8.4-18.7,18.7H181c-10.4,0-18.7,8.4-18.7,18.7s8.4,18.7,18.7,18.7h56.2V256h-18.7v18.8h-18.7v18.7
	H68.5v75h134.7c7.7,21.8,28.3,37.5,52.8,37.5s45.1-15.7,52.8-37.5h134.7v-75H312.2z"/>
</svg>
