<?xml version="1.0" encoding="utf-8"?>
<!-- Generator: Adobe Illustrator 18.0.0, SVG Export Plug-In . SVG Version: 6.00 Build 0)  -->
<!DOCTYPE svg PUBLIC "-//W3C//DTD SVG 1.1//EN" "http://www.w3.org/Graphics/SVG/1.1/DTD/svg11.dtd">
<svg version="1.1" id="Layer_1" xmlns="http://www.w3.org/2000/svg" xmlns:xlink="http://www.w3.org/1999/xlink" x="0px" y="0px"
	 viewBox="0 0 512 512" enable-background="new 0 0 512 512" xml:space="preserve">
<g>
	<polygon points="229.6,128.1 170.3,68.6 143.9,95.1 203.2,154.6 	"/>
	<polygon points="282.3,234 342.1,293.9 368.5,267.5 308.7,207.5 	"/>
	<polygon points="368.1,95 341.7,68.5 282.3,128.1 308.7,154.6 	"/>
	<polygon points="229.6,234 203.2,207.5 143.5,267.4 169.9,293.8 	"/>
	<path d="M255.9,212.1c17.1,0,30.9-13.9,30.9-31c0-17.1-13.8-31-30.9-31S225,163.9,225,181C225,198.2,238.9,212.1,255.9,212.1z"/>
	<polygon points="318.2,406 274.6,274.8 237.3,274.8 193.7,406 68.5,406 68.5,443.5 443.5,443.5 443.5,406 	"/>
</g>
</svg>
