<?xml version="1.0" encoding="utf-8"?>
<!-- Generator: Adobe Illustrator 18.0.0, SVG Export Plug-In . SVG Version: 6.00 Build 0)  -->
<!DOCTYPE svg PUBLIC "-//W3C//DTD SVG 1.1//EN" "http://www.w3.org/Graphics/SVG/1.1/DTD/svg11.dtd">
<svg version="1.1" id="Layer_1" xmlns="http://www.w3.org/2000/svg" xmlns:xlink="http://www.w3.org/1999/xlink" x="0px" y="0px"
	 viewBox="0 0 512 512" enable-background="new 0 0 512 512" xml:space="preserve">
<path d="M438,331.9l-87.2-87L220.6,141.2l-13.1,13.3l-26.7-26.6l-13.3,13.3L100.4,74c-7.3-7.3-19.1-7.3-26.5,0
	c-3.8,3.6-5.4,8.4-5.4,13.3c0,4.9,1.7,9.8,5.4,13.3l67.1,67l-13.3,13.3l26.6,26.6L141,220.7l103.7,130.1L332,438
	c7.3,7.3,19.2,7.3,26.6,0l79.5-79.6C445.3,351.1,445.3,339.2,438,331.9z M326.3,325.7c-7.3,7.3-19.1,7.3-26.3,0l-37.8-37.8
	c-7.3-7.3-7.3-19.1,0-26.3c7.3-7.3,19.1-7.3,26.3,0l37.8,37.8C333.5,306.7,333.5,318.4,326.3,325.7z"/>
</svg>
