<?xml version="1.0" encoding="utf-8"?>
<!-- Generator: Adobe Illustrator 18.0.0, SVG Export Plug-In . SVG Version: 6.00 Build 0)  -->
<!DOCTYPE svg PUBLIC "-//W3C//DTD SVG 1.1//EN" "http://www.w3.org/Graphics/SVG/1.1/DTD/svg11.dtd">
<svg version="1.1" id="Layer_1" xmlns="http://www.w3.org/2000/svg" xmlns:xlink="http://www.w3.org/1999/xlink" x="0px" y="0px"
	 viewBox="0 0 512 512" enable-background="new 0 0 512 512" xml:space="preserve">
<path d="M307.7,68.5l-68.6,68.8c-22.4,22.2-31.4,52.8-27.1,81.8c-29-4.3-59.6,4.7-81.8,26.9l-61.7,61.8l135.6,135.5v0.2l61.9-61.8
	c22.4-22.4,31.2-53,26.9-82c29,4.3,59.4-4.5,81.8-26.9l68.8-68.8L307.7,68.5z M390.1,204.4L363.5,231L281,148.4l26.5-26.5
	L390.1,204.4z M122,307.6l26.5-26.5l82.4,82.4L204.4,390L122,307.6z M253,332.5l-73.6-73.6c19.5-6.6,41.7-2.8,57.8,11.8
	c0.6,0.8,1.1,1.3,1.9,2.1c0.6,0.8,1.3,1.3,2.1,1.9C255.8,290.7,259.6,313,253,332.5z M269.9,250.3c0-0.2,0-0.2-0.6-0.4
	c-0.8-1.3-2.1-2.6-3.4-3.9c-0.9-0.9-1.9-1.7-2.8-2.4c0-0.4-0.2-0.4-0.4-0.6c-16.4-18.7-18.3-45.4-6.6-66.3l79.1,79.1
	C314.8,267.2,288.7,265.6,269.9,250.3z"/>
</svg>
