<?xml version="1.0" encoding="utf-8"?>
<!-- Generator: Adobe Illustrator 18.0.0, SVG Export Plug-In . SVG Version: 6.00 Build 0)  -->
<!DOCTYPE svg PUBLIC "-//W3C//DTD SVG 1.1//EN" "http://www.w3.org/Graphics/SVG/1.1/DTD/svg11.dtd">
<svg version="1.1" id="Layer_1" xmlns="http://www.w3.org/2000/svg" xmlns:xlink="http://www.w3.org/1999/xlink" x="0px" y="0px"
	 viewBox="0 0 512 512" enable-background="new 0 0 512 512" xml:space="preserve">
<g>
	<path d="M443.5,321.6c0,25.9-21,46.9-46.9,46.9c-25.9,0-46.9-21-46.9-46.9v-1.3l-35.6-16.7C300.2,320.3,279.4,331,256,331
		c-13.9,0-26.8-3.8-38.1-10.5l-59.1,59.1c2.3,5.3,3.4,11.1,3.4,17.1c0,25.9-21,46.9-46.9,46.9s-46.9-21-46.9-46.9
		c0-25.9,21-46.9,46.9-46.9c6,0,11.8,1.1,17.1,3.2l58.9-58.9C184.8,283,181,269.9,181,256c0-23.2,10.5-43.9,27.2-57.7l-16.7-36h-1.1
		c-25.9,0-46.9-21-46.9-46.9s21-46.9,46.9-46.9s46.9,21,46.9,46.9c0,11.8-4.5,22.7-11.6,30.9l16.7,36c4.3-0.9,9-1.3,13.7-1.3
		c41.4,0,75,33.6,75,75c0,4.7-0.4,9.2-1.3,13.7l36,16.7c8.3-7.1,19.1-11.6,30.9-11.6C422.5,274.7,443.5,295.7,443.5,321.6z"/>
</g>
</svg>
