<?xml version="1.0" encoding="utf-8"?>
<!-- Generator: Adobe Illustrator 18.0.0, SVG Export Plug-In . SVG Version: 6.00 Build 0)  -->
<!DOCTYPE svg PUBLIC "-//W3C//DTD SVG 1.1//EN" "http://www.w3.org/Graphics/SVG/1.1/DTD/svg11.dtd">
<svg version="1.1" id="Layer_1" xmlns="http://www.w3.org/2000/svg" xmlns:xlink="http://www.w3.org/1999/xlink" x="0px" y="0px"
	 viewBox="0 0 512 512" enable-background="new 0 0 512 512" xml:space="preserve">
<g>
	<path d="M256,68.5c-72.6,0-131.3,58.7-131.3,131.3c0,52.3,30.7,97.5,75.2,118.5V368h112.2v-49.7c44.4-21.1,75.2-66.2,75.2-118.5
		C387.3,127.2,328.6,68.5,256,68.5z M274.8,226.2v67.3h-37.5v-67.3l-37.5-37.5l26.4-26.4l29.8,29.6l29.8-29.6l26.4,26.4L274.8,226.2
		z"/>
	<path d="M199.9,405.7v19.1c0,10.4,8.4,18.8,18.8,18.8h74.7c10.4,0,18.8-8.4,18.8-18.8v-19.1H199.9z"/>
</g>
</svg>
