<?xml version="1.0" encoding="utf-8"?>
<!-- Generator: Adobe Illustrator 18.0.0, SVG Export Plug-In . SVG Version: 6.00 Build 0)  -->
<!DOCTYPE svg PUBLIC "-//W3C//DTD SVG 1.1//EN" "http://www.w3.org/Graphics/SVG/1.1/DTD/svg11.dtd">
<svg version="1.1" id="Layer_1" xmlns="http://www.w3.org/2000/svg" xmlns:xlink="http://www.w3.org/1999/xlink" x="0px" y="0px"
	 viewBox="0 0 512 512" enable-background="new 0 0 512 512" xml:space="preserve">
<g>
	<path d="M256,68.5C152.4,68.5,68.5,152.4,68.5,256S152.4,443.5,256,443.5c103.6,0,187.5-83.9,187.5-187.5S359.6,68.5,256,68.5z
		 M145.1,363.3l-37.5-65l74.3-21.3l18.7,32.5L145.1,363.3z M256,293.5c-20.7,0-37.5-16.8-37.5-37.5s16.8-37.5,37.5-37.5
		c20.7,0,37.5,16.8,37.5,37.5S276.7,293.5,256,293.5z M274.7,181.3h-37.5l-18.7-75h75L274.7,181.3z M366.9,363.3l-55.6-53.7
		l18.8-32.5l74.3,21.3L366.9,363.3z"/>
</g>
</svg>
