<?xml version="1.0" encoding="utf-8"?>
<!-- Generator: Adobe Illustrator 18.0.0, SVG Export Plug-In . SVG Version: 6.00 Build 0)  -->
<!DOCTYPE svg PUBLIC "-//W3C//DTD SVG 1.1//EN" "http://www.w3.org/Graphics/SVG/1.1/DTD/svg11.dtd">
<svg version="1.1" id="Layer_1" xmlns="http://www.w3.org/2000/svg" xmlns:xlink="http://www.w3.org/1999/xlink" x="0px" y="0px"
	 viewBox="0 0 512 512" enable-background="new 0 0 512 512" xml:space="preserve">
<g>
	<path d="M343,157.8c-9.1-51.1-44.6-89.3-87-89.3c-42.3,0-77.9,38.2-87,89.3h-55.9v250c0,19.7,16,35.7,35.7,35.7h214.3
		c19.7,0,35.7-16,35.7-35.7v-250H343z M256,104.2c22.9,0,43,22.7,50.4,53.6H205.6C213,126.9,233,104.2,256,104.2z M258,389.7
		c-49.3,0-89.3-40-89.3-89.3h-17.9l35.7-35.7l35.7,35.7h-17.9c0,29.6,24.1,53.6,53.6,53.6V389.7z M327.4,336.4l-35.7-35.7h17.9
		c0-29.6-24.1-53.6-53.6-53.6v-35.7c49.3,0,89.3,40,89.3,89.3h17.9L327.4,336.4z"/>
</g>
</svg>
