<?xml version="1.0" encoding="utf-8"?>
<!-- Generator: Adobe Illustrator 18.0.0, SVG Export Plug-In . SVG Version: 6.00 Build 0)  -->
<!DOCTYPE svg PUBLIC "-//W3C//DTD SVG 1.1//EN" "http://www.w3.org/Graphics/SVG/1.1/DTD/svg11.dtd">
<svg version="1.1" id="Layer_1" xmlns="http://www.w3.org/2000/svg" xmlns:xlink="http://www.w3.org/1999/xlink" x="0px" y="0px"
	 viewBox="0 0 512 512" enable-background="new 0 0 512 512" xml:space="preserve">
<g>
	<path d="M181,110.1h150c10.3,0,18.7-8.2,18.7-18.3v-5.1c0-10.1-8.4-18.3-18.7-18.3H181c-10.3,0-18.7,8.2-18.7,18.3v5.1
		C162.3,102,170.7,110.1,181,110.1z"/>
	<polygon points="406,235.2 406,256 312.3,256 312.3,235.2 293.5,235.2 293.5,193.5 274.8,193.5 274.8,110.2 237.3,110.2 
		237.3,193.5 218.5,193.5 218.5,235.2 199.7,235.2 199.7,256 106,256 106,235.2 68.5,235.2 68.5,256 68.5,339.3 68.5,360.1 
		106,360.1 106,339.3 218.5,339.3 218.5,401.8 199.8,401.8 199.8,443.5 218.5,443.5 293.5,443.5 312.2,443.5 312.2,401.8 
		293.5,401.8 293.5,339.3 406,339.3 406,360.1 443.5,360.1 443.5,339.3 443.5,256 443.5,235.2 	"/>
</g>
</svg>
