<?xml version="1.0" encoding="utf-8"?>
<!-- Generator: Adobe Illustrator 18.0.0, SVG Export Plug-In . SVG Version: 6.00 Build 0)  -->
<!DOCTYPE svg PUBLIC "-//W3C//DTD SVG 1.1//EN" "http://www.w3.org/Graphics/SVG/1.1/DTD/svg11.dtd">
<svg version="1.1" id="Layer_1" xmlns="http://www.w3.org/2000/svg" xmlns:xlink="http://www.w3.org/1999/xlink" x="0px" y="0px"
	 viewBox="0 0 512 512" enable-background="new 0 0 512 512" xml:space="preserve">
<g>
	<path d="M256.1,68.5c-51.7,0-98.6,21.4-132.6,55.9l79.5,81.1h0.2c13.7-13.9,32.2-22.5,52.9-22.5c20.6,0,39.2,8.6,52.9,22.5h0.2
		l79.5-81.1C354.7,89.9,307.8,68.5,256.1,68.5z"/>
	<path d="M93.6,354.5c25.9,45.6,67.5,76.2,113.9,88.8l29.3-110.6l-0.1-0.2c-18.7-5.1-35.3-17.2-45.6-35.3
		c-10.3-18.2-12.3-38.8-7.3-57.8l-0.1-0.2L74.9,209.8C62.5,257,67.8,309,93.6,354.5z"/>
	<path d="M418.4,354.7c25.9-45.6,31.1-97.6,18.7-144.7l-108.8,29.5l-0.1,0.2c5,19,3,39.7-7.3,57.8c-10.3,18.2-26.9,30.2-45.6,35.3
		l-0.1,0.2l29.3,110.6C350.9,430.9,392.5,400.2,418.4,354.7z"/>
	<ellipse cx="256.1" cy="259.3" rx="37.5" ry="38.1"/>
</g>
</svg>
