<?xml version="1.0" encoding="utf-8"?>
<!-- Generator: Adobe Illustrator 18.0.0, SVG Export Plug-In . SVG Version: 6.00 Build 0)  -->
<!DOCTYPE svg PUBLIC "-//W3C//DTD SVG 1.1//EN" "http://www.w3.org/Graphics/SVG/1.1/DTD/svg11.dtd">
<svg version="1.1" id="Layer_1" xmlns="http://www.w3.org/2000/svg" xmlns:xlink="http://www.w3.org/1999/xlink" x="0px" y="0px"
	 viewBox="0 0 512 512" enable-background="new 0 0 512 512" xml:space="preserve">
<path d="M387.2,241.9v-42.2L331,241.9v-42.2l-40.5,30.4L274.8,106h-56.2l-18.7,112.5h-20.8l-16.7-150h-37.5l-16.7,150H87.3v18.7
	H68.5v206.2h375V199.8L387.2,241.9z M162.3,406h-37.5v-37.5h37.5V406z M162.3,331h-37.5v-37.5h37.5V331z M237.3,406h-37.5v-37.5
	h37.5V406z M237.3,331h-37.5v-37.5h37.5V331z M312.2,406h-37.5v-37.5h37.5V406z M312.2,331h-37.5v-37.5h37.5V331z M387.2,406h-37.5
	v-37.5h37.5V406z M387.2,331h-37.5v-37.5h37.5V331z"/>
</svg>
