<?xml version="1.0" encoding="utf-8"?>
<!-- Generator: Adobe Illustrator 18.0.0, SVG Export Plug-In . SVG Version: 6.00 Build 0)  -->
<!DOCTYPE svg PUBLIC "-//W3C//DTD SVG 1.1//EN" "http://www.w3.org/Graphics/SVG/1.1/DTD/svg11.dtd">
<svg version="1.1" id="Layer_1" xmlns="http://www.w3.org/2000/svg" xmlns:xlink="http://www.w3.org/1999/xlink" x="0px" y="0px"
	 viewBox="0 0 512 512" enable-background="new 0 0 512 512" xml:space="preserve">
<g>
	<path d="M256,130.5c0,0-75,108.6-75,150c0,41.4,33.6,75,75,75c41.4,0,75-33.6,75-75C331,239.1,256,130.5,256,130.5z"/>
	<path d="M387.3,168h-18.8l37.5,37.5l37.5-37.5h-18.8c0-51.8-42-93.8-93.8-93.8v37.5C361.9,111.8,387.3,136.9,387.3,168z"/>
	<path d="M124.8,318h18.8L106,280.5L68.5,318h18.8c0,51.8,42,93.8,93.7,93.8v-37.5C150.1,374.3,124.8,349.1,124.8,318z"/>
	<path d="M331,374.3v-18.8L293.5,393l37.5,37.5v-18.8c51.8,0,93.8-42,93.8-93.8h-37.5C387.3,348.9,362.1,374.3,331,374.3z"/>
	<path d="M181,111.8v18.8L218.5,93L181,55.5v18.8c-51.8,0-93.7,42-93.7,93.8h37.5C124.8,137.1,149.9,111.8,181,111.8z"/>
</g>
</svg>
