<?xml version="1.0" encoding="utf-8"?>
<!-- Generator: Adobe Illustrator 18.0.0, SVG Export Plug-In . SVG Version: 6.00 Build 0)  -->
<!DOCTYPE svg PUBLIC "-//W3C//DTD SVG 1.1//EN" "http://www.w3.org/Graphics/SVG/1.1/DTD/svg11.dtd">
<svg version="1.1" id="Layer_1" xmlns="http://www.w3.org/2000/svg" xmlns:xlink="http://www.w3.org/1999/xlink" x="0px" y="0px"
	 viewBox="0 0 512 512" enable-background="new 0 0 512 512" xml:space="preserve">
<g>
	<path d="M256.6,293.1h-1.1c-22.1,0-42.6,14.2-53.8,37.3l-39.1,113.1h186.8l-39.1-113.1C299.2,307.3,278.7,293.1,256.6,293.1z"/>
	<path d="M379.3,121.7c14.7-14.7,14.7-38.5,0-53.2l0,0l-110,109.6l26.7,26.6L379.3,121.7z"/>
	<path d="M216,231.2l-83.3,83c-14.7,14.7-14.7,38.5,0,53.2l110-109.6L216,231.2z"/>
	<path d="M242.7,178.1l-83.3-83c-14.7-14.7-38.6-14.7-53.4,0l0,0l110,109.6L242.7,178.1z"/>
	<path d="M296,231.2l-26.7,26.6l83.3,83c14.7,14.7,38.6,14.7,53.4,0L296,231.2z"/>
	<path d="M237.1,217.9c0,10.4,8.4,18.8,18.9,18.8c10.4,0,18.9-8.4,18.9-18.8c0-10.4-8.4-18.8-18.9-18.8
		C245.6,199.1,237.1,207.5,237.1,217.9z"/>
</g>
</svg>
