<?xml version="1.0" encoding="utf-8"?>
<!-- Generator: Adobe Illustrator 18.0.0, SVG Export Plug-In . SVG Version: 6.00 Build 0)  -->
<!DOCTYPE svg PUBLIC "-//W3C//DTD SVG 1.1//EN" "http://www.w3.org/Graphics/SVG/1.1/DTD/svg11.dtd">
<svg version="1.1" id="Layer_1" xmlns="http://www.w3.org/2000/svg" xmlns:xlink="http://www.w3.org/1999/xlink" x="0px" y="0px"
	 viewBox="0 0 512 512" enable-background="new 0 0 512 512" xml:space="preserve">
<path d="M401,253.3c25.1-34.6,31.3-66.9,17.4-91c-14.6-25.4-48.3-35.1-90.9-30c-16.9-39.4-42.2-63.7-71.5-63.7
	c-29.3,0-54.5,24.3-71.5,63.7c-42.6-5.1-76.3,4.7-90.9,30c-13.9,24.2-7.8,56.5,17.4,91c0.7,0.9,1.4,1.8,2.1,2.7
	c-25.7,34.4-34.1,68.4-19.5,93.8c12.2,21.1,37.4,31.4,70,31.4c6.6,0,13.7-0.6,20.8-1.4c16.9,39.5,42.2,63.8,71.5,63.8
	c29.3,0,54.6-24.3,71.5-63.8c7.2,0.9,14.2,1.4,20.8,1.4c32.6,0,57.9-10.4,70.1-31.4c14.6-25.4,6.2-59.4-19.5-93.8
	C399.6,255.1,400.4,254.2,401,253.3z M385.9,181c5.4,9.4,0.6,26.9-12.5,46.2c-8.2-7.9-17.3-15.8-27.1-23.4c-1.7-12.3-3.9-24-6.6-35
	C363.8,167.2,380.7,172,385.9,181z M284.1,304.7c-9.6,5.5-19,10.4-28.1,14.6c-9.2-4.2-18.5-9.1-28.1-14.6
	c-9.3-5.4-18.3-11.1-26.7-17c-0.9-10.1-1.4-20.6-1.4-31.7c0-11.1,0.5-21.6,1.4-31.7c8.3-5.8,17.1-11.5,26.7-17
	c9.5-5.5,18.9-10.3,28-14.6c9.2,4.3,18.6,9,28.2,14.6c9.6,5.5,18.5,11.3,26.7,17.1c0.9,10,1.4,20.6,1.4,31.6
	c0,11.1-0.5,21.6-1.4,31.7C302.4,293.6,293.5,299.3,284.1,304.7z M256,106c10.4,0,23,12.2,33.6,34c-10.9,3.1-22.2,7.1-33.6,11.8
	c-11.5-4.7-22.7-8.6-33.6-11.7C233,118.2,245.6,106,256,106z M126.1,181c4.5-7.8,17.7-12.5,36.9-12.5c2.9,0,6.1,0.2,9.4,0.4
	c-2.8,11-5,22.7-6.6,35c-9.9,7.6-18.9,15.4-27.1,23.4C125.5,207.9,120.6,190.4,126.1,181z M126.1,331c-5.2-9-0.9-26.1,12.7-46.2
	c8.3,8,17.2,15.8,26.9,23.3c1.7,12.3,3.9,24,6.6,35C148.2,344.8,131.3,340,126.1,331z M256,406c-10.4,0-23-12.2-33.6-34.1
	c10.9-3.1,22.2-7,33.6-11.8c11.5,4.7,22.7,8.6,33.6,11.8C279,393.8,266.4,406,256,406z M385.9,331c-5.2,9-22.1,13.8-46.3,12.1
	c2.8-11,5-22.7,6.6-35c9.6-7.5,18.5-15.2,26.8-23.1C386.5,305,391.1,322,385.9,331z"/>
</svg>
