<?xml version="1.0" encoding="utf-8"?>
<!-- Generator: Adobe Illustrator 18.0.0, SVG Export Plug-In . SVG Version: 6.00 Build 0)  -->
<!DOCTYPE svg PUBLIC "-//W3C//DTD SVG 1.1//EN" "http://www.w3.org/Graphics/SVG/1.1/DTD/svg11.dtd">
<svg version="1.1" id="Layer_1" xmlns="http://www.w3.org/2000/svg" xmlns:xlink="http://www.w3.org/1999/xlink" x="0px" y="0px"
	 viewBox="0 0 512 512" enable-background="new 0 0 512 512" xml:space="preserve">
<g>
	<path d="M199.8,199.8c-10.3,0-18.7,8.4-18.7,18.8c0,10.3,8.4,18.7,18.7,18.7s18.8-8.4,18.8-18.7
		C218.5,208.2,210.1,199.8,199.8,199.8z"/>
	<path d="M312.2,199.8c-10.3,0-18.7,8.4-18.7,18.8c0,10.3,8.4,18.7,18.7,18.7c10.3,0,18.8-8.4,18.8-18.7
		C331,208.2,322.6,199.8,312.2,199.8z"/>
	<path d="M424.7,68.5H87.3c-10.4,0-18.7,8.4-18.7,18.7v337.5c0,10.4,8.4,18.8,18.7,18.8h337.5c10.4,0,18.8-8.4,18.8-18.8V87.3
		C443.5,76.9,435.1,68.5,424.7,68.5z M349.7,349.7c-62.4,24.9-125.1,24.9-187.5,0c-24.9-62.4-24.9-125.1,0-187.5
		c62.4-24.9,125.1-24.9,187.5,0C374.7,224.7,374.7,287.3,349.7,349.7z"/>
	<rect x="237.2" y="274.7" width="37.5" height="56.2"/>
</g>
</svg>
