<?xml version="1.0" encoding="utf-8"?>
<!-- Generator: Adobe Illustrator 18.0.0, SVG Export Plug-In . SVG Version: 6.00 Build 0)  -->
<!DOCTYPE svg PUBLIC "-//W3C//DTD SVG 1.1//EN" "http://www.w3.org/Graphics/SVG/1.1/DTD/svg11.dtd">
<svg version="1.1" id="Layer_1" xmlns="http://www.w3.org/2000/svg" xmlns:xlink="http://www.w3.org/1999/xlink" x="0px" y="0px"
	 viewBox="0 0 512 512" enable-background="new 0 0 512 512" xml:space="preserve">
<g>
	<polygon points="68.5,199.7 143.5,349.7 368.5,349.7 443.5,199.7 	"/>
	<path d="M190.4,387.2c-15.5,0-28.1,12.6-28.1,28.1c0,15.5,12.6,28.1,28.1,28.1c15.5,0,28.1-12.6,28.1-28.1
		C218.5,399.8,205.9,387.2,190.4,387.2z"/>
	<path d="M321.6,387.2c-15.5,0-28.1,12.6-28.1,28.1c0,15.5,12.6,28.1,28.1,28.1c15.5,0,28.1-12.6,28.1-28.1
		C349.7,399.8,337.2,387.2,321.6,387.2z"/>
	<path d="M405.1,162.3c0.6-3,0.9-6.2,0.9-9.4c0-25.9-21-46.9-46.9-46.9c-6.9,0-13.3,1.5-19.3,4.1c-2.4-13.1-13.9-22.9-27.6-22.9
		c-9.8,0-18.4,5.1-23.4,12.6c-13.5-18.9-35.8-31.3-60.9-31.3c-28.1,0-52.7,15.6-65.6,38.4c-3-0.6-6.2-0.9-9.4-0.9
		c-25.9,0-46.9,21-46.9,46.9c0,3.2,0.4,6.4,0.9,9.4H405.1z"/>
</g>
</svg>
