<?xml version="1.0" encoding="utf-8"?>
<!-- Generator: Adobe Illustrator 18.0.0, SVG Export Plug-In . SVG Version: 6.00 Build 0)  -->
<!DOCTYPE svg PUBLIC "-//W3C//DTD SVG 1.1//EN" "http://www.w3.org/Graphics/SVG/1.1/DTD/svg11.dtd">
<svg version="1.1" id="Layer_1" xmlns="http://www.w3.org/2000/svg" xmlns:xlink="http://www.w3.org/1999/xlink" x="0px" y="0px"
	 viewBox="0 0 512 512" enable-background="new 0 0 512 512" xml:space="preserve">
<g>
	<path d="M443.5,406c0,20.6-16.9,37.5-37.5,37.5c-13.9,0-26.1-7.5-32.4-18.8h-42.4V256h-56.4v117.6c11.3,6.4,18.8,18.6,18.8,32.4
		c0,20.6-16.9,37.5-37.5,37.5c-20.8,0-37.5-16.9-37.5-37.5c0-14.1,7.5-26.1,18.7-32.4V256H181v112.5h-42.6
		c-6.4,11.3-18.6,18.8-32.4,18.8c-20.6,0-37.5-16.9-37.5-37.5c0-20.8,16.9-37.5,37.5-37.5c13.9,0,26.1,7.5,32.4,18.8h5.1v-75h-18.7
		c-31.1,0-56.2-25.1-56.2-56.2s25.1-56.2,56.2-56.2c0.6,0,1.3,0,1.9,0.2c-1.3-3-1.9-6.2-1.9-9.6c0-15.6,12.6-28.1,28.1-28.1
		c8.6,0,16.3,3.9,21.6,10.1c16.1-28.5,46.7-47.6,81.6-47.6c33.9,0,63.6,18,80.1,45c9.8-4.9,20.8-7.5,32.4-7.5c41.4,0,75,33.6,75,75
		s-33.4,74.8-74.8,75v131.2h4.9c6.4-11.3,18.6-18.8,32.4-18.8C426.6,368.5,443.5,385.2,443.5,406z"/>
</g>
</svg>
