<?xml version="1.0" encoding="utf-8"?>
<!-- Generator: Adobe Illustrator 18.0.0, SVG Export Plug-In . SVG Version: 6.00 Build 0)  -->
<!DOCTYPE svg PUBLIC "-//W3C//DTD SVG 1.1//EN" "http://www.w3.org/Graphics/SVG/1.1/DTD/svg11.dtd">
<svg version="1.1" id="Layer_1" xmlns="http://www.w3.org/2000/svg" xmlns:xlink="http://www.w3.org/1999/xlink" x="0px" y="0px"
	 viewBox="0 0 512 512" enable-background="new 0 0 512 512" xml:space="preserve">
<g>
	<ellipse cx="256" cy="256" rx="37.5" ry="38.2"/>
	<g>
		<path d="M256,181.3c20.7,0,39.4,8.4,53,22l79.6-79.8c-33.9-34-80.8-55.1-132.6-55.1c-51.8,0-98.6,21-132.6,55.1l79.6,79.8
			C216.6,189.7,235.3,181.3,256,181.3z"/>
		<path d="M191.1,297.4c-10.3-18.2-12.4-39-7.5-57.9L74.9,209.9C62.5,257,67.8,309,93.6,354.6c25.9,45.6,67.5,76.2,113.8,88.9
			l29.1-110.6C218,327.9,201.4,315.6,191.1,297.4z"/>
		<path d="M320.9,297.4c-10.3,18.2-27,30.5-45.5,35.5l29.1,110.6c46.3-12.6,87.9-43.3,113.8-88.9c25.9-45.6,31.1-97.6,18.7-144.7
			l-108.7,29.6C333.4,258.4,331.3,279.2,320.9,297.4z"/>
	</g>
</g>
</svg>
