<?xml version="1.0" encoding="utf-8"?>
<!-- Generator: Adobe Illustrator 18.0.0, SVG Export Plug-In . SVG Version: 6.00 Build 0)  -->
<!DOCTYPE svg PUBLIC "-//W3C//DTD SVG 1.1//EN" "http://www.w3.org/Graphics/SVG/1.1/DTD/svg11.dtd">
<svg version="1.1" id="Layer_1" xmlns="http://www.w3.org/2000/svg" xmlns:xlink="http://www.w3.org/1999/xlink" x="0px" y="0px"
	 viewBox="0 0 512 512" enable-background="new 0 0 512 512" xml:space="preserve">
<path d="M432.5,339.7l-33.3-33.3l20-20c7.3-7.3,7.3-19.1,0-26.4l-92.4-92.4c-7.3-7.3-19.1-7.3-26.4,0l-20,20L172.3,79.5
	c-14.6-14.6-38.4-14.6-53,0l-39.8,39.8c-14.6,14.6-14.6,38.4,0,53l108.2,108.2l-20,20c-7.3,7.3-7.3,19.1,0,26.4l23.4,23.4
	l-19.5,19.8l-8.2-8.2c-7.4-7.4-19.3-7.3-26.6,0.1l-0.1,0.1c-7.2,7.3-7.1,19.1,0.2,26.3l43.1,43c7.3,7.3,19.2,7.3,26.5-0.1
	c7.2-7.3,7.2-19.1-0.1-26.4l-8.4-8.4l19.5-19.7l42.5,42.5c7.3,7.3,19.1,7.3,26.4,0l20-20l33.3,33.3c7.3,7.3,16.9,11,26.5,11
	c9.6,0,19.2-3.7,26.5-11l39.8-39.8C447.2,378.1,447.2,354.3,432.5,339.7z M214.2,254L106,145.8l39.8-39.8L254,214.2L214.2,254z
	 M366.2,406L333,372.8l39.8-39.8l33.3,33.3L366.2,406z"/>
</svg>
