<?xml version="1.0" encoding="utf-8"?>
<!-- Generator: Adobe Illustrator 18.0.0, SVG Export Plug-In . SVG Version: 6.00 Build 0)  -->
<!DOCTYPE svg PUBLIC "-//W3C//DTD SVG 1.1//EN" "http://www.w3.org/Graphics/SVG/1.1/DTD/svg11.dtd">
<svg version="1.1" id="Layer_1" xmlns="http://www.w3.org/2000/svg" xmlns:xlink="http://www.w3.org/1999/xlink" x="0px" y="0px"
	 viewBox="0 0 512 512" enable-background="new 0 0 512 512" xml:space="preserve">
<g>
	<path d="M308.2,280.8c-15.6,8.1-33.2,12.7-52.1,12.7c-18.9,0-36.6-4.7-52.1-12.7c-78.2,18-135.4,77.4-135.4,162.7h374.8
		C443.4,358.2,386.4,298.8,308.2,280.8z M293.2,406.6v-37.7h-18.4l37.3-56.6v37.7h17.6L293.2,406.6z"/>
	<path d="M181.1,181c0,18.1,6.7,34.5,17.4,47.5c1.5,1.9,2.9,3.9,4.6,5.6c1.7,1.7,3.7,3,5.5,4.5c13,10.7,29.4,17.4,47.6,17.4
		c18.2,0,34.7-6.7,47.7-17.5c1.8-1.5,3.7-2.8,5.4-4.4c1.6-1.7,2.9-3.6,4.4-5.4c10.8-13,17.5-29.4,17.5-47.6h18.8v-37.5h-18.8
		c0-20.7-16.8-56.2-37.5-56.2h-18.7V68.5h-37.5v18.8h-18.8c-20.7,0-37.4,35.4-37.5,56.2h-18.7V181H181.1L181.1,181z M218.6,181h18.7
		h37.5h18.8c0,9.9-3.9,19.5-11.1,26.8c-6.9,6.7-16.5,10.7-26.4,10.7s-19.5-3.9-26.8-11.1C222.5,200.5,218.6,190.9,218.6,181z"/>
</g>
</svg>
