<?xml version="1.0" encoding="utf-8"?>
<!-- Generator: Adobe Illustrator 18.0.0, SVG Export Plug-In . SVG Version: 6.00 Build 0)  -->
<!DOCTYPE svg PUBLIC "-//W3C//DTD SVG 1.1//EN" "http://www.w3.org/Graphics/SVG/1.1/DTD/svg11.dtd">
<svg version="1.1" id="Layer_1" xmlns="http://www.w3.org/2000/svg" xmlns:xlink="http://www.w3.org/1999/xlink" x="0px" y="0px"
	 viewBox="0 0 512 512" enable-background="new 0 0 512 512" xml:space="preserve">
<g>
	<g>
		<path d="M443.5,274.8v-37.5l-60.7-15.2c-3-11.3-7.3-21.9-13.1-31.7l32.3-53.6l-26.6-26.6l-53.6,32.2c-9.8-5.8-20.4-10.1-31.7-13.1
			l-15.2-60.7h-37.5l-15.2,60.7c-11.3,2.8-21.9,7.3-31.7,13.1l-53.8-32.2l-26.4,26.6l32.2,53.6c-5.8,9.8-10.1,20.4-13.1,31.7
			l-60.7,15.2v37.5l60.7,15.2c3,11.3,7.3,21.9,13.1,31.7l-32.2,53.6l26.4,26.6l54-32.2c9.7,5.8,20.2,10.1,31.5,12.9l15.2,60.9h37.5
			l15.2-60.9c11.3-2.8,21.8-7.1,31.5-13.1l53.8,32.4l26.6-26.6l-32.3-53.6c5.8-9.8,10.1-20.4,13.1-31.7L443.5,274.8z M256,331
			c-41.4,0-75-33.6-75-75s33.6-75,75-75c41.4,0,75,33.6,75,75S297.4,331,256,331z"/>
	</g>
</g>
</svg>
