<?xml version="1.0" encoding="utf-8"?>
<!-- Generator: Adobe Illustrator 18.0.0, SVG Export Plug-In . SVG Version: 6.00 Build 0)  -->
<!DOCTYPE svg PUBLIC "-//W3C//DTD SVG 1.1//EN" "http://www.w3.org/Graphics/SVG/1.1/DTD/svg11.dtd">
<svg version="1.1" id="Layer_1" xmlns="http://www.w3.org/2000/svg" xmlns:xlink="http://www.w3.org/1999/xlink" x="0px" y="0px"
	 viewBox="0 0 512 512" enable-background="new 0 0 512 512" xml:space="preserve">
<g>
	<path d="M387.3,368.5h-18.8c0-55.7-40.5-102-93.8-110.8v-40h-37.5v40c-53.3,8.8-93.8,55.1-93.8,110.8h-18.8
		c-10.4,0-18.8,8.4-18.8,18.8c0,10.4,8.4,18.8,18.8,18.8h18.8v37.5h225V406h18.8c10.4,0,18.8-8.4,18.8-18.8
		C406,376.9,397.6,368.5,387.3,368.5z"/>
	<path d="M237.5,199.8c0.5-25.2,6.6-50.2,18.6-69.5l0,0l0,0c12,19.2,18.1,44.2,18.6,69.4c45-40,38.9-95.5-18.5-131.2l0,0l0,0
		C198.6,104.2,192.5,159.7,237.5,199.8z"/>
</g>
</svg>
