<?xml version="1.0" encoding="utf-8"?>
<!-- Generator: Adobe Illustrator 18.0.0, SVG Export Plug-In . SVG Version: 6.00 Build 0)  -->
<!DOCTYPE svg PUBLIC "-//W3C//DTD SVG 1.1//EN" "http://www.w3.org/Graphics/SVG/1.1/DTD/svg11.dtd">
<svg version="1.1" id="Layer_1" xmlns="http://www.w3.org/2000/svg" xmlns:xlink="http://www.w3.org/1999/xlink" x="0px" y="0px"
	 viewBox="0 0 512 512" enable-background="new 0 0 512 512" xml:space="preserve">
<g>
	<path d="M106,181v37.5c0,6.4,0.5,12.6,1.3,18.8h297.4c0.8-6.2,1.3-12.4,1.3-18.8V181H106z"/>
	<path d="M181,348.2l18.8,39h18.8v37.5c0,10.3,8.4,18.8,18.8,18.8h37.5c10.3,0,18.8-8.4,18.8-18.8v-37.5h18.8l18.8-39
		c11.4-6.4,21.9-14.4,31.1-23.6c14-14.1,25.2-31.1,32.8-49.9H117.1C129.7,305.8,152.3,331.8,181,348.2z"/>
	<rect x="143.5" y="68.5" width="37.5" height="75"/>
	<rect x="237.3" y="68.5" width="37.5" height="75"/>
	<rect x="331" y="68.5" width="37.5" height="75"/>
</g>
</svg>
