<?xml version="1.0" encoding="utf-8"?>
<!-- Generator: Adobe Illustrator 18.0.0, SVG Export Plug-In . SVG Version: 6.00 Build 0)  -->
<!DOCTYPE svg PUBLIC "-//W3C//DTD SVG 1.1//EN" "http://www.w3.org/Graphics/SVG/1.1/DTD/svg11.dtd">
<svg version="1.1" id="Layer_1" xmlns="http://www.w3.org/2000/svg" xmlns:xlink="http://www.w3.org/1999/xlink" x="0px" y="0px"
	 viewBox="0 0 512 512" enable-background="new 0 0 512 512" xml:space="preserve">
<path d="M443.5,218.5V181c-36.8,0-69.4,17.8-89.9,45.1l-15.1-11.4c-17.2,22.9-26.3,50.1-26.3,78.8v56.2h-18.8V162.2h-18.8V68.5H237
	v93.7h-18.8v187.5h-18.4v-56.2c0-28.7-9.1-55.9-26.3-78.8L158.4,226c-20.6-27.3-53.2-45.1-89.9-45.1v37.5c24.5,0,46.1,12,59.8,30.2
	l-14.8,11.1c7.4,9.8,11.3,21.4,11.3,33.7v56.2H86.9v93.7h337.8v-93.7h-37.5v-56.2c0-12.3,3.9-24,11.3-33.7l-14.8-11.1
	C397.4,230.4,419,218.5,443.5,218.5z"/>
</svg>
