<?xml version="1.0" encoding="utf-8"?>
<!-- Generator: Adobe Illustrator 18.0.0, SVG Export Plug-In . SVG Version: 6.00 Build 0)  -->
<!DOCTYPE svg PUBLIC "-//W3C//DTD SVG 1.1//EN" "http://www.w3.org/Graphics/SVG/1.1/DTD/svg11.dtd">
<svg version="1.1" id="Layer_1" xmlns="http://www.w3.org/2000/svg" xmlns:xlink="http://www.w3.org/1999/xlink" x="0px" y="0px"
	 viewBox="0 0 512 512" enable-background="new 0 0 512 512" xml:space="preserve">
<g>
	<path d="M405.8,165.6c0.2-1.1,0.2-2.2,0.2-3.4c0-20.8-16.7-37.5-37.5-37.5c-6.8,0-12.9,1.7-18.4,4.9c-15.9-36-52.1-61.1-94.1-61.1
		c-41.2,0-76.7,24-93,58.9c-6.2-1.7-12.8-2.6-19.5-2.6c-41.4,0-75,33.6-75,75c0,41.4,33.6,75,75,75c19.7,0,219.6,0,243.7,0
		c31.1,0,56.2-25.3,56.2-56.2C443.5,193.9,427.7,173.1,405.8,165.6z"/>
	<g>
		<polygon points="181,312.2 124.7,387.2 162.2,387.2 143.5,443.5 199.7,368.5 162.2,368.5 		"/>
		<polygon points="274.8,312.2 218.5,387.2 256,387.2 237.3,443.5 293.5,368.5 256,368.5 		"/>
		<polygon points="368.5,312.2 312.3,387.2 349.8,387.2 331,443.5 387.3,368.5 349.8,368.5 		"/>
	</g>
</g>
</svg>
