<?xml version="1.0" encoding="utf-8"?>
<!-- Generator: Adobe Illustrator 18.0.0, SVG Export Plug-In . SVG Version: 6.00 Build 0)  -->
<!DOCTYPE svg PUBLIC "-//W3C//DTD SVG 1.1//EN" "http://www.w3.org/Graphics/SVG/1.1/DTD/svg11.dtd">
<svg version="1.1" id="Layer_1" xmlns="http://www.w3.org/2000/svg" xmlns:xlink="http://www.w3.org/1999/xlink" x="0px" y="0px"
	 viewBox="0 0 512 512" enable-background="new 0 0 512 512" xml:space="preserve">
<g>
	<path d="M331,405.5l-56.3-171v-27.6l124.8,46.5c9.7,3.6,20.5-1.4,24.1-11.3c3.6-9.9-1.4-20.8-11.2-24.4l-227.5-84.8l9-27
		c3.3-9.9-2-20.7-11.8-24.1l-35.5-12.2c-9.8-3.4-20.5,2-23.8,12L87.1,189.6l19,63.9l52.1-39.8l14.8-44.7l64.3,23.9v41.4l-56.3,171
		H68.5v38h375v-38H331z"/>
	<rect x="368.5" y="272.5" width="37.5" height="114"/>
</g>
</svg>
