<?xml version="1.0" encoding="utf-8"?>
<!-- Generator: Adobe Illustrator 18.0.0, SVG Export Plug-In . SVG Version: 6.00 Build 0)  -->
<!DOCTYPE svg PUBLIC "-//W3C//DTD SVG 1.1//EN" "http://www.w3.org/Graphics/SVG/1.1/DTD/svg11.dtd">
<svg version="1.1" id="Layer_1" xmlns="http://www.w3.org/2000/svg" xmlns:xlink="http://www.w3.org/1999/xlink" x="0px" y="0px"
	 viewBox="0 0 512 512" enable-background="new 0 0 512 512" xml:space="preserve">
<path d="M406,256L387.3,68.5H331L312.3,256H256v-75H68.5v262.5H181V331h75v112.5h187.5V256H406z M143.5,406H106v-37.5h37.5V406z
	 M143.5,331H106v-37.5h37.5V331z M143.5,256H106v-37.5h37.5V256z M218.5,256H181v-37.5h37.5V256z M331,331h-37.5v-37.5H331V331z
	 M406,331h-37.5v-37.5H406V331z M331,406h-37.5v-37.5H331V406z M406,406h-37.5v-37.5H406V406z"/>
</svg>
