<?xml version="1.0" encoding="utf-8"?>
<!-- Generator: Adobe Illustrator 18.0.0, SVG Export Plug-In . SVG Version: 6.00 Build 0)  -->
<!DOCTYPE svg PUBLIC "-//W3C//DTD SVG 1.1//EN" "http://www.w3.org/Graphics/SVG/1.1/DTD/svg11.dtd">
<svg version="1.1" id="Layer_1" xmlns="http://www.w3.org/2000/svg" xmlns:xlink="http://www.w3.org/1999/xlink" x="0px" y="0px"
	 viewBox="0 0 512 512" enable-background="new 0 0 512 512" xml:space="preserve">
<path d="M406,256c0-10.3-8.4-18.8-18.8-18.8V124.7c10.3,0,18.8-8.3,18.8-18.8c0-10.3-8.4-18.8-18.8-18.8H218.5V68.5h-56.3v18.7
	h-37.5c-10.3,0-18.8,8.4-18.8,18.8c0,10.5,8.4,18.8,18.8,18.8v112.5c-10.3,0-18.8,8.4-18.8,18.8c0,10.5,8.4,18.8,18.8,18.8V406
	c-10.3,0-18.8,8.4-18.8,18.8c0,10.5,8.4,18.8,18.8,18.8h262.6c10.3,0,18.8-8.3,18.8-18.8c0-10.3-8.4-18.8-18.8-18.8V274.7
	C397.6,274.7,406,266.5,406,256z M256,312.2c-20.6,0-37.5-16.9-37.5-37.5c0-20.6,37.5-75,37.5-75s37.5,54.4,37.5,75
	C293.5,295.3,276.6,312.2,256,312.2z"/>
</svg>
