<?xml version="1.0" encoding="utf-8"?>
<!-- Generator: Adobe Illustrator 18.0.0, SVG Export Plug-In . SVG Version: 6.00 Build 0)  -->
<!DOCTYPE svg PUBLIC "-//W3C//DTD SVG 1.1//EN" "http://www.w3.org/Graphics/SVG/1.1/DTD/svg11.dtd">
<svg version="1.1" id="Layer_1" xmlns="http://www.w3.org/2000/svg" xmlns:xlink="http://www.w3.org/1999/xlink" x="0px" y="0px"
	 viewBox="0 0 512 512" enable-background="new 0 0 512 512" xml:space="preserve">
<g>
	<path d="M368.5,68.5h-225c-10.3,0-18.7,8.4-18.7,18.8v337.5c0,10.5,8.4,18.8,18.7,18.8h225c10.3,0,18.8-8.3,18.8-18.8V87.3
		C387.3,76.9,378.8,68.5,368.5,68.5z M349.8,387.3c0,10.5-8.4,18.8-18.8,18.8H181c-10.3,0-18.8-8.3-18.8-18.8v-75
		c0-10.3,8.4-18.8,18.8-18.8h150c10.3,0,18.8,8.4,18.8,18.8V387.3z M349.8,199.8c0,10.5-8.4,18.8-18.8,18.8H181
		c-10.3,0-18.8-8.3-18.8-18.8v-75c0-10.3,8.4-18.8,18.8-18.8h150c10.3,0,18.8,8.4,18.8,18.8V199.8z"/>
	<path d="M218.5,143.5c-10.3,0-18.8,8.4-18.8,18.8c0,10.5,8.4,18.8,18.8,18.8s18.8-8.3,18.8-18.8
		C237.3,151.9,228.8,143.5,218.5,143.5z"/>
	<path d="M293.5,143.5c-10.3,0-18.8,8.4-18.8,18.8c0,10.5,8.4,18.8,18.8,18.8s18.8-8.3,18.8-18.8
		C312.3,151.9,303.8,143.5,293.5,143.5z"/>
	<path d="M218.5,331c-10.3,0-18.8,8.4-18.8,18.8c0,10.5,8.4,18.8,18.8,18.8s18.8-8.3,18.8-18.8C237.3,339.4,228.8,331,218.5,331z"/>
	<path d="M293.5,331c-10.3,0-18.8,8.4-18.8,18.8c0,10.5,8.4,18.8,18.8,18.8s18.8-8.3,18.8-18.8C312.3,339.4,303.8,331,293.5,331z"/>
</g>
</svg>
