<?xml version="1.0" encoding="utf-8"?>
<!-- Generator: Adobe Illustrator 18.0.0, SVG Export Plug-In . SVG Version: 6.00 Build 0)  -->
<!DOCTYPE svg PUBLIC "-//W3C//DTD SVG 1.1//EN" "http://www.w3.org/Graphics/SVG/1.1/DTD/svg11.dtd">
<svg version="1.1" id="Layer_1" xmlns="http://www.w3.org/2000/svg" xmlns:xlink="http://www.w3.org/1999/xlink" x="0px" y="0px"
	 viewBox="0 0 512 512" enable-background="new 0 0 512 512" xml:space="preserve">
<g>
	<path d="M424.8,330.9v-93.8c0-20.7-16.8-37.5-37.5-37.5h-93.8V181h-18.8v-75h37.5c10.4,0,18.8-8.4,18.8-18.8
		c0-10.4-8.4-18.8-18.8-18.8H199.8c-10.4,0-18.8,8.4-18.8,18.8c0,10.4,8.4,18.8,18.8,18.8h37.5v75h-18.8v18.7h-150v75h134.7
		c7.7,21.8,28.3,37.6,52.8,37.6s45.1-15.7,52.8-37.6h41v56.3H331v18.8h112.5v-18.8H424.8z"/>
	<path d="M387.3,387.3c0,0-18.8,21.3-18.8,33.8s8.4,22.5,18.8,22.5S406,433.4,406,421S387.3,387.3,387.3,387.3z"/>
</g>
</svg>
