<?xml version="1.0" encoding="utf-8"?>
<!-- Generator: Adobe Illustrator 18.0.0, SVG Export Plug-In . SVG Version: 6.00 Build 0)  -->
<!DOCTYPE svg PUBLIC "-//W3C//DTD SVG 1.1//EN" "http://www.w3.org/Graphics/SVG/1.1/DTD/svg11.dtd">
<svg version="1.1" id="Layer_1" xmlns="http://www.w3.org/2000/svg" xmlns:xlink="http://www.w3.org/1999/xlink" x="0px" y="0px"
	 viewBox="0 0 512 512" enable-background="new 0 0 512 512" xml:space="preserve">
<g>
	<path d="M218.8,256c0,20.5,16.7,37.2,37.2,37.2c20.5,0,37.2-16.7,37.2-37.2c0-20.5-16.7-37.2-37.2-37.2
		C235.5,218.8,218.8,235.5,218.8,256z"/>
	<path d="M194.4,148.6c12.9,5.5,24.3,14.6,27.4,27.1c1.5,5.8,4.4,10.9,9,15c19.3,17.2,59.3,9.5,89.3-17.3c19.7-17.6,30-39,29.4-56.6
		c0.1-0.8,0.3-1.7,0.3-2.5c0-25.2-42-45.7-93.8-45.7c-51.8,0-93.8,20.4-93.8,45.7C162.3,127.9,174.7,140.2,194.4,148.6z"/>
	<path d="M317.6,363.4c-12.9-5.5-24.3-14.6-27.4-27c-1.5-5.8-4.4-10.9-9-15c-19.3-17.2-59.3-9.5-89.3,17.3
		c-19.7,17.6-30,39-29.4,56.6c-0.1,0.8-0.3,1.7-0.3,2.5c0,25.2,42,45.7,93.7,45.7s93.8-20.4,93.8-45.7
		C349.8,384.1,337.3,371.8,317.6,363.4z"/>
	<path d="M190.6,281.2c17.2-19.3,9.5-59.3-17.3-89.3c-17.6-19.7-39-30-56.6-29.4c-0.8-0.1-1.7-0.3-2.5-0.3
		c-25.2,0-45.7,42-45.7,93.7c0,51.8,20.5,93.8,45.7,93.8c13.7,0,26-12.5,34.4-32.2c5.5-12.9,14.6-24.3,27.1-27.4
		C181.4,288.7,186.5,285.7,190.6,281.2z"/>
	<path d="M397.8,162.3c-13.7,0-26,12.5-34.4,32.2c-5.5,12.9-14.6,24.3-27,27.4c-5.8,1.5-10.9,4.4-15,9
		c-17.2,19.3-9.5,59.3,17.3,89.3c17.6,19.7,39,30,56.6,29.4c0.8,0.1,1.7,0.3,2.5,0.3c25.2,0,45.7-42,45.7-93.8
		C443.5,204.2,423.1,162.3,397.8,162.3z"/>
</g>
</svg>
