<?xml version="1.0" encoding="utf-8"?>
<!-- Generator: Adobe Illustrator 18.0.0, SVG Export Plug-In . SVG Version: 6.00 Build 0)  -->
<!DOCTYPE svg PUBLIC "-//W3C//DTD SVG 1.1//EN" "http://www.w3.org/Graphics/SVG/1.1/DTD/svg11.dtd">
<svg version="1.1" id="Layer_1" xmlns="http://www.w3.org/2000/svg" xmlns:xlink="http://www.w3.org/1999/xlink" x="0px" y="0px"
	 viewBox="0 0 512 512" enable-background="new 0 0 512 512" xml:space="preserve">
<g>
	<path d="M143.5,256c0-8.3,0.9-16.3,2.6-24l-77.6,24l77.6,24.2C144.4,272.3,143.5,264.3,143.5,256z"/>
	<path d="M183.6,169.9l-79.3-29.8l49.9,68.3C161.1,193.6,171.2,180.4,183.6,169.9z"/>
	<path d="M154.2,303.6l-49.9,68.3l79.5-29.6C171.4,331.8,161.1,318.6,154.2,303.6z"/>
	<path d="M198.1,443.5l49.1-75.4c-17.1-1.3-32.8-6.4-46.7-14.2L198.1,443.5z"/>
	<path d="M247.2,143.9l-49.1-75.4l2.3,89.8C214.2,150.3,230.1,145.2,247.2,143.9z"/>
	<path d="M264.8,368.1l49.1,75.4l-2.4-89.6C297.6,361.8,281.9,366.8,264.8,368.1z"/>
	<path d="M313.9,68.5l-49.1,75.4c17.1,1.3,33,6.4,46.9,14.4L313.9,68.5z"/>
	<path d="M328.2,342.3l79.5,29.6l-50.1-68.1C350.9,318.8,340.6,331.9,328.2,342.3z"/>
	<path d="M357.8,208.4l49.9-68.3l-79.3,29.8C340.8,180.4,350.9,193.6,357.8,208.4z"/>
	<path d="M443.5,256l-77.6-24c1.7,7.7,2.6,15.7,2.6,24c0,8.3-0.9,16.3-2.6,24.2L443.5,256z"/>
	<circle cx="256" cy="256.1" r="75"/>
</g>
</svg>
