<?xml version="1.0" encoding="utf-8"?>
<!-- Generator: Adobe Illustrator 18.0.0, SVG Export Plug-In . SVG Version: 6.00 Build 0)  -->
<!DOCTYPE svg PUBLIC "-//W3C//DTD SVG 1.1//EN" "http://www.w3.org/Graphics/SVG/1.1/DTD/svg11.dtd">
<svg version="1.1" id="Layer_1" xmlns="http://www.w3.org/2000/svg" xmlns:xlink="http://www.w3.org/1999/xlink" x="0px" y="0px"
	 viewBox="0 0 512 512" enable-background="new 0 0 512 512" xml:space="preserve">
<g>
	<path d="M87.4,256h18.8v18.8h18.6V406h112.5v37.5h56.3v-75h75v75h56.3V331h18.8L331,218.5L218.5,331h18.8v37.5h-75v-93.8h18.6V256
		h18.8c-8.3-37.5,39.2-75,8.4-112.5h-8.3V87.3c0-10.3-8.4-18.8-18.8-18.8s-18.8,8.4-18.8,18.8v56.3h-37.5V87.3
		c0-10.3-8.4-18.8-18.8-18.8s-18.8,8.4-18.8,18.8v56.3H79C48.2,181,95.7,218.5,87.4,256z"/>
</g>
</svg>
