<?xml version="1.0" encoding="utf-8"?>
<!-- Generator: Adobe Illustrator 18.0.0, SVG Export Plug-In . SVG Version: 6.00 Build 0)  -->
<!DOCTYPE svg PUBLIC "-//W3C//DTD SVG 1.1//EN" "http://www.w3.org/Graphics/SVG/1.1/DTD/svg11.dtd">
<svg version="1.1" id="Layer_1" xmlns="http://www.w3.org/2000/svg" xmlns:xlink="http://www.w3.org/1999/xlink" x="0px" y="0px"
	 viewBox="0 0 512 512" enable-background="new 0 0 512 512" xml:space="preserve">
<g>
	<g>
		<path d="M166.9,207.1l6.9,30.2h164.3l6.9-30.2H166.9z"/>
		<path d="M368.5,209.1c0,15.6-12.6,28.1-28.1,28.1H171.6c-15.6,0-28.1-12.6-28.1-28.1s12.6-28.1,28.1-28.1h168.8
			C355.9,181,368.5,193.6,368.5,209.1z"/>
		<g>
			<path d="M218.5,199.8H181V87.3c0-10.4,8.4-18.8,18.8-18.8l0,0c10.4,0,18.8,8.4,18.8,18.8V199.8z"/>
			<path d="M331,199.8h-37.5V87.3c0-10.4,8.4-18.8,18.8-18.8l0,0c10.4,0,18.8,8.4,18.8,18.8V199.8z"/>
		</g>
	</g>
	<g>
		<path d="M173.9,237.3l25.9,112.5h37.5v93.7h37.5v-93.7h37.5l25.9-112.5H173.9z M256,293.5c-10.3,0-18.8-8.4-18.8-18.8
			S245.7,256,256,256s18.8,8.4,18.8,18.8S266.3,293.5,256,293.5z"/>
	</g>
</g>
</svg>
