<?xml version="1.0" encoding="utf-8"?>
<!-- Generator: Adobe Illustrator 18.0.0, SVG Export Plug-In . SVG Version: 6.00 Build 0)  -->
<!DOCTYPE svg PUBLIC "-//W3C//DTD SVG 1.1//EN" "http://www.w3.org/Graphics/SVG/1.1/DTD/svg11.dtd">
<svg version="1.1" id="Layer_1" xmlns="http://www.w3.org/2000/svg" xmlns:xlink="http://www.w3.org/1999/xlink" x="0px" y="0px"
	 viewBox="0 0 512 512" enable-background="new 0 0 512 512" xml:space="preserve">
<path d="M424.7,143.5V87.3c0-10.4-8.4-18.8-18.8-18.8l0,0c-10.4,0-18.8,8.4-18.8,18.8v56.2h-37.5V87.3c0-10.4-8.4-18.8-18.8-18.8
	l0,0c-10.4,0-18.8,8.4-18.8,18.8v56.2c-6.2,0-12.5,0-18.8,0c0,7.3,0,60.5,0,75c10.2,14.2,23.2,24,37.5,30.1v26.1h18.8v75h-57.9
	c1-6.1,1.7-12.3,1.7-18.8c0-62.1-50.3-112.5-112.5-112.5c-67,0-120.1,58.5-111.6,126.9c6.1,49.1,45.3,89.5,94.2,96.8
	c48.9,7.3,92.7-16.7,114.8-55h108.9V274.8H406v-27.3c14.3-6.3,27.3-16,37.5-29c0-7.1,0-69.1,0-75C437.2,143.5,431,143.5,424.7,143.5
	z M218.5,312.3l-75,75L181,331h-37.3l37.3-56.3h37.5L181,312.3H218.5z"/>
</svg>
