<?xml version="1.0" encoding="utf-8"?>
<!-- Generator: Adobe Illustrator 18.0.0, SVG Export Plug-In . SVG Version: 6.00 Build 0)  -->
<!DOCTYPE svg PUBLIC "-//W3C//DTD SVG 1.1//EN" "http://www.w3.org/Graphics/SVG/1.1/DTD/svg11.dtd">
<svg version="1.1" id="Layer_1" xmlns="http://www.w3.org/2000/svg" xmlns:xlink="http://www.w3.org/1999/xlink" x="0px" y="0px"
	 viewBox="0 0 512 512" enable-background="new 0 0 512 512" xml:space="preserve">
<path d="M274.8,406V232c10.1-5.9,17-16.2,18.3-28.3l96.3-37.9l40.6,44.9c18.5-7.3,15.7-32.1,5.3-62.9l0.5-0.2l-13.9-35.3l-0.5,0.2
	C407.9,82.8,393,62.7,374.6,70l0.9,60.5l-98,38.6c-6.1-4.3-13.5-6.8-21.5-6.8c-18,0-33.1,12.7-36.7,29.7L68.5,251.3l13.9,35.3
	l23.6-9.3v77.5c-11.3,6.4-18.8,18.4-18.8,32.4c0,6.8,2,13.2,5.2,18.7H68.5v37.5h375V406H274.8z M143.5,354.8v-92.2l88-34.6
	c1.8,1.5,3.7,2.9,5.7,4.1v174H157c3.2-5.5,5.2-11.9,5.2-18.7C162.3,373.4,154.8,361.2,143.5,354.8z"/>
</svg>
