<?xml version="1.0" encoding="utf-8"?>
<!-- Generator: Adobe Illustrator 18.0.0, SVG Export Plug-In . SVG Version: 6.00 Build 0)  -->
<!DOCTYPE svg PUBLIC "-//W3C//DTD SVG 1.1//EN" "http://www.w3.org/Graphics/SVG/1.1/DTD/svg11.dtd">
<svg version="1.1" id="Layer_1" xmlns="http://www.w3.org/2000/svg" xmlns:xlink="http://www.w3.org/1999/xlink" x="0px" y="0px"
	 viewBox="0 0 512 512" enable-background="new 0 0 512 512" xml:space="preserve">
<path d="M331,68.5h-56.3V106h-37.5V68.5H181c-62.1,0-112.5,50.4-112.5,112.5v150c0,62.1,50.4,112.5,112.5,112.5h56.3V406h37.5v37.5
	H331c62.1,0,112.5-50.4,112.5-112.5V181C443.5,118.9,393.1,68.5,331,68.5z M162.3,293.5c-20.7,0-37.5-16.8-37.5-37.5
	c0-20.7,16.8-37.5,37.5-37.5c20.7,0,37.5,16.8,37.5,37.5C199.8,276.7,183,293.5,162.3,293.5z M349.8,293.5
	c-20.7,0-37.5-16.8-37.5-37.5c0-20.7,16.8-37.5,37.5-37.5c20.7,0,37.5,16.8,37.5,37.5C387.3,276.7,370.5,293.5,349.8,293.5z"/>
</svg>
