<?xml version="1.0" encoding="utf-8"?>
<!-- Generator: Adobe Illustrator 18.0.0, SVG Export Plug-In . SVG Version: 6.00 Build 0)  -->
<!DOCTYPE svg PUBLIC "-//W3C//DTD SVG 1.1//EN" "http://www.w3.org/Graphics/SVG/1.1/DTD/svg11.dtd">
<svg version="1.1" id="Layer_1" xmlns="http://www.w3.org/2000/svg" xmlns:xlink="http://www.w3.org/1999/xlink" x="0px" y="0px"
	 viewBox="0 0 512 512" enable-background="new 0 0 512 512" xml:space="preserve">
<g>
	<path d="M434.1,359.1c-7.9,6.2-18,9.2-28.1,9.2s-20.3-3-28.1-9.2c-1-0.8-2.1-1.4-3.1-2l13.8-13.9l-40.9-40.9
		c9.6-13.7,16.3-29.4,19.1-46.3h57.9v-37.5h-57.9c-2.8-17.1-9.6-32.8-19.3-46.3l41.1-41.1l-26.4-26.6l-41.1,41.1
		c-13.5-9.6-29.3-16.3-46.3-19.1V68.5h-37.5v57.9c-17.1,2.8-32.8,9.6-46.3,19.1l-41.1-41.1l-26.4,26.6l41.1,41.1
		c-9.8,13.5-16.5,29.3-19.3,46.3H87.3V256h57.9c2.8,16.9,9.6,32.6,19.1,46.3l-40.9,40.9l7,7c-1.9-0.2-3.8-0.4-5.6-0.4
		c-10.1,0-20.3,3.2-28.1,9.4s-18,9.2-28.1,9.2v75.2h375v-89.8C440.1,355,436.9,356.9,434.1,359.1z M237.3,349.8
		c-10.1,0-20.3,3.2-28.1,9.4s-18,9.2-28.1,9.2c-8.2,0-16.4-2.1-23.4-6.2l33.4-33.4c13.5,9.8,29.3,16.5,46.3,19.3V349.8z M181,237.2
		c0-41.4,33.6-75,75-75c41.4,0,75,33.6,75,75c0,41.4-33.6,75-75,75C214.6,312.2,181,278.6,181,237.2z M321.6,359.1
		c-7.9,6.2-18,9.2-28.1,9.2c-6.5,0-12.9-1.4-18.8-3.9v-16.4c17.1-2.8,32.8-9.6,46.3-19.3l21.6,21.6
		C335,351.5,327.6,354.4,321.6,359.1z"/>
	<circle cx="256" cy="237.2" r="37.5"/>
</g>
</svg>
