<?xml version="1.0" encoding="utf-8"?>
<!-- Generator: Adobe Illustrator 18.0.0, SVG Export Plug-In . SVG Version: 6.00 Build 0)  -->
<!DOCTYPE svg PUBLIC "-//W3C//DTD SVG 1.1//EN" "http://www.w3.org/Graphics/SVG/1.1/DTD/svg11.dtd">
<svg version="1.1" id="Layer_1" xmlns="http://www.w3.org/2000/svg" xmlns:xlink="http://www.w3.org/1999/xlink" x="0px" y="0px"
	 viewBox="0 0 512 512" enable-background="new 0 0 512 512" xml:space="preserve">
<path d="M387.3,218.5c0-10.5-8.4-18.8-18.8-18.8v-75c10.3,0,18.8-8.4,18.8-18.8c0-10.5-8.4-18.8-18.8-18.8H237.3V68.5H181v18.8
	h-37.5c-10.3,0-18.8,8.2-18.8,18.8c0,10.3,8.4,18.8,18.8,18.8v75c-10.3,0-18.8,8.2-18.8,18.8c0,10.3,8.4,18.8,18.8,18.8v56.3
	c-10.3,0-18.8,8.2-18.8,18.8c0,10.3,8.4,18.8,18.8,18.8v75c-10.3,0-18.8,8.2-18.8,18.8c0,10.3,8.4,18.8,18.8,18.8h225
	c10.3,0,18.8-8.4,18.8-18.8c0-10.5-8.4-18.8-18.8-18.8v-75c10.3,0,18.8-8.4,18.8-18.8c0-10.5-8.4-18.8-18.8-18.8v-56.3
	C378.8,237.3,387.3,228.8,387.3,218.5z M237.3,368.5l18.8-93.8h-56.3l75-131.3L256,237.3h56.3L237.3,368.5z"/>
</svg>
