<?xml version="1.0" encoding="utf-8"?>
<!-- Generator: Adobe Illustrator 18.0.0, SVG Export Plug-In . SVG Version: 6.00 Build 0)  -->
<!DOCTYPE svg PUBLIC "-//W3C//DTD SVG 1.1//EN" "http://www.w3.org/Graphics/SVG/1.1/DTD/svg11.dtd">
<svg version="1.1" id="Layer_1" xmlns="http://www.w3.org/2000/svg" xmlns:xlink="http://www.w3.org/1999/xlink" x="0px" y="0px"
	 viewBox="0 0 512 512" enable-background="new 0 0 512 512" xml:space="preserve">
<g>
	<polygon points="237.2,256 199.7,443.5 312.2,443.5 274.7,256 	"/>
	<path d="M293.5,181c0-3.4-0.4-6.8-1.3-9.8l76.3-76.3l-26.4-26.4l-76.3,76.3c-3-0.9-6.4-1.3-9.7-1.3c-3.4,0-6.6,0.4-9.8,1.3
		l-76.3-76.3l-26.4,26.4l76.3,76.3c-0.9,3-1.3,6.4-1.3,9.8c0,3.4,0.4,6.8,1.3,9.8l-76.3,76.3l26.4,26.4l76.3-76.3
		c3.2,0.9,6.4,1.3,9.8,1.3c3.4,0,6.8-0.4,9.7-1.3l76.3,76.3l26.4-26.4l-76.3-76.3C293.1,187.8,293.5,184.4,293.5,181z"/>
</g>
</svg>
