<?xml version="1.0" encoding="utf-8"?>
<!-- Generator: Adobe Illustrator 18.0.0, SVG Export Plug-In . SVG Version: 6.00 Build 0)  -->
<!DOCTYPE svg PUBLIC "-//W3C//DTD SVG 1.1//EN" "http://www.w3.org/Graphics/SVG/1.1/DTD/svg11.dtd">
<svg version="1.1" id="Layer_1" xmlns="http://www.w3.org/2000/svg" xmlns:xlink="http://www.w3.org/1999/xlink" x="0px" y="0px"
	 viewBox="0 0 512 512" enable-background="new 0 0 512 512" xml:space="preserve">
<g>
	<polygon points="218.5,199.8 199.9,199.8 199.9,237.3 233.5,237.3 	"/>
	<polygon points="241,256.4 199.9,256.4 199.9,293.5 255.8,293.5 	"/>
	<polygon points="124.6,199.8 105.8,199.8 90.8,237.3 124.6,237.3 	"/>
	<rect x="143.7" y="199.8" width="37.1" height="37.5"/>
	<rect x="143.7" y="256.4" width="37.1" height="37.1"/>
	<polygon points="124.6,256.4 83.3,256.4 68.5,293.5 124.6,293.5 	"/>
	<polygon points="68.5,349.7 143.5,349.7 143.5,406 106,406 106,443.5 218.5,443.5 218.5,406 181,406 181,349.7 256,349.7 
		256,312.2 68.5,312.2 	"/>
	<path d="M320.2,114.5L283.5,96l18.4,36.9C306.5,125.4,312.7,119,320.2,114.5z"/>
	<path d="M379.4,210l36.7,18.5l-18.5-36.7C392.8,199.1,386.7,205.3,379.4,210z"/>
	<path d="M362.6,107.6l-12.8-39.1l-13.1,39.1C345.3,105.6,354.1,105.4,362.6,107.6z"/>
	<path d="M336.9,216.9l12.8,39.1l12.8-39.1C354.1,218.8,345.4,218.8,336.9,216.9z"/>
	<path d="M397.5,132.7L416.1,96l-36.9,18.3C386.7,119,393,125.2,397.5,132.7z"/>
	<path d="M302,191.8l-18.5,36.7l36.7-18.5C312.9,205.3,306.7,199.1,302,191.8z"/>
	<polygon points="293.5,149.9 293.5,174.5 256,162.3 	"/>
	<polygon points="406,174.5 406,149.9 443.5,162.1 	"/>
	<path d="M349.7,124.8c-20.7,0-37.5,16.8-37.5,37.5c0,20.7,16.8,37.5,37.5,37.5c20.7,0,37.5-16.8,37.5-37.5
		C387.1,141.6,370.3,124.8,349.7,124.8z"/>
</g>
</svg>
