<?xml version="1.0" encoding="utf-8"?>
<!-- Generator: Adobe Illustrator 18.0.0, SVG Export Plug-In . SVG Version: 6.00 Build 0)  -->
<!DOCTYPE svg PUBLIC "-//W3C//DTD SVG 1.1//EN" "http://www.w3.org/Graphics/SVG/1.1/DTD/svg11.dtd">
<svg version="1.1" id="Layer_1" xmlns="http://www.w3.org/2000/svg" xmlns:xlink="http://www.w3.org/1999/xlink" x="0px" y="0px"
	 viewBox="0 0 512 512" enable-background="new 0 0 512 512" xml:space="preserve">
<g>
	<path d="M124.8,124.6c10.3,0,18.8-8.2,18.8-18.6c3.4,0,6.7-0.9,9.4-2.6c2.8,1.7,6,2.6,9.4,2.6c10.3,0,18.8-8.4,18.8-18.8
		c0-10.3-8.4-18.8-18.8-18.8c-3.4,0-6.6,0.9-9.4,2.6c-2.6-1.7-6-2.6-9.4-2.6c-10.5,0-18.8,8.4-18.8,18.8c-10.3,0-18.8,8.4-18.8,18.8
		C106,116.3,114.4,124.6,124.8,124.6z"/>
	<path d="M274.8,162.1c6.3,0,11.8-3.1,15.2-7.8c2.1-3,3.6-9.1,3.2-12.5c4.9-1.5,9.4-4.5,12.4-8.4c6.6,6.2,15.6,10.1,25.5,10.1
		c20.6,0,37.5-16.9,37.5-37.5c0-20.8-16.9-37.5-37.5-37.5c-15.2,0-28.3,9-34.1,21.9c-3.8-2.1-8.3-3.2-12.7-3.2
		c-15.6,0-28.1,12.6-28.1,28.1c0,5.8,1.7,11.3,4.9,15.6c-3,3.4-4.9,7.7-4.9,12.6C256,153.8,264.2,162.1,274.8,162.1z"/>
	<polygon points="349.8,199.8 237.3,199.8 171.4,371.2 143.5,162.3 106,162.3 68.5,443.5 443.5,443.5 	"/>
</g>
</svg>
