<?xml version="1.0" encoding="utf-8"?>
<!-- Generator: Adobe Illustrator 18.0.0, SVG Export Plug-In . SVG Version: 6.00 Build 0)  -->
<!DOCTYPE svg PUBLIC "-//W3C//DTD SVG 1.1//EN" "http://www.w3.org/Graphics/SVG/1.1/DTD/svg11.dtd">
<svg version="1.1" id="Layer_1" xmlns="http://www.w3.org/2000/svg" xmlns:xlink="http://www.w3.org/1999/xlink" x="0px" y="0px"
	 viewBox="0 0 512 512" enable-background="new 0 0 512 512" xml:space="preserve">
<g>
	<path d="M331,218.5c-15.2-22.9-25.9-48.4-31.9-75h-86.2c-6,26.6-16.7,52.1-31.9,75c-10.3,0-18.8,8.4-18.8,18.7v187.5
		c0,10.3,8.4,18.8,18.8,18.8h150c10.3,0,18.8-8.4,18.8-18.8V237.2C349.7,226.9,341.3,218.5,331,218.5z"/>
	<path d="M312.3,87.3c0-10.4-8.4-18.7-18.7-18.7h-75c-10.4,0-18.8,8.4-18.8,18.7V106h112.5V87.3z"/>
</g>
</svg>
