<?xml version="1.0" encoding="utf-8"?>
<!-- Generator: Adobe Illustrator 18.0.0, SVG Export Plug-In . SVG Version: 6.00 Build 0)  -->
<!DOCTYPE svg PUBLIC "-//W3C//DTD SVG 1.1//EN" "http://www.w3.org/Graphics/SVG/1.1/DTD/svg11.dtd">
<svg version="1.1" id="Layer_1" xmlns="http://www.w3.org/2000/svg" xmlns:xlink="http://www.w3.org/1999/xlink" x="0px" y="0px"
	 viewBox="0 0 512 512" enable-background="new 0 0 512 512" xml:space="preserve">
<path d="M424.7,387.3V331c0-41.2-33.6-75-75-75h-37.5v-18.7h-18.7v-18.7h-18.8v-75H331c10.3,0,18.8-8.2,18.8-18.7
	c0-10.3-8.4-18.7-18.8-18.7H181c-10.3,0-18.8,8.4-18.8,18.7c0,10.5,8.4,18.7,18.8,18.7h56.2v75h-18.7v18.7h-18.8V256h-37.5
	c-41.4,0-75,33.7-75,75v56.3H68.5V406H181v-18.7h-18.8V331h187.5v56.3H331V406h112.5v-18.7H424.7z"/>
</svg>
