<?xml version="1.0" encoding="utf-8"?>
<!-- Generator: Adobe Illustrator 20.1.0, SVG Export Plug-In . SVG Version: 6.00 Build 0)  -->
<svg version="1.1" id="Layer_1" xmlns="http://www.w3.org/2000/svg" xmlns:xlink="http://www.w3.org/1999/xlink" x="0px" y="0px"
	 width="120px" height="120px" viewBox="0 0 120 120" style="enable-background:new 0 0 120 120;" xml:space="preserve">
<style type="text/css">
	.st0{fill:#FFFFFF;}
	.st1{fill:#F37321;}
	.st2{fill:#F37321;stroke:#FFFFFF;stroke-width:1.8043;stroke-miterlimit:10;}
</style>
<g>
	<path class="st0" d="M60.1,119c-32.5,0-59-26.5-59-59c0-32.5,26.5-59,59-59c32.5,0,59,26.5,59,59C119.1,92.6,92.6,119,60.1,119z"/>
	<path class="st1" d="M60.1,1.5c32.3,0,58.5,26.2,58.5,58.5s-26.2,58.5-58.5,58.5S1.6,92.3,1.6,60S27.9,1.5,60.1,1.5 M60.1,0.5
		C27.2,0.5,0.6,27.2,0.6,60s26.6,59.5,59.5,59.5s59.5-26.6,59.5-59.5S93,0.5,60.1,0.5L60.1,0.5z"/>
</g>
<g>
	<path class="st1" d="M87.2,43.1c-0.7,0-1.3,0.6-1.3,1.3v27.1c0,2.7-2.2,4.9-4.9,4.9H66.9H43.5c-2.7,0-4.9-2.2-4.9-4.9V41.6
		l-9.3-6.7c-0.6-0.4-1.4-0.3-1.8,0.3c-0.4,0.6-0.3,1.4,0.3,1.8l8.2,5.9v28.5c0,4.1,3.4,7.5,7.5,7.5h1v4.8c0,0.7,0.6,1.3,1.3,1.3
		s1.3-0.6,1.3-1.3V79h19.7h14.1h0.3c0,0,0.1,0,0.1,0c4-0.2,7.2-3.5,7.2-7.5V44.4C88.5,43.6,87.9,43.1,87.2,43.1z"/>
	<path class="st1" d="M80.6,44.7v-0.6c0-2.5-2-4.5-4.5-4.5H47.9c-2.5,0-4.5,2-4.5,4.5v0.6h-2.2v27h42.4v-27H80.6z M46,44.1
		c0-1.1,0.9-1.9,1.9-1.9h28.1c1.1,0,1.9,0.9,1.9,1.9v0.6H46V44.1z M75.7,50.7c0,1.2-0.9,2.1-2.1,2.1c-1.2,0-2.1-0.9-2.1-2.1
		c0-1.2,0.9-2.1,2.1-2.1C74.7,48.6,75.7,49.5,75.7,50.7z M69.1,50.7c0,1.2-0.9,2.1-2.1,2.1s-2.1-0.9-2.1-2.1c0-1.2,0.9-2.1,2.1-2.1
		S69.1,49.5,69.1,50.7z M58.7,48.8v3.7c0,0,0,0.1-0.1,0.1h-8.5c0,0-0.1,0-0.1-0.1v-3.7c0,0,0-0.1,0.1-0.1L58.7,48.8
		C58.7,48.7,58.7,48.8,58.7,48.8z M79.3,65.6h-34V55.2h34V65.6z"/>
	<g>
		<circle class="st2" cx="82.8" cy="77.5" r="8"/>
		<circle class="st0" cx="82.8" cy="77.5" r="2.7"/>
	</g>
</g>
</svg>
