<?xml version="1.0" encoding="utf-8"?>
<!-- Generator: Adobe Illustrator 18.0.0, SVG Export Plug-In . SVG Version: 6.00 Build 0)  -->
<!DOCTYPE svg PUBLIC "-//W3C//DTD SVG 1.1//EN" "http://www.w3.org/Graphics/SVG/1.1/DTD/svg11.dtd">
<svg version="1.1" id="Layer_1" xmlns="http://www.w3.org/2000/svg" xmlns:xlink="http://www.w3.org/1999/xlink" x="0px" y="0px"
	 viewBox="0 0 512 512" enable-background="new 0 0 512 512" xml:space="preserve">
<g>
	<g>
		<path fill="#F1786B" d="M191.7,280.7V381c26.8-1,48.3-23,48.3-50.1C239.9,303.8,218.5,281.8,191.7,280.7z"/>
	</g>
	<g>
		<path fill="#41B3E2" d="M118.6,31.8C54.2,31.8,2,84,2,148.4l0,0c0,64.4,52.2,116.6,116.6,116.6H271V31.8H118.6z"/>
	</g>
	<g>
		<path fill="#445C6C" d="M271,31.8v233.3c24,0,43.4-19.4,43.4-43.4V75.2C314.4,51.2,294.9,31.8,271,31.8z"/>
	</g>
	<g>
		<path fill="#41B3E2" d="M118.6,31.8C54.2,31.8,2,84,2,148.4l0,0c0,64.4,52.2,116.6,116.6,116.6H271V31.8H118.6z"/>
	</g>
	<g>
		<path fill="#445C6C" d="M271,31.8v233.3c24,0,43.4-19.4,43.4-43.4V75.2C314.4,51.2,294.9,31.8,271,31.8z"/>
	</g>
	<g>
		<path fill="#56CBEF" d="M118.6,31.8C54.2,31.8,2,84,2,148.4c0,2.4,0.2,4.7,0.4,7C6,94.3,56.6,45.8,118.6,45.8H271v-14H118.6z"/>
	</g>
	<g>
		<path fill="#59727F" d="M271,31.8v14c24,0,43.4,19.4,43.4,43.4v-14C314.4,51.2,294.9,31.8,271,31.8z"/>
	</g>
	<g>
		<path fill="#379FC8" d="M225.6,265.1H118.6c0,0-36.8,90.1-34.2,157.8h127.7C195.2,382.7,180.4,325.6,225.6,265.1z"/>
	</g>
	<g>
		<path fill="#445C6C" d="M212.2,422.8H84.5c0.7,17.8,4,34,11.5,46.7c3.9,6.6,11.1,10.7,18.8,10.7h88.1c16.9,0,27.8-17.6,20.6-32.8
			C220,440.2,216.1,432,212.2,422.8z"/>
	</g>
	<g>
		<path fill="#C4C6C6" d="M345.6,103.4h-31.2v90h31.2c8.3,0,15-6.7,15-15v-60C360.6,110.1,353.9,103.4,345.6,103.4z"/>
	</g>
	<g>
		<polygon fill="#DBDFE0" points="496.7,133.6 360.6,133.6 360.6,163.2 496.7,163.2 510,148.4 		"/>
	</g>
	<g>
		<polygon fill="#C4C6C6" points="454.1,163.2 478.5,163.2 494.8,133.6 470.4,133.6 		"/>
	</g>
	<g>
		<polygon fill="#C4C6C6" points="413.3,163.2 437.7,163.2 454,133.6 429.6,133.6 		"/>
	</g>
	<g>
		<polygon fill="#C4C6C6" points="372.5,163.2 396.9,163.2 413.2,133.6 388.8,133.6 		"/>
	</g>
	<g>
		<path fill="#2E89AC" d="M87,90.6c-8.9,0-16.1,7.2-16.1,16.1v83.4c0,8.9,7.2,16.1,16.1,16.1s16.1-7.2,16.1-16.1v-83.4
			C103.1,97.8,95.9,90.6,87,90.6z"/>
	</g>
	<g>
		<path fill="#2E89AC" d="M142.8,90.6c-8.9,0-16.1,7.2-16.1,16.1v83.4c0,8.9,7.2,16.1,16.1,16.1s16.1-7.2,16.1-16.1v-83.4
			C158.9,97.8,151.7,90.6,142.8,90.6z"/>
	</g>
	<g>
		<path fill="#2E89AC" d="M198.5,90.6c-8.9,0-16.1,7.2-16.1,16.1v83.4c0,8.9,7.2,16.1,16.1,16.1s16.1-7.2,16.1-16.1v-83.4
			C214.6,97.8,207.4,90.6,198.5,90.6z"/>
	</g>
	<g>
		<path fill="#2894B5" d="M225.6,265.1H118.6l85.6,38.7C209,291.1,215.8,278.2,225.6,265.1z"/>
	</g>
</g>
</svg>
