<?xml version="1.0" encoding="utf-8"?>
<!-- Generator: Adobe Illustrator 18.0.0, SVG Export Plug-In . SVG Version: 6.00 Build 0)  -->
<!DOCTYPE svg PUBLIC "-//W3C//DTD SVG 1.1//EN" "http://www.w3.org/Graphics/SVG/1.1/DTD/svg11.dtd">
<svg version="1.1" id="Layer_1" xmlns="http://www.w3.org/2000/svg" xmlns:xlink="http://www.w3.org/1999/xlink" x="0px" y="0px"
	 viewBox="0 0 512 512" enable-background="new 0 0 512 512" xml:space="preserve">
<g>
	<g>
		<rect x="2" y="107.2" fill="#DBDFE0" width="508" height="297.7"/>
	</g>
	<g>
		<rect x="2" y="107.2" fill="#EFF3F5" width="508" height="11.2"/>
	</g>
	<g>
		<g>
			<circle fill="#788D9A" cx="164.3" cy="256" r="103.9"/>
		</g>
		<g>
			<path fill="#EFF3F5" d="M164.3,142.8c-62.4,0-113.2,50.8-113.2,113.2c0,62.4,50.8,113.2,113.2,113.2S277.5,318.4,277.5,256
				C277.5,193.6,226.8,142.8,164.3,142.8z M258.4,247.4h-19.2c-4-34.8-31.6-62.4-66.3-66.3v-19.2C218.2,166,254.3,202.1,258.4,247.4
				z M155.8,215.6c-15.9,3.4-28.5,15.9-31.9,31.9h-15.6c3.7-24.4,23-43.7,47.4-47.4V215.6z M123.9,264.6
				c3.4,15.9,15.9,28.5,31.9,31.9V312c-24.4-3.7-43.7-23-47.4-47.4H123.9z M172.9,296.4c15.9-3.4,28.5-15.9,31.9-31.9h15.6
				c-3.7,24.4-23,43.7-47.4,47.4V296.4z M204.8,247.4c-3.4-15.9-15.9-28.5-31.9-31.9V200c24.4,3.7,43.7,23,47.4,47.4H204.8z
				 M155.8,161.9v19.2c-34.8,4-62.4,31.6-66.3,66.3H70.2C74.3,202.1,110.5,166,155.8,161.9z M70.2,264.6h19.2
				c4,34.8,31.6,62.4,66.3,66.3v19.2C110.5,346,74.3,309.9,70.2,264.6z M172.9,350.1v-19.2c34.8-4,62.4-31.6,66.3-66.3h19.2
				C254.3,309.9,218.2,346,172.9,350.1z"/>
		</g>
		<g>
			<g>
				<path fill="#445C6C" d="M352.8,154.1v51c0,15.4,12.5,27.9,27.9,27.9h52.2c15.4,0,27.9-12.5,27.9-27.9v-51H352.8z"/>
			</g>
			<g>
				<g>
					<g>
						<rect x="374.8" y="168.6" fill="#304551" width="13.4" height="20.6"/>
					</g>
					<g>
						<rect x="425.5" y="168.6" fill="#304551" width="13.4" height="20.6"/>
					</g>
				</g>
				<g>
					<rect x="393.7" y="206.5" fill="#304551" width="26.3" height="11.9"/>
				</g>
			</g>
			<g>
				<path fill="#445C6C" d="M352.8,279v51c0,15.4,12.5,27.9,27.9,27.9h52.2c15.4,0,27.9-12.5,27.9-27.9v-51H352.8z"/>
			</g>
			<g>
				<g>
					<g>
						<rect x="374.8" y="293.5" fill="#304551" width="13.4" height="20.6"/>
					</g>
					<g>
						<rect x="425.5" y="293.5" fill="#304551" width="13.4" height="20.6"/>
					</g>
				</g>
				<g>
					<rect x="393.7" y="331.5" fill="#304551" width="26.3" height="11.9"/>
				</g>
			</g>
		</g>
	</g>
</g>
</svg>
