<?xml version="1.0" encoding="utf-8"?>
<!-- Generator: Adobe Illustrator 18.0.0, SVG Export Plug-In . SVG Version: 6.00 Build 0)  -->
<!DOCTYPE svg PUBLIC "-//W3C//DTD SVG 1.1//EN" "http://www.w3.org/Graphics/SVG/1.1/DTD/svg11.dtd">
<svg version="1.1" id="Layer_1" xmlns="http://www.w3.org/2000/svg" xmlns:xlink="http://www.w3.org/1999/xlink" x="0px" y="0px"
	 viewBox="0 0 512 512" enable-background="new 0 0 512 512" xml:space="preserve">
<g>
	<g>
		<g>
			<circle fill="#FBD984" cx="320.4" cy="191.6" r="88.2"/>
		</g>
		<g>
			<polygon fill="#41B3E2" points="331.2,87.3 320.4,2 309.7,87.3 			"/>
		</g>
		<g>
			<polygon fill="#41B3E2" points="277.6,95.9 225.7,27.4 259,106.6 			"/>
		</g>
		<g>
			<polygon fill="#41B3E2" points="235.5,130.1 156.3,96.8 224.7,148.8 			"/>
		</g>
		<g>
			<polygon fill="#41B3E2" points="216.2,180.8 130.9,191.6 216.2,202.3 			"/>
		</g>
		<g>
			<polygon fill="#41B3E2" points="224.7,234.4 156.3,286.3 235.5,253 			"/>
		</g>
		<g>
			<polygon fill="#41B3E2" points="259,276.5 225.7,355.7 277.6,287.3 			"/>
		</g>
		<g>
			<polygon fill="#41B3E2" points="309.7,295.8 320.4,381.1 331.2,295.8 			"/>
		</g>
		<g>
			<polygon fill="#41B3E2" points="363.2,287.3 415.2,355.7 381.9,276.5 			"/>
		</g>
		<g>
			<polygon fill="#41B3E2" points="405.4,253 484.6,286.3 416.1,234.4 			"/>
		</g>
		<g>
			<polygon fill="#41B3E2" points="424.7,202.3 510,191.6 424.7,180.8 			"/>
		</g>
		<g>
			<polygon fill="#41B3E2" points="416.1,148.8 484.6,96.8 405.4,130.1 			"/>
		</g>
		<g>
			<polygon fill="#41B3E2" points="381.9,106.6 415.2,27.4 363.2,95.9 			"/>
		</g>
		<g>
			
				<ellipse transform="matrix(0.7071 -0.7071 0.7071 0.7071 -32.3147 259.3824)" fill="#FFE3A4" cx="296.9" cy="168.7" rx="51.8" ry="37.7"/>
		</g>
	</g>
	<g>
		<rect x="2" y="247" fill="#EFF3F5" width="430.3" height="263"/>
	</g>
	<g>
		<g>
			<path fill="#379FC8" d="M87.3,262.2H27.9c0,3.8-3.1,6.8-6.8,6.8v59.4c3.8,0,6.8,3.1,6.8,6.8h59.4c0-3.8,3.1-6.8,6.8-6.8V269
				C90.4,269,87.3,266,87.3,262.2z"/>
		</g>
		<g>
			<path fill="#379FC8" d="M167.1,262.2h-59.4c0,3.8-3.1,6.8-6.8,6.8v59.4c3.8,0,6.8,3.1,6.8,6.8h59.4c0-3.8,3.1-6.8,6.8-6.8V269
				C170.2,269,167.1,266,167.1,262.2z"/>
		</g>
		<g>
			<path fill="#379FC8" d="M246.9,262.2h-59.4c0,3.8-3.1,6.8-6.8,6.8v59.4c3.8,0,6.8,3.1,6.8,6.8h59.4c0-3.8,3.1-6.8,6.8-6.8V269
				C249.9,269,246.9,266,246.9,262.2z"/>
		</g>
		<g>
			<path fill="#379FC8" d="M326.6,262.2h-59.4c0,3.8-3.1,6.8-6.8,6.8v59.4c3.8,0,6.8,3.1,6.8,6.8h59.4c0-3.8,3.1-6.8,6.8-6.8V269
				C329.7,269,326.6,266,326.6,262.2z"/>
		</g>
		<g>
			<path fill="#379FC8" d="M406.4,262.2H347c0,3.8-3.1,6.8-6.8,6.8v59.4c3.8,0,6.8,3.1,6.8,6.8h59.4c0-3.8,3.1-6.8,6.8-6.8V269
				C409.5,269,406.4,266,406.4,262.2z"/>
		</g>
		<g>
			<path fill="#379FC8" d="M87.3,342H27.9c0,3.8-3.1,6.8-6.8,6.8v59.4c3.8,0,6.8,3.1,6.8,6.8h59.4c0-3.8,3.1-6.8,6.8-6.8v-59.4
				C90.4,348.8,87.3,345.7,87.3,342z"/>
		</g>
		<g>
			<path fill="#379FC8" d="M167.1,342h-59.4c0,3.8-3.1,6.8-6.8,6.8v59.4c3.8,0,6.8,3.1,6.8,6.8h59.4c0-3.8,3.1-6.8,6.8-6.8v-59.4
				C170.2,348.8,167.1,345.7,167.1,342z"/>
		</g>
		<g>
			<path fill="#379FC8" d="M246.9,342h-59.4c0,3.8-3.1,6.8-6.8,6.8v59.4c3.8,0,6.8,3.1,6.8,6.8h59.4c0-3.8,3.1-6.8,6.8-6.8v-59.4
				C249.9,348.8,246.9,345.7,246.9,342z"/>
		</g>
		<g>
			<path fill="#379FC8" d="M326.6,342h-59.4c0,3.8-3.1,6.8-6.8,6.8v59.4c3.8,0,6.8,3.1,6.8,6.8h59.4c0-3.8,3.1-6.8,6.8-6.8v-59.4
				C329.7,348.8,326.6,345.7,326.6,342z"/>
		</g>
		<g>
			<path fill="#379FC8" d="M406.4,342H347c0,3.8-3.1,6.8-6.8,6.8v59.4c3.8,0,6.8,3.1,6.8,6.8h59.4c0-3.8,3.1-6.8,6.8-6.8v-59.4
				C409.5,348.8,406.4,345.7,406.4,342z"/>
		</g>
		<g>
			<path fill="#379FC8" d="M87.3,421.7H27.9c0,3.8-3.1,6.8-6.8,6.8V488c3.8,0,6.8,3.1,6.8,6.8h59.4c0-3.8,3.1-6.8,6.8-6.8v-59.4
				C90.4,428.6,87.3,425.5,87.3,421.7z"/>
		</g>
		<g>
			<path fill="#379FC8" d="M167.1,421.7h-59.4c0,3.8-3.1,6.8-6.8,6.8V488c3.8,0,6.8,3.1,6.8,6.8h59.4c0-3.8,3.1-6.8,6.8-6.8v-59.4
				C170.2,428.6,167.1,425.5,167.1,421.7z"/>
		</g>
		<g>
			<path fill="#379FC8" d="M246.9,421.7h-59.4c0,3.8-3.1,6.8-6.8,6.8V488c3.8,0,6.8,3.1,6.8,6.8h59.4c0-3.8,3.1-6.8,6.8-6.8v-59.4
				C249.9,428.6,246.9,425.5,246.9,421.7z"/>
		</g>
		<g>
			<path fill="#379FC8" d="M326.6,421.7h-59.4c0,3.8-3.1,6.8-6.8,6.8V488c3.8,0,6.8,3.1,6.8,6.8h59.4c0-3.8,3.1-6.8,6.8-6.8v-59.4
				C329.7,428.6,326.6,425.5,326.6,421.7z"/>
		</g>
		<g>
			<path fill="#379FC8" d="M406.4,421.7H347c0,3.8-3.1,6.8-6.8,6.8V488c3.8,0,6.8,3.1,6.8,6.8h59.4c0-3.8,3.1-6.8,6.8-6.8v-59.4
				C409.5,428.6,406.4,425.5,406.4,421.7z"/>
		</g>
	</g>
</g>
</svg>
