<?xml version="1.0" encoding="utf-8"?>
<!-- Generator: Adobe Illustrator 18.0.0, SVG Export Plug-In . SVG Version: 6.00 Build 0)  -->
<!DOCTYPE svg PUBLIC "-//W3C//DTD SVG 1.1//EN" "http://www.w3.org/Graphics/SVG/1.1/DTD/svg11.dtd">
<svg version="1.1" id="Layer_1" xmlns="http://www.w3.org/2000/svg" xmlns:xlink="http://www.w3.org/1999/xlink" x="0px" y="0px"
	 viewBox="0 0 512 512" enable-background="new 0 0 512 512" xml:space="preserve">
<g>
	<g>
		
			<rect x="285" y="53.9" transform="matrix(0.7071 0.7071 -0.7071 0.7071 201.4715 -237.6849)" fill="#92A4AD" width="205.2" height="140.8"/>
	</g>
	<g>
		
			<rect x="330" y="72.6" transform="matrix(0.7071 0.7071 -0.7071 0.7071 182.8541 -282.6324)" fill="#788D9A" width="205.2" height="13.7"/>
	</g>
	<g>
		<path fill="#EFF3F5" d="M239.7,76L52.2,263.5c-19.8,19.8-19.8,51.9,0,71.7l124.6,124.6c19.8,19.8,51.9,19.8,71.7,0L436,272.3
			L239.7,76z"/>
	</g>
	<g>
		
			<rect x="309.4" y="99" transform="matrix(0.7071 0.7071 -0.7071 0.7071 202.2519 -235.8008)" fill="#EFF3F5" width="152.7" height="54.5"/>
	</g>
	<g>
		<g>
			
				<rect x="337.3" y="70.3" transform="matrix(0.7071 0.7071 -0.7071 0.7071 162.7467 -219.4373)" fill="#FBD984" width="18" height="33"/>
		</g>
		<g>
			
				<rect x="357" y="90" transform="matrix(0.7071 0.7071 -0.7071 0.7071 182.4993 -227.619)" fill="#FBD984" width="18" height="33"/>
		</g>
		<g>
			
				<rect x="376.8" y="109.8" transform="matrix(0.7071 0.7071 -0.7071 0.7071 202.2519 -235.8008)" fill="#FBD984" width="18" height="33"/>
		</g>
		<g>
			
				<rect x="396.5" y="129.5" transform="matrix(0.7071 0.7071 -0.7071 0.7071 222.0045 -243.9827)" fill="#FBD984" width="18" height="33"/>
		</g>
		<g>
			
				<rect x="416.3" y="149.3" transform="matrix(0.7071 0.7071 -0.7071 0.7071 241.7571 -252.1646)" fill="#FBD984" width="18" height="33"/>
		</g>
	</g>
	<g>
		
			<rect x="30.1" y="389.9" transform="matrix(0.7071 0.7071 -0.7071 0.7071 322.1884 53.7573)" fill="#788D9A" width="132.2" height="51.7"/>
	</g>
	<g>
		
			<rect x="41.6" y="394.7" transform="matrix(0.7071 0.7071 -0.7071 0.7071 317.4279 42.2644)" fill="#445C6C" width="132.2" height="19.2"/>
	</g>
	<g>
		
			<rect x="21.9" y="422.4" transform="matrix(0.7071 0.7071 -0.7071 0.7071 341.3933 100.1232)" fill="#DBDFE0" width="55.9" height="79.4"/>
	</g>
	<g>
		
			<rect x="42.9" y="431.1" transform="matrix(0.7071 0.7071 -0.7071 0.7071 332.6992 79.1336)" fill="#C7C9C9" width="55.9" height="20.1"/>
	</g>
</g>
</svg>
