<?xml version="1.0" encoding="utf-8"?>
<!-- Generator: Adobe Illustrator 18.0.0, SVG Export Plug-In . SVG Version: 6.00 Build 0)  -->
<!DOCTYPE svg PUBLIC "-//W3C//DTD SVG 1.1//EN" "http://www.w3.org/Graphics/SVG/1.1/DTD/svg11.dtd">
<svg version="1.1" id="Layer_1" xmlns="http://www.w3.org/2000/svg" xmlns:xlink="http://www.w3.org/1999/xlink" x="0px" y="0px"
	 viewBox="0 0 512 512" enable-background="new 0 0 512 512" xml:space="preserve">
<g>
	<g>
		<g>
			<g>
				<path fill="#DBDFE0" d="M414.8,104.4l-27.2-27.2l8-8c26.1-26.1,60.7-40.4,97.6-40.4v38.4c-26.6,0-51.7,10.4-70.5,29.2
					L414.8,104.4z"/>
			</g>
		</g>
	</g>
	<g>
		<g>
			
				<rect x="366" y="66.2" transform="matrix(0.7071 -0.7071 0.7071 0.7071 38.6827 304.2647)" fill="#445C6C" width="41.3" height="78.5"/>
		</g>
	</g>
	<g>
		<g>
			<path fill="#F1786B" d="M332,79.4H216.4V28.1c0-14.4-11.7-26.1-26.1-26.1H131C69,2,18.8,52.2,18.8,114.2v369.7
				c0,14.4,11.7,26.1,26.1,26.1h341.7c14.4,0,26.1-11.7,26.1-26.1V160L332,79.4z M178,102.2l-120.8,53v-41.1
				c0-40.7,33.1-73.8,73.8-73.8h47V102.2z"/>
		</g>
	</g>
	<g>
		<g>
			<g>
				<g>
					<g>
						<g>
							<polygon fill="#D45947" points="324.8,411.3 356.3,442.8 349.5,449.6 315.3,415.4 116.1,415.4 81.9,449.6 75.1,442.8 
								106.6,411.3 106.6,267 75.1,235.4 81.9,228.7 116.1,262.9 315.3,262.9 349.5,228.7 356.3,235.4 324.8,267 							"/>
						</g>
					</g>
				</g>
			</g>
		</g>
	</g>
</g>
</svg>
