<?xml version="1.0" encoding="utf-8"?>
<!-- Generator: Adobe Illustrator 18.0.0, SVG Export Plug-In . SVG Version: 6.00 Build 0)  -->
<!DOCTYPE svg PUBLIC "-//W3C//DTD SVG 1.1//EN" "http://www.w3.org/Graphics/SVG/1.1/DTD/svg11.dtd">
<svg version="1.1" id="Layer_1" xmlns="http://www.w3.org/2000/svg" xmlns:xlink="http://www.w3.org/1999/xlink" x="0px" y="0px"
	 viewBox="0 0 512 512" enable-background="new 0 0 512 512" xml:space="preserve">
<g>
	<g>
		<path fill="#F1786B" d="M494,383.6L356.9,246.4l-77,77L417,460.6c21.3,21.3,55.8,21.3,77,0C515.3,439.3,515.3,404.8,494,383.6z"/>
	</g>
	<g>
		<path fill="#FC9088" d="M488.7,465.2c1.8-1.4,3.6-2.9,5.3-4.6c21.3-21.3,21.3-55.8,0-77L356.9,246.4l-9.9,9.9l137.2,137.2
			C503.7,413.1,505.2,443.9,488.7,465.2z"/>
	</g>
	<g>
		<circle fill="#788D9A" cx="175" cy="224.6" r="173"/>
	</g>
	<g>
		<circle fill="#DBDFE0" cx="175" cy="224.6" r="51.7"/>
	</g>
	<g>
		<path fill="#445C6C" d="M57.7,97.5c-1.7,1.6-3.4,3.1-5,4.8c-4.1,4.1-8,8.4-11.6,12.8l243.4,243.4c4.4-3.6,8.7-7.5,12.8-11.6
			c1.6-1.6,3.2-3.3,4.8-5L57.7,97.5z"/>
	</g>
	<g>
		<path fill="#BBBCBC" d="M143.7,183.5c-1.8,1.4-3.6,2.9-5.3,4.5c-4.3,4.3-7.6,9.1-10.1,14.3l68.9,68.9c5.2-2.5,10-5.8,14.3-10.1
			c1.7-1.7,3.2-3.5,4.5-5.3L143.7,183.5z"/>
	</g>
	<g>
		<path fill="#5AC8AE" d="M311.7,355.3c70.9-74.1,69.9-191.6-3-264.5c-72.9-72.9-190.4-73.8-264.5-3L311.7,355.3z"/>
	</g>
	<g>
		<path fill="#78DDC2" d="M298.8,100.7c69.5,69.5,73.5,179.6,12.2,254l0.6,0.6c70.9-74.1,69.9-191.6-3-264.5
			c-72.9-72.9-190.4-73.8-264.5-3l0.6,0.6C119.2,27.2,229.3,31.2,298.8,100.7z"/>
	</g>
</g>
</svg>
