<?xml version="1.0" encoding="utf-8"?>
<!-- Generator: Adobe Illustrator 18.0.0, SVG Export Plug-In . SVG Version: 6.00 Build 0)  -->
<!DOCTYPE svg PUBLIC "-//W3C//DTD SVG 1.1//EN" "http://www.w3.org/Graphics/SVG/1.1/DTD/svg11.dtd">
<svg version="1.1" id="Layer_1" xmlns="http://www.w3.org/2000/svg" xmlns:xlink="http://www.w3.org/1999/xlink" x="0px" y="0px"
	 viewBox="0 0 512 512" enable-background="new 0 0 512 512" xml:space="preserve">
<g>
	<g>
		<g>
			<g>
				<path fill="#CECECE" d="M245.7,510C363.9,510,460,413.5,460,294.8V182.6h-16.4v112.2c0,109.6-88.7,198.7-197.8,198.7
					S47.9,404.4,47.9,294.8v-33.7H31.5v33.7C31.5,413.5,127.6,510,245.7,510z"/>
			</g>
		</g>
	</g>
	<g>
		<g>
			<path fill="#DBDFE0" d="M85.9,349.4c0-88.5,71.7-160.6,159.9-160.6s159.9,72,159.9,160.6c0,88.5-71.7,160.6-159.9,160.6
				S85.9,438,85.9,349.4z M102.3,349.4c0,79.4,64.3,144.1,143.4,144.1s143.4-64.6,143.4-144.1s-64.3-144.1-143.4-144.1
				S102.3,270,102.3,349.4z"/>
		</g>
	</g>
	<g>
		<rect x="408.4" y="2" fill="#EFF3F5" width="90.4" height="67.5"/>
	</g>
	<g>
		<g>
			<rect x="469.8" y="22.7" fill="#FDC77C" width="15.6" height="26.2"/>
		</g>
		<g>
			<rect x="445.8" y="22.7" fill="#FDC77C" width="15.6" height="26.2"/>
		</g>
		<g>
			<rect x="421.8" y="22.7" fill="#FDC77C" width="15.6" height="26.2"/>
		</g>
	</g>
	<g>
		<path fill="#DBDFE0" d="M510,69.5V143c0,9.1-7.4,16.4-16.4,16.4h-79.9c-9.1,0-16.4-7.4-16.4-16.4V69.5H510z"/>
	</g>
	<g>
		<rect x="421.8" y="159.4" fill="#788D9A" width="60.5" height="24.1"/>
	</g>
	<g>
		<path fill="#DBDFE0" d="M77.5,180.2v50.4c0,11-8.9,19.9-19.9,19.9H21.9c-11,0-19.9-8.9-19.9-19.9v-50.4H77.5z"/>
	</g>
	<g>
		<rect x="17.4" y="140.3" fill="#EFF3F5" width="44.6" height="39.9"/>
	</g>
	<g>
		<g>
			<rect x="45.9" y="154.1" fill="#788D9A" width="7.5" height="12.2"/>
		</g>
		<g>
			<rect x="26.2" y="154.1" fill="#788D9A" width="7.5" height="12.2"/>
		</g>
	</g>
	<g>
		<rect x="25.2" y="250.5" fill="#788D9A" width="29.2" height="10.6"/>
	</g>
	<g>
		<g>
			<path fill="#DBDFE0" d="M114.7,378.3c0-72.6,58.8-131.7,131.1-131.7s131.1,59.1,131.1,131.7S318,510,245.7,510
				S114.7,450.9,114.7,378.3z M131.1,378.3c0,63.5,51.4,115.2,114.7,115.2c63.2,0,114.7-51.7,114.7-115.2
				c0-63.5-51.4-115.2-114.7-115.2C182.5,263.2,131.1,314.8,131.1,378.3z"/>
		</g>
	</g>
</g>
</svg>
