<?xml version="1.0" encoding="utf-8"?>
<!-- Generator: Adobe Illustrator 18.0.0, SVG Export Plug-In . SVG Version: 6.00 Build 0)  -->
<!DOCTYPE svg PUBLIC "-//W3C//DTD SVG 1.1//EN" "http://www.w3.org/Graphics/SVG/1.1/DTD/svg11.dtd">
<svg version="1.1" id="Layer_1" xmlns="http://www.w3.org/2000/svg" xmlns:xlink="http://www.w3.org/1999/xlink" x="0px" y="0px"
	 viewBox="0 0 512 512" enable-background="new 0 0 512 512" xml:space="preserve">
<g>
	<g>
		<path fill="#DBDFE0" d="M482,2H30C14.5,2,2,14.5,2,30v452c0,15.5,12.5,28,28,28h452c15.5,0,28-12.5,28-28V30
			C510,14.5,497.5,2,482,2z"/>
	</g>
	<g>
		<path fill="#EFF3F5" d="M482,2H30C14.5,2,2,14.5,2,30v9.9c0-15.5,12.5-28,28-28h452c15.5,0,28,12.5,28,28V30
			C510,14.5,497.5,2,482,2z"/>
	</g>
	<g>
		<rect x="58" y="62.3" fill="#EFF3F5" width="398.2" height="398.2"/>
	</g>
	<g>
		<circle fill="#DBDFE0" cx="257.1" cy="261.4" r="130.5"/>
	</g>
	<g>
		<g>
			<circle fill="#445C6C" cx="196.8" cy="261.4" r="16.3"/>
		</g>
		<g>
			<circle fill="#445C6C" cx="317.4" cy="261.4" r="16.3"/>
		</g>
	</g>
</g>
</svg>
