<?xml version="1.0" encoding="utf-8"?>
<!-- Generator: Adobe Illustrator 18.0.0, SVG Export Plug-In . SVG Version: 6.00 Build 0)  -->
<!DOCTYPE svg PUBLIC "-//W3C//DTD SVG 1.1//EN" "http://www.w3.org/Graphics/SVG/1.1/DTD/svg11.dtd">
<svg version="1.1" id="Layer_1" xmlns="http://www.w3.org/2000/svg" xmlns:xlink="http://www.w3.org/1999/xlink" x="0px" y="0px"
	 viewBox="0 0 512 512" enable-background="new 0 0 512 512" xml:space="preserve">
<g>
	<g>
		<path fill="#DBDFE0" d="M123.6,302.9c-4.9,4.9-4.9,12.8,0,17.6l67.8,67.8c4.9,4.9,12.8,4.9,17.6,0l75.3-75.3L199,227.6
			L123.6,302.9z"/>
	</g>
	<g>
		
			<rect x="167.7" y="277.8" transform="matrix(0.7071 -0.7071 0.7071 0.7071 -188.2777 221.9347)" fill="#788D9A" width="12.1" height="120.9"/>
	</g>
	<g>
		
			<rect x="185.9" y="260.7" transform="matrix(0.7071 -0.7071 0.7071 0.7071 -171.1191 229.0421)" fill="#788D9A" width="10" height="120.9"/>
	</g>
	<g>
		
			<rect x="203" y="245" transform="matrix(0.7071 -0.7071 0.7071 0.7071 -155.4597 235.5285)" fill="#788D9A" width="7.2" height="120.9"/>
	</g>
	<g>
		<path fill="#EFF3F5" d="M471.9,40.1c-12.4-12.4-32.4-12.7-45.2-0.9L392.7,5.3c-4.4-4.4-11.5-4.4-16,0L184.7,197.4
			c-4.4,4.4-4.4,11.5,0,16l33.9,33.9c-11.8,12.8-11.5,32.8,0.9,45.2c12.4,12.4,32.4,12.7,45.2,0.9l33.9,33.9c4.4,4.4,11.5,4.4,16,0
			l192.1-192.1c4.4-4.4,4.4-11.5,0-16l-33.9-33.9C484.6,72.5,484.3,52.6,471.9,40.1z"/>
	</g>
	<g>
		<g>
			<path fill="#445C6C" d="M273.4,163.8l-26.9,26.9c-3.3,3.3-3.3,8.7,0,12.1l0,0c3.3,3.3,8.7,3.3,12.1,0l26.9-26.9
				c3.3-3.3,3.3-8.7,0-12.1l0,0C282.1,160.5,276.7,160.5,273.4,163.8z"/>
		</g>
		<g>
			<path fill="#445C6C" d="M336.1,226.5l-26.9,26.9c-3.3,3.3-3.3,8.7,0,12.1s8.7,3.3,12.1,0l26.9-26.9c3.3-3.3,3.3-8.7,0-12.1
				C344.8,223.2,339.4,223.2,336.1,226.5z"/>
		</g>
		<g>
			<path fill="#445C6C" d="M370.2,67L343.2,94c-3.3,3.3-3.3,8.7,0,12.1l0,0c3.3,3.3,8.7,3.3,12.1,0l26.9-26.9
				c3.3-3.3,3.3-8.7,0-12.1l0,0C378.9,63.7,373.5,63.7,370.2,67z"/>
		</g>
		<g>
			<path fill="#445C6C" d="M432.9,129.7l-26.9,26.9c-3.3,3.3-3.3,8.7,0,12.1c3.3,3.3,8.7,3.3,12.1,0l26.9-26.9
				c3.3-3.3,3.3-8.7,0-12.1C441.6,126.4,436.2,126.4,432.9,129.7z"/>
		</g>
	</g>
	<g>
		<polygon fill="#EFF3F5" points="143.5,417.3 187.6,384.5 127.5,324.4 94.7,368.5 		"/>
	</g>
	<g>
		
			<rect x="-2.7" y="420.5" transform="matrix(0.7071 -0.7071 0.7071 0.7071 -293.4035 178.3899)" fill="#DBDFE0" width="142.7" height="45.7"/>
	</g>
	<g>
		
			<rect x="-17.6" y="426.7" transform="matrix(0.7071 -0.7071 0.7071 0.7071 -287.235 163.4978)" fill="#EFF3F5" width="142.7" height="3.6"/>
	</g>
	<g>
		
			<rect x="-1.5" y="442.8" transform="matrix(0.7071 -0.7071 0.7071 0.7071 -293.933 179.6682)" fill="#EFF3F5" width="142.7" height="3.6"/>
	</g>
	<g>
		
			<rect x="-4" y="440.3" transform="matrix(0.7071 -0.7071 0.7071 0.7071 -292.8741 177.1117)" fill="#CCCCCC" width="142.7" height="3.6"/>
	</g>
	<g>
		
			<rect x="12.2" y="456.4" transform="matrix(0.7071 -0.7071 0.7071 0.7071 -299.5721 193.282)" fill="#CCCCCC" width="142.7" height="3.6"/>
	</g>
</g>
</svg>
