<?xml version="1.0" encoding="utf-8"?>
<!-- Generator: Adobe Illustrator 18.0.0, SVG Export Plug-In . SVG Version: 6.00 Build 0)  -->
<!DOCTYPE svg PUBLIC "-//W3C//DTD SVG 1.1//EN" "http://www.w3.org/Graphics/SVG/1.1/DTD/svg11.dtd">
<svg version="1.1" id="Layer_1" xmlns="http://www.w3.org/2000/svg" xmlns:xlink="http://www.w3.org/1999/xlink" x="0px" y="0px"
	 viewBox="0 0 512 512" enable-background="new 0 0 512 512" xml:space="preserve">
<g>
	<g>
		<g>
			<rect x="20.8" y="182.1" fill="#788D9A" width="237.7" height="188.1"/>
		</g>
		<g>
			<rect x="159.3" y="286" fill="#445C6C" width="62.1" height="44.6"/>
		</g>
		<g>
			<rect x="295.9" y="187.6" fill="#DBDFE0" width="109.5" height="204.1"/>
		</g>
		<g>
			<rect x="128.4" y="70.1" fill="#445C6C" width="66.6" height="3.8"/>
		</g>
		<g>
			<path fill="#F1786B" d="M271.1,87.1c-3.7-8.1-11.7-13.2-20.6-13.2H73c-8.9,0-16.9,5.2-20.6,13.2l-14.9,32.5H286L271.1,87.1z"/>
		</g>
		<g>
			<path fill="#F1786B" d="M467.4,88.6c-1.4-6-6.7-10.2-12.8-10.2H316.2c-6.1,0-11.4,4.2-12.8,10.2l-7.2,31h178.3L467.4,88.6z"/>
		</g>
		<g>
			<path fill="#F1786B" d="M418.3,187.6L418.3,187.6v204.1l0,0c26.1,0,47.3-21.2,47.3-47.3V235C465.6,208.8,444.4,187.6,418.3,187.6
				z"/>
		</g>
		<g>
			<rect x="405.4" y="187.6" fill="#445C6C" width="12.8" height="204.1"/>
		</g>
		<g>
			<g>
				<path fill="#445C6C" d="M440.3,456.3H71.7C33.3,456.3,2,425.1,2,386.6v-322c0-5,4-9,9-9s9,4,9,9v322c0,28.5,23.2,51.8,51.8,51.8
					h368.6c28.5,0,51.8-23.2,51.8-51.8v-322c0-5,4-9,9-9c5,0,9,4,9,9v322C510,425.1,478.7,456.3,440.3,456.3z"/>
			</g>
		</g>
		<g>
			<rect x="16.3" y="119.6" fill="#445C6C" width="479.4" height="62.5"/>
		</g>
		<g>
			<rect x="373.5" y="391.8" fill="#E39A61" width="38.3" height="46.6"/>
		</g>
		<g>
			<rect x="121" y="370.2" fill="#E39A61" width="38.3" height="68.2"/>
		</g>
		<g>
			<path fill="#DBDFE0" d="M231.6,215.8c0-3.7-3-6.8-6.8-6.8H54.5c-3.7,0-6.8,3-6.8,6.8v55.4c0,1.6,0.6,3,1.5,4.2
				c-0.9,0.8-1.5,2-1.5,3.3v60c0,2.5,2,4.5,4.5,4.5h45.6c1,0,1.9-0.3,2.6-0.8c0.7,0.5,1.6,0.8,2.6,0.8h45.6c1.1,0,2-0.4,2.8-1
				c0.8,0.6,1.9,1,3,1h72.2c2.8,0,5.1-2.3,5.1-5.1v-58.8c0-1.5-0.6-2.8-1.6-3.7c1-1.2,1.6-2.7,1.6-4.4V215.8z M51.4,215.8
				c0-1.7,1.4-3,3-3h170.4c1.7,0,3,1.4,3,3v55.4c0,1.7-1.4,3-3,3H54.5c-1.7,0-3-1.4-3-3V215.8z M97.7,339.5H52.2
				c-0.4,0-0.7-0.3-0.7-0.7v-60c0-0.4,0.3-0.7,0.7-0.7h2.3h43.3c0.4,0,0.7,0.3,0.7,0.7v60C98.5,339.2,98.1,339.5,97.7,339.5z
				 M149.2,338.8c0,0.4-0.3,0.7-0.7,0.7h-45.6c-0.4,0-0.7-0.3-0.7-0.7v-60c0-0.4,0.3-0.7,0.7-0.7h45.6c0.4,0,0.7,0.3,0.7,0.7v0.6
				v58.8V338.8z M227.9,338.1c0,0.8-0.6,1.4-1.4,1.4h-72.2c-0.8,0-1.4-0.6-1.4-1.4v-58.8c0-0.8,0.6-1.4,1.4-1.4h70.5h1.7
				c0.8,0,1.4,0.6,1.4,1.4V338.1z"/>
		</g>
		<g>
			<circle fill="#445C6C" cx="88.2" cy="243.5" r="14"/>
		</g>
		<g>
			<path fill="#DBDFE0" d="M99,232.7c-1.3-1.3-3.4-1.3-4.7,0l-16.8,16.8c-1.3,1.3-1.3,3.4,0,4.7c1.3,1.3,3.4,1.3,4.7,0L99,237.4
				C100.3,236.1,100.3,234,99,232.7z"/>
		</g>
		<g>
			<path fill="#445C6C" d="M154.5,246.9c-1.9,7.5-9.5,12-17,10.1c-7.5-1.9-12-9.5-10.1-17c1.9-7.5,9.5-12,17-10.1
				C151.9,231.8,156.4,239.4,154.5,246.9z"/>
		</g>
		<g>
			<path fill="#DBDFE0" d="M144.7,228.8c-1.8-0.4-3.6,0.6-4,2.4l-5.8,23c-0.4,1.8,0.6,3.6,2.4,4c1.8,0.4,3.6-0.6,4-2.4l5.8-23
				C147.5,231,146.4,229.2,144.7,228.8z"/>
		</g>
		<g>
			<g>
				<circle fill="#F1786B" cx="174.3" cy="308.3" r="6.5"/>
			</g>
			<g>
				<circle fill="#5AC8AE" cx="206.3" cy="308.3" r="6.5"/>
			</g>
		</g>
	</g>
	<g>
		<rect x="258.5" y="212.7" fill="#445C6C" width="37.7" height="142.4"/>
	</g>
	<g>
		<rect x="256" y="182.1" fill="#788D9A" width="149.4" height="5.6"/>
	</g>
</g>
</svg>
