<?xml version="1.0" encoding="utf-8"?>
<!-- Generator: Adobe Illustrator 18.0.0, SVG Export Plug-In . SVG Version: 6.00 Build 0)  -->
<!DOCTYPE svg PUBLIC "-//W3C//DTD SVG 1.1//EN" "http://www.w3.org/Graphics/SVG/1.1/DTD/svg11.dtd">
<svg version="1.1" id="Layer_1" xmlns="http://www.w3.org/2000/svg" xmlns:xlink="http://www.w3.org/1999/xlink" x="0px" y="0px"
	 viewBox="0 0 512 512" enable-background="new 0 0 512 512" xml:space="preserve">
<g>
	<g>
		<g>
			<path fill="#EFF3F5" d="M292.7,2c-83.8,0-152,68.2-152,152v58.7h25.6V154c0-69.7,56.7-126.4,126.4-126.4
				c69.7,0,126.4,56.7,126.4,126.4v34.2h25.6V154C444.7,70.2,376.5,2,292.7,2z"/>
		</g>
	</g>
	<g>
		<path fill="#5AC8AE" d="M168,210.9h-28.9c-11.8,0-21.3,9.5-21.3,21.3h71.5C189.3,220.4,179.8,210.9,168,210.9z"/>
	</g>
	<g>
		<g>
			<path fill="#EFF3F5" d="M305.1,426.7V273.7c0-22.9-18.6-41.5-41.5-41.5H43.5C20.6,232.2,2,250.7,2,273.7v153.1H305.1z"/>
		</g>
		<g>
			<g>
				<path fill="#DBDFE0" d="M285.3,392.1H21.8C10.9,392.1,2,401,2,411.9v78.2c0,10.9,8.9,19.8,19.8,19.8h263.5
					c10.9,0,19.8-8.9,19.8-19.8v-78.2C305.1,401,296.2,392.1,285.3,392.1z"/>
			</g>
			<g>
				<path fill="#EDEDED" d="M285.3,392.1H21.8C10.9,392.1,2,401,2,411.9v5.8c0-10.9,8.9-19.8,19.8-19.8h263.5
					c10.9,0,19.8,8.9,19.8,19.8v-5.8C305.1,401,296.2,392.1,285.3,392.1z"/>
			</g>
			<g>
				<path fill="#C2C4C4" d="M222.3,408.7H84.8c-5.4,0-9.8,4.4-9.8,9.8v65c0,5.4,4.4,9.8,9.8,9.8h137.6c5.4,0,9.8-4.4,9.8-9.8v-65
					C232.2,413.1,227.8,408.7,222.3,408.7z"/>
			</g>
			<g>
				<path fill="#EFF3F5" d="M215,413.8H92.1c-6.5,0-11.2,6.1-9.6,12.3L96,480.8c1.1,4.4,5.1,7.5,9.6,7.5h95.9c4.6,0,8.5-3.1,9.6-7.5
					l13.5-54.6C226.2,419.9,221.4,413.8,215,413.8z"/>
			</g>
			<g>
				<g>
					<g>
						<circle fill="#788D9A" cx="111" cy="434" r="5.2"/>
					</g>
					<g>
						<circle fill="#788D9A" cx="132.3" cy="434" r="5.2"/>
					</g>
					<g>
						<circle fill="#788D9A" cx="153.5" cy="434" r="5.2"/>
					</g>
					<g>
						<circle fill="#788D9A" cx="174.8" cy="434" r="5.2"/>
					</g>
					<g>
						<circle fill="#788D9A" cx="196.1" cy="434" r="5.2"/>
					</g>
				</g>
				<g>
					<g>
						<circle fill="#788D9A" cx="111" cy="468.1" r="5.2"/>
					</g>
					<g>
						<circle fill="#788D9A" cx="132.3" cy="468.1" r="5.2"/>
					</g>
					<g>
						<circle fill="#788D9A" cx="153.5" cy="468.1" r="5.2"/>
					</g>
					<g>
						<circle fill="#788D9A" cx="174.8" cy="468.1" r="5.2"/>
					</g>
					<g>
						<circle fill="#788D9A" cx="196.1" cy="468.1" r="5.2"/>
					</g>
				</g>
				<g>
					<g>
						<circle fill="#788D9A" cx="121.7" cy="451.1" r="5.2"/>
					</g>
					<g>
						<circle fill="#788D9A" cx="142.9" cy="451.1" r="5.2"/>
					</g>
					<g>
						<circle fill="#788D9A" cx="164.2" cy="451.1" r="5.2"/>
					</g>
					<g>
						<circle fill="#788D9A" cx="185.4" cy="451.1" r="5.2"/>
					</g>
				</g>
			</g>
			<g>
				<g>
					<circle fill="#788D9A" cx="37.5" cy="451.1" r="14.5"/>
				</g>
				<g>
					<circle fill="#788D9A" cx="269.6" cy="451.1" r="14.5"/>
				</g>
			</g>
		</g>
	</g>
	<g>
		<g>
			<path fill="#DBDFE0" d="M492.8,183.2H371.1c-9.5,0-17.2,7.7-17.2,17.2v92.7H510v-92.7C510,190.9,502.3,183.2,492.8,183.2z"/>
		</g>
		<g>
			<path fill="#EFF3F5" d="M503.8,281.2H360.1c-3.4,0-6.2,2.8-6.2,6.2v45.8c0,3.4,2.8,6.2,6.2,6.2h143.7c3.4,0,6.2-2.8,6.2-6.2
				v-45.8C510,284,507.2,281.2,503.8,281.2z"/>
		</g>
		<g>
			<rect x="367.1" y="310.4" fill="#DBDFE0" width="129.7" height="80.9"/>
		</g>
		<g>
			<path fill="#788D9A" d="M491.7,380.7H488c-0.8,0-1.7-0.2-2.4-0.6l-17-9.2c-0.7-0.4-1.6-0.6-2.4-0.6h-68.5c-0.8,0-1.7,0.2-2.4,0.6
				l-17,9.2c-0.7,0.4-1.6,0.6-2.4,0.6h-3.7c-2.8,0-5,2.3-5,5v14.1c0,2.8,2.3,5,5,5h119.6c2.8,0,5-2.3,5-5v-14.1
				C496.8,383,494.5,380.7,491.7,380.7z"/>
		</g>
		<g>
			<path fill="#DBDFE0" d="M491.7,303.5H488c-0.8,0-1.7-0.2-2.4-0.6l-17-9.2c-0.7-0.4-1.6-0.6-2.4-0.6h-68.5c-0.8,0-1.7,0.2-2.4,0.6
				l-17,9.2c-0.7,0.4-1.6,0.6-2.4,0.6h-3.7c-2.8,0-5,2.3-5,5v14.1c0,2.8,2.3,5,5,5h119.6c2.8,0,5-2.3,5-5v-14.1
				C496.8,305.8,494.5,303.5,491.7,303.5z"/>
		</g>
		<g>
			<g>
				<circle fill="#DBDFE0" cx="379.1" cy="391.4" r="3.8"/>
			</g>
			<g>
				<circle fill="#DBDFE0" cx="394.2" cy="391.4" r="3.8"/>
			</g>
			<g>
				<circle fill="#DBDFE0" cx="409.3" cy="391.4" r="3.8"/>
			</g>
			<g>
				<circle fill="#DBDFE0" cx="424.4" cy="391.4" r="3.8"/>
			</g>
			<g>
				<circle fill="#DBDFE0" cx="439.5" cy="391.4" r="3.8"/>
			</g>
			<g>
				<circle fill="#DBDFE0" cx="454.6" cy="391.4" r="3.8"/>
			</g>
			<g>
				<circle fill="#DBDFE0" cx="469.7" cy="391.4" r="3.8"/>
			</g>
			<g>
				<circle fill="#DBDFE0" cx="484.8" cy="391.4" r="3.8"/>
			</g>
		</g>
		<g>
			<g>
				<rect x="406.5" y="319" fill="#EFF3F5" width="12.7" height="20.5"/>
			</g>
			<g>
				<rect x="444.7" y="319" fill="#EFF3F5" width="12.7" height="20.5"/>
			</g>
		</g>
	</g>
	<g>
		<polygon fill="#D1D3D3" points="395.3,293.7 395.3,370.9 378.2,380.1 378.2,302.9 		"/>
	</g>
	<g>
		<polygon fill="#D1D3D3" points="468.6,293.7 468.6,370.9 485.6,380.1 485.6,302.9 		"/>
	</g>
</g>
</svg>
