<?xml version="1.0" encoding="utf-8"?>
<!-- Generator: Adobe Illustrator 18.0.0, SVG Export Plug-In . SVG Version: 6.00 Build 0)  -->
<!DOCTYPE svg PUBLIC "-//W3C//DTD SVG 1.1//EN" "http://www.w3.org/Graphics/SVG/1.1/DTD/svg11.dtd">
<svg version="1.1" id="Layer_1" xmlns="http://www.w3.org/2000/svg" xmlns:xlink="http://www.w3.org/1999/xlink" x="0px" y="0px"
	 viewBox="0 0 512 512" enable-background="new 0 0 512 512" xml:space="preserve">
<g>
	<g>
		<g>
			<path fill="#C9C9C9" d="M406.2,217.2l7.9,0l-1.7-13.8l-19.5,0l0-11.1l18.1,0l-4.7-37.4l-13.4,0l0-11.1l12,0l-5.5-43.5
				c-0.5-3.7-3.6-6.4-7.3-6.4l-52.3,0c-3.7,0-6.8,2.7-7.3,6.4l-5.5,43.5l12,0l0,11.1l-13.4,0l-4.7,37.4l18.1,0v11.1l-19.5,0
				l-1.7,13.8l7.9,0v7l80.5,0V217.2z"/>
		</g>
		<g>
			<rect x="338.8" y="388.9" fill="#EFF3F5" width="54.3" height="105.2"/>
		</g>
		<g>
			<rect x="338.8" y="475" fill="#445C6C" width="54.3" height="19.1"/>
		</g>
		<g>
			<path fill="#DBDFE0" d="M415,371.9l0-147.8l-98.1,0l0,147.8c0,9.4,7.8,17,17.3,17l63.4,0C407.2,388.9,415,381.3,415,371.9z"/>
		</g>
		<g>
			<polygon fill="#EFF3F5" points="317.8,217.2 414.1,217.2 412.4,203.4 373.6,203.4 373.6,192.2 410.9,192.2 409.2,178.4 
				322.7,178.4 320.9,192.2 358.2,192.2 358.2,203.4 319.5,203.4 			"/>
		</g>
		<g>
			<polygon fill="#EFF3F5" points="323.9,168.7 408,168.7 406.2,154.9 373.6,154.9 373.6,143.7 404.8,143.7 403.1,129.9 
				328.8,129.9 327,143.7 358.2,143.7 358.2,154.9 325.6,154.9 			"/>
		</g>
		<g>
			<path fill="#EFF3F5" d="M401.6,118.2l-2.3-17.9c-0.5-3.7-3.6-6.4-7.3-6.4l-52.3,0c-3.7,0-6.8,2.7-7.3,6.4l-2.3,17.9L401.6,118.2z
				"/>
		</g>
		<g>
			<g>
				<rect x="345.9" y="2" fill="#DBDFE0" width="40.1" height="91.9"/>
			</g>
			<g>
				<rect x="379.7" y="2" fill="#EFF3F5" width="6.3" height="91.9"/>
			</g>
			<g>
				<rect x="345.9" y="2" fill="#C9C9C9" width="6.3" height="91.9"/>
			</g>
			<g>
				<g>
					<rect x="359.6" y="2" fill="#EFF3F5" width="6.3" height="91.9"/>
				</g>
				<g>
					<rect x="365.9" y="2" fill="#C9C9C9" width="6.3" height="91.9"/>
				</g>
			</g>
		</g>
		<g>
			<g>
				<path fill="#C9C9C9" d="M396.6,284.1c0.2-1.1,0.4-2.1,0.6-3.2l-62.4,0c0.2,1.1,0.4,2.2,0.6,3.2L396.6,284.1z"/>
			</g>
			<g>
				<path fill="#C9C9C9" d="M398.1,274.8c0.1-1.1,0.3-2.1,0.4-3.2l-65.1,0c0.1,1.1,0.2,2.2,0.4,3.2L398.1,274.8z"/>
			</g>
			<g>
				<path fill="#C9C9C9" d="M399,265.4c0.1-1.1,0.2-2.1,0.2-3.2l-66.7,0c0.1,1.1,0.1,2.2,0.2,3.2L399,265.4z"/>
			</g>
			<g>
				<path fill="#C9C9C9" d="M399.6,246.7c0-1.1,0-2.2-0.1-3.2l-67.2,0c0,1.1,0,2.1-0.1,3.2L399.6,246.7z"/>
			</g>
			<g>
				<path fill="#C9C9C9" d="M399.6,256.1c0-1.1,0.1-2.1,0.1-3.2l-67.4,0c0,1.1,0,2.2,0.1,3.2L399.6,256.1z"/>
			</g>
			<g>
				<path fill="#C9C9C9" d="M332.9,234.2c-0.1,1.1-0.2,2.1-0.3,3.2l66.6,0c-0.1-1.1-0.2-2.2-0.3-3.2L332.9,234.2z"/>
			</g>
			<g>
				<path fill="#C9C9C9" d="M376.3,327.7l-20.7,0c3.3,2.5,6.7,3.9,10.3,3.9C369.5,331.6,373,330.2,376.3,327.7z"/>
			</g>
			<g>
				<path fill="#C9C9C9" d="M382.2,321.5c0.8-1,1.5-2.1,2.2-3.2l-36.9,0c0.7,1.1,1.5,2.2,2.2,3.2L382.2,321.5z"/>
			</g>
			<g>
				<path fill="#C9C9C9" d="M398.4,228c-0.2-1.3-0.3-2.6-0.5-3.9l-63.9,0c-0.2,1.3-0.3,2.6-0.5,3.9L398.4,228z"/>
			</g>
			<g>
				<path fill="#C9C9C9" d="M387.8,312.2c0.5-1,1-2.1,1.5-3.2l-46.6,0c0.5,1.1,1,2.2,1.5,3.2L387.8,312.2z"/>
			</g>
			<g>
				<path fill="#C9C9C9" d="M391.6,302.8c0.4-1.1,0.7-2.1,1.1-3.2l-53.5,0c0.3,1.1,0.7,2.2,1.1,3.2L391.6,302.8z"/>
			</g>
			<g>
				<path fill="#C9C9C9" d="M394.5,293.5c0.3-1.1,0.5-2.1,0.8-3.2l-58.7,0c0.3,1.1,0.5,2.2,0.8,3.2L394.5,293.5z"/>
			</g>
		</g>
	</g>
	<g>
		<g>
			<polygon fill="#788D9A" points="126.4,410.7 118.3,311.8 187.5,311.8 179.4,410.7 			"/>
		</g>
		<g>
			<g>
				<rect x="132.9" y="418.1" fill="#DBDFE0" width="40.1" height="91.9"/>
			</g>
			<g>
				<rect x="166.6" y="418.1" fill="#EFF3F5" width="6.3" height="91.9"/>
			</g>
			<g>
				<rect x="132.9" y="418.1" fill="#C9C9C9" width="6.3" height="91.9"/>
			</g>
			<g>
				<g>
					<rect x="146.6" y="418.1" fill="#EFF3F5" width="6.3" height="91.9"/>
				</g>
				<g>
					<rect x="152.9" y="418.1" fill="#C9C9C9" width="6.3" height="91.9"/>
				</g>
			</g>
		</g>
		<g>
			<rect x="114.4" y="88" fill="#788D9A" width="72.2" height="15"/>
		</g>
		<g>
			<rect x="103.2" y="103" fill="#EFF3F5" width="99.4" height="161.5"/>
		</g>
		<g>
			<path fill="#DBDFE0" d="M208.8,151c0-2.8-2.3-5.1-5.1-5.1l-101.6,0c-2.8,0-5.1,2.3-5.1,5.1c0,2.8,2.3,5.1,5.1,5.1l101.6,0
				C206.5,156.1,208.8,153.8,208.8,151z"/>
		</g>
		<g>
			<path fill="#DBDFE0" d="M208.8,247.2c0-2.8-2.3-5.1-5.1-5.1l-101.6,0c-2.8,0-5.1,2.3-5.1,5.1c0,2.8,2.3,5.1,5.1,5.1l101.6,0
				C206.5,252.3,208.8,250,208.8,247.2z"/>
		</g>
		<g>
			<polygon fill="#DBDFE0" points="118.5,311.8 110.7,264.5 195.1,264.5 187.4,311.8 			"/>
		</g>
		<g>
			<path fill="#DBDFE0" d="M152.9,163.3c4.9,0,9.5,2.4,13.3,6.6l37.5,0c2.8,0,5.1-2.3,5.1-5.1c0-2.8-2.3-5.1-5.1-5.1l-101.6,0
				c-2.8,0-5.1,2.3-5.1,5.1c0,2.8,2.3,5.1,5.1,5.1l37.5,0C143.4,165.7,148,163.3,152.9,163.3z"/>
		</g>
		<g>
			<g>
				<path fill="#DBDFE0" d="M136.8,173.5l-34.7,0c-2.8,0-5.1,2.3-5.1,5.1s2.3,5.1,5.1,5.1l30,0C133.3,179.8,134.9,176.4,136.8,173.5
					z"/>
			</g>
			<g>
				<path fill="#DBDFE0" d="M173.7,183.6l30,0c2.8,0,5.1-2.3,5.1-5.1c0-2.8-2.3-5.1-5.1-5.1l-34.7,0
					C170.9,176.4,172.5,179.8,173.7,183.6z"/>
			</g>
		</g>
		<g>
			<g>
				<path fill="#DBDFE0" d="M175.9,197.3l27.8,0c2.8,0,5.1-2.3,5.1-5.1c0-2.8-2.3-5.1-5.1-5.1l-29.1,0
					C175.4,190.4,175.8,193.8,175.9,197.3z"/>
			</g>
			<g>
				<path fill="#DBDFE0" d="M131.2,187.2l-29.1,0c-2.8,0-5.1,2.3-5.1,5.1c0,2.8,2.3,5.1,5.1,5.1l27.8,0
					C130,193.8,130.4,190.4,131.2,187.2z"/>
			</g>
		</g>
		<g>
			<g>
				<path fill="#DBDFE0" d="M174.7,211.1l29.1,0c2.8,0,5.1-2.3,5.1-5.1c0-2.8-2.3-5.1-5.1-5.1l-27.8,0
					C175.8,204.5,175.4,207.9,174.7,211.1z"/>
			</g>
			<g>
				<path fill="#DBDFE0" d="M129.9,201l-27.8,0c-2.8,0-5.1,2.3-5.1,5.1c0,2.8,2.3,5.1,5.1,5.1l29.1,0
					C130.4,207.9,130,204.5,129.9,201z"/>
			</g>
		</g>
		<g>
			<g>
				<path fill="#DBDFE0" d="M169,224.8l34.7,0c2.8,0,5.1-2.3,5.1-5.1c0-2.8-2.3-5.1-5.1-5.1l-30,0
					C172.5,218.5,170.9,221.9,169,224.8z"/>
			</g>
			<g>
				<path fill="#DBDFE0" d="M132.1,214.7l-30,0c-2.8,0-5.1,2.3-5.1,5.1c0,2.8,2.3,5.1,5.1,5.1l34.7,0
					C134.9,221.9,133.3,218.5,132.1,214.7z"/>
			</g>
		</g>
		<g>
			<path fill="#DBDFE0" d="M208.8,233.5c0-2.8-2.3-5.1-5.1-5.1l-37.5,0c-3.8,4.1-8.3,6.6-13.3,6.6c-4.9,0-9.5-2.4-13.3-6.6l-37.5,0
				c-2.8,0-5.1,2.3-5.1,5.1c0,2.8,2.3,5.1,5.1,5.1l101.6,0C206.5,238.5,208.8,236.3,208.8,233.5z"/>
		</g>
		<g>
			<path fill="#DBDFE0" d="M192,329.5c0-4.1-3.5-7.4-7.8-7.4l-62.5,0c-4.3,0-7.8,3.3-7.8,7.4c0,4.1,3.5,7.4,7.8,7.4l62.5,0
				C188.5,336.9,192,333.6,192,329.5z"/>
		</g>
		<g>
			<path fill="#DBDFE0" d="M188.2,356.6c0-4.1-3.2-7.4-7.1-7.4l-56.4,0c-3.9,0-7.1,3.3-7.1,7.4c0,4.1,3.2,7.4,7.1,7.4l56.4,0
				C185,364,188.2,360.7,188.2,356.6z"/>
		</g>
		<g>
			<path fill="#DBDFE0" d="M185.9,383.7c0-4.1-3-7.4-6.6-7.4l-52.8,0c-3.6,0-6.6,3.3-6.6,7.4c0,4.1,3,7.4,6.6,7.4l52.8,0
				C183,391,185.9,387.7,185.9,383.7z"/>
		</g>
		<g>
			<path fill="#DBDFE0" d="M184.4,410.7c0-4.1-2.8-7.4-6.3-7.4l-50.4,0c-3.5,0-6.3,3.3-6.3,7.4c0,4.1,2.8,7.4,6.3,7.4l50.4,0
				C181.6,418.1,184.4,414.8,184.4,410.7z"/>
		</g>
	</g>
</g>
</svg>
