<?xml version="1.0" encoding="utf-8"?>
<!-- Generator: Adobe Illustrator 18.0.0, SVG Export Plug-In . SVG Version: 6.00 Build 0)  -->
<!DOCTYPE svg PUBLIC "-//W3C//DTD SVG 1.1//EN" "http://www.w3.org/Graphics/SVG/1.1/DTD/svg11.dtd">
<svg version="1.1" id="Layer_1" xmlns="http://www.w3.org/2000/svg" xmlns:xlink="http://www.w3.org/1999/xlink" x="0px" y="0px"
	 viewBox="0 0 512 512" enable-background="new 0 0 512 512" xml:space="preserve">
<g>
	<g>
		<g>
			<g>
				<path fill="#788D9A" d="M440.9,118.2H417v-13.3h23.9c7.2,0,13.1-5.9,13.1-13.1V28.4C454,13.8,465.8,2,480.4,2H510v13.3h-29.6
					c-7.2,0-13.1,5.9-13.1,13.1v63.3C467.3,106.3,455.4,118.2,440.9,118.2z"/>
			</g>
		</g>
		<g>
			<rect x="2" y="169.2" fill="#FDC77C" width="508" height="323.6"/>
		</g>
		<g>
			<rect x="32.5" y="183.5" fill="#EFF3F5" width="176.4" height="309.2"/>
		</g>
		<g>
			<rect x="251.5" y="183.5" fill="#EFF3F5" width="176.4" height="309.2"/>
		</g>
		<g>
			<rect x="214.1" y="183.5" fill="#EFF3F5" width="31.4" height="309.2"/>
		</g>
		<g>
			<rect x="2" y="439.8" fill="#DBDFE0" width="508" height="52.9"/>
		</g>
		<g>
			<g>
				<rect x="65.2" y="492.7" fill="#445C6C" width="40.6" height="17.3"/>
			</g>
			<g>
				<rect x="406.2" y="492.7" fill="#445C6C" width="40.6" height="17.3"/>
			</g>
		</g>
		<g>
			<path fill="#788D9A" d="M176.4,321.5H65c-1.2,0-2.2-1-2.2-2.2V201.5c0-1.2,1-2.2,2.2-2.2h111.4c1.2,0,2.2,1,2.2,2.2v117.8
				C178.6,320.5,177.6,321.5,176.4,321.5z"/>
		</g>
		<g>
			<path fill="#445C6C" d="M160.9,325.1H80.5c-11.7,0-21.3-9.6-21.3-21.3V217c0-11.7,9.6-21.3,21.3-21.3h80.4
				c11.7,0,21.3,9.6,21.3,21.3v86.8C182.2,315.5,172.6,325.1,160.9,325.1z M80.5,202.8c-7.8,0-14.2,6.4-14.2,14.2v86.8
				c0,7.8,6.4,14.2,14.2,14.2h80.4c7.8,0,14.2-6.4,14.2-14.2V217c0-7.8-6.4-14.2-14.2-14.2H80.5z"/>
		</g>
		<g>
			<g>
				<rect x="263.2" y="142.2" fill="#788D9A" width="44.6" height="27"/>
			</g>
			<g>
				<rect x="389.5" y="142.2" fill="#788D9A" width="14" height="27"/>
			</g>
		</g>
		<g>
			<path fill="#DBDFE0" d="M421.3,80.6H245.4c-7.3,0-13.2,13.8-13.2,30.8v0c0,17,5.9,30.8,13.2,30.8h175.9
				c7.3,0,13.2-13.8,13.2-30.8v0C434.5,94.4,428.6,80.6,421.3,80.6z"/>
		</g>
		<g>
			<rect x="85.5" y="215.9" fill="#445C6C" width="24.9" height="24.9"/>
		</g>
		<g>
			<rect x="131.1" y="234.9" fill="#F1786B" width="32.9" height="32.9"/>
		</g>
		<g>
			<circle fill="#445C6C" cx="113" cy="290.2" r="11.2"/>
		</g>
		<g>
			<g>
				<rect x="25.7" y="218.6" fill="#788D9A" width="13" height="32.6"/>
			</g>
			<g>
				<rect x="25.7" y="359.5" fill="#788D9A" width="13" height="32.6"/>
			</g>
		</g>
		<g>
			<g>
				<rect x="421.4" y="218.6" fill="#788D9A" width="13" height="32.6"/>
			</g>
			<g>
				<rect x="421.4" y="359.5" fill="#788D9A" width="13" height="32.6"/>
			</g>
		</g>
	</g>
	<g>
		<g>
			<path fill="#788D9A" d="M199.8,456.8c1.3,0,2.4-1.1,2.4-2.4c0-1.3-1.1-2.4-2.4-2.4h-9.4c-1.3,0-2.4,1.1-2.4,2.4v23.7
				c0,1.3,1.1,2.4,2.4,2.4h9.4c1.3,0,2.4-1.1,2.4-2.4c0-1.3-1.1-2.4-2.4-2.4h-7v-7.1h7c1.3,0,2.4-1.1,2.4-2.4s-1.1-2.4-2.4-2.4h-7
				v-7.1H199.8z"/>
		</g>
		<g>
			<path fill="#788D9A" d="M242.1,456.8c1.3,0,2.4-1.1,2.4-2.4c0-1.3-1.1-2.4-2.4-2.4h-9.4c-1.3,0-2.4,1.1-2.4,2.4v23.7
				c0,1.3,1.1,2.4,2.4,2.4h9.4c1.3,0,2.4-1.1,2.4-2.4c0-1.3-1.1-2.4-2.4-2.4h-7v-7.1h7c1.3,0,2.4-1.1,2.4-2.4s-1.1-2.4-2.4-2.4h-7
				v-7.1H242.1z"/>
		</g>
		<g>
			<path fill="#788D9A" d="M265.1,460.3c0-4.6-3.7-8.3-8.3-8.3H251c-1.3,0-2.4,1.1-2.4,2.4v23.7c0,1.3,1.1,2.4,2.4,2.4
				c1.3,0,2.4-1.1,2.4-2.4v-9.5h2l5.2,10.3c0.4,0.8,1.9,1.7,3.2,1c1.2-0.6,1.6-2,1-3.2l-4.5-8.9
				C263.1,466.5,265.1,463.7,265.1,460.3z M256.8,463.9h-3.4v-7.1h3.4c2,0,3.6,1.6,3.6,3.6C260.3,462.3,258.7,463.9,256.8,463.9z"/>
		</g>
		<g>
			<path fill="#788D9A" d="M351.1,467.8c2.8-1.3,4.8-4.2,4.8-7.5c0-4.6-3.7-8.3-8.3-8.3h-5.8c-1.3,0-2.4,1.1-2.4,2.4v23.7
				c0,1.3,1.1,2.4,2.4,2.4s2.4-1.1,2.4-2.4v-9.5h2l5.2,10.3c0.4,0.8,1.9,1.6,3.2,1c1.2-0.5,1.6-2,1-3.2L351.1,467.8z M344.1,456.8
				h3.4c2,0,3.6,1.6,3.6,3.6c0,2-1.6,3.6-3.6,3.6h-3.4V456.8z"/>
		</g>
		<g>
			<path fill="#788D9A" d="M305.7,452h-15.8c-1.3,0-2.4,1.1-2.4,2.4c0,1.3,1.1,2.4,2.4,2.4h5.5v21.4c0,1.3,1.1,2.4,2.4,2.4
				s2.4-1.1,2.4-2.4v-21.4h5.5c1.3,0,2.4-1.1,2.4-2.4C308,453.1,307,452,305.7,452z"/>
		</g>
		<g>
			<path fill="#788D9A" d="M321.8,452c-7.9,0-14.2,6.4-14.2,14.2c0,7.9,6.4,14.2,14.2,14.2c7.9,0,14.2-6.4,14.2-14.2
				C336,458.4,329.6,452,321.8,452z M321.8,475.8c-5.2,0-9.5-4.3-9.5-9.5c0-5.2,4.3-9.5,9.5-9.5c5.2,0,9.5,4.3,9.5,9.5
				C331.3,471.5,327,475.8,321.8,475.8z"/>
		</g>
		<g>
			<path fill="#788D9A" d="M223,452c-1.3,0-2.4,1.1-2.4,2.4v15.2l-9.8-16.4c-0.5-0.9-1.6-1.4-2.7-1.1c-1,0.3-1.7,1.2-1.7,2.3v23.7
				c0,1.3,1.1,2.4,2.4,2.4c1.3,0,2.4-1.1,2.4-2.4V463l9.8,16.4c0.4,0.7,1.5,1.5,2.7,1.1c1-0.3,1.7-1.2,1.7-2.3v-23.7
				C225.4,453.1,224.3,452,223,452z"/>
		</g>
		<g>
			<path fill="#788D9A" d="M281.3,453.7c-0.4-0.9-1.2-1.5-2.2-1.5c-1,0-1.9,0.6-2.2,1.5l-9,23.4c-0.5,1.2,0.1,2.6,1.4,3.1
				c1.3,0.5,2.7-0.4,3.1-1.4l2.1-5.5h9.3l2.1,5.5c0.5,1.2,1.8,1.8,3.1,1.4c1.2-0.5,1.8-1.8,1.4-3.1L281.3,453.7z M276.3,468.6
				l2.8-7.4l2.8,7.4H276.3z"/>
		</g>
		<g>
			<path fill="#788D9A" d="M181.8,467h-11.7c-1.3,0-2.4,1.1-2.4,2.4c0,1.3,1.1,2.4,2.4,2.4h7.9c-1.7,2.4-4.6,4-7.7,4
				c-5.2,0-9.5-4.3-9.5-9.5c0-5.2,4.3-9.5,9.5-9.5c3.4,0,6.5,1.8,8.2,4.7c0.7,1.1,2.1,1.5,3.2,0.9c1.1-0.7,1.5-2.1,0.9-3.2
				c-2.5-4.4-7.3-7.1-12.3-7.1c-7.9,0-14.2,6.4-14.2,14.2c0,7.9,6.4,14.2,14.2,14.2c6.4,0,12.1-4.3,13.7-10.5c0.2-0.7,0-1.5-0.4-2.1
				C183.3,467.4,182.6,467,181.8,467z"/>
		</g>
	</g>
</g>
</svg>
