<?xml version="1.0" encoding="utf-8"?>
<!-- Generator: Adobe Illustrator 18.0.0, SVG Export Plug-In . SVG Version: 6.00 Build 0)  -->
<!DOCTYPE svg PUBLIC "-//W3C//DTD SVG 1.1//EN" "http://www.w3.org/Graphics/SVG/1.1/DTD/svg11.dtd">
<svg version="1.1" id="Layer_1" xmlns="http://www.w3.org/2000/svg" xmlns:xlink="http://www.w3.org/1999/xlink" x="0px" y="0px"
	 viewBox="0 0 512 512" enable-background="new 0 0 512 512" xml:space="preserve">
<g>
	<g>
		<polygon fill="#FBD984" points="171.5,479.6 155.7,186.6 137.6,186.6 121.8,479.6 		"/>
	</g>
	<g>
		<g>
			<g>
				<path fill="#EFF3F5" d="M162.9,80.3c0,43.2-16.2,78.3-16.2,78.3s-16.2-35-16.2-78.3S146.7,2,146.7,2S162.9,37,162.9,80.3z"/>
			</g>
		</g>
		<g>
			<g>
				<path fill="#EFF3F5" d="M61.7,199.4c37.4-21.6,75.9-25.1,75.9-25.1s-22.2,31.6-59.7,53.2S2,252.6,2,252.6S24.2,221,61.7,199.4z"
					/>
			</g>
		</g>
		<g>
			<g>
				<path fill="#EFF3F5" d="M215.4,227.5c-37.4-21.6-59.7-53.2-59.7-53.2s38.5,3.5,75.9,25.1s59.7,53.2,59.7,53.2
					S252.9,249.1,215.4,227.5z"/>
			</g>
		</g>
		<g>
			<circle fill="#EFF3F5" cx="146.7" cy="169" r="30.4"/>
		</g>
		<g>
			<circle fill="#DBDFE0" cx="146.7" cy="169" r="13.5"/>
		</g>
	</g>
	<g>
		<path fill="#5AC8AE" d="M285.6,441.7c-54.1,33.1-82.2,68.3-82.2,68.3H2V460C2,460,154.3,403.5,285.6,441.7z"/>
	</g>
	<g>
		<g>
			<polygon fill="#FBD984" points="345.6,479.6 336.3,306.6 324.9,306.6 315.6,479.6 			"/>
		</g>
		<g>
			<g>
				<g>
					<path fill="#DBDFE0" d="M340.8,239.6c0,27.2-10.2,49.2-10.2,49.2s-10.2-22-10.2-49.2s10.2-49.2,10.2-49.2
						S340.8,212.4,340.8,239.6z"/>
				</g>
			</g>
			<g>
				<g>
					<path fill="#DBDFE0" d="M277.1,314.6c23.6-13.6,47.8-15.8,47.8-15.8s-14,19.9-37.5,33.5S239.6,348,239.6,348
						S253.6,328.2,277.1,314.6z"/>
				</g>
			</g>
			<g>
				<g>
					<path fill="#DBDFE0" d="M373.9,332.3c-23.6-13.6-37.5-33.5-37.5-33.5s24.2,2.2,47.8,15.8s37.5,33.5,37.5,33.5
						S397.4,345.9,373.9,332.3z"/>
				</g>
			</g>
			<g>
				<circle fill="#788D9A" cx="330.6" cy="295.5" r="13.4"/>
			</g>
		</g>
		<g>
			<path fill="#52AFA8" d="M510,384.7V510H203.4C203.4,510,310.5,375.7,510,384.7z"/>
		</g>
	</g>
</g>
</svg>
