<?xml version="1.0" encoding="utf-8"?>
<!-- Generator: Adobe Illustrator 18.0.0, SVG Export Plug-In . SVG Version: 6.00 Build 0)  -->
<!DOCTYPE svg PUBLIC "-//W3C//DTD SVG 1.1//EN" "http://www.w3.org/Graphics/SVG/1.1/DTD/svg11.dtd">
<svg version="1.1" id="Layer_1" xmlns="http://www.w3.org/2000/svg" xmlns:xlink="http://www.w3.org/1999/xlink" x="0px" y="0px"
	 viewBox="0 0 512 512" enable-background="new 0 0 512 512" xml:space="preserve">
<g>
	<g>
		<path fill="#DBDFE0" d="M102.3,12.9C102.2,6.8,97.3,2,91.2,2c-6,0-11,4.8-11.1,10.9l-9.5,479.4h41.2L102.3,12.9z"/>
	</g>
	<g>
		<polygon fill="#F1786B" points="510,323.5 105.4,323.5 137.8,202.2 477.6,202.2 		"/>
	</g>
	<g>
		<rect x="143.8" y="323.5" fill="#EFF3F5" width="327.8" height="168.7"/>
	</g>
	<g>
		<rect x="143.8" y="323.5" fill="#DBDFE0" width="327.8" height="17.4"/>
	</g>
	<g>
		<rect x="196" y="374.6" fill="#445C6C" width="69.4" height="117.7"/>
	</g>
	<g>
		<rect x="303.1" y="374.6" fill="#2E89AC" width="111.4" height="73.6"/>
	</g>
	<g>
		<rect x="2" y="492.3" fill="#5AC8AE" width="508" height="17.7"/>
	</g>
	<g>
		<g>
			<path fill="#D45947" d="M39.7,41.1c0-0.8-2.6-1.5-6.4-1.8c0.6-0.7,1.2-1.5,1.6-2.5c0.3-0.8-0.3-1.7-1.2-1.7h-7.6
				c-0.9,0-1.5,0.9-1.2,1.7c0.4,1,0.9,1.8,1.6,2.5c-3.7,0.3-6.4,1-6.4,1.8c0,0.7,1.7,1.3,4.4,1.6c-0.5,0.9-0.8,1.9-0.9,3
				c-0.1,0.8,0.5,1.5,1.3,1.5H35c0.8,0,1.4-0.7,1.3-1.5c-0.2-1.1-0.5-2.1-0.9-3C37.9,42.4,39.7,41.8,39.7,41.1z"/>
		</g>
		<g>
			<path fill="#445C6C" d="M28.5,47.1v19.7c0,0.7,0.6,1.4,1.4,1.4s1.4-0.6,1.4-1.4V47.1H28.5z"/>
		</g>
		<g>
			<path fill="#D45947" d="M162.3,41.1c0-0.8-2.6-1.5-6.4-1.8c0.6-0.7,1.2-1.5,1.6-2.5c0.3-0.8-0.3-1.7-1.2-1.7h-7.6
				c-0.9,0-1.5,0.9-1.2,1.7c0.4,1,0.9,1.8,1.6,2.5c-3.7,0.3-6.4,1-6.4,1.8c0,0.7,1.7,1.3,4.4,1.6c-0.5,0.9-0.8,1.9-0.9,3
				c-0.1,0.8,0.5,1.5,1.3,1.5h10.2c0.8,0,1.4-0.7,1.3-1.5c-0.2-1.1-0.5-2.1-0.9-3C160.6,42.4,162.3,41.8,162.3,41.1z"/>
		</g>
		<g>
			<path fill="#445C6C" d="M151.2,47.1v19.7c0,0.7,0.6,1.4,1.4,1.4s1.4-0.6,1.4-1.4V47.1H151.2z"/>
		</g>
	</g>
	<g>
		<path fill="#FDC77C" d="M155.5,51.5H27c-3.3,0-5.9,2.7-5.9,5.9c0,3.3,2.7,5.9,5.9,5.9h128.5c3.3,0,5.9-2.7,5.9-5.9
			C161.4,54.2,158.8,51.5,155.5,51.5z"/>
	</g>
	<g>
		<g>
			<g>
				<path fill="#D45947" d="M26.9,103.2c0-0.8-2.6-1.5-6.4-1.8c0.6-0.7,1.2-1.5,1.6-2.5c0.3-0.8-0.3-1.7-1.2-1.7h-7.6
					c-0.9,0-1.5,0.9-1.2,1.7c0.4,1,0.9,1.8,1.6,2.5c-3.7,0.3-6.4,1-6.4,1.8c0,0.7,1.7,1.3,4.4,1.6c-0.5,0.9-0.8,1.9-0.9,3
					c-0.1,0.8,0.5,1.5,1.3,1.5h10.2c0.8,0,1.4-0.7,1.3-1.5c-0.2-1.1-0.5-2.1-0.9-3C25.2,104.5,26.9,103.9,26.9,103.2z"/>
			</g>
			<g>
				<path fill="#445C6C" d="M15.8,109.2v19.7c0,0.7,0.6,1.4,1.4,1.4s1.4-0.6,1.4-1.4v-19.7H15.8z"/>
			</g>
		</g>
		<g>
			<g>
				<path fill="#D45947" d="M59,103.2c0-0.8-2.6-1.5-6.4-1.8c0.6-0.7,1.2-1.5,1.6-2.5c0.3-0.8-0.3-1.7-1.2-1.7h-7.6
					c-0.9,0-1.5,0.9-1.2,1.7c0.4,1,0.9,1.8,1.6,2.5c-3.7,0.3-6.4,1-6.4,1.8c0,0.7,1.7,1.3,4.4,1.6c-0.5,0.9-0.8,1.9-0.9,3
					c-0.1,0.8,0.5,1.5,1.3,1.5h10.2c0.8,0,1.4-0.7,1.3-1.5c-0.2-1.1-0.5-2.1-0.9-3C57.3,104.5,59,103.9,59,103.2z"/>
			</g>
			<g>
				<path fill="#445C6C" d="M47.9,109.2v19.7c0,0.7,0.6,1.4,1.4,1.4s1.4-0.6,1.4-1.4v-19.7H47.9z"/>
			</g>
		</g>
		<g>
			<g>
				<path fill="#D45947" d="M143,103.2c0-0.8-2.6-1.5-6.4-1.8c0.6-0.7,1.2-1.5,1.6-2.5c0.3-0.8-0.3-1.7-1.2-1.7h-7.6
					c-0.9,0-1.5,0.9-1.2,1.7c0.4,1,0.9,1.8,1.6,2.5c-3.7,0.3-6.4,1-6.4,1.8c0,0.7,1.7,1.3,4.4,1.6c-0.5,0.9-0.8,1.9-0.9,3
					c-0.1,0.8,0.5,1.5,1.3,1.5h10.2c0.8,0,1.4-0.7,1.3-1.5c-0.2-1.1-0.5-2.1-0.9-3C141.3,104.5,143,103.9,143,103.2z"/>
			</g>
			<g>
				<path fill="#445C6C" d="M131.9,109.2v19.7c0,0.7,0.6,1.4,1.4,1.4c0.7,0,1.4-0.6,1.4-1.4v-19.7H131.9z"/>
			</g>
		</g>
		<g>
			<g>
				<path fill="#D45947" d="M175.1,103.2c0-0.8-2.6-1.5-6.4-1.8c0.6-0.7,1.2-1.5,1.6-2.5c0.3-0.8-0.3-1.7-1.2-1.7h-7.6
					c-0.9,0-1.5,0.9-1.2,1.7c0.4,1,0.9,1.8,1.6,2.5c-3.7,0.3-6.4,1-6.4,1.8c0,0.7,1.7,1.3,4.4,1.6c-0.5,0.9-0.8,1.9-0.9,3
					c-0.1,0.8,0.5,1.5,1.3,1.5h10.2c0.8,0,1.4-0.7,1.3-1.5c-0.2-1.1-0.5-2.1-0.9-3C173.4,104.5,175.1,103.9,175.1,103.2z"/>
			</g>
			<g>
				<path fill="#445C6C" d="M164,109.2v19.7c0,0.7,0.6,1.4,1.4,1.4s1.4-0.6,1.4-1.4v-19.7H164z"/>
			</g>
		</g>
	</g>
	<g>
		<path fill="#FDC77C" d="M174.5,113.6H7.9c-3.3,0-5.9,2.7-5.9,5.9c0,3.3,2.7,5.9,5.9,5.9h166.6c3.3,0,5.9-2.7,5.9-5.9
			C180.4,116.3,177.8,113.6,174.5,113.6z"/>
	</g>
	<g>
		<circle fill="#D45947" cx="91.2" cy="57.4" r="3"/>
	</g>
	<g>
		<circle fill="#D45947" cx="91.2" cy="119.6" r="3"/>
	</g>
</g>
</svg>
