<?xml version="1.0" encoding="utf-8"?>
<!-- Generator: Adobe Illustrator 18.0.0, SVG Export Plug-In . SVG Version: 6.00 Build 0)  -->
<!DOCTYPE svg PUBLIC "-//W3C//DTD SVG 1.1//EN" "http://www.w3.org/Graphics/SVG/1.1/DTD/svg11.dtd">
<svg version="1.1" id="Layer_1" xmlns="http://www.w3.org/2000/svg" xmlns:xlink="http://www.w3.org/1999/xlink" x="0px" y="0px"
	 viewBox="0 0 512 512" enable-background="new 0 0 512 512" xml:space="preserve">
<g>
	<g>
		<g>
			<path fill="#FBD984" d="M418.7,2H33.6C16.2,2,2,16.2,2,33.6v444.7C2,495.8,16.2,510,33.6,510h385.1c17.5,0,31.6-14.2,31.6-31.6
				V33.6C450.4,16.2,436.2,2,418.7,2z"/>
		</g>
		<g>
			<path fill="#FFE4A9" d="M418.7,2H33.6C16.2,2,2,16.2,2,33.6V45c0-17.5,14.2-31.6,31.6-31.6h385.1c17.5,0,31.6,14.2,31.6,31.6
				V33.6C450.4,16.2,436.2,2,418.7,2z"/>
		</g>
		<g>
			<path fill="#5AC8AE" d="M386.2,446.4H66.1c-1.3,0-2.4-1.1-2.4-2.4V68.1c0-1.3,1.1-2.4,2.4-2.4h320.1c1.3,0,2.4,1.1,2.4,2.4v375.9
				C388.7,445.3,387.6,446.4,386.2,446.4z"/>
		</g>
		<g>
			<path fill="#6FD8BC" d="M369.4,65.6H82.9c-10.6,0-19.2,8.6-19.2,19.2v16.3c0-10.6,8.6-19.2,19.2-19.2h286.5
				c10.6,0,19.2,8.6,19.2,19.2V84.9C388.7,74.3,380,65.6,369.4,65.6z"/>
		</g>
		<g>
			<rect x="388.7" y="176.7" fill="#52AFA8" width="50" height="133.4"/>
		</g>
		<g>
			<g>
				<g>
					<circle fill="#E39A61" cx="40.3" cy="38.2" r="14.9"/>
				</g>
				<g>
					<circle fill="#E39A61" cx="412.1" cy="38.2" r="14.9"/>
				</g>
			</g>
			<g>
				<g>
					<circle fill="#E39A61" cx="40.3" cy="473.8" r="14.9"/>
				</g>
				<g>
					<circle fill="#E39A61" cx="412.1" cy="473.8" r="14.9"/>
				</g>
			</g>
		</g>
		<g>
			<path fill="#445C6C" d="M312.7,132H139.6c-12,0-21.7,9.7-21.7,21.7v117c0,12,9.7,21.7,21.7,21.7h173.1c12,0,21.7-9.7,21.7-21.7
				v-117C334.4,141.7,324.7,132,312.7,132z"/>
		</g>
		<g>
			<polygon fill="#FFFFFF" points="235.8,141.4 172.6,210.3 227.5,210.3 160.9,283 279,195.3 226.2,195.3 291.4,141.4 			"/>
		</g>
		<g>
			<g>
				<path fill="#445C6C" d="M488,463.9h-12.5V261.6c0-6.6-5.3-11.9-11.9-11.9h-25v-12.5h25c13.5,0,24.4,10.9,24.4,24.4V463.9z"/>
			</g>
		</g>
		<g>
			<circle fill="#F1786B" cx="481.8" cy="481.8" r="28.2"/>
		</g>
	</g>
	<g>
		<g>
			<g>
				<path fill="#52AFA8" d="M261.7,344.8c-13.4,0-24.2,14.9-24.2,33.4c0,18.4,10.8,33.4,24.2,33.4c13.4,0,24.2-14.9,24.2-33.4
					C285.9,359.8,275,344.8,261.7,344.8z M261.7,400.2c-7.1,0-12.9-9.8-12.9-22c0-12.1,5.8-22,12.9-22s12.9,9.8,12.9,22
					C274.6,390.3,268.8,400.2,261.7,400.2z"/>
			</g>
			<g>
				<path fill="#52AFA8" d="M165.5,344.8c-10.7,0-19.5,8.7-19.5,19.5c0,3.1,2.5,5.6,5.6,5.6c3.1,0,5.6-2.5,5.6-5.6
					c0-4.5,3.7-8.2,8.2-8.2c4.5,0,8.2,3.7,8.2,8.2c0,4.5-3.7,8.2-8.2,8.2c-3.1,0-5.6,2.5-5.6,5.6c0,3.1,2.5,5.6,5.6,5.6
					c4.5,0,8.2,3.7,8.2,8.2c0,4.5-3.7,8.2-8.2,8.2c-4.5,0-8.2-3.7-8.2-8.2c0-3.1-2.5-5.6-5.6-5.6c-3.1,0-5.6,2.5-5.6,5.6
					c0,10.7,8.7,19.5,19.5,19.5c10.7,0,19.5-8.7,19.5-19.5c0-5.4-2.2-10.3-5.8-13.9c3.6-3.5,5.8-8.4,5.8-13.9
					C185,353.6,176.2,344.8,165.5,344.8z"/>
			</g>
			<g>
				<path fill="#52AFA8" d="M230.8,363.8c0-10.5-8.5-19-19-19c-10.5,0-19,8.5-19,19c0,5.1,2,9.8,5.3,13.2c-3.9,3.6-6.3,8.8-6.3,14.5
					c0,11,9,20,20,20c11,0,20-9,20-20c0-5.7-2.4-10.9-6.3-14.5C228.7,373.6,230.8,369,230.8,363.8z M211.8,356.1
					c4.3,0,7.8,3.5,7.8,7.8c0,4.3-3.5,7.8-7.8,7.8c-4.3,0-7.8-3.5-7.8-7.8C204,359.6,207.5,356.1,211.8,356.1z M211.8,400.3
					c-4.8,0-8.7-3.9-8.7-8.7c0-4.8,3.9-8.7,8.7-8.7s8.7,3.9,8.7,8.7C220.5,396.4,216.6,400.3,211.8,400.3z"/>
			</g>
			<g>
				<path fill="#52AFA8" d="M331.6,363.2c-2.9-1.2-6.2,0.2-7.3,3.1l-10.3,24.9l-10.3-24.9c-1.2-2.9-4.5-4.2-7.3-3.1
					c-2.9,1.2-4.2,4.5-3.1,7.3l15.5,37.5c0.9,2.1,2.9,3.5,5.2,3.5s4.3-1.4,5.2-3.5l15.5-37.5C335.8,367.6,334.4,364.4,331.6,363.2z"
					/>
			</g>
		</g>
		<g>
			<g>
				<path fill="#EFF3F5" d="M253.7,336.9c-13.4,0-24.2,14.9-24.2,33.4c0,18.4,10.8,33.4,24.2,33.4c13.4,0,24.2-14.9,24.2-33.4
					C277.9,351.8,267.1,336.9,253.7,336.9z M253.7,392.2c-7.1,0-12.9-9.8-12.9-22c0-12.1,5.8-22,12.9-22c7.1,0,12.9,9.8,12.9,22
					C266.7,382.4,260.9,392.2,253.7,392.2z"/>
			</g>
			<g>
				<path fill="#EFF3F5" d="M157.5,336.9c-10.7,0-19.5,8.7-19.5,19.5c0,3.1,2.5,5.6,5.6,5.6c3.1,0,5.6-2.5,5.6-5.6
					c0-4.5,3.7-8.2,8.2-8.2c4.5,0,8.2,3.7,8.2,8.2c0,4.5-3.7,8.2-8.2,8.2c-3.1,0-5.6,2.5-5.6,5.6c0,3.1,2.5,5.6,5.6,5.6
					c4.5,0,8.2,3.7,8.2,8.2c0,4.5-3.7,8.2-8.2,8.2c-4.5,0-8.2-3.7-8.2-8.2c0-3.1-2.5-5.6-5.6-5.6c-3.1,0-5.6,2.5-5.6,5.6
					c0,10.7,8.7,19.5,19.5,19.5c10.7,0,19.5-8.7,19.5-19.5c0-5.4-2.2-10.3-5.8-13.9c3.6-3.5,5.8-8.4,5.8-13.9
					C177,345.6,168.3,336.9,157.5,336.9z"/>
			</g>
			<g>
				<path fill="#EFF3F5" d="M222.8,355.9c0-10.5-8.5-19-19-19c-10.5,0-19,8.5-19,19c0,5.1,2,9.8,5.3,13.2c-3.9,3.6-6.3,8.8-6.3,14.5
					c0,11,9,20,20,20c11,0,20-9,20-20c0-5.7-2.4-10.9-6.3-14.5C220.8,365.7,222.8,361,222.8,355.9z M203.8,348.1
					c4.3,0,7.8,3.5,7.8,7.8c0,4.3-3.5,7.8-7.8,7.8c-4.3,0-7.8-3.5-7.8-7.8C196.1,351.6,199.5,348.1,203.8,348.1z M203.8,392.3
					c-4.8,0-8.7-3.9-8.7-8.7c0-4.8,3.9-8.7,8.7-8.7s8.7,3.9,8.7,8.7C212.5,388.4,208.6,392.3,203.8,392.3z"/>
			</g>
			<g>
				<path fill="#EFF3F5" d="M323.6,355.2c-2.9-1.2-6.2,0.2-7.3,3.1L306,383.2l-10.3-24.9c-1.2-2.9-4.5-4.2-7.3-3.1
					c-2.9,1.2-4.2,4.5-3.1,7.3l15.5,37.5c0.9,2.1,2.9,3.5,5.2,3.5s4.3-1.4,5.2-3.5l15.5-37.5C327.9,359.7,326.5,356.4,323.6,355.2z"
					/>
			</g>
		</g>
	</g>
</g>
</svg>
