<?xml version="1.0" encoding="utf-8"?>
<!-- Generator: Adobe Illustrator 18.0.0, SVG Export Plug-In . SVG Version: 6.00 Build 0)  -->
<!DOCTYPE svg PUBLIC "-//W3C//DTD SVG 1.1//EN" "http://www.w3.org/Graphics/SVG/1.1/DTD/svg11.dtd">
<svg version="1.1" id="Layer_1" xmlns="http://www.w3.org/2000/svg" xmlns:xlink="http://www.w3.org/1999/xlink" x="0px" y="0px"
	 viewBox="0 0 512 512" enable-background="new 0 0 512 512" xml:space="preserve">
<g>
	<g>
		<path fill="#FBD984" d="M462.5,187.8c1.4-4.5,2.3-9.1,2.3-14.1c0-24.2-18-43.9-41.3-47.1c7.3-15.7,5.3-34.9-6.8-48.9
			c-12.2-14.1-31.1-18.9-47.9-13.7C364.8,29.1,335.3,2,299.4,2c-29.3,0-54.4,18-64.8,43.6c-18.2-20.8-47-30.9-75.6-23.7
			c-35,8.8-58.1,40.5-57.4,75.1c-30.7,4-54.4,30.2-54.4,62c0,10.4,2.6,20.2,7.1,28.9H462.5z"/>
	</g>
	<g>
		<g>
			<path fill="#FFE4A9" d="M423.5,140.8c21,2.9,37.6,19.2,40.7,40.1c0.4-2.3,0.7-4.7,0.7-7.2c0-22.8-16.1-41.5-37.5-46.2
				C426.7,132,425.4,136.6,423.5,140.8z"/>
		</g>
		<g>
			<path fill="#FFE4A9" d="M101.5,111.2C100.9,76.6,124,44.9,159,36.1c28.6-7.2,57.5,3,75.6,23.7c10.4-25.6,35.5-43.6,64.8-43.6
				c35.9,0,65.5,27.1,69.4,61.9c16.8-5.1,35.7-0.4,47.9,13.7c5.8,6.7,9.2,14.5,10.4,22.7c2-12.8-1.3-26.3-10.4-36.9
				c-12.2-14.1-31.1-18.9-47.9-13.7C364.8,29.1,335.3,2,299.4,2c-29.3,0-54.4,18-64.8,43.6c-18.2-20.8-47-30.9-75.6-23.7
				c-35,8.8-58.1,40.5-57.4,75.1c-30.7,4-54.4,30.2-54.4,62c0,2.8,0.2,5.5,0.6,8.2C50.6,138.1,72.9,115,101.5,111.2z"/>
		</g>
	</g>
	<g>
		<polygon fill="#788D9A" points="447.2,472.3 64.8,472.3 27.5,221.5 484.5,221.5 		"/>
	</g>
	<g>
		<polygon fill="#445C6C" points="481.3,242.6 484.5,221.4 27.5,221.4 30.7,242.6 		"/>
	</g>
	<g>
		<path fill="#DBDFE0" d="M491.2,183.9H20.8c-10.4,0-18.8,8.4-18.8,18.8s8.4,18.8,18.8,18.8h470.4c10.4,0,18.8-8.4,18.8-18.8
			S501.6,183.9,491.2,183.9z"/>
	</g>
	<g>
		<path fill="#EFEFEF" d="M20.8,194.7h470.4c8.5,0,15.6,5.7,17.9,13.4c0.5-1.7,0.9-3.5,0.9-5.4c0-10.4-8.4-18.8-18.8-18.8H20.8
			c-10.4,0-18.8,8.4-18.8,18.8c0,1.9,0.4,3.7,0.9,5.4C5.2,200.3,12.3,194.7,20.8,194.7z"/>
	</g>
	<g>
		<g>
			<g>
				<circle fill="#445C6C" cx="108.1" cy="472.3" r="37.7"/>
			</g>
			<g>
				<circle fill="#DBDFE0" cx="108.1" cy="472.3" r="21.6"/>
			</g>
			<g>
				<circle fill="#445C6C" cx="108.1" cy="472.3" r="6.9"/>
			</g>
		</g>
		<g>
			<g>
				<circle fill="#445C6C" cx="192.6" cy="472.3" r="37.7"/>
			</g>
			<g>
				<circle fill="#DBDFE0" cx="192.6" cy="472.3" r="21.6"/>
			</g>
			<g>
				<circle fill="#445C6C" cx="192.6" cy="472.3" r="6.9"/>
			</g>
		</g>
		<g>
			<g>
				<circle fill="#445C6C" cx="319.4" cy="472.3" r="37.7"/>
			</g>
			<g>
				<circle fill="#DBDFE0" cx="319.4" cy="472.3" r="21.6"/>
			</g>
			<g>
				<circle fill="#445C6C" cx="319.4" cy="472.3" r="6.9"/>
			</g>
		</g>
		<g>
			<g>
				<circle fill="#445C6C" cx="403.9" cy="472.3" r="37.7"/>
			</g>
			<g>
				<circle fill="#DBDFE0" cx="403.9" cy="472.3" r="21.6"/>
			</g>
			<g>
				<circle fill="#445C6C" cx="403.9" cy="472.3" r="6.9"/>
			</g>
		</g>
	</g>
</g>
</svg>
