<?xml version="1.0" encoding="utf-8"?>
<!-- Generator: Adobe Illustrator 18.0.0, SVG Export Plug-In . SVG Version: 6.00 Build 0)  -->
<!DOCTYPE svg PUBLIC "-//W3C//DTD SVG 1.1//EN" "http://www.w3.org/Graphics/SVG/1.1/DTD/svg11.dtd">
<svg version="1.1" id="Layer_1" xmlns="http://www.w3.org/2000/svg" xmlns:xlink="http://www.w3.org/1999/xlink" x="0px" y="0px"
	 viewBox="0 0 512 512" enable-background="new 0 0 512 512" xml:space="preserve">
<g>
	<g>
		<g>
			<path fill="#FBD984" d="M89.2,108.7l382.2,382.2l19.6-19.6L108.7,89.2c-5.4-5.4-14.2-5.4-19.6,0l0,0
				C83.8,94.6,83.8,103.3,89.2,108.7z"/>
		</g>
	</g>
	<g>
		
			<rect x="134" y="129.2" transform="matrix(-0.7071 0.7071 -0.7071 -0.7071 356.8614 147.8143)" fill="#F0B972" width="27.7" height="37.3"/>
	</g>
	<g>
		<path fill="#EFF3F5" d="M277.7,2L156.5,123.2l9.1,9.1l-33.3,33.3l-9.1-9.1L2,277.7c16.7-66.7,55.6-123,104.1-171.6
			C154.7,57.5,211.1,18.7,277.7,2z"/>
	</g>
	<g>
		<path fill="#F5FAFC" d="M277.7,2l-13.4,13.4C206.6,34.3,156.9,70,113.4,113.4C70,156.9,34.3,206.6,15.4,264.3L2,277.7
			c16.7-66.7,55.6-123,104.1-171.6C154.7,57.5,211.1,18.7,277.7,2z"/>
	</g>
	<g>
		<g>
			<polygon fill="#F1786B" points="158.4,437.2 378.7,216.9 420.1,155.9 359.2,197.3 138.8,417.7 			"/>
		</g>
		<g>
			<path fill="#EFF3F5" d="M491.2,84.9c-61.1-37.7-103.4-7.1-103.4-7.1l-60.1,60.1c24.9,24.9,25.1,65.2,0.6,90.4l19.6,19.6
				c25.2-24.5,65.5-24.4,90.4,0.6l60.1-60.1C498.3,188.3,528.9,146,491.2,84.9z"/>
		</g>
		<g>
			<polygon fill="#5AC8AE" points="317.7,277.9 378.7,216.9 420.1,155.9 359.2,197.3 298.1,258.4 			"/>
		</g>
		<g>
			<g>
				<g>
					<path fill="#445C6C" d="M157.3,418.7c18.4,18.4,18.4,48.4,0,66.8L132.9,510L66,443.2l24.4-24.4
						C108.9,400.3,138.9,400.3,157.3,418.7z M132.9,476.5l7.7-7.7c9.2-9.2,9.2-24.1,0-33.3c-9.2-9.2-24.1-9.2-33.3,0l-7.7,7.7
						L132.9,476.5z"/>
				</g>
			</g>
		</g>
	</g>
</g>
</svg>
