<?xml version="1.0" encoding="utf-8"?>
<!-- Generator: Adobe Illustrator 18.0.0, SVG Export Plug-In . SVG Version: 6.00 Build 0)  -->
<!DOCTYPE svg PUBLIC "-//W3C//DTD SVG 1.1//EN" "http://www.w3.org/Graphics/SVG/1.1/DTD/svg11.dtd">
<svg version="1.1" id="Layer_1" xmlns="http://www.w3.org/2000/svg" xmlns:xlink="http://www.w3.org/1999/xlink" x="0px" y="0px"
	 viewBox="0 0 512 512" enable-background="new 0 0 512 512" xml:space="preserve">
<g>
	<g>
		<g>
			<path fill="#5AC8AE" d="M256,510c-64,0-114.1-111.6-114.1-254C141.9,113.6,192,2,256,2c64,0,114.1,111.6,114.1,254
				C370.1,398.4,320,510,256,510z M256,24.5c-44.2,0-91.5,93-91.5,231.5s47.3,231.5,91.5,231.5c44.2,0,91.5-93,91.5-231.5
				S300.2,24.5,256,24.5z"/>
		</g>
	</g>
	<g>
		<g>
			<path fill="#F1786B" d="M476,383c-32,55.4-153.7,43-277-28.2C75.6,283.6,4,184.4,36,129c32-55.4,153.7-43,277,28.2
				C436.4,228.4,507.9,327.6,476,383z M55.5,140.3c-22.1,38.3,34.8,125.8,154.7,195s224.1,74.7,246.2,36.5
				c22.1-38.3-34.8-125.8-154.7-195S77.6,102,55.5,140.3z"/>
		</g>
	</g>
	<g>
		<g>
			<path fill="#FBD984" d="M476,129c32,55.4-39.6,154.6-162.9,225.8C189.7,426,68,438.4,36,383C4.1,327.6,75.6,228.4,199,157.2
				C322.3,86,444,73.6,476,129z M55.5,371.7c22.1,38.3,126.3,32.8,246.2-36.5s176.8-156.7,154.7-195
				c-22.1-38.3-126.3-32.8-246.2,36.5S33.4,333.5,55.5,371.7z"/>
		</g>
	</g>
	<g>
		<g>
			<circle fill="#41B3E2" cx="256" cy="256" r="56.5"/>
		</g>
	</g>
</g>
</svg>
