<?xml version="1.0" encoding="utf-8"?>
<!-- Generator: Adobe Illustrator 18.0.0, SVG Export Plug-In . SVG Version: 6.00 Build 0)  -->
<!DOCTYPE svg PUBLIC "-//W3C//DTD SVG 1.1//EN" "http://www.w3.org/Graphics/SVG/1.1/DTD/svg11.dtd">
<svg version="1.1" id="Layer_1" xmlns="http://www.w3.org/2000/svg" xmlns:xlink="http://www.w3.org/1999/xlink" x="0px" y="0px"
	 viewBox="0 0 512 512" enable-background="new 0 0 512 512" xml:space="preserve">
<g>
	<g>
		<path fill="#1B738E" d="M256,412.5c-81.9,0-170.7,38.4-170.7,38.4v10.3c0,26.9,76.4,48.8,170.7,48.8c94.3,0,170.7-21.8,170.7-48.8
			v-10.3C426.7,450.9,337.9,412.5,256,412.5z"/>
	</g>
	<g>
		<ellipse fill="#2E89AC" cx="256" cy="450.9" rx="170.7" ry="48.8"/>
	</g>
	<g>
		<path fill="#41B3E2" d="M87.9,326.9V447c0,24.2,75.2,46.8,168.1,46.8c92.8,0,168.1-22.6,168.1-46.8V326.9H87.9z"/>
	</g>
	<g>
		<path fill="#56CBEF" d="M118.5,473.2c15.1,6,35.1,11.2,58.4,14.8V326.9h-58.4V473.2z"/>
	</g>
	<g>
		<path fill="#1B738E" d="M256,279.1c-81.9,0-170.7,38.4-170.7,38.4v10.3c0,26.9,76.4,48.8,170.7,48.8c94.3,0,170.7-21.8,170.7-48.8
			v-10.3C426.7,317.5,337.9,279.1,256,279.1z"/>
	</g>
	<g>
		<ellipse fill="#2E89AC" cx="256" cy="317.5" rx="170.7" ry="48.8"/>
	</g>
	<g>
		<path fill="#41B3E2" d="M87.9,193.9V314c0,24.2,75.2,46.8,168.1,46.8c92.8,0,168.1-22.6,168.1-46.8V193.9H87.9z"/>
	</g>
	<g>
		<path fill="#56CBEF" d="M118.5,340.2c15.1,6,35.1,11.2,58.4,14.8V193.9h-58.4V340.2z"/>
	</g>
	<g>
		<path fill="#1B738E" d="M256,145.7c-81.9,0-170.7,38.4-170.7,38.4v10.3c0,26.9,76.4,48.8,170.7,48.8c94.3,0,170.7-21.8,170.7-48.8
			v-10.3C426.7,184.1,337.9,145.7,256,145.7z"/>
	</g>
	<g>
		<ellipse fill="#2E89AC" cx="256" cy="184.1" rx="170.7" ry="48.8"/>
	</g>
	<g>
		<path fill="#41B3E2" d="M87.9,61.1v120.1c0,24.2,75.2,46.8,168.1,46.8c92.8,0,168.1-22.6,168.1-46.8V61.1H87.9z"/>
	</g>
	<g>
		<path fill="#56CBEF" d="M118.5,207.4c15.1,6,35.1,11.2,58.4,14.8V61.1h-58.4V207.4z"/>
	</g>
	<g>
		<path fill="#1B738E" d="M256,12.3c-81.9,0-170.7,38.4-170.7,38.4v10.3c0,26.9,76.4,48.8,170.7,48.8c94.3,0,170.7-21.8,170.7-48.8
			V50.8C426.7,50.8,337.9,12.3,256,12.3z"/>
	</g>
	<g>
		<ellipse fill="#2E89AC" cx="256" cy="50.8" rx="170.7" ry="48.8"/>
	</g>
	<g>
		<ellipse fill="#41B3E2" cx="256" cy="50.8" rx="147.8" ry="42.2"/>
	</g>
	<g>
		<ellipse fill="#445C6C" cx="158.7" cy="50.8" rx="25.4" ry="9.9"/>
	</g>
	<g>
		<path fill="#304856" d="M145.3,57c0-5.5,11.4-9.9,25.4-9.9c4.7,0,9,0.5,12.7,1.4c-2.6-4.4-12.6-7.6-24.6-7.6
			c-14,0-25.4,4.4-25.4,9.9c0,3.7,5.1,6.8,12.6,8.5C145.6,58.6,145.3,57.8,145.3,57z"/>
	</g>
</g>
</svg>
