<?xml version="1.0" encoding="utf-8"?>
<!-- Generator: Adobe Illustrator 18.0.0, SVG Export Plug-In . SVG Version: 6.00 Build 0)  -->
<!DOCTYPE svg PUBLIC "-//W3C//DTD SVG 1.1//EN" "http://www.w3.org/Graphics/SVG/1.1/DTD/svg11.dtd">
<svg version="1.1" id="Layer_1" xmlns="http://www.w3.org/2000/svg" xmlns:xlink="http://www.w3.org/1999/xlink" x="0px" y="0px"
	 viewBox="0 0 512 512" enable-background="new 0 0 512 512" xml:space="preserve">
<g>
	<g>
		<path fill="#DBDFE0" d="M418.4,2H282.5c-7.8,0-15,3.7-19.5,10.1l-37.3,52.3c-4.5,6.3-11.8,10.1-19.5,10.1H93.6
			c-13.2,0-24,10.7-24,24V486c0,13.2,10.7,24,24,24h324.8c13.2,0,24-10.7,24-24V26C442.4,12.7,431.6,2,418.4,2z M407.2,71.6
			c0,3.2-2.6,5.8-5.8,5.8H280.9c-4.8,0-7.5-5.4-4.6-9.3l24.4-32.3c1.1-1.4,2.8-2.3,4.6-2.3h96.1c3.2,0,5.8,2.6,5.8,5.8V71.6z"/>
	</g>
	<g>
		<rect x="101.2" y="63.5" fill="#445C6C" width="81.1" height="10.9"/>
	</g>
	<g>
		<rect x="101.2" y="63.5" fill="#2E434F" width="81.1" height="4.6"/>
	</g>
	<g>
		<path fill="#F1786B" d="M182.7,14.7h-81.8c-5.7,0-10.3,4.6-10.3,10.3v38.5H193V25.1C193,19.4,188.4,14.7,182.7,14.7z"/>
	</g>
	<g>
		<path fill="#FC8E86" d="M182.7,14.7h-81.8c-5.7,0-10.3,4.6-10.3,10.3v4c0-5.7,4.6-10.3,10.3-10.3h81.8c5.7,0,10.3,4.6,10.3,10.3
			v-4C193,19.4,188.4,14.7,182.7,14.7z"/>
	</g>
	<g>
		<g>
			<rect x="97.6" y="27.1" fill="#D45947" width="9.3" height="36.5"/>
		</g>
		<g>
			<rect x="117.4" y="27.1" fill="#D45947" width="9.3" height="36.5"/>
		</g>
		<g>
			<rect x="137.1" y="27.1" fill="#D45947" width="9.3" height="36.5"/>
		</g>
		<g>
			<rect x="156.8" y="27.1" fill="#D45947" width="9.3" height="36.5"/>
		</g>
		<g>
			<rect x="176.6" y="27.1" fill="#D45947" width="9.3" height="36.5"/>
		</g>
	</g>
	<g>
		<path fill="#5AC8AE" d="M374.8,144H137.2c-5.4,0-9.8,4.4-9.8,9.8V435c0,5.4,4.4,9.8,9.8,9.8h237.6c5.4,0,9.8-4.4,9.8-9.8V153.9
			C384.6,148.4,380.2,144,374.8,144z"/>
	</g>
	<g>
		<path fill="#FFFFFF" d="M340.3,262.2L340.3,262.2c-41.6-5.4-73.7,16.1-82.9,51v-40.7h-0.1c-0.4-46.7-36.3-78-85.6-71.7l0,0
			c-6.5,50.1,26,86.5,73.9,85.7v102.3h11.8v-41.6C310.2,353,347.2,315.4,340.3,262.2z M251.9,281.1c-20.7-11.4-46.8-37.5-58.2-58.2
			v0l0,0v0C214.4,234.3,240.5,260.4,251.9,281.1L251.9,281.1z M260,342.5L260,342.5c11.4-20.7,37.5-46.8,58.2-58.2
			C306.8,305,280.7,331.1,260,342.5z"/>
	</g>
</g>
</svg>
