<?xml version="1.0" encoding="utf-8"?>
<!-- Generator: Adobe Illustrator 18.0.0, SVG Export Plug-In . SVG Version: 6.00 Build 0)  -->
<!DOCTYPE svg PUBLIC "-//W3C//DTD SVG 1.1//EN" "http://www.w3.org/Graphics/SVG/1.1/DTD/svg11.dtd">
<svg version="1.1" id="Layer_1" xmlns="http://www.w3.org/2000/svg" xmlns:xlink="http://www.w3.org/1999/xlink" x="0px" y="0px"
	 viewBox="0 0 512 512" enable-background="new 0 0 512 512" xml:space="preserve">
<g>
	<g>
		<g>
			<g>
				<path fill="#DBDFE0" d="M291.1,365.9c-13.4,0-24.2-10.8-24.2-24.2v-76.6c0-42,30.7-66.4,48.9-74.2c12.3-5.3,26.5,0.4,31.8,12.7
					c5.2,12.2-0.3,26.3-12.4,31.7c-2.2,1-19.9,9.9-19.9,29.8v76.6C315.3,355,304.5,365.9,291.1,365.9z"/>
			</g>
		</g>
		<g>
			<g>
				<path fill="#DBDFE0" d="M220.9,365.9c13.4,0,24.2-10.8,24.2-24.2v-76.6c0-42-30.7-66.4-48.9-74.2c-12.3-5.3-26.5,0.4-31.8,12.7
					c-5.2,12.2,0.3,26.3,12.4,31.7c2.2,1,19.9,9.9,19.9,29.8v76.6C196.7,355,207.5,365.9,220.9,365.9z"/>
			</g>
		</g>
	</g>
	<g>
		<path fill="#EFF3F5" d="M343.6,286.3H168.4c-3.4,0-6.2,2.8-6.2,6.2v84.1c0,14.4,11.7,26.1,26.1,26.1h135.4
			c14.4,0,26.1-11.7,26.1-26.1v-84.1C349.8,289.1,347,286.3,343.6,286.3z"/>
	</g>
	<g>
		<path fill="#DBDFE0" d="M191.7,402.8v42.9c0,35.5,28.8,64.3,64.3,64.3s64.3-28.8,64.3-64.3v-42.9H191.7z"/>
	</g>
	<g>
		<path fill="#788D9A" d="M320.7,410.2H191.3c-3.4,0-6.2,2.8-6.2,6.2c0,3.4,2.8,6.2,6.2,6.2h129.4c3.4,0,6.2-2.8,6.2-6.2
			C326.9,413,324.1,410.2,320.7,410.2z"/>
	</g>
	<g>
		<path fill="#788D9A" d="M320.7,431.5H191.3c-3.4,0-6.2,2.8-6.2,6.2c0,3.4,2.8,6.2,6.2,6.2h129.4c3.4,0,6.2-2.8,6.2-6.2
			C326.9,434.3,324.1,431.5,320.7,431.5z"/>
	</g>
	<g>
		<path fill="#788D9A" d="M320.7,452.8H191.3c-3.4,0-6.2,2.8-6.2,6.2c0,3.4,2.8,6.2,6.2,6.2h129.4c3.4,0,6.2-2.8,6.2-6.2
			C326.9,455.6,324.1,452.8,320.7,452.8z"/>
	</g>
	<g>
		<g>
			<path fill="#EFF3F5" d="M358,65.4L358,65.4c-5.3-13.2-20.2-19.7-33.5-14.4l-156.1,62.1c-13.2,5.3-19.7,20.2-14.4,33.4
				c5.3,13.2,20.2,19.7,33.5,14.4l156.1-62.1C356.8,93.6,363.2,78.6,358,65.4z"/>
		</g>
		<g>
			<path fill="#EFF3F5" d="M289.5,18.2L289.5,18.2C284.2,5,269.2-1.4,256,3.8l-87.6,33.8c-13.2,5.3-19.7,20.2-14.4,33.4
				c5.3,13.2,20.2,19.7,33.5,14.4l87.6-33.8C288.3,46.4,294.7,31.5,289.5,18.2z"/>
		</g>
		<g>
			<path fill="#EFF3F5" d="M358,137.9L358,137.9c-5.3-13.2-20.2-19.7-33.5-14.4l-156.1,62.1c-13.2,5.3-19.7,20.2-14.4,33.4
				c5.3,13.2,20.2,19.7,33.5,14.4l156.1-62.1C356.8,166.1,363.2,151.1,358,137.9z"/>
		</g>
	</g>
</g>
</svg>
