<?xml version="1.0" encoding="utf-8"?>
<!-- Generator: Adobe Illustrator 18.0.0, SVG Export Plug-In . SVG Version: 6.00 Build 0)  -->
<!DOCTYPE svg PUBLIC "-//W3C//DTD SVG 1.1//EN" "http://www.w3.org/Graphics/SVG/1.1/DTD/svg11.dtd">
<svg version="1.1" id="Layer_1" xmlns="http://www.w3.org/2000/svg" xmlns:xlink="http://www.w3.org/1999/xlink" x="0px" y="0px"
	 viewBox="0 0 512 512" enable-background="new 0 0 512 512" xml:space="preserve">
<g>
	<g>
		<path fill="#788D9A" d="M256,2C115.7,2,2,115.7,2,256c0,140.3,113.7,254,254,254c140.3,0,254-113.7,254-254
			C510,115.7,396.3,2,256,2z M256,485.7C129.1,485.7,26.3,382.8,26.3,256S129.1,26.3,256,26.3c126.9,0,229.7,102.8,229.7,229.7
			S382.9,485.7,256,485.7z"/>
	</g>
	<g>
		<circle fill="#41B3E2" cx="256" cy="256" r="39"/>
	</g>
	<g>
		<path fill="#F1786B" d="M458.2,256H317.7c0,25.8-15.9,47.9-38.5,57.1l71.5,121.6C414.6,400.7,458.2,333.5,458.2,256z"/>
	</g>
	<g>
		<path fill="#F1786B" d="M194.3,256H53.8c0,77.5,43.6,144.7,107.5,178.7l71.5-121.6C210.3,303.9,194.3,281.8,194.3,256z"/>
	</g>
	<g>
		<path fill="#F1786B" d="M256,194.3c14.6,0,28,5.1,38.6,13.6L366,86.4C334.4,65.8,296.6,53.8,256,53.8c-40.6,0-78.4,12-110,32.6
			L217.4,208C228,199.5,241.4,194.3,256,194.3z"/>
	</g>
</g>
</svg>
