<?xml version="1.0" encoding="utf-8"?>
<!-- Generator: Adobe Illustrator 18.0.0, SVG Export Plug-In . SVG Version: 6.00 Build 0)  -->
<!DOCTYPE svg PUBLIC "-//W3C//DTD SVG 1.1//EN" "http://www.w3.org/Graphics/SVG/1.1/DTD/svg11.dtd">
<svg version="1.1" id="Layer_1" xmlns="http://www.w3.org/2000/svg" xmlns:xlink="http://www.w3.org/1999/xlink" x="0px" y="0px"
	 viewBox="0 0 512 512" enable-background="new 0 0 512 512" xml:space="preserve">
<g>
	<g>
		<g>
			<path fill="#EFF3F5" d="M9.3,270.9c-4,0-7.3,3.3-7.3,7.3c0,4,3.3,7.3,7.3,7.3h44.9v-14.7H9.3z"/>
		</g>
		<g>
			<path fill="#EFF3F5" d="M9.3,307.9c-4,0-7.3,3.3-7.3,7.3s3.3,7.3,7.3,7.3h44.9v-14.7H9.3z"/>
		</g>
	</g>
	<g>
		<g>
			<path fill="#C6C6C6" d="M399.6,287.3h-151V132.6h-17.7v154.7h-90.5V305h90.5v94.7c0,60.9,49.5,110.4,110.4,110.4h58.3
				c60.8,0,110.4-49.5,110.4-110.4S460.5,287.3,399.6,287.3z M399.6,492.3h-58.3c-51.1,0-92.7-41.6-92.7-92.7V305h151
				c51.1,0,92.7,43.5,92.7,94.7S450.7,492.3,399.6,492.3z"/>
		</g>
	</g>
	<g>
		<rect x="221.1" y="2" fill="#EFF3F5" width="37.4" height="37.4"/>
	</g>
	<g>
		<path fill="#DBDFE0" d="M209.8,39.4v69.8c0,16.5,13.4,29.9,29.9,29.9c16.5,0,29.9-13.4,29.9-29.9V39.4H209.8z"/>
	</g>
	<g>
		<g>
			<path fill="#C6C6C6" d="M253,77.6h-26.5c-2.3,0-4.2,1.9-4.2,4.2c0,2.3,1.9,4.2,4.2,4.2H253c2.3,0,4.2-1.9,4.2-4.2
				C257.2,79.5,255.3,77.6,253,77.6z"/>
		</g>
		<g>
			<path fill="#C6C6C6" d="M253,91.3h-26.5c-2.3,0-4.2,1.9-4.2,4.2c0,2.3,1.9,4.2,4.2,4.2H253c2.3,0,4.2-1.9,4.2-4.2
				C257.2,93.1,255.3,91.3,253,91.3z"/>
		</g>
		<g>
			<path fill="#C6C6C6" d="M253,104.9h-26.5c-2.3,0-4.2,1.9-4.2,4.2c0,2.3,1.9,4.2,4.2,4.2H253c2.3,0,4.2-1.9,4.2-4.2
				C257.2,106.8,255.3,104.9,253,104.9z"/>
		</g>
	</g>
	<g>
		<path fill="#788D9A" d="M60,256c-3.2,0-5.8,2.6-5.8,5.8v69.9c0,3.2,2.6,5.8,5.8,5.8s5.8-2.6,5.8-5.8v-69.9
			C65.8,258.6,63.2,256,60,256z"/>
	</g>
	<g>
		<rect x="65.8" y="264.9" fill="#DBDFE0" width="60.5" height="63.7"/>
	</g>
	<g>
		<polygon fill="#EFF3F5" points="143.6,312 126.2,328.6 126.2,264.9 143.6,281.5 		"/>
	</g>
	<g>
		<rect x="230.9" y="305" fill="#A7A8A8" width="17.7" height="11.4"/>
	</g>
</g>
</svg>
