<?xml version="1.0" encoding="utf-8"?>
<!-- Generator: Adobe Illustrator 18.0.0, SVG Export Plug-In . SVG Version: 6.00 Build 0)  -->
<!DOCTYPE svg PUBLIC "-//W3C//DTD SVG 1.1//EN" "http://www.w3.org/Graphics/SVG/1.1/DTD/svg11.dtd">
<svg version="1.1" id="Layer_1" xmlns="http://www.w3.org/2000/svg" xmlns:xlink="http://www.w3.org/1999/xlink" x="0px" y="0px"
	 viewBox="0 0 512 512" enable-background="new 0 0 512 512" xml:space="preserve">
<g>
	<g>
		<g>
			<g>
				<rect x="144.7" y="57.1" fill="#E39A61" width="19.2" height="20.5"/>
			</g>
		</g>
		<g>
			<g>
				<rect x="348.1" y="57.1" fill="#E39A61" width="19.2" height="20.5"/>
			</g>
		</g>
	</g>
	<g>
		<g>
			<g>
				<rect x="108.5" y="162.7" fill="#E39A61" width="19.2" height="27.8"/>
			</g>
		</g>
		<g>
			<g>
				<rect x="384.3" y="162.7" fill="#E39A61" width="19.2" height="27.8"/>
			</g>
		</g>
	</g>
	<g>
		<g>
			<polygon fill="#445C6C" points="237.4,26.1 233.9,13.7 139.6,40.3 139.6,63.5 236.4,63.5 236.4,50.7 152.4,50.7 152.4,50 			"/>
		</g>
		<g>
			<polygon fill="#445C6C" points="275.6,50.7 275.6,63.5 372.4,63.5 372.4,40.3 278.1,13.7 274.7,26.1 359.6,50 359.6,50.7 			"/>
		</g>
		<g>
			<polygon fill="#445C6C" points="234.7,118.4 231.3,106.1 100.4,141.5 100.4,169.1 229.4,169.1 229.4,156.3 113.2,156.3 
				113.2,151.3 			"/>
		</g>
		<g>
			<polygon fill="#445C6C" points="280.7,106.1 277.3,118.4 398.8,151.3 398.8,156.3 282.6,156.3 282.6,169.1 411.6,169.1 
				411.6,141.5 			"/>
		</g>
	</g>
	<g>
		<path fill="#788D9A" d="M379.8,454.5C269.6,291.1,281.4,9.9,281.5,7l0.2-5h-51.6l0.2,5c0.1,2.8,11.9,284.1-98.3,447.5l8,5.4
			c2.7-4,5.3-8.2,7.9-12.4c0.2-0.1,0.4-0.2,0.6-0.3L256,372l107.3,75.2c0.2,0.1,0.4,0.2,0.6,0.3c2.6,4.2,5.2,8.3,7.9,12.4
			L379.8,454.5z M262.6,206.1l19-20.1c2.1,15.6,4.5,31.7,7.5,48.1L262.6,206.1z M289.4,248.4L256,274l-33.4-25.6l33.4-35.3
			L289.4,248.4z M256,199.1l-21.6-22.8l21.6-24.5l21.6,24.5L256,199.1z M262.4,144.5l13.2-15c0.9,10.8,2,22,3.3,33.6L262.4,144.5z
			 M256,137.3l-17.2-19.5L256,93.7l17.2,24.1L256,137.3z M261.9,85.4l10.3-14.5c0.3,9.5,0.8,19.8,1.4,30.9L261.9,85.4z M256,77.1
			L242.4,58L256,40.8L269.6,58L256,77.1z M271.6,45l-9.5-12l9.5-12C271.5,27.3,271.5,35.4,271.6,45z M256,25.3l-10.8-13.7h21.7
			L256,25.3z M249.9,33.1l-9.5,12c0.1-9.7,0.1-17.7,0-24L249.9,33.1z M239.8,70.9l10.3,14.5l-11.7,16.5
			C239,90.8,239.5,80.5,239.8,70.9z M236.4,129.6l13.2,15l-16.4,18.7C234.4,151.6,235.5,140.4,236.4,129.6z M230.4,186l19,20.1
			l-26.5,28.1C225.8,217.7,228.3,201.6,230.4,186z M218.4,257.2l29.7,22.8l-43.3,33.3C210.1,294.6,214.5,275.8,218.4,257.2z
			 M256,286.1l50.4,38.7L256,360.2l-50.4-35.4L256,286.1z M263.9,280.1l29.7-22.8c3.9,18.6,8.3,37.4,13.6,56.1L263.9,280.1z
			 M159.4,428c16.3-30,29.3-62.5,39.7-95.9l48.5,34L159.4,428z M264.4,366.1l48.5-34c10.4,33.3,23.5,65.9,39.7,95.9L264.4,366.1z"/>
	</g>
	<g>
		<g>
			<polygon fill="#DBDFE0" points="433.7,510 78.3,510 101.8,450.4 410.2,450.4 			"/>
		</g>
		<g>
			<polygon fill="#788D9A" points="433.7,510 78.3,510 93.8,470.7 418.2,470.7 			"/>
		</g>
	</g>
</g>
</svg>
