<?xml version="1.0" encoding="utf-8"?>
<!-- Generator: Adobe Illustrator 18.0.0, SVG Export Plug-In . SVG Version: 6.00 Build 0)  -->
<!DOCTYPE svg PUBLIC "-//W3C//DTD SVG 1.1//EN" "http://www.w3.org/Graphics/SVG/1.1/DTD/svg11.dtd">
<svg version="1.1" id="Layer_1" xmlns="http://www.w3.org/2000/svg" xmlns:xlink="http://www.w3.org/1999/xlink" x="0px" y="0px"
	 viewBox="0 0 512 512" enable-background="new 0 0 512 512" xml:space="preserve">
<g>
	<g>
		
			<rect x="27.6" y="410.9" transform="matrix(0.7071 0.7071 -0.7071 0.7071 333.3331 80.6601)" fill="#52AFA8" width="83.4" height="63.5"/>
	</g>
	<g>
		
			<rect x="401" y="37.5" transform="matrix(0.7071 0.7071 -0.7071 0.7071 178.667 -292.7374)" fill="#52AFA8" width="83.4" height="63.5"/>
	</g>
	<g>
		
			<rect x="419.7" y="45.3" transform="matrix(0.7071 0.7071 -0.7071 0.7071 170.9295 -311.4172)" fill="#5AC8AE" width="83.4" height="10.7"/>
	</g>
	<g>
		
			<rect x="192.4" y="180.6" transform="matrix(0.7071 -0.7071 0.7071 0.7071 -155.4245 235.5411)" fill="#52AFA8" width="28.4" height="249.5"/>
	</g>
	<g>
		<path fill="#5AC8AE" d="M63.7,294.2c-42.6,42.6-42.6,111.6,0,154.1c42.6,42.6,111.6,42.6,154.1,0l55.8-55.8L119.5,238.4
			L63.7,294.2z"/>
	</g>
	<g>
		<path fill="#73D8BE" d="M90.8,421.2c-27.5-27.5-27.5-72.3,0-99.8l28.7-28.7l99.8,99.8l-28.7,28.7
			C163.1,448.7,118.4,448.7,90.8,421.2z"/>
	</g>
	<g>
		<path fill="#5AC8AE" d="M448.3,63.7c-42.6-42.6-111.6-42.6-154.1,0l-55.8,55.8l154.1,154.1l55.8-55.8
			C490.9,175.2,490.9,106.2,448.3,63.7z"/>
	</g>
	<g>
		<path fill="#73D8BE" d="M448.3,63.7c-42.6-42.6-111.6-42.6-154.1,0l-8.3,8.3c42.6-42.6,111.6-42.6,154.1,0
			c42.6,42.6,42.6,111.6,0,154.1l8.3-8.3C490.9,175.2,490.9,106.2,448.3,63.7z"/>
	</g>
	<g>
		
			<rect x="291.2" y="81.8" transform="matrix(0.7071 -0.7071 0.7071 0.7071 -56.6525 276.459)" fill="#52AFA8" width="28.4" height="249.5"/>
	</g>
	<g>
		
			<rect x="12.4" y="458.6" transform="matrix(0.7071 0.7071 -0.7071 0.7071 349.2098 118.9898)" fill="#788D9A" width="37.1" height="44.9"/>
	</g>
	<g>
		
			<rect x="22.1" y="462.6" transform="matrix(0.7071 0.7071 -0.7071 0.7071 345.1941 109.295)" fill="#445C6C" width="37.1" height="17.5"/>
	</g>
	<g>
		
			<rect x="462.5" y="8.5" transform="matrix(0.7071 0.7071 -0.7071 0.7071 162.7903 -331.0671)" fill="#788D9A" width="37.1" height="44.9"/>
	</g>
	<g>
		<path fill="#73D8BE" d="M421.2,90.8c27.5,27.5,27.5,72.3,0,99.8l-28.7,28.7l-99.8-99.8l28.7-28.7
			C348.9,63.3,393.6,63.3,421.2,90.8z"/>
	</g>
	<g>
		<g>
			<path fill="#DBDFE0" d="M234.7,186.7c-6.5-6.5-17.1-6.5-23.6,0l-51.5,51.5l23.6,23.6l51.5-51.5
				C241.2,203.8,241.2,193.2,234.7,186.7z"/>
		</g>
		<g>
			<path fill="#DBDFE0" d="M325.3,277.3c-6.5-6.5-17.1-6.5-23.6,0l-51.5,51.5l23.6,23.6l51.5-51.5
				C331.8,294.4,331.8,283.8,325.3,277.3z"/>
		</g>
	</g>
</g>
</svg>
