<?xml version="1.0" encoding="utf-8"?>
<!-- Generator: Adobe Illustrator 18.0.0, SVG Export Plug-In . SVG Version: 6.00 Build 0)  -->
<!DOCTYPE svg PUBLIC "-//W3C//DTD SVG 1.1//EN" "http://www.w3.org/Graphics/SVG/1.1/DTD/svg11.dtd">
<svg version="1.1" id="Layer_1" xmlns="http://www.w3.org/2000/svg" xmlns:xlink="http://www.w3.org/1999/xlink" x="0px" y="0px"
	 viewBox="0 0 512 512" enable-background="new 0 0 512 512" xml:space="preserve">
<g>
	<g>
		<g>
			<path fill="#788D9A" d="M481.2,255.1v111c0,31.4-25.5,56.9-56.9,56.9s-56.9-25.5-56.9-56.9V152c0-21.1-17.2-38.3-38.3-38.3h-24.4
				v22.1h24.4c8.9,0,16.2,7.3,16.2,16.2v214.1c0,43.6,35.4,79,79,79s79-35.4,79-79v-111H481.2z"/>
		</g>
	</g>
	<g>
		<path fill="#788D9A" d="M319,457.2H18.2c-8.9,0-16.2,7.2-16.2,16.2V510h333.2v-36.6C335.2,464.5,327.9,457.2,319,457.2z"/>
	</g>
	<g>
		<path fill="#8FA1AA" d="M319,457.2H18.2c-8.9,0-16.2,7.2-16.2,16.2v13.3c0-8.9,7.2-16.2,16.2-16.2H319c8.9,0,16.2,7.2,16.2,16.2
			v-13.3C335.2,464.5,327.9,457.2,319,457.2z"/>
	</g>
	<g>
		<path fill="#DBDFE0" d="M286.9,2H50.3C39.1,2,30,11.1,30,22.2v435h277.1v-435C307.1,11.1,298.1,2,286.9,2z"/>
	</g>
	<g>
		<path fill="#EFEFEF" d="M286.9,2H50.3C39.1,2,30,11.1,30,22.2v15C30,26.1,39.1,17,50.3,17h236.6c11.2,0,20.2,9.1,20.2,20.2v-15
			C307.1,11.1,298.1,2,286.9,2z"/>
	</g>
	<g>
		<rect x="69.2" y="51.6" fill="#41B3E2" width="198.7" height="153.7"/>
	</g>
	<g>
		<rect x="69.2" y="189.6" fill="#57CEF2" width="198.7" height="15.7"/>
	</g>
	<g>
		<g>
			<g>
				<path fill="#788D9A" d="M471.9,139.4c-27.4-66.5-89-86.3-89.6-86.5l8.2-26.4c3,0.9,74.7,24,107,102.4L471.9,139.4z"/>
			</g>
		</g>
		<g>
			<path fill="#F1786B" d="M499.2,109l-39.3-46.8l-29.6,27.6l8,15.4c-12.2,0-22.2,9.9-22.2,22.2V148v13.1v41.1c0,13.2,10.7,24,24,24
				h32.6V256H510V138.8C510,127.9,506.2,117.4,499.2,109z M440.1,204c-1,0-1.8-0.8-1.8-1.8v-41.1h34.4V204H440.1z"/>
		</g>
	</g>
	<g>
		<path fill="#445C6C" d="M315.7,102.3h-8.6v45.4h8.6c1.8,0,3.2-1.4,3.2-3.2v-39C318.9,103.8,317.5,102.3,315.7,102.3z"/>
	</g>
</g>
</svg>
