<?xml version="1.0" encoding="utf-8"?>
<!-- Generator: Adobe Illustrator 18.0.0, SVG Export Plug-In . SVG Version: 6.00 Build 0)  -->
<!DOCTYPE svg PUBLIC "-//W3C//DTD SVG 1.1//EN" "http://www.w3.org/Graphics/SVG/1.1/DTD/svg11.dtd">
<svg version="1.1" id="Layer_1" xmlns="http://www.w3.org/2000/svg" xmlns:xlink="http://www.w3.org/1999/xlink" x="0px" y="0px"
	 viewBox="0 0 512 512" enable-background="new 0 0 512 512" xml:space="preserve">
<g>
	<g>
		<path fill="#41B3E2" d="M176.4,132L12,296.4c-13.4,13.4-13.4,35.1,0,48.5l155,155c13.4,13.4,35.1,13.4,48.5,0L380,335.6L176.4,132
			z"/>
	</g>
	<g>
		<path fill="#379FC8" d="M188.2,72.6l-19.7,19.7c-8.8,8.8-8.8,23,0,31.8l219.4,219.4c8.8,8.8,23,8.8,31.8,0l19.7-19.7L188.2,72.6z"
			/>
	</g>
	<g>
		
			<rect x="130.2" y="195.7" transform="matrix(0.7071 0.7071 -0.7071 0.7071 234.5385 -157.8513)" fill="#41B3E2" width="355.2" height="17"/>
	</g>
	<g>
		<g>
			<path fill="#DBDFE0" d="M375.4,9.4c-9.9-9.9-25.9-9.9-35.8,0L232.3,116.7l35.8,35.8L375.4,45.2C385.3,35.3,385.3,19.3,375.4,9.4z
				"/>
		</g>
		<g>
			<path fill="#DBDFE0" d="M502.6,136.6c-9.9-9.9-25.9-9.9-35.8,0L359.5,243.9l35.8,35.8l107.3-107.3
				C512.5,162.6,512.5,146.5,502.6,136.6z"/>
		</g>
	</g>
	<g>
		<path fill="#EFF3F5" d="M375.4,9.4c-9.9-9.9-25.9-9.9-35.8,0l-12.9,12.9c9.9-9.9,25.9-9.9,35.8,0c9.9,9.9,9.9,25.9,0,35.8
			l12.9-12.9C385.3,35.3,385.3,19.3,375.4,9.4z"/>
	</g>
	<g>
		<path fill="#EFF3F5" d="M502.6,136.6c-9.9-9.9-25.9-9.9-35.8,0l-12.9,12.9c9.9-9.9,25.9-9.9,35.8,0c9.9,9.9,9.9,25.9,0,35.8
			l12.9-12.9C512.5,162.6,512.5,146.5,502.6,136.6z"/>
	</g>
	<g>
		<g>
			
				<rect x="138.8" y="254.7" transform="matrix(0.7071 0.7071 -0.7071 0.7071 263.7719 -87.2745)" fill="#2E89AC" width="197" height="40.1"/>
		</g>
		<g>
			
				<rect x="87.7" y="305.7" transform="matrix(0.7071 0.7071 -0.7071 0.7071 284.9067 -36.2501)" fill="#2E89AC" width="197" height="40.1"/>
		</g>
		<g>
			
				<rect x="36.7" y="356.8" transform="matrix(0.7071 0.7071 -0.7071 0.7071 306.0415 14.7743)" fill="#2E89AC" width="197" height="40.1"/>
		</g>
	</g>
	<g>
		
			<rect x="42.8" y="413.4" transform="matrix(0.7071 0.7071 -0.7071 0.7071 334.0298 82.3448)" fill="#788D9A" width="49.7" height="62"/>
	</g>
	<g>
		
			<rect x="53.7" y="417.9" transform="matrix(0.7071 0.7071 -0.7071 0.7071 329.4875 71.3788)" fill="#445C6C" width="49.7" height="31"/>
	</g>
</g>
</svg>
