<?xml version="1.0" encoding="utf-8"?>
<!-- Generator: Adobe Illustrator 18.0.0, SVG Export Plug-In . SVG Version: 6.00 Build 0)  -->
<!DOCTYPE svg PUBLIC "-//W3C//DTD SVG 1.1//EN" "http://www.w3.org/Graphics/SVG/1.1/DTD/svg11.dtd">
<svg version="1.1" id="Layer_1" xmlns="http://www.w3.org/2000/svg" xmlns:xlink="http://www.w3.org/1999/xlink" x="0px" y="0px"
	 viewBox="0 0 512 512" enable-background="new 0 0 512 512" xml:space="preserve">
<g>
	<g>
		<path fill="#FDC77C" d="M333.1,178.9c42.6,42.6,42.6,111.6,0,154.2s-111.6,42.6-154.2,0s-42.6-111.6,0-154.2
			S290.5,136.3,333.1,178.9z"/>
	</g>
	<g>
		<path fill="#FBD984" d="M191,191c40.5-40.5,105-42.4,147.8-5.8c-1.8-2.2-3.7-4.3-5.8-6.4c-42.6-42.6-111.6-42.6-154.2,0
			c-42.6,42.6-42.6,111.6,0,154.2c2,2,4.2,3.9,6.4,5.8C148.6,296,150.5,231.6,191,191z"/>
	</g>
	<g>
		<path fill="#5AC8AE" d="M390.8,390.9c-63.5,63.5-160.4,72.7-233.8,28l25.4-25.4l-97.4,0l0,97.4l26.2-26.2
			c99,68.9,236.1,59.3,324.4-29c90.3-90.3,98.4-231.6,24.4-331.1L414.5,150C464.2,224.1,456.3,325.4,390.8,390.9z"/>
	</g>
	<g>
		<path fill="#F1786B" d="M121.2,121.1c63.5-63.5,160.4-72.7,233.8-28l-25.4,25.4l97.4,0l0-97.4l-26.2,26.2
			c-99-68.9-236.1-59.3-324.4,29C-13.9,166.6-22,307.9,52,407.4L97.5,362C47.8,287.9,55.7,186.6,121.2,121.1z"/>
	</g>
</g>
</svg>
