<?xml version="1.0" encoding="utf-8"?>
<!-- Generator: Adobe Illustrator 18.0.0, SVG Export Plug-In . SVG Version: 6.00 Build 0)  -->
<!DOCTYPE svg PUBLIC "-//W3C//DTD SVG 1.1//EN" "http://www.w3.org/Graphics/SVG/1.1/DTD/svg11.dtd">
<svg version="1.1" id="Layer_1" xmlns="http://www.w3.org/2000/svg" xmlns:xlink="http://www.w3.org/1999/xlink" x="0px" y="0px"
	 viewBox="0 0 512 512" enable-background="new 0 0 512 512" xml:space="preserve">
<g>
	<g>
		<path fill="#788D9A" d="M484.3,2H27.7C13.5,2,2,13.5,2,27.7v456.6C2,498.5,13.5,510,27.7,510h456.6c14.2,0,25.7-11.5,25.7-25.7
			V27.7C510,13.5,498.5,2,484.3,2z"/>
	</g>
	<g>
		<path fill="#8FA1AA" d="M484.3,2H27.7C13.5,2,2,13.5,2,27.7v10.4c0-14.2,11.5-25.7,25.7-25.7h456.6c14.2,0,25.7,11.5,25.7,25.7
			V27.7C510,13.5,498.5,2,484.3,2z"/>
	</g>
	<g>
		<path fill="#EFF3F5" d="M437.7,217.5C434.5,119.9,354.4,41.7,256,41.7c-98.4,0-178.5,78.2-181.7,175.8H437.7z"/>
	</g>
	<g>
		<polygon fill="#F1786B" points="277,217.5 256,100.3 235,217.5 		"/>
	</g>
	<g>
		<rect x="249.9" y="51.3" fill="#788D9A" width="12.3" height="33.3"/>
	</g>
	<g>
		
			<rect x="198.7" y="60.5" transform="matrix(0.9397 -0.342 0.342 0.9397 -14.0336 74.7206)" fill="#788D9A" width="12.3" height="33.3"/>
	</g>
	<g>
		
			<rect x="153.8" y="86.7" transform="matrix(0.766 -0.6428 0.6428 0.766 -28.9952 127.0054)" fill="#788D9A" width="12.3" height="33.3"/>
	</g>
	<g>
		<rect x="120.6" y="126.6" transform="matrix(0.5 -0.866 0.866 0.5 -60.7183 181.41)" fill="#788D9A" width="12.3" height="33.3"/>
	</g>
	<g>
		
			<rect x="103" y="175.5" transform="matrix(0.1736 -0.9848 0.9848 0.1736 -99.0501 266.3517)" fill="#788D9A" width="12.3" height="33.3"/>
	</g>
	<g>
		
			<rect x="397.7" y="174.3" transform="matrix(0.1736 0.9848 -0.9848 0.1736 521.7661 -240.0051)" fill="#788D9A" width="12.3" height="33.3"/>
	</g>
	<g>
		
			<rect x="379.8" y="125.5" transform="matrix(0.5 0.866 -0.866 0.5 316.0621 -263.131)" fill="#788D9A" width="12.3" height="33.3"/>
	</g>
	<g>
		
			<rect x="346.2" y="85.8" transform="matrix(0.766 0.6428 -0.6428 0.766 148.3102 -202.4964)" fill="#788D9A" width="12.3" height="33.3"/>
	</g>
	<g>
		
			<rect x="301.1" y="60.1" transform="matrix(0.9397 0.342 -0.342 0.9397 44.7623 -100.4478)" fill="#788D9A" width="12.3" height="33.3"/>
	</g>
	<g>
		<polygon fill="#FFFFFF" points="248.7,341.4 294.6,246.5 163.8,377.3 263.3,377.3 217.4,472.1 348.2,341.4 		"/>
	</g>
</g>
</svg>
