<?xml version="1.0" encoding="utf-8"?>
<!-- Generator: Adobe Illustrator 18.0.0, SVG Export Plug-In . SVG Version: 6.00 Build 0)  -->
<!DOCTYPE svg PUBLIC "-//W3C//DTD SVG 1.1//EN" "http://www.w3.org/Graphics/SVG/1.1/DTD/svg11.dtd">
<svg version="1.1" id="Layer_1" xmlns="http://www.w3.org/2000/svg" xmlns:xlink="http://www.w3.org/1999/xlink" x="0px" y="0px"
	 viewBox="0 0 512 512" enable-background="new 0 0 512 512" xml:space="preserve">
<g>
	<g>
		<g>
			<path fill="#41B3E2" d="M411.6,411.7c-71.7,71.7-180.4,83.2-264.4,35.3l20.1-20.1l-67.6,0l0,67.6l22.5-22.5
				c98,60.9,228.3,49,313.4-36.2c86.6-86.6,97.6-220.3,32.9-318.9l-24.8,24.8C495.4,226.4,484.8,338.4,411.6,411.7z"/>
		</g>
		<g>
			<path fill="#F1786B" d="M100.4,100.3c71.7-71.7,180.4-83.2,264.4-35.3l-20.1,20.1l67.6,0l0-67.6l-22.5,22.5
				c-98-60.9-228.3-49-313.4,36.2c-86.6,86.6-97.6,220.3-32.9,318.9l24.8-24.8C16.6,285.6,27.2,173.6,100.4,100.3z"/>
		</g>
	</g>
	<g>
		<path fill="#5AC8AE" d="M403.7,232.6L403.7,232.6c-72.9-9.4-129,28.3-145.2,89.4v-71.2h-0.2c-0.7-81.8-63.6-136.7-149.9-125.5l0,0
			c-11.4,87.8,45.5,151.5,129.5,150.1v179.2h20.6v-72.9C350.9,391.8,415.8,325.8,403.7,232.6z M248.8,265.8
			c-36.3-20-82-65.7-102-102v0l0,0v0C183.2,183.8,228.8,229.5,248.8,265.8L248.8,265.8z M263,373.4L263,373.4
			c20-36.3,65.6-82,102-102C345,307.7,299.3,353.4,263,373.4z"/>
	</g>
</g>
</svg>
