<?xml version="1.0" encoding="utf-8"?>
<!-- Generator: Adobe Illustrator 18.0.0, SVG Export Plug-In . SVG Version: 6.00 Build 0)  -->
<!DOCTYPE svg PUBLIC "-//W3C//DTD SVG 1.1//EN" "http://www.w3.org/Graphics/SVG/1.1/DTD/svg11.dtd">
<svg version="1.1" id="Layer_1" xmlns="http://www.w3.org/2000/svg" xmlns:xlink="http://www.w3.org/1999/xlink" x="0px" y="0px"
	 viewBox="0 0 512 512" enable-background="new 0 0 512 512" xml:space="preserve">
<g>
	<g>
		
			<rect x="113.9" y="137.8" transform="matrix(0.7071 -0.7071 0.7071 0.7071 -156.9031 234.9318)" fill="#5AC8AE" width="182.4" height="338.2"/>
	</g>
	<g>
		
			<rect x="250.9" y="81" transform="matrix(-0.7071 0.7071 -0.7071 -0.7071 623.8962 241.8574)" fill="#52AFA8" width="22" height="338.2"/>
	</g>
	<g>
		
			<rect x="93.1" y="212.3" transform="matrix(0.7071 0.7071 -0.7071 0.7071 245.2025 -132.1066)" fill="#5AC8AE" width="377.9" height="35.2"/>
	</g>
	<g>
		
			<rect x="100.5" y="215.4" transform="matrix(0.7071 0.7071 -0.7071 0.7071 242.14 -139.5005)" fill="#75D8BE" width="377.9" height="14.3"/>
	</g>
	<g>
		<polygon fill="#52AFA8" points="260.2,490.9 21.1,251.8 35.6,343.8 168.2,476.4 		"/>
	</g>
	<g>
		<path fill="#445C6C" d="M57.9,366.1l-15.1,15.1c-7.8,7.8-7.8,20.4,0,28.2l59.9,59.9c7.8,7.8,20.4,7.8,28.2,0l15.1-15.1L57.9,366.1
			z"/>
	</g>
	<g>
		
			<rect x="20.5" y="428.4" transform="matrix(0.7071 0.7071 -0.7071 0.7071 342.7488 103.3903)" fill="#DBDFE0" width="52.1" height="74"/>
	</g>
	<g>
		<g>
			<path fill="#DBDFE0" d="M367.4,10.4c-11.2-11.2-29.4-11.2-40.6,0L207.1,130.1l40.6,40.6L367.4,51.1
				C378.6,39.8,378.6,21.6,367.4,10.4z"/>
		</g>
		<g>
			<path fill="#DBDFE0" d="M501.6,144.6c-11.2-11.2-29.4-11.2-40.6,0L341.3,264.3l40.6,40.6l119.6-119.6
				C512.8,174,512.8,155.8,501.6,144.6z"/>
		</g>
	</g>
	<g>
		<polygon fill="#FFFFFF" points="209.9,295.7 272.1,274 156.4,274 200.4,318 138.2,339.7 253.9,339.7 		"/>
	</g>
</g>
</svg>
