<?xml version="1.0" encoding="utf-8"?>
<!-- Generator: Adobe Illustrator 18.0.0, SVG Export Plug-In . SVG Version: 6.00 Build 0)  -->
<!DOCTYPE svg PUBLIC "-//W3C//DTD SVG 1.1//EN" "http://www.w3.org/Graphics/SVG/1.1/DTD/svg11.dtd">
<svg version="1.1" id="Layer_1" xmlns="http://www.w3.org/2000/svg" xmlns:xlink="http://www.w3.org/1999/xlink" x="0px" y="0px"
	 viewBox="0 0 512 512" enable-background="new 0 0 512 512" xml:space="preserve">
<g>
	<g>
		<g>
			<path fill="#F1786B" d="M180.1,218.1c0,49.2-39.9,89-89,89s-89-39.9-89-89S41.9,2,91,2S180.1,168.9,180.1,218.1z"/>
		</g>
		<g>
			<path fill="#FBD984" d="M141.8,236.6c0,28-22.7,50.8-50.8,50.8s-50.8-22.7-50.8-50.8S63,113.4,91,113.4S141.8,208.6,141.8,236.6z
				"/>
		</g>
	</g>
	<g>
		<g>
			<path fill="#E39A61" d="M136.6,298.1l343.7,209.1c9.2,5.6,21.2,2.7,26.8-6.5s2.7-21.2-6.5-26.8L156.9,264.7L136.6,298.1z"/>
		</g>
		<g>
			<path fill="#445C6C" d="M119.5,203.8c24.6,15,55.8,61.3,40.8,85.9c-15,24.6-70.4,18.2-95.1,3.2c-24.6-15-32.4-47.1-17.5-71.7
				S94.9,188.8,119.5,203.8z"/>
		</g>
	</g>
</g>
</svg>
