<?xml version="1.0" encoding="utf-8"?>
<!-- Generator: Adobe Illustrator 18.0.0, SVG Export Plug-In . SVG Version: 6.00 Build 0)  -->
<!DOCTYPE svg PUBLIC "-//W3C//DTD SVG 1.1//EN" "http://www.w3.org/Graphics/SVG/1.1/DTD/svg11.dtd">
<svg version="1.1" id="Layer_1" xmlns="http://www.w3.org/2000/svg" xmlns:xlink="http://www.w3.org/1999/xlink" x="0px" y="0px"
	 viewBox="0 0 512 512" enable-background="new 0 0 512 512" xml:space="preserve">
<g>
	<g>
		<path fill="#41B3E2" d="M41.1,23.5v444.4c0,23.3,18.9,42.2,42.2,42.2h329.1c23.3,0,42.2-18.9,42.2-42.2V232.2
			c0-14-6.9-27-18.5-34.9l-137.6-93.5c-7-4.7-15.2-7.3-23.7-7.3H268V23.5C268,11.6,258.4,2,246.5,2h-184C50.7,2,41.1,11.6,41.1,23.5
			z M85.6,41.5h137.9v55.1H85.6V41.5z"/>
	</g>
	<g>
		<g>
			<rect x="85.6" y="96.6" fill="#54CAEF" width="137.9" height="11.7"/>
		</g>
		<g>
			<path fill="#54CAEF" d="M436,209.1l-137.6-93.5c-7-4.7-15.2-7.3-23.7-7.3H268V96.6h6.7c8.4,0,16.7,2.5,23.7,7.3L436,197.4
				c11.6,7.8,18.5,20.9,18.5,34.9V244C454.5,230,447.5,217,436,209.1z"/>
		</g>
		<g>
			<path fill="#54CAEF" d="M62.5,2h184c11.9,0,21.5,9.6,21.5,21.5v11.7c0-11.9-9.6-21.5-21.5-21.5h-184c-11.9,0-21.5,9.6-21.5,21.5
				V23.5C41.1,11.6,50.7,2,62.5,2z"/>
		</g>
	</g>
	<g>
		<polygon fill="#2E89AC" points="401.3,456.9 401.3,238.1 271.3,149.7 94.2,149.7 94.2,456.9 		"/>
	</g>
	<g>
		<g>
			
				<rect x="300.1" y="133.5" transform="matrix(-0.83 -0.5578 0.5578 -0.83 594.5932 466.0506)" fill="#445C6C" width="136.5" height="17.7"/>
		</g>
		<g>
			
				<rect x="302.6" y="134.3" transform="matrix(-0.83 -0.5578 0.5578 -0.83 601.1649 460.7021)" fill="#304551" width="136.5" height="8.9"/>
		</g>
		<g>
			<path fill="#F1786B" d="M333.8,53.1l130.3,87.6c7.1,4.8,9,14.4,4.2,21.5l-17,25.3l-156-104.9l17-25.3
				C317,50.2,326.7,48.3,333.8,53.1z"/>
		</g>
		<g>
			<g>
				
					<rect x="443.4" y="149.4" transform="matrix(0.83 0.5578 -0.5578 0.83 168.6529 -221.8083)" fill="#D45947" width="9.6" height="32.6"/>
			</g>
			<g>
				
					<rect x="426.9" y="138.4" transform="matrix(0.83 0.5578 -0.5578 0.83 159.6886 -214.5119)" fill="#D45947" width="9.6" height="32.6"/>
			</g>
			<g>
				
					<rect x="410.5" y="127.3" transform="matrix(0.83 0.5578 -0.5578 0.83 150.7247 -207.2157)" fill="#D45947" width="9.6" height="32.6"/>
			</g>
			<g>
				
					<rect x="394" y="116.3" transform="matrix(0.83 0.5578 -0.5578 0.83 141.7605 -199.9194)" fill="#D45947" width="9.6" height="32.6"/>
			</g>
			<g>
				
					<rect x="377.6" y="105.2" transform="matrix(0.83 0.5578 -0.5578 0.83 132.7963 -192.623)" fill="#D45947" width="9.6" height="32.6"/>
			</g>
			<g>
				
					<rect x="361.1" y="94.2" transform="matrix(0.83 0.5578 -0.5578 0.83 123.8324 -185.3268)" fill="#D45947" width="9.6" height="32.6"/>
			</g>
			<g>
				
					<rect x="344.7" y="83.1" transform="matrix(0.83 0.5578 -0.5578 0.83 114.8681 -178.0303)" fill="#D45947" width="9.6" height="32.6"/>
			</g>
			<g>
				
					<rect x="328.2" y="72" transform="matrix(0.83 0.5578 -0.5578 0.83 105.9041 -170.734)" fill="#D45947" width="9.6" height="32.6"/>
			</g>
			<g>
				
					<rect x="300.3" y="72.5" transform="matrix(0.5578 -0.83 0.83 0.5578 75.8238 296.9108)" fill="#D45947" width="32.6" height="9.6"/>
			</g>
		</g>
	</g>
	<g>
		<polygon fill="#41B3E2" points="132,217.8 144.5,205.2 238.9,299.6 333.3,205.2 345.8,217.8 251.4,312.2 345.8,406.5 333.3,419.1 
			238.9,324.7 144.5,419.1 132,406.5 226.4,312.2 		"/>
	</g>
</g>
</svg>
