<?xml version="1.0" encoding="utf-8"?>
<!-- Generator: Adobe Illustrator 18.0.0, SVG Export Plug-In . SVG Version: 6.00 Build 0)  -->
<!DOCTYPE svg PUBLIC "-//W3C//DTD SVG 1.1//EN" "http://www.w3.org/Graphics/SVG/1.1/DTD/svg11.dtd">
<svg version="1.1" id="Layer_1" xmlns="http://www.w3.org/2000/svg" xmlns:xlink="http://www.w3.org/1999/xlink" x="0px" y="0px"
	 viewBox="0 0 512 512" enable-background="new 0 0 512 512" xml:space="preserve">
<g>
	<g>
		<path fill="#41B3E2" d="M385.2,37.1H126.8c-10.4,0-18.8,8.4-18.8,18.8v435.3c0,10.4,8.4,18.8,18.8,18.8h258.3
			c10.4,0,18.8-8.4,18.8-18.8V55.9C404,45.5,395.6,37.1,385.2,37.1z"/>
	</g>
	<g>
		<path fill="#5BCCEF" d="M385.2,37.1H126.8c-10.4,0-18.8,8.4-18.8,18.8v8.6c0-10.4,8.4-18.8,18.8-18.8h258.3
			c10.4,0,18.8,8.4,18.8,18.8v-8.6C404,45.5,395.6,37.1,385.2,37.1z"/>
	</g>
	<g>
		<rect x="188.1" y="2" fill="#445C6C" width="135.8" height="35.1"/>
	</g>
	<g>
		<rect x="143.2" y="72.7" fill="#EFF3F5" width="225.5" height="401.7"/>
	</g>
	<g>
		<rect x="156.6" y="347.3" fill="#F1786B" width="198.8" height="114.7"/>
	</g>
	<g>
		<rect x="156.6" y="216.2" fill="#F1786B" width="198.8" height="114.7"/>
	</g>
	<g>
		<rect x="156.6" y="85.1" fill="#F1786B" width="198.8" height="114.7"/>
	</g>
	<g>
		<rect x="156.6" y="85.1" fill="#F98B82" width="198.8" height="16.4"/>
	</g>
	<g>
		<rect x="156.6" y="216.2" fill="#F98B82" width="198.8" height="16.4"/>
	</g>
	<g>
		<rect x="156.6" y="347.3" fill="#F98B82" width="198.8" height="16.4"/>
	</g>
</g>
</svg>
