<?xml version="1.0" encoding="utf-8"?>
<!-- Generator: Adobe Illustrator 18.0.0, SVG Export Plug-In . SVG Version: 6.00 Build 0)  -->
<!DOCTYPE svg PUBLIC "-//W3C//DTD SVG 1.1//EN" "http://www.w3.org/Graphics/SVG/1.1/DTD/svg11.dtd">
<svg version="1.1" id="Layer_1" xmlns="http://www.w3.org/2000/svg" xmlns:xlink="http://www.w3.org/1999/xlink" x="0px" y="0px"
	 viewBox="0 0 512 512" enable-background="new 0 0 512 512" xml:space="preserve">
<g>
	<g>
		<rect x="309.8" y="50.8" fill="#FDC77C" width="38.1" height="68.6"/>
	</g>
	<g>
		<rect x="309.8" y="50.8" fill="#F0B972" width="38.1" height="24.3"/>
	</g>
	<g>
		<path fill="#DBDFE0" d="M510,147.9H401.6c-17.4-20.8-43.5-34.1-72.7-34.1c-29.2,0-55.3,13.3-72.7,34.1h-39
			C109,147.9,21,236,21,344.2h112.1c0-46.4,37.7-84.1,84.1-84.1h32.4c16.9,25.9,46.1,43.1,79.3,43.1c33.3,0,62.5-17.2,79.3-43.1H510
			V147.9z"/>
	</g>
	<g>
		<path fill="#EFEFEF" d="M401.6,147.9c-17.4-20.8-43.5-34.1-72.7-34.1c-29.2,0-55.3,13.3-72.7,34.1h-39C109,147.9,21,236,21,344.2
			h0.6C28.8,242.5,113.7,162,217.2,162h39c17.4-20.8,43.5-34.1,72.7-34.1c29.2,0,55.3,13.3,72.7,34.1H510v-14.1H401.6z"/>
	</g>
	<g>
		<path fill="#FBD984" d="M428.4,2c-11.7,0-21.9,6.3-27.6,15.6H257C251.3,8.3,241.1,2,229.4,2c-17.8,0-32.2,14.4-32.2,32.2
			s14.4,32.2,32.2,32.2c11.7,0,21.9-6.3,27.6-15.6h143.9c5.6,9.3,15.9,15.6,27.6,15.6c17.8,0,32.2-14.4,32.2-32.2S446.2,2,428.4,2z"
			/>
	</g>
	<g>
		<path fill="#788D9A" d="M132.7,322.1H21.8C10.9,322.1,2,331,2,342v0.6c0,10.9,8.9,19.8,19.8,19.8h110.9c10.9,0,19.8-8.9,19.8-19.8
			V342C152.5,331,143.7,322.1,132.7,322.1z"/>
	</g>
	<g>
		<path fill="#8DA1AA" d="M132.7,322.1H21.8C10.9,322.1,2,331,2,342v0.6c0,1.5,0.2,2.9,0.5,4.2c1.9-8.9,9.9-15.6,19.3-15.6h110.9
			c9.5,0,17.4,6.7,19.3,15.6c0.3-1.4,0.5-2.8,0.5-4.2V342C152.5,331,143.7,322.1,132.7,322.1z"/>
	</g>
	<g>
		<path fill="#41B3E2" d="M124.5,462.7c0,26.1-21.2,47.3-47.3,47.3S30,488.8,30,462.7s47.3-83.2,47.3-83.2S124.5,436.6,124.5,462.7z
			"/>
	</g>
</g>
</svg>
