<?xml version="1.0" encoding="utf-8"?>
<!-- Generator: Adobe Illustrator 18.0.0, SVG Export Plug-In . SVG Version: 6.00 Build 0)  -->
<!DOCTYPE svg PUBLIC "-//W3C//DTD SVG 1.1//EN" "http://www.w3.org/Graphics/SVG/1.1/DTD/svg11.dtd">
<svg version="1.1" id="Layer_1" xmlns="http://www.w3.org/2000/svg" xmlns:xlink="http://www.w3.org/1999/xlink" x="0px" y="0px"
	 viewBox="0 0 512 512" enable-background="new 0 0 512 512" xml:space="preserve">
<g>
	<g>
		<path fill="#41B3E2" d="M510,302.1v-92.2l-57.8-10.1c-4.3-15.1-10.2-29.5-17.7-42.9l33.7-48L403,43.8l-48,33.7
			c-13.4-7.5-27.8-13.4-42.9-17.7L302.1,2h-92.2l-10.1,57.8c-15.1,4.3-29.5,10.2-42.9,17.7l-48-33.7L43.8,109l33.7,48
			c-7.5,13.4-13.4,27.8-17.7,42.9L2,209.9v92.2l57.8,10.1c4.3,15.1,10.2,29.5,17.7,42.9l-33.7,48l65.2,65.2l48-33.7
			c13.4,7.5,27.8,13.4,42.9,17.7l10.1,57.8l92.2,0l10.1-57.8c15.1-4.3,29.5-10.2,42.9-17.7l48,33.7l65.2-65.2l-33.7-48
			c7.5-13.4,13.4-27.8,17.7-42.9L510,302.1z M256,361c-58,0-105-47-105-105c0-58,47-105,105-105c58,0,105,47,105,105
			C361,314,314,361,256,361z"/>
	</g>
	<g>
		<g>
			<path fill="#379FC8" d="M256,76.4c-99.2,0-179.6,80.4-179.6,179.6c0,99.2,80.4,179.6,179.6,179.6S435.6,355.2,435.6,256
				C435.6,156.8,355.2,76.4,256,76.4z M256,389.6c-73.8,0-133.6-59.8-133.6-133.6c0-73.8,59.8-133.6,133.6-133.6
				S389.6,182.2,389.6,256C389.6,329.8,329.8,389.6,256,389.6z"/>
		</g>
	</g>
</g>
</svg>
