<?xml version="1.0" encoding="utf-8"?>
<!-- Generator: Adobe Illustrator 18.0.0, SVG Export Plug-In . SVG Version: 6.00 Build 0)  -->
<!DOCTYPE svg PUBLIC "-//W3C//DTD SVG 1.1//EN" "http://www.w3.org/Graphics/SVG/1.1/DTD/svg11.dtd">
<svg version="1.1" id="Layer_1" xmlns="http://www.w3.org/2000/svg" xmlns:xlink="http://www.w3.org/1999/xlink" x="0px" y="0px"
	 viewBox="0 0 512 512" enable-background="new 0 0 512 512" xml:space="preserve">
<g>
	<g>
		<path fill="#EFF3F5" d="M315.5,145.3V32.4H196.5v112.9c-74.2,24.9-127.8,94.8-127.8,177.4C68.8,426.2,152.6,510,256,510
			s187.2-83.8,187.2-187.2C443.2,240.1,389.7,170.2,315.5,145.3z"/>
	</g>
	<g>
		<path fill="#F1786B" d="M89.8,330.6c4.1,88.2,77,158.8,166.2,158.8s162.1-70.6,166.2-158.8H89.8z"/>
	</g>
	<g>
		<rect x="196.5" y="32.4" fill="#DBDFE0" width="118.9" height="27.7"/>
	</g>
	<g>
		<rect x="181.9" y="2" fill="#EFF3F5" width="148.3" height="30.4"/>
	</g>
	<g>
		<circle fill="#F1786B" cx="217.5" cy="270.1" r="20.9"/>
	</g>
	<g>
		<circle fill="#F1786B" cx="252.2" cy="187.4" r="13.8"/>
	</g>
	<g>
		<circle fill="#F1786B" cx="246.4" cy="98.7" r="8"/>
	</g>
	<g>
		<circle fill="#F1786B" cx="317.6" cy="247" r="16.7"/>
	</g>
	<g>
		<circle fill="#EFF3F5" cx="278.5" cy="387.9" r="22.5"/>
	</g>
	<g>
		<circle fill="#EFF3F5" cx="192" cy="384.4" r="10.2"/>
	</g>
	<g>
		<circle fill="#EFF3F5" cx="227.9" cy="442.8" r="10.5"/>
	</g>
</g>
</svg>
