<?xml version="1.0" encoding="utf-8"?>
<!-- Generator: Adobe Illustrator 18.0.0, SVG Export Plug-In . SVG Version: 6.00 Build 0)  -->
<!DOCTYPE svg PUBLIC "-//W3C//DTD SVG 1.1//EN" "http://www.w3.org/Graphics/SVG/1.1/DTD/svg11.dtd">
<svg version="1.1" id="Layer_1" xmlns="http://www.w3.org/2000/svg" xmlns:xlink="http://www.w3.org/1999/xlink" x="0px" y="0px"
	 viewBox="0 0 512 512" enable-background="new 0 0 512 512" xml:space="preserve">
<g>
	<g>
		<polygon fill="#445C6C" points="285.7,510 226.3,510 209.5,491.7 302.5,491.7 		"/>
	</g>
	<g>
		<path fill="#788D9A" d="M192,412.3v64.7c0,8.2,6.9,14.8,15.5,14.8h97c8.6,0,15.5-6.6,15.5-14.8v-64.7H192z"/>
	</g>
	<g>
		<g>
			<path fill="#DBDFE0" d="M322.4,429.1H189.6c-4.2,0-7.6,3.4-7.6,7.6c0,4.2,3.4,7.6,7.6,7.6h132.7c4.2,0,7.6-3.4,7.6-7.6
				C330,432.5,326.6,429.1,322.4,429.1z"/>
		</g>
		<g>
			<path fill="#DBDFE0" d="M322.4,459.6H189.6c-4.2,0-7.6,3.4-7.6,7.6s3.4,7.6,7.6,7.6h132.7c4.2,0,7.6-3.4,7.6-7.6
				S326.6,459.6,322.4,459.6z"/>
		</g>
	</g>
	<g>
		<path fill="#EFF3F5" d="M442.1,188.1C442.1,81,351.6-5,242.8,2.5C148.7,8.9,73.5,86.8,70,181c-2.6,69.4,32.9,130.7,87.1,164.8
			c21.8,13.7,34.8,37.7,34.8,63.4v3.1h128v-3.1c0-26.2,14-50,36-64.1C407.8,312,442.1,254.1,442.1,188.1z"/>
	</g>
	<g>
		<g>
			<path fill="#5AC8AE" d="M147.5,225.7L147.5,225.7c-10.5,61.6,29.3,103.7,89.5,96.6L168.9,247l75.2,68.2
				C251.2,255,209.1,215.2,147.5,225.7z"/>
		</g>
		<g>
			<path fill="#5AC8AE" d="M376.9,117.2L376.9,117.2c-74.4-12.6-126.9,30.9-127,99.8h0v195.2h12.4V243.4
				C339.6,251.5,390.4,196.8,376.9,117.2z M273,230.9c-2.7,3-7.3,3.1-10.1,0.3c-2.8-2.8-2.7-7.4,0.3-10.1l104.8-95L273,230.9z"/>
		</g>
	</g>
</g>
</svg>
