<?xml version="1.0" encoding="utf-8"?>
<!-- Generator: Adobe Illustrator 18.0.0, SVG Export Plug-In . SVG Version: 6.00 Build 0)  -->
<!DOCTYPE svg PUBLIC "-//W3C//DTD SVG 1.1//EN" "http://www.w3.org/Graphics/SVG/1.1/DTD/svg11.dtd">
<svg version="1.1" id="Layer_1" xmlns="http://www.w3.org/2000/svg" xmlns:xlink="http://www.w3.org/1999/xlink" x="0px" y="0px"
	 viewBox="0 0 512 512" enable-background="new 0 0 512 512" xml:space="preserve">
<g>
	<g>
		<g>
			<polygon fill="#445C6C" points="214.3,481.4 53.9,280.7 227.2,107.4 251.5,131.7 99.9,283.3 241.1,459.9 			"/>
		</g>
	</g>
	<g>
		<circle fill="#F1786B" cx="76.9" cy="280.1" r="42.5"/>
	</g>
	<g>
		<circle fill="#EFF3F5" cx="76.9" cy="280.1" r="20.9"/>
	</g>
	<g>
		<path fill="#FDC77C" d="M299.3,448.4H119.6C85.6,448.4,58,476,58,510h302.8C360.9,476,333.3,448.4,299.3,448.4z"/>
	</g>
	<g>
		
			<rect x="218.7" y="32.1" transform="matrix(0.7071 -0.7071 0.7071 0.7071 26.9905 221.02)" fill="#788D9A" width="123.1" height="91.6"/>
	</g>
	<g>
		<path fill="#EFF3F5" d="M477.6,92.4C426.8,45.1,347.3,46,297.8,95.5s-50.4,129-3.1,179.7L477.6,92.4z"/>
	</g>
	<g>
		
			<rect x="206.8" y="31.7" transform="matrix(0.7071 -0.7071 0.7071 0.7071 42.7863 182.8876)" fill="#DBDFE0" width="70.6" height="16.2"/>
	</g>
</g>
</svg>
