<?xml version="1.0" encoding="utf-8"?>
<!-- Generator: Adobe Illustrator 18.0.0, SVG Export Plug-In . SVG Version: 6.00 Build 0)  -->
<!DOCTYPE svg PUBLIC "-//W3C//DTD SVG 1.1//EN" "http://www.w3.org/Graphics/SVG/1.1/DTD/svg11.dtd">
<svg version="1.1" id="Layer_1" xmlns="http://www.w3.org/2000/svg" xmlns:xlink="http://www.w3.org/1999/xlink" x="0px" y="0px"
	 viewBox="0 0 512 512" enable-background="new 0 0 512 512" xml:space="preserve">
<g>
	<g>
		<g>
			<path fill="#788D9A" d="M470.3,415.1h-49.4v15.7h49.4c4.2,0,7.6-3.5,7.6-7.8C477.9,418.6,474.5,415.1,470.3,415.1z"/>
		</g>
		<g>
			<path fill="#788D9A" d="M470.3,477.2h-49.4v15.7h49.4c4.2,0,7.6-3.5,7.6-7.8C477.9,480.7,474.5,477.2,470.3,477.2z"/>
		</g>
	</g>
	<g>
		<g>
			<path fill="#788D9A" d="M332.8,464h-203c-42.7,0-77.4-35.6-77.4-79.4V244.5h19.5v140.1c0,32.8,26,59.4,57.9,59.4h203V464z"/>
		</g>
	</g>
	<g>
		<g>
			<path fill="#DBDFE0" d="M495.1,2H16.9C8.7,2,2,8.8,2,17.3v220.3c0,8.4,6.7,15.3,14.9,15.3h478.2c8.2,0,14.9-6.8,14.9-15.3V17.3
				C510,8.8,503.3,2,495.1,2z"/>
		</g>
		<g>
			<path fill="#EFF3F5" d="M495.1,2H16.9C8.7,2,2,8.8,2,17.3V27c0-8.4,6.7-15.3,14.9-15.3h478.2c8.2,0,14.9,6.8,14.9,15.3v-9.8
				C510,8.8,503.3,2,495.1,2z"/>
		</g>
		<g>
			<rect x="62.2" y="60.5" fill="#EFF3F5" width="387.6" height="133.8"/>
		</g>
		<g>
			<g>
				<g>
					<ellipse fill="#445C6C" cx="192.1" cy="94.7" rx="13.8" ry="14.2"/>
				</g>
				<g>
					<ellipse fill="#445C6C" cx="192.1" cy="160.2" rx="13.8" ry="14.2"/>
				</g>
			</g>
			<g>
				<g>
					<ellipse fill="#445C6C" cx="294" cy="94.7" rx="13.8" ry="14.2"/>
				</g>
				<g>
					<ellipse fill="#445C6C" cx="294" cy="160.2" rx="13.8" ry="14.2"/>
				</g>
			</g>
			<g>
				<g>
					<ellipse fill="#445C6C" cx="395.8" cy="94.7" rx="13.8" ry="14.2"/>
				</g>
				<g>
					<ellipse fill="#445C6C" cx="395.8" cy="160.2" rx="13.8" ry="14.2"/>
				</g>
			</g>
		</g>
		<g>
			<rect x="83.3" y="80.5" fill="#788D9A" width="55" height="93.8"/>
		</g>
		<g>
			<rect x="88.7" y="86.5" fill="#DBDFE0" width="44.2" height="81.8"/>
		</g>
		<g>
			<rect x="88.7" y="86.5" fill="#FFFFFF" width="44.2" height="14.7"/>
		</g>
	</g>
	<g>
		<path fill="#F1786B" d="M362.1,405.7c-12,0-21.7,10-21.7,22.3v52c0,12.3,9.7,22.3,21.7,22.3h47.5v-96.6H362.1z"/>
	</g>
	<g>
		<path fill="#D45947" d="M415.2,398c-3.1,0-5.6,2.6-5.6,5.8v100.5c0,3.2,2.5,5.8,5.6,5.8c3.1,0,5.6-2.6,5.6-5.8V403.7
			C420.9,400.5,418.3,398,415.2,398z"/>
	</g>
	<g>
		<path fill="#D45947" d="M340.3,429.1c-11.9,1.8-21.1,12.2-21.1,24.9s9.2,23.1,21.1,24.9V429.1z"/>
	</g>
	<g>
		<ellipse fill="#D45947" cx="375" cy="454" rx="15.2" ry="15.6"/>
	</g>
</g>
</svg>
