<?xml version="1.0" encoding="utf-8"?>
<!-- Generator: Adobe Illustrator 18.0.0, SVG Export Plug-In . SVG Version: 6.00 Build 0)  -->
<!DOCTYPE svg PUBLIC "-//W3C//DTD SVG 1.1//EN" "http://www.w3.org/Graphics/SVG/1.1/DTD/svg11.dtd">
<svg version="1.1" id="Layer_1" xmlns="http://www.w3.org/2000/svg" xmlns:xlink="http://www.w3.org/1999/xlink" x="0px" y="0px"
	 viewBox="0 0 512 512" enable-background="new 0 0 512 512" xml:space="preserve">
<g>
	<g>
		<g>
			<g>
				<path fill="#EFF3F5" d="M252.9,289.6h-26.4V43c0-8-6.5-14.5-14.5-14.5s-14.5,6.5-14.5,14.5v246.7H171V43c0-22.6,18.4-41,41-41
					s41,18.4,41,41V289.6z"/>
			</g>
		</g>
		<g>
			<g>
				<path fill="#EFF3F5" d="M341,289.6h-26.4V43c0-8-6.5-14.5-14.5-14.5s-14.5,6.5-14.5,14.5v246.7h-26.4V43c0-22.6,18.4-41,41-41
					c22.6,0,41,18.4,41,41V289.6z"/>
			</g>
		</g>
	</g>
	<g>
		<ellipse fill="#445C6C" cx="256" cy="479.3" rx="33.9" ry="30.7"/>
	</g>
	<g>
		<polygon fill="#DBDFE0" points="351,275.4 161,275.4 142.7,303.9 369.3,303.9 		"/>
	</g>
	<g>
		<path fill="#788D9A" d="M306.8,493.4H205.2c-1.6,0-2.8-1.3-2.8-2.8V397h107.3v93.6C309.6,492.2,308.4,493.4,306.8,493.4z"/>
	</g>
	<g>
		<g>
			<path fill="#8FA1AA" d="M316.8,476.1H195.2c-0.5,0-0.8-0.4-0.8-0.8v-11.4c0-0.5,0.4-0.8,0.8-0.8h121.5c0.5,0,0.8,0.4,0.8,0.8
				v11.4C317.6,475.7,317.2,476.1,316.8,476.1z"/>
		</g>
		<g>
			<path fill="#8FA1AA" d="M316.8,453.2H195.2c-0.5,0-0.8-0.4-0.8-0.8V441c0-0.5,0.4-0.8,0.8-0.8h121.5c0.5,0,0.8,0.4,0.8,0.8v11.4
				C317.6,452.9,317.2,453.2,316.8,453.2z"/>
		</g>
	</g>
	<g>
		<path fill="#EFF3F5" d="M142.7,303.9c0.9,67.7,51.3,122.4,113.3,122.4s112.4-54.6,113.3-122.4H142.7z"/>
	</g>
</g>
</svg>
