<?xml version="1.0" encoding="utf-8"?>
<!-- Generator: Adobe Illustrator 18.0.0, SVG Export Plug-In . SVG Version: 6.00 Build 0)  -->
<!DOCTYPE svg PUBLIC "-//W3C//DTD SVG 1.1//EN" "http://www.w3.org/Graphics/SVG/1.1/DTD/svg11.dtd">
<svg version="1.1" id="Layer_1" xmlns="http://www.w3.org/2000/svg" xmlns:xlink="http://www.w3.org/1999/xlink" x="0px" y="0px"
	 viewBox="0 0 512 512" enable-background="new 0 0 512 512" xml:space="preserve">
<g>
	<g>
		<g>
			<path fill="#F1786B" d="M510,88.2H277.8v135.5h0c0,0.1,0,0.2,0,0.4c0,18.5,52,33.5,116.1,33.5c64.1,0,116.1-15,116.1-33.5
				c0-0.1,0-0.2,0-0.4h0V88.2z"/>
		</g>
		<g>
			<path fill="#445C6C" d="M510,223.8c0,0.1,0,0.2,0,0.4c0,18.5-52,33.5-116.1,33.5c-64.1,0-116.1-15-116.1-33.5c0-0.1,0-0.2,0-0.4
				h0v252.7c0,18.5,52,33.5,116.1,33.5C458,510,510,495,510,476.5L510,223.8L510,223.8z"/>
		</g>
		<g>
			<rect x="356.4" y="398.2" fill="#EFF3F5" width="75" height="19.9"/>
		</g>
		<g>
			<path fill="#D45947" d="M327.7,88.2h-49.9v135.5h0c0,0.1,0,0.2,0,0.4c0,11.4,19.7,21.4,49.9,27.5V88.2z"/>
		</g>
		<g>
			<ellipse fill="#F98980" cx="393.9" cy="88.2" rx="116.1" ry="33.5"/>
		</g>
		<g>
			<path fill="#FFA19C" d="M393.9,61.7c60.1,0,109.5,13.1,115.5,30c0.4-1.1,0.6-2.3,0.6-3.5c0-18.5-52-33.5-116.1-33.5
				c-64.1,0-116.1,15-116.1,33.5c0,1.2,0.2,2.3,0.6,3.5C284.4,74.9,333.8,61.7,393.9,61.7z"/>
		</g>
		<g>
			<ellipse fill="#D45947" cx="393.9" cy="84.4" rx="75.2" ry="21.7"/>
		</g>
		<g>
			<ellipse fill="#EFF3F5" cx="393.9" cy="83" rx="66.2" ry="19.1"/>
		</g>
		<g>
			<path fill="#DBDFE0" d="M353.3,64.1v7.6c0,5.1,18.2,9.3,40.6,9.3c22.4,0,40.6-4.2,40.6-9.3v-7.6H353.3z"/>
		</g>
		<g>
			<ellipse fill="#EFF3F5" cx="393.9" cy="64.1" rx="40.6" ry="9.3"/>
		</g>
		<g>
			<polygon fill="#EFF3F5" points="431.4,183.3 403.8,183.3 403.8,155.8 383.9,155.8 383.9,183.3 356.4,183.3 356.4,203.2 
				383.9,203.2 383.9,230.7 403.8,230.7 403.8,203.2 431.4,203.2 			"/>
		</g>
		<g>
			<g>
				<path fill="#354C59" d="M277.8,223.8v0.4C277.8,224,277.8,223.9,277.8,223.8L277.8,223.8z"/>
			</g>
			<g>
				<path fill="#354C59" d="M327.7,251.6c-30.1-6-49.9-16.1-49.9-27.5v252.4c0,11.4,19.7,21.4,49.9,27.5V251.6z"/>
			</g>
		</g>
	</g>
	<g>
		<g>
			<path fill="#F1786B" d="M261.1,39.3H2v151.3h0c0,0.1,0,0.3,0,0.4c0,20.6,58,37.3,129.6,37.3c71.6,0,129.6-16.7,129.6-37.3
				c0-0.1,0-0.3,0-0.4h0V39.3z"/>
		</g>
		<g>
			<path fill="#445C6C" d="M261.1,190.6c0,0.1,0,0.3,0,0.4c0,20.6-58,37.3-129.6,37.3C60,228.4,2,211.6,2,191c0-0.1,0-0.3,0-0.4h0
				v282.1C2,493.3,60,510,131.6,510c71.6,0,129.6-16.7,129.6-37.3L261.1,190.6L261.1,190.6z"/>
		</g>
		<g>
			<rect x="89.7" y="385.2" fill="#EFF3F5" width="83.7" height="22.2"/>
		</g>
		<g>
			<path fill="#D45947" d="M57.7,39.3H2v151.3h0c0,0.1,0,0.3,0,0.4c0,12.7,22,23.9,55.7,30.7V39.3z"/>
		</g>
		<g>
			<ellipse fill="#F98980" cx="131.6" cy="39.3" rx="129.6" ry="37.3"/>
		</g>
		<g>
			<path fill="#FFA19C" d="M131.6,9.7c67,0,122.2,14.7,128.9,33.5c0.5-1.3,0.7-2.6,0.7-3.9c0-20.6-58-37.3-129.6-37.3
				C60,2,2,18.7,2,39.3c0,1.3,0.2,2.6,0.7,3.9C9.4,24.4,64.5,9.7,131.6,9.7z"/>
		</g>
		<g>
			<ellipse fill="#D45947" cx="131.6" cy="35.1" rx="83.9" ry="24.2"/>
		</g>
		<g>
			<ellipse fill="#EFF3F5" cx="131.6" cy="33.5" rx="73.9" ry="21.3"/>
		</g>
		<g>
			<path fill="#DBDFE0" d="M86.3,12.4v8.5c0,5.7,20.3,10.4,45.3,10.4s45.3-4.7,45.3-10.4v-8.5H86.3z"/>
		</g>
		<g>
			<ellipse fill="#EFF3F5" cx="131.6" cy="12.4" rx="45.3" ry="10.4"/>
		</g>
		<g>
			<polygon fill="#EFF3F5" points="173.4,145.4 142.7,145.4 142.7,114.7 120.5,114.7 120.5,145.4 89.7,145.4 89.7,167.6 
				120.5,167.6 120.5,198.3 142.7,198.3 142.7,167.6 173.4,167.6 			"/>
		</g>
		<g>
			<g>
				<path fill="#354C59" d="M2,190.6v0.4C2,190.9,2,190.7,2,190.6L2,190.6z"/>
			</g>
			<g>
				<path fill="#354C59" d="M57.7,221.7C24,214.9,2,203.7,2,191v281.6c0,12.7,22,23.9,55.7,30.7V221.7z"/>
			</g>
		</g>
	</g>
</g>
</svg>
