<?xml version="1.0" encoding="utf-8"?>
<!-- Generator: Adobe Illustrator 18.0.0, SVG Export Plug-In . SVG Version: 6.00 Build 0)  -->
<!DOCTYPE svg PUBLIC "-//W3C//DTD SVG 1.1//EN" "http://www.w3.org/Graphics/SVG/1.1/DTD/svg11.dtd">
<svg version="1.1" id="Layer_1" xmlns="http://www.w3.org/2000/svg" xmlns:xlink="http://www.w3.org/1999/xlink" x="0px" y="0px"
	 viewBox="0 0 512 512" enable-background="new 0 0 512 512" xml:space="preserve">
<g>
	<g>
		<rect x="95.5" y="227" fill="#DBDFE0" width="320.9" height="283"/>
	</g>
	<g>
		<ellipse fill="#EFF3F5" cx="256" cy="227" rx="160.5" ry="48"/>
	</g>
	<g>
		<g>
			<g>
				<path fill="#F1786B" d="M160.6,8v27.6l0,0c0,3.3,11.1,117.6,24.9,117.6c13.7,0,24.9-114.3,24.9-117.6h0V8H160.6z"/>
			</g>
			<g>
				<ellipse fill="#D45947" cx="185.5" cy="8" rx="24.9" ry="6"/>
			</g>
			<g>
				<path fill="#445C6C" d="M123.2,160.4v58.2c0,9.4,27.9,17,62.3,17s62.3-7.6,62.3-17v-58.2H123.2z"/>
			</g>
			<g>
				<ellipse fill="#DBDFE0" cx="185.5" cy="160.4" rx="62.3" ry="17"/>
			</g>
			<g>
				<path fill="#EA7168" d="M132.8,19v139.3l0,0c0,3.3,11.1,6,24.9,6c13.7,0,24.9-2.7,24.9-6h0V19H132.8z"/>
			</g>
			<g>
				<ellipse fill="#D45947" cx="157.7" cy="19" rx="24.9" ry="6"/>
			</g>
			<g>
				<path fill="#EA7168" d="M188.4,19v139.3l0,0c0,3.3,11.1,6,24.9,6c13.7,0,24.9-2.7,24.9-6h0V19H188.4z"/>
			</g>
			<g>
				<ellipse fill="#D45947" cx="213.3" cy="19" rx="24.9" ry="6"/>
			</g>
			<g>
				<g>
					<path fill="#F1786B" d="M160.6,30.1v139.3l0,0c0,3.3,11.1,6,24.9,6c13.7,0,24.9-2.7,24.9-6h0V30.1H160.6z"/>
				</g>
				<g>
					<ellipse fill="#D45947" cx="185.5" cy="30.1" rx="24.9" ry="6"/>
				</g>
			</g>
		</g>
		<g>
			<g>
				<path fill="#5AC8AE" d="M301.6,59.5v87.8l0,0c0,3.3,11.1,6,24.9,6c13.7,0,24.9-2.7,24.9-6h0V59.5H301.6z"/>
			</g>
			<g>
				<ellipse fill="#3DA386" cx="326.5" cy="59.5" rx="24.9" ry="6"/>
			</g>
			<g>
				<path fill="#788D9A" d="M264.2,160.4v58.2c0,9.4,27.9,17,62.3,17s62.3-7.6,62.3-17v-58.2H264.2z"/>
			</g>
			<g>
				<ellipse fill="#DBDFE0" cx="326.5" cy="160.4" rx="62.3" ry="17"/>
			</g>
			<g>
				<path fill="#4FBA9E" d="M273.8,70.6v87.8l0,0c0,3.3,11.1,6,24.9,6c13.7,0,24.9-2.7,24.9-6h0V70.6H273.8z"/>
			</g>
			<g>
				<ellipse fill="#3DA386" cx="298.7" cy="70.6" rx="24.9" ry="6"/>
			</g>
			<g>
				<path fill="#4FBA9E" d="M329.4,70.6v87.8l0,0c0,3.3,11.1,6,24.9,6s24.9-2.7,24.9-6h0V70.6H329.4z"/>
			</g>
			<g>
				<ellipse fill="#3DA386" cx="354.3" cy="70.6" rx="24.9" ry="6"/>
			</g>
			<g>
				<path fill="#5AC8AE" d="M301.6,81.7v87.8l0,0c0,3.3,11.1,6,24.9,6c13.7,0,24.9-2.7,24.9-6h0V81.7H301.6z"/>
			</g>
			<g>
				<ellipse fill="#3DA386" cx="326.5" cy="81.7" rx="24.9" ry="6"/>
			</g>
		</g>
	</g>
	<g>
		<g>
			<path fill="#FBD984" d="M229.3,107.7v70.6l0,0c0,3.3,11.1,6,24.9,6c13.7,0,24.9-2.7,24.9-6h0v-70.6H229.3z"/>
		</g>
		<g>
			<ellipse fill="#E39A61" cx="254.1" cy="107.7" rx="24.9" ry="6"/>
		</g>
		<g>
			<path fill="#41B3E2" d="M191.8,191.5v58.2c0,9.4,27.9,17,62.3,17s62.3-7.6,62.3-17v-58.2H191.8z"/>
		</g>
		<g>
			<ellipse fill="#2E89AC" cx="254.1" cy="191.5" rx="62.3" ry="17"/>
		</g>
		<g>
			<path fill="#FDC77C" d="M201.5,118.8v70.6l0,0c0,3.3,11.1,6,24.9,6c13.7,0,24.9-2.7,24.9-6h0v-70.6H201.5z"/>
		</g>
		<g>
			<ellipse fill="#E39A61" cx="226.4" cy="118.8" rx="24.9" ry="6"/>
		</g>
		<g>
			<path fill="#FDC77C" d="M257,118.8v70.6l0,0c0,3.3,11.1,6,24.9,6c13.7,0,24.9-2.7,24.9-6h0v-70.6H257z"/>
		</g>
		<g>
			<ellipse fill="#E39A61" cx="281.9" cy="118.8" rx="24.9" ry="6"/>
		</g>
		<g>
			<path fill="#FBD984" d="M229.3,129.9v70.6l0,0c0,3.3,11.1,6,24.9,6c13.7,0,24.9-2.7,24.9-6h0v-70.6H229.3z"/>
		</g>
		<g>
			<ellipse fill="#E39A61" cx="254.1" cy="129.9" rx="24.9" ry="6"/>
		</g>
	</g>
</g>
</svg>
