<?xml version="1.0" encoding="utf-8"?>
<!-- Generator: Adobe Illustrator 18.0.0, SVG Export Plug-In . SVG Version: 6.00 Build 0)  -->
<!DOCTYPE svg PUBLIC "-//W3C//DTD SVG 1.1//EN" "http://www.w3.org/Graphics/SVG/1.1/DTD/svg11.dtd">
<svg version="1.1" id="Layer_1" xmlns="http://www.w3.org/2000/svg" xmlns:xlink="http://www.w3.org/1999/xlink" x="0px" y="0px"
	 viewBox="0 0 512 512" enable-background="new 0 0 512 512" xml:space="preserve">
<g>
	<g>
		<path fill="#788D9A" d="M460.2,450.2c-1.1-6.5-5.6-12-11.8-14.3c-1.6-0.6-6.6-2.5-6.6-15.3v-81.8h-15.1v81.8
			c0,19.2,8.9,26.6,16.4,29.5c1.4,0.5,2,1.7,2.2,2.7c0.2,1.3-0.5,1.8-0.7,2c-36.3,30-74.2,37.1-109.7,20.4
			c-44.2-20.8-71.4-70.9-71.4-97.7V36.6h-15.1v340.7c0,26.8-27.2,77-71.4,97.7c-35.5,16.6-73.4,9.6-109.7-20.4
			c-0.2-0.2-0.9-0.7-0.7-2c0.2-0.9,0.8-2.1,2.2-2.7c7.5-2.8,16.4-10.2,16.4-29.5v-81.8H70.1v81.8c0,12.8-5,14.7-6.6,15.3
			c-6.2,2.3-10.7,7.8-11.8,14.3c-1,6.2,1.2,12.2,6,16.1c29.7,24.6,57.2,32.8,80.7,32.8c17.5,0,32.8-4.6,45.1-10.3
			c28-13.1,50.9-37.6,64.9-62.7v68.4h15.1V426c14,25,36.9,49.5,64.9,62.7c12.3,5.8,27.6,10.3,45.1,10.3c23.5,0,51-8.2,80.7-32.8
			C459,462.3,461.3,456.3,460.2,450.2z"/>
	</g>
	<g>
		<rect x="426.7" y="347.1" fill="#445C6C" width="15.1" height="15.1"/>
	</g>
	<g>
		<rect x="248.4" y="347.1" fill="#445C6C" width="15.1" height="15.1"/>
	</g>
	<g>
		<rect x="70.1" y="347.1" fill="#445C6C" width="15.1" height="15.1"/>
	</g>
	<g>
		<g>
			<path fill="#F1786B" d="M278.7,367.4h-45.3c-9.4,0-17,7.6-17,17c0,9.4,7.6,17,17,17h45.3c9.4,0,17-7.6,17-17
				C295.7,375,288.1,367.4,278.7,367.4z"/>
		</g>
	</g>
	<g>
		<g>
			<ellipse fill="#FBD984" cx="77.7" cy="263.1" rx="75.7" ry="75.6"/>
		</g>
	</g>
	<g>
		<g>
			<path fill="#E39A61" d="M22.1,314.3v25c0,6.4,5.2,11.7,11.7,11.7h87.9c6.5,0,11.7-5.2,11.7-11.7v-25H22.1z"/>
		</g>
	</g>
	<g>
		<g>
			<ellipse fill="#FBD984" cx="256" cy="263.1" rx="75.7" ry="75.6"/>
		</g>
	</g>
	<g>
		<g>
			<path fill="#E39A61" d="M200.4,314.3v25c0,6.4,5.2,11.7,11.7,11.7H300c6.5,0,11.7-5.2,11.7-11.7v-25H200.4z"/>
		</g>
	</g>
	<g>
		<g>
			<ellipse fill="#FBD984" cx="434.3" cy="263.1" rx="75.7" ry="75.6"/>
		</g>
	</g>
	<g>
		<g>
			<path fill="#E39A61" d="M378.7,314.3v25c0,6.4,5.2,11.7,11.7,11.7h87.9c6.5,0,11.7-5.2,11.7-11.7v-25H378.7z"/>
		</g>
	</g>
	<g>
		<g>
			<rect x="22.1" y="314.3" fill="#C47B49" width="111.3" height="9.9"/>
		</g>
	</g>
	<g>
		<g>
			<rect x="200.4" y="314.3" fill="#C47B49" width="111.3" height="9.9"/>
		</g>
	</g>
	<g>
		<g>
			<rect x="378.7" y="314.3" fill="#C47B49" width="111.3" height="9.9"/>
		</g>
	</g>
	<g>
		<g>
			<ellipse fill="#F1786B" cx="256" cy="494.4" rx="15.6" ry="15.6"/>
		</g>
	</g>
	<g>
		<path fill="#445C6C" d="M179.3,22C190.1,54,220.3,77,256,77c35.7,0,65.9-23,76.7-55H179.3z"/>
	</g>
	<g>
		<path fill="#304754" d="M327.7,33.7c2-3.7,3.6-7.6,5-11.6H179.3c1.4,4,3,7.9,5,11.6H327.7z"/>
	</g>
	<g>
		<rect x="153.4" y="2" fill="#788D9A" width="205.2" height="20"/>
	</g>
	<g>
		<rect x="153.4" y="2" fill="#8E9FA8" width="205.2" height="8"/>
	</g>
	<g>
		<path fill="#FFE3A6" d="M82.6,209.3c11.8,11.7,7.4,35.1-9.8,52.3s-40.6,21.5-52.4,9.8s-7.4-35.1,9.8-52.3S70.8,197.6,82.6,209.3z"
			/>
	</g>
	<g>
		<path fill="#FFE3A6" d="M261.5,209.3c11.8,11.7,7.4,35.1-9.8,52.3c-17.2,17.1-40.6,21.5-52.4,9.8c-11.8-11.7-7.4-35.1,9.8-52.3
			S249.7,197.6,261.5,209.3z"/>
	</g>
	<g>
		<path fill="#FFE3A6" d="M441.6,209.3c11.8,11.7,7.4,35.1-9.8,52.3c-17.2,17.1-40.6,21.5-52.4,9.8c-11.8-11.7-7.4-35.1,9.8-52.3
			C406.4,201.9,429.9,197.6,441.6,209.3z"/>
	</g>
</g>
</svg>
