<?xml version="1.0" encoding="utf-8"?>
<!-- Generator: Adobe Illustrator 18.0.0, SVG Export Plug-In . SVG Version: 6.00 Build 0)  -->
<!DOCTYPE svg PUBLIC "-//W3C//DTD SVG 1.1//EN" "http://www.w3.org/Graphics/SVG/1.1/DTD/svg11.dtd">
<svg version="1.1" id="Layer_1" xmlns="http://www.w3.org/2000/svg" xmlns:xlink="http://www.w3.org/1999/xlink" x="0px" y="0px"
	 viewBox="0 0 512 512" enable-background="new 0 0 512 512" xml:space="preserve">
<g>
	<g>
		<path fill="#F1786B" d="M128.5,221.3c0,34.9-28.3,63.3-63.3,63.3S2,256.2,2,221.3S30.3,53.1,65.3,53.1S128.5,186.3,128.5,221.3z"
			/>
	</g>
	<g>
		<path fill="#FBD984" d="M114.9,220.8c0,27.4-22.2,49.6-49.6,49.6s-49.6-22.2-49.6-49.6s22.2-87.3,49.6-87.3
			S114.9,193.4,114.9,220.8z"/>
	</g>
	<g>
		<rect x="159.9" y="2" fill="#445C6C" width="340.8" height="177.8"/>
	</g>
	<g>
		<rect x="150.5" y="179.8" fill="#EFF3F5" width="359.5" height="330.2"/>
	</g>
	<g>
		<rect x="182.5" y="207.6" fill="#5AC8AE" width="295.4" height="274.6"/>
	</g>
	<g>
		<g>
			<g>
				<rect x="196.6" y="71" fill="#FBD984" width="19.2" height="108.7"/>
			</g>
			<g>
				<ellipse fill="#F1786B" cx="206.3" cy="47" rx="23.7" ry="27.4"/>
			</g>
		</g>
		<g>
			<g>
				<rect x="258.6" y="71" fill="#FBD984" width="19.2" height="108.7"/>
			</g>
			<g>
				<ellipse fill="#F1786B" cx="268.3" cy="47" rx="23.7" ry="27.4"/>
			</g>
		</g>
		<g>
			<g>
				<rect x="320.6" y="71" fill="#FBD984" width="19.2" height="108.7"/>
			</g>
			<g>
				<ellipse fill="#F1786B" cx="330.2" cy="47" rx="23.7" ry="27.4"/>
			</g>
		</g>
		<g>
			<g>
				<rect x="382.6" y="71" fill="#FBD984" width="19.2" height="108.7"/>
			</g>
			<g>
				<ellipse fill="#F1786B" cx="392.2" cy="47" rx="23.7" ry="27.4"/>
			</g>
		</g>
		<g>
			<g>
				<rect x="444.6" y="71" fill="#FBD984" width="19.2" height="108.7"/>
			</g>
			<g>
				<ellipse fill="#F1786B" cx="454.2" cy="47" rx="23.7" ry="27.4"/>
			</g>
		</g>
	</g>
	<g>
		<g>
			<path fill="#E39A61" d="M78.3,252.6l188.8,188.8c4.9,4.9,12.9,4.9,17.9,0c4.9-4.9,4.9-13,0-17.9L96.2,234.7L78.3,252.6z"/>
		</g>
		<g>
			
				<ellipse transform="matrix(0.7071 -0.7071 0.7071 0.7071 -137.4841 110.6423)" fill="#F1786B" cx="64.8" cy="221.3" rx="31.2" ry="36.1"/>
		</g>
	</g>
</g>
</svg>
