<?xml version="1.0" encoding="utf-8"?>
<!-- Generator: Adobe Illustrator 18.0.0, SVG Export Plug-In . SVG Version: 6.00 Build 0)  -->
<!DOCTYPE svg PUBLIC "-//W3C//DTD SVG 1.1//EN" "http://www.w3.org/Graphics/SVG/1.1/DTD/svg11.dtd">
<svg version="1.1" id="Layer_1" xmlns="http://www.w3.org/2000/svg" xmlns:xlink="http://www.w3.org/1999/xlink" x="0px" y="0px"
	 viewBox="0 0 512 512" enable-background="new 0 0 512 512" xml:space="preserve">
<g>
	<g>
		<path fill="#445C6C" d="M403.2,2H108.8C98.9,2,91,10,91,19.8v472.4c0,9.8,8,17.8,17.8,17.8h294.4c9.8,0,17.8-8,17.8-17.8V19.8
			C421,10,413.1,2,403.2,2z"/>
	</g>
	<g>
		<path fill="#536C7A" d="M403.2,2H108.8C98.9,2,91,10,91,19.8v5.4c0-9.8,8-17.8,17.8-17.8h294.4c9.8,0,17.8,8,17.8,17.8v-5.4
			C421,10,413.1,2,403.2,2z"/>
	</g>
	<g>
		<rect x="91" y="37.9" fill="#DBDFE0" width="330" height="419.5"/>
	</g>
	<g>
		<path fill="#788D9A" d="M277.5,16.6h-43c-2.4,0-4.4,2-4.4,4.4s2,4.4,4.4,4.4h43c2.4,0,4.4-2,4.4-4.4S279.9,16.6,277.5,16.6z"/>
	</g>
	<g>
		<circle fill="#788D9A" cx="256" cy="484" r="16.5"/>
	</g>
	<g>
		<path fill="#F1786B" d="M337.1,197.9H160.2c-2.6,0-4.6,2.1-4.6,4.6v90.3c0,2.6,2.1,4.6,4.6,4.6h176.9c2.6,0,4.6-2.1,4.6-4.6v-90.3
			C341.8,200,339.7,197.9,337.1,197.9z"/>
	</g>
	<g>
		<rect x="341.8" y="227.1" fill="#D45947" width="14.7" height="41.3"/>
	</g>
	<g>
		<rect x="166.3" y="207" fill="#FFFFFF" width="164.7" height="81.4"/>
	</g>
	<g>
		<rect x="172.5" y="213.5" fill="#41B3E2" width="23.5" height="68.4"/>
	</g>
	<g>
		<rect x="202.3" y="213.5" fill="#41B3E2" width="23.5" height="68.4"/>
	</g>
	<g>
		<rect x="232.5" y="213.5" fill="#41B3E2" width="23.5" height="68.4"/>
	</g>
	<g>
		<g>
			<g>
				<g>
					<path fill="#445C6C" d="M290.1,133.5c0-6-4.1-10.8-9.2-10.8s-9.2,4.8-9.2,10.8c0,6,4.1,10.8,9.2,10.8S290.1,139.4,290.1,133.5z
						 M277.9,133.5c0-2.5,1.3-4.6,3-4.6c1.7,0,3,2,3,4.6s-1.3,4.6-3,4.6C279.2,138.1,277.9,136,277.9,133.5z"/>
				</g>
			</g>
			<g>
				<g>
					<path fill="#445C6C" d="M303.2,122.9c-1.5-0.8-3.4-0.2-4.2,1.3l-18.3,35.1c-0.8,1.5-0.2,3.5,1.3,4.2c1.8,0.8,3.6-0.3,4.2-1.3
						l18.3-35.1C305.3,125.5,304.7,123.7,303.2,122.9z"/>
				</g>
			</g>
			<g>
				<g>
					<path fill="#445C6C" d="M290.1,133.3c0-6-4.1-10.8-9.2-10.8s-9.2,4.8-9.2,10.8s4.1,10.8,9.2,10.8S290.1,139.2,290.1,133.3z
						 M277.9,133.3c0-2.5,1.3-4.6,3-4.6c1.7,0,3,2,3,4.6s-1.3,4.6-3,4.6C279.2,137.9,277.9,135.8,277.9,133.3z"/>
				</g>
			</g>
			<g>
				<g>
					<path fill="#445C6C" d="M304.3,142.2c-5.1,0-9.2,4.8-9.2,10.8s4.1,10.8,9.2,10.8s9.2-4.8,9.2-10.8S309.3,142.2,304.3,142.2z
						 M304.3,157.6c-1.7,0-3-2-3-4.6s1.3-4.6,3-4.6c1.7,0,3,2,3,4.6S305.9,157.6,304.3,157.6z"/>
				</g>
			</g>
		</g>
		<g>
			<g>
				<g>
					<path fill="#445C6C" d="M208.7,163.1c-3.5,0-6.7-1.3-9.3-3.7c-1.2-1.1-1.2-3-0.1-4.2c1.1-1.2,3-1.2,4.2-0.1
						c1.4,1.3,3.2,2.1,5.2,2.1c4.1,0,7.5-3.4,7.5-7.5c0-4.1-3.4-7.5-7.5-7.5c-1.3,0-2.5,0.3-3.6,0.9c-0.9,0.5-2,0.5-2.9-0.1
						c-0.9-0.5-1.4-1.5-1.4-2.5v-14.3c0-1.6,1.3-3,3-3H217c1.6,0,3,1.3,3,3c0,1.6-1.3,3-3,3h-10.3v7.3c0.7-0.1,1.4-0.2,2-0.2
						c7.4,0,13.4,6,13.4,13.4C222.1,157.1,216.1,163.1,208.7,163.1z"/>
				</g>
			</g>
			<g>
				<g>
					<path fill="#445C6C" d="M247.1,163.8c-11.4,0-20.7-9.3-20.7-20.7s9.3-20.7,20.7-20.7s20.7,9.3,20.7,20.7
						S258.5,163.8,247.1,163.8z M247.1,129.4c-7.6,0-13.8,6.2-13.8,13.8s6.2,13.8,13.8,13.8c7.6,0,13.8-6.2,13.8-13.8
						S254.7,129.4,247.1,129.4z"/>
				</g>
			</g>
		</g>
	</g>
</g>
</svg>
