<?xml version="1.0" encoding="utf-8"?>
<!-- Generator: Adobe Illustrator 18.0.0, SVG Export Plug-In . SVG Version: 6.00 Build 0)  -->
<!DOCTYPE svg PUBLIC "-//W3C//DTD SVG 1.1//EN" "http://www.w3.org/Graphics/SVG/1.1/DTD/svg11.dtd">
<svg version="1.1" id="Layer_1" xmlns="http://www.w3.org/2000/svg" xmlns:xlink="http://www.w3.org/1999/xlink" x="0px" y="0px"
	 viewBox="0 0 512 512" enable-background="new 0 0 512 512" xml:space="preserve">
<g>
	<g>
		<path fill="#536C7A" d="M235.6,144.4L18.9,395.1c-23.8,27.6-22.3,68.8,3.4,94.6s67,27.3,94.6,3.4l250.6-216.7L235.6,144.4z"/>
	</g>
	<g>
		<path fill="#445C6C" d="M176.5,212.7c8.3,28.2,23.6,54.7,45.8,76.9c22.2,22.2,48.8,37.5,76.9,45.8l68.3-59l-132-132L176.5,212.7z"
			/>
	</g>
	<g>
		<circle fill="#DBDFE0" cx="351.1" cy="160.9" r="158.9"/>
	</g>
	<g>
		<path fill="#EFF3F5" d="M449.3,62.7c59.7,59.7,61.9,155,6.8,217.4c2.5-2.2,4.9-4.5,7.3-6.8c62.1-62.1,62.1-162.7,0-224.7
			c-62.1-62.1-162.7-62.1-224.7,0c-2.4,2.4-4.6,4.8-6.8,7.3C294.3,0.8,389.6,3,449.3,62.7z"/>
	</g>
	<g>
		<path fill="#CCCECE" d="M245.4,43.8c-0.3-0.3-0.6-0.5-0.9-0.7c-1.9,1.8-3.9,3.6-5.7,5.5c-10,10-18.4,21.1-25.2,32.8l217.1,217.1
			c11.7-6.8,22.8-15.2,32.8-25.2c1.9-1.9,3.7-3.8,5.5-5.7c-0.3-0.3-0.5-0.6-0.7-0.9L245.4,43.8z"/>
	</g>
	<g>
		<path fill="#788D9A" d="M479.8,255L257,32.2c-9.6-9.6-25.1-9.6-34.7,0s-9.6,25.1,0,34.7l222.8,222.8c9.6,9.6,25.1,9.6,34.7,0
			S489.4,264.5,479.8,255z"/>
	</g>
	<g>
		<path fill="#EFF3F5" d="M198.9,313.1c-10.8-10.8-28.4-10.8-39.2,0l-53.1,53.1c-10.8,10.8-10.8,28.4,0,39.2
			c10.8,10.8,28.4,10.8,39.2,0l53.1-53.1C209.7,341.5,209.7,324,198.9,313.1z"/>
	</g>
	<g>
		<circle fill="#5AC8AE" cx="145.2" cy="366.8" r="27.7"/>
	</g>
</g>
</svg>
