<?xml version="1.0" encoding="utf-8"?>
<!-- Generator: Adobe Illustrator 18.0.0, SVG Export Plug-In . SVG Version: 6.00 Build 0)  -->
<!DOCTYPE svg PUBLIC "-//W3C//DTD SVG 1.1//EN" "http://www.w3.org/Graphics/SVG/1.1/DTD/svg11.dtd">
<svg version="1.1" id="Layer_1" xmlns="http://www.w3.org/2000/svg" xmlns:xlink="http://www.w3.org/1999/xlink" x="0px" y="0px"
	 viewBox="0 0 512 512" enable-background="new 0 0 512 512" xml:space="preserve">
<g>
	<g>
		<circle fill="#EFF3F5" cx="393.4" cy="123.3" r="23.5"/>
	</g>
	<g>
		<rect x="270.2" y="147.2" fill="#445C6C" width="189" height="98.7"/>
	</g>
	<g>
		<rect x="270.2" y="147.2" fill="#566E7C" width="189" height="14.1"/>
	</g>
	<g>
		<path fill="#5AC8AE" d="M219.3,245.9V473c0,20.4,16.5,37,37,37H473c20.4,0,37-16.5,37-37V245.9H219.3z"/>
	</g>
	<g>
		<path fill="#4FBA9E" d="M265.5,473V245.9h-46.2V473c0,20.4,16.5,37,37,37h46.2C282,510,265.5,493.5,265.5,473z"/>
	</g>
	<g>
		<path fill="#52AFA8" d="M288.9,210.4c-5.3-5.3-12.4-8.2-19.9-8.2h-21.6c-15.5,0-28.1,12.6-28.1,28.1v15.6l105.5,0.5L288.9,210.4z"
			/>
	</g>
	<g>
		<circle fill="#445C6C" cx="200.3" cy="217" r="35.1"/>
	</g>
	<g>
		<path fill="#5AC8AE" d="M73.6,2l-52,31.3C3.1,44.4-3.4,67.2,6.9,84.3L116.2,266c10.3,17.1,33.5,22,51.9,10.9l52-31.3L73.6,2z"/>
	</g>
	<g>
		<path fill="#73D8BE" d="M36.2,54.7l50.7-30.5L73.6,2l-52,31.3C3.1,44.4-3.4,67.2,6.9,84.3l9.6,15.9C12,83.5,19.7,64.7,36.2,54.7z"
			/>
	</g>
	<g>
		<rect x="324.9" y="117.6" fill="#DBDFE0" width="79.8" height="29.6"/>
	</g>
	<g>
		<path fill="#F1786B" d="M384.4,78.8c0,17.5-14.2,31.7-31.7,31.7S321,96.3,321,78.8S352.7,2,352.7,2S384.4,61.2,384.4,78.8z"/>
	</g>
	<g>
		<path fill="#FBD984" d="M375.5,84.9c0,12.6-10.2,22.8-22.8,22.8c-12.6,0-22.8-10.2-22.8-22.8s22.8-55.1,22.8-55.1
			S375.5,72.4,375.5,84.9z"/>
	</g>
</g>
</svg>
