<?xml version="1.0" encoding="utf-8"?>
<!-- Generator: Adobe Illustrator 18.0.0, SVG Export Plug-In . SVG Version: 6.00 Build 0)  -->
<!DOCTYPE svg PUBLIC "-//W3C//DTD SVG 1.1//EN" "http://www.w3.org/Graphics/SVG/1.1/DTD/svg11.dtd">
<svg version="1.1" id="Layer_1" xmlns="http://www.w3.org/2000/svg" xmlns:xlink="http://www.w3.org/1999/xlink" x="0px" y="0px"
	 viewBox="0 0 512 512" enable-background="new 0 0 512 512" xml:space="preserve">
<g>
	<g>
		<g>
			<rect x="140.8" y="133.4" fill="#445C6C" width="10.4" height="19.3"/>
		</g>
		<g>
			<rect x="360.8" y="133.4" fill="#445C6C" width="10.4" height="19.3"/>
		</g>
	</g>
	<g>
		<rect x="151.1" y="122.8" fill="#EFF3F5" width="209.8" height="219.4"/>
	</g>
	<g>
		<rect x="151.1" y="122.8" fill="#DBDFE0" width="209.8" height="14.8"/>
	</g>
	<g>
		<path fill="#F1786B" d="M356.6,342.2H155.4c-18.7,0-33.9,15.2-33.9,33.9v93h268.9v-93C390.5,357.4,375.3,342.2,356.6,342.2z"/>
	</g>
	<g>
		<path fill="#FF978F" d="M356.6,342.2H155.4c-18.7,0-33.9,15.2-33.9,33.9V390c0-18.7,15.2-33.9,33.9-33.9h201.2
			c18.7,0,33.9,15.2,33.9,33.9v-13.9C390.5,357.4,375.3,342.2,356.6,342.2z"/>
	</g>
	<g>
		<path fill="#445C6C" d="M395.3,469.1H116.7c-11.3,0-20.4,9.2-20.4,20.4c0,11.3,9.2,20.4,20.4,20.4h278.6
			c11.3,0,20.4-9.2,20.4-20.4C415.7,478.3,406.6,469.1,395.3,469.1z"/>
	</g>
	<g>
		<path fill="#5B727F" d="M116.7,476.7h278.6c10,0,18.3,7.2,20.1,16.6c0.2-1.2,0.4-2.5,0.4-3.8c0-11.3-9.2-20.4-20.4-20.4H116.7
			c-11.3,0-20.4,9.2-20.4,20.4c0,1.3,0.1,2.6,0.4,3.8C98.4,483.9,106.7,476.7,116.7,476.7z"/>
	</g>
	<g>
		<path fill="#788D9A" d="M368.6,102.7H143.4c-5.5,0-10,4.5-10,10c0,5.5,4.5,10,10,10h225.3c5.5,0,10-4.5,10-10
			C378.7,107.2,374.2,102.7,368.6,102.7z"/>
	</g>
	<g>
		<path fill="#8FA1AA" d="M143.4,108.6h225.3c4.5,0,8.3,3,9.5,7.1c0.3-0.9,0.5-1.9,0.5-2.9c0-5.5-4.5-10-10-10H143.4
			c-5.5,0-10,4.5-10,10c0,1,0.2,2,0.5,2.9C135.1,111.6,138.8,108.6,143.4,108.6z"/>
	</g>
	<g>
		<rect x="165.8" y="57.2" fill="#445C6C" width="180.4" height="45.5"/>
	</g>
	<g>
		<rect x="165.8" y="57.2" fill="#2E4551" width="180.4" height="6.8"/>
	</g>
	<g>
		<rect x="155.1" y="43.4" fill="#DBDFE0" width="201.8" height="13.8"/>
	</g>
	<g>
		<path fill="#41B3E2" d="M319.7,43.4C308.8,19,284.4,2,256,2c-28.4,0-52.8,17-63.7,41.4H319.7z"/>
	</g>
	<g>
		<path fill="#60D2F4" d="M256,8.1c26,0,48.6,14.3,60.6,35.3h3.1C308.8,19,284.4,2,256,2c-28.4,0-52.8,17-63.7,41.4h3.1
			C207.4,22.3,230,8.1,256,8.1z"/>
	</g>
	<g>
		<g>
			<circle fill="#2A3E49" cx="198" cy="80" r="8.1"/>
		</g>
		<g>
			<circle fill="#2A3E49" cx="236.7" cy="80" r="8.1"/>
		</g>
		<g>
			<circle fill="#2A3E49" cx="275.3" cy="80" r="8.1"/>
		</g>
		<g>
			<circle fill="#2A3E49" cx="314" cy="80" r="8.1"/>
		</g>
	</g>
	<g>
		<path fill="#F1786B" d="M300.7,280.3c0,24.3-19.7,44-44,44s-44-19.7-44-44s44-112.2,44-112.2S300.7,256,300.7,280.3z"/>
	</g>
	<g>
		<path fill="#FBD984" d="M286.1,291.1c0,16.2-13.2,29.4-29.4,29.4s-29.4-13.2-29.4-29.4s29.4-75,29.4-75S286.1,274.8,286.1,291.1z"
			/>
	</g>
	<g>
		<g>
			<path fill="#DBDFE0" d="M256,439.1c-71.9,0-130.3-58.5-130.3-130.3V129.3c0-4.2,3.4-7.7,7.7-7.7s7.7,3.4,7.7,7.7v179.4
				c0,63.4,51.6,115,115,115s115-51.6,115-115V129.3c0-4.2,3.4-7.7,7.7-7.7c4.2,0,7.7,3.4,7.7,7.7v179.4
				C386.3,380.6,327.9,439.1,256,439.1z"/>
		</g>
	</g>
</g>
</svg>
