<?xml version="1.0" encoding="utf-8"?>
<!-- Generator: Adobe Illustrator 18.0.0, SVG Export Plug-In . SVG Version: 6.00 Build 0)  -->
<!DOCTYPE svg PUBLIC "-//W3C//DTD SVG 1.1//EN" "http://www.w3.org/Graphics/SVG/1.1/DTD/svg11.dtd">
<svg version="1.1" id="Layer_1" xmlns="http://www.w3.org/2000/svg" xmlns:xlink="http://www.w3.org/1999/xlink" x="0px" y="0px"
	 viewBox="0 0 512 512" enable-background="new 0 0 512 512" xml:space="preserve">
<g>
	<g>
		<polygon fill="#DBDFE0" points="169.5,391.8 35.7,391.8 35.7,342 169.5,269 		"/>
	</g>
	<g>
		<polygon fill="#DBDFE0" points="342.5,391.8 476.3,391.8 476.3,342 342.5,269 		"/>
	</g>
	<g>
		<path fill="#445C6C" d="M256,2c-22.3,22.3-41,46.8-56.6,72.7h113.1C297,48.8,278.3,24.3,256,2z"/>
	</g>
	<g>
		<path fill="#EFF3F5" d="M199.4,74.7c-57.8,96.4-68.9,213.1-32.7,317.1h178.5c36.2-104,25.2-220.7-32.7-317.1H199.4z"/>
	</g>
	<g>
		<circle fill="#F1786B" cx="256" cy="196.9" r="56"/>
	</g>
	<g>
		<circle fill="#445C6C" cx="256" cy="196.9" r="37.8"/>
	</g>
	<g>
		<rect x="166.7" y="391.8" fill="#788D9A" width="178.5" height="27"/>
	</g>
	<g>
		<g>
			<circle fill="#445C6C" cx="99.7" cy="354.1" r="17.9"/>
		</g>
		<g>
			<circle fill="#445C6C" cx="412.3" cy="354.1" r="17.9"/>
		</g>
	</g>
	<g>
		<path fill="#FBD984" d="M182.3,418.8c0,0-14.1,35.4,0,51l26-29.7c0,0-0.7,52.3,51.2,70c0,0,5.2-16.5,29.7-36.5
			c24.5-20,16.3-39.4,16.3-39.4s18.6,17.5,17.8,30.3c0,0,20-23.8,9.7-45.6H182.3z"/>
	</g>
	<g>
		<path fill="#445C6C" d="M18.9,297.6c-9.3,0-16.9,7.5-16.9,16.9v95.7h33.7v-95.7C35.7,305.1,28.2,297.6,18.9,297.6z"/>
	</g>
	<g>
		<path fill="#445C6C" d="M493.1,297.6c-9.3,0-16.9,7.5-16.9,16.9v95.7H510v-95.7C510,305.1,502.4,297.6,493.1,297.6z"/>
	</g>
</g>
</svg>
