<?xml version="1.0" encoding="utf-8"?>
<!-- Generator: Adobe Illustrator 18.0.0, SVG Export Plug-In . SVG Version: 6.00 Build 0)  -->
<!DOCTYPE svg PUBLIC "-//W3C//DTD SVG 1.1//EN" "http://www.w3.org/Graphics/SVG/1.1/DTD/svg11.dtd">
<svg version="1.1" id="Layer_1" xmlns="http://www.w3.org/2000/svg" xmlns:xlink="http://www.w3.org/1999/xlink" x="0px" y="0px"
	 viewBox="0 0 512 512" enable-background="new 0 0 512 512" xml:space="preserve">
<g>
	<g>
		<path fill="#FBD984" d="M365.1,257.7c-26.8-28.5-43.1-65.1-44.3-104H191.2c-1.4,38-15.9,74.8-42.5,102.1
			c-27.5,28.3-44,67.4-42.3,110.3c2.9,76.1,64.1,138.9,140.1,143.6c87,5.4,159.3-63.6,159.3-149.5
			C405.8,320.5,390.3,284.5,365.1,257.7z"/>
	</g>
	<g>
		<path fill="#F0B972" d="M322.3,171.3c-1.1-7.3-1.7-14.6-1.7-22.1V143H191.3v4.5c0,8-0.6,16-1.8,23.8H322.3z"/>
	</g>
	<g>
		<rect x="246.1" y="2" fill="#F1786B" width="19.7" height="28.7"/>
	</g>
	<g>
		<circle fill="#FDC77C" cx="256" cy="360.2" r="114.5"/>
	</g>
	<g>
		<path fill="#445C6C" d="M325.6,135.9H186.4c-5.7,0-10.4,4.7-10.4,10.4c0,5.7,4.7,10.4,10.4,10.4h139.2c5.7,0,10.4-4.7,10.4-10.4
			C336,140.6,331.3,135.9,325.6,135.9z"/>
	</g>
	<g>
		<path fill="#788D9A" d="M256,26.4c-36.4,0-65.9,29.5-65.9,65.9v43.6h131.8V92.3C321.9,55.9,292.4,26.4,256,26.4z"/>
	</g>
	<g>
		<path fill="#8FA1AA" d="M256,26.4c-36.4,0-65.9,29.5-65.9,65.9v6.1c0-36.4,29.5-65.9,65.9-65.9s65.9,29.5,65.9,65.9v-6.1
			C321.9,55.9,292.4,26.4,256,26.4z"/>
	</g>
	<g>
		<polygon fill="#FFFFFF" points="199.6,444.6 313.3,341 261.5,341 326.6,275.9 231.3,275.9 185.4,365.3 249.4,365.3 		"/>
	</g>
</g>
</svg>
