<?xml version="1.0" encoding="utf-8"?>
<!-- Generator: Adobe Illustrator 18.0.0, SVG Export Plug-In . SVG Version: 6.00 Build 0)  -->
<!DOCTYPE svg PUBLIC "-//W3C//DTD SVG 1.1//EN" "http://www.w3.org/Graphics/SVG/1.1/DTD/svg11.dtd">
<svg version="1.1" id="Layer_1" xmlns="http://www.w3.org/2000/svg" xmlns:xlink="http://www.w3.org/1999/xlink" x="0px" y="0px"
	 viewBox="0 0 512 512" enable-background="new 0 0 512 512" xml:space="preserve">
<g>
	<g>
		<ellipse fill="#5AC8AE" cx="256" cy="470" rx="47.7" ry="40"/>
	</g>
	<g>
		<path fill="#FBD984" d="M423.8,169.8c0-96.2-81-173.5-178.5-167.4C160.1,7.6,91.5,78.2,88.4,163.5c-1.8,50.8,18.9,96.8,53,128.7
			c27.6,25.9,43,62.3,43,100.1v0.1h143.4v0c0-38.7,16.8-75,44.7-101.8C404,260.1,423.8,217.2,423.8,169.8z"/>
	</g>
	<g>
		<path fill="#788D9A" d="M184.3,392.4v63.3c0,16.4,13.3,29.7,29.7,29.7h83.9c16.4,0,29.7-13.3,29.7-29.7v-63.3H184.3z"/>
	</g>
	<g>
		<path fill="#445C6C" d="M329.1,405.2H182.9c-3.9,0-7,3.2-7,7c0,3.9,3.2,7,7,7h146.1c3.9,0,7-3.2,7-7
			C336.1,408.3,332.9,405.2,329.1,405.2z"/>
	</g>
	<g>
		<path fill="#445C6C" d="M329.1,430.3H182.9c-3.9,0-7,3.2-7,7c0,3.9,3.2,7,7,7h146.1c3.9,0,7-3.2,7-7
			C336.1,433.5,332.9,430.3,329.1,430.3z"/>
	</g>
	<g>
		<path fill="#445C6C" d="M329.1,455.5H182.9c-3.9,0-7,3.2-7,7c0,3.9,3.2,7,7,7h146.1c3.9,0,7-3.2,7-7
			C336.1,458.7,332.9,455.5,329.1,455.5z"/>
	</g>
	<g>
		<path fill="#EFF3F5" d="M390.2,195.5v-48.7l-30.6-5.3c-2.3-8-5.4-15.6-9.3-22.7l17.8-25.3l-34.4-34.4l-25.3,17.8
			c-7.1-3.9-14.7-7.1-22.7-9.3L280.4,37h-48.7l-5.3,30.6c-8,2.3-15.6,5.4-22.7,9.3l-25.3-17.8l-34.4,34.4l17.8,25.3
			c-3.9,7.1-7.1,14.7-9.3,22.7l-30.6,5.3v48.7l30.6,5.3c2.3,8,5.4,15.6,9.3,22.7l-17.8,25.3l34.4,34.4l25.3-17.8
			c7.1,3.9,14.7,7.1,22.7,9.3l5.3,30.6l48.7,0l5.3-30.6c8-2.3,15.6-5.4,22.7-9.3l25.3,17.8l34.4-34.4l-17.8-25.3
			c3.9-7.1,7.1-14.7,9.3-22.7L390.2,195.5z M256,226.7c-30.6,0-55.5-24.8-55.5-55.5c0-30.6,24.8-55.5,55.5-55.5
			c30.6,0,55.5,24.8,55.5,55.5C311.5,201.8,286.6,226.7,256,226.7z"/>
	</g>
	<g>
		<g>
			<path fill="#5AC8AE" d="M256,76.3c-52.4,0-94.9,42.5-94.9,94.9c0,52.4,42.5,94.9,94.9,94.9s94.9-42.5,94.9-94.9
				C350.9,118.8,308.4,76.3,256,76.3z M256,241.8c-39,0-70.6-31.6-70.6-70.6c0-39,31.6-70.6,70.6-70.6s70.6,31.6,70.6,70.6
				C326.6,210.2,295,241.8,256,241.8z"/>
		</g>
	</g>
</g>
</svg>
