<?xml version="1.0" encoding="utf-8"?>
<!-- Generator: Adobe Illustrator 18.0.0, SVG Export Plug-In . SVG Version: 6.00 Build 0)  -->
<!DOCTYPE svg PUBLIC "-//W3C//DTD SVG 1.1//EN" "http://www.w3.org/Graphics/SVG/1.1/DTD/svg11.dtd">
<svg version="1.1" id="Layer_1" xmlns="http://www.w3.org/2000/svg" xmlns:xlink="http://www.w3.org/1999/xlink" x="0px" y="0px"
	 viewBox="0 0 512 512" enable-background="new 0 0 512 512" xml:space="preserve">
<g>
	<g>
		<path fill="#EFF3F5" d="M423.6,188.4c7.4-19.5,5.1-42.2-8.1-60.3c-18.6-25.5-52.5-33.2-80-19.7C331.5,49,282,2,221.6,2
			c-63.1,0-114.3,51.2-114.3,114.3c0,11,1.6,21.5,4.5,31.6C50.7,150.2,2,200.4,2,262c0,63.1,51.2,114.3,114.3,114.3h299.6
			c52,0,94.1-42.1,94.1-94.1C510,232.8,472,192.4,423.6,188.4z"/>
	</g>
	<g>
		<polygon fill="#F1786B" points="154.8,348.5 264.2,348.5 130.3,510 381.7,309.2 264.2,309.2 371.8,201.6 254.8,201.6 		"/>
	</g>
</g>
</svg>
