<?xml version="1.0" encoding="utf-8"?>
<!-- Generator: Adobe Illustrator 18.0.0, SVG Export Plug-In . SVG Version: 6.00 Build 0)  -->
<!DOCTYPE svg PUBLIC "-//W3C//DTD SVG 1.1//EN" "http://www.w3.org/Graphics/SVG/1.1/DTD/svg11.dtd">
<svg version="1.1" id="Layer_1" xmlns="http://www.w3.org/2000/svg" xmlns:xlink="http://www.w3.org/1999/xlink" x="0px" y="0px"
	 viewBox="0 0 512 512" enable-background="new 0 0 512 512" xml:space="preserve">
<g>
	<g>
		<g>
			<path fill="#DBDFE0" d="M402.9,462.9H118.4c-59,0-106.9-48.1-106.9-107.2s48-107.2,106.9-107.2h275.2c54.2,0,98.3-44.2,98.3-98.6
				s-44.1-98.6-98.3-98.6H110.5V33.2h283.1c64.2,0,116.4,52.4,116.4,116.7c0,64.4-52.2,116.7-116.4,116.7H118.4
				c-49,0-88.8,40-88.8,89.1c0,49.1,39.9,89.1,88.8,89.1h284.5V462.9z"/>
		</g>
	</g>
	<g>
		<rect x="39.1" y="2" fill="#788D9A" width="54" height="80.6"/>
	</g>
	<g>
		<rect x="2" y="17.3" fill="#DBDFE0" width="37.1" height="50.1"/>
	</g>
	<g>
		<polygon fill="#EFF3F5" points="93.1,82.6 127.9,65.9 127.9,18.7 93.1,2 		"/>
	</g>
	<g>
		<path fill="#788D9A" d="M375.2,397.7c-15.6,0-28.3,12.7-28.3,28.4v55.5c0,15.7,12.7,28.4,28.3,28.4h83.7V397.7H375.2z"/>
	</g>
	<g>
		<rect x="458.9" y="417.8" fill="#EFF3F5" width="49.8" height="72.2"/>
	</g>
	<g>
		<g>
			<rect x="475.1" y="433.6" fill="#788D9A" width="17.3" height="7.9"/>
		</g>
		<g>
			<rect x="475.1" y="466.2" fill="#788D9A" width="17.3" height="7.9"/>
		</g>
	</g>
	<g>
		<g>
			<rect x="12.9" y="27.2" fill="#788D9A" width="15.3" height="7.1"/>
		</g>
		<g>
			<rect x="12.9" y="50.3" fill="#788D9A" width="15.3" height="7.1"/>
		</g>
	</g>
</g>
</svg>
