<?xml version="1.0" encoding="utf-8"?>
<!-- Generator: Adobe Illustrator 18.0.0, SVG Export Plug-In . SVG Version: 6.00 Build 0)  -->
<!DOCTYPE svg PUBLIC "-//W3C//DTD SVG 1.1//EN" "http://www.w3.org/Graphics/SVG/1.1/DTD/svg11.dtd">
<svg version="1.1" id="Layer_1" xmlns="http://www.w3.org/2000/svg" xmlns:xlink="http://www.w3.org/1999/xlink" x="0px" y="0px"
	 viewBox="0 0 512 512" enable-background="new 0 0 512 512" xml:space="preserve">
<g>
	<g>
		<polygon fill="#445C6C" points="151.5,264.4 308.7,264.4 379.9,351 98.6,351 		"/>
	</g>
	<g>
		<g>
			<path fill="#788D9A" d="M308.7,57.2H98.5c-29.8,0-54,24.2-54,54v250.6h16V111.2c0-20.9,17-38,38-38h210.2V57.2z"/>
		</g>
	</g>
	<g>
		<rect x="308.1" y="38" fill="#379FC8" width="27.9" height="54.4"/>
	</g>
	<g>
		<path fill="#41B3E2" d="M439.2,2l-59,0C345.3,2,317,30.3,317,65.2c0,34.9,28.3,63.2,63.2,63.2h59V2z"/>
	</g>
	<g>
		<rect x="429.6" y="2" fill="#56CBEF" width="9.6" height="126.5"/>
	</g>
	<g>
		<g>
			<path fill="#DBDFE0" d="M510,28.5c0-6.7-5.4-12.1-12.1-12.1l-58.6,0v24.3l58.6,0C504.6,40.7,510,35.3,510,28.5z"/>
		</g>
		<g>
			<path fill="#DBDFE0" d="M510,101.9c0-6.7-5.4-12.1-12.1-12.1l-58.6,0v24.3l58.6,0C504.6,114.1,510,108.6,510,101.9z"/>
		</g>
	</g>
	<g>
		<g>
			<path fill="#379FC8" d="M392.3,39.5V91c0,5.8,4.7,10.5,10.5,10.5s10.5-4.7,10.5-10.5V39.5c0-5.8-4.7-10.5-10.5-10.5
				S392.3,33.7,392.3,39.5z"/>
		</g>
		<g>
			<path fill="#379FC8" d="M377.3,91V39.5c0-5.8-4.7-10.5-10.5-10.5c-5.8,0-10.5,4.7-10.5,10.5V91c0,5.8,4.7,10.5,10.5,10.5
				C372.6,101.4,377.3,96.7,377.3,91z"/>
		</g>
	</g>
	<g>
		<path fill="#F1786B" d="M509.1,425.4l-14.5-51.3c-5.5-18.3-19.4-32.7-37.4-32.7h-63.4l-74.2-75.9c-4.9-5-11.6-7.8-18.6-7.8H157.3
			c-8.4,0-16.4,4.1-21.2,11l-51.3,72.7C39,342,2,379.2,2,425.2v11.5c0,9.5,7.7,17.2,17.2,17.2h468.5
			C502.5,453.8,513.2,439.7,509.1,425.4z M234.9,343.2H118.5l37.7-67.1c2.5-3.5,6.5-5.6,10.7-5.6h67.9V343.2z M248.1,343.2v-72.6
			h49.8c3.5,0,6.9,1.4,9.4,4l55.9,68.7H248.1z"/>
	</g>
	<g>
		<circle fill="#445C6C" cx="403.4" cy="453.8" r="56.2"/>
	</g>
	<g>
		<circle fill="#DBDFE0" cx="403.4" cy="453.8" r="35.5"/>
	</g>
	<g>
		<circle fill="#445C6C" cx="120.2" cy="453.8" r="56.2"/>
	</g>
	<g>
		<circle fill="#DBDFE0" cx="120.2" cy="453.8" r="35.5"/>
	</g>
</g>
</svg>
