<?xml version="1.0" encoding="utf-8"?>
<!-- Generator: Adobe Illustrator 18.0.0, SVG Export Plug-In . SVG Version: 6.00 Build 0)  -->
<!DOCTYPE svg PUBLIC "-//W3C//DTD SVG 1.1//EN" "http://www.w3.org/Graphics/SVG/1.1/DTD/svg11.dtd">
<svg version="1.1" id="Layer_1" xmlns="http://www.w3.org/2000/svg" xmlns:xlink="http://www.w3.org/1999/xlink" x="0px" y="0px"
	 viewBox="0 0 512 512" enable-background="new 0 0 512 512" xml:space="preserve">
<g>
	<g>
		<path fill="#788D9A" d="M457.8,186.4H54.2c-7.2,0-13,5.8-13,13V450c0,7.2,5.8,13,13,13h403.6c7.2,0,13-5.8,13-13V199.5
			C470.9,192.3,465,186.4,457.8,186.4z"/>
	</g>
	<g>
		<path fill="#445C6C" d="M2,463c0,25.9,21,47,47,47H463c25.9,0,47-21,47-47H2z"/>
	</g>
	<g>
		<rect x="64.8" y="207.8" fill="#EFF3F5" width="382.3" height="233.9"/>
	</g>
	<g>
		<path fill="#DBDFE0" d="M319.2,463H192.8c-2.7,0-4.9,2.2-4.9,4.9s2.2,4.9,4.9,4.9h126.4c2.7,0,4.9-2.2,4.9-4.9
			S321.9,463,319.2,463z"/>
	</g>
	<g>
		<rect x="213.5" y="273.4" fill="#379FC8" width="84.9" height="43.6"/>
	</g>
	<g>
		<path fill="#41B3E2" d="M157.3,112.4v92c0,54.5,44.2,98.7,98.7,98.7c54.5,0,98.7-44.2,98.7-98.7v-92H157.3z"/>
	</g>
	<g>
		<rect x="157.3" y="112.4" fill="#56CBEF" width="197.3" height="15"/>
	</g>
	<g>
		<g>
			<path fill="#DBDFE0" d="M198.8,2c-10.5,0-18.9,8.5-18.9,18.9v91.5h37.9V20.9C217.7,10.5,209.2,2,198.8,2z"/>
		</g>
		<g>
			<path fill="#DBDFE0" d="M313.2,2c-10.5,0-18.9,8.5-18.9,18.9v91.5h37.9V20.9C332.2,10.5,323.7,2,313.2,2z"/>
		</g>
	</g>
	<g>
		<g>
			<path fill="#379FC8" d="M215.9,185.6h80.2c9,0,16.4-7.3,16.4-16.4s-7.3-16.4-16.4-16.4h-80.2c-9,0-16.4,7.3-16.4,16.4
				S206.8,185.6,215.9,185.6z"/>
		</g>
		<g>
			<path fill="#379FC8" d="M296.1,209h-80.2c-9,0-16.4,7.3-16.4,16.4c0,9,7.3,16.4,16.4,16.4h80.2c9,0,16.4-7.3,16.4-16.4
				C312.5,216.4,305.2,209,296.1,209z"/>
		</g>
	</g>
	<g>
		<rect x="241" y="317" fill="#F1786B" width="29.9" height="94.5"/>
	</g>
</g>
</svg>
