<?xml version="1.0" encoding="utf-8"?>
<!-- Generator: Adobe Illustrator 18.0.0, SVG Export Plug-In . SVG Version: 6.00 Build 0)  -->
<!DOCTYPE svg PUBLIC "-//W3C//DTD SVG 1.1//EN" "http://www.w3.org/Graphics/SVG/1.1/DTD/svg11.dtd">
<svg version="1.1" id="Layer_1" xmlns="http://www.w3.org/2000/svg" xmlns:xlink="http://www.w3.org/1999/xlink" x="0px" y="0px"
	 viewBox="0 0 512 512" enable-background="new 0 0 512 512" xml:space="preserve">
<g>
	<g>
		<path fill="#DBDFE0" d="M491.2,2H20.8C10.4,2,2,10.4,2,20.8v470.4c0,10.4,8.4,18.8,18.8,18.8h470.4c10.4,0,18.8-8.4,18.8-18.8
			V20.8C510,10.4,501.6,2,491.2,2z"/>
	</g>
	<g>
		<path fill="#EFF3F5" d="M491.2,2H20.8C10.4,2,2,10.4,2,20.8v15.5C2,26,10.4,17.5,20.8,17.5h470.4c10.4,0,18.8,8.4,18.8,18.8V20.8
			C510,10.4,501.6,2,491.2,2z"/>
	</g>
	<g>
		<path fill="#F1786B" d="M395.7,93.9H116.3c-30.3,0-54.9,24.6-54.9,54.9c0,30.3,24.6,54.9,54.9,54.9h279.4
			c30.3,0,54.9-24.6,54.9-54.9C450.6,118.5,426,93.9,395.7,93.9z"/>
	</g>
	<g>
		<path fill="#5AC8AE" d="M395.7,308.3H116.3c-30.3,0-54.9,24.6-54.9,54.9c0,30.3,24.6,54.9,54.9,54.9h279.4
			c30.3,0,54.9-24.6,54.9-54.9C450.6,332.9,426,308.3,395.7,308.3z"/>
	</g>
	<g>
		<path fill="#FC8E86" d="M395.7,184.7H116.3c-27.1,0-49.5-19.6-54-45.4c-0.5,3.1-0.9,6.2-0.9,9.5c0,30.3,24.6,54.9,54.9,54.9h279.4
			c30.3,0,54.9-24.6,54.9-54.9c0-3.2-0.3-6.4-0.9-9.5C445.2,165.1,422.8,184.7,395.7,184.7z"/>
	</g>
	<g>
		<path fill="#79DBC1" d="M395.7,399.1H116.3c-27.1,0-49.5-19.6-54-45.4c-0.5,3.1-0.9,6.2-0.9,9.5c0,30.3,24.6,54.9,54.9,54.9h279.4
			c30.3,0,54.9-24.6,54.9-54.9c0-3.2-0.3-6.4-0.9-9.5C445.2,379.5,422.8,399.1,395.7,399.1z"/>
	</g>
	<g>
		<circle fill="#EFF3F5" cx="362.2" cy="148.8" r="88.3"/>
	</g>
	<g>
		<circle fill="#788D9A" cx="362.2" cy="148.8" r="65.7"/>
	</g>
	<g>
		<circle fill="#EFF3F5" cx="149.8" cy="363.2" r="88.3"/>
	</g>
	<g>
		<circle fill="#788D9A" cx="149.8" cy="363.2" r="65.7"/>
	</g>
</g>
</svg>
