<?xml version="1.0" encoding="utf-8"?>
<!-- Generator: Adobe Illustrator 18.0.0, SVG Export Plug-In . SVG Version: 6.00 Build 0)  -->
<!DOCTYPE svg PUBLIC "-//W3C//DTD SVG 1.1//EN" "http://www.w3.org/Graphics/SVG/1.1/DTD/svg11.dtd">
<svg version="1.1" id="Layer_1" xmlns="http://www.w3.org/2000/svg" xmlns:xlink="http://www.w3.org/1999/xlink" x="0px" y="0px"
	 viewBox="0 0 512 512" enable-background="new 0 0 512 512" xml:space="preserve">
<g>
	<g>
		<path fill="#5AC8AE" d="M405.5,38.2H106.5c-9.7,0-17.6,7.9-17.6,17.6v436.6c0,9.7,7.9,17.6,17.6,17.6h298.9
			c9.7,0,17.6-7.9,17.6-17.6V55.8C423.1,46.1,415.2,38.2,405.5,38.2z"/>
	</g>
	<g>
		<path fill="#6FD8BC" d="M405.5,38.2H106.5c-9.7,0-17.6,7.9-17.6,17.6V64c0-9.7,7.9-17.6,17.6-17.6h298.9c9.7,0,17.6,7.9,17.6,17.6
			v-8.2C423.1,46.1,415.2,38.2,405.5,38.2z"/>
	</g>
	<g>
		<rect x="122.6" y="74.1" fill="#EFF3F5" width="266.8" height="400"/>
	</g>
	<g>
		<path fill="#429B92" d="M304.8,2h-97.7c-7.6,0-13.7,6.1-13.7,13.7v22.5h125.1V15.7C318.6,8.1,312.4,2,304.8,2z"/>
	</g>
	<g>
		<path fill="#52AA9F" d="M304.8,2h-97.7c-7.6,0-13.7,6.1-13.7,13.7v7.9c0-7.6,6.1-13.7,13.7-13.7h97.7c7.6,0,13.7,6.1,13.7,13.7
			v-7.9C318.6,8.1,312.4,2,304.8,2z"/>
	</g>
	<g>
		<polygon fill="#F1786B" points="322.5,103.6 184.7,292.5 244.1,292.5 176.4,444.6 335.6,243.8 269.1,243.8 		"/>
	</g>
</g>
</svg>
