<?xml version="1.0" encoding="utf-8"?>
<!-- Generator: Adobe Illustrator 18.0.0, SVG Export Plug-In . SVG Version: 6.00 Build 0)  -->
<!DOCTYPE svg PUBLIC "-//W3C//DTD SVG 1.1//EN" "http://www.w3.org/Graphics/SVG/1.1/DTD/svg11.dtd">
<svg version="1.1" id="Layer_1" xmlns="http://www.w3.org/2000/svg" xmlns:xlink="http://www.w3.org/1999/xlink" x="0px" y="0px"
	 viewBox="0 0 512 512" enable-background="new 0 0 512 512" xml:space="preserve">
<g>
	<path d="M424.7,124.8V106c0-10.4-8.4-18.7-18.8-18.7c-10.4,0-18.7,8.4-18.7,18.7v18.7H331V68.5h-37.5v56.2h-56.2V106
		c0-10.4-8.4-18.7-18.7-18.7c-10.4,0-18.7,8.4-18.7,18.7v18.7H181v37.5h112.5v281.2H331V162.3h112.5v-37.5H424.7z"/>
	<path d="M237.3,218.5c-10.4,0-18.7,8.4-18.7,18.7V256H181v-56.2h-37.5V256H106v-18.7c0-10.4-8.4-18.7-18.7-18.7
		s-18.7,8.4-18.7,18.7V256v37.5h75v150H181v-150h75V256v-18.7C256,226.9,247.6,218.5,237.3,218.5z"/>
</g>
</svg>
