<?xml version="1.0" encoding="utf-8"?>
<!-- Generator: Adobe Illustrator 18.0.0, SVG Export Plug-In . SVG Version: 6.00 Build 0)  -->
<!DOCTYPE svg PUBLIC "-//W3C//DTD SVG 1.1//EN" "http://www.w3.org/Graphics/SVG/1.1/DTD/svg11.dtd">
<svg version="1.1" id="Layer_1" xmlns="http://www.w3.org/2000/svg" xmlns:xlink="http://www.w3.org/1999/xlink" x="0px" y="0px"
	 viewBox="0 0 512 512" enable-background="new 0 0 512 512" xml:space="preserve">
<path d="M74.1,301.4C99.2,401.8,201,462.8,301.5,437.8C401.9,412.7,463,311,437.9,210.6C412.8,110.2,311,49.2,210.5,74.2
	C110.1,99.3,49,201,74.1,301.4z M110.5,292.3c-4.9-19.6-5.6-39.4-2.8-58.4l74.2,11c-1.5,9.5-1.1,19.4,1.3,29.2
	c2.5,9.8,6.8,18.8,12.6,26.4l-60.3,44.6C124.1,329.6,115.4,311.9,110.5,292.3z M393.5,315.7c-7.7,17.6-18.7,34-33.3,48.1
	c-14.6,14.1-31.3,24.5-49.2,31.6l-27.6-69.8c8.9-3.4,17.4-8.7,24.7-15.7c7.3-7,12.9-15.3,16.6-24.1L393.5,315.7z M292.4,246.9
	c5,20-7.2,40.4-27.3,45.4c-20.1,5-40.4-7.2-45.5-27.3c-5-20,7.2-40.4,27.3-45.4C267,214.6,287.4,226.9,292.4,246.9z M297.3,111.9
	c19.5,5.6,36.9,14.9,52,26.8l-46.6,58.7c-7.4-6-16.2-10.7-26-13.5c-9.7-2.8-19.7-3.5-29.2-2.3l-8.5-74.5
	C258.1,105,277.8,106.4,297.3,111.9z"/>
</svg>
