<?xml version="1.0" encoding="utf-8"?>
<!-- Generator: Adobe Illustrator 18.0.0, SVG Export Plug-In . SVG Version: 6.00 Build 0)  -->
<!DOCTYPE svg PUBLIC "-//W3C//DTD SVG 1.1//EN" "http://www.w3.org/Graphics/SVG/1.1/DTD/svg11.dtd">
<svg version="1.1" id="Layer_1" xmlns="http://www.w3.org/2000/svg" xmlns:xlink="http://www.w3.org/1999/xlink" x="0px" y="0px"
	 viewBox="0 0 512 512" enable-background="new 0 0 512 512" xml:space="preserve">
<g>
	<path d="M443.5,181c0-25.9-10.5-49.3-27.4-66.2c-17.1-17.1-40.5-27.6-66.4-27.6H162.3c-51.7,0-93.7,42-93.7,93.7
		c0,26.1,10.5,49.3,27.4,66.4c17.1,16.9,40.5,27.4,66.4,27.4H68.5v75h29.1c12.7-22.3,37.1-37.5,64.7-37.5
		c27.7,0,51.9,15.2,64.9,37.5h57.9c12.8-22.3,37.1-37.5,64.7-37.5c27.7,0,51.9,15.2,64.9,37.5h28.9v-75h-93.7
		C401.5,274.8,443.5,232.9,443.5,181z"/>
	<path d="M162.3,349.7c-20.6,0-37.5,16.9-37.5,37.5c0,20.8,16.9,37.5,37.5,37.5c20.8,0,37.5-16.7,37.5-37.5
		C199.8,366.6,183.1,349.7,162.3,349.7z"/>
	<path d="M349.7,349.7c-20.6,0-37.5,16.9-37.5,37.5c0,20.8,16.9,37.5,37.5,37.5c20.8,0,37.5-16.7,37.5-37.5
		C387.2,366.6,370.6,349.7,349.7,349.7z"/>
</g>
</svg>
