<?xml version="1.0" encoding="utf-8"?>
<!-- Generator: Adobe Illustrator 18.0.0, SVG Export Plug-In . SVG Version: 6.00 Build 0)  -->
<!DOCTYPE svg PUBLIC "-//W3C//DTD SVG 1.1//EN" "http://www.w3.org/Graphics/SVG/1.1/DTD/svg11.dtd">
<svg version="1.1" id="Layer_1" xmlns="http://www.w3.org/2000/svg" xmlns:xlink="http://www.w3.org/1999/xlink" x="0px" y="0px"
	 viewBox="0 0 512 512" enable-background="new 0 0 512 512" xml:space="preserve">
<g>
	<path d="M355.2,318.6c-3.2,18-18.8,31.1-37.1,31.1h-24.5v18.7h-18.8v75h-37.6v-75h-18.8v-18.7h-24.5c-18.3,0-33.9-13.1-37.1-31.1
		c-6.8-39.6-14.5-116.6-13.2-156.4h37.1v-75c0-10.3,8.5-18.7,18.8-18.7c10.3,0,18.8,8.4,18.8,18.7v75h75.3v-75
		c0-10.3,8.5-18.7,18.8-18.7c10.3,0,18.8,8.4,18.8,18.7v75h37.1C369.7,202,362,279.1,355.2,318.6z"/>
</g>
</svg>
