<?xml version="1.0" encoding="utf-8"?>
<!-- Generator: Adobe Illustrator 18.0.0, SVG Export Plug-In . SVG Version: 6.00 Build 0)  -->
<!DOCTYPE svg PUBLIC "-//W3C//DTD SVG 1.1//EN" "http://www.w3.org/Graphics/SVG/1.1/DTD/svg11.dtd">
<svg version="1.1" id="Layer_1" xmlns="http://www.w3.org/2000/svg" xmlns:xlink="http://www.w3.org/1999/xlink" x="0px" y="0px"
	 viewBox="0 0 512 512" enable-background="new 0 0 512 512" xml:space="preserve">
<g>
	<path d="M256,143.5c-51.7,0-93.7,42-93.7,93.7c0,21.2,17.4,52.9,36.9,83.1c9,14.2,16.7,31.1,19.3,48.2h75
		c2.6-17.1,10.3-33.9,19.3-48.2c19.5-30.2,36.9-61.9,36.9-83.1C349.7,185.5,307.7,143.5,256,143.5z"/>
	<path d="M274.8,406h-37.5c-10.4,0-18.7,8.4-18.7,18.8c0,10.4,8.4,18.7,18.7,18.7h37.5c10.4,0,18.7-8.4,18.7-18.7
		C293.5,414.4,285.1,406,274.8,406z"/>
	<rect x="237.3" y="68.5" width="37.5" height="37.5"/>
	<rect x="387.2" y="218.5" width="37.5" height="37.5"/>
	<rect x="87.3" y="218.5" width="37.5" height="37.5"/>
	<rect x="343.3" y="112.4" transform="matrix(0.7071 -0.7071 0.7071 0.7071 13.2909 294.4539)" width="37.5" height="37.5"/>
	<rect x="131.2" y="112.4" transform="matrix(0.7071 -0.7071 0.7071 0.7071 -48.8466 144.4344)" width="37.5" height="37.5"/>
</g>
</svg>
