<?xml version="1.0" encoding="utf-8"?>
<!-- Generator: Adobe Illustrator 18.0.0, SVG Export Plug-In . SVG Version: 6.00 Build 0)  -->
<!DOCTYPE svg PUBLIC "-//W3C//DTD SVG 1.1//EN" "http://www.w3.org/Graphics/SVG/1.1/DTD/svg11.dtd">
<svg version="1.1" id="Layer_1" xmlns="http://www.w3.org/2000/svg" xmlns:xlink="http://www.w3.org/1999/xlink" x="0px" y="0px"
	 viewBox="0 0 512 512" enable-background="new 0 0 512 512" xml:space="preserve">
<g>
	<path d="M68.5,181v206.2h40.9c7.7-21.7,28.5-37.5,52.9-37.5c24.6,0,45.4,15.7,52.9,37.5h81.7c7.7-21.7,28.5-37.5,52.9-37.5
		c24.6,0,45.4,15.7,52.9,37.5h40.9V181H68.5z M162.3,312.3h-37.5v-93.7h37.5V312.3z M237.3,312.3h-37.5v-93.7h37.5V312.3z
		 M312.3,312.3h-37.5v-93.7h37.5V312.3z M387.3,312.3h-37.5v-93.7h37.5V312.3z"/>
	<ellipse cx="162.3" cy="406" rx="37.5" ry="37.5"/>
	<ellipse cx="349.8" cy="406" rx="37.5" ry="37.5"/>
	<path d="M406,143.1c0-20.6-16.9-37.5-37.5-37.5c-9,0-17.1,3.4-23.4,8.6c-7.5-15.9-23.6-27-42.2-27c-4.9,0-9.4,0.9-13.7,2.3
		c-13.5-12.9-31.7-21-51.9-21c-19.3,0-36.6,7.5-49.9,19.5c-2.1-0.4-4.3-0.8-6.6-0.8c-13.9,0-25.9,7.7-32.2,18.9
		c-1.7-0.2-3.4-0.6-5.1-0.6c-20.6,0-37.5,16.9-37.5,37.5v0.4h300V143.1z"/>
</g>
</svg>
