<?xml version="1.0" encoding="utf-8"?>
<!-- Generator: Adobe Illustrator 18.0.0, SVG Export Plug-In . SVG Version: 6.00 Build 0)  -->
<!DOCTYPE svg PUBLIC "-//W3C//DTD SVG 1.1//EN" "http://www.w3.org/Graphics/SVG/1.1/DTD/svg11.dtd">
<svg version="1.1" id="Layer_1" xmlns="http://www.w3.org/2000/svg" xmlns:xlink="http://www.w3.org/1999/xlink" x="0px" y="0px"
	 viewBox="0 0 512 512" enable-background="new 0 0 512 512" xml:space="preserve">
<g>
	<path d="M443.5,256l-43.1,45.3L387.4,315l-23.3-24.4L331,256h37.5c0-65.9-44.3-121-103.1-134.6l30-31.5
		C360.1,114.5,406,179.6,406,256H443.5z"/>
	<path d="M134.1,68.5L193,85.1l17.8,4.9l-8.5,33.3l-12,47.5l-18.8-34.1c-54.4,33-77.7,100.8-59.5,161.1l-41-11.5
		c-12-71.1,18.7-145.4,81.7-183.6L134.1,68.5z"/>
	<path d="M134.1,443.5l-15.8-61.8l-4.9-18.6l31.8-8.9l45.2-12.9l-18.8,34.1c54.4,33,122,20.3,162.7-26.4l11,43
		c-52.6,46.5-129.4,55.7-192.4,17.5L134.1,443.5z"/>
</g>
</svg>
