<?xml version="1.0" encoding="utf-8"?>
<!-- Generator: Adobe Illustrator 18.0.0, SVG Export Plug-In . SVG Version: 6.00 Build 0)  -->
<!DOCTYPE svg PUBLIC "-//W3C//DTD SVG 1.1//EN" "http://www.w3.org/Graphics/SVG/1.1/DTD/svg11.dtd">
<svg version="1.1" id="Layer_1" xmlns="http://www.w3.org/2000/svg" xmlns:xlink="http://www.w3.org/1999/xlink" x="0px" y="0px"
	 viewBox="0 0 512 512" enable-background="new 0 0 512 512" xml:space="preserve">
<path d="M406,124.8V87.3h-75V68.5h-56.2v18.7H106v37.5h18.7V256H106v37.5h18.7V406H106v37.5h300V406h-18.7V293.5H406V256h-18.7
	V124.8H406z M237.2,143.5c0,0,18.7,27.2,18.7,37.5c0,10.3-8.4,18.7-18.7,18.7s-18.7-8.4-18.7-18.7
	C218.5,170.7,237.2,143.5,237.2,143.5z M218.5,368.5c-20.7,0-37.5-16.8-37.5-37.5s37.5-75,37.5-75s37.5,54.3,37.5,75
	S239.2,368.5,218.5,368.5z M312.3,256c-10.4,0-18.7-8.4-18.7-18.7c0-10.4,18.7-37.5,18.7-37.5s18.7,27.2,18.7,37.5
	C331,247.6,322.6,256,312.3,256z"/>
</svg>
