<?xml version="1.0" encoding="utf-8"?>
<!-- Generator: Adobe Illustrator 18.0.0, SVG Export Plug-In . SVG Version: 6.00 Build 0)  -->
<!DOCTYPE svg PUBLIC "-//W3C//DTD SVG 1.1//EN" "http://www.w3.org/Graphics/SVG/1.1/DTD/svg11.dtd">
<svg version="1.1" id="Layer_1" xmlns="http://www.w3.org/2000/svg" xmlns:xlink="http://www.w3.org/1999/xlink" x="0px" y="0px"
	 viewBox="0 0 512 512" enable-background="new 0 0 512 512" xml:space="preserve">
<g>
	<path d="M406,68.5H106c-20.7,0-37.5,16.8-37.5,37.5v300c0,20.7,16.8,37.5,37.5,37.5h300c20.7,0,37.5-16.8,37.5-37.5V106
		C443.5,85.3,426.7,68.5,406,68.5z M387.2,387.2H124.8V124.8h262.5V387.2z"/>
	<path d="M256,237.3c10.4,0,18.8-8.4,18.8-18.7V181c0-10.4-8.4-18.7-18.8-18.7c-10.4,0-18.7,8.4-18.7,18.7v37.5
		C237.3,228.9,245.6,237.3,256,237.3z"/>
	<circle cx="190.4" cy="321.6" r="28.1"/>
	<circle cx="321.6" cy="321.6" r="28.1"/>
</g>
</svg>
