<?xml version="1.0" encoding="utf-8"?>
<!-- Generator: Adobe Illustrator 18.0.0, SVG Export Plug-In . SVG Version: 6.00 Build 0)  -->
<!DOCTYPE svg PUBLIC "-//W3C//DTD SVG 1.1//EN" "http://www.w3.org/Graphics/SVG/1.1/DTD/svg11.dtd">
<svg version="1.1" id="Layer_1" xmlns="http://www.w3.org/2000/svg" xmlns:xlink="http://www.w3.org/1999/xlink" x="0px" y="0px"
	 viewBox="0 0 512 512" enable-background="new 0 0 512 512" xml:space="preserve">
<g>
	<path d="M443.5,162.3v112.5h-56.2V256h-75c0,10.3-8.4,18.7-18.7,18.7h-75c-10.3,0-18.7-8.4-18.7-18.7h-37.5v56.2H181v37.5H68.5
		v-37.5h18.7v-75c0-31.1,25.1-56.2,56.2-56.2h56.2c0-10.5,8.4-18.7,18.7-18.7h18.7V106H181c-10.3,0-18.7-8.4-18.7-18.7
		c0-10.5,8.4-18.7,18.7-18.7h150c10.3,0,18.7,8.2,18.7,18.7c0,10.3-8.4,18.7-18.7,18.7h-56.2v56.2h18.8c10.3,0,18.7,8.3,18.7,18.7
		h75v-18.7H443.5z"/>
	<path d="M124.8,387.2c0,0,18.7,27,18.7,37.5c0,10.3-8.4,18.8-18.7,18.8s-18.7-8.4-18.7-18.8C106,414.2,124.8,387.2,124.8,387.2z"/>
</g>
</svg>
