<?xml version="1.0" encoding="utf-8"?>
<!-- Generator: Adobe Illustrator 18.0.0, SVG Export Plug-In . SVG Version: 6.00 Build 0)  -->
<!DOCTYPE svg PUBLIC "-//W3C//DTD SVG 1.1//EN" "http://www.w3.org/Graphics/SVG/1.1/DTD/svg11.dtd">
<svg version="1.1" id="Layer_1" xmlns="http://www.w3.org/2000/svg" xmlns:xlink="http://www.w3.org/1999/xlink" x="0px" y="0px"
	 viewBox="0 0 512 512" enable-background="new 0 0 512 512" xml:space="preserve">
<g>
	<path d="M207.3,146.9l110.5-40.3c10.2-3.7,15.4-15,11.7-25.2c-3.7-10.2-15-15.4-25.1-11.7L193.9,110c-10.2,3.7-15.4,15-11.7,25.2
		C185.9,145.3,197.1,150.6,207.3,146.9z"/>
	<path d="M207.3,221.9l110.5-40.3c10.2-3.7,15.4-15,11.7-25.2c-3.7-10.2-15-15.4-25.1-11.7L193.9,185c-10.2,3.7-15.4,15-11.7,25.2
		C185.9,220.3,197.1,225.6,207.3,221.9z"/>
	<path d="M330.5,237.2c-0.1-2-0.2-4.1-0.9-6.1c-3.7-10.2-15-15.4-25.1-11.7l-110.5,40.2c-6.8,2.5-11.1,8.4-12.3,15l-0.4,18.7
		c0,31,25.2,56.1,56.2,56.1h37.4c31,0,56.2-25.2,56.2-56.1L330.5,237.2z"/>
	<path d="M218.4,424.7c0,10.4,8.4,18.8,18.7,18.8h37.4c10.3,0,18.7-8.4,18.7-18.8v-37.5h-74.9V424.7z"/>
</g>
</svg>
