<?xml version="1.0" encoding="utf-8"?>
<!-- Generator: Adobe Illustrator 18.0.0, SVG Export Plug-In . SVG Version: 6.00 Build 0)  -->
<!DOCTYPE svg PUBLIC "-//W3C//DTD SVG 1.1//EN" "http://www.w3.org/Graphics/SVG/1.1/DTD/svg11.dtd">
<svg version="1.1" id="Layer_1" xmlns="http://www.w3.org/2000/svg" xmlns:xlink="http://www.w3.org/1999/xlink" x="0px" y="0px"
	 viewBox="0 0 512 512" enable-background="new 0 0 512 512" xml:space="preserve">
<g>
	<path d="M330.8,124.8c-31,0-56.2,25.2-56.2,56.3c0,31,25.2,56.3,56.2,56.3c31,0,56.2-25.2,56.2-56.3
		C387,150,361.8,124.8,330.8,124.8z"/>
	<path d="M343.7,107.1l-12.9-38.6l-12.9,38.6c4.1-0.8,8.4-1.1,12.9-1.1S339.6,106.4,343.7,107.1z"/>
	<path d="M330.8,256.6c-4.5,0-8.8-0.4-12.9-1.1l12.9,38.6l12.9-38.6C339.6,256.2,335.3,256.6,330.8,256.6z"/>
	<path d="M443.5,181.3l-38.6-12.9c0.8,4.1,1.1,8.4,1.1,12.9s-0.4,8.8-1.1,12.9L443.5,181.3z"/>
	<path d="M255.5,181.3c0-4.5,0.4-8.8,1.1-12.9l-38.6,12.9l38.6,12.9C255.9,190.1,255.5,185.8,255.5,181.3z"/>
	<path d="M392.3,138l18.1-36.5l-36.4,18.2c3.4,2.4,6.8,5.2,9.9,8.4C387.2,131.2,390,134.6,392.3,138z"/>
	<path d="M287.5,242.9c-3.4-2.4-6.8-5.2-9.9-8.4c-3.2-3.2-6-6.5-8.3-9.9l-18.1,36.5L287.5,242.9z"/>
	<path d="M384,234.6c-3.2,3.2-6.5,6-9.9,8.4l36.4,18.2l-18.1-36.5C390,228.1,387.2,231.4,384,234.6z"/>
	<path d="M277.6,128.1c3.2-3.2,6.5-6,9.9-8.3l-36.4-18.2l18.1,36.5C271.6,134.6,274.4,131.2,277.6,128.1z"/>
	<path d="M312,368.5c0-20.6-16.7-37.5-37.5-37.5c-3.2,0-6.4,0.4-9.4,1.3c-12.7-23.2-37.3-38.8-65.6-38.8c-41.4,0-74.9,33.6-74.9,75
		c0,1.7,0,3.4,0.2,5.1c-5.4-3.2-12-5.1-18.9-5.1c-20.6,0-37.5,16.9-37.5,37.5c0,20.8,16.9,37.5,37.5,37.5c17.2,0,185.5,0,206.1,0
		c20.8,0,37.5-16.7,37.5-37.5C349.5,385.4,332.8,368.5,312,368.5z"/>
</g>
</svg>
