<?xml version="1.0" encoding="utf-8"?>
<!-- Generator: Adobe Illustrator 18.0.0, SVG Export Plug-In . SVG Version: 6.00 Build 0)  -->
<!DOCTYPE svg PUBLIC "-//W3C//DTD SVG 1.1//EN" "http://www.w3.org/Graphics/SVG/1.1/DTD/svg11.dtd">
<svg version="1.1" id="Layer_1" xmlns="http://www.w3.org/2000/svg" xmlns:xlink="http://www.w3.org/1999/xlink" x="0px" y="0px"
	 viewBox="0 0 512 512" enable-background="new 0 0 512 512" xml:space="preserve">
<g>
	<path d="M330.9,255.8c31,0,56.2-25.2,56.2-56.3c0-31-25.2-56.3-56.2-56.3c-31,0-56.2,25.2-56.2,56.3
		C274.7,230.5,299.9,255.8,330.9,255.8z"/>
	<path d="M343.8,125.6l-12.9-38.6l-12.9,38.6c4.1-0.8,8.4-1.1,12.9-1.1C335.3,124.4,339.6,124.8,343.8,125.6z"/>
	<path d="M317.9,273.9l12.9,38.6l12.9-38.6c-4.1,0.7-8.4,1.1-12.9,1.1C326.4,275.1,322,274.7,317.9,273.9z"/>
	<path d="M404.9,186.8c0.8,4.1,1.1,8.4,1.1,12.9s-0.4,8.8-1.1,12.9l38.6-12.9L404.9,186.8z"/>
	<path d="M218.2,199.8l38.6,12.9c-0.7-4.1-1.1-8.4-1.1-12.9s0.4-8.8,1.1-12.9L218.2,199.8z"/>
	<path d="M392.4,156.4l18.1-36.5l-36.4,18.2c3.4,2.4,6.8,5.2,9.9,8.3C387.2,149.7,390,153,392.4,156.4z"/>
	<path d="M277.7,253c-3.2-3.2-6-6.5-8.3-9.9l-18.1,36.5l36.4-18.2C284.2,259,280.8,256.2,277.7,253z"/>
	<path d="M384,253c-3.2,3.2-6.5,6-9.9,8.4l36.4,18.2l-18.1-36.5C390,246.5,387.2,249.8,384,253z"/>
	<path d="M277.7,146.5c3.2-3.2,6.5-6,9.9-8.3L251.2,120l18.1,36.5C271.7,153,274.5,149.7,277.7,146.5z"/>
	<polygon points="180.9,349.7 255.9,349.7 189,256 237.2,256 187.2,181 218.4,181 162.2,68.5 106,181 137.2,181 87.2,256 135.4,256 
		68.5,349.7 143.5,349.7 143.5,406 68.5,406 68.5,443.5 443.3,443.5 443.3,406 180.9,406 	"/>
</g>
</svg>
