<?xml version="1.0" encoding="utf-8"?>
<!-- Generator: Adobe Illustrator 18.0.0, SVG Export Plug-In . SVG Version: 6.00 Build 0)  -->
<!DOCTYPE svg PUBLIC "-//W3C//DTD SVG 1.1//EN" "http://www.w3.org/Graphics/SVG/1.1/DTD/svg11.dtd">
<svg version="1.1" id="Layer_1" xmlns="http://www.w3.org/2000/svg" xmlns:xlink="http://www.w3.org/1999/xlink" x="0px" y="0px"
	 viewBox="0 0 512 512" enable-background="new 0 0 512 512" xml:space="preserve">
<g>
	<path d="M443.5,248.5c-10.8,5.4-23.3,8.2-36,8.2c-13.3,0-26.5-3.2-37.7-9.4c-22.6-12.4-53.5-12.4-75.8,0c-5.9,3.4-12.3,5.6-19,7.3
		v132.6c0,31.1-25.6,56.2-56.9,56.2c-31.3,0-56.9-25.1-56.9-56.2l0,0c0-10.4,8.5-18.8,19-18.8l0,0c10.5,0,19,8.4,19,18.8l0,0
		c0,10.3,8.5,18.7,19,18.7c10.4,0,19-8.4,19-18.7V254.7c-6.6-1.7-13.1-3.9-19-7.3c-22.6-12.4-53.5-12.4-75.8,0
		c-21.8,12.2-51.6,12.4-73.7,0.9C80.6,163.6,150.2,96.8,237,88.2v-0.9c0-10.3,8.5-18.7,19-18.7c10.4,0,19,8.4,19,18.7v0.9
		C362,96.8,431.6,163.6,443.5,248.5z"/>
</g>
</svg>
