<?xml version="1.0" encoding="utf-8"?>
<!-- Generator: Adobe Illustrator 18.0.0, SVG Export Plug-In . SVG Version: 6.00 Build 0)  -->
<!DOCTYPE svg PUBLIC "-//W3C//DTD SVG 1.1//EN" "http://www.w3.org/Graphics/SVG/1.1/DTD/svg11.dtd">
<svg version="1.1" id="Layer_1" xmlns="http://www.w3.org/2000/svg" xmlns:xlink="http://www.w3.org/1999/xlink" x="0px" y="0px"
	 viewBox="0 0 512 512" enable-background="new 0 0 512 512" xml:space="preserve">
<path d="M387.2,258.4l-13.2-1.7L346.7,106h-53.2v37.5h21.8l10.2,56.2h-88.3V181H256v-37.5h-75V181h18.7v32.1l-31.5,47.2
	c-7.7-2.8-16.1-4.3-24.7-4.3c-41.4,0-75,33.6-75,75s33.6,75,75,75c34.9,0,64.3-23.8,72.6-56.2h79.9c8.3,32.4,37.7,56.2,72.6,56.2
	c41.4,0,75-33.6,75-75C443.5,296.1,419.7,266.7,387.2,258.4z M176.1,349.7c-6.6,11.3-18.7,18.7-32.6,18.7
	c-20.6,0-37.5-16.7-37.5-37.5c0-20.6,16.9-37.5,37.5-37.5c0.8,0,1.7,0,2.4,0.2c19.5,1.1,35.1,17.4,35.1,37.3
	C181,337.9,179.3,344.3,176.1,349.7z M295.9,312.2h-79.9c-3-11.8-8.8-22.5-16.7-31.3l29.1-43.7h104l4.7,25.8
	C316.9,272.4,301.6,290.2,295.9,312.2z M368.5,368.5c-20.6,0-37.5-16.7-37.5-37.5c0-20.6,16.9-37.5,37.5-37.5
	c20.6,0,37.5,16.9,37.5,37.5C406,351.8,389.1,368.5,368.5,368.5z"/>
</svg>
