<?xml version="1.0" encoding="utf-8"?>
<!-- Generator: Adobe Illustrator 18.0.0, SVG Export Plug-In . SVG Version: 6.00 Build 0)  -->
<!DOCTYPE svg PUBLIC "-//W3C//DTD SVG 1.1//EN" "http://www.w3.org/Graphics/SVG/1.1/DTD/svg11.dtd">
<svg version="1.1" id="Layer_1" xmlns="http://www.w3.org/2000/svg" xmlns:xlink="http://www.w3.org/1999/xlink" x="0px" y="0px"
	 viewBox="0 0 512 512" enable-background="new 0 0 512 512" xml:space="preserve">
<path d="M321.6,181c15.5,0,28.1-8.4,28.1-18.7c0-10.4-12.6-18.7-28.1-18.7c-8.1,0-20.5,2.3-30.5,6c-0.4-1-0.8-2.1-1.2-3.1
	c9.7-4.5,20-11.6,25.8-17.3c11-11,14-25.8,6.6-33.1c-7.3-7.3-22.2-4.4-33.1,6.6c-5.7,5.7-12.8,16.1-17.3,25.8c-1-0.5-2-0.9-3.1-1.2
	c3.7-10,6-22.4,6-30.5c0-15.5-8.4-28.1-18.7-28.1s-18.7,12.6-18.7,28.1c0,8.1,2.3,20.5,6,30.5c-1,0.4-2.1,0.8-3.1,1.2
	c-4.5-9.7-11.6-20-17.3-25.8c-11-11-25.8-13.9-33.1-6.6c-7.3,7.3-4.4,22.2,6.6,33.1c5.7,5.7,16.1,12.8,25.8,17.3
	c-0.5,1-0.9,2-1.2,3.1c-10-3.7-22.4-6-30.5-6c-15.5,0-28.1,8.4-28.1,18.7c0,10.4,12.6,18.7,28.1,18.7c8.1,0,20.5-2.3,30.5-6
	c0.4,1,0.8,2.1,1.2,3.1c-9.7,4.5-20,11.6-25.8,17.3c-11,11-14,25.8-6.6,33.1c7.3,7.3,22.2,4.4,33.1-6.6c4.6-4.6,10.1-12.3,14.4-20.1
	v80.1C223.5,266.1,203.5,256,181,256c0,34.9,24,64,56.3,72.4v21.4h-37.5v18.7l18.7,75h75l18.7-75v-18.7h-37.5v-21.4
	C307,320,331,290.9,331,256c-22.5,0-42.5,10.1-56.2,25.8v-80c4.3,7.8,9.8,15.5,14.4,20.1c11,11,25.8,13.9,33.1,6.6
	c7.3-7.3,4.4-22.2-6.6-33.1c-5.7-5.7-16.1-12.8-25.8-17.3c0.5-1,0.9-2,1.2-3.1C301.1,178.7,313.5,181,321.6,181z"/>
</svg>
