<?xml version="1.0" encoding="utf-8"?>
<!-- Generator: Adobe Illustrator 18.0.0, SVG Export Plug-In . SVG Version: 6.00 Build 0)  -->
<!DOCTYPE svg PUBLIC "-//W3C//DTD SVG 1.1//EN" "http://www.w3.org/Graphics/SVG/1.1/DTD/svg11.dtd">
<svg version="1.1" id="Layer_1" xmlns="http://www.w3.org/2000/svg" xmlns:xlink="http://www.w3.org/1999/xlink" x="0px" y="0px"
	 viewBox="0 0 512 512" enable-background="new 0 0 512 512" xml:space="preserve">
<g>
	<path d="M424.7,106v37.5H87.3V106h112.5V87.3c0-10.4,8.4-18.7,18.7-18.7h75c10.4,0,18.7,8.4,18.7,18.7V106H424.7z"/>
	<path d="M124.7,181l37.5,262.5h187.5L387.2,181H124.7z M256,368.5c-41.4,0-75-33.6-75-75h-18.7l37.5-37.5l37.5,37.5h-18.7
		c0,20.6,16.9,37.5,37.5,37.5V368.5z M312.2,331l-37.5-37.5h18.7c0-20.6-16.9-37.5-37.5-37.5v-37.5c41.4,0,75,33.6,75,75h18.7
		L312.2,331z"/>
</g>
</svg>
