<?xml version="1.0" encoding="utf-8"?>
<!-- Generator: Adobe Illustrator 18.0.0, SVG Export Plug-In . SVG Version: 6.00 Build 0)  -->
<!DOCTYPE svg PUBLIC "-//W3C//DTD SVG 1.1//EN" "http://www.w3.org/Graphics/SVG/1.1/DTD/svg11.dtd">
<svg version="1.1" id="Layer_1" xmlns="http://www.w3.org/2000/svg" xmlns:xlink="http://www.w3.org/1999/xlink" x="0px" y="0px"
	 viewBox="0 0 512 512" enable-background="new 0 0 512 512" xml:space="preserve">
<g>
	<path d="M218.5,274.8V124.8c0-31-25.2-56.3-56.3-56.3S106,93.7,106,124.8v150.1c-30,22.4-43.8,60.5-34.7,98.3
		c8.1,33.2,34.8,59.8,68.2,67.7c7.5,1.8,15.1,2.7,22.7,2.7c21.1,0,41.5-6.9,58.2-20.1c22.7-17.9,35.6-44.7,35.6-73.6
		C256,320.2,241.9,292.4,218.5,274.8z M197.1,393.9c-13.8,10.9-31.2,14.6-48.9,10.4c-19.5-4.6-35.7-20.7-40.4-40.1
		c-6.1-25.2,4.5-50.6,26.3-63.1l9.4-5.4v-171c0-10.3,8.4-18.7,18.8-18.7c10.3,0,18.8,8.4,18.8,18.7v171l9.4,5.4
		c17.3,10,28.1,28.6,28.1,48.6C218.5,367.1,210.7,383.2,197.1,393.9z"/>
	<path d="M162.3,330.9c-10.4,0-18.8,8.4-18.8,18.7c0,10.4,8.4,18.7,18.8,18.7c10.4,0,18.8-8.4,18.8-18.7
		C181,339.3,172.6,330.9,162.3,330.9z"/>
	<path d="M302.8,143.6c-18.4,0-35.1,7.5-46.9,19.7V255c11.8,12.4,28.5,19.9,46.9,19.9c36.2,0,65.6-29.4,65.6-65.6
		C368.5,172.8,339,143.6,302.8,143.6z"/>
	<path d="M424.7,190.4H406c-10.4,0-18.7,8.4-18.7,18.7c0,10.4,8.4,18.7,18.7,18.7h18.7c10.4,0,18.7-8.4,18.7-18.7
		C443.5,198.8,435.1,190.4,424.7,190.4z"/>
	<path d="M302.9,293.5c-10.4,0-18.7,8.4-18.7,18.7V331c0,10.4,8.4,18.7,18.7,18.7s18.7-8.4,18.7-18.7v-18.7
		C321.6,301.9,313.2,293.5,302.9,293.5z"/>
	<path d="M302.9,124.8c10.4,0,18.7-8.4,18.7-18.7V87.3c0-10.4-8.4-18.7-18.7-18.7s-18.7,8.4-18.7,18.7V106
		C284.1,116.4,292.5,124.8,302.9,124.8z"/>
	<path d="M389.1,268.8c-7.3-7.3-19.2-7.3-26.5,0c-7.3,7.3-7.3,19.2,0,26.5l26.5,26.5c7.3,7.3,19.2,7.3,26.5,0
		c7.3-7.3,7.3-19.2,0-26.5L389.1,268.8z"/>
	<path d="M389.1,149.5l26.5-26.5c7.3-7.3,7.3-19.2,0-26.5c-7.3-7.3-19.2-7.3-26.5,0l-26.5,26.5c-7.3,7.3-7.3,19.2,0,26.5
		C369.9,156.8,381.7,156.8,389.1,149.5z"/>
</g>
</svg>
