<?xml version="1.0" encoding="utf-8"?>
<!-- Generator: Adobe Illustrator 18.0.0, SVG Export Plug-In . SVG Version: 6.00 Build 0)  -->
<!DOCTYPE svg PUBLIC "-//W3C//DTD SVG 1.1//EN" "http://www.w3.org/Graphics/SVG/1.1/DTD/svg11.dtd">
<svg version="1.1" id="Layer_1" xmlns="http://www.w3.org/2000/svg" xmlns:xlink="http://www.w3.org/1999/xlink" x="0px" y="0px"
	 viewBox="0 0 512 512" enable-background="new 0 0 512 512" xml:space="preserve">
<path d="M346,68.5C285,120.9,244.8,162,219.3,196.2c-22.4-18.7-57.5-39.6-111.5-65c-95,101.6,0.6,220,90.6,224.8
	c9.5,21.7,21.3,44.9,30.8,73.1c11.8-70.7,66.2-95.9,104.4-168.3c0,0,48.5,93.1-76.8,182.7C405.1,448.3,542.6,197.7,346,68.5z
	 M148.8,250.2c11,11.5,22.1,20.1,32.9,27.8c-2.1,18.7,1,35.8,6.8,53.1C138.3,295.2,148.8,250.2,148.8,250.2z"/>
</svg>
