<?xml version="1.0" encoding="utf-8"?>
<!-- Generator: Adobe Illustrator 18.0.0, SVG Export Plug-In . SVG Version: 6.00 Build 0)  -->
<!DOCTYPE svg PUBLIC "-//W3C//DTD SVG 1.1//EN" "http://www.w3.org/Graphics/SVG/1.1/DTD/svg11.dtd">
<svg version="1.1" id="Layer_1" xmlns="http://www.w3.org/2000/svg" xmlns:xlink="http://www.w3.org/1999/xlink" x="0px" y="0px"
	 viewBox="0 0 512 512" enable-background="new 0 0 512 512" xml:space="preserve">
<path d="M284.3,161.3l-84.1,70.1v-49.2c50.4,0.2,82.4-37.9,73.2-92.2c-50.8-8.6-87.6,18.9-91.8,63.9C177.4,97.4,131.8,61,69.8,69.8
	c-9.2,65.2,31.5,112.1,93,112v80.8l-37.4,31.2h37.4v12.5v137.2h93.6v-74.8h56.1v74.8h93.6V293.8h37.4L284.3,161.3z M180.6,180.6
	c0.4-3.1,0.6-6.2,0.8-9.2c0.3,3,0.6,6.1,1.1,9.2H180.6z"/>
</svg>
