<?xml version="1.0" encoding="utf-8"?>
<!-- Generator: Adobe Illustrator 18.0.0, SVG Export Plug-In . SVG Version: 6.00 Build 0)  -->
<!DOCTYPE svg PUBLIC "-//W3C//DTD SVG 1.1//EN" "http://www.w3.org/Graphics/SVG/1.1/DTD/svg11.dtd">
<svg version="1.1" id="Layer_1" xmlns="http://www.w3.org/2000/svg" xmlns:xlink="http://www.w3.org/1999/xlink" x="0px" y="0px"
	 viewBox="0 0 512 512" enable-background="new 0 0 512 512" xml:space="preserve">
<g>
	<path d="M285.9,178.7c0,0-25.3-24.3-23.3-37.4c0,0,20.1,8.5,27.9,20.1c0,0,24.2-41.2-66.2-76.6C224.3,84.9,190.8,181.4,285.9,178.7
		z"/>
	<path d="M433.5,68.5C275,125.1,317.4,191,317.4,191c13.9-18.6,48.9-32.2,48.9-32.2c3.6,21.3-40.5,60-40.5,60
		C492.2,222.9,433.5,68.5,433.5,68.5z"/>
	<path d="M293.5,349.4H256v-37.6c-24.9-11.1-49.9-18.4-75-18.4h-37.5v18.4H87.3c-10.4,0-18.8,8.4-18.8,18.8
		c0,10.4,8.4,18.8,18.8,18.8h56.3v37.6H87.3c-10.4,0-18.8,8.4-18.8,18.8c0,10.4,8.4,18.8,18.8,18.8h56.3v18.8H181
		c0,0,50.1-7.7,75-18.8v-37.6h75V255.3h-37.5V349.4z"/>
</g>
</svg>
