<?xml version="1.0" encoding="utf-8"?>
<!-- Generator: Adobe Illustrator 18.0.0, SVG Export Plug-In . SVG Version: 6.00 Build 0)  -->
<!DOCTYPE svg PUBLIC "-//W3C//DTD SVG 1.1//EN" "http://www.w3.org/Graphics/SVG/1.1/DTD/svg11.dtd">
<svg version="1.1" id="Layer_1" xmlns="http://www.w3.org/2000/svg" xmlns:xlink="http://www.w3.org/1999/xlink" x="0px" y="0px"
	 viewBox="0 0 512 512" enable-background="new 0 0 512 512" xml:space="preserve">
<g>
	<path d="M331.5,274.8c0-41.4-75.1-150.1-75.1-150.1s-75.1,108.6-75.1,150.1c0,41.4,33.6,75,75.1,75
		C297.8,349.8,331.5,316.2,331.5,274.8z"/>
	<path d="M362.6,362.1c-28.4,28.3-66.1,43.9-106.3,43.9c-82.9,0-150.3-67.3-150.3-150c0-5.6,0.3-11.2,0.9-16.7l-37.3-4.1
		c-0.8,6.8-1.1,13.8-1.1,20.8c0,103.4,84.3,187.5,187.8,187.5c50.2,0,97.3-19.5,132.8-54.9l-10.7-10.7l47,46.9V331h-93.9
		L362.6,362.1z"/>
	<path d="M255.7,68.5c-50.2,0-97.3,19.5-132.8,54.9L86.6,87.3V181h93.9l-31.1-31.1c28.4-28.3,66.1-43.9,106.3-43.9
		c82.9,0,150.3,67.3,150.3,150c0,5.6-0.3,11.2-0.9,16.7l37.3,4.1c0.8-6.8,1.1-13.8,1.1-20.8C443.5,152.6,359.2,68.5,255.7,68.5z"/>
</g>
</svg>
