<?xml version="1.0" encoding="utf-8"?>
<!-- Generator: Adobe Illustrator 18.0.0, SVG Export Plug-In . SVG Version: 6.00 Build 0)  -->
<!DOCTYPE svg PUBLIC "-//W3C//DTD SVG 1.1//EN" "http://www.w3.org/Graphics/SVG/1.1/DTD/svg11.dtd">
<svg version="1.1" id="Layer_1" xmlns="http://www.w3.org/2000/svg" xmlns:xlink="http://www.w3.org/1999/xlink" x="0px" y="0px"
	 viewBox="0 0 512 512" enable-background="new 0 0 512 512" xml:space="preserve">
<path d="M406,68.5H181c-10.3,0-18.7,8.2-18.7,18.7v150h-37.5v-75H87.3v112.5h75v56.2h-75v112.5h37.5v-75h37.5v56.3
	c0,10.3,8.4,18.7,18.7,18.7h225c10.3,0,18.7-8.4,18.7-18.7V87.3C424.7,76.8,416.3,68.5,406,68.5z M218.5,237.3
	c0-10.5,8.4-18.7,18.7-18.7s18.7,8.3,18.7,18.7c0,10.3-8.4,18.7-18.7,18.7S218.5,247.6,218.5,237.3z M293.5,406
	c-24.6,0-45.2-15.8-52.9-37.5h105.7C338.7,390.2,318,406,293.5,406z M240.6,331c7.5-21.9,28.3-37.5,52.9-37.5
	c24.6,0,45.4,15.6,52.9,37.5H240.6z M349.7,256c-10.3,0-18.8-8.4-18.8-18.7c0-10.5,8.4-18.7,18.8-18.7s18.7,8.3,18.7,18.7
	C368.5,247.6,360,256,349.7,256z M387.2,181H199.7v-75h187.5V181z"/>
</svg>
