<?xml version="1.0" encoding="utf-8"?>
<!-- Generator: Adobe Illustrator 18.0.0, SVG Export Plug-In . SVG Version: 6.00 Build 0)  -->
<!DOCTYPE svg PUBLIC "-//W3C//DTD SVG 1.1//EN" "http://www.w3.org/Graphics/SVG/1.1/DTD/svg11.dtd">
<svg version="1.1" id="Layer_1" xmlns="http://www.w3.org/2000/svg" xmlns:xlink="http://www.w3.org/1999/xlink" x="0px" y="0px"
	 viewBox="0 0 512 512" enable-background="new 0 0 512 512" xml:space="preserve">
<g>
	<path d="M143.5,256H181c0-41.4,33.7-75,75-75c20.6,0,39.6,8.4,52.9,22.1l26.6-26.6c-20.3-20.4-48.4-33-79.5-33
		C193.9,143.5,143.5,193.9,143.5,256z"/>
	<path d="M256,68.5C152.5,68.5,68.5,152.3,68.5,256c0,103.5,84,187.5,187.5,187.5s187.5-84,187.5-187.5
		C443.5,152.3,359.5,68.5,256,68.5z M293.5,312.2c0-3.2-0.4-6.5-1.3-9.6l71.1-70.6c7.3-7.3,7.4-19.2,0.1-26.5
		c-7.3-7.3-19.2-7.4-26.5-0.1l-71.1,70.6c-15.4-4.3-33,1.7-42.4,17.5c-3.4,5.7-4.9,12.2-4.9,18.7H117.1
		c-7.1-17.4-11.1-36.4-11.1-56.2c0-82.7,67.3-150,150-150s150,67.3,150,150c0,19.9-3.9,38.8-11.1,56.2H293.5z"/>
</g>
</svg>
