<?xml version="1.0" encoding="utf-8"?>
<!-- Generator: Adobe Illustrator 18.0.0, SVG Export Plug-In . SVG Version: 6.00 Build 0)  -->
<!DOCTYPE svg PUBLIC "-//W3C//DTD SVG 1.1//EN" "http://www.w3.org/Graphics/SVG/1.1/DTD/svg11.dtd">
<svg version="1.1" id="Layer_1" xmlns="http://www.w3.org/2000/svg" xmlns:xlink="http://www.w3.org/1999/xlink" x="0px" y="0px"
	 viewBox="0 0 512 512" enable-background="new 0 0 512 512" xml:space="preserve">
<g>
	<path d="M193.4,251.9l6.4,2.2v39.6c0,10.3,8.4,18.7,18.8,18.7c10.4,0,18.8-8.4,18.8-18.7v-25.9l37.5,13.5v12.4
		c0,10.3,8.4,18.7,18.8,18.7s18.8-8.4,18.8-18.7v0c7.7,0,14.8-4.7,17.6-12.4c3.6-9.7-1.5-20.4-11.3-24l-112.5-40.6
		c-9.8-3.6-20.4,1.5-24,11.2C178.6,237.7,183.6,248.3,193.4,251.9z"/>
	<path d="M162.2,331.1c0,24.7,5.8,48.9,16.7,71l2.1,3.9h37.5v18.7c0,10.3,8.4,18.7,18.8,18.7h37.5c10.3,0,18.8-8.4,18.8-18.7V406
		H331l2.1-3.9c10.9-22.1,16.7-46.3,16.7-71H162.2z"/>
	<path d="M193.4,178.3l112.5,40.6c2.1,0.8,4.3,1.1,6.4,1.1c7.7,0,14.8-4.7,17.6-12.4c3.6-9.7-1.5-20.4-11.3-24l-112.5-40.6
		c-9.8-3.6-20.4,1.5-24,11.2C178.6,164,183.6,174.7,193.4,178.3z"/>
	<path d="M193.4,104.9l112.5,40.6c2.1,0.9,4.3,1.1,6.4,1.1c7.7,0,14.8-4.7,17.6-12.4c3.6-9.6-1.5-20.4-11.3-24L206.1,69.6
		c-9.8-3.6-20.4,1.5-24,11.2C178.6,90.6,183.6,101.5,193.4,104.9z"/>
</g>
</svg>
