<?xml version="1.0" encoding="utf-8"?>
<!-- Generator: Adobe Illustrator 18.0.0, SVG Export Plug-In . SVG Version: 6.00 Build 0)  -->
<!DOCTYPE svg PUBLIC "-//W3C//DTD SVG 1.1//EN" "http://www.w3.org/Graphics/SVG/1.1/DTD/svg11.dtd">
<svg version="1.1" id="Layer_1" xmlns="http://www.w3.org/2000/svg" xmlns:xlink="http://www.w3.org/1999/xlink" x="0px" y="0px"
	 viewBox="0 0 512 512" enable-background="new 0 0 512 512" xml:space="preserve">
<g>
	<path d="M106,181l35.2,246.4c1.3,9.4,9.2,16.1,18.6,16.1h192.4c9.4,0,17.3-6.8,18.6-16.1L406,181H106z M211.4,387.4
		c0,0,37.7-38.8,34.7-60c0,0-30,13.5-42,32.1c0,0-36.2-65.8,99.6-122.4C303.6,237,353.9,391.6,211.4,387.4z"/>
	<path d="M406,106H293.5V87.3c0-10.4-8.4-18.8-18.8-18.8h-37.5c-10.4,0-18.7,8.4-18.7,18.8V106H106c-10.4,0-18.7,8.4-18.7,18.8v18.8
		h337.5v-18.8C424.7,114.4,416.4,106,406,106z"/>
</g>
</svg>
