<?xml version="1.0" encoding="utf-8"?>
<!-- Generator: Adobe Illustrator 18.0.0, SVG Export Plug-In . SVG Version: 6.00 Build 0)  -->
<!DOCTYPE svg PUBLIC "-//W3C//DTD SVG 1.1//EN" "http://www.w3.org/Graphics/SVG/1.1/DTD/svg11.dtd">
<svg version="1.1" id="Layer_1" xmlns="http://www.w3.org/2000/svg" xmlns:xlink="http://www.w3.org/1999/xlink" x="0px" y="0px"
	 viewBox="0 0 512 512" enable-background="new 0 0 512 512" xml:space="preserve">
<g>
	<path d="M165.2,347.5c8-13.9,28-24,28-24c2,15.8-23.1,44.9-23.1,44.9c95,3.1,61.5-112.4,61.5-112.4
		C141.1,298.3,165.2,347.5,165.2,347.5z"/>
	<path d="M438,127c-7.3-7.3-19.3-7.3-26.4,0L385,153.5L358.5,127l26.4-26.6c7.3-7.3,7.3-19.1,0-26.4c-7.3-7.3-19.1-7.3-26.4,0
		l-26.6,26.4l-13.1-13.1l-26.6,79.5l13.3,13.3l-54,54c25.3,16.7,42,45.6,42,78.2c0,51.6-42,93.7-93.7,93.7S106,363.8,106,312.3
		c0-51.7,42-93.7,93.7-93.7V181c-72.4,0-131.2,58.9-131.2,131.2s58.9,131.2,131.2,131.2S331,384.6,331,312.3
		c0-29.4-9.7-56.6-26.2-78.6l27.2-27.2l13.3,13.3l79.5-26.6l-13.1-13.1l26.4-26.6C445.3,146.2,445.3,134.4,438,127z"/>
</g>
</svg>
