<?xml version="1.0" encoding="utf-8"?>
<!-- Generator: Adobe Illustrator 18.0.0, SVG Export Plug-In . SVG Version: 6.00 Build 0)  -->
<!DOCTYPE svg PUBLIC "-//W3C//DTD SVG 1.1//EN" "http://www.w3.org/Graphics/SVG/1.1/DTD/svg11.dtd">
<svg version="1.1" id="Layer_1" xmlns="http://www.w3.org/2000/svg" xmlns:xlink="http://www.w3.org/1999/xlink" x="0px" y="0px"
	 viewBox="0 0 512 512" enable-background="new 0 0 512 512" xml:space="preserve">
<g>
	<circle cx="143.5" cy="349.7" r="37.5"/>
	<circle cx="293.5" cy="349.7" r="37.5"/>
	<path d="M152.9,293.5h187.5c46.6,0,84.4-37.8,84.4-84.4c0-46.6-37.8-84.4-84.4-84.4H152.9c-46.6,0-84.4,37.8-84.4,84.4
		C68.5,255.7,106.3,293.5,152.9,293.5z"/>
	<path d="M68.5,349.8h18.7c0-31.1,25.3-56.2,56.2-56.2h-75V349.8z"/>
	<path d="M199.8,349.8h37.5c0-31.1,25.3-56.2,56.2-56.2h-150C174.4,293.5,199.8,318.7,199.8,349.8z"/>
	<path d="M293.5,293.5c30.9,0,56.2,25.1,56.2,56.2h37.5v37.5h37.5v-37.5h18.8v-56.2H293.5z"/>
</g>
</svg>
