<?xml version="1.0" encoding="utf-8"?>
<!-- Generator: Adobe Illustrator 18.0.0, SVG Export Plug-In . SVG Version: 6.00 Build 0)  -->
<!DOCTYPE svg PUBLIC "-//W3C//DTD SVG 1.1//EN" "http://www.w3.org/Graphics/SVG/1.1/DTD/svg11.dtd">
<svg version="1.1" id="Layer_1" xmlns="http://www.w3.org/2000/svg" xmlns:xlink="http://www.w3.org/1999/xlink" x="0px" y="0px"
	 viewBox="0 0 512 512" enable-background="new 0 0 512 512" xml:space="preserve">
<g>
	<path d="M374.4,100c-3-18.2-19-31.5-37.6-31.5H173.5c-18.8,0-34.8,13.7-37.6,32.1c-5.6,37.9-9.4,115.7-11.1,153.9
		c-0.6,7.3,6.8,119.6,13,157.5c3,18.2,18.8,31.5,37.6,31.5h163.2c19,0,35-13.5,37.8-32.1c5.6-37.7,9.2-115.5,10.9-153.8
		C387.8,250.4,380.5,137.9,374.4,100z M162,134.1l28.2-28.1h131.6c11.1,11.1,17.1,17.1,28.2,28.1v56.3l-28.2,28.1H190.2
		c-11.1-11.1-17.1-17.1-28.2-28.1V134.1z M350.2,378.1L322,406.2H190.4c-11.1-11.1-17.1-17.1-28.2-28.1v-56.2l28.2-28.1H322
		c11.1,11.1,17.1,17.1,28.2,28.1V378.1z"/>
	<path d="M218.4,181c10.3,0,18.8-8.2,18.8-18.7c0-10.3-8.5-18.8-18.8-18.8c-10.3,0-18.8,8.4-18.8,18.8
		C199.6,172.8,208.1,181,218.4,181z"/>
	<path d="M293.6,181c10.3,0,18.8-8.2,18.8-18.7c0-10.3-8.5-18.8-18.8-18.8c-10.3,0-18.8,8.4-18.8,18.8
		C274.8,172.8,283.3,181,293.6,181z"/>
	<ellipse cx="293.7" cy="349.8" rx="18.8" ry="18.7"/>
	<ellipse cx="218.5" cy="349.8" rx="18.8" ry="18.7"/>
</g>
</svg>
