<?xml version="1.0" encoding="utf-8"?>
<!-- Generator: Adobe Illustrator 18.0.0, SVG Export Plug-In . SVG Version: 6.00 Build 0)  -->
<!DOCTYPE svg PUBLIC "-//W3C//DTD SVG 1.1//EN" "http://www.w3.org/Graphics/SVG/1.1/DTD/svg11.dtd">
<svg version="1.1" id="Layer_1" xmlns="http://www.w3.org/2000/svg" xmlns:xlink="http://www.w3.org/1999/xlink" x="0px" y="0px"
	 viewBox="0 0 512 512" enable-background="new 0 0 512 512" xml:space="preserve">
<path d="M346.2,244.5c-10.6-93.5-44.7-176-99.5-176c-60.2,0-95.4,99.5-101.9,203.8c-23.3-10.4-49-16.3-76.2-16.3v0
	c0,94.8,70.4,173.2,161.8,185.7c8.3,1.1,16.9,1.7,25.5,1.7l0,0c0,0,14.9-2.9,22-4.8c22-6,42.5-15.3,61.3-27.3h1.2l0.1-0.8
	c61.9-39.9,103-109.1,103-188.3C408.6,222.3,375.6,230.3,346.2,244.5z M236.4,360.5c-13-26.2-32.1-48.6-55.2-66.1
	C183.9,179,220.8,106,246.6,106c23.6,0,56.6,61.2,64.1,160.1C278.2,290.1,252.3,322.6,236.4,360.5z"/>
</svg>
