<?xml version="1.0" encoding="utf-8"?>
<!-- Generator: Adobe Illustrator 18.0.0, SVG Export Plug-In . SVG Version: 6.00 Build 0)  -->
<!DOCTYPE svg PUBLIC "-//W3C//DTD SVG 1.1//EN" "http://www.w3.org/Graphics/SVG/1.1/DTD/svg11.dtd">
<svg version="1.1" id="Layer_1" xmlns="http://www.w3.org/2000/svg" xmlns:xlink="http://www.w3.org/1999/xlink" x="0px" y="0px"
	 viewBox="0 0 512 512" enable-background="new 0 0 512 512" xml:space="preserve">
<g>
	<g>
		<circle cx="181" cy="199.8" r="18.7"/>
		<path d="M181,162.3L181,162.3c-10.4,0-18.7-8.4-18.7-18.7V87.3c0-10.4,8.4-18.7,18.7-18.7l0,0c10.4,0,18.7,8.4,18.7,18.7v56.2
			C199.7,153.9,191.4,162.3,181,162.3z"/>
		<path d="M148.6,220.6L148.6,220.6c5.2,9,2.1,20.4-6.9,25.6l-45.1,26c-9,5.2-20.4,2.1-25.6-6.9l0,0c-5.2-9-2.1-20.4,6.9-25.6
			l45.1-26C132,208.5,143.4,211.6,148.6,220.6z"/>
		<path d="M217.2,218.5L217.2,218.5c5.2-9,16.6-12,25.6-6.9l48.7,28.1c9,5.2,12,16.6,6.9,25.6l0,0c-5.2,9-16.6,12-25.6,6.9
			L224,244.1C215.1,238.9,212,227.5,217.2,218.5z"/>
		<rect x="162.2" y="256" width="37.5" height="187.5"/>
	</g>
	<g>
		<rect x="331" y="349.8" width="37.5" height="93.7"/>
	</g>
	<g>
		<circle cx="349.8" cy="293.5" r="18.7"/>
		<path d="M349.8,256L349.8,256c-10.4,0-18.8-8.4-18.8-18.7v-37.5c0-10.4,8.4-18.7,18.8-18.7l0,0c10.4,0,18.7,8.4,18.7,18.7v37.5
			C368.5,247.6,360.1,256,349.8,256z"/>
		<path d="M316.8,309.4L316.8,309.4c5.2,9,2.1,20.4-6.9,25.6l-32.5,18.8c-9,5.2-20.4,2.1-25.6-6.9l0,0c-5.2-9-2.1-20.4,6.9-25.6
			l32.5-18.8C300.2,297.3,311.6,300.4,316.8,309.4z"/>
		<path d="M376,312.2L376,312.2c5.2-9,16.6-12,25.6-6.9l32.5,18.8c9,5.2,12,16.6,6.9,25.6l0,0c-5.2,9-16.6,12-25.6,6.9l-32.5-18.8
			C373.9,332.7,370.9,321.2,376,312.2z"/>
	</g>
</g>
</svg>
