<?xml version="1.0" encoding="utf-8"?>
<!-- Generator: Adobe Illustrator 18.0.0, SVG Export Plug-In . SVG Version: 6.00 Build 0)  -->
<!DOCTYPE svg PUBLIC "-//W3C//DTD SVG 1.1//EN" "http://www.w3.org/Graphics/SVG/1.1/DTD/svg11.dtd">
<svg version="1.1" id="Layer_1" xmlns="http://www.w3.org/2000/svg" xmlns:xlink="http://www.w3.org/1999/xlink" x="0px" y="0px"
	 viewBox="0 0 512 512" enable-background="new 0 0 512 512" xml:space="preserve">
<path d="M406,274.8c-19.3,0-35.1,14.7-37.1,33.5L278,348.6c-1.9-2-4-3.8-6.2-5.5l16.7-50c23.8-2.2,42.6-22,42.6-46.4
	c0-20.3-13-37.4-31-43.9l-4.4-65.5c10-6.7,16.6-18.2,16.6-31.1c0-20.7-16.8-37.5-37.5-37.5c-20.7,0-37.5,16.8-37.5,37.5
	c0,0.5,0.1,0.9,0.1,1.4l-95.7,60.4c-7.5-5.1-16.6-8.1-26.3-8.1c-25.9,0-46.9,21-46.9,46.9c0,25.9,21,46.9,46.9,46.9
	s46.9-21,46.9-46.9c0-2.4-0.4-4.7-0.7-7l95.9-60.5c0.3,0.1,0.5,0.3,0.8,0.4l4.4,65.7c-15,7.8-25.3,23.3-25.3,41.4
	c0,13.8,6.1,26.1,15.6,34.7l-16.6,49.8c-30.6,0.6-55.2,25.4-55.2,56.1c0,28.5,21.2,51.8,48.7,55.5c2.4,0.5,5,0.8,7.6,0.8
	c2.6,0,5.1-0.3,7.6-0.8c27.5-3.7,48.7-27,48.7-55.5c0-1.5-0.3-2.8-0.4-4.3l91-40.4c6.2,4.5,13.7,7.2,22,7.2
	c20.7,0,37.5-16.8,37.5-37.5S426.7,274.8,406,274.8z"/>
</svg>
