<?xml version="1.0" encoding="utf-8"?>
<!-- Generator: Adobe Illustrator 18.0.0, SVG Export Plug-In . SVG Version: 6.00 Build 0)  -->
<!DOCTYPE svg PUBLIC "-//W3C//DTD SVG 1.1//EN" "http://www.w3.org/Graphics/SVG/1.1/DTD/svg11.dtd">
<svg version="1.1" id="Layer_1" xmlns="http://www.w3.org/2000/svg" xmlns:xlink="http://www.w3.org/1999/xlink" x="0px" y="0px"
	 viewBox="0 0 512 512" enable-background="new 0 0 512 512" xml:space="preserve">
<g>
	<path d="M256,130.5c-62.1,0-112.5,50.4-112.5,112.5S193.9,355.5,256,355.5c62.3,0,112.5-50.4,112.5-112.5S318.2,130.5,256,130.5z
		 M199.7,299.3l37.6-56.3h-19.1l31.5-56.3h43.9L256,224.3l37.9-0.4L199.7,299.3z"/>
	<circle cx="424.8" cy="243" r="18.8"/>
	<circle cx="87.3" cy="243" r="18.8"/>
	<circle cx="256" cy="74.3" r="18.8"/>
	<circle cx="256" cy="411.8" r="18.8"/>
	<rect x="363.2" y="88.9" transform="matrix(0.7071 0.7071 -0.7071 0.7071 194.6479 -235.8071)" width="37.5" height="56.2"/>
	<rect x="111.3" y="340.8" transform="matrix(-0.7071 -0.7071 0.7071 -0.7071 -38.8861 721.7974)" width="37.5" height="56.2"/>
	<rect x="353.8" y="350.2" transform="matrix(-0.7071 -0.7071 0.7071 -0.7071 391.1372 899.9231)" width="56.2" height="37.5"/>
	<rect x="101.9" y="98.3" transform="matrix(0.7071 0.7071 -0.7071 0.7071 120.8583 -57.6829)" width="56.2" height="37.5"/>
</g>
</svg>
