<?xml version="1.0" encoding="utf-8"?>
<!-- Generator: Adobe Illustrator 18.0.0, SVG Export Plug-In . SVG Version: 6.00 Build 0)  -->
<!DOCTYPE svg PUBLIC "-//W3C//DTD SVG 1.1//EN" "http://www.w3.org/Graphics/SVG/1.1/DTD/svg11.dtd">
<svg version="1.1" id="Layer_1" xmlns="http://www.w3.org/2000/svg" xmlns:xlink="http://www.w3.org/1999/xlink" x="0px" y="0px"
	 viewBox="0 0 512 512" enable-background="new 0 0 512 512" xml:space="preserve">
<g>
	<path d="M274.7,151.1V168h-37.5v-16.9c-42.8,8.6-75,46.5-75,91.9s32.3,83.3,75,91.9V318h37.5v16.9c42.8-8.6,75-46.5,75-91.9
		S317.5,159.8,274.7,151.1z M218.5,261.8c-10.3,0-18.8-8.4-18.8-18.8s8.4-18.8,18.8-18.8s18.8,8.4,18.8,18.8
		S228.8,261.8,218.5,261.8z M293.5,261.8c-10.3,0-18.8-8.4-18.8-18.8s8.4-18.8,18.8-18.8s18.8,8.4,18.8,18.8
		S303.8,261.8,293.5,261.8z"/>
	<path d="M256,111.8c10.4,0,18.8-8.4,18.8-18.8V74.3c0-10.4-8.4-18.8-18.8-18.8s-18.8,8.4-18.8,18.8V93
		C237.3,103.4,245.6,111.8,256,111.8z"/>
	<path d="M256,374.3c-10.4,0-18.8,8.4-18.8,18.8v18.8c0,10.4,8.4,18.8,18.8,18.8s18.8-8.4,18.8-18.8V393
		C274.8,382.6,266.4,374.3,256,374.3z"/>
	<path d="M424.8,224.3H406c-10.4,0-18.8,8.4-18.8,18.8c0,10.4,8.4,18.8,18.8,18.8h18.8c10.4,0,18.8-8.4,18.8-18.8
		C443.5,232.6,435.1,224.3,424.8,224.3z"/>
	<path d="M124.8,243c0-10.4-8.4-18.8-18.8-18.8H87.3c-10.4,0-18.8,8.4-18.8,18.8c0,10.4,8.4,18.8,18.8,18.8H106
		C116.4,261.8,124.8,253.4,124.8,243z"/>
	<path d="M375.3,150.2l13.3-13.3c7.3-7.3,7.3-19.2,0-26.5c-7.3-7.3-19.2-7.3-26.5,0l-13.3,13.3c-7.3,7.3-7.3,19.2,0,26.5
		C356.1,157.5,368,157.5,375.3,150.2z"/>
	<path d="M136.7,335.8l-13.3,13.3c-7.3,7.3-7.3,19.2,0,26.5c7.3,7.3,19.2,7.3,26.5,0l13.3-13.3c7.3-7.3,7.3-19.2,0-26.5
		C155.9,328.5,144,328.5,136.7,335.8z"/>
	<path d="M375.3,335.8c-7.3-7.3-19.2-7.3-26.5,0c-7.3,7.3-7.3,19.2,0,26.5l13.3,13.3c7.3,7.3,19.2,7.3,26.5,0
		c7.3-7.3,7.3-19.2,0-26.5L375.3,335.8z"/>
	<path d="M136.7,150.2c7.3,7.3,19.2,7.3,26.5,0c7.3-7.3,7.3-19.2,0-26.5l-13.3-13.3c-7.3-7.3-19.2-7.3-26.5,0
		c-7.3,7.3-7.3,19.2,0,26.5L136.7,150.2z"/>
</g>
</svg>
