<?xml version="1.0" encoding="utf-8"?>
<!-- Generator: Adobe Illustrator 18.0.0, SVG Export Plug-In . SVG Version: 6.00 Build 0)  -->
<!DOCTYPE svg PUBLIC "-//W3C//DTD SVG 1.1//EN" "http://www.w3.org/Graphics/SVG/1.1/DTD/svg11.dtd">
<svg version="1.1" id="Layer_1" xmlns="http://www.w3.org/2000/svg" xmlns:xlink="http://www.w3.org/1999/xlink" x="0px" y="0px"
	 viewBox="0 0 512 512" enable-background="new 0 0 512 512" xml:space="preserve">
<g>
	<rect x="332.4" y="243.5" transform="matrix(0.7071 0.7071 -0.7071 0.7071 298.7023 -196.6936)" width="108.7" height="37.4"/>
	<polygon points="224.5,349.5 301.4,426.4 328,399.9 250.9,323.1 	"/>
	<path d="M279.3,266.3l-18.2-36.4c6-8.4,10.1-18.2,12.2-28.7l57.8-14.4l-57.8-14.4c-2.1-10.5-6.2-20.3-12.2-28.7l18.2-36.4
		l-36.4,18.2c-8.4-6-18.2-10.1-28.7-12.2l-14.4-57.8l-14.4,57.8c-10.5,2.1-20.3,6.2-28.7,12.2l-36.4-18.2l18.2,36.4
		c-6,8.4-10.1,18.2-12.2,28.7l-57.8,14.4l57.8,14.4c2.1,10.5,6.2,20.3,12.2,28.7l-18.2,36.4l36.4-18.2c8.4,6,18.2,10.1,28.7,12.2
		l14.4,57.8l14.4-57.8c10.5-2.1,20.3-6.2,28.7-12.2L279.3,266.3z"/>
	<rect x="355.4" y="281.7" transform="matrix(0.7071 -0.7071 0.7071 0.7071 -145.7753 370.3174)" width="37.4" height="158.8"/>
</g>
</svg>
