<?xml version="1.0" encoding="utf-8"?>
<!-- Generator: Adobe Illustrator 18.0.0, SVG Export Plug-In . SVG Version: 6.00 Build 0)  -->
<!DOCTYPE svg PUBLIC "-//W3C//DTD SVG 1.1//EN" "http://www.w3.org/Graphics/SVG/1.1/DTD/svg11.dtd">
<svg version="1.1" id="Layer_1" xmlns="http://www.w3.org/2000/svg" xmlns:xlink="http://www.w3.org/1999/xlink" x="0px" y="0px"
	 viewBox="0 0 512 512" enable-background="new 0 0 512 512" xml:space="preserve">
<g>
	<circle cx="152.9" cy="364.9" r="28.1"/>
	<circle cx="359.1" cy="364.9" r="28.1"/>
	<path d="M443.5,186.8c0-51.8-42-93.7-93.7-93.7H162.2c-51.8,0-93.7,42-93.7,93.7c0,51.8,42,93.7,93.7,93.7H68.5v75h38.4
		c4.3-21.4,23.2-37.5,45.9-37.5c22.7,0,41.6,16.1,45.9,37.5h114.4c4.3-21.4,23.2-37.5,45.9-37.5c22.7,0,41.6,16.1,45.9,37.5h38.4
		v-75h-93.7C401.5,280.5,443.5,238.5,443.5,186.8z"/>
</g>
</svg>
