<?xml version="1.0" encoding="utf-8"?>
<!-- Generator: Adobe Illustrator 18.0.0, SVG Export Plug-In . SVG Version: 6.00 Build 0)  -->
<!DOCTYPE svg PUBLIC "-//W3C//DTD SVG 1.1//EN" "http://www.w3.org/Graphics/SVG/1.1/DTD/svg11.dtd">
<svg version="1.1" id="Layer_1" xmlns="http://www.w3.org/2000/svg" xmlns:xlink="http://www.w3.org/1999/xlink" x="0px" y="0px"
	 viewBox="0 0 512 512" enable-background="new 0 0 512 512" xml:space="preserve">
<g>
	<path d="M360.2,191.1L347.2,178l39.2-39.2l-26.1-26.1L321,151.8L308,138.8l-16.3,16.3c-56.7-33.5-131-25.9-179.8,22.9
		c-57.8,57.8-57.8,151.4,0,209.2c57.8,57.8,151.4,57.8,209.2,0c48.8-48.8,56.3-123,22.9-179.8L360.2,191.1z"/>
	<rect x="397.4" y="62.5" transform="matrix(0.7071 0.7071 -0.7071 0.7071 180.5755 -269.7035)" width="37" height="41.2"/>
	<rect x="296.1" y="68.6" transform="matrix(0.7071 0.7071 -0.7071 0.7071 154.3527 -198.4613)" width="41.2" height="37"/>
	<rect x="392.2" y="164.6" transform="matrix(-0.7071 -0.7071 0.7071 -0.7071 575.182 604.4877)" width="41.2" height="37"/>
</g>
</svg>
