<?xml version="1.0" encoding="utf-8"?>
<!-- Generator: Adobe Illustrator 18.0.0, SVG Export Plug-In . SVG Version: 6.00 Build 0)  -->
<!DOCTYPE svg PUBLIC "-//W3C//DTD SVG 1.1//EN" "http://www.w3.org/Graphics/SVG/1.1/DTD/svg11.dtd">
<svg version="1.1" id="Layer_1" xmlns="http://www.w3.org/2000/svg" xmlns:xlink="http://www.w3.org/1999/xlink" x="0px" y="0px"
	 viewBox="0 0 512 512" enable-background="new 0 0 512 512" xml:space="preserve">
<g>
	<path d="M305,151.9c4.5-8.1,7.2-17.2,7.2-27.1c0-31.1-25.2-56.2-56.2-56.2c-31.1,0-56.2,25.2-56.2,56.2c0,9.9,2.8,19,7.2,27.1
		c-58.7,20.3-101,76-101,141.6c0,82.8,67.2,150,150,150s150-67.2,150-150C406,227.8,363.7,172.2,305,151.9z M256,106
		c10.3,0,18.8,8.4,18.8,18.8c0,10.3-8.4,18.7-18.8,18.7s-18.8-8.4-18.8-18.7C237.3,114.4,245.7,106,256,106z M256,406
		c-62,0-112.5-50.5-112.5-112.5c0-62,50.5-112.5,112.5-112.5s112.5,50.5,112.5,112.5C368.5,355.5,318,406,256,406z"/>
	<path d="M309.1,346.6l0.1-0.1c-12.9-30.3-17.5-43.9-40-66.1c-22.4-22.3-35.8-27-66.2-39.9l-0.1,0.1
		C228.5,301.4,248.2,321,309.1,346.6z"/>
</g>
</svg>
