<?xml version="1.0" encoding="utf-8"?>
<!-- Generator: Adobe Illustrator 18.0.0, SVG Export Plug-In . SVG Version: 6.00 Build 0)  -->
<!DOCTYPE svg PUBLIC "-//W3C//DTD SVG 1.1//EN" "http://www.w3.org/Graphics/SVG/1.1/DTD/svg11.dtd">
<svg version="1.1" id="Layer_1" xmlns="http://www.w3.org/2000/svg" xmlns:xlink="http://www.w3.org/1999/xlink" x="0px" y="0px"
	 viewBox="0 0 512 512" enable-background="new 0 0 512 512" xml:space="preserve">
<g>
	<path d="M388.6,123.4l36.2-36.2H331V181l31.1-31.1c28.3,28.3,43.9,66,43.9,106.1c0,82.7-67.3,150-150,150v37.5
		c103.4,0,187.5-84.1,187.5-187.5C443.5,205.9,424,158.8,388.6,123.4z"/>
	<path d="M106,256c0-82.7,67.3-150,150-150V68.5C152.6,68.5,68.5,152.6,68.5,256c0,50.1,19.5,97.2,54.9,132.6l-36.2,36.2H181V331
		l-31.1,31.1C121.6,333.7,106,296.1,106,256z"/>
</g>
</svg>
