<?xml version="1.0" encoding="utf-8"?>
<!-- Generator: Adobe Illustrator 18.0.0, SVG Export Plug-In . SVG Version: 6.00 Build 0)  -->
<!DOCTYPE svg PUBLIC "-//W3C//DTD SVG 1.1//EN" "http://www.w3.org/Graphics/SVG/1.1/DTD/svg11.dtd">
<svg version="1.1" id="Layer_1" xmlns="http://www.w3.org/2000/svg" xmlns:xlink="http://www.w3.org/1999/xlink" x="0px" y="0px"
	 viewBox="0 0 512 512" enable-background="new 0 0 512 512" xml:space="preserve">
<g>
	<path d="M256,68.5C152.4,68.5,68.5,152.4,68.5,256c0,103.6,83.9,187.5,187.5,187.5S443.5,359.6,443.5,256
		C443.5,152.4,359.6,68.5,256,68.5z M256,406c-82.7,0-150-67.3-150-150c0-82.7,67.3-150,150-150s150,67.3,150,150
		C406,338.7,338.7,406,256,406z"/>
	<polygon points="256,218.5 274.8,162.3 237.3,162.3 199.8,256 256,256 237.8,293.5 199.8,293.5 237.3,349.8 312.3,293.5 
		274.8,293.5 312.3,218.5 	"/>
</g>
</svg>
