<?xml version="1.0" encoding="utf-8"?>
<!-- Generator: Adobe Illustrator 18.0.0, SVG Export Plug-In . SVG Version: 6.00 Build 0)  -->
<!DOCTYPE svg PUBLIC "-//W3C//DTD SVG 1.1//EN" "http://www.w3.org/Graphics/SVG/1.1/DTD/svg11.dtd">
<svg version="1.1" id="Layer_1" xmlns="http://www.w3.org/2000/svg" xmlns:xlink="http://www.w3.org/1999/xlink" x="0px" y="0px"
	 viewBox="0 0 512 512" enable-background="new 0 0 512 512" xml:space="preserve">
<g>
	<path d="M312.3,293.5V124.8c0-30.9-25.3-56.2-56.3-56.2s-56.3,25.3-56.3,56.2v168.8h-37.5V331c6.2,30.4,27.9,54.9,56.3,67.1v26.6
		c0,10.3,8.4,18.8,18.8,18.8h37.5c10.3,0,18.8-8.4,18.8-18.8v-26.6c28.3-12.2,50.1-36.8,56.3-67.1v-37.5H312.3z M274.8,293.5h-37.5
		V124.8c0-10.3,8.4-18.8,18.8-18.8s18.8,8.4,18.8,18.8V293.5z"/>
</g>
</svg>
