<?xml version="1.0" encoding="utf-8"?>
<!-- Generator: Adobe Illustrator 18.0.0, SVG Export Plug-In . SVG Version: 6.00 Build 0)  -->
<!DOCTYPE svg PUBLIC "-//W3C//DTD SVG 1.1//EN" "http://www.w3.org/Graphics/SVG/1.1/DTD/svg11.dtd">
<svg version="1.1" id="Layer_1" xmlns="http://www.w3.org/2000/svg" xmlns:xlink="http://www.w3.org/1999/xlink" x="0px" y="0px"
	 viewBox="0 0 512 512" enable-background="new 0 0 512 512" xml:space="preserve">
<g>
	<path d="M349.7,93.6c-18-10.3-40.9-4.1-51.2,13.9c-5.1,8.8-24.8,51-40.9,92.4c-0.6-0.2-1.1-0.2-1.7-0.2c-21.6,0-40.1,12-49.5,29.6
		c-44.1-6.7-90.2-10.9-100.5-10.9c-20.6,0-37.5,16.9-37.5,37.5c0,20.8,16.9,37.5,37.5,37.5c10.3,0,56.4-4.1,100.5-10.7
		c9.6,17.6,28.1,29.4,49.5,29.4c0.6,0,1.1,0,1.7-0.2c16.1,41.4,35.6,83.8,40.9,92.6c10.3,18,33.2,24.2,51.2,13.9
		c18-10.5,24-33.4,13.7-51.4c-5.1-8.8-31.9-46.9-59.6-81.5c5.2-8.6,8.4-18.7,8.4-29.6c0-10.7-3-20.8-8.4-29.4
		c27.7-34.7,54.6-72.7,59.6-81.5C373.7,127,367.7,104.1,349.7,93.6z M256,274.7c-10.3,0-18.7-8.2-18.7-18.7
		c0-10.3,8.4-18.7,18.7-18.7c10.3,0,18.7,8.4,18.7,18.7C274.7,266.5,266.3,274.7,256,274.7z"/>
	<path d="M181,124.7v18.7l37.5-37.5L181,68.5v18.7c-51.7,0-93.7,42-93.7,93.7h37.5C124.8,150,150.1,124.7,181,124.7z"/>
	<path d="M170.4,377.9l16.2-9.4l-51.2-13.7L121.7,406l16.2-9.4c25.9,44.8,83.2,60.2,128.1,34.3l-18.8-32.5
		C220.4,413.9,185.8,404.7,170.4,377.9z"/>
	<path d="M427.3,291.7c25.9-44.8,10.5-102.2-34.3-128l-18.7,32.5c26.8,15.5,36.1,50,20.6,76.8l-16.2-9.4l13.7,51.2l51.2-13.7
		L427.3,291.7z"/>
</g>
</svg>
