<?xml version="1.0" encoding="utf-8"?>
<!-- Generator: Adobe Illustrator 18.0.0, SVG Export Plug-In . SVG Version: 6.00 Build 0)  -->
<!DOCTYPE svg PUBLIC "-//W3C//DTD SVG 1.1//EN" "http://www.w3.org/Graphics/SVG/1.1/DTD/svg11.dtd">
<svg version="1.1" id="Layer_1" xmlns="http://www.w3.org/2000/svg" xmlns:xlink="http://www.w3.org/1999/xlink" x="0px" y="0px"
	 viewBox="0 0 512 512" enable-background="new 0 0 512 512" xml:space="preserve">
<path d="M443.5,256v75H331v18.8c0,10.3-8.4,18.8-18.8,18.8h-18.8v75h-75v-75h-18.8c-10.3,0-18.8-8.4-18.8-18.8V331H68.5v-75H181
	v-18.8c0-10.3,8.4-18.8,18.8-18.8h18.8v-18.8h18.8V106H181c-10.3,0-18.8-8.4-18.8-18.7c0-10.3,8.4-18.8,18.8-18.8h150
	c10.3,0,18.8,8.4,18.8,18.8c0,10.3-8.4,18.7-18.8,18.7h-56.3v93.7h18.8v18.8h18.8c10.3,0,18.8,8.4,18.8,18.8V256H443.5z"/>
</svg>
