<?xml version="1.0" encoding="utf-8"?>
<!-- Generator: Adobe Illustrator 18.0.0, SVG Export Plug-In . SVG Version: 6.00 Build 0)  -->
<!DOCTYPE svg PUBLIC "-//W3C//DTD SVG 1.1//EN" "http://www.w3.org/Graphics/SVG/1.1/DTD/svg11.dtd">
<svg version="1.1" id="Layer_1" xmlns="http://www.w3.org/2000/svg" xmlns:xlink="http://www.w3.org/1999/xlink" x="0px" y="0px"
	 viewBox="0 0 512 512" enable-background="new 0 0 512 512" xml:space="preserve">
<g>
	<path d="M181,143.5V106h-56.3v37.5H68.5v300h168.8v-300H181z M199.8,406H106v-37.5h93.8V406z M199.8,331H106v-37.5h93.8V331z
		 M199.8,256H106v-75h93.8V256z"/>
	<g>
		<path d="M368.5,218.5c0,41.4-33.6,75-75,75c-6.6,0-12.8-0.8-18.8-2.4V146c6-1.7,12.2-2.4,18.8-2.4
			C335,143.5,368.5,177.1,368.5,218.5z"/>
		<g>
			<g>
				<g>
					<path d="M311.2,124.7h-35.5c-0.6,0-1-0.4-1-1V69.5c0-0.6,0.4-1,1-1h35.5c0.6,0,1,0.4,1,1v54.2
						C312.2,124.3,311.8,124.7,311.2,124.7z"/>
					<path d="M311.2,368.5h-35.5c-0.6,0-1-0.4-1-1v-54.2c0-0.6,0.4-1,1-1h35.5c0.6,0,1,0.4,1,1v54.2
						C312.2,368.1,311.8,368.5,311.2,368.5z"/>
				</g>
				<g>
					<path d="M387.2,218.5L387.2,218.5c0-10.4,8.4-18.7,18.7-18.7h18.8c10.4,0,18.7,8.4,18.7,18.7l0,0c0,10.4-8.4,18.8-18.7,18.8
						H406C395.6,237.3,387.2,228.9,387.2,218.5z"/>
				</g>
			</g>
			<g>
				<g>
					<path d="M359.8,152.2L359.8,152.2c-7.3-7.3-7.3-19.2,0-26.5l13.3-13.3c7.3-7.3,19.2-7.3,26.5,0l0,0c7.3,7.3,7.3,19.2,0,26.5
						l-13.3,13.3C379,159.5,367.1,159.5,359.8,152.2z"/>
				</g>
				<g>
					<path d="M359.8,284.8L359.8,284.8c7.3-7.3,19.2-7.3,26.5,0l13.3,13.3c7.3,7.3,7.3,19.2,0,26.5l0,0c-7.3,7.3-19.2,7.3-26.5,0
						l-13.3-13.3C352.5,304,352.5,292.1,359.8,284.8z"/>
				</g>
			</g>
		</g>
	</g>
</g>
</svg>
