<?xml version="1.0" encoding="utf-8"?>
<!-- Generator: Adobe Illustrator 18.0.0, SVG Export Plug-In . SVG Version: 6.00 Build 0)  -->
<!DOCTYPE svg PUBLIC "-//W3C//DTD SVG 1.1//EN" "http://www.w3.org/Graphics/SVG/1.1/DTD/svg11.dtd">
<svg version="1.1" id="Layer_1" xmlns="http://www.w3.org/2000/svg" xmlns:xlink="http://www.w3.org/1999/xlink" x="0px" y="0px"
	 viewBox="0 0 512 512" enable-background="new 0 0 512 512" xml:space="preserve">
<g>
	<path d="M443.5,237.2c0,30.9-25.1,56-56.2,56h-42.3l37.5-56H234.9l-33.7,56.2h-94.8c-26.7,0-43.8-27.6-36-48.2
		c6-15.9,19.7-26.8,35.8-26.8c0-24.6,15.9-45.7,38.6-53.2c7.7-54.6,54.5-96.7,111.3-96.7c49.3,0,91.1,31.7,106.2,75.7
		c8.8-1.7,18.2,0,26.4,5.2c12.2,7.7,18.2,21.2,17.1,34.7C427.8,191.8,443.5,212.8,443.5,237.2z"/>
	<polyline points="312.4,274.8 256.2,274.8 199.9,368.5 237.4,368.5 199.9,443.5 312.4,331 274.9,331 312.4,274.8 	"/>
</g>
</svg>
