<?xml version="1.0" encoding="utf-8"?>
<!-- Generator: Adobe Illustrator 18.0.0, SVG Export Plug-In . SVG Version: 6.00 Build 0)  -->
<!DOCTYPE svg PUBLIC "-//W3C//DTD SVG 1.1//EN" "http://www.w3.org/Graphics/SVG/1.1/DTD/svg11.dtd">
<svg version="1.1" id="Layer_1" xmlns="http://www.w3.org/2000/svg" xmlns:xlink="http://www.w3.org/1999/xlink" x="0px" y="0px"
	 viewBox="0 0 512 512" enable-background="new 0 0 512 512" xml:space="preserve">
<path d="M256,68.5C152.4,68.5,68.5,152.4,68.5,256c0,103.6,83.9,187.5,187.5,187.5c103.6,0,187.5-83.9,187.5-187.5
	C443.5,152.4,359.6,68.5,256,68.5z M256,124.8c72.5,0,131.3,58.8,131.3,131.3c0,13-2,25.5-5.5,37.3h-88.3
	c-0.1-14-7.5-25.9-18.7-32.3v-98.8h-37.5v98.8c-11.2,6.3-18.7,18.5-18.7,32.3h-88.3c-3.5-11.8-5.5-24.4-5.5-37.3
	C124.8,183.5,183.5,124.8,256,124.8z"/>
</svg>
