<?xml version="1.0" encoding="utf-8"?>
<!-- Generator: Adobe Illustrator 18.0.0, SVG Export Plug-In . SVG Version: 6.00 Build 0)  -->
<!DOCTYPE svg PUBLIC "-//W3C//DTD SVG 1.1//EN" "http://www.w3.org/Graphics/SVG/1.1/DTD/svg11.dtd">
<svg version="1.1" id="Layer_1" xmlns="http://www.w3.org/2000/svg" xmlns:xlink="http://www.w3.org/1999/xlink" x="0px" y="0px"
	 viewBox="0 0 512 512" enable-background="new 0 0 512 512" xml:space="preserve">
<g>
	<path d="M421.7,421.7l-99.1,0.3l-0.3-99.8l33.1,33.1c11.6-11.6,20.9-24.9,27.3-38.9c25-52.2,15.9-116.7-27.3-159.9
		c-32.5-32.5-76.9-45.7-119.2-39.6V69.6c54.2-5.8,110.7,12.3,152.3,53.9c61.8,61.8,71.4,155.9,29,227.9c-8,13.3-17.6,25.9-29,37.3
		L421.7,421.7z"/>
	<path d="M275.6,394.9l0.2,47.6c-54.2,5.8-110.7-12.3-152.3-53.9c-61.8-61.8-71.4-155.9-29-227.9c7.9-13.3,17.6-25.9,29-37.3
		L90.3,90.3l99.1-0.3l0.3,99.8l-33.1-33.1c-11.6,11.6-20.9,24.9-27.3,38.9c-25,52.2-15.9,116.7,27.3,159.9
		C189.1,387.9,233.5,401.2,275.6,394.9z"/>
</g>
</svg>
