<?xml version="1.0" encoding="utf-8"?>
<!-- Generator: Adobe Illustrator 18.0.0, SVG Export Plug-In . SVG Version: 6.00 Build 0)  -->
<!DOCTYPE svg PUBLIC "-//W3C//DTD SVG 1.1//EN" "http://www.w3.org/Graphics/SVG/1.1/DTD/svg11.dtd">
<svg version="1.1" id="Layer_1" xmlns="http://www.w3.org/2000/svg" xmlns:xlink="http://www.w3.org/1999/xlink" x="0px" y="0px"
	 viewBox="0 0 512 512" enable-background="new 0 0 512 512" xml:space="preserve">
<g>
	<circle cx="256.3" cy="193.7" r="18.9"/>
	<path d="M375.3,127.4c7.3-7.3,7.3-19.2,0-26.5l-26.5-26.5l-79.5,79.5l39.8,39.8L375.3,127.4z"/>
	<path d="M163.2,313l79.5-79.5L203,193.7L136.7,260c-7.3,7.3-7.3,19.2,0,26.5L163.2,313z"/>
	<path d="M256,246.7l66.3,66.3c7.3,7.3,19.2,7.3,26.5,0l26.5-26.5l-79.5-79.5L256,246.7z"/>
	<path d="M256,140.6l-66.3-66.3c-7.3-7.3-19.2-7.3-26.5,0l-26.5,26.5l79.5,79.5L256,140.6z"/>
	<polygon points="237.3,293.1 218.5,443.1 293.9,443.1 275.2,293.1 	"/>
	<path d="M331,368.1c-2.9-1.2-6-1.9-9-2.9l9.7,77.9h111.8v-56.3C424.8,400.8,375.9,386.9,331,368.1z"/>
	<path d="M121.3,390.4c-36.3-1.8-52.8,32.1-52.8,32.1v20.7h112.2l6.7-53.7C169.1,393,145.5,391.6,121.3,390.4z"/>
</g>
</svg>
