<?xml version="1.0" encoding="utf-8"?>
<!-- Generator: Adobe Illustrator 18.0.0, SVG Export Plug-In . SVG Version: 6.00 Build 0)  -->
<!DOCTYPE svg PUBLIC "-//W3C//DTD SVG 1.1//EN" "http://www.w3.org/Graphics/SVG/1.1/DTD/svg11.dtd">
<svg version="1.1" id="Layer_1" xmlns="http://www.w3.org/2000/svg" xmlns:xlink="http://www.w3.org/1999/xlink" x="0px" y="0px"
	 viewBox="0 0 512 512" enable-background="new 0 0 512 512" xml:space="preserve">
<g>
	<circle cx="181" cy="406" r="37.5"/>
	<circle cx="181" cy="406" r="37.5"/>
	<path d="M331,368.5c-20.6,0-37.5,16.9-37.5,37.5s16.9,37.5,37.5,37.5c20.8,0,37.5-16.9,37.5-37.5S351.8,368.5,331,368.5z"/>
	<path d="M331,368.5c-20.6,0-37.5,16.9-37.5,37.5s16.9,37.5,37.5,37.5c20.8,0,37.5-16.9,37.5-37.5S351.8,368.5,331,368.5z"/>
	<path d="M363.4,143.5H162.3c0-15.9,9.9-29.4,24-34.9c9.9-23.6,33.2-40.1,60.4-40.1c34.9,0,63.6,27.4,65.4,61.7
		c5.6-3.6,12-5.4,18.9-5.4C344.9,124.8,357.1,132.3,363.4,143.5z"/>
	<polygon points="443.5,218.5 443.5,256 406,256 387.3,349.8 124.8,349.8 106,256 68.5,256 68.5,218.5 106,218.5 106,181 406,181 
		406,218.5 	"/>
</g>
</svg>
