<?xml version="1.0" encoding="utf-8"?>
<!-- Generator: Adobe Illustrator 18.0.0, SVG Export Plug-In . SVG Version: 6.00 Build 0)  -->
<!DOCTYPE svg PUBLIC "-//W3C//DTD SVG 1.1//EN" "http://www.w3.org/Graphics/SVG/1.1/DTD/svg11.dtd">
<svg version="1.1" id="Layer_1" xmlns="http://www.w3.org/2000/svg" xmlns:xlink="http://www.w3.org/1999/xlink" x="0px" y="0px"
	 viewBox="0 0 512 512" enable-background="new 0 0 512 512" xml:space="preserve">
<g>
	<path d="M398.3,333.8c7.7-25.1,2.1-54-16.9-73.9l-68.8-72.7c-18.4-19.3-45.2-22.1-66-10.5c-39.9-36.2-84.6-66.4-132.6-89.2
		l-0.2-0.2l-26.6,28.1h0.4c48.4,23.2,93.2,53.4,133.3,90l-16.9,35.8l13.3,14.1c-36.8,38.6-36.8,101.6,0,140.4
		c36.6,38.8,96.2,38.8,132.9,0l26.6-28.1l39.9,42.2l26.6-28.1L398.3,333.8z M244,367.5c-22.1-23.2-22.1-60.9,0-84.2l79.7,84.2
		C301.8,390.8,265.9,390.8,244,367.5z"/>
	<path d="M68.5,256c0,20.6,16.9,37.5,37.5,37.5c20.8,0,37.5-16.9,37.5-37.5S106,181,106,181S68.5,235.4,68.5,256z"/>
</g>
</svg>
