<?xml version="1.0" encoding="utf-8"?>
<!-- Generator: Adobe Illustrator 18.0.0, SVG Export Plug-In . SVG Version: 6.00 Build 0)  -->
<!DOCTYPE svg PUBLIC "-//W3C//DTD SVG 1.1//EN" "http://www.w3.org/Graphics/SVG/1.1/DTD/svg11.dtd">
<svg version="1.1" id="Layer_1" xmlns="http://www.w3.org/2000/svg" xmlns:xlink="http://www.w3.org/1999/xlink" x="0px" y="0px"
	 viewBox="0 0 512 512" enable-background="new 0 0 512 512" xml:space="preserve">
<g>
	<path d="M349.8,443.5H162.3c0-18.4,32.3-33.4,75-36.8V284.1c-12.6-0.4-24.9-1.1-37.5-2.4v30.5c0,10.4-8.4,18.8-18.8,18.8l0,0
		c-10.4,0-18.8-8.4-18.8-18.8V277c-18.8-3-37.5-6.8-56.3-11.6c40.7-51.4,79.1-139.7,93.6-196.9h112.9
		c14.4,57.2,52.9,145.5,93.6,196.9c-43.1,11.1-87.2,17.4-131.3,18.8v122.6C317.5,410.1,349.8,425.1,349.8,443.5z"/>
</g>
</svg>
