<?xml version="1.0" encoding="utf-8"?>
<!-- Generator: Adobe Illustrator 18.0.0, SVG Export Plug-In . SVG Version: 6.00 Build 0)  -->
<!DOCTYPE svg PUBLIC "-//W3C//DTD SVG 1.1//EN" "http://www.w3.org/Graphics/SVG/1.1/DTD/svg11.dtd">
<svg version="1.1" id="Layer_1" xmlns="http://www.w3.org/2000/svg" xmlns:xlink="http://www.w3.org/1999/xlink" x="0px" y="0px"
	 viewBox="0 0 512 512" enable-background="new 0 0 512 512" xml:space="preserve">
<path d="M387.3,237.3c-11.5,0-22.2,3.5-31.2,9.4L215.7,141.4c1.6-5.3,2.8-10.8,2.8-16.7c0-31.1-25.2-56.3-56.3-56.3
	S106,93.7,106,124.8c0,21.6,12.3,40.2,30.2,49.6l-22.5,157.8c-25.8,5.1-45.2,27.9-45.2,55.1c0,31.1,25.2,56.3,56.2,56.3
	s56.3-25.2,56.3-56.3c0-0.1,0-0.1,0-0.2l162.9-58.2c10.3,12.6,25.8,20.9,43.4,20.9c31.1,0,56.3-25.2,56.3-56.3
	S418.3,237.3,387.3,237.3z M168.1,351.9c-4.8-5.8-10.6-10.6-17.4-14.2l22.5-157.8c7.3-1.5,14.1-4.3,20.1-8.3l140.4,105.3
	c-1.7,5.3-2.8,10.8-2.8,16.7c0,0.1,0,0.1,0,0.2L168.1,351.9z"/>
</svg>
