<?xml version="1.0" encoding="utf-8"?>
<!-- Generator: Adobe Illustrator 18.0.0, SVG Export Plug-In . SVG Version: 6.00 Build 0)  -->
<!DOCTYPE svg PUBLIC "-//W3C//DTD SVG 1.1//EN" "http://www.w3.org/Graphics/SVG/1.1/DTD/svg11.dtd">
<svg version="1.1" id="Layer_1" xmlns="http://www.w3.org/2000/svg" xmlns:xlink="http://www.w3.org/1999/xlink" x="0px" y="0px"
	 viewBox="0 0 512 512" enable-background="new 0 0 512 512" xml:space="preserve">
<path d="M405.1,219.4c-51.3-51.3-134.4-51.3-185.6,0c-25.6,25.6-38.4,59.2-38.4,92.8h-18.8v-75H181c0.9-34.4,28.9-60.5,37.5-93.4
	h-18.8V68.5h-37.5v75.4h-37.5V68.5H87.2v75.4H68.5c8.6,32.8,36.6,59,37.5,93.4h18.8v112.5h61.7c6,20.2,17,39.3,33,55.3
	c51.3,51.3,134.4,51.3,185.6,0C456.3,353.8,456.3,270.7,405.1,219.4z M276.4,225.6l14.4,34.7c-13.3,5.5-24.5,16.1-30.5,30.4
	l-34.6-14.4C235.5,252.5,254.2,234.8,276.4,225.6z M255.2,386.6l22.8-29.8c11.4,8.8,26.2,13.2,41.6,11.2l4.9,37.2
	C298.8,408.6,274.2,401.2,255.2,386.6z M325.5,325.5c-7.3,7.3-19.2,7.3-26.5,0c-7.3-7.3-7.3-19.2,0-26.5c7.3-7.3,19.2-7.3,26.5,0
	C332.8,306.3,332.8,318.2,325.5,325.5z M368,319.6c1.9-14.3-1.7-29.3-11.1-41.6l29.8-22.8c15.8,20.5,21.7,45.5,18.6,69.3L368,319.6z
	"/>
</svg>
