<?xml version="1.0" encoding="utf-8"?>
<!-- Generator: Adobe Illustrator 18.0.0, SVG Export Plug-In . SVG Version: 6.00 Build 0)  -->
<!DOCTYPE svg PUBLIC "-//W3C//DTD SVG 1.1//EN" "http://www.w3.org/Graphics/SVG/1.1/DTD/svg11.dtd">
<svg version="1.1" id="Layer_1" xmlns="http://www.w3.org/2000/svg" xmlns:xlink="http://www.w3.org/1999/xlink" x="0px" y="0px"
	 viewBox="0 0 512 512" enable-background="new 0 0 512 512" xml:space="preserve">
<g>
	<path d="M370.8,68.5H141.2c-46.9,120-46.9,255,0,375h229.7C417.7,323.5,417.7,188.5,370.8,68.5z M349.7,406H162.2V293.5h187.5V406z
		 M349.7,218.5H162.2V106h187.5V218.5z"/>
	<path d="M218.4,368.5c10.3,0,18.7-8.4,18.7-18.8s-8.4-18.8-18.7-18.8s-18.8,8.4-18.8,18.8S208.1,368.5,218.4,368.5z"/>
	<path d="M293.4,368.5c10.3,0,18.7-8.4,18.7-18.8s-8.4-18.8-18.7-18.8c-10.3,0-18.8,8.4-18.8,18.8S283.1,368.5,293.4,368.5z"/>
	<path d="M218.4,181c10.3,0,18.7-8.4,18.7-18.8s-8.4-18.8-18.7-18.8s-18.8,8.4-18.8,18.8S208.1,181,218.4,181z"/>
	<path d="M293.4,181c10.3,0,18.7-8.4,18.7-18.8s-8.4-18.8-18.7-18.8c-10.3,0-18.8,8.4-18.8,18.8S283.1,181,293.4,181z"/>
</g>
</svg>
