<?xml version="1.0" encoding="utf-8"?>
<!-- Generator: Adobe Illustrator 18.0.0, SVG Export Plug-In . SVG Version: 6.00 Build 0)  -->
<!DOCTYPE svg PUBLIC "-//W3C//DTD SVG 1.1//EN" "http://www.w3.org/Graphics/SVG/1.1/DTD/svg11.dtd">
<svg version="1.1" id="Layer_1" xmlns="http://www.w3.org/2000/svg" xmlns:xlink="http://www.w3.org/1999/xlink" x="0px" y="0px"
	 viewBox="0 0 512 512" enable-background="new 0 0 512 512" xml:space="preserve">
<polygon points="278.5,106 274.8,68.5 237.3,68.5 233.5,106 68.5,106 68.5,124.8 87.3,128.5 87.3,128.5 87.3,181 124.8,181 
	124.8,136 228.4,156.7 222.3,218.5 124.8,218.5 124.8,237.3 143.5,242.6 143.5,289.8 181,289.8 181,253.3 217.7,263.8 199.8,443.5 
	312.2,443.5 294.3,263.8 331,253.3 331,289.8 368.5,289.8 368.5,242.6 387.2,237.3 387.2,218.5 289.8,218.5 283.6,156.7 387.2,136 
	387.2,181 424.7,181 424.7,128.5 443.5,124.8 443.5,106 "/>
</svg>
