<?xml version="1.0" encoding="utf-8"?>
<!-- Generator: Adobe Illustrator 18.0.0, SVG Export Plug-In . SVG Version: 6.00 Build 0)  -->
<!DOCTYPE svg PUBLIC "-//W3C//DTD SVG 1.1//EN" "http://www.w3.org/Graphics/SVG/1.1/DTD/svg11.dtd">
<svg version="1.1" id="Layer_1" xmlns="http://www.w3.org/2000/svg" xmlns:xlink="http://www.w3.org/1999/xlink" x="0px" y="0px"
	 viewBox="0 0 512 512" enable-background="new 0 0 512 512" xml:space="preserve">
<g>
	<path d="M381.9,237.2c-6.4-11.1-5.1-19.9-5.1-19.9c2.4-8.1,10.1-17.3,10.1-17.3s8.3,7.7,9.8,18.6c0.8,5.6-2.3,12-4.7,18.6
		c18.4-3,32.4-21.2,32.4-43.5c0-24.2-37.5-87.8-37.5-87.8s-37.5,63.6-37.5,87.8C349.4,216.2,363.5,234.4,381.9,237.2z"/>
	<path d="M442.3,278.3c-6.4-19.5-35.8-27.8-65.6-18.6c-20.1,6.2-35.1,18.6-41.1,32.1h-0.4L81.6,370c-8.3,2.6-13.5,10.1-13.1,18.4
		c0.6,12.2,12.8,20.4,24.6,16.9l253.7-78.4h0.2c12.8,7.7,32.4,9.4,52.5,3.2C429.5,320.8,448.7,297.6,442.3,278.3z"/>
</g>
</svg>
