<?xml version="1.0" encoding="utf-8"?>
<!-- Generator: Adobe Illustrator 18.0.0, SVG Export Plug-In . SVG Version: 6.00 Build 0)  -->
<!DOCTYPE svg PUBLIC "-//W3C//DTD SVG 1.1//EN" "http://www.w3.org/Graphics/SVG/1.1/DTD/svg11.dtd">
<svg version="1.1" id="Layer_1" xmlns="http://www.w3.org/2000/svg" xmlns:xlink="http://www.w3.org/1999/xlink" x="0px" y="0px"
	 viewBox="0 0 512 512" enable-background="new 0 0 512 512" xml:space="preserve">
<g>
	<path d="M68.5,181L106,387.2h46.9c8.6-11.4,22.1-18.7,37.5-18.7s28.9,7.3,37.5,18.7h56.2c8.6-11.4,22.1-18.7,37.5-18.7
		s28.9,7.3,37.5,18.7H406L443.5,181H68.5z"/>
	<path d="M377.9,124.7c-3.4,0-6.4,0.6-9.4,1.9v-1.9c0-20.6-16.9-37.5-37.5-37.5c-6.4,0-12.2,1.5-17.4,4.1
		c-15.2-14.2-35.2-22.9-57.6-22.9s-42.7,8.6-57.7,23.1c-5.1-2.8-11.1-4.3-17.2-4.3c-20.8,0-37.5,16.9-37.5,37.5v1.9
		c-3-1.3-6-1.9-9.4-1.9c-12.2,0-22.7,7.9-26.4,18.7h296.6C400.6,132.6,390.1,124.7,377.9,124.7z"/>
	<circle cx="190.4" cy="415.4" r="28.1"/>
	<circle cx="321.6" cy="415.4" r="28.1"/>
</g>
</svg>
