<?xml version="1.0" encoding="UTF-8"?>
<svg width="615px" height="520px" viewBox="0 0 615 520" version="1.1" xmlns="http://www.w3.org/2000/svg" xmlns:xlink="http://www.w3.org/1999/xlink">
    <!-- Generator: Sketch 48 (47235) - http://www.bohemiancoding.com/sketch -->
    <title>Artboard 7</title>
    <desc>Created with Sketch.</desc>
    <defs>
        <polygon id="path-1" points="2.52015501e-19 0 182.101867 74.3556972 436.462264 82.6086957 436.462264 365.130435 181.031237 365.130435 2.52015501e-19 315.565217"></polygon>
    </defs>
    <g id="PLACEHOLDERS" stroke="none" stroke-width="1" fill="none" fill-rule="evenodd">
        <g id="Artboard-7">
            <g id="Group-27">
                <rect id="Rectangle-186" fill="#F8C400" x="0" y="0" width="615" height="615"></rect>
                <g id="BOOK-MINE-angle" transform="translate(89.000000, 52.000000)">
                    <g id="Group-9" transform="translate(0.000000, 14.869565)">
                        <g id="Rectangle-1">
                            <use fill="#3C3F4C" fill-rule="evenodd" xlink:href="#path-1"></use>
                            <path stroke="#232D37" stroke-width="3" d="M1.5,2.23270428 L1.5,314.420702 L181.232872,363.630435 L434.962264,363.630435 L434.962264,84.0608159 L181.78411,75.8461766 L1.5,2.23270428 Z"></path>
                        </g>
                        <path d="M24.7989923,297.177172 L200.43028,346.845584 L423.236135,346.956522 L423.236135,94.173913 L400.175036,71.0434783 C400.175036,71.0434783 381.84895,71.0434783 372.685907,71.0434783 C318.306639,71.0434783 209.548104,71.0434783 209.548104,71.0434783 C202.187098,71.0434783 194.392377,76.9887107 192.136783,84.3268338 L190.498228,89.6575437 L189.269262,86.0327934 C188.086123,78.3524561 180.470109,71.0434783 173.04699,71.0434783 L24.7989923,25.0353012 L24.7989923,297.177172 Z" id="Combined-Shape" fill="#E6E6E6"></path>
                    </g>
                    <path d="M196.948789,189.698433 C196.738672,272.094882 196.738672,361.826087 196.738672,361.826087 L401.358083,361.826087 L401.358083,85.9130435 L213.994732,85.9130435 C206.699366,85.9130435 198.974152,88.3388407 196.738672,96.2964158 C196.738672,96.2964158 197.158906,107.301985 196.948789,189.698433 Z" id="Combined-Shape" fill="#FFFFFF"></path>
                    <path d="M374.372935,128.27281 L280.320461,128.27281 C277.087407,128.27281 274.442181,130.909384 274.442181,134.131862 L274.442181,192.722388 C274.442181,195.944867 277.087407,198.581441 280.320461,198.581441 L374.372935,198.581441 C377.605989,198.581441 380.251215,195.944867 380.251215,192.722388 L380.251215,134.131862 C380.251215,130.909384 377.605989,128.27281 374.372935,128.27281 L374.372935,128.27281 Z" id="Shape" fill="#F3643F"></path>
                    <path d="M344.981537,110.695652 L309.711859,110.695652 C306.478805,110.695652 303.83358,113.332226 303.83358,116.554705 L303.83358,128.27281 L315.590139,128.27281 L315.590139,122.413757 L339.103257,122.413757 L339.103257,128.27281 L350.859817,128.27281 L350.859817,116.554705 C350.859817,113.332226 348.214591,110.695652 344.981537,110.695652 L344.981537,110.695652 Z M333.224978,145.849968 L321.468418,145.849968 C318.235365,145.849968 315.590139,148.486541 315.590139,151.70902 L315.590139,157.568073 C315.590139,160.790552 318.235365,163.427125 321.468418,163.427125 L333.224978,163.427125 C336.458032,163.427125 339.103257,160.790552 339.103257,157.568073 L339.103257,151.70902 C339.103257,148.486541 336.458032,145.849968 333.224978,145.849968 L333.224978,145.849968 Z M333.224978,157.568073 L321.468418,157.568073 L321.468418,151.70902 L333.224978,151.70902 L333.224978,157.568073 L333.224978,157.568073 Z" id="Shape" fill="#344E5F"></path>
                    <path d="M274.442181,157.568073 L321.468418,157.568073 L321.468418,151.70902 L274.442181,151.70902 L274.442181,157.568073 L274.442181,157.568073 Z M333.224978,151.70902 L333.224978,157.568073 L380.251215,157.568073 L380.251215,151.70902 L333.224978,151.70902 L333.224978,151.70902 Z" id="Shape" fill="#344E5F"></path>
                    <polygon id="Rectangle-41" fill="#C2C2C2" points="40.4909095 302.347826 39.0483752 16.5217391 180.416742 94.173913 180.416742 354.488954"></polygon>
                    <polygon id="Rectangle-41" fill="#D5D5D5" points="51.1957864 299.043478 51.1957902 2.12457299 185.165809 89.2173913 185.165809 349.532432"></polygon>
                    <polygon id="Rectangle-41" fill="#E5E5E5" points="65.2247254 288.604543 63.5714593 -1.87962665e-13 181.859277 94.173913 181.859277 354.488954"></polygon>
                    <polygon id="Rectangle-41" fill="#FFFFFF" points="77.5698538 272.608696 75.889485 0 194.924648 94.173913 194.924648 354.488954"></polygon>
                    <path d="M221.596169,333.73913 L399.779807,333.73913 C407.474523,333.73913 415.623179,339.684363 417.975171,347.002092 L422.670928,361.611955 L196.738672,361.611955 L221.596169,333.73913 Z" id="Path-56" fill="#C5C1C0" transform="translate(309.704800, 347.675543) scale(-1, 1) translate(-309.704800, -347.675543) "></path>
                    <path d="M92.8793475,56.9364844 L184.222622,116.790581 C186.020755,117.968836 186.88692,121.298431 186.160564,124.214162 C185.432728,127.135838 183.383471,128.548142 181.586892,127.370907 L90.243618,67.5168097 C88.4454853,66.3385554 87.5793199,63.00896 88.3056755,60.0932289 C89.0335121,57.1715527 91.0827692,55.7592487 92.8793475,56.9364844 Z" id="Rectangle-9" fill="#CECAC9"></path>
                    <path d="M92.8793475,80.302374 L184.222622,140.156471 C186.020755,141.334725 186.88692,144.664321 186.160564,147.580052 C185.432728,150.501728 183.383471,151.914032 181.586892,150.736796 L90.243618,90.8826993 C88.4454853,89.704445 87.5793199,86.3748496 88.3056755,83.4591185 C89.0335121,80.5374423 91.0827692,79.1251383 92.8793475,80.302374 Z" id="Rectangle-9" fill="#CECAC9"></path>
                    <path d="M92.8793475,103.668264 L184.222622,163.522361 C186.020755,164.700615 186.88692,168.03021 186.160564,170.945942 C185.432728,173.867618 183.383471,175.279922 181.586892,174.102686 L90.243618,114.248589 C88.4454853,113.070335 87.5793199,109.740739 88.3056755,106.825008 C89.0335121,103.903332 91.0827692,102.491028 92.8793475,103.668264 Z" id="Rectangle-9" fill="#CECAC9"></path>
                    <path d="M92.8793475,127.034153 L184.222622,186.88825 C186.020755,188.066505 186.88692,191.3961 186.160564,194.311831 C185.432728,197.233507 183.383471,198.645811 181.586892,197.468576 L90.243618,137.614479 C88.4454853,136.436224 87.5793199,133.106629 88.3056755,130.190898 C89.0335121,127.269222 91.0827692,125.856918 92.8793475,127.034153 Z" id="Rectangle-9" fill="#CECAC9"></path>
                    <path d="M92.8793475,150.400043 L184.222622,210.25414 C186.020755,211.432394 186.88692,214.76199 186.160564,217.677721 C185.432728,220.599397 183.383471,222.011701 181.586892,220.834465 L90.243618,160.980368 C88.4454853,159.802114 87.5793199,156.472518 88.3056755,153.556787 C89.0335121,150.635111 91.0827692,149.222807 92.8793475,150.400043 Z" id="Rectangle-9" fill="#CECAC9"></path>
                    <path d="M92.8793475,173.765932 L184.222622,233.62003 C186.020755,234.798284 186.88692,238.127879 186.160564,241.04361 C185.432728,243.965287 183.383471,245.377591 181.586892,244.200355 L90.243618,184.346258 C88.4454853,183.168003 87.5793199,179.838408 88.3056755,176.922677 C89.0335121,174.001001 91.0827692,172.588697 92.8793475,173.765932 Z" id="Rectangle-9" fill="#CECAC9"></path>
                    <path d="M92.8793475,197.131822 L184.222622,256.985919 C186.020755,258.164173 186.88692,261.493769 186.160564,264.4095 C185.432728,267.331176 183.383471,268.74348 181.586892,267.566244 L90.243618,207.712147 C88.4454853,206.533893 87.5793199,203.204298 88.3056755,200.288567 C89.0335121,197.36689 91.0827692,195.954586 92.8793475,197.131822 Z" id="Rectangle-9" fill="#CECAC9"></path>
                    <path d="M91.7066819,220.497712 L183.049956,280.351809 C184.848089,281.530063 185.714254,284.859658 184.987899,287.77539 C184.260062,290.697066 182.210805,292.10937 180.414227,290.932134 L89.0709525,231.078037 C87.2728198,229.899783 86.4066544,226.570187 87.13301,223.654456 C87.8608465,220.73278 89.9101037,219.320476 91.7066819,220.497712 Z" id="Rectangle-9" fill="#CECAC9"></path>
                    <rect id="Rectangle-9" fill="#CECAC9" x="213.271334" y="226.583851" width="165.326615" height="9.91304348" rx="4.95652174"></rect>
                    <rect id="Rectangle-9" fill="#CECAC9" x="213.271334" y="246.881988" width="165.326615" height="9.91304348" rx="4.95652174"></rect>
                    <rect id="Rectangle-9" fill="#CECAC9" x="213.271334" y="267.180124" width="165.326615" height="9.91304348" rx="4.95652174"></rect>
                    <rect id="Rectangle-9" fill="#CECAC9" x="213.271334" y="287.478261" width="165.326615" height="9.91304348" rx="4.95652174"></rect>
                    <rect id="Rectangle-9" fill="#CECAC9" x="213.271334" y="153.652174" width="49.5979846" height="4.95652174" rx="2.47826087"></rect>
                    <rect id="Rectangle-9" fill="#CECAC9" x="213.271334" y="167.42029" width="49.5979846" height="4.95652174" rx="2.47826087"></rect>
                    <rect id="Rectangle-9" fill="#CECAC9" x="213.271334" y="181.188406" width="49.5979846" height="4.95652174" rx="2.47826087"></rect>
                    <rect id="Rectangle-9" fill="#CECAC9" x="213.271334" y="194.956522" width="49.5979846" height="4.95652174" rx="2.47826087"></rect>
                </g>
            </g>
        </g>
    </g>
</svg>