<?xml version="1.0" encoding="UTF-8"?>
<svg width="195px" height="182px" viewBox="0 0 195 182" version="1.1" xmlns="http://www.w3.org/2000/svg" xmlns:xlink="http://www.w3.org/1999/xlink">
    <!-- Generator: Sketch 42 (36781) - http://www.bohemiancoding.com/sketch -->
    <title>coal</title>
    <desc>Created with Sketch.</desc>
    <defs>
        <path d="M97.438254,18.0753132 C97.438254,18.0986606 97.4404784,18.1197844 97.4404784,18.14202 C96.9967128,18.1108902 96.5529472,18.0753132 96.0991718,18.0753132 C92.5357004,18.0753132 89.2202484,19.1137154 86.4219668,20.8970099 C86.0582792,21.1293718 85.6623379,21.2816857 85.2586113,21.3561749 C84.8637822,21.3561749 84.4689532,21.3583985 84.0763485,21.3617338 C83.4068074,21.2449969 82.7661833,20.9259162 82.255686,20.4233918 C78.9947315,17.2070133 74.5237093,15.2147042 69.5800045,15.2147042 C62.6476957,15.2147042 56.641845,19.1192743 53.6088904,24.8427158 C51.3822769,25.3530227 49.2023756,25.9166949 47.0736352,26.5281737 C46.6487768,26.199087 46.2917624,25.7777225 46.0448552,25.2774216 C43.088642,19.3149475 36.9504402,15.2147042 29.8435169,15.2147042 C19.8548975,15.2147042 11.7570088,23.3073481 11.7570088,33.2911292 C11.7570088,33.5501739 11.763682,33.806995 11.7759161,34.0627043 C11.8348624,35.3067857 10.8995068,36.339629 9.66385861,36.5030606 C8.74407371,36.6264681 7.79982052,36.8810656 6.83554782,37.2990948 C3.64132502,38.685484 1.29681887,41.6695005 0.756292307,45.1093467 C0.134575543,49.0717293 1.75837961,52.6994662 4.55332457,54.9185783 C2.46462317,58.6697228 1.16446771,62.6198758 0.766302058,66.7067777 L169.931096,66.7067777 C169.515135,62.4419911 168.118219,58.3261829 165.866025,54.4293953 C167.894668,52.927381 169.366101,50.6993746 169.859916,48.1589582 C171.153398,41.5138513 166.096249,35.6992439 159.681111,35.6992439 C159.410848,35.6992439 159.147258,35.7192559 158.881443,35.7403797 C158.990438,34.9365631 159.068292,34.1227404 159.068292,33.2911292 C159.068292,23.3073481 150.970403,15.2147042 140.980671,15.2147042 C140.335599,15.2147042 139.699423,15.2502812 139.073258,15.3169879 C136.208245,15.6216156 133.385495,14.0973657 132.324461,11.4190886 C129.677438,4.73062232 123.158866,0 115.524762,0 C105.536143,0 97.438254,8.09264392 97.438254,18.0753132 Z" id="path-1"></path>
        <path d="M0.766302058,0 C1.16446771,4.08690192 2.46462317,8.03705494 4.55332457,11.7881994 C1.75837961,14.0073115 0.134575543,17.6350485 0.756292307,21.5974311 C1.29681887,25.0372772 3.64132502,28.0212938 6.83554782,29.407683 C7.79982052,29.8246003 8.74407371,30.0803096 9.66385861,30.204829 C10.8995068,30.3671488 11.8348624,31.3999921 11.7759161,32.6429617 C11.763682,32.898671 11.7570088,33.1577157 11.7570088,33.4167603 C11.7570088,43.3994296 19.8548975,51.4920735 29.8435169,51.4920735 C36.9504402,51.4920735 43.088642,47.3918302 46.0448552,41.4304679 C46.2917624,40.9290553 46.6487768,40.5076908 47.0736352,40.178604 C49.2023756,40.7911946 51.3822769,41.3537551 53.6088904,41.8640619 C56.641845,47.5875035 62.6476957,51.4920735 69.5800045,51.4920735 C74.5237093,51.4920735 78.9947315,49.4997644 82.255686,46.2844977 C82.7661833,45.7808616 83.4068074,45.4617808 84.0763485,45.3450439 C84.4689532,45.3483793 84.8637822,45.3506028 85.2586113,45.3506028 C85.6623379,45.4250921 86.0582792,45.5774059 86.4219668,45.8097678 C89.2202484,47.5930624 92.5357004,48.6314645 96.0991718,48.6314645 C96.5529472,48.6314645 96.9967128,48.5958876 97.4404784,48.5647578 C97.4404784,48.5869933 97.438254,48.6081172 97.438254,48.6314645 C97.438254,58.6141338 105.536143,66.7067777 115.524762,66.7067777 C123.158866,66.7067777 129.677438,61.9761554 132.324461,55.2876892 C133.385495,52.609412 136.208245,51.0851622 139.073258,51.388678 C139.699423,51.4576083 140.335599,51.4920735 140.980671,51.4920735 C150.970403,51.4920735 159.068292,43.3994296 159.068292,33.4167603 C159.068292,32.5840374 158.990438,31.7702147 158.881443,30.966398 C159.147258,30.9875218 159.410848,31.0075339 159.681111,31.0075339 C166.096249,31.0075339 171.153398,25.1929264 169.859916,18.5478196 C169.366101,16.0062913 167.894668,13.7782849 165.866025,12.2773824 C168.118219,8.38059484 169.515135,4.26478666 169.931096,0 L0.766302058,0 Z" id="path-3"></path>
    </defs>
    <g id="PRODUCER" stroke="none" stroke-width="1" fill="none" fill-rule="evenodd">
        <g id="coal">
            <g id="Page-1">
                <g id="Group-8" transform="translate(12.913815, 15.564915)">
                    <path d="M33.7203924,0.227902471 C33.7203924,0.227902471 19.5221165,6.20482976 17.530176,22.8859713 C17.530176,22.8859713 16.0353865,19.4005422 17.530176,14.6699199 C17.530176,14.6699199 5.3249528,27.8645205 10.0584529,52.2658598 C10.0584529,52.2658598 5.07693341,43.3026924 6.57172291,35.086641 C6.57172291,35.086641 -4.88610554,56.250478 2.83474916,72.1845036 C10.5567161,88.119641 24.7538797,88.8667569 28.4897413,88.8667569 C32.2256029,88.8667569 51.9025492,86.3763706 56.3858055,59.983834 C56.3858055,59.983834 51.1551544,66.955804 47.1701613,62.2251817 C47.1701613,62.2251817 52.6499439,55.7512889 50.1597403,48.2823534 C47.6684245,40.812306 39.6984382,35.3345678 39.6984382,30.6050573 C39.6984382,25.8733232 41.1921155,24.3790914 41.1921155,24.3790914 C41.1921155,24.3790914 35.2151819,27.1185164 34.4677871,34.5874519 C34.4677871,34.5874519 33.9684117,29.1097137 31.4782081,24.8771686 C28.9880045,20.6446236 28.2406097,13.8460911 29.237136,9.90038524 C30.2325502,5.95579112 33.7203924,0.227902471 33.7203924,0.227902471" id="Fill-1" fill="#FF8E36"></path>
                    <g id="Group-5" transform="translate(138.344647, 38.912287)" fill="#FF8D3B">
                        <path d="M20.4646025,31.1544988 C7.76556492,45.9022555 -2.10293749,56.6198112 1.10685604,80.3507473 C1.10685604,80.3507473 4.96172241,66.8559662 14.6745176,60.1964062 C24.3862006,53.537958 44.57221,45.044998 43.412191,24.7238899 C43.412191,24.7238899 41.3005961,30.1675957 31.4043169,31.1544988 C31.4043169,31.1544988 47.0694088,17.9187623 28.4768522,0.105829068 C28.4768522,0.105829068 33.1636401,16.406742 20.4646025,31.1544988 Z" id="Fill-3"></path>
                    </g>
                    <path d="M142.449534,116.728955 C144.17566,104.745082 155.153021,92.1830844 162.450129,82.9486428 C168.514926,75.2695809 171.926027,68.7389874 171.318769,58.8597136 C170.940623,52.6993427 169.761696,46.4778239 167.683005,40.6320866 C167.683005,40.6320866 169.486984,65.507044 160.369213,71.5373367 C160.369213,71.5373367 163.873738,55.7678544 157.414112,49.0649351 C159.670755,51.406343 157.278425,61.1822212 156.56662,63.7015139 C154.692572,70.3410618 150.345004,75.8888422 148.079463,82.422771 C144.290216,93.3549001 143.454958,105.248719 142.449534,116.728955" id="Fill-6" fill="#FF8D3B"></path>
                </g>
                <path d="M155.414733,60.7414006 C155.414733,65.5731949 151.496471,69.4888827 146.663986,69.4888827 C141.830388,69.4888827 137.912127,65.5731949 137.912127,60.7414006 C137.912127,55.9096063 141.830388,51.9939185 146.663986,51.9939185 C151.496471,51.9939185 155.414733,55.9096063 155.414733,60.7414006" id="Fill-69-Copy" fill="#131313"></path>
                <g id="Group-11" transform="translate(8.897557, 50.063313)">
                    <mask id="mask-2" fill="white">
                        <use xlink:href="#path-1"></use>
                    </mask>
                    <g id="Clip-10"></g>
                    <polygon id="Fill-9" fill="#000000" mask="url(#mask-2)" points="-4.93703169 72.2656759 175.62442 72.2656759 175.62442 -5.55889814 -4.93703169 -5.55889814"></polygon>
                </g>
                <g id="Group-14" transform="translate(8.897557, 114.546532)">
                    <mask id="mask-4" fill="white">
                        <use xlink:href="#path-3"></use>
                    </mask>
                    <g id="Clip-13"></g>
                    <polygon id="Fill-12" fill="#000000" mask="url(#mask-4)" points="-4.93703169 72.2656759 175.62442 72.2656759 175.62442 -5.55889814 -4.93703169 -5.55889814"></polygon>
                </g>
                <g id="Group-58" transform="translate(0.000000, 0.033230)">
                    <path d="M36.9942606,96.7218259 C27.9343237,96.5561708 20.6438883,89.653131 20.6438883,81.1602464 C20.6438883,72.5639664 28.113387,65.5953316 37.3268068,65.5953316 C46.5402266,65.5953316 54.0097254,72.5639664 54.0097254,81.1602464 C54.0097254,84.9858802 52.5293944,88.4902095 50.074781,91.2007283 C57.8679283,91.7088116 64.0194765,97.7213158 64.0194765,105.063508 C64.0194765,112.738123 57.2973725,118.960754 49.0048498,118.960754 C45.4113492,118.960754 42.1125801,117.792273 39.5278399,115.843324 C39.094084,123.158834 32.5477068,128.96677 24.5365693,128.96677 C16.2440466,128.96677 9.52194259,122.74414 9.52194259,115.069525 C9.52194259,107.393799 16.2440466,101.17228 24.5365693,101.17228 C28.1300699,101.17228 31.428839,102.34076 34.012467,104.288598 C34.1804084,101.458007 35.2647981,98.8519957 36.9942606,96.7218259" id="Fill-15" fill="#131313"></path>
                    <path d="M38.9948762,166.766944 C47.287399,166.766944 54.0095029,160.545426 54.0095029,152.869699 C54.0095029,145.193972 47.287399,138.972454 38.9948762,138.972454 C30.7023535,138.972454 23.9802496,145.193972 23.9802496,152.869699 C23.9802496,160.545426 30.7023535,166.766944 38.9948762,166.766944" id="Fill-17" fill="#131313"></path>
                    <path d="M84.5767248,71.9750567 C82.074287,67.5234911 77.0449432,64.4827738 71.2481851,64.4827738 C62.9567746,64.4827738 56.2335584,70.7054044 56.2335584,78.3800191 C56.2335584,86.0557457 62.9567746,92.2772645 71.2481851,92.2772645 C74.9662515,92.2772645 78.3684547,91.0265124 80.9910095,88.955267 C83.509018,94.1895255 89.1556299,97.8361626 95.7164656,97.8361626 C104.62292,97.8361626 111.843287,91.1165666 111.843287,82.8271376 C111.843287,81.2517459 111.583033,79.7330549 111.099229,78.3066417 C112.567326,78.7157766 114.124398,78.9359089 115.735968,78.9359089 C124.642422,78.9359089 131.862789,72.2163129 131.862789,63.926884 C131.862789,55.6385668 124.642422,48.917859 115.735968,48.917859 C106.829514,48.917859 99.6091466,55.6385668 99.6091466,63.926884 C99.6091466,65.5022757 99.8705123,67.0220784 100.354317,68.4484917 C98.885108,68.038245 97.3291478,67.8181127 95.7164656,67.8181127 C91.3955897,67.8181127 87.4717673,69.4001751 84.5767248,71.9750567" id="Fill-19" fill="#131313"></path>
                    <path d="M70.4903357,147.563397 C75.7209868,147.563397 79.9606725,143.325293 79.9606725,138.096594 C79.9606725,132.867894 75.7209868,128.62979 70.4903357,128.62979 C65.2596847,128.62979 61.019999,132.867894 61.019999,138.096594 C61.019999,143.325293 65.2596847,147.563397 70.4903357,147.563397" id="Fill-21" fill="#000000"></path>
                    <path d="M105.894269,140.656689 C111.12492,140.656689 115.364606,136.418585 115.364606,131.189885 C115.364606,125.961185 111.12492,121.723081 105.894269,121.723081 C100.663618,121.723081 96.4239326,125.961185 96.4239326,131.189885 C96.4239326,136.418585 100.663618,140.656689 105.894269,140.656689" id="Fill-23" fill="#131313"></path>
                    <path d="M123.521664,142.307793 C132.428118,142.307793 139.648485,135.090119 139.648485,126.186988 C139.648485,117.283857 132.428118,110.066183 123.521664,110.066183 C114.615209,110.066183 107.394842,117.283857 107.394842,126.186988 C107.394842,135.090119 114.615209,142.307793 123.521664,142.307793" id="Fill-27" fill="#131313"></path>
                    <path d="M113.271567,107.432933 C122.178021,107.432933 129.398388,100.21526 129.398388,91.3121286 C129.398388,82.4089973 122.178021,75.191324 113.271567,75.191324 C104.365113,75.191324 97.1447459,82.4089973 97.1447459,91.3121286 C97.1447459,100.21526 104.365113,107.432933 113.271567,107.432933" id="Fill-29" fill="#131313"></path>
                    <path d="M150.77043,101.171946 C159.369919,101.171946 166.341154,94.2033115 166.341154,85.6070314 C166.341154,77.0107513 159.369919,70.0421166 150.77043,70.0421166 C142.170942,70.0421166 135.199707,77.0107513 135.199707,85.6070314 C135.199707,94.2033115 142.170942,101.171946 150.77043,101.171946" id="Fill-33" fill="#131313"></path>
                    <path d="M164.672863,131.189996 C173.579317,131.189996 180.799684,123.972323 180.799684,115.069192 C180.799684,106.16606 173.579317,98.948387 164.672863,98.948387 C155.766408,98.948387 148.546041,106.16606 148.546041,115.069192 C148.546041,123.972323 155.766408,131.189996 164.672863,131.189996" id="Fill-35" fill="#282828"></path>
                    <path d="M101.071794,156.091525 C106.302445,156.091525 110.54213,151.853421 110.54213,146.624722 C110.54213,141.396022 106.302445,137.157918 101.071794,137.157918 C95.8411426,137.157918 91.6014569,141.396022 91.6014569,146.624722 C91.6014569,151.853421 95.8411426,156.091525 101.071794,156.091525" id="Fill-37" fill="#131313"></path>
                    <path d="M91.6015682,146.129646 C96.8322192,146.129646 101.071905,141.891542 101.071905,136.662843 C101.071905,131.434143 96.8322192,127.196039 91.6015682,127.196039 C86.3709171,127.196039 82.1312314,131.434143 82.1312314,136.662843 C82.1312314,141.891542 86.3709171,146.129646 91.6015682,146.129646" id="Fill-39" fill="#131313"></path>
                    <path d="M153.35328,164.316693 C161.645803,164.316693 168.367907,158.095174 168.367907,150.419448 C168.367907,142.743721 161.645803,136.522202 153.35328,136.522202 C145.060757,136.522202 138.338653,142.743721 138.338653,150.419448 C138.338653,158.095174 145.060757,164.316693 153.35328,164.316693" id="Fill-41" fill="#131313"></path>
                    <path d="M124.633858,181.22008 C134.769287,181.22008 142.985068,173.007363 142.985068,162.875716 C142.985068,152.744068 134.769287,144.531352 124.633858,144.531352 C114.498429,144.531352 106.282648,152.744068 106.282648,162.875716 C106.282648,173.007363 114.498429,181.22008 124.633858,181.22008" id="Fill-43" fill="#282828"></path>
                    <path d="M167.033162,143.679395 C172.263813,143.679395 176.503499,139.441291 176.503499,134.212591 C176.503499,128.983892 172.263813,124.745788 167.033162,124.745788 C161.802511,124.745788 157.562825,128.983892 157.562825,134.212591 C157.562825,139.441291 161.802511,143.679395 167.033162,143.679395" id="Fill-45" fill="#131313"></path>
                    <g id="Group-49" transform="translate(0.000000, 78.503995)" fill="#FF8D3B">
                        <path d="M16.2106807,0.193214946 C16.2106807,0.193214946 12.0210438,14.1616142 22.7948726,26.9659802 C33.5687014,39.7703462 41.9479753,49.0815006 38.9550597,69.4526387 C38.9550597,69.4526387 35.7741832,57.8134178 27.4883337,51.9921396 C19.2035963,46.1719733 -1.14622772,38.0237404 0.0504936335,20.5643531 C0.0504936335,20.5643531 8.54877234,37.1899057 19.7841619,37.1609994 C19.7841619,37.1609994 0.0504936335,15.3256475 16.2106807,0.193214946" id="Fill-47"></path>
                    </g>
                    <path d="M34.0175831,134.37669 C32.6518082,124.057152 23.3360665,113.14837 17.1533768,105.136886 C12.0150379,98.4762142 9.14557595,92.8272619 9.76395613,84.3399362 C10.1498876,79.0467534 11.2242676,73.7090994 13.0693984,68.7038675 C13.0693984,68.7038675 11.2743164,90.0733837 19.0541174,95.3465545 C19.0541174,95.3465545 16.1957773,81.7550485 21.8156965,76.0549544 C19.8515609,78.0461517 21.8134721,86.4745531 22.4007108,88.6480822 C23.9466613,94.3737473 27.6302497,99.1866414 29.5143073,104.826699 C32.6640423,114.262373 33.2657396,124.497416 34.0175831,134.37669" id="Fill-50" fill="#FF8D3B"></path>
                    <path d="M123.302116,64.8428792 C135.517349,43.1353819 151.804327,17.3587712 142.303961,0.399684777 C142.303961,0.399684777 182.433053,11.1105697 164.789198,62.6649029 C164.789198,62.6649029 171.144278,60.0944684 176.5729,48.5619783 C176.5729,48.5619783 189.805791,77.7317404 162.66157,96.7253836 C162.66157,96.7253836 163.340009,89.2631187 161.983131,82.4801512 C161.983131,82.4801512 147.857148,89.2408831 148.943762,93.3022141 C148.943762,93.3022141 145.404759,84.5147079 148.943762,75.0178864 C152.482765,65.5210648 146.719373,60.9516505 146.719373,60.9516505 C146.719373,60.9516505 145.017715,66.8774359 138.910655,75.0178864 C132.803595,83.1583368 130.088728,85.8721909 134.838911,96.7253836 C134.838911,96.7253836 111.087996,86.5503764 123.302116,64.8428792 Z" id="Fill-52" fill="#FF8E36"></path>
                    <path d="M94.1527201,78.5162121 C94.1527201,78.5162121 89.1712006,69.5530448 90.6659901,61.3369933 C90.6659901,61.3369933 79.2081616,82.5008303 86.9290163,98.434856 C94.6509832,114.369993 108.848147,115.117109 112.584008,115.117109 C116.31987,115.117109 135.996816,112.626723 140.480073,86.2341863 C140.480073,86.2341863 135.249422,93.2061564 131.264428,88.4755341 C131.264428,88.4755341 136.744211,82.0016413 134.254007,74.5327057 C131.762692,67.0626584 123.792705,61.5849202 123.792705,56.8554096 C123.792705,52.1236755 125.286383,50.6294437 125.286383,50.6294437 C125.286383,50.6294437 119.309449,53.3688687 118.562054,60.8378043 C118.562054,60.8378043 118.062679,55.360066 115.572475,51.127521 C113.082272,46.8949759 110.410077,42.0038042 108.551395,38.1951355 C106.692714,34.3864667 106.692714,26.4782548 106.692714,26.4782548 C106.692714,26.4782548 89.41922,54.1148728 94.1527201,78.5162121 Z" id="Fill-54" fill="#FF8E36"></path>
                    <path d="M84.6489074,78.3805337 C74.6389969,60.5919166 61.1707176,38.7556772 68.9560633,24.8582807 C68.9560633,24.8582807 36.1930165,34.3485665 50.6520565,76.5957437 C50.6520565,76.5957437 45.4445813,74.4893132 40.9954518,65.0393862 C40.9954518,65.0393862 30.1514873,88.9429587 52.395873,104.507841 C52.395873,104.507841 51.8394164,98.3928856 52.9510678,92.8341793 C52.9510678,92.8341793 64.5268801,98.3739656 63.6373066,101.70263 C63.6373066,101.70263 66.5369378,94.5016651 63.6373066,86.7192239 C60.7364136,78.9367828 63.6373066,70.637194 63.6373066,70.637194 C63.6373066,70.637194 66.8536512,80.0480195 71.8592373,86.7192239 C76.8635616,93.3904283 79.0881264,95.6141631 75.1954535,104.507841 C75.1954535,104.507841 94.6588178,96.1691508 84.6489074,78.3805337 Z" id="Fill-56" fill="#FF8E36"></path>
                    <path d="M77.9216862,166.766944 C86.2142089,166.766944 92.9363129,160.545426 92.9363129,152.869699 C92.9363129,145.193972 86.2142089,138.972454 77.9216862,138.972454 C69.6291635,138.972454 62.9070595,145.193972 62.9070595,152.869699 C62.9070595,160.545426 69.6291635,166.766944 77.9216862,166.766944" id="Fill-31" fill="#282828"></path>
                </g>
                <g id="Group-73" transform="translate(24.468281, 82.304922)">
                    <path d="M84.3331542,33.1172469 C93.2396083,33.1172469 100.459975,25.8995735 100.459975,16.9964423 C100.459975,8.09331099 93.2396083,0.875637636 84.3331542,0.875637636 C75.4267001,0.875637636 68.206333,8.09331099 68.206333,16.9964423 C68.206333,25.8995735 75.4267001,33.1172469 84.3331542,33.1172469" id="Fill-61" fill="#131313"></path>
                    <path d="M29.2517182,32.0438236 C25.1788616,32.0438236 21.5330878,33.838236 19.0339866,36.6688269 C17.4446606,34.4719504 14.8654814,33.0377546 11.9459707,33.0377546 C7.11237305,33.0377546 3.19522378,36.9534425 3.19522378,41.7852368 C3.19522378,46.617031 7.11237305,50.5338307 11.9459707,50.5338307 C13.4730138,50.5338307 14.908857,50.1402607 16.1578515,49.4531809 C17.7983385,55.1410454 23.0334383,59.3057719 29.2517182,59.3057719 C36.7823876,59.3057719 42.8872236,53.2021018 42.8872236,45.6742419 C42.8872236,38.146382 36.7823876,32.0438236 29.2517182,32.0438236" id="Fill-63" fill="#131313"></path>
                    <path d="M22.3119577,52.8318791 C22.3119577,56.4073624 19.4124665,59.3057719 15.8356487,59.3057719 C12.2599432,59.3057719 9.36045194,56.4073624 9.36045194,52.8318791 C9.36045194,49.2563959 12.2599432,46.3579864 15.8356487,46.3579864 C19.4124665,46.3579864 22.3119577,49.2563959 22.3119577,52.8318791" id="Fill-65" fill="#131313"></path>
                    <path d="M17.5026059,59.8893451 C17.5026059,64.7211393 13.5843445,68.6368272 8.75185907,68.6368272 C3.91826147,68.6368272 0,64.7211393 0,59.8893451 C0,55.0575508 3.91826147,51.1418629 8.75185907,51.1418629 C13.5843445,51.1418629 17.5026059,55.0575508 17.5026059,59.8893451" id="Fill-67" fill="#282828"></path>
                    <path d="M43.083081,12.082821 C43.083081,16.9146153 39.1648196,20.8303031 34.3323342,20.8303031 C29.4987366,20.8303031 25.5804751,16.9146153 25.5804751,12.082821 C25.5804751,7.25102674 29.4987366,3.33533889 34.3323342,3.33533889 C39.1648196,3.33533889 43.083081,7.25102674 43.083081,12.082821" id="Fill-69" fill="#131313"></path>
                    <path d="M55.7530904,9.04043605 C55.7530904,13.8722303 51.8348289,17.7879182 47.0023435,17.7879182 C42.1687459,17.7879182 38.2504844,13.8722303 38.2504844,9.04043605 C38.2504844,4.20864179 42.1687459,0.292953932 47.0023435,0.292953932 C51.8348289,0.292953932 55.7530904,4.20864179 55.7530904,9.04043605" id="Fill-71" fill="#131313"></path>
                    <path d="M55.7530904,34.6113675 C55.7530904,39.4431618 51.8348289,43.3588496 47.0023435,43.3588496 C42.1687459,43.3588496 38.2504844,39.4431618 38.2504844,34.6113675 C38.2504844,29.7795733 42.1687459,25.8638854 47.0023435,25.8638854 C51.8348289,25.8638854 55.7530904,29.7795733 55.7530904,34.6113675" id="Fill-71" fill="#131313"></path>
                    <path d="M66.8750361,23.4935712 C66.8750361,28.3253655 62.9567746,32.2410534 58.1242892,32.2410534 C53.2906916,32.2410534 49.3724301,28.3253655 49.3724301,23.4935712 C49.3724301,18.661777 53.2906916,14.7460891 58.1242892,14.7460891 C62.9567746,14.7460891 66.8750361,18.661777 66.8750361,23.4935712" id="Fill-71" fill="#131313"></path>
                    <path d="M126.933543,56.8469601 C126.933543,61.6787544 123.015281,65.5944422 118.182796,65.5944422 C113.349198,65.5944422 109.430937,61.6787544 109.430937,56.8469601 C109.430937,52.0151658 113.349198,48.099478 118.182796,48.099478 C123.015281,48.099478 126.933543,52.0151658 126.933543,56.8469601" id="Fill-71" fill="#131313"></path>
                    <path d="M122.048895,23.2006173 C122.048895,28.0324116 118.130634,31.9480994 113.298149,31.9480994 C108.464551,31.9480994 104.54629,28.0324116 104.54629,23.2006173 C104.54629,18.368823 108.464551,14.4531352 113.298149,14.4531352 C118.130634,14.4531352 122.048895,18.368823 122.048895,23.2006173" id="Fill-71" fill="#131313"></path>
                    <path d="M102.029393,32.0948543 C102.029393,36.9266486 98.1111318,40.8423364 93.2786464,40.8423364 C88.4450488,40.8423364 84.5267873,36.9266486 84.5267873,32.0948543 C84.5267873,27.2630601 88.4450488,23.3473722 93.2786464,23.3473722 C98.1111318,23.3473722 102.029393,27.2630601 102.029393,32.0948543" id="Fill-71-Copy" fill="#131313"></path>
                    <path d="M108.702561,25.4241766 C108.702561,30.2559708 104.784299,34.1716587 99.9518138,34.1716587 C95.1182162,34.1716587 91.1999547,30.2559708 91.1999547,25.4241766 C91.1999547,20.5923823 95.1182162,16.6766944 99.9518138,16.6766944 C104.784299,16.6766944 108.702561,20.5923823 108.702561,25.4241766" id="Fill-67-Copy" fill="#282828"></path>
                    <path d="M120.936701,10.9710414 C120.936701,16.4169427 116.52044,20.8303031 111.073759,20.8303031 C105.625826,20.8303031 101.209564,16.4169427 101.209564,10.9710414 C101.209564,5.52514006 105.625826,1.11177963 111.073759,1.11177963 C116.52044,1.11177963 120.936701,5.52514006 120.936701,10.9710414" id="Fill-67-Copy-2" fill="#282828"></path>
                    <path d="M43.083081,25.4241766 C43.083081,30.2559708 39.1648196,34.1716587 34.3323342,34.1716587 C29.4987366,34.1716587 25.5804751,30.2559708 25.5804751,25.4241766 C25.5804751,20.5923823 29.4987366,16.6766944 34.3323342,16.6766944 C39.1648196,16.6766944 43.083081,20.5923823 43.083081,25.4241766" id="Fill-67-Copy-3" fill="#282828"></path>
                </g>
                <path d="M84.8819862,135.670345 C92.448936,135.670345 98.58352,130.035563 98.58352,123.084443 C98.58352,116.133324 92.448936,110.498542 84.8819862,110.498542 C77.3150365,110.498542 71.1804524,116.133324 71.1804524,123.084443 C71.1804524,130.035563 77.3150365,135.670345 84.8819862,135.670345" id="Fill-25" fill="#282828"></path>
            </g>
        </g>
    </g>
</svg>