<?xml version="1.0" encoding="UTF-8" standalone="no"?>
<svg width="605px" height="586px" viewBox="0 0 605 586" version="1.1" xmlns="http://www.w3.org/2000/svg" xmlns:xlink="http://www.w3.org/1999/xlink">
    <!-- Generator: Sketch 41 (35326) - http://www.bohemiancoding.com/sketch -->
    <title>Artboard 4</title>
    <desc>Created with Sketch.</desc>
    <defs></defs>
    <g id="docs" stroke="none" stroke-width="1" fill="none" fill-rule="evenodd">
        <g id="Artboard-4">
            <g id="Group-4" transform="translate(26.000000, 16.000000)">
                <path d="M553.702,276.851 C553.702,429.752 429.752,553.702 276.851,553.702 C123.95,553.702 0,429.752 0,276.851 C0,123.95 123.95,0 276.851,0 C429.752,0 553.702,123.95 553.702,276.851" id="Fill-1" fill="#303F9F"></path>
                <g id="Page-1" transform="translate(50.000000, 49.000000)">
                    <g id="sun">
                        <g id="Group-2">
                            <polygon id="Fill-3" fill="#FFD54F" points="71.6544774 20.1180233 82.9094424 76.852907 115.716839 57.9215116"></polygon>
                            <polygon id="Fill-5" fill="#FFD54F" points="18.819665 75.0627907 56.9497272 118.572093 75.890272 85.7825581"></polygon>
                            <polygon id="Fill-7" fill="#FFD54F" points="0.115877043 149.940698 54.9038459 168.566279 54.9038459 130.704651"></polygon>
                            <polygon id="Fill-9" fill="#FFD54F" points="18.9724226 225.703605 75.7382125 214.454767 56.7965043 181.665233"></polygon>
                            <polygon id="Fill-11" fill="#FFD54F" points="72.7464673 280.06593 116.279471 241.956628 83.4720743 223.026395"></polygon>
                            <polygon id="Fill-13" fill="#FFC400" points="228.53873 275.9 217.283765 219.165116 184.476368 238.096512"></polygon>
                            <polygon id="Fill-15" fill="#FFC400" points="282.445056 225.175 244.314994 181.665698 225.374449 214.455233"></polygon>
                            <polygon id="Fill-17" fill="#FFC400" points="298.880051 149.217791 244.092082 130.592209 244.092082 168.453837"></polygon>
                            <polygon id="Fill-19" fill="#FFC400" points="277.10494 70.3713953 220.33915 81.6202326 239.280858 114.409767"></polygon>
                            <polygon id="Fill-21" fill="#FFC400" points="224.065248 21.1676744 180.532244 59.2769767 213.339641 78.2072093"></polygon>
                            <polygon id="Fill-23" fill="#FFD54F" points="149.346195 0.794186047 130.48709 55.5523256 149.23218 55.5523256"></polygon>
                            <polyline id="Fill-25" fill="#FFC400" points="149.232529 55.5522093 149.232529 0.794069767 168.091634 55.5522093"></polyline>
                            <polygon id="Fill-27" fill="#FFD54F" points="148.899557 299.836977 130.040452 245.078837 148.785541 245.078837"></polygon>
                            <polyline id="Fill-29" fill="#FFC400" points="148.78589 245.078953 148.78589 299.837093 167.644995 245.078953"></polyline>
                            <polygon id="Fill-31" fill="#FDC603" points="113.131246 27.6161628 106.937175 60.365 135.336358 52.759186"></polygon>
                            <polygon id="Fill-33" fill="#FDC603" points="57.7478362 62.7077907 68.7666261 94.1647674 89.5570152 73.3856977"></polygon>
                            <polygon id="Fill-35" fill="#FDC603" points="27.5098615 119.788837 52.6933401 141.635349 60.4277837 113.285349"></polygon>
                            <polygon id="Fill-37" fill="#FDC603" points="28.0384051 187.539419 60.7864673 193.828953 53.2614401 165.421977"></polygon>
                            <polygon id="Fill-39" fill="#FDC603" points="62.2357447 238.929186 93.7238187 227.957093 72.9613518 207.151279"></polygon>
                            <polygon id="Fill-41" fill="#FDC603" points="113.932263 267.352791 135.393948 241.843488 106.910998 234.558605"></polygon>
                            <polygon id="Fill-43" fill="#EEAB03" points="183.070487 29.6566279 189.264557 62.4054651 160.865374 54.7996512"></polygon>
                            <polygon id="Fill-45" fill="#EEAB03" points="235.313233 63.5853488 224.294443 95.0423256 203.504054 74.2632558"></polygon>
                            <polygon id="Fill-47" fill="#EEAB03" points="268.691871 110.900349 243.508392 132.74686 235.773949 104.39686"></polygon>
                            <polygon id="Fill-49" fill="#EEAB03" points="268.163211 184.115465 235.415149 190.405 242.940176 161.998023"></polygon>
                            <polygon id="Fill-51" fill="#EEAB03" points="239.433383 235.505116 207.945309 224.533023 228.707776 203.727209"></polygon>
                            <polygon id="Fill-53" fill="#EEAB03" points="182.269353 269.393256 160.807668 243.883953 189.290618 236.59907"></polygon>
                        </g>
                        <g id="Group-3" transform="translate(50.027237, 51.000000)">
                            <path d="M99.4706685,198.485698 C44.6710654,198.485698 0.246878599,154.085698 0.246878599,99.3159302 C0.246878599,44.545 44.6710654,0.145 99.4706685,0.145" id="Fill-55" fill="#FFCA28"></path>
                            <path d="M98.8910506,0.162790698 C153.690654,0.162790698 198.11484,44.5627907 198.11484,99.3325581 C198.11484,154.103488 153.690654,198.503488 98.8910506,198.503488" id="Fill-57" fill="#FFC106"></path>
                            <path d="M99.4706685,185.76593 C51.6993105,185.76593 12.9735751,147.061279 12.9735751,99.3159302 C12.9735751,51.5705814 51.6993105,12.8647674 99.4706685,12.8647674" id="Fill-59" fill="#FFD740"></path>
                            <path d="M99.4706685,12.8651163 C147.242026,12.8651163 185.967762,51.5697674 185.967762,99.3151163 C185.967762,147.060465 147.242026,185.766279 99.4706685,185.766279" id="Fill-61" fill="#FFCA28"></path>
                        </g>
                    </g>
                    <g id="solarPanel" transform="translate(88.000000, 156.000000)">
                        <polyline id="Fill-63" fill="#7C909B" points="166.4901 137.3993 333.0121 136.6173 269.1811 0.9503 164.9591 1.0653"></polyline>
                        <polyline id="Fill-65" fill="#93A4AD" points="164.9591 1.0653 65.0631 0.7353 0.6201 137.3483 166.4901 137.3423"></polyline>
                        <path d="M166.8507,244.0417 L111.0947,244.0417 C110.8357,238.3817 110.5777,232.7267 110.2377,225.2837 C122.4357,218.7717 134.6437,212.2547 147.5997,205.3387 L147.5997,160.9347 L0.6207,160.9347 L0.6207,133.6787 L166.5287,133.6787" id="Fill-67" fill="#647C8A"></path>
                        <path d="M166.5291,133.6782 L333.0831,133.6782 L333.0831,160.2842 L185.9941,160.2842 L185.9941,205.5362 C198.5911,212.3722 210.7631,218.9782 222.3941,225.2912 L222.3941,244.0412 L166.8511,244.0412" id="Fill-69" fill="#586D79"></path>
                        <path d="M0.6204,133.6648 C7.7084,118.8568 14.1554,105.3898 20.6594,91.8038 L107.4124,91.8038 C104.5604,105.9918 101.7864,119.7968 98.9984,133.6648 L0.6204,133.6648 Z" id="Fill-71" fill="#EEEEEE"></path>
                        <path d="M234.8828,133.4268 C231.7678,119.7518 228.6988,106.2768 225.4408,91.9698 L313.0548,91.9698 C319.4648,105.2388 325.9548,118.6708 333.0828,133.4268 L234.8828,133.4268 Z" id="Fill-73" fill="#E0E0E0"></path>
                        <path d="M166.6213,133.8622 C205.3843,133.8702 134.4743,134.0242 117.5153,134.0242 C119.3053,119.9842 120.8783,105.9252 122.7233,91.4442 C137.3363,91.4442 151.7503,91.4512 165.9843,91.4512" id="Fill-75" fill="#EEEEEE"></path>
                        <path d="M165.9841,91.4515 C179.4551,91.4515 195.9451,91.7035 209.6331,91.7035 C211.2681,105.6685 212.8711,119.3595 214.5551,133.7475 C199.0001,133.7475 181.8611,133.8625 166.4391,133.8625" id="Fill-77" fill="#E0E0E0"></path>
                        <path d="M294.2379,53.0182 C297.9909,60.7592 302.0749,69.1812 306.7059,78.7322 L223.4869,78.7322 C221.4519,70.4722 219.4519,62.3542 217.1509,53.0182 L294.2379,53.0182 Z" id="Fill-79" fill="#E0E0E0"></path>
                        <path d="M110.5551,79.0232 L27.0801,79.0232 C31.6641,69.4782 35.8021,60.8622 39.8811,52.3682 L115.3941,52.3682 C113.7361,61.4992 112.2101,69.9062 110.5551,79.0232" id="Fill-81" fill="#EEEEEE"></path>
                        <path d="M166.4901,78.7427 L125.1681,78.7427 C126.0591,69.9747 126.8931,61.7547 127.8091,52.7417 L165.7251,52.7417" id="Fill-83" fill="#EEEEEE"></path>
                        <path d="M165.5919,52.7416 L201.5359,52.7416 C202.9009,61.6606 204.1529,69.8426 205.5139,78.7426 L165.7239,78.7426" id="Fill-85" fill="#E0E0E0"></path>
                        <path d="M45.1839,41.3904 C48.7769,33.8124 51.8529,27.3254 54.9239,20.8484 L121.9319,20.8484 C120.8139,27.8994 119.8019,34.2844 118.6759,41.3904 L45.1839,41.3904 Z" id="Fill-87" fill="#EEEEEE"></path>
                        <path d="M215.6329,41.491 C214.0689,34.398 212.6649,28.029 211.0969,20.918 L278.5879,20.918 C281.7699,27.356 284.9619,33.814 288.7559,41.491 L215.6329,41.491 Z" id="Fill-89" fill="#E0E0E0"></path>
                        <path d="M165.5919,41.4503 L129.5089,41.4503 C130.5649,34.2013 131.4939,27.8233 132.4939,20.9533 L165.5909,20.9533" id="Fill-91" fill="#EEEEEE"></path>
                        <path d="M165.2587,20.953 L198.5417,20.953 C199.2927,27.641 200.0127,34.052 200.8437,41.45 L165.2597,41.45" id="Fill-93" fill="#E0E0E0"></path>
                        <path d="M59.1556,12.2618 C61.4436,7.7978 63.2286,4.3148 65.0626,0.7358 L126.9256,0.7358 C126.0116,4.7868 125.2326,8.2438 124.3266,12.2618 L59.1556,12.2618 Z" id="Fill-95" fill="#EEEEEE"></path>
                        <path d="M208.8466,12.465 C208.4156,8.049 208.1056,4.86 207.7236,0.951 L269.1816,0.951 C270.5816,4.498 272.0006,8.096 273.7246,12.465 L208.8466,12.465 Z" id="Fill-97" fill="#E0E0E0"></path>
                        <path d="M165.1176,12.1673 C154.6106,12.1673 143.8696,12.2193 132.8936,12.2193 C133.3766,7.8123 133.7176,4.6963 134.1256,0.9753 C144.4126,0.9753 154.8056,1.0653 164.9586,1.0653" id="Fill-99" fill="#EEEEEE"></path>
                        <path d="M164.9591,1.0653 C175.2721,1.0653 185.9271,0.9753 196.5521,0.9753 C196.7111,4.6143 196.8611,8.0123 197.0451,12.2193 C186.4091,12.2193 175.5901,12.1673 165.1181,12.1673" id="Fill-101" fill="#E0E0E0"></path>
                    </g>
                </g>
            </g>
        </g>
    </g>
</svg>