<?xml version="1.0" encoding="UTF-8"?>
<svg id="logomark" xmlns="http://www.w3.org/2000/svg" viewBox="0 0 49.07 49.07">
  <path d="M24.53,0C10.98,0,0,10.98,0,24.53s10.98,24.53,24.53,24.53,24.53-10.98,24.53-24.53S38.08,0,24.53,0ZM20.67,40.06c-1.71,0-3.25-.38-4.64-1.14-1.39-.76-2.49-1.81-3.3-3.14-.81-1.33-1.22-2.82-1.22-4.48,0-1.12.19-2.16.56-3.12.37-.96.91-1.8,1.62-2.52.71-.72,1.59-1.29,2.66-1.72-.85-.45-1.59-1.02-2.2-1.7-.61-.68-1.08-1.45-1.4-2.3-.32-.85-.48-1.76-.48-2.72,0-1.55.37-2.94,1.12-4.2.75-1.25,1.75-2.24,3.02-2.96,1.27-.72,2.68-1.08,4.26-1.08.89,0,1.73.12,2.54.36-1.1.7-2.03,1.6-2.75,2.68-.88.03-1.69.25-2.44.67-.81.45-1.45,1.07-1.92,1.86-.47.79-.7,1.67-.7,2.66s.24,1.89.72,2.7c.48.81,1.13,1.46,1.94,1.94.81.48,1.69.72,2.62.72s1.8-.24,2.62-.72c.81-.48,1.46-1.12,1.94-1.92.48-.8.72-1.69.72-2.68s-.24-1.88-.72-2.68c0-.02-.02-.03-.03-.04.3-.35.65-.64,1.08-.88.54-.3,1.11-.47,1.73-.52.71,1.24,1.06,2.61,1.06,4.11,0,.96-.16,1.85-.48,2.68-.32.83-.78,1.57-1.38,2.24-.6.67-1.34,1.24-2.22,1.72,1.07.43,1.96,1,2.68,1.72.72.72,1.26,1.55,1.62,2.5.36.95.54,1.99.54,3.14,0,1.65-.41,3.14-1.22,4.48-.05.07-.09.14-.14.22-.02,0-.04,0-.07,0-.85,0-1.62-.21-2.36-.65-.26-.15-.49-.33-.72-.52.16-.2.31-.41.44-.63.55-.89.82-1.87.82-2.94s-.27-2.04-.8-2.94c-.53-.89-1.25-1.59-2.16-2.1-.91-.51-1.89-.76-2.96-.76s-2.05.25-2.94.76c-.89.51-1.61,1.2-2.14,2.08-.53.88-.8,1.85-.8,2.92s.27,2.05.8,2.94c.53.89,1.25,1.61,2.16,2.14.7.41,1.44.66,2.22.76.82,1.13,1.85,2.06,3.09,2.76-.76.18-1.55.28-2.39.28ZM36.33,35.75c-.81,1.33-1.91,2.39-3.3,3.16-1.39.77-2.93,1.16-4.64,1.16s-3.25-.38-4.64-1.14c-1.39-.76-2.49-1.81-3.3-3.14-.81-1.33-1.22-2.82-1.22-4.48,0-1.12.19-2.16.56-3.12.23-.6.54-1.15.9-1.66.87,0,1.65.21,2.38.62.25.14.47.3.68.47-.16.2-.31.42-.45.65-.53.88-.8,1.85-.8,2.92s.27,2.05.8,2.94c.53.89,1.25,1.61,2.16,2.14.91.53,1.88.8,2.92.8s2.01-.26,2.92-.78c.91-.52,1.63-1.23,2.18-2.12.55-.89.82-1.87.82-2.94s-.27-2.04-.8-2.94c-.53-.89-1.25-1.59-2.16-2.1-.74-.41-1.53-.65-2.37-.73-.17-.21-.35-.41-.54-.61-.39-.39-.83-.75-1.31-1.07.32-.27.62-.56.89-.86.1-.11.19-.23.28-.34.03,0,.06,0,.1,0,.93,0,1.8-.24,2.62-.72.81-.48,1.46-1.12,1.94-1.92.48-.8.72-1.69.72-2.68s-.24-1.88-.72-2.68c-.48-.8-1.12-1.43-1.92-1.88-.8-.45-1.68-.68-2.64-.68s-1.85.23-2.66.68c-.81.45-1.45,1.07-1.92,1.86-.47.79-.7,1.67-.7,2.66s.24,1.89.72,2.7c0,.01.02.02.02.03-.32.38-.69.7-1.13.96-.47.28-.95.45-1.47.52-.31-.47-.58-.96-.78-1.49-.32-.85-.48-1.76-.48-2.72,0-1.55.37-2.94,1.12-4.2.75-1.25,1.75-2.24,3.02-2.96,1.27-.72,2.68-1.08,4.26-1.08s2.96.36,4.24,1.08c1.28.72,2.29,1.71,3.04,2.98.75,1.27,1.12,2.67,1.12,4.22,0,.96-.16,1.85-.48,2.68-.32.83-.78,1.57-1.38,2.24-.6.67-1.34,1.24-2.22,1.72,1.07.43,1.96,1,2.68,1.72.72.72,1.26,1.55,1.62,2.5.36.95.54,1.99.54,3.14,0,1.65-.41,3.14-1.22,4.48Z" style="fill: #5d7768; stroke-width: 0px;"/>
</svg>