<?xml version="1.0" encoding="UTF-8"?>
<svg id="Layer_1" data-name="Layer 1" xmlns="http://www.w3.org/2000/svg" viewBox="0 0 203.83 35.71">
  <path d="M19.73,21.85c-.4-1.05-1-1.97-1.8-2.77-.8-.8-1.79-1.43-2.97-1.91.98-.53,1.8-1.17,2.46-1.91.67-.74,1.18-1.57,1.53-2.49.36-.92.53-1.91.53-2.97,0-1.67-.4-3.19-1.18-4.57-.69.06-1.32.24-1.92.57-.47.26-.86.59-1.2.97.01.02.02.03.03.05.53.89.8,1.88.8,2.97s-.27,2.09-.8,2.97c-.53.89-1.25,1.6-2.15,2.13-.9.53-1.87.8-2.91.8s-2-.27-2.91-.8c-.9-.53-1.62-1.25-2.15-2.15-.53-.9-.8-1.9-.8-3s.26-2.08.78-2.95c.52-.87,1.23-1.56,2.13-2.06.83-.46,1.74-.71,2.71-.75.81-1.2,1.83-2.2,3.06-2.98-.89-.26-1.83-.4-2.82-.4-1.75,0-3.32.4-4.73,1.2-1.41.8-2.52,1.89-3.35,3.28-.83,1.39-1.24,2.94-1.24,4.66,0,1.07.18,2.07.53,3.02.36.95.87,1.8,1.55,2.55.68.75,1.49,1.38,2.44,1.89-1.18.47-2.17,1.11-2.95,1.91-.78.8-1.38,1.73-1.8,2.8-.41,1.07-.62,2.22-.62,3.46,0,1.83.45,3.49,1.35,4.97.9,1.48,2.12,2.64,3.66,3.48,1.54.84,3.25,1.26,5.15,1.26.93,0,1.81-.1,2.65-.31-1.37-.79-2.52-1.81-3.43-3.07-.86-.1-1.69-.38-2.46-.84-1.01-.59-1.81-1.38-2.4-2.37-.59-.99-.89-2.08-.89-3.26s.3-2.26.89-3.24c.59-.98,1.38-1.75,2.37-2.31.99-.56,2.08-.84,3.26-.84s2.28.28,3.28.84c1.01.56,1.8,1.34,2.4,2.33.59.99.89,2.08.89,3.26s-.3,2.27-.91,3.26c-.15.25-.32.48-.49.7.25.21.5.4.79.57.82.48,1.68.72,2.62.72.02,0,.05,0,.07,0,.05-.08.11-.16.16-.24.9-1.48,1.35-3.14,1.35-4.97,0-1.27-.2-2.43-.6-3.48Z" style="fill: #5d7768; stroke-width: 0px;"/>
  <path d="M28.31,21.85c-.4-1.05-1-1.97-1.8-2.77-.8-.8-1.79-1.43-2.97-1.91.98-.53,1.8-1.17,2.46-1.91.67-.74,1.18-1.57,1.53-2.49.36-.92.53-1.91.53-2.97,0-1.72-.41-3.28-1.24-4.68-.83-1.41-1.95-2.51-3.37-3.31s-2.99-1.2-4.7-1.2-3.32.4-4.73,1.2c-1.41.8-2.52,1.89-3.35,3.28-.83,1.39-1.24,2.94-1.24,4.66,0,1.07.18,2.07.53,3.02.22.59.51,1.14.86,1.66.57-.08,1.11-.27,1.63-.58.49-.29.91-.65,1.26-1.06,0-.01-.02-.02-.02-.04-.53-.9-.8-1.9-.8-3s.26-2.08.78-2.95c.52-.87,1.23-1.56,2.13-2.06.9-.5,1.89-.75,2.95-.75s2.04.25,2.93.75c.89.5,1.6,1.2,2.13,2.09.53.89.8,1.88.8,2.97s-.27,2.09-.8,2.97c-.53.89-1.25,1.6-2.15,2.13-.9.53-1.87.8-2.91.8-.04,0-.07,0-.11,0-.1.13-.2.26-.31.38-.3.34-.63.65-.99.95.54.35,1.02.75,1.46,1.18.22.22.41.44.6.67.93.09,1.81.35,2.63.81,1.01.56,1.8,1.34,2.4,2.33.59.99.89,2.08.89,3.26s-.3,2.27-.91,3.26c-.61.99-1.41,1.78-2.42,2.35-1.01.58-2.09.87-3.24.87s-2.23-.3-3.24-.89c-1.01-.59-1.81-1.38-2.4-2.37-.59-.99-.89-2.08-.89-3.26s.3-2.26.89-3.24c.15-.25.32-.49.5-.72-.23-.19-.48-.37-.76-.52-.82-.46-1.68-.68-2.65-.69-.4.56-.75,1.17-1,1.84-.41,1.07-.62,2.22-.62,3.46,0,1.83.45,3.49,1.35,4.97.9,1.48,2.12,2.64,3.66,3.48,1.54.84,3.25,1.26,5.15,1.26s3.61-.43,5.15-1.29c1.54-.86,2.76-2.03,3.66-3.51.9-1.48,1.35-3.14,1.35-4.97,0-1.27-.2-2.43-.6-3.48Z" style="fill: #335143; stroke-width: 0px;"/>
  <g>
    <path d="M47.81,0l-15.6,35.09h3.93l4.03-9.41h14.87l3.94,9.41h4.02L47.9,0h-.09ZM53.61,22.23h-11.95l2.97-6.94c.65-1.41,1.28-2.84,1.9-4.27.42-.96.82-1.94,1.22-2.91.8,1.99,1.77,4.35,2.93,7.13l2.92,6.98Z" style="fill: #1a312b; stroke-width: 0px;"/>
    <path d="M80.61,18.96c1.38-.85,2.45-1.95,3.18-3.29.74-1.34,1.1-2.87,1.1-4.57,0-2.06-.5-3.79-1.5-5.19-1-1.4-2.42-2.44-4.24-3.12-1.83-.68-3.98-1.02-6.45-1.02h-4.86v33.33h3.67v-14.32h1.39l9.96,14.32h4.51l-10.54-14.58c1.42-.36,2.69-.87,3.78-1.55ZM71.5,5.22h1.77c1.68,0,3.12.22,4.33.66,1.21.44,2.13,1.11,2.76,1.99.63.88.95,1.99.95,3.31,0,1.41-.32,2.59-.97,3.54-.65.94-1.58,1.66-2.78,2.14-1.21.49-2.65.73-4.33.73h-1.72V5.22Z" style="fill: #1a312b; stroke-width: 0px;"/>
    <path d="M108.63,1.15c-3.24,0-6.2.77-8.86,2.32-2.67,1.55-4.76,3.65-6.28,6.3-1.52,2.65-2.28,5.57-2.28,8.75s.75,6.08,2.25,8.68c1.5,2.61,3.57,4.68,6.19,6.21,2.62,1.53,5.51,2.3,8.66,2.3,1.83,0,3.55-.24,5.17-.73,1.62-.49,3.12-1.2,4.51-2.14v-4.42c-1.06.91-2.08,1.65-3.05,2.21-.97.56-1.98.97-3.03,1.24-1.05.27-2.22.4-3.51.4-2.51,0-4.79-.61-6.85-1.83-2.06-1.22-3.69-2.89-4.88-4.99-1.19-2.11-1.79-4.43-1.79-6.96s.6-4.87,1.79-7.01c1.19-2.14,2.82-3.82,4.88-5.04,2.06-1.22,4.33-1.83,6.81-1.83,1.77,0,3.48.33,5.13.99,1.65.66,3.17,1.57,4.55,2.72V3.98c-1.39-.88-2.87-1.58-4.44-2.08-1.58-.5-3.23-.75-4.97-.75Z" style="fill: #1a312b; stroke-width: 0px;"/>
    <polygon points="145.71 15.29 129.27 15.29 129.27 1.77 125.6 1.77 125.6 35.09 129.27 35.09 129.27 18.74 145.71 18.74 145.71 35.09 149.38 35.09 149.38 1.77 145.71 1.77 145.71 15.29" style="fill: #1a312b; stroke-width: 0px;"/>
    <polygon points="158.97 35.09 176.34 35.09 176.34 31.65 162.64 31.65 162.64 18.61 175.9 18.61 175.9 15.16 162.64 15.16 162.64 5.22 176.34 5.22 176.34 1.77 158.97 1.77 158.97 35.09" style="fill: #1a312b; stroke-width: 0px;"/>
    <path d="M202.99,22.01c-.56-1.24-1.44-2.34-2.65-3.32-1.21-.97-2.84-1.93-4.91-2.87-.12-.03-.22-.07-.31-.11-.09-.04-.18-.1-.26-.15-1.65-.77-2.93-1.44-3.82-2.01-.9-.58-1.56-1.19-1.97-1.83-.41-.65-.62-1.4-.62-2.25,0-.91.23-1.74.68-2.48.46-.74,1.09-1.32,1.9-1.75.81-.43,1.72-.64,2.72-.64,1.33,0,2.46.32,3.4.95.94.63,1.78,1.6,2.52,2.89l3.09-1.77c-.91-1.74-2.13-3.09-3.65-4.07-1.52-.97-3.31-1.46-5.37-1.46-1.68,0-3.2.37-4.57,1.1-1.37.74-2.45,1.74-3.23,3.01-.78,1.27-1.17,2.67-1.17,4.2s.31,2.78.93,3.84,1.5,1.99,2.65,2.78c1.15.8,2.74,1.65,4.77,2.56.15.06.29.13.44.2s.29.14.44.2c1.53.77,2.75,1.5,3.65,2.21.9.71,1.53,1.46,1.9,2.25.37.8.55,1.75.55,2.87s-.25,2.12-.75,3.01c-.5.88-1.21,1.58-2.12,2.1-.91.52-1.97.77-3.18.77s-2.26-.22-3.25-.66c-.99-.44-1.85-1.09-2.59-1.94-.74-.85-1.33-1.87-1.77-3.05l-3.4,1.42c.53,1.53,1.31,2.87,2.34,4.02,1.03,1.15,2.28,2.05,3.76,2.7,1.47.65,3.11.97,4.91.97s3.52-.39,4.99-1.17c1.47-.78,2.64-1.87,3.49-3.27.85-1.4,1.28-3.01,1.28-4.84,0-1.71-.28-3.18-.84-4.42Z" style="fill: #1a312b; stroke-width: 0px;"/>
  </g>
</svg>