<?xml version="1.0" encoding="UTF-8"?>
<svg id="Layer_1" data-name="Layer 1" xmlns="http://www.w3.org/2000/svg" viewBox="0 0 502.66 88.07">
  <g>
    <path d="M48.65,55.4c-.98-2.59-2.46-4.87-4.43-6.84-1.97-1.97-4.42-3.54-7.33-4.71,2.41-1.31,4.43-2.88,6.07-4.71,1.64-1.82,2.9-3.87,3.78-6.13.88-2.26,1.31-4.71,1.31-7.33,0-4.12-.98-7.87-2.91-11.26-1.69.14-3.25.59-4.73,1.42-1.16.65-2.13,1.45-2.95,2.4.03.04.06.08.08.12,1.31,2.19,1.97,4.63,1.97,7.33s-.66,5.14-1.97,7.33c-1.31,2.19-3.08,3.94-5.31,5.25-2.23,1.31-4.62,1.97-7.17,1.97s-4.94-.66-7.17-1.97c-2.23-1.31-3.99-3.08-5.31-5.31-1.31-2.22-1.97-4.69-1.97-7.39s.64-5.12,1.92-7.28c1.28-2.15,3.03-3.85,5.25-5.09,2.06-1.14,4.28-1.76,6.68-1.84,1.99-2.97,4.52-5.43,7.54-7.34-2.19-.65-4.51-.99-6.94-.99-4.31,0-8.19.98-11.66,2.95-3.47,1.97-6.22,4.67-8.26,8.1-2.04,3.43-3.06,7.26-3.06,11.49,0,2.63.44,5.11,1.31,7.44.88,2.34,2.15,4.43,3.83,6.29,1.68,1.86,3.68,3.41,6.02,4.65-2.92,1.17-5.35,2.74-7.28,4.71-1.93,1.97-3.41,4.27-4.43,6.89-1.02,2.63-1.53,5.47-1.53,8.54,0,4.52,1.11,8.61,3.34,12.26,2.22,3.65,5.23,6.51,9.03,8.59,3.79,2.08,8.03,3.12,12.7,3.12,2.28,0,4.46-.26,6.53-.76-3.38-1.94-6.21-4.47-8.45-7.56-2.13-.26-4.16-.94-6.07-2.07-2.48-1.46-4.45-3.41-5.91-5.86-1.46-2.44-2.19-5.12-2.19-8.04s.73-5.58,2.19-7.99c1.46-2.41,3.41-4.3,5.86-5.69,2.44-1.39,5.12-2.08,8.04-2.08s5.62.69,8.1,2.08c2.48,1.39,4.45,3.3,5.91,5.75,1.46,2.45,2.19,5.13,2.19,8.04s-.75,5.6-2.24,8.04c-.37.61-.78,1.19-1.21,1.74.6.51,1.24.99,1.96,1.41,2.02,1.19,4.14,1.77,6.46,1.77.06,0,.12,0,.18,0,.13-.2.26-.39.39-.59,2.22-3.65,3.34-7.73,3.34-12.26,0-3.14-.49-6-1.48-8.59Z" style="fill: #fff; stroke-width: 0px;"/>
    <path d="M69.81,55.4c-.98-2.59-2.46-4.87-4.43-6.84-1.97-1.97-4.42-3.54-7.33-4.71,2.41-1.31,4.43-2.88,6.07-4.71,1.64-1.82,2.9-3.87,3.78-6.13.88-2.26,1.31-4.71,1.31-7.33,0-4.23-1.02-8.08-3.06-11.55-2.04-3.46-4.82-6.18-8.32-8.15-3.5-1.97-7.37-2.95-11.6-2.95s-8.19.98-11.66,2.95c-3.47,1.97-6.22,4.67-8.26,8.1-2.04,3.43-3.06,7.26-3.06,11.49,0,2.63.44,5.11,1.31,7.44.55,1.46,1.27,2.81,2.13,4.09,1.4-.2,2.73-.67,4.02-1.43,1.22-.72,2.24-1.6,3.1-2.63-.02-.03-.04-.06-.06-.09-1.31-2.22-1.97-4.69-1.97-7.39s.64-5.12,1.92-7.28c1.28-2.15,3.03-3.85,5.25-5.09,2.22-1.24,4.65-1.86,7.28-1.86s5.03.62,7.22,1.86c2.19,1.24,3.94,2.95,5.25,5.14,1.31,2.19,1.97,4.63,1.97,7.33s-.66,5.14-1.97,7.33c-1.31,2.19-3.08,3.94-5.31,5.25-2.23,1.31-4.62,1.97-7.17,1.97-.09,0-.17,0-.26,0-.25.31-.49.63-.76.93-.75.83-1.56,1.61-2.45,2.35,1.32.87,2.52,1.84,3.6,2.92.53.53,1.02,1.09,1.49,1.66,2.3.21,4.47.87,6.48,2,2.48,1.39,4.45,3.3,5.91,5.75,1.46,2.45,2.19,5.13,2.19,8.04s-.75,5.6-2.24,8.04c-1.5,2.45-3.48,4.38-5.96,5.8-2.48,1.42-5.14,2.13-7.99,2.13s-5.51-.73-7.99-2.19c-2.48-1.46-4.45-3.41-5.91-5.86-1.46-2.44-2.19-5.12-2.19-8.04s.73-5.58,2.19-7.99c.38-.62.79-1.21,1.24-1.77-.58-.47-1.19-.91-1.87-1.29-2.02-1.13-4.15-1.68-6.53-1.69-1,1.39-1.84,2.89-2.48,4.53-1.02,2.63-1.53,5.47-1.53,8.54,0,4.52,1.11,8.61,3.34,12.26,2.22,3.65,5.23,6.51,9.03,8.59,3.79,2.08,8.03,3.12,12.7,3.12s8.9-1.06,12.7-3.17c3.79-2.12,6.8-5,9.03-8.65,2.22-3.65,3.34-7.73,3.34-12.26,0-3.14-.49-6-1.48-8.59Z" style="fill: #fff; stroke-width: 0px;"/>
  </g>
  <g>
    <path d="M117.9,0l-38.48,86.54h9.7l9.95-23.22h36.68l9.72,23.22h9.92L118.12,0h-.22ZM132.2,54.83h-29.48l7.33-17.11c1.6-3.49,3.16-6.99,4.69-10.52,1.03-2.38,2.02-4.77,3.01-7.17,1.97,4.9,4.37,10.75,7.23,17.58l7.21,17.22Z" style="fill: #fff; stroke-width: 0px;"/>
    <path d="M198.78,46.76c3.41-2.11,6.03-4.81,7.85-8.12,1.82-3.31,2.73-7.07,2.73-11.28,0-5.09-1.24-9.35-3.71-12.81-2.47-3.45-5.96-6.01-10.46-7.68-4.51-1.67-9.81-2.51-15.91-2.51h-11.99v82.18h9.05v-35.32h3.44l24.57,35.32h11.12l-25.99-35.96c3.51-.89,6.62-2.17,9.31-3.83ZM176.32,43.38V12.86h4.36c4.14,0,7.7.54,10.68,1.63,2.98,1.09,5.25,2.73,6.81,4.9,1.56,2.18,2.34,4.9,2.34,8.17,0,3.49-.8,6.4-2.4,8.72-1.6,2.33-3.89,4.09-6.87,5.29-2.98,1.2-6.54,1.8-10.68,1.8h-4.25Z" style="fill: #fff; stroke-width: 0px;"/>
    <path d="M267.88,2.83c-8,0-15.28,1.91-21.85,5.72-6.58,3.81-11.74,8.99-15.48,15.53-3.74,6.54-5.61,13.73-5.61,21.58s1.85,14.99,5.56,21.42c3.71,6.43,8.79,11.54,15.26,15.31,6.47,3.78,13.59,5.67,21.36,5.67,4.5,0,8.76-.6,12.75-1.8,4-1.2,7.7-2.96,11.12-5.29v-10.9c-2.62,2.25-5.12,4.07-7.52,5.45-2.4,1.38-4.89,2.4-7.47,3.05-2.58.65-5.47.98-8.66.98-6.18,0-11.81-1.51-16.9-4.52-5.09-3.01-9.1-7.12-12.04-12.32-2.94-5.19-4.41-10.92-4.41-17.17s1.47-12.01,4.41-17.28c2.94-5.27,6.96-9.41,12.04-12.43,5.09-3.01,10.68-4.52,16.79-4.52,4.36,0,8.57.82,12.64,2.45,4.07,1.63,7.81,3.87,11.23,6.7v-10.68c-3.42-2.18-7.07-3.89-10.95-5.12-3.89-1.23-7.98-1.85-12.26-1.85Z" style="fill: #fff; stroke-width: 0px;"/>
    <polygon points="359.33 37.71 318.78 37.71 318.78 4.36 309.74 4.36 309.74 86.54 318.78 86.54 318.78 46.21 359.33 46.21 359.33 86.54 368.38 86.54 368.38 4.36 359.33 4.36 359.33 37.71" style="fill: #fff; stroke-width: 0px;"/>
    <polygon points="392.03 86.54 434.86 86.54 434.86 78.04 401.07 78.04 401.07 45.89 433.77 45.89 433.77 37.39 401.07 37.39 401.07 12.86 434.86 12.86 434.86 4.36 392.03 4.36 392.03 86.54" style="fill: #fff; stroke-width: 0px;"/>
    <path d="M500.59,54.28c-1.38-3.05-3.56-5.78-6.54-8.17s-7.01-4.76-12.1-7.08c-.29-.07-.54-.16-.76-.27s-.44-.23-.65-.38c-4.07-1.89-7.21-3.54-9.43-4.96-2.22-1.42-3.83-2.92-4.85-4.52-1.02-1.6-1.53-3.45-1.53-5.56,0-2.25.56-4.29,1.69-6.1,1.13-1.82,2.69-3.25,4.69-4.31,2-1.05,4.23-1.58,6.7-1.58,3.27,0,6.07.78,8.39,2.34,2.33,1.56,4.4,3.94,6.21,7.14l7.63-4.36c-2.25-4.29-5.25-7.63-8.99-10.03-3.74-2.4-8.16-3.6-13.24-3.6-4.14,0-7.9.91-11.28,2.72-3.38,1.82-6.03,4.29-7.96,7.41-1.93,3.12-2.89,6.58-2.89,10.35s.76,6.87,2.29,9.48c1.53,2.62,3.71,4.9,6.54,6.87s6.76,4.07,11.77,6.32c.36.15.73.31,1.09.49.36.18.73.35,1.09.49,3.78,1.89,6.77,3.71,8.99,5.45,2.22,1.74,3.78,3.6,4.69,5.56.91,1.96,1.36,4.32,1.36,7.08s-.62,5.23-1.85,7.41c-1.24,2.18-2.98,3.91-5.23,5.18-2.25,1.27-4.87,1.91-7.85,1.91s-5.58-.54-8.01-1.63c-2.44-1.09-4.56-2.69-6.38-4.8-1.82-2.11-3.27-4.61-4.36-7.52l-8.39,3.49c1.31,3.78,3.23,7.08,5.78,9.92,2.54,2.83,5.63,5.05,9.26,6.65,3.63,1.6,7.67,2.4,12.1,2.4s8.68-.96,12.32-2.89c3.63-1.92,6.5-4.61,8.61-8.07,2.11-3.45,3.16-7.43,3.16-11.94,0-4.21-.69-7.85-2.07-10.9Z" style="fill: #fff; stroke-width: 0px;"/>
  </g>
</svg>