<?xml version="1.0" encoding="UTF-8"?>
<svg width="615px" height="520px" viewBox="0 0 615 520" version="1.1" xmlns="http://www.w3.org/2000/svg" xmlns:xlink="http://www.w3.org/1999/xlink">
    <!-- Generator: Sketch 48 (47235) - http://www.bohemiancoding.com/sketch -->
    <title>Artboard 4</title>
    <desc>Created with Sketch.</desc>
    <defs>
        <filter x="-3.5%" y="-2.5%" width="107.4%" height="106.2%" filterUnits="objectBoundingBox" id="filter-1">
            <feOffset dx="0" dy="1" in="SourceAlpha" result="shadowOffsetOuter1"></feOffset>
            <feGaussianBlur stdDeviation="2" in="shadowOffsetOuter1" result="shadowBlurOuter1"></feGaussianBlur>
            <feColorMatrix values="0 0 0 0 0   0 0 0 0 0   0 0 0 0 0  0 0 0 0.5 0" type="matrix" in="shadowBlurOuter1" result="shadowMatrixOuter1"></feColorMatrix>
            <feMerge>
                <feMergeNode in="shadowMatrixOuter1"></feMergeNode>
                <feMergeNode in="SourceGraphic"></feMergeNode>
            </feMerge>
        </filter>
        <filter x="-3.5%" y="-2.5%" width="107.4%" height="106.2%" filterUnits="objectBoundingBox" id="filter-2">
            <feOffset dx="0" dy="1" in="SourceAlpha" result="shadowOffsetOuter1"></feOffset>
            <feGaussianBlur stdDeviation="2" in="shadowOffsetOuter1" result="shadowBlurOuter1"></feGaussianBlur>
            <feColorMatrix values="0 0 0 0 0   0 0 0 0 0   0 0 0 0 0  0 0 0 0.5 0" type="matrix" in="shadowBlurOuter1" result="shadowMatrixOuter1"></feColorMatrix>
            <feMerge>
                <feMergeNode in="shadowMatrixOuter1"></feMergeNode>
                <feMergeNode in="SourceGraphic"></feMergeNode>
            </feMerge>
        </filter>
        <filter x="-3.5%" y="-2.5%" width="107.4%" height="106.2%" filterUnits="objectBoundingBox" id="filter-3">
            <feOffset dx="0" dy="1" in="SourceAlpha" result="shadowOffsetOuter1"></feOffset>
            <feGaussianBlur stdDeviation="2" in="shadowOffsetOuter1" result="shadowBlurOuter1"></feGaussianBlur>
            <feColorMatrix values="0 0 0 0 0   0 0 0 0 0   0 0 0 0 0  0 0 0 0.5 0" type="matrix" in="shadowBlurOuter1" result="shadowMatrixOuter1"></feColorMatrix>
            <feMerge>
                <feMergeNode in="shadowMatrixOuter1"></feMergeNode>
                <feMergeNode in="SourceGraphic"></feMergeNode>
            </feMerge>
        </filter>
    </defs>
    <g id="PLACEHOLDERS" stroke="none" stroke-width="1" fill="none" fill-rule="evenodd">
        <g id="Artboard-4">
            <g id="Group-26">
                <rect id="Rectangle-7" fill="#6467C1" x="0" y="0" width="615" height="615"></rect>
                <g id="Group-23" transform="translate(109.000000, 45.000000)">
                    <g id="folder-02" transform="translate(0.000000, 106.590395)">
                        <g id="Layer_1">
                            <path d="M18.1458125,79.6004518 L18.1458125,22.8180952 C17.0786328,16.8169736 19.0145736,10.6737398 23.3310744,6.36393699 C27.6475753,2.05413418 33.8003565,0.121197421 39.8108046,1.18672121 L143.802766,1.18672121 C150.506161,-0.164700814 157.458332,1.6627439 162.626246,6.13465312 C167.794161,10.6065623 170.59399,17.2177363 170.206976,24.03486 L346.235036,24.03486 C368.17084,24.03486 368.17084,24.03486 368.712465,46.4774104 C368.712465,49.5869205 368.712465,52.8316265 369.660309,56.8875092 C386.586084,56.8875092 388.075552,66.6216274 387.263115,80.4116284 C383.471741,141.925848 380.492805,203.440068 377.513868,264.954287 C378.556299,269.607013 377.067185,274.463976 373.594833,277.73679 C370.122481,281.009604 365.180314,282.214349 360.588093,280.907426 L25.863966,280.907426 C22.0069324,281.609081 18.0441071,280.456883 15.167376,277.797377 C12.290645,275.13787 10.8356838,271.281382 11.2400963,267.387817 C8.53197232,219.528402 5.55303591,172.750556 2.7095057,124.620749 C2.7095057,116.508984 2.7095057,108.397218 1.4908499,100.285453 C0.272194097,88.3881975 -0.404836905,77.1669223 18.1458125,79.6004518 L18.1458125,79.6004518 Z M354.63022,39.0416256 L31.280214,39.0416256 L31.280214,79.6004518 L175.217005,79.6004518 C190.313142,80.2490066 205.204422,75.9263109 217.599146,67.2976079 C226.058297,61.838891 235.83419,58.7565573 245.899042,58.3746661 C277.31328,57.2930974 308.727519,57.4282935 340.683382,58.3746661 C353.953189,58.5098622 359.504844,53.9131952 354.63022,38.9064296 L354.63022,39.0416256 Z" id="Shape" fill="#FFC107"></path>
                            <path d="M354.63022,38.9064296 C358.069882,44.2808522 357.279774,51.3244391 352.734534,55.8059405 C348.868056,57.8361845 344.487711,58.6826778 340.141757,58.23947 C308.727519,58.23947 277.31328,57.4282935 245.357417,58.23947 C235.292565,58.6213612 225.516673,61.7036949 217.057521,67.1624118 C204.662797,75.7911148 189.771517,80.1138105 174.67538,79.4652557 C127.147804,78.6540792 79.8910399,79.4652557 30.7385892,79.4652557 L30.7385892,38.9064296 L354.63022,38.9064296 L354.63022,38.9064296 Z" id="Shape" fill="#000000"></path>
                        </g>
                    </g>
                    <g id="Group-21" filter="url(#filter-1)" transform="translate(284.144000, 136.809322) rotate(23.000000) translate(-284.144000, -136.809322) translate(190.530667, 28.570621)">
                        <path d="M0,13.5109658 L0,202.664487 C0,210.095519 6.01696188,216.175453 13.3710264,216.175453 L173.823343,216.175453 C181.177408,216.175453 187.19437,210.095519 187.19437,202.664487 L187.19437,54.0438633 L133.710264,0 L13.3710264,0 C6.01696188,0 0,6.07993462 0,13.5109658 Z" id="Document" fill="#FFFCF2"></path>
                        <path d="M0,13.5109658 L0,202.664487 C0,210.095519 6.01696188,216.175453 13.3710264,216.175453 L173.823343,216.175453 C181.177408,216.175453 187.19437,210.095519 187.19437,202.664487 L187.19437,54.0438633 L133.710264,0 L13.3710264,0 C6.01696188,0 0,6.07993462 0,13.5109658 Z" id="Document" fill="#FFFCF2" transform="translate(93.597185, 108.087727) scale(-1, 1) translate(-93.597185, -108.087727) "></path>
                        <path d="M160.452317,40.5328975 L160.452317,54.0438633 L33.427566,54.0438633 L33.427566,40.5328975 L160.452317,40.5328975 Z M33.427566,94.5767608 L33.427566,81.0657949 L160.452317,81.0657949 L160.452317,94.5767608 L33.427566,94.5767608 Z M33.427566,135.109658 L33.427566,121.598692 L160.452317,121.598692 L160.452317,135.109658 L33.427566,135.109658 Z M33.427566,175.642556 L33.427566,162.13159 L133.710264,162.13159 L133.710264,175.642556 L33.427566,175.642556 Z" id="Shape" fill-opacity="0.403419384" fill="#344E5F"></path>
                    </g>
                    <g id="Group-21" filter="url(#filter-2)" transform="translate(132.160000, 18.680791)">
                        <path d="M0,13.5109658 L0,202.664487 C0,210.095519 6.01696188,216.175453 13.3710264,216.175453 L173.823343,216.175453 C181.177408,216.175453 187.19437,210.095519 187.19437,202.664487 L187.19437,54.0438633 L133.710264,0 L13.3710264,0 C6.01696188,0 0,6.07993462 0,13.5109658 Z" id="Document" fill="#FFFCF2"></path>
                        <path d="M0,13.5109658 L0,202.664487 C0,210.095519 6.01696188,216.175453 13.3710264,216.175453 L173.823343,216.175453 C181.177408,216.175453 187.19437,210.095519 187.19437,202.664487 L187.19437,54.0438633 L133.710264,0 L13.3710264,0 C6.01696188,0 0,6.07993462 0,13.5109658 Z" id="Document" fill="#FFFCF2" transform="translate(93.597185, 108.087727) scale(-1, 1) translate(-93.597185, -108.087727) "></path>
                        <path d="M160.452317,40.5328975 L160.452317,54.0438633 L33.427566,54.0438633 L33.427566,40.5328975 L160.452317,40.5328975 Z M33.427566,94.5767608 L33.427566,81.0657949 L160.452317,81.0657949 L160.452317,94.5767608 L33.427566,94.5767608 Z M33.427566,135.109658 L33.427566,121.598692 L160.452317,121.598692 L160.452317,135.109658 L33.427566,135.109658 Z M33.427566,175.642556 L33.427566,162.13159 L133.710264,162.13159 L133.710264,175.642556 L33.427566,175.642556 Z" id="Shape" fill-opacity="0.403419384" fill="#344E5F"></path>
                    </g>
                    <g id="Group-21" filter="url(#filter-3)" transform="translate(125.552000, 162.083333) rotate(-20.000000) translate(-125.552000, -162.083333) translate(31.938667, 53.844633)">
                        <path d="M5.1221088e-12,13.5109658 L5.1221088e-12,202.664487 C5.1221088e-12,210.095519 6.01696188,216.175453 13.3710264,216.175453 L173.823343,216.175453 C181.177408,216.175453 187.19437,210.095519 187.19437,202.664487 L187.19437,54.0438633 L133.710264,-3.190267e-12 L13.3710264,-3.190267e-12 C6.01696188,-3.190267e-12 5.1221088e-12,6.07993462 5.1221088e-12,13.5109658 Z" id="Document" fill="#FFFCF2"></path>
                        <path d="M133.710264,-1.00336589e-11 L133.710264,54.0438633 L187.19437,54.0438633 L133.710264,-1.00336589e-11 L133.710264,-1.00336589e-11 Z M106.968211,40.5328975 L33.427566,40.5328975 L33.427566,54.0438633 L106.968211,54.0438633 L106.968211,40.5328975 L106.968211,40.5328975 Z M33.427566,94.5767608 L160.452317,94.5767608 L160.452317,81.0657949 L33.427566,81.0657949 L33.427566,94.5767608 L33.427566,94.5767608 Z M33.427566,135.109658 L160.452317,135.109658 L160.452317,121.598692 L33.427566,121.598692 L33.427566,135.109658 L33.427566,135.109658 Z M33.427566,175.642556 L133.710264,175.642556 L133.710264,162.13159 L33.427566,162.13159 L33.427566,175.642556 L33.427566,175.642556 Z" id="Shape" fill-opacity="0.403419384" fill="#344E5F"></path>
                        <polygon id="Path" fill-opacity="0.403419384" fill="#344E5F" points="133.710264 -9.57080101e-12 133.710264 54.0438633 187.19437 54.0438633"></polygon>
                    </g>
                    <g id="folder-03" transform="translate(1.101333, 163.731638)">
                        <g id="Layer_1">
                            <path d="M338.70498,1.17766878 C307.477571,1.17766878 276.250163,0.369269023 245.022754,1.17766878 L241.778348,1.17766878 C232.725844,1.93277629 223.998324,4.89395043 216.363834,9.80059948 C203.989488,18.3997652 189.12269,22.7076637 174.051371,22.0613291 C126.601932,21.2529293 79.4228606,22.0613291 30.3512186,22.0613291 L16.8328599,22.0613291 C-0.60582274,20.4445296 -0.0650883936,31.6273928 1.28674747,43.6186558 C2.50339975,51.5679201 2.50339975,59.382451 2.50339975,67.7359151 C5.34225508,115.027301 8.45147757,162.04922 11.0199657,209.610072 C10.3254633,213.620124 11.6500355,217.714509 14.5639748,220.56496 C17.4779142,223.415411 21.6100223,224.658817 25.6197931,223.891801 L359.793619,223.891801 C364.387367,225.018578 369.237885,223.669982 372.583079,220.335931 C375.928273,217.00188 377.281376,212.167518 376.150833,207.589072 C379.124872,146.285424 382.098911,84.9817765 385.884052,23.6781286 C386.695153,10.2047994 385.07295,1.04293548 367.499084,1.17766878 L338.70498,1.17766878 Z" id="Shape" fill="#FFA000"></path>
                            <path d="M30.3512186,22.8697288 L31.0271366,22.8697288" id="Shape" fill="#505050"></path>
                        </g>
                    </g>
                </g>
            </g>
        </g>
    </g>
</svg>