<?xml version="1.0" encoding="UTF-8" standalone="no"?>
<svg width="60px" height="60px" viewBox="0 0 60 60" version="1.1" xmlns="http://www.w3.org/2000/svg" xmlns:xlink="http://www.w3.org/1999/xlink">
    <!-- Generator: Sketch 39.1 (31720) - http://www.bohemiancoding.com/sketch -->
    <title>icon-equipmentDef</title>
    <desc>Created with Sketch.</desc>
    <defs>
        <polygon id="path-1" points="-7.69552215e-16 0 23.85885 10.376062 57.1849586 11.5277374 57.1849586 50.9525991 23.718577 50.9525991 -7.69552215e-16 44.0359567"></polygon>
        <mask id="mask-2" maskContentUnits="userSpaceOnUse" maskUnits="objectBoundingBox" x="0" y="0" width="57.1849586" height="50.9525991" fill="white">
            <use xlink:href="#path-1"></use>
        </mask>
    </defs>
    <g id="Dashboard" stroke="none" stroke-width="1" fill="none" fill-rule="evenodd">
        <g id="icon-equipmentDef">
            <g id="BOOK-MINE-angle" transform="translate(1.000000, 5.000000)">
                <g id="Group-9" transform="translate(-0.000000, 1.749240)">
                    <use id="Rectangle-1" stroke="#232D37" mask="url(#mask-2)" stroke-width="1.8" fill="#3C3F4C" xlink:href="#path-1"></use>
                    <path d="M3.24914538,41.4699731 L26.260225,48.4010159 L55.4520811,48.4164969 L55.4520811,13.1416206 L52.4306332,9.91385413 C52.4306332,9.91385413 50.0295631,9.91385413 48.8290281,9.91385413 C41.7042972,9.91385413 27.4548355,9.91385413 27.4548355,9.91385413 C26.490402,9.91385413 25.4691435,10.7434893 25.1736173,11.7674972 L24.9589351,12.511378 L24.7979167,12.0055575 C24.6429028,10.9337949 23.6450583,9.91385413 22.6724869,9.91385413 L3.24914538,3.49358351 L3.24914538,41.4699731 Z" id="Combined-Shape" fill="#E6E6E6"></path>
                </g>
                <path d="M25.9098814,26.1072195 C25.882307,37.3906032 25.882307,49.6784097 25.882307,49.6784097 L52.7352006,49.6784097 L52.7352006,11.8948305 L28.1468778,11.8948305 C27.1894824,11.8948305 26.1756766,12.2270196 25.882307,13.3167313 C25.882307,13.3167313 25.9374558,14.8238358 25.9098814,26.1072195 Z" id="Combined-Shape" fill="#FFFFFF"></path>
                <polygon id="Rectangle-41" fill="#C3C3C3" points="5.36793766 41.7461881 5.17646141 2.09908774 23.941134 12.8702653 23.941134 48.9787138"></polygon>
                <polygon id="Rectangle-41" fill="#D5D5D5" points="6.14704792 41.3134482 6.14704842 0.349847956 23.6176052 12.3653691 23.6176052 48.2790179"></polygon>
                <polygon id="Rectangle-41" fill="#E5E5E5" points="8.62879839 40.1604813 8.41174979 -1.38732803e-14 23.941134 13.1046783 23.941134 49.3285618"></polygon>
                <polygon id="Rectangle-41" fill="#FFFFFF" points="9.92051975 37.9345949 9.70586514 0 24.9117205 13.1046783 24.9117205 49.3285618"></polygon>
                <path d="M29.1214755,46.5297781 L52.4155338,46.5297781 C53.3767886,46.5297781 54.4036134,47.2717157 54.7123836,48.197049 L55.3234313,50.0282577 L25.882307,50.0282577 L29.1214755,46.5297781 Z" id="Path-56" fill="#C6C1C0" transform="translate(40.602869, 48.279018) scale(-1, 1) translate(-40.602869, -48.279018) "></path>
                <path d="M12.2825392,7.75370937 L24.2994409,15.9810142 C24.5359989,16.1429724 24.6499495,16.6006452 24.5543919,17.00143 C24.4586395,17.4030319 24.1890441,17.5971616 23.9526906,17.4353435 L11.935789,9.20803859 C11.699231,9.04608046 11.5852803,8.58840759 11.6808379,8.18762284 C11.7765904,7.78602092 12.0461857,7.59189126 12.2825392,7.75370937 Z" id="Rectangle-9" fill="#CECAC9"></path>
                <path d="M12.2825392,11.0761918 L24.2994409,19.3034967 C24.5359989,19.4654548 24.6499495,19.9231277 24.5543919,20.3239124 C24.4586395,20.7255143 24.1890441,20.919644 23.9526906,20.7578259 L11.935789,12.530521 C11.699231,12.3685629 11.5852803,11.91089 11.6808379,11.5101053 C11.7765904,11.1085034 12.0461857,10.9143737 12.2825392,11.0761918 Z" id="Rectangle-9" fill="#CECAC9"></path>
                <path d="M12.2825392,14.3171146 L24.2994409,22.5444195 C24.5359989,22.7063776 24.6499495,23.1640505 24.5543919,23.5648352 C24.4586395,23.9664371 24.1890441,24.1605668 23.9526906,23.9987487 L11.935789,15.7714438 C11.699231,15.6094857 11.5852803,15.1518128 11.6808379,14.7510281 C11.7765904,14.3494261 12.0461857,14.1552965 12.2825392,14.3171146 Z" id="Rectangle-9" fill="#CECAC9"></path>
                <path d="M12.2825392,17.8821296 L24.2994409,26.1094345 C24.5359989,26.2713926 24.6499495,26.7290655 24.5543919,27.1298503 C24.4586395,27.5314522 24.1890441,27.7255818 23.9526906,27.5637637 L11.935789,19.3364589 C11.699231,19.1745007 11.5852803,18.7168279 11.6808379,18.3160431 C11.7765904,17.9144412 12.0461857,17.7203115 12.2825392,17.8821296 Z" id="Rectangle-9" fill="#CECAC9"></path>
                <path d="M12.2825392,21.1230524 L24.2994409,29.3503573 C24.5359989,29.5123154 24.6499495,29.9699883 24.5543919,30.370773 C24.4586395,30.772375 24.1890441,30.9665046 23.9526906,30.8046865 L11.935789,22.5773816 C11.699231,22.4154235 11.5852803,21.9577506 11.6808379,21.5569659 C11.7765904,21.155364 12.0461857,20.9612343 12.2825392,21.1230524 Z" id="Rectangle-9" fill="#CECAC9"></path>
                <path d="M12.2825392,24.3639752 L24.2994409,32.5912801 C24.5359989,32.7532382 24.6499495,33.2109111 24.5543919,33.6116958 C24.4586395,34.0132977 24.1890441,34.2074274 23.9526906,34.0456093 L11.935789,25.8183044 C11.699231,25.6563463 11.5852803,25.1986734 11.6808379,24.7978887 C11.7765904,24.3962868 12.0461857,24.2021571 12.2825392,24.3639752 Z" id="Rectangle-9" fill="#CECAC9"></path>
                <path d="M12.2825392,27.9289903 L24.2994409,36.1562951 C24.5359989,36.3182533 24.6499495,36.7759261 24.5543919,37.1767109 C24.4586395,37.5783128 24.1890441,37.7724425 23.9526906,37.6106243 L11.935789,29.3833195 C11.699231,29.2213614 11.5852803,28.7636885 11.6808379,28.3629037 C11.7765904,27.9613018 12.0461857,27.7671722 12.2825392,27.9289903 Z" id="Rectangle-9" fill="#CECAC9"></path>
                <path d="M11.9590104,31.1420111 L23.975912,39.3693159 C24.21247,39.5312741 24.3264207,39.9889469 24.2308631,40.3897317 C24.1351107,40.7913336 23.8655153,40.9854633 23.6291618,40.8236451 L11.6122602,32.5963403 C11.3757021,32.4343821 11.2617515,31.9767093 11.3573091,31.5759245 C11.4530615,31.1743226 11.7226569,30.9801929 11.9590104,31.1420111 Z" id="Rectangle-9" fill="#CECAC9"></path>
                <rect id="Rectangle-9" fill="#CECAC9" x="28.1470089" y="31.486316" width="21.999961" height="1.39939182" rx="0.699695912"></rect>
                <rect id="Rectangle-9" fill="#CECAC9" x="28.1470089" y="28.8935778" width="21.999961" height="1.39939182" rx="0.699695912"></rect>
                <rect id="Rectangle-9" fill="#CECAC9" x="28.1470089" y="34.3537815" width="21.999961" height="1.39939182" rx="0.699695912"></rect>
                <rect id="Rectangle-9" fill="#CECAC9" x="28.1470089" y="36.9465197" width="21.999961" height="1.39939182" rx="0.699695912"></rect>
                <rect id="Rectangle-9" fill="#CECAC9" x="28.1470089" y="39.882667" width="21.999961" height="1.39939182" rx="0.699695912"></rect>
                <g id="Group-3" transform="translate(28.091705, 14.584153)">
                    <g id="Group-2" transform="translate(0.000000, 4.213200)" fill="#CECAC9">
                        <rect id="Rectangle-9" x="0.0553035389" y="0.274727229" width="6.14704792" height="0.699695912" rx="0.349847956"></rect>
                        <rect id="Rectangle-9" x="0.0553035389" y="1.76158104" width="6.14704792" height="0.699695912" rx="0.349847956"></rect>
                        <rect id="Rectangle-9" x="0.0553035389" y="3.24843485" width="6.14704792" height="0.699695912" rx="0.349847956"></rect>
                        <rect id="Rectangle-9" x="0.0553035389" y="6.22214248" width="6.14704792" height="0.699695912" rx="0.349847956"></rect>
                        <rect id="Rectangle-9" x="0.0553035389" y="4.73528867" width="6.14704792" height="0.699695912" rx="0.349847956"></rect>
                    </g>
                    <g id="Briefcase_2_" transform="translate(7.496467, 0.197997)">
                        <path d="M12.6355395,2.18812521 L0.743267029,2.18812521 C0.334470163,2.18812521 0,2.51634399 0,2.91750027 L0,10.211251 C0,10.6124072 0.334470163,10.940626 0.743267029,10.940626 L12.6355395,10.940626 C13.0443364,10.940626 13.3788065,10.6124072 13.3788065,10.211251 L13.3788065,2.91750027 C13.3788065,2.51634399 13.0443364,2.18812521 12.6355395,2.18812521 L12.6355395,2.18812521 Z" id="Shape" fill="#F3643F"></path>
                        <g id="Handle" transform="translate(3.716335, 0.000000)" fill="#344E5F">
                            <path d="M5.2028692,0 L0.743267029,0 C0.334470163,0 0,0.328218781 0,0.729375068 L0,2.18812521 L1.48653406,2.18812521 L1.48653406,1.45875014 L4.45960217,1.45875014 L4.45960217,2.18812521 L5.94613623,2.18812521 L5.94613623,0.729375068 C5.94613623,0.328218781 5.61166607,0 5.2028692,0 L5.2028692,0 Z M3.71633514,4.37625041 L2.22980109,4.37625041 C1.82100422,4.37625041 1.48653406,4.70446919 1.48653406,5.10562548 L1.48653406,5.83500055 C1.48653406,6.23615684 1.82100422,6.56437562 2.22980109,6.56437562 L3.71633514,6.56437562 C4.12513201,6.56437562 4.45960217,6.23615684 4.45960217,5.83500055 L4.45960217,5.10562548 C4.45960217,4.70446919 4.12513201,4.37625041 3.71633514,4.37625041 L3.71633514,4.37625041 Z M3.71633514,5.83500055 L2.22980109,5.83500055 L2.22980109,5.10562548 L3.71633514,5.10562548 L3.71633514,5.83500055 L3.71633514,5.83500055 Z" id="Shape"></path>
                        </g>
                        <g id="Line_3_" opacity="0.251" transform="translate(0.000000, 5.105625)" fill="#344E5F">
                            <g id="Group">
                                <path d="M0,0.729375068 L5.94613623,0.729375068 L5.94613623,0 L0,0 L0,0.729375068 L0,0.729375068 Z M7.43267029,0 L7.43267029,0.729375068 L13.3788065,0.729375068 L13.3788065,0 L7.43267029,0 L7.43267029,0 Z" id="Shape"></path>
                            </g>
                        </g>
                    </g>
                </g>
            </g>
        </g>
    </g>
</svg>