<?xml version="1.0" encoding="UTF-8" standalone="no"?>
<svg width="60px" height="60px" viewBox="0 0 60 60" version="1.1" xmlns="http://www.w3.org/2000/svg" xmlns:xlink="http://www.w3.org/1999/xlink">
    <!-- Generator: Sketch 39.1 (31720) - http://www.bohemiancoding.com/sketch -->
    <title>icon-portfolio</title>
    <desc>Created with Sketch.</desc>
    <defs>
        <filter x="-50%" y="-50%" width="200%" height="200%" filterUnits="objectBoundingBox" id="filter-1">
            <feOffset dx="0" dy="0" in="SourceAlpha" result="shadowOffsetOuter1"></feOffset>
            <feGaussianBlur stdDeviation="0.5" in="shadowOffsetOuter1" result="shadowBlurOuter1"></feGaussianBlur>
            <feColorMatrix values="0 0 0 0 0   0 0 0 0 0   0 0 0 0 0  0 0 0 0.5 0" type="matrix" in="shadowBlurOuter1" result="shadowMatrixOuter1"></feColorMatrix>
            <feMerge>
                <feMergeNode in="shadowMatrixOuter1"></feMergeNode>
                <feMergeNode in="SourceGraphic"></feMergeNode>
            </feMerge>
        </filter>
        <filter x="-50%" y="-50%" width="200%" height="200%" filterUnits="objectBoundingBox" id="filter-2">
            <feOffset dx="0" dy="0" in="SourceAlpha" result="shadowOffsetOuter1"></feOffset>
            <feGaussianBlur stdDeviation="0.5" in="shadowOffsetOuter1" result="shadowBlurOuter1"></feGaussianBlur>
            <feColorMatrix values="0 0 0 0 0   0 0 0 0 0   0 0 0 0 0  0 0 0 0.5 0" type="matrix" in="shadowBlurOuter1" result="shadowMatrixOuter1"></feColorMatrix>
            <feMerge>
                <feMergeNode in="shadowMatrixOuter1"></feMergeNode>
                <feMergeNode in="SourceGraphic"></feMergeNode>
            </feMerge>
        </filter>
        <filter x="-50%" y="-50%" width="200%" height="200%" filterUnits="objectBoundingBox" id="filter-3">
            <feOffset dx="0" dy="0" in="SourceAlpha" result="shadowOffsetOuter1"></feOffset>
            <feGaussianBlur stdDeviation="0.5" in="shadowOffsetOuter1" result="shadowBlurOuter1"></feGaussianBlur>
            <feColorMatrix values="0 0 0 0 0   0 0 0 0 0   0 0 0 0 0  0 0 0 0.5 0" type="matrix" in="shadowBlurOuter1" result="shadowMatrixOuter1"></feColorMatrix>
            <feMerge>
                <feMergeNode in="shadowMatrixOuter1"></feMergeNode>
                <feMergeNode in="SourceGraphic"></feMergeNode>
            </feMerge>
        </filter>
    </defs>
    <g id="Dashboard" stroke="none" stroke-width="1" fill="none" fill-rule="evenodd">
        <g id="icon-portfolio">
            <g id="Group-23" transform="translate(1.000000, 3.000000)">
                <g id="folder-02" transform="translate(0.000000, 15.041790)">
                    <g id="Layer_1">
                        <path d="M2.60018246,11.2227473 L2.60018246,3.21708873 C2.44726222,2.37099968 2.72467053,1.50487443 3.34319835,0.897241852 C3.96172616,0.289609272 4.84338158,0.0170874411 5.70464153,0.167314029 L20.6060451,0.167314029 C21.5665999,-0.0232209187 22.5628029,0.234427748 23.3033331,0.864915466 C24.0438632,1.49540318 24.4450613,2.42750259 24.3896046,3.38863856 L49.6133345,3.38863856 C52.7565993,3.38863856 52.7565993,3.38863856 52.8342108,6.55277981 C52.8342108,6.99118492 52.8342108,7.44865113 52.9700309,8.02048388 C55.3953895,8.02048388 55.6088211,9.3928825 55.4924039,11.3371139 C54.9491235,20.0099107 54.5222604,28.6827075 54.0953973,37.3555043 C54.2447712,38.011485 54.0313903,38.696261 53.5338238,39.15769 C53.0362573,39.6191191 52.3280755,39.7889743 51.6700387,39.6047131 L3.706146,39.6047131 C3.15345701,39.7036384 2.5856087,39.5411918 2.17339097,39.166232 C1.76117325,38.7912722 1.55268632,38.2475518 1.61063613,37.6986039 C1.22257875,30.9509774 0.795715625,24.3558396 0.388255372,17.5700909 C0.388255372,16.4264254 0.388255372,15.2827599 0.21362955,14.1390944 C0.0390037268,12.4617183 -0.0580106191,10.8796477 2.60018246,11.2227473 L2.60018246,11.2227473 Z M50.8163124,5.50441976 L4.48226077,5.50441976 L4.48226077,11.2227473 L25.1075107,11.2227473 C27.2706936,11.3141861 29.4045218,10.7047357 31.1806088,9.48818796 C32.3927528,8.71857172 33.7935776,8.28399816 35.2358084,8.23015589 C39.7372741,8.07766716 44.2387397,8.09672825 48.8178169,8.23015589 C50.7192981,8.24921699 51.5148157,7.60113986 50.8163124,5.48535866 L50.8163124,5.50441976 Z" id="Shape" fill="#FFC107"></path>
                        <path d="M50.8163124,5.48535866 C51.3091946,6.24309038 51.195977,7.23615505 50.5446722,7.86799515 C49.99063,8.15423619 49.3629536,8.27358199 48.7402054,8.2110948 C44.2387397,8.2110948 39.7372741,8.09672825 35.158197,8.2110948 C33.7159661,8.26493707 32.3151413,8.69951062 31.1029973,9.46912687 C29.3269103,10.6856747 27.1930821,11.295125 25.0298992,11.2036862 C18.2194922,11.0893197 11.4478908,11.2036862 4.4046493,11.2036862 L4.4046493,5.48535866 L50.8163124,5.48535866 L50.8163124,5.48535866 Z" id="Shape" fill="#000000"></path>
                    </g>
                </g>
                <g id="Group-21" filter="url(#filter-1)" transform="translate(40.562948, 19.312301) rotate(23.000000) translate(-40.562948, -19.312301) translate(27.091850, 4.034523)">
                    <path d="M-6.10656034e-13,1.90521295 L-6.10656034e-13,28.5781943 C-6.10656034e-13,29.6260614 0.856918746,30.4834073 1.90426388,30.4834073 L24.7554304,30.4834073 C25.8027756,30.4834073 26.6596943,29.6260614 26.6596943,28.5781943 L26.6596943,7.62085182 L19.0426388,2.920471e-13 L1.90426388,2.920471e-13 C0.856918746,2.920471e-13 -6.10656034e-13,0.85734583 -6.10656034e-13,1.90521295 Z" id="Document" fill="#FFFCF2"></path>
                    <path d="M5.28265935e-13,1.90521295 L5.28265935e-13,28.5781943 C5.28265935e-13,29.6260614 0.856918746,30.4834073 1.90426388,30.4834073 L24.7554304,30.4834073 C25.8027756,30.4834073 26.6596943,29.6260614 26.6596943,28.5781943 L26.6596943,7.62085182 L19.0426388,-4.3200472e-13 L1.90426388,-4.3200472e-13 C0.856918746,-4.3200472e-13 5.28265935e-13,0.85734583 5.28265935e-13,1.90521295 Z" id="Document" fill="#FFFCF2" transform="translate(13.329847, 15.241704) scale(-1, 1) translate(-13.329847, -15.241704) "></path>
                    <path d="M22.8511666,5.71563886 L4.7606597,5.71563886 L4.7606597,7.62085182 L22.8511666,7.62085182 L22.8511666,5.71563886 Z M4.7606597,13.3364907 L22.8511666,13.3364907 L22.8511666,11.4312777 L4.7606597,11.4312777 L4.7606597,13.3364907 Z M4.7606597,19.0521295 L22.8511666,19.0521295 L22.8511666,17.1469166 L4.7606597,17.1469166 L4.7606597,19.0521295 Z M4.7606597,24.7677684 L19.0426388,24.7677684 L19.0426388,22.8625555 L4.7606597,22.8625555 L4.7606597,24.7677684 Z" id="Shape" fill-opacity="0.403419384" fill="#344E5F"></path>
                </g>
                <g id="Group-21" filter="url(#filter-2)" transform="translate(19.109411, 2.654434)">
                    <path d="M0,1.90521295 L0,28.5781943 C0,29.6260614 0.856918746,30.4834073 1.90426388,30.4834073 L24.7554304,30.4834073 C25.8027756,30.4834073 26.6596943,29.6260614 26.6596943,28.5781943 L26.6596943,7.62085182 L19.0426388,-2.4158453e-15 L1.90426388,-2.4158453e-15 C0.856918746,-2.4158453e-15 0,0.85734583 0,1.90521295 Z" id="Document" fill="#FFFCF2"></path>
                    <path d="M-8.23900999e-14,1.90521295 L-8.23900999e-14,28.5781943 C-8.23900999e-14,29.6260614 0.856918746,30.4834073 1.90426388,30.4834073 L24.7554304,30.4834073 C25.8027756,30.4834073 26.6596943,29.6260614 26.6596943,28.5781943 L26.6596943,7.62085182 L19.0426388,-2.4158453e-15 L1.90426388,-2.4158453e-15 C0.856918746,-2.4158453e-15 -8.23900999e-14,0.85734583 -8.23900999e-14,1.90521295 Z" id="Document" fill="#FFFCF2" transform="translate(13.329847, 15.241704) scale(-1, 1) translate(-13.329847, -15.241704) "></path>
                    <path d="M22.8511666,5.71563886 L4.7606597,5.71563886 L4.7606597,7.62085182 L22.8511666,7.62085182 L22.8511666,5.71563886 Z M4.7606597,13.3364907 L22.8511666,13.3364907 L22.8511666,11.4312777 L4.7606597,11.4312777 L4.7606597,13.3364907 Z M4.7606597,19.0521295 L22.8511666,19.0521295 L22.8511666,17.1469166 L4.7606597,17.1469166 L4.7606597,19.0521295 Z M4.7606597,24.7677684 L19.0426388,24.7677684 L19.0426388,22.8625555 L4.7606597,22.8625555 L4.7606597,24.7677684 Z" id="Shape" fill-opacity="0.403419384" fill="#344E5F"></path>
                </g>
                <g id="Group-21" filter="url(#filter-3)" transform="translate(17.911847, 22.750471) rotate(-20.000000) translate(-17.911847, -22.750471) translate(4.440749, 7.472693)">
                    <path d="M3.40464972e-13,1.90521295 L3.40464972e-13,28.5781943 C3.40464972e-13,29.6260614 0.856918746,30.4834073 1.90426388,30.4834073 L24.7554304,30.4834073 C25.8027756,30.4834073 26.6596943,29.6260614 26.6596943,28.5781943 L26.6596943,7.62085182 L19.0426388,-3.95500368e-13 L1.90426388,-3.95500368e-13 C0.856918746,-3.95500368e-13 3.40464972e-13,0.85734583 3.40464972e-13,1.90521295 Z" id="Document" fill="#FFFCF2"></path>
                    <path d="M19.0426388,-1.28591217e-12 L19.0426388,7.62085182 L26.6596943,7.62085182 L19.0426388,-1.28591217e-12 L19.0426388,-1.28591217e-12 Z M15.234111,5.71563886 L4.7606597,5.71563886 L4.7606597,7.62085182 L15.234111,7.62085182 L15.234111,5.71563886 L15.234111,5.71563886 Z M4.7606597,13.3364907 L22.8511666,13.3364907 L22.8511666,11.4312777 L4.7606597,11.4312777 L4.7606597,13.3364907 L4.7606597,13.3364907 Z M4.7606597,19.0521295 L22.8511666,19.0521295 L22.8511666,17.1469166 L4.7606597,17.1469166 L4.7606597,19.0521295 L4.7606597,19.0521295 Z M4.7606597,24.7677684 L19.0426388,24.7677684 L19.0426388,22.8625555 L4.7606597,22.8625555 L4.7606597,24.7677684 L4.7606597,24.7677684 Z" id="Shape" fill-opacity="0.403419384" fill="#344E5F"></path>
                    <polygon id="Path" fill-opacity="0.403419384" fill="#344E5F" points="19.0426388 -1.34849607e-12 19.0426388 7.62085182 26.6596943 7.62085182"></polygon>
                </g>
                <g id="folder-03" transform="translate(0.000000, 23.005091)">
                    <g id="Layer_1">
                        <path d="M48.5343242,0.166523704 C44.0596301,0.166523704 39.584936,0.0522150597 35.1102419,0.166523704 L34.6453386,0.166523704 C33.3481709,0.273296764 32.0975714,0.692010155 31.0035963,1.38581591 C29.2304292,2.60174772 27.1001092,3.21088947 24.9404826,3.11949701 C18.1412722,3.00518837 11.3808036,3.11949701 4.3491415,3.11949701 L2.41204449,3.11949701 C-0.0868106435,2.89087972 -0.00932676335,4.4721493 0.184382937,6.16772752 C0.358721667,7.29176252 0.358721667,8.39674608 0.358721667,9.57793541 C0.765512038,16.2649911 1.21104435,22.9139439 1.57909278,29.6391025 C1.47957489,30.2061283 1.66937787,30.7850791 2.08692732,31.1881361 C2.50447676,31.5911931 3.09658225,31.7670121 3.67115754,31.6585552 L51.5561955,31.6585552 C52.214451,31.8178827 52.9095003,31.6271897 53.3888458,31.1557511 C53.8681914,30.6843125 54.0620826,30.0007283 53.9000829,29.3533308 C54.3262442,20.6849253 54.7524055,12.0165198 55.2947927,3.3481143 C55.4110185,1.44297023 55.1785669,0.147472263 52.6603408,0.166523704 L48.5343242,0.166523704 Z" id="Shape" fill="#FFA000"></path>
                        <path d="M4.3491415,3.23380566 L4.44599635,3.23380566" id="Shape" fill="#505050"></path>
                    </g>
                </g>
            </g>
        </g>
    </g>
</svg>