<?xml version="1.0" encoding="UTF-8" standalone="no"?>
<svg width="60px" height="60px" viewBox="0 0 60 60" version="1.1" xmlns="http://www.w3.org/2000/svg" xmlns:xlink="http://www.w3.org/1999/xlink">
    <!-- Generator: Sketch 39.1 (31720) - http://www.bohemiancoding.com/sketch -->
    <title>icon-equipment</title>
    <desc>Created with Sketch.</desc>
    <defs></defs>
    <g id="Dashboard" stroke="none" stroke-width="1" fill="none" fill-rule="evenodd">
        <g id="icon-equipment">
            <g id="Briefcase_2_" transform="translate(1.000000, 9.000000)">
                <g id="Group">
                    <g id="Briefcase" transform="translate(0.000000, 9.473949)" fill="#F3643F">
                        <path d="M54.7215352,0 L3.21891383,0 C1.44851123,0 0,1.42109237 0,3.15798304 L0,34.7378135 C0,36.4747041 1.44851123,37.8957965 3.21891383,37.8957965 L54.7215352,37.8957965 C56.4919378,37.8957965 57.940449,36.4747041 57.940449,34.7378135 L57.940449,3.15798304 C57.940449,1.42109237 56.4919378,0 54.7215352,0 L54.7215352,0 Z" id="Shape"></path>
                    </g>
                    <g id="Handle" transform="translate(16.094569, 0.000000)" fill="#344E5F">
                        <path d="M22.5323968,0 L3.21891383,0 C1.44851123,0 0,1.42109237 0,3.15798304 L0,9.47394913 L6.43782767,9.47394913 L6.43782767,6.31596608 L19.313483,6.31596608 L19.313483,9.47394913 L25.7513107,9.47394913 L25.7513107,3.15798304 C25.7513107,1.42109237 24.3027994,0 22.5323968,0 L22.5323968,0 Z M16.0945692,18.9478983 L9.6567415,18.9478983 C7.88633889,18.9478983 6.43782767,20.3689906 6.43782767,22.1058813 L6.43782767,25.2638643 C6.43782767,27.000755 7.88633889,28.4218474 9.6567415,28.4218474 L16.0945692,28.4218474 C17.8649718,28.4218474 19.313483,27.000755 19.313483,25.2638643 L19.313483,22.1058813 C19.313483,20.3689906 17.8649718,18.9478983 16.0945692,18.9478983 L16.0945692,18.9478983 Z M16.0945692,25.2638643 L9.6567415,25.2638643 L9.6567415,22.1058813 L16.0945692,22.1058813 L16.0945692,25.2638643 L16.0945692,25.2638643 Z" id="Shape"></path>
                    </g>
                    <g id="Line_3_" opacity="0.251" transform="translate(0.000000, 22.105881)" fill="#344E5F">
                        <g id="Group">
                            <path d="M0,3.15798304 L25.7513107,3.15798304 L25.7513107,0 L0,0 L0,3.15798304 L0,3.15798304 Z M32.1891383,0 L32.1891383,3.15798304 L57.940449,3.15798304 L57.940449,0 L32.1891383,0 L32.1891383,0 Z" id="Shape"></path>
                        </g>
                    </g>
                </g>
            </g>
        </g>
    </g>
</svg>