<?xml version="1.0" encoding="UTF-8"?>
<svg width="119px" height="207px" viewBox="0 0 119 207" version="1.1" xmlns="http://www.w3.org/2000/svg" xmlns:xlink="http://www.w3.org/1999/xlink">
    <!-- Generator: Sketch 42 (36781) - http://www.bohemiancoding.com/sketch -->
    <title>plantedTree</title>
    <desc>Created with Sketch.</desc>
    <defs>
        <path d="M118.519051,24.282547 L118.519051,69.6442745 C118.690109,70.8986746 118.787856,72.1678208 118.787856,73.4526961 C118.787856,95.8465892 92.2430163,114 59.499135,114 C26.7545345,114 0.210414001,95.8465892 0.210414001,73.4526961 L0.210414001,24.1382916 C0.0724196557,23.5620297 0.000329347815,23.0193448 0.000329347815,22.5278663 C0.000329347815,19.0775202 3.55732199,16.1476199 8.52446206,15.0510776 C9.82033143,14.7648102 10.8574582,14.1197067 11.3088204,13.3125484 C13.0495835,10.20323 17.813323,7.96874134 23.4309134,7.96874134 C26.0305582,7.96874134 28.4462083,8.44911852 30.4651196,9.27230432 C32.3230356,10.0304901 34.7839656,9.79542136 36.2954539,8.78213257 C39.0172828,6.95856902 43.0924794,5.79880752 47.6556935,5.79880752 C48.3118936,5.79880752 48.9573127,5.82373906 49.5897947,5.87137609 C51.2356855,5.99514334 52.8636079,5.57219769 53.8439551,4.74144338 C57.2147968,1.88411158 62.9797266,0 69.5295092,0 C77.3737238,0 84.09672,2.70106451 86.9249211,6.54052064 C87.7061802,7.60100121 89.4002259,8.28528273 91.3106088,8.28394712 C98.3405025,8.28394712 103.385265,10.9422719 104.799007,14.619673 C105.028281,15.2144682 105.846915,15.6489892 106.902728,15.6521056 C113.406512,15.6521056 118.678394,18.9145748 118.678394,22.9387915 C118.678394,23.3480704 118.623863,23.8003132 118.519051,24.282547 L118.519051,24.282547 Z" id="path-1"></path>
    </defs>
    <g id="PRODUCER" stroke="none" stroke-width="1" fill="none" fill-rule="evenodd">
        <g id="plantedTree">
            <g id="carbonOffset">
                <g>
                    <g id="plantedTree">
                        <g id="Combined-Shape" transform="translate(0.000000, 92.709722)">
                            <g id="Mask" fill-rule="nonzero" fill="#934623">
                                <path d="M118.678394,114.290278 L59.5606316,114.290278 C40.9342238,114.290278 0.210414001,114.290278 0.210414001,114.290278 C0.210414001,114.290278 0.210414001,75.4547726 0.210414001,75.4547726 C0.210414001,75.4547726 0.000329347815,23.6467757 0.000329347815,23.1419011 C0.000329347815,19.59751 3.55732199,16.5877503 8.52446206,15.46132 C9.82033143,15.1672498 10.8574582,14.504563 11.3088204,13.6754042 C13.0495835,10.4813362 17.813323,8.18594275 23.4309134,8.18594275 C26.0305582,8.18594275 28.4462083,8.67941342 30.4651196,9.52503652 C32.3230356,10.3038879 34.7839656,10.062412 36.2954539,9.02150432 C39.0172828,7.14823649 43.0924794,5.95686375 47.6556935,5.95686375 C48.3118936,5.95686375 48.9573127,5.98247483 49.5897947,6.03141029 C51.2356855,6.15855103 52.8636079,5.72407729 53.8439551,4.87067938 C57.2147968,1.93546621 62.9797266,0 69.5295092,0 C77.3737238,0 84.09672,2.77468655 86.9249211,6.7187935 C87.7061802,7.80817925 89.4002259,8.51111201 91.3106088,8.50973999 C98.3405025,8.50973999 103.385265,11.2405218 104.799007,15.0181568 C105.028281,15.629164 105.846915,16.0755286 106.902728,16.07873 C113.406512,16.07873 118.678394,19.4301233 118.678394,23.5640267 C118.678394,23.9844612 118.678394,114.290278 118.678394,114.290278 Z" id="path-1"></path>
                                <path d="M118.678394,114.290278 L59.5606316,114.290278 C40.9342238,114.290278 0.210414001,114.290278 0.210414001,114.290278 C0.210414001,114.290278 0.210414001,75.4547726 0.210414001,75.4547726 C0.210414001,75.4547726 0.000329347815,23.6467757 0.000329347815,23.1419011 C0.000329347815,19.59751 3.55732199,16.5877503 8.52446206,15.46132 C9.82033143,15.1672498 10.8574582,14.504563 11.3088204,13.6754042 C13.0495835,10.4813362 17.813323,8.18594275 23.4309134,8.18594275 C26.0305582,8.18594275 28.4462083,8.67941342 30.4651196,9.52503652 C32.3230356,10.3038879 34.7839656,10.062412 36.2954539,9.02150432 C39.0172828,7.14823649 43.0924794,5.95686375 47.6556935,5.95686375 C48.3118936,5.95686375 48.9573127,5.98247483 49.5897947,6.03141029 C51.2356855,6.15855103 52.8636079,5.72407729 53.8439551,4.87067938 C57.2147968,1.93546621 62.9797266,0 69.5295092,0 C77.3737238,0 84.09672,2.77468655 86.9249211,6.7187935 C87.7061802,7.80817925 89.4002259,8.51111201 91.3106088,8.50973999 C98.3405025,8.50973999 103.385265,11.2405218 104.799007,15.0181568 C105.028281,15.629164 105.846915,16.0755286 106.902728,16.07873 C113.406512,16.07873 118.678394,19.4301233 118.678394,23.5640267 C118.678394,23.9844612 118.678394,114.290278 118.678394,114.290278 Z" id="path-1"></path>
                            </g>
                            <g id="Clipped">
                                <mask id="mask-2" fill="white">
                                    <use xlink:href="#path-1"></use>
                                </mask>
                                <g id="path-1"></g>
                                <polygon id="Shape" fill="#FFB74D" fill-rule="nonzero" mask="url(#mask-2)" points="56.6684676 -39.3294899 41.1684768 -54.6381493 43.8139632 -57.2510997 56.7455289 -44.4785752 57.3578157 -85.3904521 61.1873074 -85.3904521 61.9689897 -27.3746354 75.6719419 -40.9090594 78.3174283 -38.2961091 62.0384767 -22.2173672 64.3465763 149.087886 53.8486147 149.087886"></polygon>
                            </g>
                            <g id="Clipped" fill-rule="nonzero" fill="#702E15">
                                <path d="M80.8957276,81.7881101 C82.4897711,78.6099558 85.8013633,76.4239581 89.6349719,76.4239581 C95.0231021,76.4239581 99.3910775,80.7382132 99.3910775,86.0600765 C99.3910775,86.1983278 99.3877841,86.3357659 99.3811971,86.4723908 C99.3490857,87.135184 99.8538112,87.6857496 100.519917,87.7727666 C101.016409,87.8386393 101.526075,87.9744509 102.045621,88.1972796 C103.768933,88.9365176 105.033629,90.5272213 105.325102,92.3610846 C105.660703,94.4733602 104.784629,96.4074452 103.277059,97.5902935 C104.650543,100.027831 105.391301,102.622916 105.391301,105.314991 C105.391301,108.189872 103.277059,114.146437 103.277059,114.146437 L16.7854758,114.146437 C16.7854758,114.146437 13.9972821,108.418653 13.9972821,105.314991 C13.9972821,102.526751 14.7919068,99.8425526 16.2611302,97.3296808 C15.1670614,96.5291592 14.3732061,95.3411386 14.1064609,93.9867577 C13.4090669,90.4442705 16.1368902,87.3441875 19.5975124,87.3441875 C19.7432488,87.3441875 19.8856917,87.3547596 20.028958,87.366145 C19.9696754,86.9375659 19.9285069,86.5041073 19.9285069,86.0600765 C19.9285069,80.7382132 24.2964823,76.4239581 29.6854359,76.4239581 C30.0328979,76.4239581 30.376243,76.4426627 30.7138245,76.4784454 C32.2592891,76.641094 33.7816994,75.8278509 34.3539412,74.4006091 C35.7824873,70.8345378 39.2982753,68.3126707 43.4167697,68.3126707 C48.8048999,68.3126707 53.1728753,72.6269257 53.1728753,77.9487891 C53.4108291,77.9674937 53.6504297,77.9487891 53.8949704,77.9487891 C55.8175383,77.9487891 57.6058969,78.5026077 59.1151333,79.4532889 C59.3114939,79.5770554 59.5246903,79.6579209 59.7431096,79.6978455 C59.9559087,79.6979702 60.1683671,79.6989103 60.3804755,79.7006605 C60.7419624,79.6385956 61.0869034,79.4688398 61.3621087,79.2003703 C63.1216494,77.4860537 65.5332988,76.4239581 68.2001927,76.4239581 C71.9394574,76.4239581 75.1788271,78.5053224 76.8148773,81.5563512 C78.0163734,81.8287007 79.1924972,82.1288606 80.3407091,82.455407 C80.5701891,82.2798799 80.7618771,82.0551108 80.8957276,81.7881101 Z" id="Shape"></path>
                            </g>
                        </g>
                        <polygon id="Combined-Shape" fill="#FFB74D" fill-rule="nonzero" points="56.8912115 63.0271301 41.1684768 52.5214933 43.8139632 50.7537478 56.9433724 59.5269754 57.3578157 31.7165652 61.1873074 31.7165652 61.5982893 62.6374464 61.7708294 62.7527397 61.6013276 62.866038 61.7112782 71.1383487 75.6719419 61.809667 78.3174283 63.5774125 61.7578562 74.6427157 63.0032424 168.341337 55.3217716 168.341337"></polygon>
                        <g id="Page-1" transform="translate(2.602777, 0.000000)" fill-rule="nonzero">
                            <g id="leaf" opacity="0.996676772" transform="translate(45.152657, 0.000000)">
                                <path d="M11.5271735,0.0238496065 C11.5076716,0.0167862826 11.4862823,0.00442546581 11.4692968,0.00207102452 C10.0752237,-0.176866514 3.52068932,11.2922056 2.21091482,13.9074013 C-0.426877926,19.1766409 -1.26671892,25.0851114 2.8733512,29.303093 C5.21735687,31.691085 8.41755996,32.7558811 11.5271735,32.4898292 L11.5271735,0.0238496065 Z" id="Fill-1" fill="#4CAF50"></path>
                                <path d="M11.5271735,0.0238496065 C11.5466754,0.0167862826 11.5680647,0.00442546581 11.5850502,0.00207102452 C12.9791234,-0.176866514 19.5336577,11.2922056 20.8434322,13.9074013 C23.4812249,19.1766409 24.321066,25.0851114 20.1809958,29.303093 C17.8369901,31.691085 14.6367871,32.7558811 11.5271735,32.4898292 L11.5271735,0.0238496065 Z" id="Fill-4" fill="#2E7D32"></path>
                            </g>
                            <g id="leaf" transform="translate(84.533766, 52.365108) rotate(45.000000) translate(-84.533766, -52.365108) translate(69.033766, 29.865108)">
                                <path d="M15.0869294,0.0378861049 C15.0614049,0.0281271868 15.0334103,0.0110490802 15.0111794,0.00779610745 C13.1865925,-0.239429818 4.60790528,15.6066134 2.8936499,19.2198529 C-0.558738568,26.5000058 -1.6579369,34.6633408 3.76065802,40.4910414 C6.82853292,43.7903689 11.0170137,45.2615258 15.0869294,44.8939399 L15.0869294,0.0378861049 Z" id="Fill-1" fill="#4DAF51"></path>
                                <path d="M14.9537905,0.0378861049 C14.979315,0.0281271868 15.0073095,0.0110490802 15.0295405,0.00779610746 C16.8541274,-0.239429818 25.4328146,15.6066134 27.14707,19.2198529 C30.5994585,26.5000058 31.6986568,34.6633408 26.2800619,40.4910414 C23.212187,43.7903689 19.0237061,45.2615258 14.9537905,44.8939399 L14.9537905,0.0378861049 Z" id="Fill-4" fill="#2E7D32"></path>
                            </g>
                            <g id="leaf" transform="translate(26.071882, 38.813282) scale(-1, 1) rotate(45.000000) translate(-26.071882, -38.813282) translate(11.571882, 17.313282)">
                                <path d="M14.1749677,0.592471474 C14.1509861,0.583302454 14.1246837,0.56725667 14.1037966,0.56420033 C12.3895007,0.331918504 4.3293706,15.2201138 2.71873705,18.6149433 C-0.524964421,25.4550318 -1.55771936,33.1249166 3.53333701,38.6003494 C6.41576766,41.700242 10.3510668,43.0824717 14.1749677,42.7371053 L14.1749677,0.592471474 Z" id="Fill-1" fill="#4DAF51"></path>
                                <path d="M14.0498767,0.592471474 C14.0738583,0.583302454 14.1001607,0.56725667 14.1210478,0.56420033 C15.8353437,0.331918504 23.8954738,15.2201138 25.5061073,18.6149433 C28.7498088,25.4550318 29.7825637,33.1249166 24.6915073,38.6003494 C21.8090768,41.700242 17.8737776,43.0824717 14.0498767,42.7371053 L14.0498767,0.592471474 Z" id="Fill-4" fill="#2E7D32"></path>
                            </g>
                        </g>
                    </g>
                </g>
            </g>
        </g>
    </g>
</svg>